<?xml version="1.0" encoding="utf-8"?>
<!-- Generator: Adobe Illustrator 14.0.0, SVG Export Plug-In . SVG Version: 6.00 Build 43363)  -->
<!DOCTYPE svg PUBLIC "-//W3C//DTD SVG 1.1//EN" "http://www.w3.org/Graphics/SVG/1.1/DTD/svg11.dtd">
	<svg id="flame-3" data-name="flame-3" xmlns="http://www.w3.org/2000/svg" viewBox="0 0 137 398">
		<defs>
		<style>
			.flame-1 {
			fill: #f15a24;
			}

			.flame-2 {
			fill: #c1272d;
			}

			.flame-2, .flame-3 {
			opacity: 0.4;
			}

			.flame-3 {
			fill: #f7931e;
			}
		</style>
		</defs>
		<path class="flame-1" d="M484.2,433c-44.44,0-66.2-75.07-66.2-112,0-41.71,58-219.26,58-286,15.42,87,76,214.13,78.9,300.29C556.75,390.1,521.38,433,484.2,433Z" transform="translate(-418 -35)"/>
		<path class="flame-2" d="M478.72,425.77c-39.38-1-57.11-61.29-56.35-90.7.86-33.2,56-173.21,57.36-226.34,11.86,69.61,63,172.23,63.7,240.88C543.91,393.29,511.67,426.63,478.72,425.77Z" transform="translate(-418 -35)"/>
		<path class="flame-3" d="M492.19,418c-29.7-2.24-42-48.76-40.83-71.12,1.27-25.24,45.48-129.78,47.52-170.17,7.65,53.42,44.29,133.42,43.57,185.71C542,395.71,517,419.89,492.19,418Z" transform="translate(-418 -35)"/>
		<path class="flame-3" d="M491.17,424.12c33.78,0,50.32-48.12,50.32-71.8,0-26.73-44.12-140.55-44.12-183.32-11.72,55.76-57.8,137.26-60,192.49C436,396.62,462.9,424.12,491.17,424.12Z" transform="translate(-418 -35)"/>
		<path class="flame-3" d="M476.58,418.38c-28.57.94-43.5-41.29-44-62.31-.52-23.72,34.56-126,33.72-163.91,11,49.15,51.58,120.19,54.5,169.13C522.68,392.44,500.48,417.59,476.58,418.38Z" transform="translate(-418 -35)"/>
	</svg>
