	<svg id="flame-1" data-name="flame-1" xmlns="http://www.w3.org/2000/svg" viewBox="0 0 137 403">
		<defs>
		<style>
			.flame-1 {
			fill: #f15a24;
			}

			.flame-2 {
			fill: #c1272d;
			}

			.flame-2, .flame-3 {
			opacity: 0.4;
			}

			.flame-3 {
			fill: #f7931e;
			}
			#flame-1{
				transform: rotate(180deg);
			    width: 50px;
			    position: absolute;
			}

			#flame-1 {
				animation: flicker 0.1s infinite;
			}
			#flame-3 {
				animation: flicker 1s infinite;
			}
			@keyframes flicker {
			    0% {
			        background-position:0px 0px;
			        opacity:.8
			}
			    25% {
			        background-position:0px 0px;
			}
			    25.1% {
			        background-position:-100px 0px;
			}
			    50% {
			        background-position:-100px 0px;
			        opacity:.4
			}
			    50.1% {
			        background-position:-200px 0px;
			}
			    75% {
			        background-position:-200px 0px;

			}
			    75.1% {
			        background-position:-100px 0px;
			}
			    100% {
			        background-position:-100px 0px;
			        opacity:.8
			}
			}
		</style>
		</defs>
		<path class="flame-1" d="M105.2,433C60.76,433,39,357,39,319.58,39,277.35,97,97.57,97,30c15.42,88.08,76,216.83,78.9,304.06C177.75,389.56,142.38,433,105.2,433Z" transform="translate(-39 -30)"/>
		<path class="flame-2" d="M104.1,425.88c-39.39,0-58.69-63.54-58.69-94.81,0-35.3,51.45-185.59,51.45-242.07,13.67,73.63,67.42,181.25,69.94,254.17C168.42,389.57,137.06,425.88,104.1,425.88Z" transform="translate(-39 -30)"/>
		<path class="flame-3" d="M113.19,417.29c-29.7-2.44-42-53.16-40.83-77.53,1.27-27.52,45.48-141.48,47.52-185.51,7.65,58.24,44.29,145.45,43.57,202.45C163,393,138,419.33,113.19,417.29Z" transform="translate(-39 -30)"/>
		<path class="flame-3" d="M99.17,426.12c33.78,0,50.32-52.46,50.32-78.27,0-29.14-44.12-153.22-44.12-199.85-11.72,60.79-57.8,149.64-60,209.84C44,396.14,70.9,426.12,99.17,426.12Z" transform="translate(-39 -30)"/>
		<path class="flame-3" d="M97.58,417.68c-28.57,1-43.5-45-44-67.92-.52-25.86,34.56-137.31,33.72-178.68,11,53.58,51.58,131,54.5,184.38C143.68,389.4,121.48,416.82,97.58,417.68Z" transform="translate(-39 -30)"/>
	</svg>
