<?xml version="1.0" encoding="utf-8"?>
<!-- Generator: Adobe Illustrator 21.1.0, SVG Export Plug-In . SVG Version: 6.00 Build 0)  -->
<svg version="1.1" id="Layer_1" xmlns="http://www.w3.org/2000/svg" xmlns:xlink="http://www.w3.org/1999/xlink" x="0px" y="0px"
	 viewBox="0 0 360 236" style="enable-background:new 0 0 360 236;" xml:space="preserve">
<style type="text/css">
	.st0{fill:#E7ECEF;}
	.st1{fill:#E2F3FC;}
	.st2{fill:#FFFFFF;}
	.st3{fill:#EA9B95;}
	.st4{fill:#CECECD;}
	.st5{fill:#A3D2EC;}
	.st6{fill:#A6D2A8;}
	.st7{fill:#747E91;}
</style>
<path class="st0" d="M171.1,117.5c2.2-8,4.2-15.5,4.2-24c0-8.3-1.3-15.9-3-24c-2.3-11-5.3-26.8,1.2-36.9c3.8-5.9,9.4-6.4,15.9-6.2
	c5.5,0.2,15.1-1,19.6,2.8c5.3,4.5-0.8,14.6,7,18.3c10.3,5,23.7-8.6,34.3-1.9c8.8,5.6-1.5,17,5.9,22.5c3.3,2.5,7.1-0.2,11,1
	c4.1,1.3,6.6,5,8.5,8.6c1.8,3.3,2.5,6.4,7.3,6.9c4.9,0.5,4.4-1.8,6.5-5c5.7-8.6,13.5-4.5,19.5,2.5c5.3,6.3,7.5,13.5,7.1,21.8
	c-0.3,6.2-1.7,11,2.9,16c7.1,7.7,19.9,8.3,24.2,19c2.6,6.4-0.3,15.9-3.8,21.5c-3.3,5.3-13.4,5.2-14.9,11.2c-0.9,3.8,4.1,7.5,7.2,8.6
	c4.3,1.6,9.4-0.2,13.9,2.5c2.8,1.7,7.6,6,6.6,9.8c-3.8,14.4-26.7,1.1-31.4,10.1c-1.6,3.1,0.1,6.9-1.8,9.7
	c-2.8,4.3-10.5,3.6-14.9,3.6c-9.7,0-19,2.2-28.1-2c-9.5-4.4-17.7-10.3-28.3-12c-14.9-2.4-28.7,4.3-43.4,0.7c-8.6-2.1-18,1-26.8-0.3
	c-9.4-1.3-12.2-6.1-17.3-13.4c-2.3-3.4-2.6-2.7-2.8-7.4c-0.2-5.1,0.3-9.9,1.1-14.9c2.3-15.1,7.3-29.6,11.4-44.4
	C170.2,120.7,170.7,119.1,171.1,117.5z"/>
<path class="st1" d="M111.3,198.2c0.5-0.1,1-0.2,1.5-0.2c4.4-0.5,8.9,1.1,13.4,0c20.7-5.3,13.4-28.3,17.4-43.4
	c1.8-6.8,5.8-12.8,4.9-20.9c-1.4-12.4-2.8-21.5,0-34.1c2.2-9.6,1.8-17.8-6.4-24.3c-2.9-2.2-5.2-3.5-7.1-6.8c-1.9-3.2-2.2-8-5.3-10.3
	c-5.1-3.8-14.7-3.7-20.2-0.6c-4.5,2.5-10.4,9.9-16.4,6c-3.5-2.2-1-5.6-2.7-8.6c-2.2-3.9-13.1-6.1-17.3-5.4
	c-6.8,1.1-10.1,6.6-9.5,13.2s0.3,8.5-7,10.4c-4.8,1.2-9.7,1.6-11.3,6.9c-1.9,6.4,4.6,7.6,5.9,13c1.2,5.2-6.9,12.8-9.9,16.7
	c-4.7,6-9.9,13.3-10.7,21.2c-0.8,8.8,5.4,10.6,8.9,17.1c6.7,12.4-0.9,16.8-8.7,25.5c-9.6,10.7-4.7,24.7,9.1,26.1
	c10.3,1,20.3-2.4,30.5-2.3c3.4,0,6.8,0,10.2,0c4.4,0.1,5.8,1.4,9.6,3c3.5,1.5,8.8,1.7,12.8,0.6C105.7,200.2,108.4,198.8,111.3,198.2
	z"/>
<path class="st0" d="M111.3,198.2c0.5-0.1,1-0.2,1.5-0.2c4.4-0.5,8.9,1.1,13.4,0c20.7-5.3,13.4-28.3,17.4-43.4
	c1.8-6.8,5.8-12.8,4.9-20.9c-1.4-12.4-2.8-21.5,0-34.1c2.2-9.6,1.8-17.8-6.4-24.3c-2.9-2.2-5.2-3.5-7.1-6.8c-1.9-3.2-2.2-8-5.3-10.3
	c-5.1-3.8-14.7-3.7-20.2-0.6c-4.5,2.5-10.4,9.9-16.4,6c-3.5-2.2-1-5.6-2.7-8.6c-2.2-3.9-13.1-6.1-17.3-5.4
	c-6.8,1.1-10.1,6.6-9.5,13.2s0.3,8.5-7,10.4c-4.8,1.2-9.7,1.6-11.3,6.9c-1.9,6.4,4.6,7.6,5.9,13c1.2,5.2-6.9,12.8-9.9,16.7
	c-4.7,6-9.9,13.3-10.7,21.2c-0.8,8.8,5.4,10.6,8.9,17.1c6.7,12.4-0.9,16.8-8.7,25.5c-9.6,10.7-4.7,24.7,9.1,26.1
	c10.3,1,20.3-2.4,30.5-2.3c3.4,0,6.8,0,10.2,0c4.4,0.1,5.8,1.4,9.6,3c3.5,1.5,8.8,1.7,12.8,0.6C105.7,200.2,108.4,198.8,111.3,198.2
	z"/>
<path class="st2" d="M176.1,17.8c-2.3,4.2,0.1,6.8-0.7,11.2c-5.9-0.6-4.9,9-5.1,12.7c-7.4-0.3-16.5,2.4-15.3,10.7
	c0.8,5.6,1.8,11.2,1.6,17.3c-1.9,0.3-4.2,0.3-5.4,2c-1.9,2.5,1.2,6-2.5,7.3c-2.3,0.8-4.8-2.6-7-3.4c-2.3-0.9-5.2-1.1-7.6-0.6
	c-5.5,1.1-9.3,5.4-8.2,11.2c0.5,2.6,3.1,3,2.1,6.5c-1.1,3.7-4.2,4.3-3.3,9.2c0.6,3.8,6.7,16.2-0.4,15.9c-5.9-0.2-7.6-8.4-12.1-10.2
	c-3.7-1.5-4.8,1.1-7.4,4c-4.4,4.8-8.9,8.8-13,14.1c-2.3,3.1-8.5,6.7-10,9.8c-1.7,3.7,0.4,11.9,0.2,16c-7.2,0.7-14.3,1.1-21.5,1.8
	c-4.3,0.4-3.9,0.4-6.6,3.7c-1.8,2.2-5.5,4.6-6.9,6.8c-2.9,4.7-0.1,11.3-1.3,16.4c-1.6,6.7-9.7,4-8.8,10.8c-0.9,0.4-5.8,2.1-6.3,2.9
	c-1.5,2.2,0.5,4.4,0.7,6.8c6.2,1.9,14.8,0.6,21.3,0.8c6.9,0.2,14.2-0.1,21.2-0.6c8.9-0.6,17.6-1.6,26.6-1.9
	c4.7-0.2,7.4,1.1,12.2,1.5c11,0.8,21.3,1.9,32.1,1.6c5.5-0.1,12.7-1.4,18-0.1c4.5,1.2,8.2,4.2,12.4,5.8c3.6,1.4,7.3,2,11.1,2.2
	c13.1,0.6,25.9-1.5,39,0.7c10,1.7,22.2,2.7,31.8-0.2c7.5-2.2,15.2-2.3,23-1.7c6.2,0.5,13.6,3.1,19.8,2.3c7.2-0.7,8.8-8.3,9.1-15.7
	c0.2-3.9,0-7.9,0.2-10.8c0.7-11.1,0.8-23.1,0-34.2c-0.7-9.9-1.2-20.6,0-30.6c0.4-3.4,2.1-8.8-1.8-10.8c-5.8-3-19.1-0.6-25,1.3
	c-10.3,3.2-0.1,7.6-6,13.5c-1,1-8.5,1.8-10,0.9c-2.7-1.6-3.1-7.3-3.4-10.1c-0.9-9-1.1-18.3-1.3-27.4c-0.1-2.6,0.5-6.6-0.2-9.2
	c-0.9-3.2-2.1-4.2-5-5.3c-5.3-2-17.5-1.8-22.8,0c-6,2-3.1,9.1-3.3,15c-4.1-0.4-3.6-4.8-7.9-1.8c-1.9,1.3-3.4,4.4-5.1,6.1
	c-3.1,3.2-7,5.3-10.2,8.3c-4.1-16.8-0.4-35-3.5-52c-1.5-8.3-9.8-8-17.6-8.1c-0.5-7.5,3.7-11.7-4.5-13.5c4.9-0.7,7.5,0.9,10-3.3
	c3.8-6.3,2.7-12.1-5.1-12.6"/>
<path class="st2" d="M47.7,94.6c-2.4-2.4-8.9-4.9-11.5-1.5c-1.4,1.8-0.2,5.3-2.3,6.1c-2.8-1.5-4.4-3-7.8-1.8c-2.7,1-3.1,2.2-2.8,4.9
	c0.3,3.4-3.3,1.4-5.7,2.5c-1.3,0.6-2.1,1.6-2.4,3c-0.4,1.7,0.9,2.3,0.8,3.6c1.5,0.2,4.4,1.7,3.3,3.7c-2.1-0.2-3.8-0.5-4.9,2.1
	c-0.7,1.6-1.3,1.9-0.9,4c1.5,1.4,8,0,7.1,3.3c-2.9-1-7.9,1.2-9.5,3.7c-1.1,1.9,1.8,3.9,3.5,4.1c1.7,0.3,4.6-1.2,5.8-2.3
	c1.2-1,1.7-1.8,2.9-2.9c1.6-1.4,0.5-3.1,1.7-4.5c0.6-0.7,1.5,2.3,3.2,2.4c3,0.1,3.3-2,4.7-3.4c1.2-1.1,1.9,7.9,4.2,7.4
	c1.1-0.2,1.9,1.7,3.5,1.2c1.2-0.4,2.3-0.9,3.5-1.2c0.7-0.9,1.1-2,2.4-2.1c0.9,0.6,0.3,1.9,0.3,2.7c0.5,1,1,2.3,2,2.9
	c2.2,1.3,3.1-2.4,4.8,0c2.4,3.4,9.6,2.9,12.1-0.2c1.4-1.8,2.8-3.2,0.7-4.8c-0.7-0.5-0.9-1.4-0.4-2.1c1-1.2,1.9,0.4,2.8,0.9
	c2.6,1.6,4.8,0.8,6-1.6c0.9-1.9,3.9-1,5.6-2.4c1-0.8,2.2-6.1,4.2-2.6c0.8,1.5,4.7,1.2,6.2,0.6c1.6-0.6,1.3-1.3,1.7-2.7
	c0.7-2,3.3-0.7,4.8-1c5.2-1,3.9-7.7-1.4-7c-0.4-0.8-0.9-1.7-1.8-2.2c-1.4-0.7-1.4,0.4-2.5,1c-3.6,2.1-1.3-3.5-2.3-5.4
	c-1.1-2.1-3.1-3.2-5.4-2.7c-1.3,0.3-2.3,1.6-3.2,1.2c-1.4-0.7-0.4-1.4-0.3-1.8c0.6-2-0.3-5.4-2-6.8c-2.9-2.3-8.7-2.9-11.1,0.5
	c-1.5,2.2-0.3,4.1,0.6,6.1c1.5,3.3-3,0-3.1,0c-1.8,0.5-5,0.8-5.4,3c-0.2,0.9-0.4,1.7-1.5,1.7c-1.2-0.2-0.8-2.2-0.8-3
	c-1.2-1.9-3.4-3.3-5.8-2.7C47,100,49.7,96.5,47.7,94.6C47.2,94.1,48.5,95.3,47.7,94.6z"/>
<path class="st2" d="M130.6,86.1L130.6,86.1c1.5-0.1,3.1,0,4.3,1c0.6,0.6,0.7,1.9,1.7,1.1c0.6-0.5,1.2-1.2,1.9-1.7
	c1.2-0.9,3.1-1.3,4.5-0.8c3.4,1.1,2.2,6,2.1,8.7c-0.1,3.8-0.4,7.7-1,11.5c-0.3,2-1.5,3.3-1.8,5.2c-0.3,1.9-0.7,4.1-2.8,5.1
	c-1.7,0.8-3.8-0.4-5.3,0c-1.2,0.3-1.3,2.3-3.4,2.7c-1.8,0.4-3.3,1.4-4.9,1.8c-1.6,0.4-4,0.4-5.7,0.6c-0.8,0.1-2.2,0.4-2.9,0.3
	c-1.6-0.3-3.9-2.4-4.5-3.8c-0.3-0.7-0.4-1.7-0.2-2.4c0.2-0.7,1.5-1.3,1.5-1.7c0.2-0.8-0.8-0.3-0.7-1.1c-0.1-1,0-1.9,0.4-2.8
	c0.3-0.7,0.8-1.3,1.4-1.9c0.8-0.9,0.2-2.8,0.2-4c-2.9,0.5-4.4,1.4-7.2,0c-1.9-0.9-4-3.4-2.4-5.8c-1.8,0-10.5-2.8-8.5-6.3
	c0.9-1.6-0.2-3.5,1.7-5c2.1-1.6,4.1-1.8,5.6,0.5c0.5-0.3,0.9-1.5,1.2-2c0.6-0.9,1.1-1.2,2.2-1.8c2.4-1.4,5.2-1.8,6.7,1.1
	c0.7-0.7,0.3-1.4,1-2.2c0.6-0.7,1.3-1.3,2.1-1.8c1.8-1.1,3.8-1,5.8-0.6C126.2,80.8,130.9,82.4,130.6,86.1z"/>
<path class="st3" d="M87.3,189.2c-0.7-11.1-0.1-22.2,0.2-33.4c0.1-2.4-1.6-11.1-0.1-12.6c2-2.1,10.2,0,12.8,0.1
	c4.9,0.2,9.7,0.5,14.6,0.5c7.2,0,14.6-0.4,21.8,0.1c0.6,9.2,1.4,18.1,1.4,27.4c0,4.6,0.6,9.8,0,14.4c-0.7,4.8-4.9,3.8-9.4,3.5
	c1.6,0.1-3-9.7-3.9-10.5c-2.4-2.2-4.3-2.4-5.3-5.8c-1.9-6.4,0.8-13.4,0.5-20c-4.9-0.3-10.2-0.3-15.2,0c-0.6,8,0,16.1-0.6,24.2
	c-3.9,0.2-3.1,2-4,5c-0.9,2.8-2.7,3.9-3.2,7.1C93.9,189.4,90.4,189.4,87.3,189.2z"/>
<path class="st2" d="M100.8,170.5c1-3.8,2.5-14.2-1.2-16.5c-3.2-1.9-8.8,0.2-8.8,4.2c0,3.2-0.9,10.7,0.4,13.5c1,2,3.2,1.9,5.4,1.8
	C100.1,173.3,99.9,173.7,100.8,170.5z"/>
<path class="st2" d="M133.1,167.2c-0.2-2.9,1.1-12.3-0.9-14.3c-0.8-0.8-8-1.1-8-0.5c-0.2,3.8,0.2,7.8-0.1,11.6
	c-0.2,3.7-2,7.6,2.7,8.6C131.9,173.7,133.4,172.1,133.1,167.2z"/>
<path class="st3" d="M136.2,128.9c0.2-3.4,1.9-13.2,0.1-16.1c-1.5-2.4-4.7-1.7-7.2-1.2C128.7,117.2,127.5,129.6,136.2,128.9z"/>
<path class="st3" d="M48.5,183.8c-0.1,2.2-1.1,8.7,0.3,10.6c3.2,4.3,5.1-1.7,5.1-4.3c0-3.3,0-6.6,0-9.9c0-2.4-0.7-6,0.9-7.7
	c1.4-1.4,6.7-0.9,9-0.9c4.4,0,21.6,2.7,17.9-4.9c-0.8-1.6-15.9,0.6-17.9,0.7c-3.8,0.3-10.3-0.7-13.3,2.5
	C47.6,173.1,48.7,179.9,48.5,183.8z"/>
<path class="st4" d="M68.3,163.5c3-0.2,8.8,0.4,11-1.9c2.3-2.3,1.4-5.7-1.6-6.7c-3.5-1.2-9.3-0.6-13-0.4c-3.6,0.2-3.7,0.8-5.8,3.2
	c-1.6,1.8-4.9,3.8-4.4,6.7c2.1,0.4,4.4-0.6,6.6-0.8C63.4,163.4,65.9,163.7,68.3,163.5z"/>
<path class="st4" d="M198.9,196.6c3.2-2.3,0.8-7.9,0.1-10.9c-1.1-4.7-0.7-9.5-0.7-14.4c0-11.7,0-23.4,0-35.1c0-25.6,5-50.7,6.3-75.9
	c0.2-4.5,1.3-8.5,0.8-13.1c-6.2,0.6-13.9-0.6-20.2-1c-7.4-0.5-15,0.5-22.4,1c-0.3,4.1,1.2,7.7,1,11.8c-0.3,8.4-1,16.7-1.5,25.1
	c-0.9,14.7-0.4,29.3-0.5,44c-0.1,7-1.3,13.7-1.3,20.7c0,5.7,0,11.4-0.3,17.1c-0.5,8.6-2.5,18.7-1,27.5c0.5,2.9,1.2,2.5,2.8,4.4
	c1.6,0.1,5.7,0.9,7.1,0.1c2.3-1.3,1.3-5.9,1.3-8.6c0-7.4-0.5-12.4,8.1-13c2.4-0.2,5.7-0.4,8,0c3.5,0.7,3.2,1.4,3.2,4.9
	c0,4.5-0.7,11.7,1.1,15.7C192.6,196.9,197.4,197.7,198.9,196.6z"/>
<path class="st4" d="M234.7,97.6c3.6,3.3,3.6,4.6,3.6,9.8c0,9.3,0,18.6,0,27.9c0,5.9,0,11.7,0,17.6c0,2.2-0.1,4.5,0,6.8
	c0.2,3.5-0.1,2.4,2.7,3.6c2.6,1.1,8.6,3.1,10.6,0.4c2.2-3,0.6-11.7,0.7-15.2c0.2-13.7,1.8-27.6,2.2-41.4c0.2-5.9-0.2-11.7,0.5-17.5
	c0.6-5.2,1.6-10.2,1.3-15.2c-0.1-0.9-15.8-1-17.3-0.9c-3.8,0.3-8.2-0.4-9.4,3.8C228.1,81.6,231,94.3,234.7,97.6z"/>
<path class="st4" d="M280.6,116.8c0,8.9,1.7,17.4,1.8,26.1c0.1,8.5,0,17.1,0,25.6"/>
<path class="st5" d="M254.9,157.8c0.1-4,0.8-8,1.2-12.1c0.4-3.3-0.2-7.2,0.7-10.3c3.6-0.9,6.9-0.8,10.6-0.5
	c0.6,9.5-2.5,18.2-3.1,27.4c-0.6,8.4-1,18.3-0.5,26.5c-4.8,1.4-3.1-8-3.1-10.8c0-1.7,0.7-5.2,0-6.7c-1.2-2.8-2.4-0.9-4.5-2.6
	C253.8,166.8,254.8,160.9,254.9,157.8z"/>
<path class="st5" d="M212.7,104.3c-3.7,4.1-1,9.9-1,15.1c0,12.5-0.7,24.9-0.9,37.4c-0.1,4.8-0.8,9.5-1,14.3c-0.1,2.2-0.9,3,1,4.2
	c1.8,1.2,7-0.2,9.5,0.1c6.8,0.7,7,1.9,8.1,7.5c0.4,2-0.9,12.7,3,11.2c2.9-1.2,1.7-19.1,1.9-22.3c0.7-12.1,0.4-24.3-0.3-36.4
	c-0.6-9.2,0.3-18.4-0.1-27.6c-0.2-3.8-1.1-5.5-3.5-8.5c-1.5-2-3.1-5.8-6.1-5.5C219.9,94.2,215,101.9,212.7,104.3z"/>
<path class="st6" d="M20.3,197.6c-5.7-6.1-4-8.3,4.1-10.4c4.3-1.1,14.7-2.1,18.1,1.6c1.5,1.6,0.4,3.6,1.3,5.2
	c1.3,2.4,3.2,2.3,4.4,3.8c3.2,4.2,1.2,4.5-1.1,8.3c-2.3,3.9-2.1,5.6-7.1,6.1c-3.6,0.4-14-2-16.7-5.5C21,203.6,23.1,200.6,20.3,197.6
	z"/>
<path class="st6" d="M97.7,207.5c0.2-0.1,0.4-0.2,0.6-0.4c0.7-0.5,1.3-1.1,2-1.5c1.1-0.6,1-1,1.1-2.1c0.2-1.5,0.3-2.9,0.4-4.4
	c0.1-1.1,0.6-2.9-0.1-3.8c-0.5-0.7-2.5-0.5-3.2-0.6c-1.3-0.2-2.7-0.5-4-0.6c-2.1-0.1-4.1,0.2-6.2,0.7c-1,0.2-2.7,0.4-3.3,1.2
	c-0.4,0.6-0.6,1.5-0.8,2.2c-0.4,1.4-0.8,3-0.9,4.5c-0.2,2-0.5,4.1-0.6,6.1c0,0.8,0.4,1.5,1.2,1.6c1.3,0.3,2.4-0.2,3.5-0.5
	c1.6-0.4,3.5-0.7,5.2-1C94.5,208.6,96.1,208.4,97.7,207.5z"/>
<path class="st6" d="M147.1,204.5c1.5-2.1,1.7-5-1.2-7.2c-2.1-1.7-5-2.2-7.7-2.4c-1.2-0.1-2.4-0.4-3.7-0.4c-1.7,0-3.3,0.2-5,0.2
	c-1.2,0-2.5-0.1-3.7,0c-0.1,0.6,0.2,0.9,0.4,1.4c0.7,1.4,1.1,2.8,1.9,4.2c0.7,1.2,1.4,2.1,2.6,2.9c0.6,0.4,1.1,0.4,1.9,0.6
	c2,0.4,3.9,1.3,5.9,1.8c0.9,0.2,1.9,0,2.8,0.2c0.8,0.2,1.6,0.8,2.3,0.8C145.2,206.6,146.4,205.5,147.1,204.5z"/>
<path class="st4" d="M147.7,208.9c2.3,4.8,16,2.2,19.8,2.1c8.7-0.2,16.5,3.1,24.7,3c4.1-0.1,8.2-1.2,12.3-0.6
	c3.3,0.5,5.3,1.7,8.4,2.5c6.7,1.8,16.4,0.7,23.7,1.1c8.1,0.5,16.7-1.4,24.6,0c6.4,1.1,13.3,2.4,20.9,2.4c5.4,0,30.9,3.1,29.3-4.7
	c-1.9-0.8-5-1-6.5-1.9c-1.7-0.9-2.5-2.7-4.2-3.6c-4.1-2.3-9.1-0.7-12.7-0.3c-12.2,1.6-25.4,0.9-38,0.9c-16.5,0-32.8,0-48.9-2.4
	c-9.3-1.4-19.2-2.1-28.7-2.4C171.3,205,145.8,204.7,147.7,208.9z"/>
<path class="st5" d="M271.4,178.5c-0.2-3.1-0.7-5.2,1.7-7.2c0.5-0.4,5.9-2.1,5.9-1.2c-0.3-17.9,1.3-35.5,2.5-53.2
	c7.1-0.4,14.4,0.3,21.4-0.6c0.8,16.3-4.6,31.7-4.7,47.9c-0.1,8.3-0.7,17-1.2,25.4c-0.3,4.6-0.2,9.7-1.3,14.2
	c-2.5,0.6-6.2,1.4-8.6,0.2c-3.2-1.5-3.6-5.9-4-9.1c-0.5-3.8,0.9-8.4-0.5-12.1C280.8,178.1,276.8,178.7,271.4,178.5z"/>
<path class="st4" d="M189.6,42.3c-3,0.2-14.4,2.1-16.2-0.9c-1.6-2.6,1.8-6.9,4.3-7.4c3.5-0.7,8.4-0.1,11.9,0.1
	C189.7,36.8,189.8,39.6,189.6,42.3z"/>
<path class="st3" d="M245.5,201.3c4,0.3,8.6,1.2,12.4,0.4c2.2-0.4,3.3-1.3,6.1-1.1c2.1,0.2,3.6,1.2,5.9,0.6c0.7-1.2,0.9-2.7,0.5-4
	c-3.7-0.6-17.8-8.9-18.5-0.2C252,197,245.7,197.6,245.5,201.3z"/>
<path class="st4" d="M136.1,137c-2.1,0.9-19.7-22.6-23-24.7c-4.4,4.1-8.2,9.2-12.7,13.3c-3.4,3.1-6.6,6.6-8.6,10.7
	c7.2-0.1,14.3,1.2,21.5,1.2C119.7,137.5,130.4,139.4,136.1,137z"/>
<path class="st2" d="M111.8,133.6c6.5,4,4.8-7.3,4.6-10.7c0-0.6-6.5,1.4-7,2.8C108.8,127.3,110.3,132.7,111.8,133.6z"/>
<path class="st4" d="M73.8,217c0.9-0.3,1.7-0.8,2.4-1.4c1.5-1.5,2.2-17,1.2-17.1c-5.2-0.4-12.4-2.7-17.3,0.1
	c-2.3,1.3-9.6,15.8-8.8,15.9C56.5,215.2,67.7,219.1,73.8,217z"/>
<path class="st2" d="M176.9,102.2c2.9-12,10.3-30.5,7.7-42.8c-1.8-8.3-11.5-10.2-13.5-0.7c-2,9.8-0.9,21.3-0.9,31.3
	c0,11.5,0.7,22.8,0.9,34.3c0.1,6-1.3,14.8,0.7,19.7C174.6,130.6,173.7,115.7,176.9,102.2z"/>
<path class="st2" d="M237.9,103.6c9.3-6.1,0.3-19.4-0.3-27.7c-6.4-0.5-5.8,6-3.8,12.8C235.8,95.6,239.1,102.8,237.9,103.6z"/>
<path class="st2" d="M250.7,102.2c1-8,2.1-16.6-1.1-24.2c-6.4-1.8-7.1,10.3-7,14.3c0,4.2-1.4,14.7,0.9,18
	C248.3,117.5,250.2,106.9,250.7,102.2z"/>
<path class="st2" d="M194.5,77.6c-4.5-9.9-9.6,17.9-9.9,20.3c-0.8,5.5-4.4,30,0.2,34.6c9.7,9.8,8.8-15.5,8.8-19.1
	c0.1-10.9,2.7-21.2,2.7-32.2"/>
<path class="st7" d="M207.9,42.9c2,0.7-0.1,10.6-0.3,12.2c-0.7,5-0.1,10.1-0.2,15.1c-0.2,5.5-0.9,10.9-1.2,16.3c-0.4,6-0.1,12-1,18
	c-0.6,4.3-0.4,8.8-0.5,13.1c-0.1,5.5-0.8,11-1.3,16.5c-1,10.7-1.1,21.4-1.2,32.2c0,2.3,0,4.7-0.1,7c0,0.8-0.4,4.4-0.1,4.7
	c0.8,0.9-0.3,5.8-0.4,7c-0.2,2.8,0.2,5.4,0.1,8.1c0,0.7,0,4.9-1.8,3.4c-1.1-0.9-0.7-4.1-0.7-5.2c0-5.7,0.7-11.4,1-17
	c0.4-8.6-0.5-17,0-25.6c0.4-6.2,1.1-12.2,1.7-18.6c1-14.6,1.4-29.6,2.1-44.5c0.3-5.8,1.1-11.4,1.2-17.1c0.1-4.1,0.1-8.2,0.4-12.3
	C205.6,54.2,205.6,43.3,207.9,42.9C209.2,43.3,207.1,43,207.9,42.9z"/>
<path class="st7" d="M192.1,52c1.4,0-1,23.9-1.2,25.9c-0.5,9.4-1,18.5-1.2,27.9c-0.2,9.3-1.2,18.5-1.2,27.7c0,9.9-1.4,19.6-1.2,29.5
	c0.1,2.5,0.2,5,0,7.6c-0.2,1.7-1.6,2.6-1.3,0.4c0.2-1.9-1-3.7-0.5-5.5c0.3-1.1-0.3-2.2-0.3-3.3c0-1.5,0.4-3,0.5-4.6
	c0.4-11.7,0.8-23.4,1.4-35c0.6-11.2,1.2-22.4,1.6-33.6c0.2-5.9,0.4-11.7,1-17.6c0.6-5.8,0.4-12,1.6-17.8
	C191.1,52.8,191.4,52.2,192.1,52C192.3,52,191.9,52.1,192.1,52z"/>
<path class="st7" d="M176.1,52.6c2.5,0,0.1,21.1-0.1,23.2c-0.6,11.1-1.7,22.3-1.4,33.4c0.3,9.8-0.6,19.3-0.7,29.1
	c-0.1,11.8-0.7,23.7-0.7,35.5c-1-0.3-1.4-4.3-1.4-5.2c-0.2-3-0.3-5.9-0.2-8.9c0.2-5.4,0.4-10.8,0.4-16.3c0.1-10.2,1.1-20.3,0.8-30.5
	c-0.3-11.3,0.5-22.4,1-33.7c0.2-3.2,0.2-6.2,0.6-9.3c0.3-2.9,0.4-5.8,0.5-8.7C175.1,59.6,174.4,53.3,176.1,52.6
	C176.3,52.6,175.8,52.7,176.1,52.6z"/>
<path class="st7" d="M233.2,75.3c1.9,0.7,0.5,9,0.3,10.5c-0.2,2.3-0.2,4.4-0.1,6.7c0.1,1.4,0.7,2.8,0.6,4.1
	c-3.7,0.4-2.3-9.7-2.2-11.6c0.1-1.9,0.3-3.8,0.1-5.7c-0.1-0.8-0.2-1.7-0.1-2.5C231.9,76.6,232.8,74.1,233.2,75.3
	C234.3,75.7,233.1,75.1,233.2,75.3z"/>
<path class="st7" d="M242.2,76.1c2.1-0.3,0.9,5.9,0.9,6.9c0,3.6,0.1,7.1,0.2,10.7c0.1,6.7,0,13.6-0.4,20.4c-0.2,3.7,0,7.5,0,11.2
	c0,4.2-0.6,8.4-0.8,12.6c-0.2,3.6-0.2,7.1-0.5,10.7c-0.3,3.9,1,8.3-0.2,12.1c-1.6-2.2-1.4-6.6-1.6-9.3c-0.4-3.5,0.1-7.2,0.2-10.8
	c0.2-7,0.9-14,0.9-21.1c0-7.3,0.7-14.5,0.5-21.8c-0.1-3.5-0.2-7-0.2-10.4C241.1,85.6,240.1,77,242.2,76.1
	C243.8,75.9,241.9,76.3,242.2,76.1z"/>
<path class="st7" d="M223.2,87.4c1.2-0.4,3.8,3.9,4.5,4.8c2.8,3.5,5.1,7.8,8.2,11.2c0,0.3,0.1,2.4,0.4,2.5c0.4,0.2,0.7,0.1,0.7,0.7
	c0.5,2.2,0.4,4.4,0.2,6.6c-0.4,4-0.8,7.9-1.1,11.8c-0.5,7.4-1,14.2-1.1,21.7c0,5.5,0,11.1-0.3,16.7c-0.2,4.4-1,8.9-0.9,13.2
	c0.1,4.7-1.1,9.6-0.6,14.3c0.2,1.8,0,3.9,0,5.8c0,0.4-1,5.4-1.9,3.3c-0.8-2-0.2-5.2-0.1-7.3c0.1-2.3-0.1-4.6,0.1-6.9
	c0.5-5.5,0.3-11,0.8-16.4c0.9-10.6,0.6-21.1,1-31.7c0.2-5.2,0.9-10.4,1.3-15.5c0.2-2.6,0.5-5.1,0.7-7.7c0.1-1.3,0.2-2.7,0.2-4
	c0-2.2,0.3-3.1-2.2-3c-4.1,0.2-7.8,0.5-11.9,0.3c-2.2-0.1-9.3,0.8-10.5-1.8c-0.9-1.9,2.6-1,3-0.9c2.2,0.5,4.5,0.3,6.7,0.4
	c2.6,0.1,5.3,0.5,7.9,0.4c2.1,0,5.2-1.2,7,0.3c0.4-0.6-2.6-3.2-3.2-3.5c0.1-0.6-1.2-2.1-1.5-2.6c-0.7-1.3-7.7-10.1-7.8-10
	c-1,0.9-1.8,2.3-2.8,3.3c-0.5,0.6-1.6,1.6-2.3,2.4c-1.7,1.7-3.5,3.3-5.2,5c-0.7,0.7-3.9,4.3-4.8,4.1c-0.6-3,3.2-5.3,5-6.9
	c1.8-1.7,3.6-3.3,5.3-5.1C218.9,92.1,222.4,87.4,223.2,87.4C224.3,87,223.1,87.4,223.2,87.4z"/>
<path class="st7" d="M290.8,87.9c-1.9-0.1-3.2-2-5.4-1.7c-2.9,0.4-3.7,1.8-4.8,4.1c-1.2,2.7-3-1.7-4.2-1.9c-2.2-0.4-5.5,2.3-5.9,4.5
	c-1.6-0.2,0.5-3.1,0.8-3.4c1.3-1.3,3.2-3.6,5.4-3c1.4,0.4,2.2,1.8,3.3,0.8c1.2-1.2,2.9-1.9,4.6-2.2
	C286.1,84.7,291.2,85.1,290.8,87.9C289.5,87.8,291,86.5,290.8,87.9z"/>
<path class="st7" d="M143.8,143.7c-1.6,0.4-7.7-8.3-8.9-9.7c-3.1-3.8-6.6-7.3-9.4-11.2c-2.7-3.9-6-7.5-8.8-11.3
	c-1.2-1.6-3.3-3.1-4.5-5.3c-0.8-1.4,0.3-2.1,1.5-1.4c0.9,0.6,1.3,1.4,1.9,2.3c0.5,0.7,3.7,3.5,3.6,4.4c0.8-0.5,7.8,9.4,8.6,10.7
	c1.9,2.9,5.2,6.6,7.4,8.8c2.3,2.2,4.3,5,6,7.6C142.2,139.9,143.6,141.9,143.8,143.7C143.2,143.8,143.7,142,143.8,143.7z"/>
<path class="st7" d="M209,107.2c1.8-0.2,0.7,8.5,0.6,9.8c-0.2,3.5-0.1,7.1-0.7,10.4c-1.3,7.4,0.1,15.8-0.6,23.2
	c-0.7,7.3-0.9,15.2-1.3,22.7c-0.3,4.9-0.6,9.8-0.8,14.7c-0.1,2.5-0.2,5.1-0.5,7.6c0,0.2,0.1,3.2-0.8,2.5c-0.5-0.4-0.8-1.6-0.8-2.1
	c-0.7-6.5,1.1-12.7,0.7-18.7c-0.3-4.8,0.7-9.6,1-14.4c0.1-2.1-0.3-4.1,0-6.1c0.1-0.5,0.4-3.4,0.2-3.5c-0.8-0.6,0.1-6.4,0.2-7.6
	c0.2-3.6,0.2-6.7,0.2-10.6c0.1-4.3,0.3-8.4,0.7-12.7C207.4,120.3,206.8,108.1,209,107.2C210.3,107.1,208.7,107.4,209,107.2z"/>
<path class="st7" d="M213.9,147.8c4.3,0.3,8.7-0.5,13,0.2c0.3-2.1,0.3-4.2,0.4-6.3c0.1-0.9,0.2-1.8,0.3-2.7c0.1-1.8-0.7-1.3-2.1-1.5
	s-8,0.3-8.8-0.8c0.4-1.9,7.4-0.8,8.8-0.8c2.3-0.1,2.2-0.8,2.5-3c0.2-2.3,0.1-4.7,0.4-7c-4-0.1-8.1,0.3-12.1-0.2
	c0.8-1.8,6.4-0.9,8-1.1c1.9-0.2,4.3-0.1,4.4-1.9c0.2-2.1,0.5-4.2,0.5-6.3c-1.8,0.3-12.9,1.7-13.4,0c2.6-0.2,5.2-0.4,7.8-0.8
	c1.2-0.2,2.4-0.4,3.6-0.6c2-0.4,2.2-0.2,2.2-2.2c0-2.4,2.2-1.7,1.9,0.6c-0.3,2-0.3,4.2-0.4,6.2c-0.5,6.3-1.2,12.6-1.2,18.9
	c0,1.4-0.1,2.8-0.3,4.2c-0.3,1.9,0.1,4.5-0.6,6.3c-0.3,0.8,0,2.6-0.1,3.5c-0.2,3-0.2,5.9-0.2,8.9c0,2.4-0.3,4.8-0.1,7.1
	c0.1,2.8,0,4.9-3.2,4.2c-2.4-0.5-5.2,0.6-7.5-0.4c-0.9,0.4-5.7,0.8-4.9-1.2c1.2-2.8,11.4-0.3,13.7-0.3c-0.1-2.7-0.5-5.4-0.3-8.1
	c0.1-2-2-1.5-3.7-1.6s-3.4-0.1-5,0.2c-0.7-1.9,2.3-1.7,3-1.7c1.7-0.1,5.8,0.7,6-1.2c0.2-2.4-0.1-4.7,0.3-7c0.4-2.4-4.9-1.7-6.6-1.7
	c-1.4,0-6-0.7-6.3,0.9c-0.4,1.6-0.9,5.6-0.4,7.1c0.2,0.6-0.2,2.4-0.3,2.9c-0.3,1.8,0,5.9-1.1,7.3c-2.3-0.3-0.6-9.6-0.6-10.9
	c0.2-4.1,0.3-8.3,0.6-12.4c0.6-7.2-0.3-14.9,1.2-22.1c0.5-2.1-0.2-4.2-0.3-6.3c0-1.3,0-2.6,0.1-3.9c0.2-2.1,0.6-0.6,0.8-1.7
	c1-0.2,1.4,7.4,1.5,8.6c0.2,5.1-0.8,10.1-1.1,15.1C214.1,138.8,214.2,143.4,213.9,147.8C217.9,148.1,214.2,144.3,213.9,147.8z"/>
<path class="st7" d="M298.6,117.8c1.8,2.9-0.4,8.2,0.1,11.4c0.7,4.7-0.4,10-0.8,14.7c-0.3,4.8-0.1,9.5-1.2,14.2
	c-0.4,1.8-0.4,11.5-2.2,11.9c-0.9-8.7,0.8-17.9,1.3-26.6c0.3-5,0.5-10,0.6-15C296.4,127.2,296.2,117.2,298.6,117.8
	C299.3,118.9,297.9,117.6,298.6,117.8z"/>
<path class="st7" d="M117.9,119.7c0.8,2.3,0.1,5.6,0.2,8c0.1,2.4,0.9,5.5-0.5,7.6c-2.2-0.4-1.5-7.9-1.5-9.4c0-1.9,0.9-4.5-1.2-4.8
	c-2-0.3-3.9-0.1-5.8,0.2c-0.3,3.5,0,7.2,0.1,10.7c0.1,3.4,5-1.5,6.1,1.4c0,1.3-5.9,1.6-7.1,1.5c-1.8-1.8-0.8-7.6-0.9-10.1
	c0-1.3-0.7-3.9,0.4-4.8c0.8-0.7,3.3-1.6,4.3-1.1C113.5,119.7,116.4,118.1,117.9,119.7C118.5,121.5,117.5,119.3,117.9,119.7z"/>
<path class="st7" d="M304.4,118c3.3-0.6,0.4,19.1,0.2,21.2c-0.9,8.5-0.7,17.1-1.3,25.6c-0.5,7.6-1.5,15.2-1.9,22.8
	c-0.1,2.5-0.2,5-0.3,7.5c0,4,1.1,9.5-0.4,13.3c-1.3-1.2-0.7-4.1-1.1-5.7c-0.4-2-0.3-3.8-0.3-5.8c-0.1-4.6,0.5-9.1,0.5-13.6
	c0-4,1.1-8.2,1.4-12.2c0.2-2-0.4-4.6,0.2-6.5c0.4-1.2,0.5-2.5,0.4-3.7c-0.1-2.2,0.3-4.4,0.2-6.6c-0.2-4.1,0.4-8.3,0.5-12.4
	c0.2-4.6,1.2-9,1.4-13.5C304,127.1,302.9,118.5,304.4,118C306,117.8,304.1,118.1,304.4,118z"/>
<path class="st7" d="M291,118.3c2.2,0,0.4,15.5,0.6,17.6c0.5,7.3,0.2,15.2-0.4,22.6c-0.6,7.8-1,15.6-1.5,23.3
	c-0.2,3.3,0.8,15.9-3.2,17.5c0-6.6,0.6-13.5,1.3-20.1c0.7-6.9,0.7-13.7,1.2-20.6c0.5-6.8,0.7-13.7,0.5-20.5c-0.1-3.6,0-7.2,0.4-10.8
	C290,125.5,289,119,291,118.3C291.2,118.3,290.7,118.4,291,118.3z"/>
<path class="st7" d="M133.1,142c-0.7,1.2-7.1-0.2-8.8-0.3c-4.4-0.2-9.1-0.3-13.6-0.2c-3.9,0.1-7.8,0.1-11.7,0.1
	c-2,0-4.4,0.3-6.4-0.2c-1.5-0.3-2.8,0.2-4.2,0c-1.4-0.1-1.1-1.8,0.3-1.7c2.2,0.1,4.3,0.1,6.5,0.2c3.9,0.3,7.9-0.3,11.9-0.2
	c4.7,0.1,9.4,0.6,14,0.5C123,140.2,132.8,139.1,133.1,142C132.7,142.8,133,140.7,133.1,142z"/>
<path class="st7" d="M84.8,141.9c1.1,1.3,0.5,3.5,0.6,5c0.1,2.2,0,4.4-0.2,6.6c-0.4,4.3,0.3,9,0.5,13.3c0.4,8.1,0.4,16.7-0.9,24.8
	c-2.4-0.7-0.9-10.7-0.9-12.7c0-5.4-0.1-10.8-0.5-16.1c-0.2-3.7,0-7.7,0-11.5C83.4,150,82.5,141.4,84.8,141.9
	C85.7,143.1,84.1,141.8,84.8,141.9z"/>
<path class="st7" d="M140.1,142.7c2,0.4,0.7,4.3,0.6,5.6c-0.6,4.9-0.4,10.1-0.5,15.1c-0.1,9.2,0.4,18.2,0.1,27.4
	c-2.9-1.2-2.1-10.1-2.2-12.6c-0.3-4.3,0.2-8.6,0.2-12.9c0-3.7,0.4-7.4,0.1-11.2c-0.1-2.4,0-4.9,0.1-7.3
	C138.5,146.6,138.9,141.5,140.1,142.7C142,143.1,139.6,142.3,140.1,142.7z"/>
<path class="st7" d="M82,152.2c-0.2,2.6-13.6,2.2-15.7,2c-1.8-0.1-3.8-0.2-5.5-0.1c-1.5,0.1-1.9,1.8-2.6,2.8c-2.3,3-5.1,5.8-7,9
	c5.5-0.2,11-0.8,16.5-0.8c2.7,0,5.3,0,8,0c1.6,0,3.3,0,4.9-0.2c0.7-0.1,2.9,0.7,1.3,1.1c-0.4,0.1-1.2,0.1-0.6,0.7
	c0.2,0.2-3.2,0.3-3.5,0.3c-2.2,0-4.4,0.2-6.6,0.1c-4.9-0.1-9.7-0.3-14.5,0.3c-2.7,0.3-5.3,0.5-8,0.5c-0.8,0-1.6,0.3-2.4,0.2
	c-0.9-0.1-1.6-1.3-0.4-1.5c2.2-0.5,3.3-1.2,4.6-3.3c0.3-0.4,2.1-2.3,2.1-2.4c-0.2-0.8,3.6-4.4,4.2-5.2c1.2-1.5,1.4-3.2,3.5-3.2
	c1.8-0.1,3.7,0.1,5.5,0.1c2.7,0.1,5.7-0.1,8.4-0.2C75.2,152.3,81.4,150.7,82,152.2C81.9,153.2,81.7,151.5,82,152.2z"/>
<path class="st7" d="M120,153.6c0.2,1.6-0.2,3.2-0.3,4.8c-0.1,2,0.2,4.1,0.1,6.1c-0.1,2.6-0.5,5-0.3,7.4c0.1,0.9,0.3,2.1-0.2,2.9
	c-1,1.5-1.7-1-1.7-1.7c0.2-3.7-0.1-7.4,0-11.1c0-1.7,0.1-3.4,0.1-5c0-2.1-2.6-1.6-4.4-1.5c-1.7,0.1-4.6-0.5-4.8,1.4
	s-0.2,3.8-0.1,5.7c0.1,2.4-0.4,5-0.2,7.3c0.2,1.8,0.5,3.5,0.2,5.3c-0.1,0.7-0.2,1.5-0.2,2.2c1.3,0.4,2.8,0.1,4.1,0.1
	c3.2,0,6.5-0.1,9.6,0.5c3,0.5-0.1,7.1-0.7,1.5c-2.9,0.2-6-0.4-8.9-0.4c-2.4,0-4.8,0.2-7.1,0.4c-0.8,0.1-0.4,3-1.8,1.8
	c-0.2-0.2-1.1-2-1.2-2.4c-0.7-1.7,3-1.1,3.8-1.2c0.4-4.6,0.3-9.2,0.3-13.8c0-1.8,0-3.7,0-5.5c0-2.4-0.6-4.3,2.2-4.8
	c1.9-0.3,3.9,0,5.8-0.1C115.8,153.4,118.7,152.8,120,153.6C120.3,155.2,119.1,153.1,120,153.6z"/>
<path class="st7" d="M101.3,155.6c-0.2,3.5,0,6.9,0.1,10.4c0,0.6-0.1,8.7-1.4,7.5c-1.3-1.2-0.4-4.9-0.3-6.4
	c0.1-3.7-0.1-7.8-0.3-11.4c-2.2,0-4.3,0.5-6.5,0.6c0.2,2.6-0.1,5.1-0.2,7.7c-0.1,2.4,0.3,4.8,0.1,7.2c1.2,0.6,3.7-0.8,4.5,0.3
	c0.2,0.8-5.4,1.7-6.5,0.8c-0.3-0.7,0-3-0.1-3.9c-0.1-2.1,0.1-4.2,0.2-6.4c0.1-1.9-1.4-8.3,2-7.7C96,154.8,99.1,153.5,101.3,155.6
	C101.1,159,100.9,155.2,101.3,155.6z"/>
<path class="st7" d="M131.5,155.4c-0.3,1.3-3.4,1-4.4,1.1c-1.5,0.3-0.8,3.9-0.8,5.1c0,0.9,0.2,9.3-0.7,9c1.2,1.1,4,0.4,4.6,2.3
	c-0.4,0.4-2.3,0-2.8,0c-1.1,0.1-3.3,0.3-3.4-1c0-0.4,0.2-0.8,0.5-1c-0.4-0.6-0.5-1.2-0.5-1.8c0-1.9,0.4-3.7,0.4-5.7
	c-0.1-2.5-0.8-5.8,0.4-8.1C126.6,154.9,129.9,154,131.5,155.4C131.3,156.3,130.4,154.4,131.5,155.4z"/>
<path class="st7" d="M134.1,155.6c1.7,1.8,0.1,7.3,0,9.5c0,1.9,0.8,4.6-0.1,6.5c0.1,0.2-1.3-1-1.3-1c-1.1-1-0.5-4.2-0.5-5.8
	C132.4,162.6,131.4,155.6,134.1,155.6C134.9,156.4,133.8,155.6,134.1,155.6z"/>
<path class="st7" d="M261.9,168.1c0.2,2.8,0,5.6-0.1,8.3c-0.1,2.8,0.2,6.2-0.4,8.9c-0.4,1.8,0.4,3.8-0.7,5.5
	c-1.5,2.5-1.6-4.6-1.6-5.2c-0.1-2.8,0.6-5.5,0.7-8.2c0-1.4,0.1-2.7,0.1-4.1c0.1-2.4,0.6-2.9-2-3.1c-6.5-0.5-12.9-0.1-19.3-1.4
	c-1.5,7.1,0,15-0.9,21.9c-0.3,2.3,0.8,6.9-0.8,8.8c-1.6,1.9-1.7-2.6-1.7-3.2c0.2-2.3,0.3-4.7,0.4-7c0.2-5,0.2-9.9,0.3-14.9
	c0-1.9,0.9-4.7,0.5-6.5c-0.6-2.5,2.7-0.9,3.5-0.7c3.2,0.7,6.7,0.5,9.9,0.7c2.1,0.1,4.1,0.3,6.2,0.5
	C257.7,168.4,260.3,167.7,261.9,168.1C262.2,172.6,261,167.9,261.9,168.1z"/>
<path class="st7" d="M81.4,170.8c1.4,5.8-0.2,11.7,0.7,17.5c0.4,2.4-1.7,5-2.1,1.5c-0.3-3.1-0.5-6-0.2-9.1c0.1-1.4,0.1-2.8,0.1-4.1
	c0-2,1-4.1-1.4-4.3c-3.2-0.2-6.3,0.3-9.5,0.6c-2.7,0.2-5.5,0.1-8.2,0.3c-1.5,0.1-4.4-0.7-4.5,1.2c-0.1,1.7,0.2,3.4,0.2,5.2
	c-0.1,3.1-0.4,6.2-0.4,9.4c0,0.8-1.4,8.3-2.1,5.6c-1.4-5.4,0.7-11.8,0.4-17.4c-0.1-1.7-0.5-4.5,1.1-5.7c1.8-1.3,7.9-0.3,10.4-0.4
	c3.6-0.1,7.1-0.4,10.6-0.6c0.6,0,2.2,0.1,2.6,0C79.8,170.3,80.8,170.9,81.4,170.8C82,173.2,80.7,171,81.4,170.8z"/>
<path class="st7" d="M51,171.8c0.5,1.4,0,4.3-0.1,5.8c0,2.5-0.4,5-0.5,7.6c-0.1,2.1,0.1,4.3,0.1,6.4c0,0.5-0.8,4-1.9,1.9
	c-0.7-1.3-0.1-3.2,0-4.6c0-2.2-0.2-4.4-0.1-6.7c0.1-2.4,0.5-4.8,0.4-7.2C48.9,172.8,48.8,171.8,51,171.8
	C51.2,172.4,50.4,171.8,51,171.8z"/>
<path class="st7" d="M188.7,175.9c1,1.1,0.2,4,0.2,5.3c0,2,0.1,4,0.2,6c0.1,1.9,0,3.9,0.1,5.8c0.1,1.3,1,3-0.2,4.1
	c-1.8-0.7-1.6-4.3-1.7-5.8c0-1.3,0-2.5-0.1-3.8c-0.2-2-2-1.1-3.7-1.2c-1-0.1-1.9-0.2-2.9-0.2c-0.1,1.4-0.1,2.7-0.1,4.1
	c-0.1,2.4,0,5.4-1.2,7.6c-1.5-2.3-0.6-6.2-0.8-8.9c-0.2-2.2,0.1-2.8-2.5-2.5c-1.8,0.2-3.6-0.2-3.6,1.9c0,2.5-0.2,5.2-0.2,7.8
	c0,1.3,0.4,3-0.4,4.1c-0.6,0.1-1.4-2.1-1.5-2.6c-0.7-3.4-0.1-7.2,0.1-10.6c0.2-2.7-0.9-8.5,1.6-10.2c1.2-0.9,3.1-0.6,4.6-0.8
	c0.8-0.1,3,0.3,3.7-0.1c0.3-0.2,2.2,0.4,2.6,0.3C184.8,176.1,186.7,175.9,188.7,175.9C189.5,176.8,186.1,175.9,188.7,175.9z
	 M172.7,178.1c0,2.2-0.3,4.5-0.2,6.7c4.7-0.2,9.5-0.4,14.3,0.2c-0.1-2.4,0.1-4.7,0.2-7.1C182.2,178.2,177.4,177.2,172.7,178.1
	C172.7,180.4,177,177.3,172.7,178.1z"/>
<path class="st7" d="M77.7,178c-0.1,2.4-3,0.8-4.3,0.8c-3.1-0.1-7.5-0.3-10.6,0.5c1.3-1.3,4.4-1,6-1C71.7,178.2,74.8,177.3,77.7,178
	C77.6,180.5,75.6,177.5,77.7,178z"/>
<path class="st7" d="M228.6,178.3c0.1,6.3-0.1,12.7,0.1,18.9c0,0.9,0,2-0.6,2.7c-1.7,2-1.8-2.1-1.7-3c0.3-2.8,0.5-6,0.3-8.9
	c-1.7,0.2-3.6,0.7-5.4,0.4c-0.6,1.8-0.7,3.8-1.3,5.6c-0.4,1.5-0.7,3-1.1,4.5c0,0.2-0.8,2.5-1.1,1.5c-1-3,1.3-6.9,1.1-10.1
	c-0.1-2.2-2.2-1.5-4-1.5c-1.5,0-2-0.6-2.3,1.2c-0.2,1.3-0.4,2.5-0.4,3.8c-0.1,1.1,0.4,5.3-0.8,5.5c-1.2,0.1-1.4-1.7-1.5-2.5
	c-0.2-1.7,0.5-3.4,0.6-5.1c0-2.5-0.1-4.9,0.1-7.4c0.1-1.8,0.3-3.6,0.4-5.4c0.3-0.1,1.1-1.3,1.5-0.9c0.9,0.1,1.8,0.1,2.7,0.2
	C219.6,177.9,224.1,177.6,228.6,178.3C228.7,180.6,222.8,177.3,228.6,178.3z M212.9,179.8c-0.4,2.1,0,4.3-0.2,6.5
	c2.6,0,5.1,0.1,7.7,0.1c1.1,0,2.1,0,3.2-0.1c1.7-0.1,3.2,0.5,3.1-1.5c0-1.3,0-2.7-0.1-4.1c-0.1-1.7-2.3-0.9-3.7-0.8
	C219.5,180.1,216.2,180.2,212.9,179.8C212.5,181.9,217.1,180.3,212.9,179.8z"/>
<path class="st7" d="M254.1,190.4c-0.9,0-0.6-1.5-0.6-1.9c-1.8,0.2-4.4-0.3-4.6,1.6c-0.1,1.6-2.1,5.5,0.3,5.4c2-0.1,1.9-2.3,3.4-3.3
	c1.8-1.3,3.2,0.1,5-0.3c1.4-0.3,3.3,0.3,4.7,0.4c1,0.1,2.1,0.2,3.2,0.1c0.5,0.8,0.7,1.8,1.1,2.6c0.5,1.3,4.1,1.1,5.6,1.9
	c0,1.8-0.7,4.9-0.2,6.5c0.3,1.3,0.3,1.8-1.2,1.9c-0.9,0.1-2.9-1.1-1.3-1.5c1.5-0.3,1.1-3.2,1-4.6c-0.1-1.7-0.8-1.7-2.3-1.9
	c-1.8-0.3-2.2,0.5-3-1.2c-1.2-2.8-1.6-1.5-3.9-2.3c-1.2-0.4-3.1-0.2-4.4-0.2c-2-0.1-3.2-0.5-4.1,1.7c-1.1,2.9-2.8,1.5-5.4,1.9
	c-2,0.3-1.4,1.6-2,3.1c-0.4,1.1-1.4,3.9-2.6,3.4c-1.9-0.8,0.2-3.3,0.5-4.5s0.7-2.4,1-3.7c1.2-0.5,1.8,0.7,2.3-0.8
	c0.6-1.9,0.7-4,0.6-5.9c-1.3-0.5-4.7-1.2-4.6,0.8s0.7,4.3,0,6.2c-0.8,2.4-1.5-0.5-1.4-1.4c0.1-3.7-1.1-7.4-0.9-11
	c0.1-1.7,0.1-4.1,1.7-4.6c1.4-0.5,4.1,0.3,5.9,0.3c3.3,0,8.1-1.5,8,3.2c0,1.8,0.1,3.8-1.1,5.2C255.5,188.1,255.5,190.6,254.1,190.4
	C253.2,190.4,255.7,190.6,254.1,190.4z M248.9,181.1c-1.4,0-3,0.1-4.4-0.3c-3.6-0.9-2.3,3.6-2.3,5.9c3.1-0.3,6,0.6,9,0.2
	c1.1-0.2,2.3,0.6,2.5-0.6c0.1-1,0.2-2,0.2-3C253.8,180,251.4,181,248.9,181.1C248.3,181.1,250.6,181.1,248.9,181.1z"/>
<path class="st7" d="M46.1,183.5c0.6,2.7-6.8,1.3-8.1,1.6c-2.2,0.6-4.6-0.8-6.8-0.3c-1.1,0.2-3.9,0.6-4.9,0.3
	C26.8,182.3,45.9,182.8,46.1,183.5C46.4,184.8,45.8,182.6,46.1,183.5z"/>
<path class="st7" d="M124.9,183.3c-0.5,1.7-2.9,1.3-4.3,0.9c-2.5-0.7-5.2-0.4-7.8-0.4c-2.7,0-5.3,0.5-8,0.2
	c-0.8-0.1-2.6-0.4-2.7,0.8c-0.1,0.8,0,1.7-1.2,1.4c-1.4-0.4,0.1-2.6-0.9-3.2c0-1.2,6-0.7,7.2-0.7c3-0.1,6-0.2,9-0.1
	C118,182.2,123.6,181.8,124.9,183.3C124.8,183.6,124,182.2,124.9,183.3z"/>
<path class="st7" d="M127.6,187.1c-0.1,1.5-1-0.1-0.8,2c0.2,1.8,0.9,1.6,2.7,1.7c2,0.1,4.6-0.4,6.5,0.7c-0.1,0.7-11.2,1-11.7,0.5
	c-0.4-1.6,1.9-3-0.7-3.4c-2.5-0.4-5.3-0.7-8-0.7c-2.5,0-5.2,0.5-7.8,0.5c-1.2,0-9-0.3-7.9,1.5c0.4,0.7-0.4,0.9-0.7,1.6
	c-0.4,0.9-2.6,0.2-3.4,0.1c-1.7-0.1-3.5-0.4-5.2-0.5c-1.3,0-2.9,0.7-4.1-0.1c0.8-2.4,9.3-1,11.2-0.9c1.3-0.8-0.7-2.1,1.6-2.7
	c2-0.5,4.1-0.5,6.2-0.5c3,0,6-0.6,8.9-0.3c2.3,0.3,4.6,0.1,6.9,0.2C122.8,186.6,126.5,186,127.6,187.1
	C127.6,187.7,126.9,186.4,127.6,187.1z"/>
<path class="st7" d="M104.7,194.7c0.1,1,0.2,10.9-1.5,10.2c-1,0-0.3-4-0.3-4.5C102.9,198.2,101.7,194.7,104.7,194.7
	C104.8,197.1,104.3,194.7,104.7,194.7z"/>
<path class="st7" d="M122.7,194c1.4,1.2,2,3.3,2.7,4.9c0.5,1.2,1.2,4.6-0.8,2.1C123.9,200.2,119.6,193.3,122.7,194
	C123.6,194.8,121.6,193.8,122.7,194z"/>
<path class="st7" d="M81.6,205.5c-1.4,0.4-1.2-2.3-1.2-3c0.2-2.1-0.5-4-0.4-6c0.1-2.5,2.1,0.5,2.3,1.5
	C82.7,200.6,82,203.1,81.6,205.5C80.8,205.8,82.2,202.1,81.6,205.5z"/>
<path class="st7" d="M54.9,198c1.3,1.1-0.5,4.2-1,5.3c-0.4,1.1-4.4,7.7-5.2,7.6c-0.6-2.1,2.3-5.4,3.3-7.2
	C52.9,202,52.8,198.1,54.9,198C55.3,198.4,54.6,198,54.9,198z"/>
<path class="st7" d="M190.4,202.5c-1.3,1.2-3.2,0.7-4.8,0.7c-2.6-0.2-5.2,0.2-7.8,0.2c-3.8,0-7.7-0.1-11.4-0.3c-1.1,0-8-0.9-8.2-0.4
	c-0.3,0.7-7.3,0.1-7.2-1.5c0.3-2.5,6.9,0.4,7.2-0.7c0.1-0.2,8.3,0.5,9.2,0.7c4.9,0.7,10.3,0.1,15.3,0.1
	C183.6,201.2,190.2,200.5,190.4,202.5C188.8,203.9,190.3,201.2,190.4,202.5z"/>
<path class="st7" d="M249.1,200.1c5.7-0.5,3.8,8.5-1.4,7c-0.8-0.2-2-1-2.3-1.9c-0.3-1.1-0.2-2.6,0.8-3.3
	C246.6,201.6,248.8,200.1,249.1,200.1C251.3,199.9,248.8,200.1,249.1,200.1z M249.6,202.9c-2.6-1.4-3.5,3.3-0.2,2.6
	C252.6,204.8,250.3,201,249.6,202.9C248.9,202.5,249.7,202.4,249.6,202.9z"/>
<path class="st7" d="M235.5,203.6c-0.3,1.6-11.7,0.9-13.6,0.8c-4.7-0.1-9.5-0.1-14.2-0.2c-2.2,0-4.5-0.2-6.7-0.5
	c-0.8-0.1-6.8-0.3-7-0.8c-1.6-2.9,3.9-1.6,5.6-1.4c3.8,0.4,8.3,1.5,12.1,0.7c4.1-0.8,9.4,0.1,13.6,0.1
	C226.7,202.3,235.7,201.4,235.5,203.6C235.3,204.9,235.6,202.2,235.5,203.6z"/>
<path class="st7" d="M260.4,205.3c1.3-1.9,1-2.8,3.3-4c1.9-1,4.6,0.5,4.3,2.9c-0.2,1.7-2.3,2.4-3.3,3.3
	C263.1,208.8,260.9,206.6,260.4,205.3C260.9,204.5,261.1,207.1,260.4,205.3z M266.2,203.6c-1.3-2.6-3.7,0.3-3.9,1.9
	C263.9,207.2,267.2,205.7,266.2,203.6C265.8,202.7,266.8,204.8,266.2,203.6z"/>
<path class="st7" d="M250.9,76.1c2.1-0.2,0.7,13.4,0.7,15c-0.2,7.5-0.1,15-0.4,22.5c-0.3,8.2-0.8,16.5-0.9,24.7
	c-0.1,4-0.2,7.8-0.6,11.8c-0.3,3.4-0.3,7.3-1.5,10.6c-0.9-2.2,1-8-0.3-9.5c-0.8-0.9,0.2-7.4,0.2-8.9c0.3-8.6,0.7-17.1,1-25.7
	c0.3-6.9,0.7-13.9,0.6-20.8c-0.1-4.2,0-8.5,0.2-12.7C249.8,81.8,249.2,76.8,250.9,76.1C252.2,76,250.6,76.3,250.9,76.1z"/>
<path class="st7" d="M188,14.2c0,1.2-1.2,4.1,0.1,4.4c1.5,0.3,2.9-0.5,4.4-0.2c1.8,0.4-2.1,8.1,1.1,8.1c-0.9,1-1.4-0.2-1.1,1.4
	c0.3,1.4-1.5-1.1-1.3-1c-1.6,0.1-3.3,0.2-4.9,0.4c-2.8,0.3-3.5-0.1-3.9-3.2c-1.1,0.2-1.9,0.8-2.8,1.3c1.1,0.9,0.9,5.7-0.6,5.6
	c2.4,0.5,4.8,0.3,7.2,0.3c1.9,0,4.3,0.8,6,0.1c0.8-0.4,1.5,0.6,2.2,0.9c1.1,0.5-0.4,1.1-0.5,1.2c0.1,0.2,0.2,0.2,0.4,0.2
	c-0.3,0.3-0.6,0.5-1.1,0.4c-0.1,1.2,0,2.3,0.1,3.5c0.1,0.5,0.2,4.9-1.3,2.8c-1-1.5-0.8-5.3-0.6-7c-1.6,0.2-3.2-0.3-4.8-0.4
	c-1.7-0.2-2.9,0.2-4.5,0.2c-2.7,0.1-5.6-0.3-8.3-0.5c-1.7-0.2-1.1,5.2-1.2,6.7c0,0.7-0.1,1.3-0.2,2c-1.4,0-1.6,0.4-1.7-1.2
	c-0.2-2.2,0.2-4.3,0.2-6.5c0-0.4,0.2-0.7,0.6-0.9c-0.3-0.6-0.3-1.2,0-1.7c1.9-0.2,3.8-0.2,5.6,0.1c3.1,0.4,0-3.8,1.3-5.5
	c-1.7-1.5-0.3-6.4-0.2-8.6"/>
<path class="st7" d="M185.2,16.3c-1.5,0.3-2.9,1.1-4.3,1.8c-1.7,0.8-1.1,3.4-1.1,5.2c1.6-0.3,3.6-1.3,5.2-0.9c2.4,0.6,2.1,1.5,1,3.1
	c-0.9,1.3,4.5,0.9,5.2,0.8c0-2.2-0.1-4.5-0.2-6.7c-1.3,0.1-2.6,0.5-3.9,0.2c-0.1,0.8,0.4,2.2-0.2,2.8c-1.3-0.6-1.1-6.5-1.1-6.5"/>
<path class="st7" d="M184.6,25.8c0.5-1.2,1.6-2.3-0.4-2.2C184,24.4,184.2,25.2,184.6,25.8C184.8,25.1,184.2,25.3,184.6,25.8z"/>
<path class="st7" d="M203.1,44.6c0,0.5-16.8,0.6-18.7,0.5c-7.6-0.3-15-0.1-22.6,0.1c0.5,7.5-0.5,14.9-0.7,22.4
	c-0.2,7.7,0.1,15.4,0,23.1c-0.1,5.3-0.7,10.4-0.9,15.7c-0.1,6.3-0.1,12.7-0.7,19c-1.3,12.4-1.4,24.6-1.4,37.1
	c0,6.5-0.5,12.8-0.4,19.1c0.1,2.6-0.2,5.2,0,7.8c0.1,1.6,0,3-0.2,4.6c-0.3,1.9,0.5,3.7,0.1,5.5c-2.8,0.6-2-17.5-1.9-20
	c0.4-10.4,0.1-20.9,0.4-31.3c0.2-10.2,1.5-20.3,1.9-30.4c0.2-7.7,0.5-15.4,0.9-23c0.9-14.9,0.2-29.7,1-44.7c0.1-2-0.4-4.5,0.8-5.8
	c1.1-1.2,4.7-1.3,6.2-1c3.2,0.5,6.9-0.5,10.3-0.3c4.8,0.3,9.7,0.5,14.5,0.4C192.7,43.3,203.9,42.2,203.1,44.6
	C203.1,45.3,203.4,43.8,203.1,44.6z"/>
<path class="st7" d="M201.4,51.5c-0.5,0.3-1,0.3-1.5,0c0.8,6.1-1.3,12.5-1.1,18.7c0.1,2.5-0.2,4.9-0.2,7.4c-0.1,1.5-0.9,4.1-0.6,5.3
	c0,10.6-0.4,21.4-1.2,32.1c-0.7,9.1-1.5,17.9-1.6,27.2c-0.1,5.4,0.4,10.8,0.3,16.2c-0.2,6.4-1,12.7-0.7,19.1
	c-2.2,0-1.7-10.6-1.6-12.1c0.3-5.8,0.2-11.5,0.1-17.3c-0.2-11,0.9-22,1.6-33c0.7-11,0.6-21.7,1.3-32.7c0.3-5.5,0.8-11,0.9-16.6
	c0-2.7,0.8-5.3,0.9-7.9c0.1-1.7-0.4-5.2,1.2-6.3c-1.4-0.4-14.3,0.1-14.3,0.5c0.1,4.6-0.3,9.4-0.6,14.1c-0.3,4.4-1.5,8.3-1.7,12.6
	c-0.3,6.4,0.6,12.9,0,19.2c-1.1,11.4-1.3,22.8-1.2,34.3c0,6.7-0.5,13.3-0.6,20c0,3.3-0.1,6.6-0.1,9.8c0.1,3.5,1,7.2,0.2,10.7
	c-1-0.4-1.5-4.6-1.7-5.5c-0.6-2.4-0.5-5.1-0.4-7.6c0.1-5.9,0.2-11.8,0.6-17.7c0.7-10.8,0.3-21.7,0.8-32.4c0.2-4.7,0.7-9.5,0.6-14.2
	c-0.1-5.7-0.5-11.4,0-17.1c0.4-4.3,0.9-9,1.7-13c0.7-3.9-0.8-9.8,1.2-13.3c-2.8,0.1-5.7,0.4-8.5,0.5c-1.3,0.1-2.7,0.1-4,0.1
	c-2.2,0-1.4,2.3-1.5,4.2c-0.2,6.6-0.4,13.2-0.5,19.8c-0.2,8.9-0.5,17.8-1.6,26.7c-0.7,5.5-0.2,11.1-0.8,16.6
	c-0.7,6.4-1.2,12.9-1.6,19.3c-0.7,12.1,0.6,24.2-0.1,36.3c-1.5-0.1-1.6-9.9-1.8-11.2c-0.5-5.4-0.3-10.8,0-16.2
	c0.4-9.2,0.9-18,1.6-27c0.7-9.9,0.8-20.2,1.6-30.4c0.5-6.9,0.7-13.8,0.8-20.6c0-3.2,0.1-6.3,0.2-9.5c0.1-1.3-0.4-6.9,0.9-7.8
	c-0.1-0.1-2.6-0.3-1-1.3c0.8-0.5,3.2-0.9,4.1-0.6c1.4,0.5,3.6-0.3,5.1-0.4c2.2-0.1,4.4-0.4,6.5-0.5c3.4-0.2,7.1-0.1,10.6-0.1
	C195.6,49.8,200.4,49.1,201.4,51.5C201,52,201.1,50.8,201.4,51.5z"/>
<path class="st7" d="M135.3,108c-0.2,3.3-0.4,6.7,0.2,9.9c0.5,2.8,0.8,7.2-0.3,9.9c-2.4-1.1-1.3-5.4-1.5-7.4
	c-0.1-1.7-0.5-3.5-0.3-5.2c0.3-1.9-0.6-3.6-0.5-5.5c-1.8,0.1-3.6,0.3-5.4,0.6c0,1.3,0,2.6,0,3.9c0,1.2,0.3,2.8,0,3.9
	c-0.5,2.1-1.4-1.6-1.4-2.2c0.2-2.7-1.8-6.4,1.1-7.7C128.4,107.7,134.3,106.7,135.3,108C135.2,110.3,134.8,107.3,135.3,108z"/>
<path class="st7" d="M110.2,106.5c0.9,1.8-4.2,7-5.4,8.6c-2.4,3.2-6,6-8.4,9.1c-2.5,3.2-6.2,6.7-8.6,9.2c-1.5,1.6-3.6,3.5-5.3,5.1
	c-0.7,0.7-1.9,2.7-3.2,2.7c1.7-4.3,5.4-7.5,8.5-10.7c3.7-3.9,7.3-7.9,11-11.8c1.7-1.8,3.2-3.5,4.7-5.5
	C105,111.1,107.8,106.6,110.2,106.5C110.8,107.6,109.9,106.5,110.2,106.5z"/>
<path class="st7" d="M256.9,71.6c1,0.2,0.8-2.3,2-0.7c0.9,1.1,0.1,3.6,0.1,4.8c0,4.8,0.1,9.6-0.4,14.4c-1.1,10.2-1.1,20.5-1.7,30.7
	c-0.2,2.4-0.4,4.8-0.5,7.2c-0.1,1.6-0.8,2.5,1.1,2.6c1.3,0.1,2.5,0.2,3.8,0.3c2.5,0.2,5,0.3,7.5,0.4c3.2,0.1,2.2,0.8,2.5,3.5
	c0.6,5,0,10.4,0,15.4c0,2.7-0.2,5.3-0.5,8c-0.4,3.2,0,6.5-0.7,9.6c1,0,1.8,0.3,2.8,0.2c1-0.1,2-0.9,3-0.4
	c-0.6-11.4,0.6-22.8,0.6-34.1c0-2.7,0.1-5.5,0.3-8.3c0.1-2.1,1.1-6.6,0.3-8.4c-0.5-1-0.1-3.2-0.4-4.4c-0.8-3.7,5.3-1.1,7-0.8
	c6.3,1.1,12.7,0.2,19.3,1c1.3,0.2,2.6,2.1,0.8,2.3c-2.4,0.3-4.9-0.1-7.4-0.1c-5.8-0.1-11.4-1.3-17.2-1.5c-0.3,2.2-0.1,4.9,0,7.1
	c0.1,2.4-0.7,5.4-0.1,7.8c0.5,2-0.2,5.5-0.3,7.7c0,2.7-0.2,5.6-0.4,8.3c-0.5,5.7-0.2,11.6-0.3,17.3c0,2.1,0.6,6.9-1,8.1
	c-1,0.7-2.1-0.1-3.2,0.1c-1.2,0.3-2.6,0.4-3.8,0c-0.1,2.9-0.2,5.7-0.3,8.6c-0.2,2.5,1.2,1.3,2.9,1.3c1.6,0.1,3.2,0.5,4.8,0.5
	c1.6,0,3.3-0.1,4.9-0.1c0.4,1.8,0.3,3.6,0.2,5.5c-0.2,3.1-0.3,6.2-0.2,9c0,1.7-0.1,3.8-0.1,5.7c0.1,1.8-1.7,5-2.1,1.7
	c-0.4-3.2,0.1-6.4-0.1-9.7c-0.1-1.7-0.2-3.4,0.1-5c-1.5-0.6-3,0.2-4.5,0c0.3,2.1-0.2,5.7-0.8,7.8c-0.3,0.9-1.2,1.4-1.8,0.4
	c-0.6-1.1,0.1-2.1,0.2-3.2c0.1-1.2,0.1-2.4,0.2-3.5c0.1-1.7-1.6-1.2-3-1c-2.7,0.4-0.9,3.4-2.6,5c-1.7-0.1,0.9-33.8,1.2-37.9
	c0.5-6.5,0.4-13.6,0.2-20.1c0-1.9-1.9-1.3-3.4-1.3c-1.7,0-3.3-0.2-4.9-0.4c-1.4-0.2-3.8,0.1-5-0.7c0.1,4.4-0.4,8.8-0.8,12.8
	c-0.3,3.5-0.2,7-0.4,10.5c-0.1,1.3-0.1,7.6-1.8,8c-1.3-5.9-0.1-12.4,0.2-18.4c0.3-6.6,0.5-13.3,1.2-19.9c0.3-3.2,0-6.4,0.2-9.5
	c0.3-3.4,0.9-6.9,1-10.3c0.2-5.4,0.1-10.6,0.8-16.1c0.7-5.5,0.7-11.4,0.7-17c-5-0.7-10.8-0.3-15.9-0.2c-2.9,0-5.8,0-8.8-0.1
	c-1.5,0-3.4-0.8-3.8,1c-0.3,1.5,0.1,3,0.1,4.5s1,11-1.3,11.2c-1.8-3.6-0.3-8.5-0.7-12.3c-0.1-0.8,0.3-4.8-0.2-4.9
	c-2-0.4,0.5-2.2,1.1-2.4c0.1,0,0.8,0.5,0.9,0.6c0.4,0.6,2.3,0.2,2.9,0.2c3.1,0,6.2,0.3,9.2,0.3C245.7,70.2,252.3,69.6,256.9,71.6
	C257.9,71.8,253.9,70.3,256.9,71.6z M269.7,181.5c-0.3,1.6-0.3,3.3-0.4,5c2-0.2,4,0.1,6,0c0.9-0.1,1.8-0.2,2.7-0.3
	c1.6-0.2,2.3,0.3,2.5-1.3c0.3-2.8,0-2.8-2.8-3C275.1,181.5,272.3,181.2,269.7,181.5C269.4,183.1,273.1,181.1,269.7,181.5z"/>
<path class="st7" d="M282,174c-0.9-9.7,0.9-19.3,1-29.1c0-5.8,0.6-11.5,0.5-17.3c-0.1-2.9-0.2-5.9,0-8.9c2.3-0.2,1.6,1.4,1.9,3.5
	c0.4,3.7,0.7,8.3,0.3,11.8c-0.5,4.7-0.4,9.6-0.6,14.5c-0.2,4.5-1.3,9.2-1.3,13.6C283.8,164.1,284.4,173.2,282,174
	C281.8,172.8,283.5,173.5,282,174z"/>
<path class="st7" d="M79,193.7c-0.2,0.2-0.3,0.4-0.3,0.7c-0.2-0.1-0.4-0.2-0.5-0.4c-0.4,0.4,0.2,0.7-0.2,1.1c-1.4-0.1-2.8-0.1-4.3,0
	c-2.7,0.1-5.4,0.2-8.1,0.3c-0.9,0-9.3,0.6-9.2-1C56.4,192.6,78.7,192.3,79,193.7C78.8,193.7,78.7,192.2,79,193.7z"/>
<path class="st7" d="M259.5,203.3c-0.3,1.8-6.7,0.9-6-0.2C254.1,202.2,259.4,202,259.5,203.3C259.3,204.3,259.5,203.1,259.5,203.3z"
	/>
</svg>
