<?xml version="1.0" encoding="utf-8"?>
<!-- Generator: Adobe Illustrator 21.1.0, SVG Export Plug-In . SVG Version: 6.00 Build 0)  -->
<svg version="1.1" id="Layer_1" xmlns="http://www.w3.org/2000/svg" xmlns:xlink="http://www.w3.org/1999/xlink" x="0px" y="0px"
	 viewBox="0 0 360 236" style="enable-background:new 0 0 360 236;" xml:space="preserve">
<style type="text/css">
	.st0{fill:#E7ECEF;}
	.st1{fill:#FFFFFF;}
	.st2{fill:#EA9B95;}
	.st3{fill:#747E91;}
</style>
<g>
	<path class="st0" d="M172.9,214c-10.7,7.1-15.3-5.9-21-12.7c-4.3-5.2-7.1-7.7-13.6-7.1c-4.6,0.5-15.8,8.3-20.3,3.6
		c-5.2-5.2,11.3-20.4,0.8-29.2c-14.3-12.1-36.1,17.1-53.4,3.6c-4.8-3.7-6.5-7.7-2.4-14.1c2.7-4.2,9.6-5.5,11.1-10.3
		c3.3-10.5-13.1-14.7-15.9-21.8c-3.8-9.7,8.8-15.1,15.9-17.1c6.3-1.8,9.2,1.3,10.7-7.6c1.2-7.2-5.7-19.8-11.2-24.5
		S58,74.7,59.2,64.3c1.5-12.2,9.1-4,15.1-6.9c7.1-3.5,1-16,11.7-14.3c7.8,1.2,5.7,13.2,13.1,15.1c7.9,2,13.6-10.4,17.9-15.2
		c6.5-7,12.7-15.1,19.3-21.8c1.9-1.9,3.8-4.9,6.7-5.2c11.6-1.3,12.1,11.6,12.9,18.7c0.8,6.6,2.3,16,8.5,19.3
		c7.7,4.1,13.7-2.1,20.4-2.9c6.9-0.9,8.7,4.7,14.7,3.7c9-1.6,11.9-17.8,22.6-16.8c11,1.1,6.6,12.3,12.8,17
		c7.8,5.9,23.2-6.7,32.3-7.9C291,44,291.4,53,300,72c7.5,16.8-9.8,15.7-18.9,27.7c-3.4,4.5-6.4,11.5-6.2,17.2c0.4,9,7.1,11,12.1,17
		c7.5,8.9-2.4,14.1-8,22.1c-2.4,3.4-5.3,6.4-4,11.1c1.5,5.1,2.3,1.6,5,4.8c5.7,6.8,10.7,14.5,3.6,20.4c-16.5,13.7-17.2-15.9-30.6-10
		c-4.4,1.9-5.4,11.1-10,14.2c-8.2,5.5-13.2-3-19-8c-5.7-4.9-16.4-14.3-24.8-10.9c-5.1,2.1-4.4,6.6-7.1,10.3c-3.1,4.2-8,6-10.7,10.6
		C178.2,203.4,178.6,210.2,172.9,214z"/>
	<path class="st1" d="M184.8,91c0.2-10.5-0.7-20.9-1.3-31.4c-0.5-8.7,1.6-21.3-1.2-29.5c-3.4-9.8-13.6-19.4-21.8-9.7
		c-5.7,6.7-8,17.6-16.3,21.6c-11.2,5.4-22.1-17.7-36.8-13.8c-1.1,17.7,3.5,34.8,3.9,51.9c-3.4-0.2-7-0.4-9.5,2c-5.3,5-1.5,6.3,1,9.9
		c6.9,9.8,22,18.5,31.9,25.3c4.1,2.9,13.4,4.5,14.4,9c-15.7,0.9-30.7-1.8-46.1-0.9c-4.1,0.3-11.4-1.7-14.4,1c-4.6,4.1-0.6,4.1,1,8.1
		c1.1,2.9,4.5,4,3.8,7.4c-0.9,4.3-11.7,8.6-13.6,13.1c-6.5,15.6,20,7.3,27.2,8.3c0.8,7.3-5.7,15.9-4.8,21.3
		c1.3,8.4,13.5,5.6,21.6,4.6c5.3-0.6,12.7-4,18.9-4.3c3.4-0.2,4.2-1.2,7.2,0.3c2.2,1.1,2.8,5.6,4.7,6.2c4.8,1.3,10.2-5.6,14.4-7.4
		c7.4-3.1,10.2-0.6,16.8,1.3c2.4,0.7,4.3-1.9,6.3-0.7c3,1.8,3.4,5.8,6.4,7.8c5.2,3.5,14.8,3.8,20.9,3.3c4.1-0.3,11.9-1.5,11.6-7.1
		c-0.3-5.7-8.7-4.5-12.4-6.5c-3.8-2-10.8-7.6-10.8-12.6c0.1-5.7,7.1-7.5,5.2-13.7c-2.5-8.5-12.2-7.7-5-14.7
		c7.3-7.1,21.5-5.9,30.3-10.3c4.7-2.4,25.7-11.6,25.2-18.9c-0.4-5.6-8.2-4.6-12.6-5.5c0.2-7.1,5.9-15.7,8.3-22.1
		c2.7-7.2,4.6-14.5,5.2-21.7c-13.7-0.8-25.9,5.5-39.6,4.9C220.9,39.6,191.4,83.1,184.8,91z"/>
	<path class="st2" d="M134.9,53.8c-1.9-2-18.2-12.9-17.5-15.2c-2.1,6.3-0.8,12.8,0.9,18.9c0.5,1.8,5.4,21.6,5.6,21.6
		c-5.9,0.5-11.9-0.1-17.8,0.2c0.8,5,6.7,10.2,9.9,13.9c4.6,5.4,9.9,10.8,15.2,15.4c4.7,4.1,10.7,6.7,15.8,10.1c3,2,5.7,4.9,8.9,7
		c1.9,1.3,4.8,2.1,6.1,4c-6.2,0.1-12.3,1.4-18.6,0.8c-5.2-0.5-9.1-2.3-14.6-2.7c-9.2-0.6-18.7-0.2-27.9,0
		c4.8,4.6,8.2,11.5,12.4,16.5c-5.5,3.8-12.8,9.9-19.2,11.8c-0.2,8.1,37.7,7.4,42.8,7.8c-5.4,6.7-17.5,12.6-18.8,21.8
		c7,0.2,15.3-4.5,21.9-6.4c6.3-1.8,11.1-5.1,16.8-7.2c1.3,4.7,0.7,10.3,1.5,15.7c3.5-1.5,5.6-4.4,8.3-7c2.8-2.7,6.9-4.9,9-8.3
		c1.2,1.4,5.3,8,7,8.1c1.4,0.1,4.4-4.7,6.1-5.6c5.8,8.6,14.3,12.6,23.9,14.2c9,1.5,19-4.8,14.5-14c-4.9,3-12,4.8-17.7,2.6
		c-7.4-2.8-9.3-9-11.9-15.2c3-0.1,13.3-0.9,13.1-5.3c-0.1-2.8-9.7-6.7-11.5-8.8c-3-3.3-3.7-3.5-0.5-7.2c5.1-5.8,18.5-10.2,25.4-13.1
		c8.6-3.6,19.8-5.3,25.9-12.3c-4-2.7-9.1-4.5-13.7-5.6c0.5-6.1,10.7-12.3,14.5-16.9c2.1-2.5,3.6-6.4,5.4-9.3
		c3.1-5.1,10.3-13.1,11.3-18.9c-4.4-1.2-13.3,3.4-17.7,4.5c-10.1,2.5-19.6,6.8-28.8,11.1c-0.4-6,0.2-12.3-0.2-18.3
		c-4.3,0.9-7.1,6-10.2,9.1c-3.5,3.5-7.9,6.9-10.9,10.3c-3.1,3.5-5.2,8.5-7.4,12.6c-1.9,3.4-4.8,5.7-6.7,9c0.5-6.6-1-14.8-2.4-21.4
		c-1.8-8.1-2.7-16.4-5-24.5c-1.7-6.2-3.2-16.5-6.7-21.1c-4.5,1.6-8,10.5-10.5,14.4c-3.7,5.8-6.2,14.5-11.3,19.2
		c-3.1-2.7-5.1-6.9-7.8-9.9C139.4,58,137,56.1,134.9,53.8z"/>
	<path class="st0" d="M243,47c9.5-0.9,4.4-10.8-2.9-9.1C232.1,39.8,236.8,47.7,243,47z"/>
	<path class="st3" d="M168.2,26.8c-1.2,7.2-7.3,11.3-11,17c-2,3-3.9,6.3-5.2,9.8c-0.5,1.4-0.8,2.5-1.3,3.9c-0.5,1.6-3,1.7-2.4-0.1
		c2.4-6.9,5.5-13.1,9.8-18.9c0.9-1.2,2.8-3.6,4.1-4.2C164.9,33.2,164.9,26.7,168.2,26.8C167.9,28.4,167.9,26.8,168.2,26.8z"/>
	<path class="st3" d="M100.5,72.7c0-0.1,4.4,2.1,5.3,2.2c1.9,0.4,4,0.3,6,0.2c2.2-0.1,2.8,0.1,4.8,0.7c0.2-3.3-1.9-6.9-2.5-10.2
		c-0.6-3.4-1.4-6.5-2.4-9.8c-1.2-4.3-1.3-8.8-2.2-13.1c-0.8-4.2-2.9-8-3.2-12.3c1.2,0.8,1.7,3.8,2.2,5c0.8,2.2,1.7,4.4,2.2,6.7
		c1,4.7,1.6,9.9,3.4,14.4c1.1,2.7,1.8,6.1,2.4,8.8c0.4,1.7,0.2,3.2,0.9,4.8c0.9,2.3,1.5,4.5,2.6,6.7c-0.2,0-0.4,0-0.5,0.2
		c0.3,0.1,0.5,0.2,0.7,0.4c1,1.5-3.4,0.5-3.3,0.6c-1.4-0.5-3-0.6-4.5-0.8c-2.2-0.3-6.2-1.2-7.3-1.6
		C103.1,75.1,102.3,74.1,100.5,72.7C100.8,72,101.2,73.3,100.5,72.7z"/>
	<path class="st3" d="M169.9,32.1c1.1,0,3.4,13.9,4.1,16.3c1.2,4.3,2.1,8.7,2.9,13.1c0.6,3.3,0.7,7.3,2.1,10.4
		c1.3,2.9,1.2,7.4,1.4,10.6c0.1,1.2,0.8,3.1,0.4,4.2c-0.5,1.3,1.1,2.7,0.5,3.9c-0.9,1.8,1.2,5.5,0.8,7.2c-0.2,0.9,0.5,2,0.7,3.1
		c0.1,1,2,3.4,1.5,4.1c-5.8-1.8-5-12.4-5.4-17.1c-0.6-6.6-1.7-12.9-3-19.4c-1.2-6-2.3-12-3.8-17.9C171.4,48,166,33.6,169.9,32.1
		C170,32.1,169.5,32.2,169.9,32.1z"/>
	<path class="st3" d="M146.1,60.2c-3.2-1-6.9-4.6-9.3-6.8c-2.5-2.4-6.2-4.2-9.2-5.9c-5.8-3.4-11-6.2-17-9.6
		c-0.5-0.3-1.7-2.2-0.3-2.2c1.1-0.5,4.6,2.2,5.5,2.7c2.1,1.2,4.3,2.1,6.4,3.1c1,0.5,4.4,1.7,4.9,2.7c0.4,0.8,3.1,1.6,3.9,2.1
		c1.9,1.1,3.6,2.4,5.3,3.8c2.2,1.8,4.2,3.8,6.2,5.8C143.8,57.1,145.4,58.5,146.1,60.2C143.6,59.4,145.6,59,146.1,60.2z"/>
	<path class="st3" d="M159.5,53.7c3.3,3.4-1,10.3-2.5,13.8c-1.5,3.7-3.4,7.4-5.4,10.9c-0.5,0.9-0.5,1.7-0.9,2.5
		c-0.7,1.4,0,3.5-1,4.7c-5.1-1.7,1.9-11.9,3.2-14.1c1.5-2.6,3.1-5.2,4.2-8C158.2,61,160.5,56.4,159.5,53.7
		C160.3,54.6,160.2,55.5,159.5,53.7z"/>
	<path class="st3" d="M128.1,62.3c1.7,1.4,2.3,3.8,3.6,5.5c1.2,1.7,3.1,3.5,3.6,5.5c0.7,3,5.4,6,7.2,8.6c2.5,3.6,5.6,7.2,8.4,10.8
		c1.6,2.2,3.1,4.3,4.9,6.4c2,2.3,4,4.4,5.7,7c6.2,9.9,10.5,20.6,14.9,31.4c0.8,1.9,4.9,8.4,3.8,9.9c-2.2,1.7-4.6-7-5.3-8.4
		c-0.5-1.1-1.4-1.8-1.9-2.9s-0.6-2.3-1.2-3.4c-0.7-1.4-1.3-4.6-2.4-5.5c-1.9-1.6-1.7-6.6-3.5-8.2c-1.3-1.2-1.9-5-2.7-6.7
		c-1-1.9-2.4-3.5-3.6-5.3c-1.3-2-2.5-3.7-4.2-5.4c-0.8-0.8-4.7-3.9-4.4-5.2c0.2-1.2-5-6.7-6-7.9c-1.1-1.4-2.7-3.5-3.8-5
		c-2.5-3.4-5.8-6.2-7.8-10.1C131.4,70,128.3,66.2,128.1,62.3C129.1,63.2,128.2,63.8,128.1,62.3z"/>
	<path class="st3" d="M226.7,65.2c1.9-0.3-1,3.6-1.5,4.2c-1.6,1.8-3.8,2.8-5.7,4c-4.8,3.1-8,6.6-12.2,9.8
		c-4.8,3.6-8.4,9.1-12.5,13.2c-0.4,0.4-1.6,1.5-1.9,1.9c-0.6,0.8-1,2.5-2.2,2.9c-0.1,0.7-0.9,3-1.9,3.2c-2.9,0.5,0.3-5.2,1.5-5.7
		c1-0.4,3-4,3.9-5c4.6-4.7,8.9-9.6,13.7-14.1c2.3-2.2,5.1-4.1,7.3-5.5c2.2-1.5,4.5-2.9,6.7-4.3C222.8,69.2,226.8,66.5,226.7,65.2
		C227.1,65.2,226.8,66.1,226.7,65.2z"/>
	<path class="st3" d="M265.4,68.1c1.4-0.3-1.9,3.1-2.2,3.4c-1.4,1.4-2.5,2.8-4.3,3.8c-2.7,1.5-6.3,3.6-9.4,4.1
		c-1.8,0.3-3.8,1.5-5.6,2c-1.6,0.5-3.4,1-4.9,1.6c-1.2,0.5-2.8,1.4-4.2,1.9c-0.7,0.3-5,2.2-5.5,2.1c-3.3-0.8,1.3-3.3,2.2-3.6
		c4.4-1.3,8.4-3.7,12.8-4.9c4.3-1.2,8.4-2.9,12.5-4.6c1.6-0.6,4-2,5.1-3.3C262.8,69.8,264.9,69.3,265.4,68.1
		C265.8,68,265.1,68.8,265.4,68.1z"/>
	<path class="st3" d="M226,71.7c3.2-0.2-0.5,13-1.2,14.9c-2.1-0.7-0.3-6,0.1-7.3C225.3,77.5,224.6,73,226,71.7
		C228.2,71.6,225.2,72.5,226,71.7z"/>
	<path class="st3" d="M263,73.9c0.3,2.8-2.3,7.4-3.4,9.6c-1.4,2.9-2.8,6.2-4.3,9.2c-1.5,2.9-3.4,6.1-5.3,8.8
		c-2.5,3.6-5.8,7.9-6.7,12.2c4.1,0.4,8.3,1.9,12.2,1.7c1.8-0.1,3.5,0.3,5.3,0.4c3.1,0.2,6.1-1.2,9.2-0.9c-0.4,3-6.2,2.4-8,3.5
		c-1.4,0.9-5,0-6.9-0.1c-1.8-0.1-3.6-0.9-5.4-1.1c-2.4-0.3-4.8-0.4-7.1-0.9c-3-0.7-0.1-5.8,0.9-7.7c3.2-6.4,7.7-12.4,11.1-19.2
		c1-2,2.4-4.2,3.2-5.8c0.7-1.4,0.8-3.3,2.2-4.3C259.3,77.3,261.3,73.9,263,73.9C263.2,75.4,262.6,73.9,263,73.9z"/>
	<path class="st3" d="M165.8,79.6c2.9,2.3,2.3,10.4,1.5,13.7c-0.4,1.5-3.2,8.2-4.9,8.3c-2.8,0.2,1.1-6.4,1.9-7.8
		c1.2-1.9,1.3-4.4,1.5-6.5C165.9,85.2,166.9,81.5,165.8,79.6C166.7,80.4,166.6,80.9,165.8,79.6z"/>
	<path class="st3" d="M149,102.4c-1.6,0.4-11.6-2.2-11.5-3.8c2.2-0.5,4.8,0.5,7.1,0.9C145.4,99.7,151.1,100.1,149,102.4
		C147.7,102.7,149.6,101.7,149,102.4z"/>
	<path class="st3" d="M187.9,116.8c0.2,1.1-0.8,2-0.8,3.4c0,1.1,0,2.5-1.3,2.8C183.6,121.9,185.6,116.8,187.9,116.8
		C188,117.7,187.5,116.8,187.9,116.8z"/>
	<path class="st3" d="M205.4,131.5c-1.4,0.3-1.2-0.6-2.7-0.1c-1.6,0.5-3.3,0.7-5,0.6c-0.3-3.3,2.9-1.9,5.1-2.6
		C204.3,128.8,207,129.2,205.4,131.5C204.5,131.6,206.2,130.3,205.4,131.5z"/>
	<path class="st3" d="M135.8,130.7c2.5,0,6.6,5.7,8.4,7.7c0.7,0.8,6.7,9,3.1,9.1c-1.6,0-2.1-2.8-2.4-3.9c-0.7-2.4-2.6-4.1-4.1-6
		c-0.3-0.4-2.2-2.6-2.2-2.9C138.8,133.8,135.7,132.5,135.8,130.7C136,130.7,135.7,133,135.8,130.7z"/>
	<path class="st3" d="M126.9,137.9c-1.5,0.5-6.6-4.4-6.5-5.8C122.2,131.4,127.7,136.3,126.9,137.9
		C125.2,138.6,127.5,136.8,126.9,137.9z"/>
	<path class="st3" d="M107.9,139.9c0.8-0.1,8.9,1.2,8.8,1.3c0,0,3.1,0.9,3.4,0.8c1.4-0.3,3.8,0.7,5.5,0.9c2.3,0.2,4.3,0.1,6.2,1.3
		c2.5,1.5,5,2,7.7,2.9c1.1,0.4,2.1,0.8,3.1,1.2c1.1,0.4,2.5,1.5,3.6,1.7c6.2,1.1,12.7-0.1,18.9,0.9c2,0.3,11.7-0.1,12,2
		c-0.1,2.6-12.9,0.2-14.4,0.2c-5.6,0.2-11.6-0.6-17.2-1.1c-1.2-0.1-2.2-0.9-3.2-1.3c-1.3-0.6-5.1-1.3-5.8-2.2c0-0.2,0.1-0.3,0.2-0.2
		c-1.2-0.4-3.2-0.2-4.2-1c-2.1-1.7-5.2-2-7.8-2.6C119.2,143.4,113.8,141.2,107.9,139.9C110.9,139.6,110.2,140.4,107.9,139.9z"/>
	<path class="st3" d="M189.1,159.1c2.2,0,3.6,4.1,4.5,5.8c1.1,2.2,2.7,4.2,4.1,6.5c3,4.8,8.1,9,13,11.5c1.7,0.8,7.2,3,8.7,1.7
		c1-0.8,1.5-2.2,2.3-3.1c0.5-0.5,1.1-1,1.6-1.5c0.9-0.4,0.1,0.8,0.7,0.7c2.8,0.3,4.5,3.6,4.8,6c0.2,1.6,1.3,5.9,0.5,7.2
		c-1.5,0.4-2.5-9.8-4.6-10.3c-0.8,1.6-0.3,3.2,0.1,4.8c0.1,0.5,0.1,4-0.8,2c-0.9-2.2-1.4-4.1-1.2-6.6c-1.2,1.1-1.6,3.8-3.6,3.8
		c-2.5,0-5.2-0.8-7.4-1.7c-2.8-1.1-5.5-2.7-8.2-4.8c-1.8-1.5-3.9-3-5.5-4.8c-0.8-0.9-2.3-4.4-3.2-4.7c-0.8-0.3-2.5-4.5-2.9-5.3
		c-0.5-1.1-1.1-2.3-1.6-3.4C189.8,161.5,189.6,160.5,189.1,159.1C189.2,159.1,189.4,159.9,189.1,159.1z"/>
	<path class="st3" d="M225.5,194.1c-0.4,2.4-9,3.9-10.8,3c-4.1-2.1-8.4-4.2-12-6.8c-5.4-4-8.5-9.5-12.3-14.8
		c-0.7-0.9-2.9-5.3,0.3-3.7c1,1.6,1.4,4,3.4,4.8c0.2,2,3.1,4.4,4.3,5.9c0.8,1,1.6,1.9,2.5,2.8c0.6,0.5,1,1.1,1.1,1.9
		c0.6-0.1,1,0,1.5,0.4c2.2,1.7,4.6,2.9,6.7,4.4c1.7,1.2,4.1,2.8,6.3,2.7C219.5,194.5,222.4,193.9,225.5,194.1
		C225.4,195,223.9,194,225.5,194.1z"/>
	<path class="st3" d="M177.3,171.8c2.9,3.4,1.5,8.8,4.3,12.2c1.3-0.2,0.8-5,2.2-5.4c0.4-0.1,0.8-1.4,1.7-1.8
		c1.4,0.8-0.4,3.5-0.7,4.4c-0.3,1.1-0.3,4.2-1,5c-1.8-0.3-3.2-0.5-4.2-2.5c-1-2.1-1.6-4.1-2.1-6.3
		C177.2,176.3,174.6,171.5,177.3,171.8C179.8,174.8,176.4,171.7,177.3,171.8z"/>
	<path class="st3" d="M97.9,72.4c1.7,0.8,2.9,3.5,3.8,5c1.4,2.2,3.1,4.3,4.9,6.5c4.2,5,8.7,9.8,13.3,14.2c5,4.8,10.1,8.6,15.9,12.4
		c2.9,2,6.1,4.5,8.7,7c1,0.9,1.9,1.2,3,2c1.4,1,1,3.3-0.9,2c-2.1-1.5-4-3.3-6.3-4.6c-1.7-1-4.2-2.8-5.4-4.2
		c-1.6-1.9-4.4-2.7-6.4-4.2c-1.8-1.3-3.7-3.3-5-4.6c-5.1-4.8-9.9-8.9-14.3-14.5c-2.1-2.7-4.3-5.3-6.1-8.1
		C101.6,78.9,98.4,75.1,97.9,72.4C98.5,72.7,98,73.1,97.9,72.4z"/>
	<path class="st3" d="M88,121.9c-0.2-0.7,5.6,1.4,6.1,1.3c3.8-0.3,7.8-0.3,11.6-0.3c4.2,0,8.5,0.3,12.7,0.3c4.2,0.1,7.9,1.3,12,1.8
		c3.4,0.4,6.9,0.5,10.3,0.8c1.9,0.2,3.7,0.6,5.5,1c1.2,0.3,4,0.3,5,1.1c1,0.8,0.4,1.9-0.7,2c-2,0.1-4.4-0.9-6.4-1.2
		c-1.4-0.2-2.7-0.7-4.1-0.8c-1.4,0-3.3,0.4-4.6-0.2c0.2-0.2,0.4-0.3,0.7-0.2c0.1,0.1-16.3-1.7-16.1-2.6c-1.7,0.3,2,1.1-2.1,0.6
		c-1.9-0.2-3.6,0-5.4-0.1c-0.5,0-4.7-0.1-5-0.5c0.1-0.2,0.2-0.3,0.2-0.5c-0.5,0.3-1,0.5-1.4,0.7c-0.6,0.1-1.2-0.3-1.9-0.1
		c-0.9,0.2-1.2-0.4-2-0.1c-0.7,0.3-1.7,0.4-2.4,0.2c-1.6-0.3-3.4,0.1-5.2-0.2c-2-0.4-3.9-1.3-5.7-2.2c0-0.4,0.6,0.2,1,0
		C90,121.7,88.6,121.8,88,121.9C87.8,121.2,89,121.8,88,121.9z"/>
	<path class="st3" d="M106.5,142.7c-0.1-0.7-2-2-2.4-2.6c-1.2-1.7-2.8-3.4-4.3-4.9c-1.7-1.7-4.7-4.6-5.5-7c2.5-0.8,5.8,4.4,7.3,5.8
		c1.6,1.5,2.8,3.3,4.1,5c0.9,1.2,5.3,2.8,3.4,5c-1.1,1.3-5,1.6-6.7,2.5c-2.5,1.2-4.6,2.7-7,3.8c-3.2,1.6-6.5,3.5-9.6,5.1
		c-0.6,0.3-7.3,5.8-6.3,6.1c-0.4-0.1,1.1-3.6,1.3-4c1.2-1.9,3.2-3.3,5.3-4.4c3.2-1.7,6.4-3.5,9.6-5.2
		C99.2,146.2,102.7,143.9,106.5,142.7C106.3,141.9,104.2,143.4,106.5,142.7z"/>
	<path class="st3" d="M130.5,158.3c-0.4,0-8.5,5.4-8.6,2.2c0.5,0.5,4-0.4,4.2-1.1c-0.5,0-0.5-0.1-0.2-0.4c0.3,0.1,0.5,0.2,0.5,0.5
		c0.9-0.4,1.6-1.2,2.4-1.7c0.9-0.5,2-0.7,2.9-1.2c1.7-0.9,3.8-3,5.3-3.4c0.6-0.2,2,0.1,2.5,0.5c1.6,1.2-0.3,1.9-1.7,2.2
		c-0.9,0.2-4.7,1.2-4.5,1.9c-0.7-0.7-2.1,1.3-2.9,1.4c-0.3-0.1,0.5-0.5,0.4-0.7C130.8,158.5,130.6,158.4,130.5,158.3
		C130.2,158.3,131.8,158.6,130.5,158.3z"/>
	<path class="st3" d="M146.3,166.3c-2.6,1.2-7.4,0.6-8.2-2.6c1.9,0.1,2.8,2.2,5,1.7c1.5-0.4,6.5-1.5,7.1-3.1c0.3-0.7,3.7-2,4.4-2.4
		c2.3-1.1,5.1-1.5,7.5-2.7c1.9-0.9,4.4,0.8,1.9,1.5c-2.2,0.6-4.6,2-6.7,2.9c-1,0.4-2,0.3-2.9,0.7c-1.2,0.5-2.1,1.5-3.4,1.9
		c-1.4,0.5-2.4,1.4-3.4,1.9c-0.3-0.9-2.4-0.3-2.4,0.5C145.7,166.4,146,166.3,146.3,166.3C143.5,167.7,145.9,166.3,146.3,166.3z"/>
	<path class="st3" d="M120.4,168.4c-0.7,1.6-2.5,3.1-3.1,4.6c-0.2,0.5-0.3,1.2-0.8,1.6c-0.8,0.5-0.4,0.9-1,1.9
		c-1,1.7-1.6,3.2-2.8,4.8c-0.7,0.8-1.4,1.7-2.3,2.3c-0.5,0.8-0.6,2.1-1.7,2.4c-1.3-2.6,4.2-7.9,5.3-10.3c0.9-2,2-3.7,3.1-5.6
		c1.4-2.5-3.1-3.2-4.8-3.9c-3.6-1.3-7-3.3-10.5-4.4c-2.9-0.9-6.9-1.5-10.1-2.2c-0.6-0.1-5.1-0.7-4.6-1.2c0.8-0.9,3.4-0.6,4.4-0.4
		c2.1,0.2,5.1,0.5,7.5,1c4,0.9,7.8,2.5,11.7,4c1.8,0.7,3.5,1.8,5.3,2.3C118.2,166,118.6,166.9,120.4,168.4
		C119.7,170,119.5,167.6,120.4,168.4z"/>
	<path class="st3" d="M140.3,177.8c0.2-0.1,0.3-0.3,0.5-0.5c0-0.2-1.5,0.1-1.7,0c0.2,0.2,0.4,0.3,0.7,0.2c-0.5,0.7-3.1,1-3.8,0.8
		c0.3,0.1,0.3,0.3,0,0.4c-1.1-0.3-1.4,0.7-2.4,0.5c0.1-0.2,0.3-0.3,0.5-0.2c0,0.1-5.4,0.7-5.3,1.4c-0.3-0.1-0.5-0.2-0.7-0.5
		c-0.3,1.3-5.3,1.6-6.2,2.2c-2.4,1.5-6.5,3.9-9.4,2.9c0.4-1.8,3.6-1.8,5-2.6c1.1-0.7,2.6-1.8,4.1-2.4c4.2-1.8,8.8-2.1,13.2-3
		c5.1-1.1,9.9-2.1,15.2-2.1c2.3,0,5.7,0.1,4.5,2.7c-1.1,2.5,0.6,5.4,0.6,7.9c1.6,0,2.6-3.6,4.2-4c0.9-0.2,1-1.5,1.6-2
		c0.8-1,2.2-2.1,3.4-2.5c2.4-0.7,4.2-2.7,5.7-4.5c0.4-0.5,1.7-2.9,2.1-2.8c0.6,2.4-1.8,5.7-3.4,7.3c-1.5,1.4-3.5,2.4-5.2,3.5
		c-1.6,1.1-3,3.1-4.4,4.5c-1.8,2-2.8,3.4-4.4,5.5c-1.4,1.9-2-5.1-2.1-5.5c-0.7-2.7-1.7-4.9-0.7-7.8c-2.4-0.5-6.3-0.5-8.2-0.5
		C143.3,176.8,141.5,177.6,140.3,177.8C140.4,177.5,141.3,177.6,140.3,177.8z"/>
	<path class="st3" d="M118.5,82.7c1.9-0.9,3.2,1.2,5,1c-0.2,0.2-0.4,0.3-0.7,0.2c0.9,1.7,8.5,2.6,10.1,2.6c2,0,8.5-0.9,7.4,2.2
		c-4.3,0.4-8.5,0.1-12.6-1c-2.1-0.6-4.3-2-6.2-3.1C121.1,84.3,118.9,82.7,118.5,82.7C120.5,81.8,119.1,82.7,118.5,82.7z"/>
	<path class="st3" d="M234.2,91.6c1.2-0.2-0.5,2.3-0.7,2.6c-1.2,1.5-3,2.4-4.2,3.8c-2.5,2.8-5.2,4.3-8.3,6.2c-1.9,1.2-3.8,2.7-5.6,4
		c-1.6,1.2-3.3,1.6-4.7,2.7c-1.8,1.5-3.9,2.8-5.9,4.1c-2.1,1.3-3.7,3.5-5.5,4.8c-4.6,3.2-6.5,9-8.8,13.9c-0.5,1.1-1.9,2.4-1.7,3.7
		c-1.5,1.6-2.3-0.7-1.9-1.9c0.7-2.3,2.3-5.8,3.6-7.9c1-1.6,1.8-3.2,2.9-4.8c1.1-1.6,2-2.3,3.4-3.6c1.5-1.5,2.9-3.1,4.7-4.9
		c1.7-1.7,3.9-2.7,6-3.9c3.4-2,6.4-4.3,9.6-6.3c1.2-0.8,2.3-1.9,3.4-2.6c1.8-1,3.7-1.3,5.4-2.7c1.7-1.3,3.3-2.7,4.9-4
		C231.8,93.9,233.8,92.9,234.2,91.6C234.5,91.6,234,92.3,234.2,91.6z"/>
	<path class="st3" d="M148.7,113c-1.5-0.5-3.2-1-3.1-2.9c0.8,0.1,1.2,0.9,1.9,1.2c1.4,0.5,3,0.5,4.4,0.6c1.2,0,2.3,0.1,3.5,0.3
		c1.3,0.3,1.7-0.7,2.7-0.4c0.7,0.6,0.3,2,0,2.6c-0.6,1.2-2.5,0.3-3.3-0.5c-0.8,0-6.7-1.3-6.2-1.9C148.7,112.4,148.7,112.7,148.7,113
		C147.3,112.5,148.9,112.2,148.7,113z"/>
	<path class="st3" d="M266.6,121.1c-0.5,1.8-4.7,2.9-6.2,3.6c-2.8,1.2-5.8,2.2-8.6,3.1c-3.1,1-6.2,2.2-9.4,3.2
		c-2.6,0.9-5.7,1.1-8.2,2c-13.2,5.3-25.9,10.9-38.6,16.6c1,2.6,5.4,5.3,7.9,6.5c1.2,0.6,6.7,3.7,4.4,5.3c-1.3,0.9-3.4,0.8-4.9,1.4
		c-1.6,0.7-3.3,1.6-5.1,1.3c-1.7-0.3-1.5-2.9,0.3-2.5c2,0.4,4.3-1.3,6.2-1.9c-0.6-1.4-2.5-1.6-3.6-2.4c-1.7-1.3-3-2.1-4.6-3.6
		c-1-1-2.1-2.7-2.7-4c-1.1-2.2,0.2-2.2,1.9-2.8c7.4-2.8,14.1-6.6,21.4-9.5c3.4-1.4,6.9-2.8,10.5-4c2.1-0.7,4-1.6,6-2.5
		c1.1-0.5,5.2-2.2,6.3-1.9c1.5,0.4,3.8-0.9,5.3-1.4c2.9-0.8,5.7-1.7,8.6-2.5C257.7,124,262.2,121.1,266.6,121.1
		C266.1,122.7,266.4,121.1,266.6,121.1z"/>
</g>
</svg>
