<?xml version="1.0" encoding="utf-8"?>
<!-- Generator: Adobe Illustrator 14.0.0, SVG Export Plug-In . SVG Version: 6.00 Build 43363)  -->
<!DOCTYPE svg PUBLIC "-//W3C//DTD SVG 1.1//EN" "http://www.w3.org/Graphics/SVG/1.1/DTD/svg11.dtd">
<svg version="1.1" id="Layer_1" xmlns="http://www.w3.org/2000/svg" xmlns:xlink="http://www.w3.org/1999/xlink" x="0px" y="0px"
	 width="300px" height="252px" viewBox="0 0 300 252" enable-background="new 0 0 300 252" xml:space="preserve">
<g>
	<path fill-rule="evenodd" clip-rule="evenodd" fill="#E8ECEE" d="M43.171,153.04c-5.616-4.214-7.773-13.414-0.54-17.776
		c5.833-3.515,14.996-0.134,12.467-11.31c-8.227-2.212-27.807-10.056-21.707-22.538c0.949-1.944,5.36-1.148,6.898-3.379
		c1.942-2.815,1.115-8.511,1.262-11.794c0.43-9.57-1.65-19.251,4.818-27.412c6.035-7.616,9.737-5.319,17.396-5.966
		c12.319-1.04,15.423-7.445,23.153-16.394c5.929-6.863,11.78-9.084,19.912-4.902c5.52,2.84,7.688,11.063,15.288,10.569
		c12.271-0.795,15.174-20.136,23.471-26.381c9.002-6.773,17.042-10.729,26.95-8.669c6.15,1.279,4.339,2.547,11.48,1.36
		c7.214-1.201,14.5-8.144,22.391-5.964c8.7,2.403,9.486,8.855,10.288,15.976c1.243,11.047,4.527,22.397,16.47,27.253
		c8.94,3.634,17.758-0.857,22.708,9.093c2.4,4.82-0.661,9.31,0.53,14.426c2.839,12.205,20.229,3.79,21.619,20.332
		c0.584,6.986-11.451,13.679-9.819,20.226c1.545,6.21,9.245,1.673,13.907,3.173c7.878,2.532,7.541,6.382,8.752,14.897
		c1.993,13.993-8.884,11.255-13.713,23.004c-2.857,6.956,3.27,13.944,0.117,20.444c-2.125,4.378-9.732,4.267-7.997,11.611
		c1.076,4.55,6.916,6.354,10.739,7.486c6.176,1.833,10.661-0.059,14.214,7.818c1.552,3.446,1.794,9.52-0.318,12.303
		c-6.974,9.188-29.878,1.91-39.435,2.583c-0.684,10.449,1.045,17.551-5.603,24.794c-14.356,15.643-32.907-10.931-50.461-2.71
		c-5.251,2.459-9.043,9.217-14.371,12.215c-15.213,8.556-33.528-6.113-38.343-21.27c-3.219-10.136-2.24-21.856-17.993-18.139
		c-0.797,6.05-9.739,7.611-14.936,7.334c-7.639-0.408-12.211-7.701-20.658-8.597c-14.274-1.511-22.64,31.874-35.563,17.219
		c-10.978-12.449,8.838-21.491,4.906-32.768c-1.794-5.143-12.063-8.224-10.303-14.77c1.698-6.32,14.544-5.737,15.517-12.643
		C67.83,155.495,48.555,157.079,43.171,153.04"/>
	<path fill-rule="evenodd" clip-rule="evenodd" fill="#FFFFFF" d="M192.326,51.877c3.008-6.021,7.154-15.472,3.887-21.642
		c-3.284-6.2-12.468-11.029-19.271-11.418c-9.669-0.551-16.958-0.067-23.94,6.43c-8.546,7.952-8.615,19.113-4.116,29.962
		c3.817,9.208,15.676,17.301,26.242,12.338c1.638-0.77,6.665,11.911,6.992,13.128c1.958,7.245-0.917,9.11-3.699,15.38
		c-2.183,4.914-1.575,10.215-5.49,14.338c-3.913,4.12-12.205,9.88-17.479,12.046c-13.171-4.729-24.763-9.111-36.929-0.563
		c-1.264-3.671-6.378-6.023-7.301-9.399c-1.236-4.51,5.652-7.472,5.646-12.603c12.254-1.954,26.076,2.21,38.65,1.322
		c3.711-0.262,13.438-0.241,15.909-3.387c5.67-7.226-18.38-7.097-23.693-7.395c-9.734-0.55-21.055,2.044-30.296-1.717
		c0.165-8.256-2.066-13.127-10.452-16.351c-8.239-3.168-14.545-3.547-22.54,0.676c-8.165,4.311-11.017,11.424-12.123,19.506
		c-1.383,10.135,2.694,22.554,12.928,24.585c3.257,0.647,7.458-0.421,10.05,0.525c2.38,0.866,4.161,3.238,6.027,4.852
		c1.211,1.048,5.764,3.652,6.519,5.176c1.93,3.896-3.432,11.943-3.94,16.344c-0.625,5.4-0.699,11.242,0.162,16.626
		c0.86,5.362,4.844,11.419-0.812,15.11c-3.84,2.506-10.051,1.184-14.359,1.385c-8.317,0.386-13.501,3.308-15.686,11.476
		c-2.225,8.314-1.819,17.407,4.28,23.58c6.265,6.336,12.19,7.93,21.33,6.486c6.919-1.093,15.433-7.394,17.069-15.005
		c1.567-7.293-6.212-11.376-5.423-17.071c1.083-7.805,8.113-5.064,13.29-3.66c6.923,1.88,14.72,2.433,21.716,0.094
		c5.497-1.835,9.776-8.01,14.871-10.842c0.507,8.723,14.265,16.9,19.281,22.313c1.158,1.249,5.119,4.588,5.265,6.21
		c0.244,2.771-3.957,6.639-4.385,10.117c-2.045,16.665,28.221,46.017,41.601,26.454c4.6-6.727,5.703-17.49,0.72-23.86
		c-2.969-3.792-4.236-2.098-3.621-6.927c0.513-4.02,5.141-9.525,7.337-12.744c5.574-8.167,12.385-16.251,17.966-23.84
		c2.071-2.813,8.324-7.563,6.229-11.268c-1.724-3.052-6.542-2.63-8.626-1.107c-5.584,4.079-8.863,14.206-13.053,19.569
		c-4.728,6.057-9.273,15.728-15.227,20.022c-5.209-7.04-15.707-5.555-22.604-2.295c-1.415-3.517-7.363-9.849-10.095-12.517
		c-2.104-2.058-14.807-8.739-15.581-11.622c-0.957-3.565,5.5-9.199,5.652-13.924c0.225-6.838-1.712-12.774-4.771-18.523
		c-1.252-2.352-3.366-0.825-2.95-4.102c0.3-2.38,3.858-3.134,5.379-4.439c2.687-2.302,5.512-5.185,7.903-7.916
		c2.712-3.093,3.348-5.593,7.519-5.049c3.794,0.493,6.822,4.626,10.438,5.997c3.63,1.375,7.994,1.659,11.826,1.216
		c2.084-0.242,21.895-9.725,16.9-13.18c5.423,3.75,9.862,6.032,10.8,12.577c1.089,7.607-1.609,13.555,2.973,20.194
		c9.465,13.709,27.989,18.411,40.383,5.324c4.55-4.804,5.311-15.2,6.146-21.441c0.872-6.5-1.312-10.361-6.459-14.043
		c-8.026-5.742-35.689-13.32-38.968,2.155c-6.036-1.827-8.846-9.14-15.448-10.172c-0.769-4.277,1.117-8.318,0.469-12.806
		c-0.679-4.724-3.11-7.093-6-10.707c2.518-3.422,6.532-11.729,11.202-12.211c1.391-0.145,4.043,1.838,5.485,2.217
		c2.969,0.781,6.917,0.917,9.983,1.356c6.425,0.924,16.946,3.86,23.042-0.625c7.493-5.515,12.808-20.103,8.108-29.188
		c-5.692-11.006-22.97-25.995-35.346-19.93c-7.272,3.566-14.094,10.036-17.431,16.992c-3.073,6.412,0.571,13.175-1.177,19.181
		c-1.453,4.984-8.808,12.647-12.905,13.051c-2.554,0.252-5.504-1.139-8.403-0.87c-3.862,0.358-6.991,2.21-10.757,2.791
		c-0.849-4.663-6.604-5.057-6.76-10.888C186.513,62.236,190.308,55.928,192.326,51.877"/>
	<path fill-rule="evenodd" clip-rule="evenodd" fill="#A6D1A8" d="M157.495,31.779c-3.502,3.469-3.491,11.032-3.645,15.599
		c-0.331,9.846,7.328,20.382,17.361,21.69c6.329,0.825,11.331-2.002,15.552-6.723c5.049-5.645,6.151-10.833,6.979-17.909
		c0.38-3.225-0.124-7.221-2.117-9.863c-0.643-0.854-2.417-2.184-3.297-3.23c-0.68-0.811-1.693-2.275-2.602-2.839
		C177.938,23.687,164.208,25.126,157.495,31.779"/>
	<path fill-rule="evenodd" clip-rule="evenodd" fill="#A6D1A8" d="M266.855,57.111c7.246-24.724-34.849-29.129-42.645-8.523
		c-4.105,10.851,3.895,19.129,14.39,21.182C250.928,72.179,263.23,69.484,266.855,57.111"/>
	<path fill-rule="evenodd" clip-rule="evenodd" fill="#A6D1A8" d="M203.569,123.367c10.435-0.633,20.879-8.054,21.311-18.781
		c0.652-16.35-25.334-33.497-38.666-20.057c-5.247,5.286-3.528,14.792-2.85,21.385C184.519,117.123,191.498,124.1,203.569,123.367"
		/>
	<path fill-rule="evenodd" clip-rule="evenodd" fill="#B0A8D3" d="M241.551,137.199c-0.447,7.09,3.169,13.786,13.416,16.562
		c3.267,0.883,9.769,0.46,12.909-0.736c3.472-1.325,10.294-7.982,12.221-10.996c4.103-6.405-0.425-14.858-4.394-20.18
		C262.756,104.478,242.524,121.764,241.551,137.199"/>
	<path fill-rule="evenodd" clip-rule="evenodd" fill="#A4D2EB" d="M165.167,151.333c-3.286-26.896-48.751-28.999-54.907-3.438
		c-3.295,13.685,9.591,32.159,23.087,34.426C154.27,185.84,167.474,170.218,165.167,151.333"/>
	<path fill-rule="evenodd" clip-rule="evenodd" fill="#F79B83" d="M92.089,113.042c21.759,4.217,34.634-25.395,14.254-36.825
		c-9.804-5.499-22.165,0.985-26.101,10.985C76.052,97.847,80.646,110.824,92.089,113.042"/>
	<path fill-rule="evenodd" clip-rule="evenodd" fill="#A4D2EB" d="M190.677,233.712c8.297,5.078,21.664,0.868,26.825-7.311
		c5.712-9.055,3.604-25.045-6.169-29.569C188.341,186.188,169.199,220.562,190.677,233.712"/>
	<path fill-rule="evenodd" clip-rule="evenodd" fill="#A4D2EB" d="M98.904,230.367c22.095-4.85,16.879-43.542-4.521-43.811
		C69.05,186.242,70.595,236.583,98.904,230.367"/>
	<path fill-rule="evenodd" clip-rule="evenodd" fill="#E8ECEE" d="M11.642,117.123c3.255,7.552,21.37,2.916,14.563-6.103
		C22.021,105.475,8.247,109.245,11.642,117.123"/>
	<path fill-rule="evenodd" clip-rule="evenodd" fill="#757F92" d="M117.045,95.159c-0.142-2.124,11.47-1.171,12.999-1.419
		c5.388-0.887,11.247-0.947,16.708-0.774c5.776,0.182,11.584,0.223,17.355,0.307c2.484,0.035,11.72-1.528,13.152,2.262
		c-4.904,0.33-10.026,0.075-14.943-0.259c-5.135-0.349-10.18-0.023-15.301-0.124c-5.067-0.101-10.192,0.039-15.231,0.528
		c-2.692,0.262-5.33,0.317-8.037,0.17C122.487,95.783,117.748,97.048,117.045,95.159C117.036,95.019,117.155,95.452,117.045,95.159"
		/>
	<path fill-rule="evenodd" clip-rule="evenodd" fill="#757F92" d="M212.656,205.307c-1.798-1.912,2.695-6.64,3.708-8.044
		c2.566-3.562,4.89-7.288,7.234-11.001c5.266-8.332,10.602-16.687,17.335-23.932c1.477,1.748-2.553,6.102-3.516,7.584
		c-2.746,4.24-5.593,8.417-8.412,12.604C227.403,184.897,213.964,206.305,212.656,205.307
		C211.36,203.931,212.725,205.358,212.656,205.307"/>
	<path fill-rule="evenodd" clip-rule="evenodd" fill="#757F92" d="M171.692,64.147c-2.03,1.806-7.006,0.727-8.73-0.536
		c-2.025-1.479-3.863-2.242-5.68-4.014c-1.877-1.831-3.556-3.562-4.674-5.766c-5.567-10.957-2.872-23.629,6.446-30.602
		c5.44-4.067,11.704-3.475,17.939-1.743c3.314,0.922,6.28,2.583,8.368,5.396c0.233,0.32,2.46,2.986,2.583,2.963
		c0.546-0.099,2.709,5.087,2.958,5.854c1.048,3.217,0.861,6.836,0.268,10.121c-0.615,3.408-2.021,6.715-4.005,9.558
		c-1.284,1.842-4.14,6.475-6.704,5.416c0.333,1.031-0.623,0.578-1.032,1.032c1.041,3.404,4.277,5.993,5.159,9.284
		c0.364,1.376,3.251,6.817,4.856,6.023c2.606-1.288,4.789-2.271,7.778-2.671c2.71-0.361,8.766-0.348,10.976,1.293
		c0.479,0.357,1.48,0.565,1.917,0.771c2.61,1.235,4.854-1.517,6.606-3.238c2.322-2.274,4.572-4.624,6.828-6.963
		c1.518-1.577,3.244-4.394,5.133-5.271c1.611-0.743,1.63,1.593,1.009,2.597c-1.283,2.064-3.466,3.949-5.148,5.677
		c-1.395,1.43-2.932,2.774-4.399,4.168c-1.459,1.379-4.275,3.25-5.126,5.095c4.133,2.924,6.271,6.868,7.53,11.935
		c0.72,2.908-0.408,6.84-1.313,9.133c-0.769,1.949,0.007,4.583-1.834,6.267c1.9,3.18,6.104,3.854,8.427,6.012
		c2.15,1.999,14.329,7.007,12.203,10.493c-0.021-0.049-2.752-1.524-2.765-1.533c-1.129-0.729-2.226-1.139-2.907-1.82
		c-1.665-1.666-5.001-3.545-7.299-4.849c-1.759-0.999-3.209-2.333-4.938-3.356c-2.05-1.212-3.017-2.745-4.783-1.336
		c-0.35,0.352-0.623,0.757-0.817,1.217c-0.513,1.171-1.062,1.115-1.991,2.099c-0.22,0.233-1.901,2.106-1.834,1.067
		c0.22-0.03-1.541,1.293-1.369,1.211c-1.061,0.506-2.044,1.152-3.201,1.442c-0.036,0.01-4.089,1.771-3.683,0.442
		c-1.756,2.061-4.102,0.184-5.932,0c-0.315-0.031-0.109,1.128-0.773,0.515c-0.764-0.651-2.246-0.953-3.171-1.358
		c-1.665-0.733-2.57-0.875-4.027-1.851c-0.823-0.549-4.066-4.205-1.005-3.352c2.078,0.58,4.421,2.492,6.397,3.468
		c7.267,3.571,17.603-1.073,21.142-7.738c2.25-4.236,3.851-9.746,3.059-14.586c-0.413-2.534-1.381-5.04-2.723-7.224
		c-1.585-2.575-3.51-3.42-5.859-4.8c-5.318-3.119-13.515-3.84-18.97-1.24c-6.71,3.18-10.84,9.545-11.348,17.277
		c-0.214,3.244,0.873,6,2.063,8.51c1.008,2.131-1.642,1.49-1.657,1.354c-0.063-0.614-0.646-0.243-0.921-0.579
		c-0.658-0.802-1.057-2.64-1.505-3.603c-2.889-6.169,0.847-15.494,4.855-20.124c0.695-0.802,1.859-1.323,2.321-2.321
		c-0.434-1.239-0.96-2.437-1.546-3.609c-0.862-1.725-1.945-3.396-2.888-5.109c-1.167-2.12-8.609-11.49-6.139-13.717
		c1.268-0.107,1.593,1.771,2.063,2.579c1.234,2.117,3.574-0.896,4.641-2.321c1.561-2.084,3.447-4.065,4.59-6.56
		c3.145-6.887,2.743-15.707-2.916-21.202c-2.768-2.684-4.995-4.234-8.378-6.021c-0.587-0.197-3.236,0.663-2.642-0.654
		c0.619-1.361-4.632-0.931-5.444-0.837c-6.481,0.753-14.954,6.172-14.351,13.612c-0.174-0.123-0.313-0.277-0.417-0.461
		c-0.677-0.188-0.208,0.857,0.158,0.976c-0.077,0.5-0.772,0.2-0.772,1.032c0.286,0.082,0.42-0.054,0.396-0.404
		c0.459,0.151-1.16,4.361-1.169,4.015c0.118,0.366,0.376,0.538,0.772,0.516c-0.125,0.36-0.383,0.533-0.772,0.516
		c1.055,0.771-0.14,2.599,0.421,3.275c0.517,0.624-0.218,1.615,0.608,2.397c0.049,1.954,0.879,3.74,1.806,5.417
		c1.672,3.022,3.856,5.118,6.422,7.363C164.029,62.958,167.977,62.571,171.692,64.147C171.312,64.486,168.647,62.855,171.692,64.147
		"/>
	<path fill-rule="evenodd" clip-rule="evenodd" fill="#757F92" d="M110.833,168.849c-2.323-0.011-4.432-4.958-5.158-6.447
		c-2.549-5.242-3.329-9.741-2.321-15.473c1.59-9.056,6.379-14.944,13.925-20.116c-0.274-0.511-0.707-0.765-1.298-0.765
		c-1.23-0.258-1.797-1.722-2.57-2.612c-1.325-1.528-2.612-3.034-3.869-4.617c-1.709-2.159-3.702-5.204-5.673-7.479
		c-1.131-1.304-7.547-8.858-5.932-10.832c1.569-1.92,5.687,6.682,6.706,7.994c4.168,5.369,9.094,10.2,12.636,15.731
		c1.362,2.125,1.465,1.82,3.529,0.443c0.531-0.355,1.807-0.99,2.403-1.217c2.197-0.838,5.166-0.795,7.155-1.737
		c3.19-1.512,6.861,0.142,10.036-0.671c1.383-0.355,9.718,2.441,9.886,4.473c2.28,0.265,5.489,2.967,7.205,4.471
		c1.431,1.258,3.285-1.556,4.464-2.765c1.584-1.623,3.425-2.613,5.026-4.271c2.865-2.963,6.797-5.72,10.124-8.267
		c2.411-1.838,4.552-4.29,7.481-5.674c0.752,2.486-3.159,4.896-4.902,5.674c-0.444,0.35-0.789,0.779-1.029,1.289
		c-1.312,0.132-2.138,1.333-3.095,2.063c-0.956,0.726-1.882,1.341-2.839,2.063c-1.84,1.389-3.405,2.577-5.277,4.333
		c-0.857,0.805-5.211,3.437-5.031,4.442c0.017,0.092-1.959,1.957-2.191,2.192c-1.098,0.32-1.221,0.883-0.364,1.687
		c0.606,1.188,1.202,2.387,1.776,3.594c0.761,1.599,1.153,2.641,1.546,4.126c0.875,3.274,0.837,6.562,0.863,9.86
		c0.021,2.792-1.25,9.494-4.195,10.398c-2.963,0.907-0.598-1.633-0.276-2.465c0.539-2.312,1.453-4.525,1.879-6.866
		c0.771-4.262-0.207-8.869-1.879-12.735c-1.271-2.945-2.818-5.593-5.674-7.735c-1.581-1.183-4.216-3.692-6.475-4.246
		c-2.751-0.676-5.032-2.281-8.029-2.739c-4.266-0.653-8.371,0.619-12.54,1.333c-4.413,0.753-7.655,4.342-11.462,5.663
		c-1.144,0.399-5.589,4.164-5.335,5.405c-0.498,0.015-0.603-0.359-1.032,0c0.311,0.162,0.485,0.42,0.516,0.771
		c-0.386,0.085-0.695,0.276-0.929,0.58c0.123-0.109,0.204-0.084,0.248,0.068c-0.186,0.494-0.474,0.536-0.866,0.127
		c0.617,0.506-0.816,0.833,0,1.547c-1.296-0.21-1.735,5.049-2.579,5.673c0.056,0.338,0.514-0.142,0.421,0.149
		c-1.105,3.452-1.583,8.376-0.315,11.956C106.304,159.432,112.279,167.198,110.833,168.849
		C109.253,168.843,112.105,167.396,110.833,168.849"/>
	<path fill-rule="evenodd" clip-rule="evenodd" fill="#757F92" d="M100.001,184.577c-1.51-0.341-3.421-0.785-4.642-1.029
		c-1.466-0.288-3.39-0.254-5.048-0.381c-2.069-0.152-6.031,1.203-8.104,2.186c-3.536,1.674-6.478,4.176-8.001,8.19
		c-0.944,2.482-1.238,4.29-1.25,6.977c-0.006,1.139,0.381,2.482-0.242,3.039c-0.588,0.529,1.563,5.498,2,6.297
		c0.86,1.574,2.375,4.313,4.022,5.149c0.658,0.331,1.182,1.314,1.924,1.808c1.837,1.226,3.445,2.422,5.438,3.348
		c4.043,1.872,10.791,3.202,14.746,0.595c4.59-3.023,7.297-6.668,10.245-11.419c2.508-4.034,1.709-10.958-0.425-14.917
		c-0.832-1.543-2.314-3.075-2.963-4.635c-0.383-0.919-0.072-2.176,1.154-1.845c1.156,0.316,1.759,1.67,2.297,2.606
		c2.29,3.994,3.691,7.589,3.364,12.533c-0.276,4.18-1.25,8.222-3.684,11.413c-5.375,7.037-12.607,12.192-22.047,9.158
		c-4.499-1.445-8.096-3.076-11.673-6.404c-1.458-1.356-5.043-5.042-5.079-7.081c-0.019-1.063-1.025-3.45-1.456-4.496
		c-0.667-1.618,0.012-4.736,0.144-6.489c0.249-3.319,1.282-8.142,3.896-10.362c6.271-5.327,14.224-9.171,23.221-7.29
		c0.688,0.144,3.195,1.022,3.195,2.021C101.033,183.782,99.735,184.507,100.001,184.577
		C98.369,184.208,100.354,184.676,100.001,184.577"/>
	<path fill-rule="evenodd" clip-rule="evenodd" fill="#757F92" d="M242.353,70.079c0.032-0.005-1.002-0.685-0.99-0.466
		c0.037,0.684-6.467,0.687-7.52,0.466c-0.236-0.049-2.591-0.659-2.717-1.037c-0.237-0.714-3-3.5,0.211-2.528
		c7.021,2.121,12.941,1.238,19.285-2.495c5.721-3.366,7.505-12.481,5.915-18.181c-1.136-4.083-3.023-8.169-6.82-10.169
		c-0.675-0.421-1.317-0.88-1.935-1.381c-1.313-0.919-2.696-0.625-4.14-1.086c-0.706-0.223-1.503-0.513-1.29-1.29
		c-0.346-0.045-2.878-0.373-2.836,0.258c-1.488-1.407-1.313,0.69-2.581,0.516c0.191-0.246,0.361-0.505,0.518-0.774
		c-0.839-0.116-1.475,0.421-2.321,0.258c0.74,1.485-4.902,1.685-5.673,3.868c-0.202-0.109-0.289-0.279-0.258-0.515
		c-0.854,0.73-1.451,1.32-1.894,1.974c-0.299,0.439-0.515,1.251-0.945,1.637c-0.19-0.115-0.277-0.288-0.257-0.517
		c-1.008-0.286-1.273,3.254-2.33,3.087c-1.3-0.205-2.889,6.679-2.904,7.62c-0.062,3.702,0.873,7.692,2.773,10.844
		c0.665,1.098-0.228,3.634-0.765,2.306c-0.527-1.304-1.026-1.223-1.656-2.455c-1.604-3.151-2.105-6.417-2.141-9.917
		c-0.02-1.713-0.051-3.401,0.964-4.781c0.663-0.904,1.386-3.905,2.454-4.262c0.534-0.177,0.053-0.891,0.758-1.288
		c1.448-0.815,2.221-3.156,3.62-4.251c1.816-1.428,3.812-3.373,5.812-4.031c0.327-0.107,1.439-0.484,1.528-0.568
		c1.16-1.124,6.124-0.946,7.621-0.815c2.646,0.235,6.027,1.522,8.251,2.837c3.04,1.798,7.085,5.843,8.253,10.058
		c1.492,5.344,1.197,12.282-1.768,16.802c-0.704,1.072-1.667,4.28-3.068,4.582c-0.653,0.141-2.193,1.708-2.968,2.09
		c-0.246,0.121-3.025,1.708-3.173,1.446c0.162,0.288-0.281-1.131-0.521-0.541c-0.504,1.23-0.718,1.24-1.988,1.916
		c-0.572,0.374-1.147,0.376-1.731,0.008C242.671,69.667,243.172,69.93,242.353,70.079C241.221,70.266,243.189,69.927,242.353,70.079
		"/>
	<path fill-rule="evenodd" clip-rule="evenodd" fill="#757F92" d="M107.738,104.377c-1.897-1.729,0.405-2.977,1.417-4.098
		c1.595-1.765,3.001-3.42,3.814-5.7c0.874-2.447,1.246-5.179,1.09-7.771c-0.151-2.529-1.933-4.717-2.061-6.963
		c-0.114-2.009-4.466-6.287-5.995-6.656c-3.46-0.838-6.415-1.916-9.856-2.212c-7.721-0.668-15.528,3.404-18.115,11.372
		c-0.952,2.933-1.993,5.17-1.828,8.25c0.105,1.947,0.187,3.872,0.752,5.754c0.203,0.676,1.438,3.067,1.33,3.545
		c-0.505,2.25,3.654,3.92,4.867,5.047c2.699,2.51,9.496,2.351,12.976,2.98c2.091,0.379,1.843,2.354-0.269,2.322
		c-2.687-0.039-5.426-0.638-8.025-1.28c-8.267-2.042-13.743-7.818-14.167-17.118c-0.379-8.373,3.654-16.997,11.118-21.256
		c6.791-3.849,16.3-2.782,23.209,0.773c5.125,2.632,8.118,9.802,8.511,15.473c0.252,3.46-0.521,7.662-2.218,10.813
		C113.245,99.592,110.422,104.643,107.738,104.377C106.797,103.521,109.468,104.548,107.738,104.377"/>
	<path fill-rule="evenodd" clip-rule="evenodd" fill="#757F92" d="M237.71,125.266c0.984-0.438-0.237,5.106-0.257,5.932
		c-0.126,5.268,2.908,12.615,6.498,16.438c7.085,7.543,21.345,9.825,28.609,1.483c8.362-9.599,8.083-23.078-0.881-32.229
		c-4.628-4.724-13.358-5.245-19.525-3.229c-2.874,0.938-5.885,2.508-7.479,4.642c-0.563,0.751-2.345,0.944-1.672-0.762
		c0.458-1.163,1.691-2.569,2.794-3.116c2.253-1.114,4.802-2.208,7.211-2.917c2.688-0.792,4.998-0.324,7.713-0.479
		c2.592-0.145,4.731,0.064,7.186,0.839c2.362,0.748,3.599,2.813,5.664,3.73c0.438,0.195,1.296,2.026,1.801,1.928
		c0.585-0.112,2.149,3.389,2.467,3.891c1.682,2.651,2.545,5.7,2.97,8.792c1.282,9.314-3.24,20.716-12.219,24.896
		c-5.654,2.629-11.318,2.094-17.047,0.141c-4.334-1.472-7.102-4.066-9.962-6.885c-2.325-2.295-4.799-7.543-5.673-11.233
		C235.614,135.907,235.107,123.863,237.71,125.266C238.688,124.833,236.719,124.731,237.71,125.266"/>
	<path fill-rule="evenodd" clip-rule="evenodd" fill="#757F92" d="M151.579,160.338c1.396,0.196,4.254,4.576,5.238,5.673
		c2.066,2.31,4.256,4.703,6.498,6.83c1.512,1.437,3.036,3.139,4.253,4.518c-0.119,0.155-0.206,0.327-0.26,0.514
		c1.36,1.13,2.961,2.797,4.42,4.175c0.783,0.737,3.568,4.115,4.348,4.338c2.261,0.636,4.905,4.419,7.336,6.269
		c2.233,1.694,4.279,3.936,6.332,5.852c1.27,1.184,6.063,4.663,5.414,6.705c-0.773-0.079-1.009-0.321-1.288,0.516
		c-1.255-0.434-1.629-1.792-2.578-2.579c-1.913,1.894-4.674,6.657-4.325,9.07c0.17,1.178-0.701,1.956-0.832,3.048
		c-0.161,1.341-0.025,2.758,0.116,4.088c0.158,1.454,0.828,3.183,1.464,4.629c4.11,9.333,15.433,16.223,25.54,11.988
		c4.684-1.963,8.322-7.034,10.016-11.677c1.879-5.168-0.251-11.241-2.839-15.732c-2.012-3.481-4.605-5.888-8.191-7.926
		c-2.395-1.358-5.809-2.294-8.561-1.716c-3.067,0.644-7.245,2.307-10.324,1.391c-0.021-2.441,5.636-3.058,7.219-3.352
		c3.527-0.655,6.665-0.338,10.17,0.136c1.854,0.247,4.658,2.581,6.337,3.731c2.429,1.667,3.987,4.177,5.464,6.632
		c4.018,6.691,4.839,14.077,1.402,21.066c-0.604,1.232-4.871,7.977-6.609,7.629c-0.255-0.05-3.919,2.356-5.049,2.588
		c-3.602,0.73-6.995,0.394-10.584,0.136c-4.521-0.322-7.421-3.831-10.413-5.815c-4.905-3.256-7.601-11.125-7.017-16.778
		c0.251-2.449,0.322-3.583,1.084-6.174c0.427-1.453,2.372-8.477,4.385-8.253c-0.241-1.514-3.517-3.881-4.562-5.036
		c-2.033-2.259-4.492-4.319-6.783-6.309c-3.467-3.013-7.472-6.474-10.574-9.542c-3.799-3.741-7.469-9.034-11.349-12.12
		C155.051,167.716,147.742,160.135,151.579,160.338C152.406,160.453,150.943,160.304,151.579,160.338"/>
	<path fill-rule="evenodd" clip-rule="evenodd" fill="#757F92" d="M152.093,169.619c0.81,3.542-2.787,5.191-4.666,7.303
		c-2.522,2.84-7.307,3.269-10.996,3.277c-4.391,0.011-7.893-0.911-12.122-1.797c-1.418-0.3-2.717-0.91-4.164-1.263
		c-2.675-0.654-2.48-1.191-2.351-3.394c2.166-0.249,4.463,1.41,6.542,1.872c2.051,0.454,3.891,1.312,6,1.604
		c3.617,0.505,7.134,0.231,10.692-0.196c2.67-0.321,5.236-2.332,7.258-4.056C149.539,171.904,149.795,169.619,152.093,169.619
		C152.365,170.813,151.921,169.619,152.093,169.619"/>
	<path fill-rule="evenodd" clip-rule="evenodd" fill="#757F92" d="M98.196,191.8c-0.476-1.287,3.441-5.24,4.126-6.189
		c1.796-2.482,4.308-7.493,7.22-8.768c0.123-2.188,3.047-4.637,4.002-6.244c0.768-1.295,2.006-2.122,2.533-3.404
		c0.655-1.602,3.183-2.138,2.502,0.221c-0.408,1.406-1.901,2.193-2.565,3.456c-0.405,0.774-0.986,1.516-1.83,2.877
		c-0.471,0.761-0.896,1.335-1.805,1.548c-0.124,0.176-1.152,1.844-1.162,1.927c-0.088,0.678-2.208,2.81-2.706,3.229
		c-0.696,0.59-1.245,1.488-2.047,2.513c-1.469,1.876-2.618,3.676-3.997,5.575C101.587,189.758,100.099,192.454,98.196,191.8
		C97.874,190.929,99.772,192.342,98.196,191.8"/>
	<path fill-rule="evenodd" clip-rule="evenodd" fill="#E8ECEE" d="M43.171,153.04c-5.616-4.214-7.773-13.414-0.54-17.776
		c5.833-3.515,14.996-0.134,12.467-11.31c-8.227-2.212-27.807-10.056-21.707-22.538c0.949-1.944,5.36-1.148,6.898-3.379
		c1.942-2.815,1.115-8.511,1.262-11.794c0.43-9.57-1.65-19.251,4.818-27.412c6.035-7.616,9.737-5.319,17.396-5.966
		c12.319-1.04,15.423-7.445,23.153-16.394c5.929-6.863,11.78-9.084,19.912-4.902c5.52,2.84,7.688,11.063,15.288,10.569
		c12.271-0.795,15.174-20.136,23.471-26.381c9.002-6.773,17.042-10.729,26.95-8.669c6.15,1.279,4.339,2.547,11.48,1.36
		c7.214-1.201,14.5-8.144,22.391-5.964c8.7,2.403,9.486,8.855,10.288,15.976c1.243,11.047,4.527,22.397,16.47,27.253
		c8.94,3.634,17.758-0.857,22.708,9.093c2.4,4.82-0.661,9.31,0.53,14.426c2.839,12.205,20.229,3.79,21.619,20.332
		c0.584,6.986-11.451,13.679-9.819,20.226c1.545,6.21,9.245,1.673,13.907,3.173c7.878,2.532,7.541,6.382,8.752,14.897
		c1.993,13.993-8.884,11.255-13.713,23.004c-2.857,6.956,3.27,13.944,0.117,20.444c-2.125,4.378-9.732,4.267-7.997,11.611
		c1.076,4.55,6.916,6.354,10.739,7.486c6.176,1.833,10.661-0.059,14.214,7.818c1.552,3.446,1.794,9.52-0.318,12.303
		c-6.974,9.188-29.878,1.91-39.435,2.583c-0.684,10.449,1.045,17.551-5.603,24.794c-14.356,15.643-32.907-10.931-50.461-2.71
		c-5.251,2.459-9.043,9.217-14.371,12.215c-15.213,8.556-33.528-6.113-38.343-21.27c-3.219-10.136-2.24-21.856-17.993-18.139
		c-0.797,6.05-9.739,7.611-14.936,7.334c-7.639-0.408-12.211-7.701-20.658-8.597c-14.274-1.511-22.64,31.874-35.563,17.219
		c-10.978-12.449,8.838-21.491,4.906-32.768c-1.794-5.143-12.063-8.224-10.303-14.77c1.698-6.32,14.544-5.737,15.517-12.643
		C67.83,155.495,48.555,157.079,43.171,153.04"/>
	<path fill-rule="evenodd" clip-rule="evenodd" fill="#FFFFFF" d="M192.326,51.877c3.008-6.021,7.154-15.472,3.887-21.642
		c-3.284-6.2-12.468-11.029-19.271-11.418c-9.669-0.551-16.958-0.067-23.94,6.43c-8.546,7.952-8.615,19.113-4.116,29.962
		c3.817,9.208,15.676,17.301,26.242,12.338c1.638-0.77,6.665,11.911,6.992,13.128c1.958,7.245-0.917,9.11-3.699,15.38
		c-2.183,4.914-1.575,10.215-5.49,14.338c-3.913,4.12-12.205,9.88-17.479,12.046c-13.171-4.729-24.763-9.111-36.929-0.563
		c-1.264-3.671-6.378-6.023-7.301-9.399c-1.236-4.51,5.652-7.472,5.646-12.603c12.254-1.954,26.076,2.21,38.65,1.322
		c3.711-0.262,13.438-0.241,15.909-3.387c5.67-7.226-18.38-7.097-23.693-7.395c-9.734-0.55-21.055,2.044-30.296-1.717
		c0.165-8.256-2.066-13.127-10.452-16.351c-8.239-3.168-14.545-3.547-22.54,0.676c-8.165,4.311-11.017,11.424-12.123,19.506
		c-1.383,10.135,2.694,22.554,12.928,24.585c3.257,0.647,7.458-0.421,10.05,0.525c2.38,0.866,4.161,3.238,6.027,4.852
		c1.211,1.048,5.764,3.652,6.519,5.176c1.93,3.896-3.432,11.943-3.94,16.344c-0.625,5.4-0.699,11.242,0.162,16.626
		c0.86,5.362,4.844,11.419-0.812,15.11c-3.84,2.506-10.051,1.184-14.359,1.385c-8.317,0.386-13.501,3.308-15.686,11.476
		c-2.225,8.314-1.819,17.407,4.28,23.58c6.265,6.336,12.19,7.93,21.33,6.486c6.919-1.093,15.433-7.394,17.069-15.005
		c1.567-7.293-6.212-11.376-5.423-17.071c1.083-7.805,8.113-5.064,13.29-3.66c6.923,1.88,14.72,2.433,21.716,0.094
		c5.497-1.835,9.776-8.01,14.871-10.842c0.507,8.723,14.265,16.9,19.281,22.313c1.158,1.249,5.119,4.588,5.265,6.21
		c0.244,2.771-3.957,6.639-4.385,10.117c-2.045,16.665,28.221,46.017,41.601,26.454c4.6-6.727,5.703-17.49,0.72-23.86
		c-2.969-3.792-4.236-2.098-3.621-6.927c0.513-4.02,5.141-9.525,7.337-12.744c5.574-8.167,12.385-16.251,17.966-23.84
		c2.071-2.813,8.324-7.563,6.229-11.268c-1.724-3.052-6.542-2.63-8.626-1.107c-5.584,4.079-8.863,14.206-13.053,19.569
		c-4.728,6.057-9.273,15.728-15.227,20.022c-5.209-7.04-15.707-5.555-22.604-2.295c-1.415-3.517-7.363-9.849-10.095-12.517
		c-2.104-2.058-14.807-8.739-15.581-11.622c-0.957-3.565,5.5-9.199,5.652-13.924c0.225-6.838-1.712-12.774-4.771-18.523
		c-1.252-2.352-3.366-0.825-2.95-4.102c0.3-2.38,3.858-3.134,5.379-4.439c2.687-2.302,5.512-5.185,7.903-7.916
		c2.712-3.093,3.348-5.593,7.519-5.049c3.794,0.493,6.822,4.626,10.438,5.997c3.63,1.375,7.994,1.659,11.826,1.216
		c2.084-0.242,21.895-9.725,16.9-13.18c5.423,3.75,9.862,6.032,10.8,12.577c1.089,7.607-1.609,13.555,2.973,20.194
		c9.465,13.709,27.989,18.411,40.383,5.324c4.55-4.804,5.311-15.2,6.146-21.441c0.872-6.5-1.312-10.361-6.459-14.043
		c-8.026-5.742-35.689-13.32-38.968,2.155c-6.036-1.827-8.846-9.14-15.448-10.172c-0.769-4.277,1.117-8.318,0.469-12.806
		c-0.679-4.724-3.11-7.093-6-10.707c2.518-3.422,6.532-11.729,11.202-12.211c1.391-0.145,4.043,1.838,5.485,2.217
		c2.969,0.781,6.917,0.917,9.983,1.356c6.425,0.924,16.946,3.86,23.042-0.625c7.493-5.515,12.808-20.103,8.108-29.188
		c-5.692-11.006-22.97-25.995-35.346-19.93c-7.272,3.566-14.094,10.036-17.431,16.992c-3.073,6.412,0.571,13.175-1.177,19.181
		c-1.453,4.984-8.808,12.647-12.905,13.051c-2.554,0.252-5.504-1.139-8.403-0.87c-3.862,0.358-6.991,2.21-10.757,2.791
		c-0.849-4.663-6.604-5.057-6.76-10.888C186.513,62.236,190.308,55.928,192.326,51.877"/>
	<path fill-rule="evenodd" clip-rule="evenodd" fill="#A6D1A8" d="M157.495,31.779c-3.502,3.469-3.491,11.032-3.645,15.599
		c-0.331,9.846,7.328,20.382,17.361,21.69c6.329,0.825,11.331-2.002,15.552-6.723c5.049-5.645,6.151-10.833,6.979-17.909
		c0.38-3.225-0.124-7.221-2.117-9.863c-0.643-0.854-2.417-2.184-3.297-3.23c-0.68-0.811-1.693-2.275-2.602-2.839
		C177.938,23.687,164.208,25.126,157.495,31.779"/>
	<path fill-rule="evenodd" clip-rule="evenodd" fill="#A6D1A8" d="M266.855,57.111c7.246-24.724-34.849-29.129-42.645-8.523
		c-4.105,10.851,3.895,19.129,14.39,21.182C250.928,72.179,263.23,69.484,266.855,57.111"/>
	<path fill-rule="evenodd" clip-rule="evenodd" fill="#A6D1A8" d="M203.569,123.367c10.435-0.633,20.879-8.054,21.311-18.781
		c0.652-16.35-25.334-33.497-38.666-20.057c-5.247,5.286-3.528,14.792-2.85,21.385C184.519,117.123,191.498,124.1,203.569,123.367"
		/>
	<path fill-rule="evenodd" clip-rule="evenodd" fill="#B0A8D3" d="M241.551,137.199c-0.447,7.09,3.169,13.786,13.416,16.562
		c3.267,0.883,9.769,0.46,12.909-0.736c3.472-1.325,10.294-7.982,12.221-10.996c4.103-6.405-0.425-14.858-4.394-20.18
		C262.756,104.478,242.524,121.764,241.551,137.199"/>
	<path fill-rule="evenodd" clip-rule="evenodd" fill="#A4D2EB" d="M165.167,151.333c-3.286-26.896-48.751-28.999-54.907-3.438
		c-3.295,13.685,9.591,32.159,23.087,34.426C154.27,185.84,167.474,170.218,165.167,151.333"/>
	<path fill-rule="evenodd" clip-rule="evenodd" fill="#F79B83" d="M92.089,113.042c21.759,4.217,34.634-25.395,14.254-36.825
		c-9.804-5.499-22.165,0.985-26.101,10.985C76.052,97.847,80.646,110.824,92.089,113.042"/>
	<path fill-rule="evenodd" clip-rule="evenodd" fill="#A4D2EB" d="M190.677,233.712c8.297,5.078,21.664,0.868,26.825-7.311
		c5.712-9.055,3.604-25.045-6.169-29.569C188.341,186.188,169.199,220.562,190.677,233.712"/>
	<path fill-rule="evenodd" clip-rule="evenodd" fill="#A4D2EB" d="M98.904,230.367c22.095-4.85,16.879-43.542-4.521-43.811
		C69.05,186.242,70.595,236.583,98.904,230.367"/>
	<path fill-rule="evenodd" clip-rule="evenodd" fill="#E8ECEE" d="M11.642,117.123c3.255,7.552,21.37,2.916,14.563-6.103
		C22.021,105.475,8.247,109.245,11.642,117.123"/>
	<path fill-rule="evenodd" clip-rule="evenodd" fill="#757F92" d="M117.045,95.159c-0.142-2.124,11.47-1.171,12.999-1.419
		c5.388-0.887,11.247-0.947,16.708-0.774c5.776,0.182,11.584,0.223,17.355,0.307c2.484,0.035,11.72-1.528,13.152,2.262
		c-4.904,0.33-10.026,0.075-14.943-0.259c-5.135-0.349-10.18-0.023-15.301-0.124c-5.067-0.101-10.192,0.039-15.231,0.528
		c-2.692,0.262-5.33,0.317-8.037,0.17C122.487,95.783,117.748,97.048,117.045,95.159C117.036,95.019,117.155,95.452,117.045,95.159"
		/>
	<path fill-rule="evenodd" clip-rule="evenodd" fill="#757F92" d="M212.656,205.307c-1.798-1.912,2.695-6.64,3.708-8.044
		c2.566-3.562,4.89-7.288,7.234-11.001c5.266-8.332,10.602-16.687,17.335-23.932c1.477,1.748-2.553,6.102-3.516,7.584
		c-2.746,4.24-5.593,8.417-8.412,12.604C227.403,184.897,213.964,206.305,212.656,205.307
		C211.36,203.931,212.725,205.358,212.656,205.307"/>
	<path fill-rule="evenodd" clip-rule="evenodd" fill="#757F92" d="M171.692,64.147c-2.03,1.806-7.006,0.727-8.73-0.536
		c-2.025-1.479-3.863-2.242-5.68-4.014c-1.877-1.831-3.556-3.562-4.674-5.766c-5.567-10.957-2.872-23.629,6.446-30.602
		c5.44-4.067,11.704-3.475,17.939-1.743c3.314,0.922,6.28,2.583,8.368,5.396c0.233,0.32,2.46,2.986,2.583,2.963
		c0.546-0.099,2.709,5.087,2.958,5.854c1.048,3.217,0.861,6.836,0.268,10.121c-0.615,3.408-2.021,6.715-4.005,9.558
		c-1.284,1.842-4.14,6.475-6.704,5.416c0.333,1.031-0.623,0.578-1.032,1.032c1.041,3.404,4.277,5.993,5.159,9.284
		c0.364,1.376,3.251,6.817,4.856,6.023c2.606-1.288,4.789-2.271,7.778-2.671c2.71-0.361,8.766-0.348,10.976,1.293
		c0.479,0.357,1.48,0.565,1.917,0.771c2.61,1.235,4.854-1.517,6.606-3.238c2.322-2.274,4.572-4.624,6.828-6.963
		c1.518-1.577,3.244-4.394,5.133-5.271c1.611-0.743,1.63,1.593,1.009,2.597c-1.283,2.064-3.466,3.949-5.148,5.677
		c-1.395,1.43-2.932,2.774-4.399,4.168c-1.459,1.379-4.275,3.25-5.126,5.095c4.133,2.924,6.271,6.868,7.53,11.935
		c0.72,2.908-0.408,6.84-1.313,9.133c-0.769,1.949,0.007,4.583-1.834,6.267c1.9,3.18,6.104,3.854,8.427,6.012
		c2.15,1.999,14.329,7.007,12.203,10.493c-0.021-0.049-2.752-1.524-2.765-1.533c-1.129-0.729-2.226-1.139-2.907-1.82
		c-1.665-1.666-5.001-3.545-7.299-4.849c-1.759-0.999-3.209-2.333-4.938-3.356c-2.05-1.212-3.017-2.745-4.783-1.336
		c-0.35,0.352-0.623,0.757-0.817,1.217c-0.513,1.171-1.062,1.115-1.991,2.099c-0.22,0.233-1.901,2.106-1.834,1.067
		c0.22-0.03-1.541,1.293-1.369,1.211c-1.061,0.506-2.044,1.152-3.201,1.442c-0.036,0.01-4.089,1.771-3.683,0.442
		c-1.756,2.061-4.102,0.184-5.932,0c-0.315-0.031-0.109,1.128-0.773,0.515c-0.764-0.651-2.246-0.953-3.171-1.358
		c-1.665-0.733-2.57-0.875-4.027-1.851c-0.823-0.549-4.066-4.205-1.005-3.352c2.078,0.58,4.421,2.492,6.397,3.468
		c7.267,3.571,17.603-1.073,21.142-7.738c2.25-4.236,3.851-9.746,3.059-14.586c-0.413-2.534-1.381-5.04-2.723-7.224
		c-1.585-2.575-3.51-3.42-5.859-4.8c-5.318-3.119-13.515-3.84-18.97-1.24c-6.71,3.18-10.84,9.545-11.348,17.277
		c-0.214,3.244,0.873,6,2.063,8.51c1.008,2.131-1.642,1.49-1.657,1.354c-0.063-0.614-0.646-0.243-0.921-0.579
		c-0.658-0.802-1.057-2.64-1.505-3.603c-2.889-6.169,0.847-15.494,4.855-20.124c0.695-0.802,1.859-1.323,2.321-2.321
		c-0.434-1.239-0.96-2.437-1.546-3.609c-0.862-1.725-1.945-3.396-2.888-5.109c-1.167-2.12-8.609-11.49-6.139-13.717
		c1.268-0.107,1.593,1.771,2.063,2.579c1.234,2.117,3.574-0.896,4.641-2.321c1.561-2.084,3.447-4.065,4.59-6.56
		c3.145-6.887,2.743-15.707-2.916-21.202c-2.768-2.684-4.995-4.234-8.378-6.021c-0.587-0.197-3.236,0.663-2.642-0.654
		c0.619-1.361-4.632-0.931-5.444-0.837c-6.481,0.753-14.954,6.172-14.351,13.612c-0.174-0.123-0.313-0.277-0.417-0.461
		c-0.677-0.188-0.208,0.857,0.158,0.976c-0.077,0.5-0.772,0.2-0.772,1.032c0.286,0.082,0.42-0.054,0.396-0.404
		c0.459,0.151-1.16,4.361-1.169,4.015c0.118,0.366,0.376,0.538,0.772,0.516c-0.125,0.36-0.383,0.533-0.772,0.516
		c1.055,0.771-0.14,2.599,0.421,3.275c0.517,0.624-0.218,1.615,0.608,2.397c0.049,1.954,0.879,3.74,1.806,5.417
		c1.672,3.022,3.856,5.118,6.422,7.363C164.029,62.958,167.977,62.571,171.692,64.147C171.312,64.486,168.647,62.855,171.692,64.147
		"/>
	<path fill-rule="evenodd" clip-rule="evenodd" fill="#757F92" d="M110.833,168.849c-2.323-0.011-4.432-4.958-5.158-6.447
		c-2.549-5.242-3.329-9.741-2.321-15.473c1.59-9.056,6.379-14.944,13.925-20.116c-0.274-0.511-0.707-0.765-1.298-0.765
		c-1.23-0.258-1.797-1.722-2.57-2.612c-1.325-1.528-2.612-3.034-3.869-4.617c-1.709-2.159-3.702-5.204-5.673-7.479
		c-1.131-1.304-7.547-8.858-5.932-10.832c1.569-1.92,5.687,6.682,6.706,7.994c4.168,5.369,9.094,10.2,12.636,15.731
		c1.362,2.125,1.465,1.82,3.529,0.443c0.531-0.355,1.807-0.99,2.403-1.217c2.197-0.838,5.166-0.795,7.155-1.737
		c3.19-1.512,6.861,0.142,10.036-0.671c1.383-0.355,9.718,2.441,9.886,4.473c2.28,0.265,5.489,2.967,7.205,4.471
		c1.431,1.258,3.285-1.556,4.464-2.765c1.584-1.623,3.425-2.613,5.026-4.271c2.865-2.963,6.797-5.72,10.124-8.267
		c2.411-1.838,4.552-4.29,7.481-5.674c0.752,2.486-3.159,4.896-4.902,5.674c-0.444,0.35-0.789,0.779-1.029,1.289
		c-1.312,0.132-2.138,1.333-3.095,2.063c-0.956,0.726-1.882,1.341-2.839,2.063c-1.84,1.389-3.405,2.577-5.277,4.333
		c-0.857,0.805-5.211,3.437-5.031,4.442c0.017,0.092-1.959,1.957-2.191,2.192c-1.098,0.32-1.221,0.883-0.364,1.687
		c0.606,1.188,1.202,2.387,1.776,3.594c0.761,1.599,1.153,2.641,1.546,4.126c0.875,3.274,0.837,6.562,0.863,9.86
		c0.021,2.792-1.25,9.494-4.195,10.398c-2.963,0.907-0.598-1.633-0.276-2.465c0.539-2.312,1.453-4.525,1.879-6.866
		c0.771-4.262-0.207-8.869-1.879-12.735c-1.271-2.945-2.818-5.593-5.674-7.735c-1.581-1.183-4.216-3.692-6.475-4.246
		c-2.751-0.676-5.032-2.281-8.029-2.739c-4.266-0.653-8.371,0.619-12.54,1.333c-4.413,0.753-7.655,4.342-11.462,5.663
		c-1.144,0.399-5.589,4.164-5.335,5.405c-0.498,0.015-0.603-0.359-1.032,0c0.311,0.162,0.485,0.42,0.516,0.771
		c-0.386,0.085-0.695,0.276-0.929,0.58c0.123-0.109,0.204-0.084,0.248,0.068c-0.186,0.494-0.474,0.536-0.866,0.127
		c0.617,0.506-0.816,0.833,0,1.547c-1.296-0.21-1.735,5.049-2.579,5.673c0.056,0.338,0.514-0.142,0.421,0.149
		c-1.105,3.452-1.583,8.376-0.315,11.956C106.304,159.432,112.279,167.198,110.833,168.849
		C109.253,168.843,112.105,167.396,110.833,168.849"/>
	<path fill-rule="evenodd" clip-rule="evenodd" fill="#757F92" d="M100.001,184.577c-1.51-0.341-3.421-0.785-4.642-1.029
		c-1.466-0.288-3.39-0.254-5.048-0.381c-2.069-0.152-6.031,1.203-8.104,2.186c-3.536,1.674-6.478,4.176-8.001,8.19
		c-0.944,2.482-1.238,4.29-1.25,6.977c-0.006,1.139,0.381,2.482-0.242,3.039c-0.588,0.529,1.563,5.498,2,6.297
		c0.86,1.574,2.375,4.313,4.022,5.149c0.658,0.331,1.182,1.314,1.924,1.808c1.837,1.226,3.445,2.422,5.438,3.348
		c4.043,1.872,10.791,3.202,14.746,0.595c4.59-3.023,7.297-6.668,10.245-11.419c2.508-4.034,1.709-10.958-0.425-14.917
		c-0.832-1.543-2.314-3.075-2.963-4.635c-0.383-0.919-0.072-2.176,1.154-1.845c1.156,0.316,1.759,1.67,2.297,2.606
		c2.29,3.994,3.691,7.589,3.364,12.533c-0.276,4.18-1.25,8.222-3.684,11.413c-5.375,7.037-12.607,12.192-22.047,9.158
		c-4.499-1.445-8.096-3.076-11.673-6.404c-1.458-1.356-5.043-5.042-5.079-7.081c-0.019-1.063-1.025-3.45-1.456-4.496
		c-0.667-1.618,0.012-4.736,0.144-6.489c0.249-3.319,1.282-8.142,3.896-10.362c6.271-5.327,14.224-9.171,23.221-7.29
		c0.688,0.144,3.195,1.022,3.195,2.021C101.033,183.782,99.735,184.507,100.001,184.577
		C98.369,184.208,100.354,184.676,100.001,184.577"/>
	<path fill-rule="evenodd" clip-rule="evenodd" fill="#757F92" d="M242.353,70.079c0.032-0.005-1.002-0.685-0.99-0.466
		c0.037,0.684-6.467,0.687-7.52,0.466c-0.236-0.049-2.591-0.659-2.717-1.037c-0.237-0.714-3-3.5,0.211-2.528
		c7.021,2.121,12.941,1.238,19.285-2.495c5.721-3.366,7.505-12.481,5.915-18.181c-1.136-4.083-3.023-8.169-6.82-10.169
		c-0.675-0.421-1.317-0.88-1.935-1.381c-1.313-0.919-2.696-0.625-4.14-1.086c-0.706-0.223-1.503-0.513-1.29-1.29
		c-0.346-0.045-2.878-0.373-2.836,0.258c-1.488-1.407-1.313,0.69-2.581,0.516c0.191-0.246,0.361-0.505,0.518-0.774
		c-0.839-0.116-1.475,0.421-2.321,0.258c0.74,1.485-4.902,1.685-5.673,3.868c-0.202-0.109-0.289-0.279-0.258-0.515
		c-0.854,0.73-1.451,1.32-1.894,1.974c-0.299,0.439-0.515,1.251-0.945,1.637c-0.19-0.115-0.277-0.288-0.257-0.517
		c-1.008-0.286-1.273,3.254-2.33,3.087c-1.3-0.205-2.889,6.679-2.904,7.62c-0.062,3.702,0.873,7.692,2.773,10.844
		c0.665,1.098-0.228,3.634-0.765,2.306c-0.527-1.304-1.026-1.223-1.656-2.455c-1.604-3.151-2.105-6.417-2.141-9.917
		c-0.02-1.713-0.051-3.401,0.964-4.781c0.663-0.904,1.386-3.905,2.454-4.262c0.534-0.177,0.053-0.891,0.758-1.288
		c1.448-0.815,2.221-3.156,3.62-4.251c1.816-1.428,3.812-3.373,5.812-4.031c0.327-0.107,1.439-0.484,1.528-0.568
		c1.16-1.124,6.124-0.946,7.621-0.815c2.646,0.235,6.027,1.522,8.251,2.837c3.04,1.798,7.085,5.843,8.253,10.058
		c1.492,5.344,1.197,12.282-1.768,16.802c-0.704,1.072-1.667,4.28-3.068,4.582c-0.653,0.141-2.193,1.708-2.968,2.09
		c-0.246,0.121-3.025,1.708-3.173,1.446c0.162,0.288-0.281-1.131-0.521-0.541c-0.504,1.23-0.718,1.24-1.988,1.916
		c-0.572,0.374-1.147,0.376-1.731,0.008C242.671,69.667,243.172,69.93,242.353,70.079C241.221,70.266,243.189,69.927,242.353,70.079
		"/>
	<path fill-rule="evenodd" clip-rule="evenodd" fill="#757F92" d="M107.738,104.377c-1.897-1.729,0.405-2.977,1.417-4.098
		c1.595-1.765,3.001-3.42,3.814-5.7c0.874-2.447,1.246-5.179,1.09-7.771c-0.151-2.529-1.933-4.717-2.061-6.963
		c-0.114-2.009-4.466-6.287-5.995-6.656c-3.46-0.838-6.415-1.916-9.856-2.212c-7.721-0.668-15.528,3.404-18.115,11.372
		c-0.952,2.933-1.993,5.17-1.828,8.25c0.105,1.947,0.187,3.872,0.752,5.754c0.203,0.676,1.438,3.067,1.33,3.545
		c-0.505,2.25,3.654,3.92,4.867,5.047c2.699,2.51,9.496,2.351,12.976,2.98c2.091,0.379,1.843,2.354-0.269,2.322
		c-2.687-0.039-5.426-0.638-8.025-1.28c-8.267-2.042-13.743-7.818-14.167-17.118c-0.379-8.373,3.654-16.997,11.118-21.256
		c6.791-3.849,16.3-2.782,23.209,0.773c5.125,2.632,8.118,9.802,8.511,15.473c0.252,3.46-0.521,7.662-2.218,10.813
		C113.245,99.592,110.422,104.643,107.738,104.377C106.797,103.521,109.468,104.548,107.738,104.377"/>
	<path fill-rule="evenodd" clip-rule="evenodd" fill="#757F92" d="M237.71,125.266c0.984-0.438-0.237,5.106-0.257,5.932
		c-0.126,5.268,2.908,12.615,6.498,16.438c7.085,7.543,21.345,9.825,28.609,1.483c8.362-9.599,8.083-23.078-0.881-32.229
		c-4.628-4.724-13.358-5.245-19.525-3.229c-2.874,0.938-5.885,2.508-7.479,4.642c-0.563,0.751-2.345,0.944-1.672-0.762
		c0.458-1.163,1.691-2.569,2.794-3.116c2.253-1.114,4.802-2.208,7.211-2.917c2.688-0.792,4.998-0.324,7.713-0.479
		c2.592-0.145,4.731,0.064,7.186,0.839c2.362,0.748,3.599,2.813,5.664,3.73c0.438,0.195,1.296,2.026,1.801,1.928
		c0.585-0.112,2.149,3.389,2.467,3.891c1.682,2.651,2.545,5.7,2.97,8.792c1.282,9.314-3.24,20.716-12.219,24.896
		c-5.654,2.629-11.318,2.094-17.047,0.141c-4.334-1.472-7.102-4.066-9.962-6.885c-2.325-2.295-4.799-7.543-5.673-11.233
		C235.614,135.907,235.107,123.863,237.71,125.266C238.688,124.833,236.719,124.731,237.71,125.266"/>
	<path fill-rule="evenodd" clip-rule="evenodd" fill="#757F92" d="M151.579,160.338c1.396,0.196,4.254,4.576,5.238,5.673
		c2.066,2.31,4.256,4.703,6.498,6.83c1.512,1.437,3.036,3.139,4.253,4.518c-0.119,0.155-0.206,0.327-0.26,0.514
		c1.36,1.13,2.961,2.797,4.42,4.175c0.783,0.737,3.568,4.115,4.348,4.338c2.261,0.636,4.905,4.419,7.336,6.269
		c2.233,1.694,4.279,3.936,6.332,5.852c1.27,1.184,6.063,4.663,5.414,6.705c-0.773-0.079-1.009-0.321-1.288,0.516
		c-1.255-0.434-1.629-1.792-2.578-2.579c-1.913,1.894-4.674,6.657-4.325,9.07c0.17,1.178-0.701,1.956-0.832,3.048
		c-0.161,1.341-0.025,2.758,0.116,4.088c0.158,1.454,0.828,3.183,1.464,4.629c4.11,9.333,15.433,16.223,25.54,11.988
		c4.684-1.963,8.322-7.034,10.016-11.677c1.879-5.168-0.251-11.241-2.839-15.732c-2.012-3.481-4.605-5.888-8.191-7.926
		c-2.395-1.358-5.809-2.294-8.561-1.716c-3.067,0.644-7.245,2.307-10.324,1.391c-0.021-2.441,5.636-3.058,7.219-3.352
		c3.527-0.655,6.665-0.338,10.17,0.136c1.854,0.247,4.658,2.581,6.337,3.731c2.429,1.667,3.987,4.177,5.464,6.632
		c4.018,6.691,4.839,14.077,1.402,21.066c-0.604,1.232-4.871,7.977-6.609,7.629c-0.255-0.05-3.919,2.356-5.049,2.588
		c-3.602,0.73-6.995,0.394-10.584,0.136c-4.521-0.322-7.421-3.831-10.413-5.815c-4.905-3.256-7.601-11.125-7.017-16.778
		c0.251-2.449,0.322-3.583,1.084-6.174c0.427-1.453,2.372-8.477,4.385-8.253c-0.241-1.514-3.517-3.881-4.562-5.036
		c-2.033-2.259-4.492-4.319-6.783-6.309c-3.467-3.013-7.472-6.474-10.574-9.542c-3.799-3.741-7.469-9.034-11.349-12.12
		C155.051,167.716,147.742,160.135,151.579,160.338C152.406,160.453,150.943,160.304,151.579,160.338"/>
	<path fill-rule="evenodd" clip-rule="evenodd" fill="#757F92" d="M152.093,169.619c0.81,3.542-2.787,5.191-4.666,7.303
		c-2.522,2.84-7.307,3.269-10.996,3.277c-4.391,0.011-7.893-0.911-12.122-1.797c-1.418-0.3-2.717-0.91-4.164-1.263
		c-2.675-0.654-2.48-1.191-2.351-3.394c2.166-0.249,4.463,1.41,6.542,1.872c2.051,0.454,3.891,1.312,6,1.604
		c3.617,0.505,7.134,0.231,10.692-0.196c2.67-0.321,5.236-2.332,7.258-4.056C149.539,171.904,149.795,169.619,152.093,169.619
		C152.365,170.813,151.921,169.619,152.093,169.619"/>
	<path fill-rule="evenodd" clip-rule="evenodd" fill="#757F92" d="M98.196,191.8c-0.476-1.287,3.441-5.24,4.126-6.189
		c1.796-2.482,4.308-7.493,7.22-8.768c0.123-2.188,3.047-4.637,4.002-6.244c0.768-1.295,2.006-2.122,2.533-3.404
		c0.655-1.602,3.183-2.138,2.502,0.221c-0.408,1.406-1.901,2.193-2.565,3.456c-0.405,0.774-0.986,1.516-1.83,2.877
		c-0.471,0.761-0.896,1.335-1.805,1.548c-0.124,0.176-1.152,1.844-1.162,1.927c-0.088,0.678-2.208,2.81-2.706,3.229
		c-0.696,0.59-1.245,1.488-2.047,2.513c-1.469,1.876-2.618,3.676-3.997,5.575C101.587,189.758,100.099,192.454,98.196,191.8
		C97.874,190.929,99.772,192.342,98.196,191.8"/>
</g>
</svg>
