<?xml version="1.0" encoding="utf-8"?>
<!-- Generator: Adobe Illustrator 23.1.0, SVG Export Plug-In . SVG Version: 6.00 Build 0)  -->
<svg version="1.1" id="Layer_1" xmlns="http://www.w3.org/2000/svg" xmlns:xlink="http://www.w3.org/1999/xlink" x="0px" y="0px"
	 viewBox="0 0 450 200" style="enable-background:new 0 0 450 200;" xml:space="preserve">
<style type="text/css">
	.st0{fill:#D9E0EC;}
	.st1{opacity:0.17;fill:#F8ED33;enable-background:new    ;}
	.st2{opacity:0.2;fill:#FCEE23;enable-background:new    ;}
	.st3{opacity:0.2;fill:#F8ED33;enable-background:new    ;}
	.st4{fill:#FFFFFF;}
	.st5{fill:#6C96BE;}
	.st6{fill:#00588E;}
	.st7{fill:none;stroke:#FFFFFF;stroke-width:5.54;stroke-miterlimit:10;}
	.st8{fill:#FEE600;}
	.st9{fill:#F89521;}
	.st10{opacity:0.51;fill:#FFFFFF;enable-background:new    ;}
	.st11{fill:#595A5C;}
</style>
<g>
	<g id="LOGO_TYPE">
		<path class="st0" d="M285.74,155.35c1.04,0.9,2.22,1.64,3.49,2.18c-1.57,1.5-0.76,3.75,0.53,5.66c2.38,3.5,9.58,8.34,13.41,8.13
			c2.43-0.13,1.5-1.48,3.11-1.54c7.36-0.31,4.34,13.79,15.76,10.11c2.82-0.91,1.28-3.13,3.74-3.89c1.81-0.56,3.21,0.47,4.94,0.51
			s2.68-1,4-1.83s2.18-0.83,3.91-0.79c3.18,0.08,8,2.43,10-0.62c0,0.06,9,3,11.15,1.48c1.32-0.9,1.33-2.62,2.49-3.59
			c1.78-1.49,4.17-0.91,6.47-0.87c3.06,0.05,6.33-0.32,8.86-2.18c1.74-1.28,2.61-6.43,4.28-7.83c3.33-2.79,8.17,0.17,10.12-4.2
			c0.88-2-0.45-4.72-0.17-6.23l-106.09-2.09c0.1,1-0.91,2.69-1,4.25C284.68,153.21,285.03,154.39,285.74,155.35z"/>
		<path class="st1" d="M372.96,57.31c0,22.03-17.85,39.88-39.88,39.88s-39.88-17.85-39.88-39.88s17.85-39.88,39.88-39.88
			c22.02-0.01,39.87,17.84,39.88,39.86C372.96,57.3,372.96,57.31,372.96,57.31z"/>
		<circle class="st2" cx="333.08" cy="57.3" r="26.21"/>
		<polygon class="st3" points="321.04,51.08 279.49,30.52 279.49,76.21 320.07,62.08 		"/>
		<polygon class="st3" points="345.79,51.32 387.49,30.52 387.49,76.21 346.23,61.86 		"/>
		<path class="st4" d="M397.83,112.49l-3.38-6.16l-11.75-5.66l-17.72,0.36l-15.32-13.36v-1.32l-2.62,0.52l-2.63-0.42v1.38
			l-30.29,14.19l-16.67,2.74l-1.75,7.55l0.43,4.47l-8.89,3.26l1,23.11c-1.65,1.27-2.63,3.24-2.63,5.33
			c0.07,2.07,1.03,4.02,2.63,5.33c0.84,0.55,1.74,0.99,2.69,1.31c-1.51,1.5-0.73,3.76,0.51,5.67c2.28,3.5,9.19,8.34,12.88,8.13
			c2.33-0.14,1.44-1.48,3-1.55c7.06-0.31,4.16,13.8,15.12,10.11c2.72-0.91,1.24-3.12,3.6-3.88c1.73-0.56,3.08,0.46,4.74,0.5
			s2.58-1,3.84-1.82s2.1-0.83,3.76-0.79c3.05,0.07,7.67,2.43,9.63-0.63c0,0.06,8.63,3,10.7,1.48c1.28-0.9,1.29-2.61,2.4-3.59
			c1.7-1.49,4-0.9,6.21-0.86c2.94,0.05,6.08-0.33,8.51-2.19c1.67-1.27,2.51-6.43,4.11-7.82c3.2-2.79,8.44,0.71,10.32-3.67
			c1.44-3.36,2.05-6.07,1.81-8.07l0.48-2.84c2.03-1.44,2.52-4.25,1.08-6.29c0,0,0,0,0,0L397.83,112.49z"/>
		<polygon class="st4" points="299.35,106.76 298.04,112.43 298.67,118.29 290.58,121.18 294.98,160.92 317.04,169.99 342.2,168.54 
			351.6,168.16 371.26,160.64 388.98,149.17 395.51,112.43 392.33,108 		"/>
		<polygon class="st5" points="300.88,141.8 334.51,170.04 336.79,163.93 343.92,168.33 343.92,133.83 337.66,130.14 331.26,134.16 
			298.04,112.43 		"/>
		<polygon class="st5" points="300.88,141.8 331.26,134.16 298.04,112.43 		"/>
		<polygon class="st6" points="389.82,145.79 382.07,155.29 367.46,162.46 360.98,161.96 349.61,168.33 349.61,133.83 
			360.33,128.83 368.26,129.28 385.98,122.05 395.51,112.43 		"/>
		<polygon class="st4" points="350.76,86.85 347.32,69.68 350.11,68.38 350.11,58.41 346.26,57.04 345.79,50.45 347.93,49.45 
			334.23,40.89 334.23,39.76 333.14,38.93 331.93,39.76 331.93,40.91 317.86,49.16 320.55,50.41 320.01,57.05 316.13,58.41 
			316.13,68.38 318.79,69.62 314.2,98.37 312.48,99.81 312.48,104.4 313.1,104.67 312.85,110.8 333.71,120.65 335.35,119.86 
			350.16,127.31 367.68,118.63 367.68,102.87 371.36,101.28 		"/>
		<polygon class="st0" points="347.35,89.27 347.35,89.17 347.08,89.22 346.82,89.17 346.82,89.27 314.82,104.24 299.35,106.76 
			347.08,128.79 392.33,108 381.74,102.77 364.04,103.14 		"/>
		<rect x="290.58" y="121.18" class="st4" width="40.35" height="32.44"/>
		<polygon class="st5" points="294.98,160.92 310.49,167.04 308.79,135.8 298.21,134.96 290.42,127.24 		"/>
		<polygon class="st6" points="300.38,160.92 310.49,167.04 308.79,135.8 298.21,134.96 		"/>
		<polygon class="st6" points="334.54,170.91 327.68,165.94 315.63,171.75 313.91,136.37 326.27,130.61 331.85,134.44 		"/>
		<polygon class="st0" points="313.01,113.11 313.01,113.07 312.9,113.09 312.79,113.07 312.79,113.11 291.65,121.07 298.86,128.48 
			310.76,129.89 331.99,120.11 		"/>
		<line class="st7" x1="371.26" y1="120.67" x2="369.54" y2="161.5"/>
		<polygon class="st5" points="326.27,130.61 326.68,166.6 333.41,169.13 331.66,133.74 		"/>
		<polygon class="st6" points="328.21,144.28 326.68,166.6 333.57,169.13 332.02,140.53 		"/>
		<rect x="349.51" y="140.29" class="st5" width="8.92" height="27.88"/>
		<polygon class="st0" points="349.51,140.42 358.42,145.26 363.92,143.27 367.85,136.54 360.17,134.96 		"/>
		<polygon class="st6" points="337.66,130.14 331.66,133.74 333.96,166.43 338.85,169.02 		"/>
		<polygon class="st6" points="322.32,143.78 328.21,144.28 328.07,165.71 321.6,168.16 		"/>
		<polygon class="st5" points="382.07,155.29 376.7,156.91 371.26,160.64 372.8,127.3 385.98,122.05 		"/>
		<polygon class="st5" points="322.33,144.28 314.26,143.63 315.26,169.6 321.6,169.02 		"/>
		<path class="st4" d="M365.32,157.64c0,1.49-1.2,2.69-2.69,2.69s-2.69-1.2-2.69-2.69s1.2-2.69,2.69-2.69
			S365.32,156.16,365.32,157.64L365.32,157.64z"/>
		<path class="st4" d="M358.35,151.31c-0.79,0-1.43,0.64-1.43,1.43c0,0.79,0.64,1.43,1.43,1.43s1.43-0.64,1.43-1.43
			c0,0,0-0.01,0-0.01C359.77,151.95,359.13,151.31,358.35,151.31z"/>
		<circle class="st4" cx="389.96" cy="139.59" r="2.22"/>
		<circle class="st4" cx="327.57" cy="162.04" r="3.01"/>
		<path class="st4" d="M305.76,144.31c0,0.96-0.78,1.74-1.74,1.74c-0.96,0-1.74-0.78-1.74-1.74c0-0.96,0.78-1.74,1.74-1.74l0,0
			C304.98,142.57,305.76,143.35,305.76,144.31z"/>
		<path class="st4" d="M303.07,150.32c0,1.66-1.34,3-3,3s-3-1.34-3-3s1.34-3,3-3S303.07,148.67,303.07,150.32z"/>
		<path class="st4" d="M296.83,148.45c0.01,2.45-1.98,4.44-4.43,4.45c-2.45,0.01-4.44-1.98-4.45-4.43
			c-0.01-2.45,1.98-4.44,4.43-4.45c0.01,0,0.01,0,0.02,0C294.85,144.03,296.83,146.01,296.83,148.45z"/>
		<path class="st4" d="M337.27,161.19c0,1.22-0.98,2.2-2.2,2.2c-1.21,0-2.2-0.98-2.2-2.2c0-1.22,0.98-2.2,2.2-2.2
			S337.27,159.98,337.27,161.19C337.27,161.19,337.27,161.19,337.27,161.19z"/>
		<polygon class="st0" points="321.3,123.28 330.67,128.52 340.58,122.7 329.94,117.81 		"/>
		<polygon class="st0" points="358.13,123.28 370.44,123.27 382.85,118 392.33,108 		"/>
		<polygon class="st6" points="378.57,146.29 386.33,146.29 385.18,129.03 378.57,136.51 		"/>
		<polygon class="st0" points="385.18,129.03 372.8,134.5 378.57,136.51 382.88,134.5 		"/>
		<polygon class="st0" points="314.26,143.63 326.63,138.81 332.02,140.53 328.21,144.28 322.45,146.01 		"/>
		<polygon class="st4" points="348.16,110.48 333.52,117.56 318.82,110.27 322.04,64.13 344.07,64.13 		"/>
		<polygon class="st5" points="315.21,108.83 331.66,116.59 331.68,75.55 320.48,70.26 		"/>
		<polygon class="st6" points="351.63,108.83 335.18,116.73 334.24,75.55 345.46,70.26 		"/>
		<polygon class="st5" points="317.85,66.87 331.85,73.4 331.85,67.02 317.85,60.49 		"/>
		<polygon class="st6" points="348.21,66.87 334.21,73.4 334.21,67.02 348.21,60.49 		"/>
		<rect x="349.13" y="109.13" class="st6" width="1.85" height="1.85"/>
		<polyline class="st6" points="350.07,124.14 350.07,107.39 365.14,100.32 365.14,116.66 		"/>
		<polygon class="st6" points="326.08,113.97 320.57,111.33 321.73,97.51 327.32,100.23 		"/>
		<polyline class="st5" points="335.18,116.73 334.76,99.2 350.07,110.06 350.07,124.14 		"/>
		<polygon class="st8" points="333.05,56.03 322.23,51.02 321.68,60.34 333.08,65.33 333.08,56.02 		"/>
		<polygon class="st9" points="333.08,56 333.08,65.33 344.4,60.31 343.93,50.97 		"/>
		<path class="st10" d="M341.32,57.12c-0.01,4.56-3.7,8.25-8.26,8.24c-4.56-0.01-8.25-3.7-8.24-8.26c0.01-4.56,3.7-8.25,8.26-8.24
			c4.55,0,8.24,3.69,8.24,8.24C341.33,57.11,341.33,57.12,341.32,57.12z"/>
		<polygon class="st6" points="321.85,106.64 313.9,103.21 313.9,100.63 320.73,97.34 328.51,98.92 328.51,101.5 326.13,103.17 		
			"/>
		<polygon class="st0" points="321.85,104.06 313.9,100.63 320.73,95.62 328.51,98.92 326.13,100.58 		"/>
		<polygon class="st0" points="350.43,107.17 366.3,100.31 350.58,89.33 335.07,96.62 		"/>
		<polygon class="st0" points="359.65,114.94 356.42,116.45 356.42,108.88 359.65,107.37 		"/>
		<polygon class="st0" points="322.89,90.3 326.01,91.81 326.66,84.24 323.55,82.73 		"/>
		<path class="st4" d="M343.63,167.27c-4.13-1.52-2.85-7-7.6-5.53c-0.84,0.26-1.28,1-2.2,1.19s-1.74-0.58-2.66-0.75
			c-2.74-0.49-4.12,1.21-5.81,3c-2.16,2.31-10.16,3.2-12.44-0.78c-0.39-2.71-0.9-3.6-1.37-3.83c-3.06-1.52-4.79-0.1-7.47-4
			c-1.46-2.1-2.13-3.87-4.33-5.34c-1.37-0.91-4.68-3.08-6.57-2.11c-3.08,1.59-0.31,5.23-0.09,7.46c0.14,1.36-1.13,1.84-0.76,3.43
			c0.79,3.46,9.1,8.06,12.44,7.26c2-0.47,2.08-2,4.43-0.76s2.6,2.63,4.23,4.48c1.92,2.2,3.89,1.83,6.7,1.74
			c6-0.19,3.29,0.05,9.05-1.51c1.25-0.33,16.44,0.14,17-1.95C346.71,167.58,344.83,167.7,343.63,167.27z"/>
		<path class="st4" d="M348.71,168.62c2.72-0.58,3.85-3.66,5.27-5.77c2.66-4,3.84-2.22,7.83-2.78c2.49-0.35,3.66-2.72,5.78-3.37
			s3.64-0.31,5.2-2c2.65-2.85,5.68-11.3,10.62-10.37c0.88,0.17,1.09,1.19,2.22,1.17c0.75,0,1.24-1.19,2.11-1.17
			c4.15,0.12,2.63,8.43,0.42,8.93c-5.88,1.31-30.54,17.07-32.07,17.13"/>
		<polygon class="st6" points="344.07,48.85 333.14,41.96 321.69,48.63 333.13,53.92 		"/>
		<polygon class="st5" points="333.14,41.96 321.69,48.63 333.13,53.92 		"/>
		<path class="st11" d="M283.95,79.97c-2.86,0.01-5.18-2.31-5.19-5.17c-0.01-2.86,2.31-5.18,5.17-5.19c2.85-0.01,5.17,2.3,5.19,5.15
			c0.03,2.85-2.26,5.18-5.11,5.21C284,79.97,283.98,79.97,283.95,79.97z M283.95,70.62c-2.31-0.02-4.2,1.83-4.22,4.14
			c-0.02,2.31,1.83,4.2,4.14,4.22s4.2-1.83,4.22-4.14c0-0.03,0-0.05,0-0.08C288.08,72.48,286.24,70.63,283.95,70.62z M284.88,77.62
			l-1.56-2.41h-0.09v2.41h-1.11v-5.59c0.49-0.23,1.03-0.35,1.57-0.35c1.55,0,2.21,0.89,2.21,1.75c0,0.82-0.59,1.53-1.4,1.68
			l1.77,2.51H284.88z M283.63,72.62c-0.14,0-0.28,0.02-0.41,0.06v1.78h0.28c0.81,0,1.25-0.23,1.25-1c0-0.77-0.62-0.88-1.12-0.88
			L283.63,72.62z"/>
		<path class="st11" d="M59.92,76.08v32.52h-6.85V76.08h-6.9V71.5h20.67v4.58H59.92z"/>
		<path class="st11" d="M80.4,109.13c-8.15,0-12.08-6.47-12.08-15s3.93-15.1,12.08-15.1s12.07,6.42,12.07,15.1
			S88.54,109.13,80.4,109.13z M80.4,83.13c-4.64,0-5.56,5.33-5.56,10.89s0.99,10.64,5.56,10.64c4.69,0,5.55-5.12,5.55-10.62
			S85.1,83.15,80.4,83.15V83.13z"/>
		<path class="st11" d="M127.21,108.6h-5.93l-5-18.23c-0.33-1.21-0.53-2.46-0.59-3.72h-0.11c-0.1,1.26-0.31,2.5-0.65,3.72
			l-5.09,18.23h-6l-8.07-29.07h6.64l4.25,18.82c0.29,1.26,0.47,2.54,0.54,3.83h0.11c0.16-1.29,0.41-2.57,0.76-3.83l5.12-18.82h5.5
			l4.91,18.82c0.31,1.26,0.55,2.54,0.7,3.83h0.1c0.12-1.3,0.32-2.6,0.6-3.88l4.47-18.77h5.83L127.21,108.6z"/>
		<path class="st11" d="M156.54,108.6V88c0-2.37-1.08-4.85-5.23-4.85c-1.55-0.06-3.09,0.22-4.53,0.81v24.64h-6.58V81.1
			c3.59-1.53,7.48-2.25,11.38-2.11c8.68,0,11.54,4.21,11.54,8.9v20.71H156.54z"/>
		<path class="st11" d="M177.78,109.13c-4.42,0-7.17-0.81-9.17-2.1l1.68-4.8c1.85,1.18,4.01,1.78,6.2,1.73
			c3.66,0,5.93-2.27,5.93-5.72c0-2.8-1.62-4.53-5.77-6.25c-6-2.54-7.66-6.52-7.66-10.14c-0.14-5.88,4.52-10.76,10.4-10.9
			c0.24-0.01,0.48,0,0.71,0.01c2.86-0.14,5.7,0.6,8.14,2.1l-1.51,4.21c-1.71-1.07-3.69-1.65-5.71-1.67c-3.4,0-5.34,2.1-5.34,5.39
			s2.37,4.74,5.61,6.09c7.28,3.07,8.35,7.17,8.35,10.73C189.64,104.39,184.68,109.13,177.78,109.13z"/>
		<path class="st11" d="M206.95,109.19c-7.77,0-11.27-3.4-11.27-9.81V79.53h6.58v20.23c0,2.75,1.51,4.91,4.91,4.91
			c1.52,0.06,3.03-0.28,4.37-1V79.53h6.57v27.34C214.63,108.54,210.8,109.33,206.95,109.19z"/>
		<path class="st11" d="M228.62,74.52c-1.8-0.19-3.11-1.8-2.92-3.6c0.19-1.8,1.8-3.11,3.6-2.92c1.68,0.18,2.95,1.6,2.94,3.28
			C232.12,73.17,230.51,74.62,228.62,74.52z M225.34,108.6V79.53h6.57v29.07H225.34z"/>
		<path class="st11" d="M248.84,108.92c-5.71,0-8-3.83-8-7.87V83.76h-3.23v-4.23h3.23v-6.41l6.58-1.84v8.25h4.74v4.23h-4.74v17
			c0,2.27,0.92,3.78,3.18,3.78c0.53-0.01,1.06-0.1,1.56-0.27v4.09C251.1,108.77,249.97,108.96,248.84,108.92z"/>
		<path class="st11" d="M262.26,96.47c0.54,5.38,3.13,8.08,7.93,8.08c2.54,0.06,5.05-0.5,7.33-1.62l1.56,4.15
			c-2.97,1.48-6.27,2.19-9.59,2.05c-8.25,0-13.48-5.33-13.48-15.15c0-9.49,4.8-15,12.4-15c7.6,0,11.91,5.13,11.65,14.88
			L262.26,96.47z M268.19,83.04c-3.83,0-6.47,3.13-6.31,10.08l12-1.83C273.92,85.41,271.83,83.04,268.19,83.04L268.19,83.04z"/>
		<path class="st5" d="M190.84,144.27h-25.49v-26.51h25.49v6h-18.36v4.11h13.66v6.3h-13.66v4h18.36V144.27z"/>
		<path class="st5" d="M221.08,137.5c0.1,1.88-0.63,3.71-2,5c-1.42,1.24-3.26,1.89-5.15,1.81h-18.46v-26.55h18.47
			c1.84-0.14,3.68,0.31,5.25,1.29c1.26,0.94,1.89,2.53,1.89,4.75V137.5z M213.94,135.92v-10.16c0-1.31-0.61-2-1.85-2h-9.49v14.66
			h9.32C213.26,138.44,213.94,137.6,213.94,135.92z"/>
		<path class="st5" d="M250.84,144.27h-18.52c-1.87,0.09-3.7-0.56-5.1-1.79c-1.37-1.29-2.1-3.12-2-5v-13.72
			c0-2.22,0.62-3.81,1.86-4.75s2.87-1.29,5.27-1.29h18.49v6h-16.62c-0.51-0.02-1.02,0.18-1.37,0.55c-0.36,0.38-0.54,0.89-0.52,1.41
			v10.15c0,1.68,0.69,2.52,2.06,2.52h9.32v-4.91h-4.11v-5.64h11.24V144.27z"/>
		<path class="st5" d="M280.83,144.27h-25.47v-26.51h25.47v6h-18.3v4.11h13.66v6.3h-13.7v4h18.34V144.27z"/>
	</g>
</g>
</svg>
