<svg xmlns="http://www.w3.org/2000/svg" viewBox="0 0 358.33 172.08"><defs><style>.cls-1{isolation:isolate;}.cls-2{fill:#d8e0ed;}.cls-3,.cls-5{fill:#f9ed32;}.cls-3{opacity:0.17;}.cls-4{fill:#fff200;mix-blend-mode:multiply;}.cls-4,.cls-5{opacity:0.2;}.cls-12,.cls-6{fill:#fff;}.cls-7{fill:#6b95be;}.cls-8{fill:#00578e;}.cls-9{fill:none;stroke:#fff;stroke-miterlimit:10;stroke-width:5.54px;}.cls-10{fill:#ffe600;}.cls-11{fill:#f7941e;}.cls-12{opacity:0.51;mix-blend-mode:screen;}.cls-13{fill:#58595b;}</style></defs><title>TownSuite EDGE</title><g class="cls-1"><g id="LOGO_TYPE" data-name="LOGO TYPE"><path class="cls-2" d="M242.91,142.59a13.45,13.45,0,0,0,3.49,2.18c-1.57,1.5-.76,3.75.53,5.66,2.38,3.5,9.58,8.34,13.41,8.13,2.43-.13,1.5-1.48,3.11-1.54,7.36-.31,4.34,13.79,15.76,10.11,2.82-.91,1.28-3.13,3.74-3.89,1.81-.56,3.21.47,4.94.51s2.68-1,4-1.83,2.18-.83,3.91-.79c3.18.08,8,2.43,10-.62,0,.06,9,3,11.15,1.48,1.32-.9,1.33-2.62,2.49-3.59,1.78-1.49,4.17-.91,6.47-.87,3.06.05,6.33-.32,8.86-2.18,1.74-1.28,2.61-6.43,4.28-7.83,3.33-2.79,8.17.17,10.12-4.2.88-2-.45-4.72-.17-6.23L242.91,135c.1,1-.91,2.69-1,4.25A5.12,5.12,0,0,0,242.91,142.59Z"/><path class="cls-3" d="M330.13,44.55A39.88,39.88,0,1,1,290.25,4.67,39.87,39.87,0,0,1,330.13,44.55Z"/><circle class="cls-4" cx="290.25" cy="44.55" r="26.21" transform="translate(61.05 228.11) rotate(-47.42)"/><polygon class="cls-5" points="278.21 38.32 236.66 17.76 236.66 63.45 277.23 49.32 278.21 38.32"/><polygon class="cls-5" points="302.95 38.56 344.66 17.76 344.66 63.45 303.39 49.1 302.95 38.56"/><path class="cls-6" d="M355,99.73l-3.38-6.16-11.75-5.66-17.72.36L306.83,74.91l0-1.32-2.62.52-2.63-.42,0,1.38L271.29,89.26,254.62,92l-1.75,7.55.43,4.47-8.89,3.26,1,23.11a6.74,6.74,0,0,0-2.63,5.33,7.19,7.19,0,0,0,2.63,5.33,11.74,11.74,0,0,0,2.69,1.31c-1.51,1.5-.73,3.76.51,5.67,2.28,3.5,9.19,8.34,12.88,8.13,2.33-.14,1.44-1.48,3-1.55,7.06-.31,4.16,13.8,15.12,10.11,2.72-.91,1.24-3.12,3.6-3.88,1.73-.56,3.08.46,4.74.5s2.58-1,3.84-1.82,2.1-.83,3.76-.79c3.05.07,7.67,2.43,9.63-.63,0,.06,8.63,3,10.7,1.48,1.28-.9,1.29-2.61,2.4-3.59,1.7-1.49,4-.9,6.21-.86,2.94.05,6.08-.33,8.51-2.19,1.67-1.27,2.51-6.43,4.11-7.82,3.2-2.79,8.44.71,10.32-3.67,1.44-3.36,2.05-6.07,1.81-8.07l.48-2.84a4.51,4.51,0,0,0,1.08-6.29Z"/><polygon class="cls-6" points="256.52 94 255.2 99.67 255.83 105.53 247.75 108.42 252.15 148.16 274.21 157.23 299.37 155.78 308.77 155.4 328.43 147.88 346.14 136.41 352.67 99.67 349.5 95.24 256.52 94"/><polygon class="cls-7" points="258.04 129.04 291.67 157.28 293.96 151.17 301.09 155.57 301.09 121.07 294.83 117.38 288.42 121.4 255.2 99.67 258.04 129.04"/><polygon class="cls-7" points="258.04 129.04 288.42 121.4 255.2 99.67 258.04 129.04"/><polygon class="cls-8" points="346.98 133.03 339.24 142.53 324.63 149.7 318.14 149.2 306.78 155.57 306.78 121.07 317.5 116.07 325.43 116.52 343.15 109.29 352.67 99.67 346.98 133.03"/><polygon class="cls-6" points="307.93 74.09 304.49 56.92 307.28 55.62 307.28 45.65 303.42 44.28 302.95 37.69 305.1 36.69 291.4 28.13 291.4 27 290.31 26.17 289.1 27 289.1 28.15 275.03 36.4 277.72 37.65 277.18 44.29 273.29 45.65 273.29 55.62 275.95 56.86 271.37 85.61 269.64 87.05 269.64 91.64 270.27 91.91 270.02 98.04 290.88 107.89 292.52 107.1 307.33 114.55 324.85 105.87 324.85 90.11 328.53 88.52 307.93 74.09"/><polygon class="cls-2" points="304.51 76.51 304.52 76.41 304.25 76.46 303.99 76.41 303.99 76.51 271.98 91.48 256.52 94 304.25 116.03 349.5 95.24 338.91 90.01 321.2 90.38 304.51 76.51"/><rect class="cls-6" x="247.74" y="108.42" width="40.35" height="32.44"/><polygon class="cls-7" points="252.15 148.16 267.66 154.28 265.95 123.04 255.38 122.2 247.59 114.48 252.15 148.16"/><polygon class="cls-8" points="257.54 148.16 267.66 154.28 265.95 123.04 255.38 122.2 257.54 148.16"/><polygon class="cls-8" points="291.71 158.15 284.85 153.18 272.79 158.99 271.08 123.61 283.44 117.85 289.02 121.68 291.71 158.15"/><polygon class="cls-2" points="270.17 100.35 270.17 100.31 270.07 100.33 269.96 100.31 269.96 100.35 248.82 108.31 256.03 115.72 267.92 117.13 289.16 107.35 270.17 100.35"/><line class="cls-9" x1="328.42" y1="107.91" x2="326.71" y2="148.74"/><polygon class="cls-7" points="283.44 117.85 283.85 153.84 290.58 156.37 288.83 120.98 283.44 117.85"/><polygon class="cls-8" points="285.38 131.52 283.85 153.84 290.74 156.37 289.19 127.77 285.38 131.52"/><rect class="cls-7" x="306.67" y="127.53" width="8.92" height="27.88"/><polygon class="cls-2" points="306.67 127.66 315.59 132.5 321.09 130.51 325.01 123.78 317.34 122.2 306.67 127.66"/><polygon class="cls-8" points="294.83 117.38 288.83 120.98 291.13 153.67 296.02 156.26 294.83 117.38"/><polygon class="cls-8" points="279.48 131.02 285.38 131.52 285.24 152.95 278.76 155.4 279.48 131.02"/><polygon class="cls-7" points="339.24 142.53 333.87 144.15 328.43 147.88 329.97 114.54 343.15 109.29 339.24 142.53"/><polygon class="cls-7" points="279.5 131.52 271.43 130.87 272.43 156.84 278.76 156.26 279.5 131.52"/><path class="cls-6" d="M322.48,144.88a2.69,2.69,0,1,1-2.69-2.69A2.69,2.69,0,0,1,322.48,144.88Z"/><path class="cls-6" d="M315.51,138.55a1.43,1.43,0,1,0,1.43,1.42A1.43,1.43,0,0,0,315.51,138.55Z"/><circle class="cls-6" cx="347.13" cy="126.83" r="2.22"/><circle class="cls-6" cx="284.74" cy="149.28" r="3.01"/><path class="cls-6" d="M262.92,131.55a1.74,1.74,0,1,1-1.74-1.74A1.74,1.74,0,0,1,262.92,131.55Z"/><path class="cls-6" d="M260.23,137.56a3,3,0,1,1-3-3A3,3,0,0,1,260.23,137.56Z"/><path class="cls-6" d="M254,135.69a4.44,4.44,0,1,1-4.43-4.43A4.44,4.44,0,0,1,254,135.69Z"/><path class="cls-6" d="M294.44,148.43a2.2,2.2,0,1,1-2.2-2.2A2.2,2.2,0,0,1,294.44,148.43Z"/><polygon class="cls-2" points="278.47 110.52 287.84 115.76 297.75 109.94 287.11 105.05 278.47 110.52"/><polygon class="cls-2" points="315.3 110.52 327.61 110.51 340.01 105.24 349.5 95.24 315.3 110.52"/><polygon class="cls-8" points="335.73 133.53 343.5 133.53 342.35 116.27 335.73 123.75 335.73 133.53"/><polygon class="cls-2" points="342.35 116.27 329.97 121.74 335.73 123.75 340.04 121.74 342.35 116.27"/><polygon class="cls-2" points="271.43 130.87 283.8 126.05 289.19 127.77 285.38 131.52 279.62 133.25 271.43 130.87"/><polygon class="cls-6" points="305.33 97.72 290.69 104.8 275.98 97.51 279.21 51.37 301.23 51.37 305.33 97.72"/><polygon class="cls-7" points="272.38 96.07 288.83 103.83 288.85 62.79 277.64 57.5 272.38 96.07"/><polygon class="cls-8" points="308.79 96.07 292.35 103.97 291.41 62.79 302.63 57.5 308.79 96.07"/><polygon class="cls-7" points="275.02 54.11 289.02 60.64 289.02 54.26 275.02 47.73 275.02 54.11"/><polygon class="cls-8" points="305.38 54.11 291.38 60.64 291.38 54.26 305.38 47.73 305.38 54.11"/><rect class="cls-8" x="306.3" y="96.37" width="1.85" height="1.85"/><polyline class="cls-8" points="307.23 111.38 307.23 94.63 322.31 87.56 322.31 103.9"/><polygon class="cls-8" points="283.25 101.21 277.74 98.57 278.9 84.75 284.48 87.47 283.25 101.21"/><polyline class="cls-7" points="292.35 103.97 291.92 86.44 307.23 97.3 307.23 111.38"/><polygon class="cls-10" points="290.22 43.27 279.4 38.26 278.85 47.58 290.25 52.57 290.25 43.26 290.22 43.27"/><polygon class="cls-11" points="290.25 43.24 290.25 52.57 301.57 47.55 301.1 38.21 290.25 43.24"/><path class="cls-12" d="M298.49,44.36a8.25,8.25,0,1,1-8.24-8.26A8.24,8.24,0,0,1,298.49,44.36Z"/><polygon class="cls-8" points="279.01 93.88 271.07 90.45 271.07 87.87 277.89 84.58 285.67 86.16 285.67 88.74 283.29 90.41 279.01 93.88"/><polygon class="cls-2" points="279.01 91.3 271.07 87.87 277.89 82.86 285.67 86.16 283.29 87.82 279.01 91.3"/><polygon class="cls-2" points="307.6 94.41 323.47 87.55 307.75 76.57 292.23 83.86 307.6 94.41"/><polygon class="cls-2" points="316.82 102.18 313.59 103.69 313.59 96.12 316.82 94.61 316.82 102.18"/><polygon class="cls-2" points="280.06 77.54 283.17 79.05 283.83 71.48 280.72 69.97 280.06 77.54"/><path class="cls-6" d="M300.8,154.51c-4.13-1.52-2.85-7-7.6-5.53-.84.26-1.28,1-2.2,1.19s-1.74-.58-2.66-.75c-2.74-.49-4.12,1.21-5.81,3-2.16,2.31-10.16,3.2-12.44-.78-.39-2.71-.9-3.6-1.37-3.83-3.06-1.52-4.79-.1-7.47-4-1.46-2.1-2.13-3.87-4.33-5.34-1.37-.91-4.68-3.08-6.57-2.11-3.08,1.59-.31,5.23-.09,7.46.14,1.36-1.13,1.84-.76,3.43.79,3.46,9.1,8.06,12.44,7.26,2-.47,2.08-2,4.43-.76s2.6,2.63,4.23,4.48c1.92,2.2,3.89,1.83,6.7,1.74,6-.19,3.29.05,9.05-1.51,1.25-.33,16.44.14,17-1.95C303.88,154.82,302,154.94,300.8,154.51Z"/><path class="cls-6" d="M305.88,155.86c2.72-.58,3.85-3.66,5.27-5.77,2.66-4,3.84-2.22,7.83-2.78,2.49-.35,3.66-2.72,5.78-3.37s3.64-.31,5.2-2c2.65-2.85,5.68-11.3,10.62-10.37.88.17,1.09,1.19,2.22,1.17.75,0,1.24-1.19,2.11-1.17,4.15.12,2.63,8.43.42,8.93-5.88,1.31-30.54,17.07-32.07,17.13"/><polygon class="cls-8" points="301.23 36.09 290.31 29.2 278.86 35.87 290.29 41.16 301.23 36.09"/><polygon class="cls-7" points="290.31 29.2 278.86 35.87 290.29 41.16 290.31 29.2"/><path class="cls-13" d="M241.12,67.21A5.18,5.18,0,1,1,246.29,62,5.16,5.16,0,0,1,241.12,67.21Zm0-9.35A4.18,4.18,0,1,0,245.26,62,4.16,4.16,0,0,0,241.12,57.86Zm.92,7-1.56-2.41h-.09v2.41h-1.11V59.27a3.56,3.56,0,0,1,1.57-.35c1.55,0,2.21.89,2.21,1.75a1.71,1.71,0,0,1-1.4,1.68l1.77,2.51Zm-1.24-5a1.48,1.48,0,0,0-.41.06V61.7h.28c.81,0,1.25-.23,1.25-1S241.3,59.82,240.8,59.82Z"/><path class="cls-13" d="M17.08,63.32V95.84H10.23V63.32H3.33V58.74H24v4.58Z"/><path class="cls-13" d="M37.57,96.37c-8.15,0-12.08-6.47-12.08-15s3.93-15.1,12.08-15.1,12.07,6.42,12.07,15.1S45.71,96.37,37.57,96.37Zm0-26c-4.64,0-5.56,5.33-5.56,10.89S33,91.9,37.57,91.9c4.69,0,5.55-5.12,5.55-10.62S42.26,70.39,37.57,70.39Z"/><path class="cls-13" d="M84.37,95.84H78.44l-5-18.23a17,17,0,0,1-.59-3.72h-.11a19.59,19.59,0,0,1-.65,3.72L67,95.84H61L52.93,66.77h6.64l4.25,18.82a22.87,22.87,0,0,1,.54,3.83h.11a26,26,0,0,1,.76-3.83l5.12-18.82h5.5l4.91,18.82a31,31,0,0,1,.7,3.83h.1a32.63,32.63,0,0,1,.6-3.88l4.47-18.77h5.83Z"/><path class="cls-13" d="M113.7,95.84V75.24c0-2.37-1.08-4.85-5.23-4.85a10.89,10.89,0,0,0-4.53.81V95.84H97.36V68.34a26.63,26.63,0,0,1,11.38-2.11c8.68,0,11.54,4.21,11.54,8.9V95.84Z"/><path class="cls-13" d="M134.94,96.37c-4.42,0-7.17-.81-9.17-2.1l1.68-4.8a11.1,11.1,0,0,0,6.2,1.73c3.66,0,5.93-2.27,5.93-5.72,0-2.8-1.62-4.53-5.77-6.25-6-2.54-7.66-6.52-7.66-10.14A10.65,10.65,0,0,1,137.26,58.2a14.24,14.24,0,0,1,8.14,2.1l-1.51,4.21a11,11,0,0,0-5.71-1.67c-3.4,0-5.34,2.1-5.34,5.39s2.37,4.74,5.61,6.09c7.28,3.07,8.35,7.17,8.35,10.73C146.8,91.63,141.84,96.37,134.94,96.37Z"/><path class="cls-13" d="M164.11,96.43c-7.77,0-11.27-3.4-11.27-9.81V66.77h6.58V87c0,2.75,1.51,4.91,4.91,4.91a8.55,8.55,0,0,0,4.37-1V66.77h6.57V94.11A23.82,23.82,0,0,1,164.11,96.43Z"/><path class="cls-13" d="M185.78,61.76a3.28,3.28,0,1,1,3.62-3.24A3.45,3.45,0,0,1,185.78,61.76ZM182.5,95.84V66.77h6.57V95.84Z"/><path class="cls-13" d="M206,96.16c-5.71,0-8-3.83-8-7.87V71h-3.23V66.77H198V60.36l6.58-1.84v8.25h4.74V71h-4.74V88c0,2.27.92,3.78,3.18,3.78a5,5,0,0,0,1.56-.27v4.09A8.33,8.33,0,0,1,206,96.16Z"/><path class="cls-13" d="M219.43,83.71c.54,5.38,3.13,8.08,7.93,8.08a15.83,15.83,0,0,0,7.33-1.62l1.56,4.15a19.72,19.72,0,0,1-9.59,2.05c-8.25,0-13.48-5.33-13.48-15.15,0-9.49,4.8-15,12.4-15s11.91,5.13,11.65,14.88Zm5.93-13.43c-3.83,0-6.47,3.13-6.31,10.08l12-1.83C231.08,72.65,229,70.28,225.36,70.28Z"/><path class="cls-7" d="M148,131.51H122.51V105H148v6H129.64v4.11H143.3v6.3H129.64v4H148Z"/><path class="cls-7" d="M178.24,124.74a6.38,6.38,0,0,1-2,5,7.34,7.34,0,0,1-5.15,1.81H152.63V105H171.1a8.67,8.67,0,0,1,5.25,1.29c1.26.94,1.89,2.53,1.89,4.75Zm-7.14-1.58V113c0-1.31-.61-2-1.85-2l-9.49,0v14.66h9.32C170.43,125.68,171.1,124.84,171.1,123.16Z"/><path class="cls-7" d="M208,131.51H189.48a7.23,7.23,0,0,1-5.1-1.79,6.4,6.4,0,0,1-2-5V111c0-2.22.62-3.81,1.86-4.75s2.87-1.29,5.27-1.29H208v6l-16.62,0a1.77,1.77,0,0,0-1.37.55,1.93,1.93,0,0,0-.52,1.41v10.15c0,1.68.69,2.52,2.06,2.52h9.32v-4.91h-4.11v-5.64H208Z"/><path class="cls-7" d="M238,131.51H212.53V105H238v6h-18.3v4.11h13.66v6.3H219.66v4H238Z"/></g></g></svg>
