<?xml version="1.0" encoding="utf-8"?>
<!-- Generator: Adobe Illustrator 21.1.0, SVG Export Plug-In . SVG Version: 6.00 Build 0)  -->
<svg version="1.1" id="Layer_1" xmlns="http://www.w3.org/2000/svg" xmlns:xlink="http://www.w3.org/1999/xlink" x="0px" y="0px"
	 viewBox="0 0 360 236" style="enable-background:new 0 0 360 236;" xml:space="preserve">
<style type="text/css">
	.st0{fill:#E7ECEF;}
	.st1{fill:#FFFFFF;}
	.st2{fill:#EA9B95;}
	.st3{fill:#CECECD;}
	.st4{fill:#F4F4C2;}
	.st5{fill:#A3D2EC;}
	.st6{fill:#747E91;}
</style>
<path class="st0" d="M186.7,46.2c3.5,3.8,13.3,5.3,12.5-2.4c-0.5-4.8-10.9-12.8-15.1-8.6C181.1,38.2,184.5,43.8,186.7,46.2z"/>
<g>
	<path class="st0" d="M97.8,52.6C98.7,73.7,84.2,64,69.2,68.2c-14.9,4.1,0.9,14.9,0.9,22.1c-0.1,6.7-1.2,5.5-7,6.9
		c-9.3,2.2-16.7,2.3-25,7.3c-4.5,2.7-13,6-14.3,11.8c-1.9,9.1,17.8,7.9,11.5,17.9c-3.4,5.5-12.4,5.8-9.2,15c2.4,7,10.8,2.6,16.5,3.9
		c7.6,1.7,1.9,9.9,10.2,10.7c6.3,0.6,9.8-5.4,16.7-4.7c5.6,0.6,11.1,5.2,14.5,9.7c10.9,14,16.3,33.1,38,27.1
		c8.5-2.4,11.3-8.4,20.6-4.1c5.9,2.7,10.8,6.6,17.6,6.6c7.6,0.1,15.8-2.8,22.8-5.3c11.6-4,18.1-12.2,28.2-18.8
		c3.9-2.6,8.7-5.1,13.5-4.7c6.3,0.4,12.3,4.7,19,5.3c6.3,0.5,12.5-1.2,18.9-1.2c9.6,0,11.7,0.4,19.6,4.7c5.6,3,10.1,2.2,16.1,2.8
		c6.4,0.6,13,2.4,19.6,1.3c9.2-1.7,22.7-11.1,18.1-21.3c-2.3-5.1-2.9-5.9-3.2-11.4c-0.3-3.6-0.5-5.1-3.3-7.5
		c-9.3-8-29.1-5-36.3-16.5c-2.4-3.8-0.8-8.7-4.8-11.9c-7.1-5.6-19.8-2-27.6-6.1c-9.3-4.9,1.3-13.8,3.5-20.5
		c6.9-21.3-33.4-11.3-42.8-17.1c-10-6.2-12.4-21.4-25.9-14.7c-1.8,0.9-1.9,2.8-4.8,2.3c-3.7-0.6-1.1-2-3.5-3.9
		c-8.8-7.1-23.2,5.9-28.2-5.4c-2.5-5.6,1.1-6.4-5.8-9.5c-5.4-2.5-5.9-0.8-10.4,1.5c-3.5,1.8-5.3,4.6-9.7,4c-3.8-0.5-4.9-4.3-8.3-5.5
		C113.3,34.5,97.2,38.7,97.8,52.6z"/>
	<path class="st1" d="M196.4,66.5c-5.2-1.3-11.1-3.3-16.5-3.5c-4.4-0.2-8.5,0.8-13.1,0.3c-11.9-1.1-23.8-3.9-35.7-2
		c-11.3,1.9-24,5.2-31.6,14.4c-7.4,8.9-7.9,22.8,1.4,30.4c3.5,2.9,22.8,5.7,21.9,9c-1.5-0.1-2,0.6-3,0.9c-4.2,1.2-9.3,1-13.6,1.3
		c-13.4,1.2-27.6,3.8-40.4,8.2c-5.4,1.8-15.1,5.2-18.1,10.7c-6.3,11.9,14.4,11.1,20.4,10.1c14.2-2.3,32-6.5,46.3-2.9
		c-2.2,6.5-14.2,6.5-19.6,8.9c-4.4,2-8.6,3.5-12.8,6c-5.7,3.3-12.6,6.4-16.1,12.2c-2.6,4.2-5,16.5-1.3,20.4c4.7,5,19.1-0.3,24.8-2
		c8.6-2.6,16.6-6.9,24-10c4.3-1.8,9.3-6,13.8-6.7c5-0.8,9.3,3.3,13.3,4.6c8.5,2.7,15.6-0.1,23.4-3c7.3-2.7,14.4-6.9,21.7-10.3
		c11.3-5.4,10.2-11.2,10.3-22.3c0-3.8,1.2-4.6,5.5-4.5c3.8,0.1,4.7,1.6,5.8,5.2c4,12.6,12.3,14.2,24.8,18.2
		c16.3,5.2,35.2,7.3,52.4,6.1c3.5-0.2,7.8-0.2,10.1-2.4c0.7-0.7,0.2-2,0.8-2.8c1.8-2.4,4.4-2.5,6.6-3.3c4.8-1.7,7.7-3.7,10.6-9
		c3.6-6.6,6.6-14.4,9.1-21c1.1-3,3.3-6.9,1.5-9.8c-1.2-2-6.8-4.9-9.2-5.7c-1.7-0.6-4.8-0.5-6.2-1.7c-1.4-1.2-1.8-4.6-3.1-6
		c-5-5.4-15.5-7.6-22.5-9c-6.9-1.5-13.3-3-20.4-3.1c-5.4-0.1-10.7-0.9-16.2-1c-3.4,0-11,1.5-14.2,0.5c-3.3-1-8.2-9-11.5-12
		C212.7,73.1,206,68.9,196.4,66.5z"/>
	<path class="st2" d="M143.5,81.7c-11.1-0.7-21.5,1.2-32.6,1.9c-2,0.1-4.3-0.2-6.1,1c-0.4,0.2-3.1,3.7-2.2,3.5
		c1-0.2,2.4,0.3,3.3,0.2c0.5,1.9,1.4,3.1,1.1,5.4c-0.6,3.7-3.8,2.4-5.3,5.1c-2.2,3.9,4.8,7.9,8,9.5c6.5,3.3,19.1,5.5,24.8-1.2
		c6.3-7.5,14.3-15.3,23.9-16.5c5.3-0.7,12.6-0.6,17.6,0.5c4.8,1.1,9.5,4.4,13,7.7c1.6,1.5,2.7,3.4,4.7,4.4c2.1,1,5.5,0.4,7.7,0.4
		c3.4,0,5.1,0.7,8.2,1.3c4,0.8,6.2,0.3,6.8-3.8c1.1-7.5-18.2-10.6-23-12c-4.3-1.3-9.6-1.4-14.2-2.3
		C167.6,84.5,155.2,82.5,143.5,81.7z"/>
	<path class="st2" d="M123.5,69.8c5.6-0.3,12.3,0.9,17.9,1.6c8.4,0.9,16.8,2.9,25.5,3c13.7,0.2,25.6,3.7,38.6,6.1
		c3.7,0.7,12.4,2.6,6.7-2.4c-5.5-4.9-16.9-5.9-23.9-6.8c-11.7-1.5-23.5-3.1-35.3-4.1C148.2,66.7,122.9,62.2,123.5,69.8z"/>
	<path class="st3" d="M172.7,117.7c3.5-4.7-5.1-2.5-7-1.8c-3.5,1.2-6.6,3.3-9.7,5.1c-5.2,2.9-10,5.3-15.1,8.3
		c-8.1,4.9-13.6,12.2-10.9,22.4c2.4,9,13.4,13.4,21.9,14.6c4.6,0.7,7.7-0.6,11.6-2.6c4.4-2.3,9.9-4.8,14.3-7.7
		c5.8-3.7,12.4-4.3,12.2-12.9c-0.1-4.9-2.3-4.8-4.6-1.1c-1.6,2.5-2.9,6.6-6.8,6.6c-1.8-10.4-13.4-16.8-10.9-28.8
		C169.4,119.4,171.6,119.2,172.7,117.7z"/>
	<path class="st3" d="M72,186.2c3.7,2.8,13.1-1.7,17.3-3.1c12.1-4,26.4-8.7,36.2-16.8c4.4-3.6,3.5-5,1.1-10.2
		c-2.3-5.1-4-3.9-8.5-1.8c-8.4,4.1-17.3,9.2-26,11.6c-3.9,1.1-8.4,1.9-11.6,4.3C77,172.9,65.4,181.2,72,186.2z"/>
	<path class="st4" d="M189.5,119.7c2.5-1.5,4.6-6.6,4.5-9.5c-0.2-4.5-2.5-6.3-5.4-8.7c-5.3-4.4-11.4-8.3-18.6-8.8
		c-4.4-0.3-6.8,1-11,1c-8.1,0-13.6,3.7-19.7,8.3c-2.5,1.9-4.6,3.3-6.3,6.1c-0.9,1.5-2.4,9.4-3.1,9.9c-6.5,4.1-20.3,5.3-28.5,6.2
		c-6,0.7-9.9,2.3-15.5,3.9c-3.2,1-5.7,3.3-8.5,4.6c-3.4,1.6-8,2.7-11.9,4.1c-2.8,1-10.7,3.3-5.4,7.2c3.5,2.6,13.6,0.7,17.7-0.4
		c8.4-2.3,14.5-4.9,23.1-6.5c7-1.3,14.1-2.8,20.9-4.5c5.8-1.4,7.1-4.6,12.2-7.4c7.2-3.9,16-6.1,22.3-11.1c2.8-2.2,3.9-3.3,8-3.5
		c4.1-0.3,5-0.3,8.2-2.5c4.4-2.9,13.4-5.4,15.3,2.5c0.8,3.2-2.7,6.2-4.5,8.5c1.5,0.3,3.5,1.3,3.6,3c0.6,0.1,1.2,0.1,1.8,0"/>
	<path class="st5" d="M289.2,110.5c5.3-11.2-11.8-8.7-18.7-8.8c-5.3-0.1-10.6-0.3-16-0.5c-6.1-0.2-16.4-3.5-20.7,1.9
		c-3.8,4.7-2.9,13-4.2,18.6c-0.7,2.9-3.3,7.2-2.9,10.1c0.8,5.5,10.3,3.5,14.7,3.9c9.4,0.7,18.8,3.1,28.2,3c3.5,0,7.8,0.6,10.5-1.1
		c4.6-2.8,5.1-9.9,6-14.8C286.8,118.5,287.3,114.4,289.2,110.5z"/>
	<path class="st5" d="M233,152.2c2.5,2.3,6.5,1.8,9.5,2c5.3,0.4,10.5,0.9,15.8,1.5c9.2,1,21,1.8,30.1,0.3c0.4-1.5,2.2-2.2,2.5-3.5
		c0.5-2.2-0.4-1.3-0.8-3c-0.3-1.4-1-2.2-0.9-3.6c0.2-3.5,3-7.9,3.9-10.8c2.1-7,5-15.6,3.8-22.9c-2.6,0.1-2.4,4.3-2.9,6.5
		c-1.3,4.8-4.2,8.1-6.3,12.1c-3.3,6.5-2,14.9-10.5,15.4c-9.3,0.5-18.4-1-27.5-2.4c-4.7-0.7-9.4-1.4-14.1-1.8
		c-2.1-0.2-7.9-1.6-8.5,1.2C226.7,144.5,231.9,151.3,233,152.2z"/>
	<path class="st3" d="M307,148.7c3.5-3.9,1.4-11.9,3.1-16.5c1.8-4.8,6-11.5,0.4-14.8c-5.2-3-8-1.5-10.4,3.2c-2.9,6-8,15.3-8.4,22.5
		c1.6,3.4,0.4,5.5,4.2,6.5C298.4,150.4,305.3,150.5,307,148.7z"/>
	<path class="st3" d="M179,83.8c-16.6-2.2-33.5-5.8-50.2-3.9c-3.5,0.4-6.9,0.5-10.3-0.6c-2.2-0.7-5.6-0.6-7.5-1.5
		c1.2-1.3,3.8-2.3,5.4-3c3.7-1.6,7.6-1.6,11.6-1.6c9.7,0,19.3,0.6,28.7,1.3c11.7,0.8,23.4,3.1,34.7,5.1c7.4,1.3,17.9,3,23.9,7.9
		c1.5,1.3,3.8,3.6,4.3,5.6c-0.1-2.2-2.1-3.2-1.6-5.8c3.2-0.9,5.1,3.9,5,6.6c-0.2,2.8-2.2,6.2-4.3,8c-0.3-2.3-1.7-3.9-2.5-5.9
		c-1.6-3.9-4.1-5.4-8.2-6.4c-4.3-1.1-8.4-2.3-12.4-2.7C189.9,86.4,184.5,84.6,179,83.8z"/>
	<path class="st3" d="M196.3,132.9c4.3-0.3,25.2-10.7,21.6-15.3c-2.7-3.4-7.5,3.2-8.9,4.5c-5.4,5.1-11.8,6.1-19.2,7
		c-1.3,0.2-3.3,0.4-4.4-0.2c-1.1-0.6-1.7-2.5-2.7-3.4c-6.6-5.2-7,4.6-2.3,7.7c2,1.4,3.7,0.5,5.9,0.2
		C189.5,132.9,193,133.1,196.3,132.9z"/>
	<path class="st3" d="M206.7,111.2c3.7,0.5,9-2.3,3.3-4.1c-2.4-0.8-5.2-0.9-7.7-0.9c-2.1,0-10.8,2.2-6.7,4.3c1.2,0.6,4.2,0,5.6,0
		C203.4,110.5,205.2,111,206.7,111.2z"/>
	<path class="st3" d="M223.5,97.4c-2.6,0.2-2.1,4.4-1.7,6.1c0.7,2.9,4.2,3.9,5.2,0.8C227.8,102.2,226.3,97.2,223.5,97.4z"/>
	<path class="st5" d="M227,116.2c-3.5-0.1-3.2-5.3-7.5-3.8c-1.3,0.5-1.4,2-3.4,1.6c-1.3-0.3-2.2-1.3-2.1-2.7
		c0.3-2.1,3.5-2.9,5.3-3.1c3.5-0.4,9.6,1,10,5.4C229.5,115.2,228.8,116.3,227,116.2z"/>
	<path class="st3" d="M186.7,111.9c-2.5-0.1-5.7,1.9-3.9,4.3c1.8,2.3,4.1-0.5,4.9-2.3"/>
	<path class="st6" d="M223.3,91.1c-0.4-0.7-0.5-2.5-0.5-3.3c-0.2-2-2.2-3.7-3.8-4.9c-1.7-1.2-3.5-1.3-5.1-2.5
		c-1.5-1.2-4.3-1.6-6.2-2.3c-1.8-0.7-3.6-1.4-5.5-1.7c-5.3-0.8-10.5-2.1-15.8-2.9c-9.7-1.6-19-1.6-28.7-2.4c-7.4-0.6-14.7-2-22.2-3
		c-6.2-0.8-12.8,0.4-18.6,2.6c-1.6,0.6-3.3,2.3-4.8,2.6c-1.6,0.4-2.8-0.9-1.2-2c1.8-1.2,3.5-2.4,5.5-3.2c9.3-3.7,18.6-2.1,28.2-1.2
		c8.1,0.8,16.3,1.7,24.1,2.4c5.4,0.5,11.2,0.9,16.7,1.6c3.2,0.4,6.5,1.2,9.6,1.7c3.3,0.5,6.9,1.3,10.2,2.2c2.3,0.6,4.6,1.7,6.9,2.6
		c2.8,1.1,6.4,2.2,8.7,4.2c2.2,1.9,5.1,5.7,3.7,8.7C224,91.6,223.5,91.6,223.3,91.1z"/>
	<path class="st6" d="M133.4,71.6c0.5,3-5.3,1-7.1,1c-1.5,0-5.6,1-5.9-1.3c1.8-0.7,5.7-0.7,7.6-0.4C129,71.1,132.8,71,133.4,71.6
		C133.5,72.3,132.8,71.1,133.4,71.6z"/>
	<path class="st6" d="M111.3,76.1c-1.4-2.1,7.6-1.8,8.2-1.7c4.7,0.4,9.5,0.7,14.2,0.9c4.8,0.2,9.4-0.6,14.2-0.2
		c5.2,0.5,10.5,0.4,15.7,0.6c9.9,0.4,19.4,3.8,29.2,4.5c4,0.3,7.9,1.9,11.8,2.9c2,0.6,7.8,2,8.6,4.3c-2.2,0.8-6.3-1.5-8.5-2.1
		c-2-0.6-4.1-1.2-6-1.8c-5.5-1.5-11.2-2.2-16.8-3.2c-4.4-0.8-8.8-1.6-13.4-2c-1.4-0.1-5.1-0.9-6.3-0.2c-0.9,0.5-3.4-0.2-4.5-0.3
		c-0.3,0-4.2,0.3-3.3-0.6c-1,1.2-3.8,0.2-5.2,0.2c-0.5,0-4.3,0.2-4.7-0.1c-0.9-0.9-5.5,0.2-6.8,0.2c-2.1,0.1-3.8,0-5.9-0.1
		c-0.8,0-6-0.5-6.3-0.1c0,0.1-3-0.4-3-0.4c-0.2,0.3-4-0.1-4.6-0.2C116.3,76.4,112.5,77.2,111.3,76.1
		C110.8,75.3,112.4,77.1,111.3,76.1z"/>
	<path class="st6" d="M218.5,84.6c1.3,0.8,3.9,3.2,3.5,5c-0.4,2.2-1.8-0.6-2.3-1.1C218.8,87.4,217.5,86.1,218.5,84.6
		C218.6,84.7,217.2,86.5,218.5,84.6z"/>
	<path class="st6" d="M105.1,88.7c1,1.4,0.3,2.6,0,4.2c-0.3,1.4,0.3,3.9-0.8,4.9c-1.1,0.2-1.7-0.8-2.8-0.6c-1.5,0.2-1.9-1-0.4-1.4
		c1.4-0.4,1.7,0,1.7-1.6c0-2.2,1.3-3-1.4-3.5c-0.7-0.1-1.3-0.2-2-0.4c-1.5-0.4-1.4-1.6,0.2-1.7C101.3,88.5,103.2,88.7,105.1,88.7
		C105.3,89,102.4,88.7,105.1,88.7z"/>
	<path class="st6" d="M221.1,97.7c-0.3,0-1.7-4.7-2.2-5.4c-0.9-1.1-1.9-2.1-3.2-2.8c-0.2-0.6,0.6-1.2,1.1-1
		C218.6,89.1,224.9,97.2,221.1,97.7C220.2,97.7,222.1,97.6,221.1,97.7z"/>
	<path class="st6" d="M227.1,98.4c-1.3,0-1.8-0.8-2.4-1.5C225.3,94.8,228.1,97,227.1,98.4z"/>
	<path class="st6" d="M164.9,113.9c0.9-5.3,9.8-3.1,13-1.1c0.9-1.5,6.4-4.8,8.2-4.3c0.8-2.7-6.2-2.9-7.3-2.6c-0.7,0.2-2.1,1-2.6,1.5
		c-0.4,0.4-2.9,2.7-2.2,0.3c1.2-4.3,7.9-5.4,11.5-3.6c3.3,1.7,4.8,6.5,3.7,10.2c-0.4,1.3-1.1,2.5-2,3.5c-0.2,0.2-2.8,1.6-2.7,0.3
		c-0.8,0,1.9-2.9,1.9-3c0.8-1.5,1.1-3.3,0.9-5c-2.7,0.9-5.6,1.7-7.8,3.7c1.5,1.8,3.1,3.6,4.7,5.3c1.5,1.7,2.1,3.8,3.4,5.6
		c0.5,0.7,1.1,1.6,0.9,2.5c-0.2,0.1-1.3,0.9-1.5,0.2c-1.6-2.3-2.7-4.9-4.6-7c-2.1-2.4-3.9-5.5-7-6.7c-1.4-0.6-3.4-1.1-4.8-0.9
		c-1,0.1-2.1-0.2-3.1,0C166.7,113,165.8,114.3,164.9,113.9C165.1,112.8,165.8,114.3,164.9,113.9z"/>
	<path class="st6" d="M293.3,102.3c1.1-0.2,4.4,3.3,4.9,4.3c0.2,0.3,0.7,3.8-0.5,2.7c-0.2-0.2-1.6-2.9-1.6-3.1
		c-1,0.2-1.3,4.9-1.5,5.8c-0.9,3.3-2,6.5-2.8,9.7c-1.1,4.4-2.4,8.6-3.7,13c-0.4,1.2-2.7,10.7-5.6,8.2c0.2-1.3,1.6-2.3,2.2-3.5
		c0.5-0.9,0.9-2.3,1.1-3.3c0.8-4.5,2.9-8.7,3.6-13.1c0.5-3.4,2-7,2.8-10.6c0.4-1.9,0.8-3.8,1.1-5.8c0.1-0.8,0.9-2,0.5-2.8
		C293.6,103.4,292.9,102.9,293.3,102.3C293.7,102.2,292.7,103.1,293.3,102.3z"/>
	<path class="st6" d="M225.4,115.9c-0.6,0-0.8,0.8-1.3,0.2c-1.2-0.8-2.4-1.7-3.9-1.1c-1.2,0.4-2,1.4-3,2c-1.7,1-1.5-1.4-0.7-2.2
		c1.9-1.9,3.5-1.8,6.1-1.5C223.7,113.4,225.9,114,225.4,115.9C224.7,115.8,225.7,114.6,225.4,115.9z"/>
	<path class="st6" d="M163.4,114.4c-0.3,2-4.6,2.9-6.2,3.6c-2.6,1.3-5.4,2.9-7.9,4.1c-1.7,0.9-4.6,1.8-6.5,3c-3.2,2.1-6.5,4-9.7,6.1
		c-2.7,1.8-4.8,4.8-5.1,8.1c-0.2,2.1-0.7,4.4-0.7,6.5c0,2.2,0.5,4.6-0.4,6.7c-1.7-0.5-1.2-4.1-1.5-5.4c-2.5,0.1-6.3,3-8.4,4.2
		c-1.8,1-3.7,1.9-5.6,2.7c-0.6,0.3-2.3,0.7-2.6,1.1c-1.1,1.3-3.9,2.1-5.6,2.9c-3.1,1.5-6.3,2.8-9.3,4.5c-4.9,2.7-10,5.7-14.9,8
		c-0.5,0.2-1,0.8-1.4,1.2c-0.6,0.7-1.5,0.6-2.3,1c-0.5,0.3-1.3,0.5-1.3,1.3c-1-0.1-1.8,0.2-2.5,0.9c-3.6,2.8-2.6,7.3-4.6,11
		c-3.5-1.4,0.9-10.7,2.8-11.9c2.6-1.6,5.4-2.8,8-4.3c1.9-1.1,3.7-2.6,5.9-3.6c4.4-1.9,8.7-4.7,12.9-7c4.8-2.7,10.4-5.4,15.1-7.6
		c4.3-2,9-4.6,13.6-6.7c-0.9-5.3,2.2-12.9,6.9-15.1c4.2-2,8.1-4.9,12.2-6.9c3.2-1.7,6.7-3.3,9.9-5.1c1.8-1,3.6-2,5.4-2.9
		c0.7-0.3,1.4-0.6,2.1-0.9C164.3,112.9,161.9,114.2,163.4,114.4C163.2,115.5,162.9,114.3,163.4,114.4z"/>
	<path class="st6" d="M307.4,151.5c-2.1-0.4,1.1-10.2,1.7-11.7c1.3-3,2.1-6.2,3.2-9.3c0.7-1.8,1.3-3.3,1.7-5.2
		c0.5-2.1-0.4-3.3-0.4-5.4c-1.1,0.9-1.7,4.4-2.1,5.7c-1,3-2.1,6-3,9.1c-0.7,2.2-1.2,4.4-1.8,6.6c-0.3,1.1-0.7,2.3-1.2,3.3
		c-0.8,1.5,0.1,3.2-0.7,4.8c-1.1-0.8-1.1-2.5-1.3-3.7c-3.1,0.7-5.7-0.1-8.8-0.6c-2.3-0.4-5.4-3-1.2-2.3c2.3,0.4,4.4,0.4,6.7,0.9
		c3,0.7,4.5,1.1,5-2.6c0.5-4.1,1.7-8.6,3-12.5c0.4-1.2,1.1-3.1,1.7-4.6c1.2-2.9,1.6-6.3,3.1-9.1c-4.5,0.1-8.8,0-13.2-1.1
		c-0.9,4.1-1.6,8.3-3,12.3c1.7,0.8,3.8,0,5.4,1c1.9,1.3-4.1,1.4-4.6,1.3c-1.9-0.2-2.1,3.1-2.9,4.8c-0.5,1-2.5,6.4-3.7,6.5
		c1.4-6.8,3.9-13.4,5.4-20.1c0.4-2,0.8-7.9,3.3-7.8c2.2,0.1,4.8,0.8,6.8,0.7c2.4-0.1,5.7,0.3,7.3,2.1c1.3,1.4,1.4,1.8,1.6,3.8
		c0.1,2,1.1,3.9,0.9,5.8c-0.2,2.1-5.3,18.9-6.4,18.7C310.4,143.8,308.6,151.4,307.4,151.5C306.6,151.4,308.1,151.4,307.4,151.5z"/>
	<path class="st6" d="M213.9,118.7c1,3.1-3.7,5.3-5.8,6.4c-4.1,2.1-8.2,3-12.5,4.4c-1.9,0.6-3.4,1.3-5.5,1.3c-2,0-3.7-1-5.3-1.3
		s-4.4-2.5-4.4-4.4c0-1.3-2.5-4.3-3.8-4.6c-1.1-0.3-4.7-0.8-4.7,0.7c-0.1,1.2,0.2,2.7,0.4,3.9c0.6,3.1,2.1,5.9,3.4,8.9
		c1,2.2,1.7,4.6,3.2,6.6c1,1.3,2.5,3.6,2.9,5.2c4.2-1.1,1.8-5.3,3.7-7.8c1.1,0.1,1.5,4,1.2,4.8c-0.5,1.6-0.9,2.8-2.1,3.7
		c-1.2,0.9-2.7,2.5-4.1,1c-1.6-1.7-2.3-4.1-3.7-5.9c-1.7-2.4-3.2-6.6-4.6-9.7c-1.2-2.5-2.4-5-2.6-7.8c-0.3-3.5-0.6-5.4,3.8-5.7
		c5.4-0.4,7.3,2.7,9.5,6.8c2.3,4.2,8.1,3.6,11.9,2.6c1.8-0.5,3.8-1.1,5.7-1.7c0.8-0.3,4.3-2.2,4.9-2c1,0.3,4.1-1.8,4.9-2.4
		C211.3,120.9,212.5,118.5,213.9,118.7C214.7,120.9,212.7,118.5,213.9,118.7z"/>
	<path class="st6" d="M220.4,122.1c0.4-0.3,0.9-0.5,1.5-0.5c1.2-0.3,0.4-1.1,0.8-2c0.8-1.9,2.2,0.2,2.1,1.4
		C224.5,122.9,220.4,125.2,220.4,122.1C220.9,121.6,220.4,125.5,220.4,122.1z"/>
	<path class="st6" d="M132.3,124.7c0.2,1.6-20.4,5.6-23,5.7c-4,0.2-8.1,1.3-12,1.8c-2.8,0.4-6.9,1.9-9.7,0.4
		c3.3-0.1,6.7-1.6,9.9-2.2c4-0.7,8-1.8,12.1-2.4c4.1-0.6,8.2-1.7,12.2-2.5c2.2-0.4,4.3-1.1,6.5-1.6
		C129.3,123.8,132.8,122.4,132.3,124.7C132.4,126,132.5,124,132.3,124.7z"/>
	<path class="st6" d="M155.8,124.5c1.4,0-0.3,0.9-0.6,1.1c-1.4,0.7-3.1,1.8-4.3,2.4c-1,0.5-2.2,1.6-3,1.9c-0.9,0.4-3.3,2.8-4.2,2.6
		c-1.4-0.2-5.8,4-6.8,5c-1.2,1.2-1,3.4-2.4,4.5c-0.1,1.9-0.4,5.6-3,4.8c0.9-3.3,1.1-7.8,3.5-10.3c1.9-2.1,4.4-3.4,6.8-5
		c2.5-1.7,5.3-3,7.9-4.6c0.8-0.5,1.6-1.3,2.4-1.5C153.2,125.1,154.6,125,155.8,124.5C156,124.5,155.1,124.8,155.8,124.5z"/>
	<path class="st6" d="M221.6,128.6c0.8,1.6-0.3,4.3-0.7,5.8c-0.2,1.1-0.5,2.1,0.2,3c0.6,0.7,0.9,1,0,1.4c-0.8,0.4,5.5,8.3,4.5,10.1
		c-1.2-0.3-2.4-3.5-3.2-4.4c-1.8-2.3-3.7-5.1-4.1-7.9c-0.4-3,2.8-6.2-0.5-7.7c-1.6-0.8-1.4-1.5-0.2-2.6c0.9-0.2,3.2,1.3,3.7,2
		C221.4,128.4,221.5,128.5,221.6,128.6z"/>
	<path class="st6" d="M284.5,146.3c1.1,0.7,2.5,6.8,0.9,6.1C283.4,151.6,283.5,147.9,284.5,146.3C284.6,146.5,283.4,148,284.5,146.3
		z"/>
	<path class="st6" d="M305.6,150.2c-1,3.7-12.6,1.6-14.7-0.2c-0.5-2.4,5.2-0.2,6-0.4C299.8,148.9,302.7,151,305.6,150.2
		C305.1,152.3,303.6,150.8,305.6,150.2z"/>
	<path class="st6" d="M227.3,151.3C228,151.1,227.3,151.6,227.3,151.3c1.1-0.4,4,1.3,5.1,1.7c2.1,0.8,4,0.5,6.1,0.6
		c3.5,0.2,7,0.5,10.5,0.9c1.2,0.1,2.4,0.4,3.6,0.5c3.5,0.2,6.6,1.7,10.3,2c4.2,0.3,8.4-0.6,12.6-0.4c2.1,0.1,4.2,0.3,6.4,0.2
		c0.4,0,1.1-0.3,1.7-0.1c1.4,0.4,2.5-0.5,3.9-0.7c2.5-0.4-0.1,2.2-0.6,2.5c-1.8,1.4-7.6,0.6-10,0.4c-4.1-0.3-7.8-0.2-11.9,0.1
		c-3,0.2-6.1-0.8-9.1-1.3c-3.1-0.5-6.4-0.2-9.5-1c-4-1.1-8-0.9-12.1-1.4C232.3,155,226.9,154.4,227.3,151.3z"/>
	<path class="st6" d="M107.2,160.4c-1.1,1.8-2.2,7.4-5.5,5.8c-1.6-0.8-2.5-1.4-4.4-0.8c-1.9,0.6-4.5,1.2-5.2,3.2
		c-0.6,1.9-0.8,2.9-3,3.7c-2.2,0.9-4.1-0.8-6.4,1.1c-1.3,1.1-3,0.9-4.6,1.8c-1.3,0.8-2.4,2.7-3.9,3c0.7-2.7,4.7-5.3,7.1-6.4
		c1.3-0.5,1.9-1.2,3.3-1.6c1.7-0.5,4.2,0.9,4.9-1c1.4-3.8,3.8-4.7,7.7-6c1.8-0.6,3-0.6,4.6,0.4c1.9,1.1,2.1-1.3,2.3-2.5
		c0.4-2.2,4.9-4.8,6.9-5.3c1.1-0.3,5.3-2.3,5.6-3.4c2.8-0.6-0.6,2.9-0.5,2.8c-0.3,0.7-3.9,2.3-4.8,2.8
		C110.3,158.7,108.1,160.3,107.2,160.4C105.6,163.1,108,160.3,107.2,160.4z"/>
	<path class="st6" d="M122.1,162.1c0.2,3.4-8.1,5.7-10.2,7.1c-0.4,0.3-1.6,0.5-2.1,0.7c-1.6,0.6-2.8-0.9-4.2-0.5
		c-0.5,0.3-1.1,2.3-1.2,2.8c-0.1,0.6-1.8,1.5-2.2,1.7c-2.1,1.3-6.1,4.2-8.5,3.5c-1.8-0.5-2.8,2.5-4.6,3.6c-0.9,0.6-4.3,2.4-5.3,1.6
		c-0.5-0.4-3.5,0.4-4.2,0.5c-0.3,0.1-4.1,0.8-3.4,0.3c3.5-2.6,9-2.3,12.6-4.8c1.6-1.2,1.6-4.7,4.7-3.6c0.9,0.3,5.5-1.1,5.4-2
		c0-0.1,3.3-1.9,3.7-1.9c0-2.3,1.8-4.9,4.4-3.9c1.9,0.7,1.9,0.9,3.9,0c1.4-0.7,2.8-1.5,4.2-2.2C117.2,163.9,120.2,161.4,122.1,162.1
		C122.3,165,121.7,161.9,122.1,162.1z"/>
	<path class="st6" d="M131.4,110.5c-0.7,3.4-18-0.5-20.3-1.1c-7.8-2.1-14-5.2-15.9-13.9c-1-4.4,0.1-7.7,2.5-11.2
		c1-1.4,2-2.5,3.5-3.5c2.6-1.8,4.6-2.2,7.7-2.7c1.8-0.3,5,0.6,6.5-0.2c0.5-0.2,3.3,0.1,3.8,0.5c0.7,0.7,3.7,0.3,4.7,0.3
		c2.4,0.2,4.8,0.2,7.3,0.2c7,0.1,13.6,0.5,20.5,0.9c7.9,0.5,15.3,1.4,23.1,2c7.7,0.6,14.2,3.4,21.8,4c3.1,0.2,6.3,1.2,9.3,2
		c4.2,1.1,8,2.1,11.2,5.3c1.1,1.1,1.6,2.7,2.2,4.3c0.4,1.2,0.9,2.1,0.5,3.4c-0.3,1-2.9,2.5-2.4,0.7c1.2-3.8-2.3-8.8-5.7-10
		c-6.1-2-12.2-3.1-18.5-4.5c-7.2-1.6-14.3-2.4-21.5-3.6c-9.8-1.7-20.2-1.4-30.3-2.1c-7-0.4-14.3-0.7-21.1-1
		c-2.6-0.1-5.3-0.5-7.9-0.4c-1.7,0.1-3.6,0.5-5.1,0.6c-1.1,0.1-0.9,0-1.2,0.2c-0.5,0.3-2,0.6-2.6,0.9c-1.1,0.4-1.6,1.4-2.6,1.9
		c-0.4,0.2-2.7,2.5-2.6,3c0.2,1.1-1.2,3.1-1.3,4.3c-0.3,3.4,0.5,6.5,2.4,9.4c2.5,3.9,6.4,5.3,10.6,6.7c3.2,1,7.2,1.4,10.6,1.9
		C123,109.3,129.8,108.5,131.4,110.5C131.1,112.1,130.8,109.7,131.4,110.5z"/>
	<path class="st6" d="M132.7,116.7C132,117.4,133.1,115.5,132.7,116.7c-0.9,0.8-0.7-1.2-2-0.5c-0.5,0.3-2.2,0.7-2.4,1.1
		c-0.2,0.4-3.9,1.6-4.7,1.8c-4.5,1.3-9.2,1.9-13.8,3c-2.5,0.6-5.1,1.2-7.6,1.5c-1.9,0.3-5.3,1.6-7,1.3c-1.8-0.4-4.6,1.3-6.6,1.3
		c-2.2,0-3.3,1.5-4.5,3.6c-1,2-3.2,3.9-5.7,3.7c-2-0.2-4.2-4-5.8-1.5c-0.5,0.8-1.2,2.3-1.3,3.2c-1.1-0.1-1.8,0.8-2.8,0.9
		c-1.7-1-2.2-1.5-4.2-1.5s-0.9,1.3-2,2.5c-1.4,1.5-5.3-0.2-5.6,0.3c-0.6,1.2-3.8,3.8-1.9,4.8c1.2,0.6,5.3,4.2,6.2,1.9
		c0.9-2.3,4.2-2,4.6,0.6c1.1-0.3,3.3-0.5,3.8-1.5c0.8-1.4,1.2-2.7,3-2.5c1.6,0.1,1.8,2.6,3.3,2.4c1.7-0.3,2.7-0.2,3.6-1.8
		c0.6-1.2,1.2-2.5,2.3-3.3c2.3-1.8,4.7,0.2,6.6,1.5c1.8,1.3,4.1-0.2,6-0.5c3.7-0.6,7.3-1.3,10.9-2.2c3.8-0.9,7.8-2.2,11.6-2.7
		c1.6-0.2,3.5-0.2,5.1-0.8c1-0.4,2.8-0.9,3.7-0.1c1,0.9-5.6,2.6-6.3,2.6c-3.4,0.4-6.6,1-9.8,1.9c-6.3,1.7-13.2,2.2-19.2,4.5
		c-3.1,1.2-5.6-4.6-7.9-1.7c-1,1.2-1.3,2.8-2.2,4.1c-1.7,0.6-3.6,0.2-5.3,0.9c-1.2,0.5-1.8-1.1-2.2-1.8c-0.8-1.1-1.6,1.8-2.5,2.1
		c-2.4,0.8-5.6,2.4-6.8-0.8c-0.9-0.3-2.1,3-4.1,2.2c-1.7-0.7-2.9-1.2-4.3-2.2c-1-0.7-2.3-1.2-3.1-2.2c-1-1.3,0.9-4.1,2.1-4.7
		c-0.2-0.5,1.5-2.6,1.8-3c1.5-1.9,3,0.9,4.7,0.8c0.2-0.4,1.4-3.1,1.3-3.2c1.3-0.6,2.7-0.2,4-0.3c2.2,0,1.3,0.7,3.1,1.3
		c1.1-0.1,1.9-3.4,2.2-4.1c1.7-0.8,5.1-1,6.2,0.8c2.6,4,5.6-3.7,6.7-4.9c1.7-1.9,4.4-1.5,6.7-2c2.6-0.5,5.3-1,7.9-1.4
		c5.1-0.7,10-2.3,15.1-3c2.9-0.4,8.7-1,10.8-2.9c1-0.9,3.5-1.2,4.8-1.7c1.4-0.6,1.7-0.5,2.3-1.7c0.5-0.8,0.3-1.4,0.8-2.1
		c1.2-2.1,2.6-4.1,4-5.9c1.2-1.5,4-5.9,5.5-6.2c1-0.2,2.6-2.3,3.4-3c0.8-0.7,2-1.5,3-1.9c1.9-0.9,3.6-2.3,5.6-2.8
		c2.3-0.5,4.5-1.3,6.9-1.5c7.8-0.7,15.3,0.7,22.1,5c2.2,1.4,3.9,2.5,5.9,4.9c0.7,0.8,4.4,6.5,4.8,6.3c1-0.4,5.7-2.2,6.5-1.4
		c0.4,0.5,3.3-0.2,4.2-0.3c2.9-0.1,5.5,0.1,8.4,1c1,0.3,2.1,0.8,2.7,1.8c0.8,1.3,2.3,0.1,3.9-0.1c3-0.3,4.6,0.6,7.3,1.6
		c1.1-3.9,3.2-7.3,4.8-11c1.3-0.1,3-1.3,4.1-1.9c1.5-0.9,4-0.6,5.6-0.4c2.9,0.4,5.8,1.5,8.7,1.8c6.4,0.6,12.7,1.4,19.1,2.2
		c1.9,0.2,3.8,0.4,5.7,0.7c2.5,0.3,5.1,0.3,7.7,0.5c1.1,0.1,2.4-0.2,3.4,0.3c0.1,0,1.9,1.1,1.1,1.3c-1.8,0.6-4.6,0-6.5,0
		c-2.7,0-4.8-0.2-7.4-0.6c-5.1-0.8-10.5-0.4-15.5-1.4c-1.2-0.2-2.4-0.3-3.6-0.5c-2.6-0.3-5.6-0.4-8.1-1.2c-2.1-0.6-3.9-1.3-6.1-1.3
		s-5.9,1-6.8,3c-1.2,2.8-2.6,5.4-3.8,8.1c-0.4,0.9-0.6,1.9-1.8,1.4c-0.7,0.7-0.4,1.6-1.9,0.8c-2.1-1.1-4.1-1.9-6.5-1.2
		c-1.9,0.5-3.9,2.2-5,3.7c-1.4,1.9-1.5,4.6-3,6.2c-1.3-0.9-1-3.5-0.7-4.8c0.6-2.4,2.8-4,4.6-5.5c-2.8-1.8-7.3-2.6-10.5-2.1
		c-2.6,0.4-5.3,0.4-7.9,0.9c-1.5,0.3-2.5,0-2.3,1.8c0.1,1,0.4,1.9,0.4,2.9c2.9-1.6,6.8-1.4,9.9-1.3c1.7,0.1,2.5-0.4,3.7,1.1
		c1,1.2,0.2,1.7-1.3,1.2c-3.5-1.1-7.9-0.2-11.4,0.8c-2.1,0.6-2.9,6.8-4.4,8.7c-0.4,0.6-1.3,1.6-2.2,0.9c-0.6-1.2,0.9-2.5,1.3-3.5
		c0.9-2.5,2-4.3,2.2-7c0.6-6.1-3.6-12-8.1-15.2c-5.1-3.7-11.6-7-18.4-6.7c-2.7,0.1-5.4,0.3-7.8,0.9c-1.7,0.4-3.4,1-4.9,1.9
		c-0.6,0.4-2.9,0.9-3.2,1.6c-0.1,0.4-2,1.3-2.5,1.7c-1,0.8-2.4,2.1-3.7,2.6c0,0.2-3.1,3.7-3.2,3.7c-1.1-0.2-3.4,4.5-4.1,5.4
		C134.4,111.2,133.7,113.5,132.7,116.7z"/>
	<path class="st6" d="M160.5,88.7c0.3,0,0.5,0.1,0.4,0.4c-3.2,1.9-7.1,1.5-10.5,3c-3.3,1.5-6.7,4.8-9,7.6c-2.8,3.3-4.2,7.1-4.8,11.4
		c-0.2,1.6-0.1,3.2-0.2,4.8c-0.1,2.1-1.8,1.2-2.1-0.3c-1.2-5.4,1.6-12.3,4.9-16.4c2.5-3.2,6-5.1,8.7-7.6
		C150.9,88.9,156.9,89.1,160.5,88.7C160.9,88.6,158.8,88.9,160.5,88.7z"/>
	<path class="st6" d="M69.8,189.5c-0.2-1.1,2.7-1.3,3.3-1.3c2.3,0.3,3.5-0.6,5.6-1.6c5-2.3,10.2-4.3,15.2-6.7
		c4.4-2.1,8.8-4.3,13.1-6.7c3.2-1.7,6-3.8,9.2-5.2c2.5-1.1,4.8-2.2,7-3.2c0.9-0.4,1.5-1.1,2.4-1.5c1.5-0.8,5.9-1.8,4.7-3.7
		c-0.7-1.1-2.1-2.8-1.2-4.1c1.1-1.7,2.5,2.6,3.2,3.5c1.3,1.6,1.7,3,3.6,4c0.3,0.1,3.4,1.7,3.3,1.8c-0.1,0.7,6.1,3.1,6.9,3.5
		c2.8,1.4,6,1.7,9.4,1.2c3.6-0.5,7-2.6,10.3-3.4c4.2-1,9-3.9,12.6-6.3c4.2-2.8,8.6-5,12.1-8.7c3-3.2,2-7.9,1.2-11.6
		c-0.3-1.6-0.2-2.6-2-2.5c-1.2,0.1-2.4,0.1-3.7,0.1c-2-0.1-4.5-1.1-6.2-2.3c-2-1.4-5.9-8.2-4.1-10.5c1.4-1.8,2.4,2.2,2.6,3
		c0.5,2.2,1.3,4.7,3.2,6c1.8,1.2,4.6,1.7,6.7,1.7c5.2,0.1,9.7-1.9,14.5-3.3c3-0.9,7.7-3.9,10.1-5.9c1.2-1,3.4-2.4,4.1-3.7
		c0.3-0.7,0.6-1.4,1-2c1.1-1.5,2,0.1,1.4,1.4c-1.1,2.1-3.3,3.9-4.9,5.5c-2,2-4.6,3.1-7.2,4.6c-1.9,1.1-6.8,4.1-8.4,3.5
		c0.3,1-5.5,1.7-6.3,1.9c2.7,6.6,2.7,12.7-3,17.5c-4.2,3.5-8.8,6.2-13.6,8.9c-6.9,3.9-15.7,8.3-23.8,8.7c-3.5,0.2-6.2-1.1-8.9-2.5
		c-3.3-1.6-9.9-3.9-11.3-7.5c-3,1.6-6.7,3.6-9.3,5c-2.7,1.4-5.8,3-8.8,4.6c-4.8,2.6-9.4,4.8-14.3,7.5c-2,1.1-4.4,1.7-6.4,2.9
		c-2.6,1.5-4.7,2.2-7.6,3.4c-2.4,1-6.2,1.9-8.1,3.8C74.9,191.8,72.6,188.7,69.8,189.5C69.8,188.9,72,188.8,69.8,189.5z"/>
	<path class="st6" d="M223.2,138.3C224.5,138.3,223.2,138.6,223.2,138.3c1.5-0.1,2.9,1,4.3,1.3c2.1,0.4,4.3,0.5,6.4,0.7
		c3,0.3,6.2,0.9,9.1,1c5.1,0.3,10.2,0.4,15.3,0.5c2.3,0,4.6-0.3,6.9,0c0.9,0.1,1.6,0.5,2.4,0.7c2.5,0.7,5.1-0.3,7.7,0
		c0.6,0.1,3,0.1,3.5,0.5c1.2,1-7.5,1.6-8.3,1.6c-3.1,0.2-6-0.7-9-0.8c-3,0-6.1,0.3-9,0c-1.2-0.1-2.3-0.5-3.5-0.6s-2.4,0.2-3.6,0.1
		c-5-0.5-9.9-1.5-14.9-1.9C228.5,141.6,223.2,141.3,223.2,138.3z"/>
</g>
</svg>
