<?xml version="1.0" encoding="utf-8"?>
<!-- Generator: Adobe Illustrator 21.1.0, SVG Export Plug-In . SVG Version: 6.00 Build 0)  -->
<svg version="1.1" id="Layer_1" xmlns="http://www.w3.org/2000/svg" xmlns:xlink="http://www.w3.org/1999/xlink" x="0px" y="0px"
	 viewBox="0 0 360 236" style="enable-background:new 0 0 360 236;" xml:space="preserve">
<style type="text/css">
	.st0{fill:#E7ECEF;}
	.st1{fill:#FFFFFF;}
	.st2{fill:#CECECD;}
	.st3{fill:#A3D2EC;}
	.st4{fill:#A6D2A8;}
	.st5{fill:#EA9B95;}
	.st6{fill:#F4F4C2;}
	.st7{fill:#747E91;}
</style>
<g>
	<path class="st0" d="M31.6,117.7c9.3-6.9,20.6,6.2,23.7-5.7c2.4-9-11.7-19.9,5-23c4.6-0.8,9.5,2.9,13.9,0.6
		c5.9-3.1,5.1-13.5,5.1-19.4c0-9-0.7-10.1,7.6-14.7c4.6-2.5,11.9-6.9,17.4-5.8c4.2,0.8,1.1,1.5,4.4,3.5c7.5,4.5,6,4.7,12.4-1.1
		c6.1-5.6,9.9-14.8,18-17.5c21.6-7,8.8,16.9,21.3,20.1c7.3,1.9,13-5.4,21.2-2.8c8.3,2.6,6,11.5,12.2,16.1
		c13.1,9.6,27-19.3,35.5-23.8c13.7-7.3,25.8-0.8,35.6,9.7c7.6,8.1,2.8,11.3,6.7,20.2c3,6.7,12.5,13.6,19.6,13
		c7.4-0.7,16.7-9,24.2-5.9c3.2,1.3,7.9,9.2,7,12.8c-1.3,5.8-8.5,4.9-10.1,11c-3.6,13.2,17.3,9.4,13.8,20.7
		c-1.9,6.2-9.1,6.1-6.9,14.6c1.5,5.7,7,6.8,10.7,10.8c11.4,12.5,0.4,22.1-13.4,21.9c-6.2-0.1-16.8-7.8-21.4-2.3
		c-3.5,4.1,0.5,13.3-3.7,18.4c-14.4,17.6-40.7-1.7-55.7-5c-10.7-2.4-16.6-3.4-24.3,2.7c-5,3.9-9.5,8-16.1,9.2c-14.5,2.7-23.5-8-35-8
		c-7.3,0-8.9,5.7-14.9,8.7c-8,4.1-19.6,3.1-26.6-3c-4.5-3.9-7.3-10.9-13.3-12.8c-10.8-3.3-10.5,3-15.5,8.9
		c-8.5,9.9-24.9,4.2-34.2-0.8c-10.1-5.4-11.6-11.8-6-21.5c2.8-4.9,11.2-10.1,9.7-16.5c-2.5-10.9-17.8,1.3-24.1-1.2
		c-3.7-1.4-8.6-8.7-10.5-12.2C20.3,129.4,24.5,122.9,31.6,117.7z"/>
	<path class="st0" d="M196.6,48c4.3-1,13-10.5,9.5-15.2C197,20.7,175.3,52.7,196.6,48z"/>
	<path class="st1" d="M239.7,65c-13.8,0-29.2,0.1-42.7-2.8c-13-2.8-26-0.2-39.2,0.7c-3.6,0.2-7.2,0.2-10.8,0.1
		c-12.7-0.1-25.5,4.5-38.1,5.3c-6.9,0.5-14.7,0-21.9,1.5c-7.3,1.5-8.2,5.3-9,12.1c-1.1,9.4,0.4,19,0.4,28.4c0,8.6,0,17.3,0,25.9
		c0,11,1.5,21.5,2.7,31.9c0.7,5.7-0.1,14.4,4.9,18.4c7,5.5,19.4-3.5,26.3,0.4c0.5-0.2,1-0.1,1.3,0.3c0.4,2.9,0.4,4.4-0.1,7.1
		c-0.5,2.8-2.9,4.3-1.8,7.7c2,6.6,14.5,4.3,20.4,4.3c14.5-0.2,29,1.4,43.5,1.4c9.2,0,21.7,0.4,30.2-3.3c7.8-3.4,7-8,7.3-15.9
		c4.1-1.6,10.8-2.9,14.5-3.4c-0.5,10.4,13.9,16.2,21.4,21.2c6,4,12.6,5.2,17.6-0.7c11.8-13.8,19.4-31.5,30.9-46.3
		c3.7-4.7,8.8-10.5,4.9-16.4c-1.5-2.3-4.2-3-6.2-4.7c-2.7-2.4-4.6-4.9-7.3-7.1c-4.6-3.8-9.5-7.6-15.2-8.8c-7.3-1.6-8.3,1.8-13.5,5.8
		c-1.4,1.1-2.3,2.2-3.7,2.8c-1-6.5,0.8-13.6-0.1-20.5c-0.9-7-0.7-14.3-0.7-21.5c0-3-1.1-5.4-1.4-7.4c-0.5-3.9,1.3-9.3-0.4-12.8
		C251.3,63.5,244.7,65,239.7,65z"/>
	<path class="st2" d="M254.9,77.3c-1.1-4.1,0.4-8.6-3.9-10.8c-4.4-2.3-15.6-0.2-20.5-0.2c-18.3,0-36.7-0.4-55-0.6
		c-16.9-0.2-33.7,1.8-50.6,2.6c-9.6,0.5-20.6,2.4-29.5,5.8c-12.1,4.7-11,9.2-11,21.3c0,19.9-2,39.7-2,59.5c0,7.1-1.3,22.1,4.2,27.1
		c4.9,4.5,23.1,2.9,30.1,3.7c6.9,0.8,13.8,1.5,20.8,1.8c2.3,0.1,9.4,0.4,9.4,3.5c-0.1,4.9-20.4,5.7-23.8,7.2V197
		c-1.9,2.7-3.9,4.3-3.2,7.9c22.7,1.8,46-1.8,68.7-2.6c3.7-0.1,24.5,2.4,23.9-4c-0.6-6.8-9-3.2-12.7-5c-4.7-2.3-4.6-6.1,0.3-7.5
		c4.6-1.3,10.3-0.7,15.1-0.9c7.8-0.2,18.6-1.2,16.5-11.8c-10.5-0.6-21.4,1.9-32.1,1.9c-14.8,0-29-1-43.5-2
		c-20.3-1.4-41.3-1.5-61.5-2.1c-0.6-9.1,1.9-17.2,1.9-25.9c-0.1-9.8-0.7-19.5-0.7-29.3c0-7.4-1.6-23.2,3.4-29.8
		c2.4-3.1,7.1-3.3,10.5-3.5c7.8-0.5,15.5-0.8,23.3-1.3c27.3-1.7,54-3.8,81.5-2.6c5.6,0.2,21.2-3.1,25.8,0.1
		c5.2,3.5,3.5,14.6,3.5,19.9c0,14.3-0.7,28.3,2.8,41.9c11.6,2.4,9.9-13.3,9.9-20.3C256.3,105.8,258.4,90.6,254.9,77.3z"/>
	<path class="st2" d="M285.8,179.4c9.3-13.1,22.8-28.3,4.8-40.3c-6.4-4.2-11.1-8.4-18.4-10.9c-7.4-2.5-11.3,4.1-15.9,10
		c-8.2,10.4-14.4,22.2-21.9,32.9c-2.9,4.1-6.3,11-4.8,16.5c1.8,6.7,12.8,12,19,15.3c5.7,3.1,8.9,5.1,14.8,1.8
		C272.4,199.9,279.9,187.7,285.8,179.4z"/>
	<path class="st1" d="M275.9,174.6c3.7-6.8,9.9-13.2,14-19.6c4.1-6.5,0.1-7.8-6-11.5c-4.3-2.6-9.1-8.8-14.2-8.5
		c-5.7,0.3-8.5,9.5-11.3,13.8c-3.2,4.9-6.8,9.7-9.8,15.1c-2.1,3.7-8.9,10.4-7.4,15c1.6,5,13.7,13,19,12.7
		C266.4,191.2,273.1,179.7,275.9,174.6z"/>
	<path class="st3" d="M125.7,95c-11.1-2-22.4,6.7-25.5,17.2c-2.4,8.1,0.4,13,6.3,18.6c2.1,2,5.6,6,8.7,6c4.7,0,10.6-8.4,12.3-12.5
		c3.8-9.1-0.4-21.7-1.1-30.7"/>
	<path class="st4" d="M131.8,119.5c-0.5-8-2.9-20.4,1.3-27c3.7-5.8,21.6,6.6,23.6,10.2c3.3,5.8,1.6,7.8-3.7,9.8
		C146.2,115.1,139.1,118.3,131.8,119.5z"/>
	<path class="st5" d="M158.3,129.1c-0.7,13.6-39.6,32.3-39.9,17.1c-0.1-3.9,3.3-6.1,5-9.2c2.2-4,2-8.3,7-9.9
		c4.6-1.5,10.9,1.5,15.4,1.8C149.8,129.2,154.1,128.9,158.3,129.1z"/>
	<path class="st5" d="M276.9,158.8c0.5-2.5-4.7-6.5-6.8-6.8c-0.7-0.1-7.5,0.9-7.4,1.4c0.2,4.5,5.1,7,9,7.3
		C273.7,160.8,276.5,161,276.9,158.8z"/>
	<path class="st3" d="M266.3,147.3c0.9,6.2,8.3,0.1,9.7-2.7C279.8,137.3,265.4,140.7,266.3,147.3z"/>
	<path class="st4" d="M274.7,150c2.6,1.5,7.4,2.7,8.4-0.9c0.7-2.6-0.7-4.6-3.3-4.8c-2.2-0.2-3,1.2-4.4,2.6
		C273.8,148.3,272.5,148.7,274.7,150z"/>
	<path class="st4" d="M181.2,141c4.3,0.1,8.5-0.6,12.8-0.7c6.8-0.2,14.1,1,20.8,0c2.5-0.4,5-1.6,7.6-2c2.3-0.4,4.5,0,6.5-1
		c-0.1-1.1,0.1-2.3,0.4-3.2c-7.6-0.5-15.4-1.4-23-0.4c-5.1,0.7-10.3,1.3-15.3,1.6c-2.7,0.2-5.4,0-8.1,0.2c-1.8,0.2-4.1,0.1-5.3,1.7
		C175.5,140.2,178.8,141,181.2,141z"/>
	<path class="st3" d="M186.7,156c7.4-0.1,15.2-0.1,22.5-0.9c4.5-0.5,8.8-1.7,13.4-2c3.6-0.3,5.9,0.3,5.6-4
		c-8.7-0.5-17.8-0.9-26.5,0.3c-5.1,0.7-10.1,1.3-15.2,1.9c-2,0.3-5.9-0.3-7.3,1.7C176.5,157.4,184.8,156,186.7,156z"/>
	<path class="st4" d="M199.7,89.9c-6.1,0.3-12.2,1.1-18.2,1.3c-5.1,0.2-5.8,2.2-6,7.1c-0.2,5.1-0.8,10.6,0.9,15.6
		c12.2,2.9,29.5,1.3,42.2-1.1c4.2-0.8,8.6-0.5,12.8-1.3c3.1-0.6,3.7-0.9,4.4-3.9c1.3-5.6,0.3-14.2-0.1-20c-6-0.5-11.6,1.5-17.5,1.9
		C212,89.9,205.8,89.6,199.7,89.9z"/>
	<path class="st4" d="M270.8,170.1c-0.2,0.3-13.5-8.2-15.1-7.9c-1.2,0.2-6.9,6-5.9,7.3c3.4,4.4,11.5,5.6,15.4,9.5
		C267.4,176.6,269.3,173,270.8,170.1z"/>
	<path class="st6" d="M154.3,122.3c6.4,0,7.2-3,6.6-9.2c-5.7-0.5-16.6,1.9-18.8,7.9C145.4,122.9,150.4,122.3,154.3,122.3z"/>
	<path class="st6" d="M275.7,153c-0.1,11.9,13.4-1.5,1.3,0"/>
	<path class="st7" d="M253.9,66.8c2.2,5,0.7,11.7,1,17c0.2,5.6,0.4,11.1,0.8,16.7c0.5,5.9,0.5,11.9,0.6,17.8
		c0.1,2.9,0.1,5.8,0.1,8.7c0,1.9,0.6,5-1.3,6.3c-1-1.4-0.6-4.7-0.6-6.4c-0.1-1.3-0.7-4.2-0.2-5.4c0.5-1.1-0.2-4.4-0.1-5.7
		c0.1-3.2-0.2-6.5-0.4-9.7c-0.4-6-0.7-12.1-0.9-18.1c-0.1-2.9-0.3-5.7-0.4-8.6c-0.1-3.2,0.7-6.6,0.2-9.8c-0.5-2.7-5.3-1.7-7.5-1.5
		c-2.9,0.2-5.7,0.1-8.7,0.1c-6,0-12,0.4-18.1,0.3c-5.4,0-10.9-0.1-16.3-0.1c-2.8,0-5.6,0.2-8.4,0.2c-3.2,0.1-7.3-0.4-10.2,0.5
		c-4.9,1.5-11.4,1-16.5,1.2c-1.4,0-10.3,1-10.7,0.4c-0.2-0.3-3.3,0.2-4.1,0.3c-2.3,0.2-4.6,0.1-6.8,0.1c-1.4,0-4.2-0.4-5.4,0
		c-1,0.4-6.3,0.3-6.4,0.5c0-0.1-5.4,0.5-5.9,0.5c-3.2,0.3-6.8-0.3-10,0.4c-1.6,0.4-3.2-0.4-4.8,0c-1.5,0.4-3.5,0.4-5.1,0.3
		c-4,0-7.9,0-12,0.4c-2.9,0.3-5.8-0.4-8.5,0.3c-3.9,1.1-4.6-1.4-0.6-2.2c3.9-0.8,8.1-0.4,12-0.5c5.2-0.1,10.3-0.5,15.5-0.5
		c16.8-0.1,34.4-1.9,51.6-2.4c14.6-0.4,28.4-2.1,43.3-1.9c6.8,0.1,13.3,0.2,19.9,0.2c4,0,8,0,12,0C245.2,66.6,249.6,65.9,253.9,66.8
		C255.1,69.6,251.9,66.4,253.9,66.8z"/>
	<path class="st7" d="M83.3,183.7c-1.1-1.8-0.8-4-1-6c-0.2-2.7-0.6-5.3-0.3-8c0.6-5-0.2-10.2,0-15.2c0.3-5.3-0.2-10.8-0.6-16.1
		c-0.4-5.8-0.1-11.7-0.1-17.5c-0.1-9.4-0.4-18.5,0-27.8c0.2-5-0.9-9.9-1-14.9c0-1.7,0.1-4.1,1.9-4.1c0.1,2.6,0.4,5.3,0.7,7.9
		c1.1,9.9,0.4,19.8,0.4,29.8c0,8.8-0.2,17.9,0.4,26.7c0.6,8.8,0.3,18.1,0.2,27.1c0,2.7-0.1,5.5,0.1,7.9
		C84.3,175.5,86,182.5,83.3,183.7C82.2,182,85.1,182.9,83.3,183.7z"/>
	<path class="st7" d="M216,75c-0.3,1.3-1.7,1.5-2.4,0.4C212.5,73.7,215.2,73.9,216,75C215.9,75.6,215.6,74.4,216,75z"/>
	<path class="st7" d="M174.5,118.2c-0.9,0-2.3-5.1-2.4-6c-0.4-4.4,0-8.8-0.2-13.2c-0.2-3.3-0.9-6.9-0.5-10.1c0.5-3.6,4-1.3,6.8-1.4
		c7.3-0.4,14.7-1.4,22-1.4c6.2,0,12.5,0.3,18.6-0.4c5.4-0.6,10.8-0.2,16.3-1c3.4-0.5,4,2.4,4.3,4.9c0.2,1.6-0.7,7.8,0.3,8.5
		c0.2,0.1,0,6.5,0.1,7.3c0.2,1.3,0.5,2.9-0.1,4.1c-1.2,2.4-1.7-1.6-1.8-2.3c-0.8-6.8-0.9-14.1-0.5-20.9c-7.1,0.7-13.8,0.7-21,1
		c-5.1,0.2-10.4,1-15.5,0.3c-2.3-0.3-5,0.6-7.4,0.6c-0.9,0-2.7,0.4-3.6,0.3c-2.2-0.3-6.4,0-9.1,0.2c-1.9,0.2-7.1-0.3-7.2,1.8
		c-0.1,2.8,0.4,6,0.5,8.8c0.1,2.9,0.5,5.8,0.5,8.6c0,2.9-0.4,5.9,0.5,8.6c0.7,0.5,5.3-0.1,6.5,0c2.9,0.2,5.8-0.4,8.7-0.5
		c5-0.1,10,0.2,15-0.3c3.2-0.3,6.4-0.3,9.5-0.8c1.9-0.3,4.3-0.1,6-0.7c2.7-0.9,5.7-0.2,8.4-1.1c1.8-0.6,4-0.7,5.9-0.6
		c2.4,0.1,2.2,1.5,0.2,1.7c-1.5,0.1-4.3,0.5-6.2,0.7c-4.7,0.4-9.4,0.9-14.2,1.4c-2.9,0.3-5.8,0.3-8.6,0.7c-1.2,0.2-6.6,1.3-7.3,0.4
		c-0.3-0.5-9.7-0.1-10.9,0C183.5,117.7,179,118,174.5,118.2C173.3,118.2,175.6,118.1,174.5,118.2z"/>
	<path class="st7" d="M233.8,98.3c-1-0.9-3.6-5.8-4.3-5.2c-1.6,1.3-5.3,4.3-5.8,6.3c-0.6,2-3.1,5.2-5,6.1c-1.3-0.4-1.6-1.9-2.9-2.4
		c-1-0.2-0.4,1.2-1.2,1.2c-1.8,0.9-3.3,5.3-4.3,1.2c-0.7-3.1-1.6-6.4-3.4-9.1c-1.6,0-3.7,3.9-4.6,5c-1.4,1.8-2.8,3.6-4.1,5.4
		c-1.7,2.4-2.7,2.8-4.4,0.3c-1.4-2.2-3.3,2.2-5,2.1c-0.8-0.1-2.2-2.1-2.7-2.9c-0.8-1.3-4.6,2.9-5.3,3.8c-0.3,0.4-1.5,2.3-2.2,2.3
		c-2.2-0.1,0-1.9,0.4-2.3c1.5-1.6,3-3.1,4.8-4.5c2.1-1.7,1.7-3.1,3.6-0.3c1.1,1.6,1.6,2.5,3.3,0.9c1-0.9,1.8-2.1,3.2-2.4
		c0.1,1.5,1.4,2.1,1.9,3.4c4-3.6,6.4-8.8,10.8-12c1.9-1.5,1.4-2.4,1.9,0.2c1.4,2.8,2.3,5.9,3.4,8.9c1.6-0.7,2.7-3.8,4.4-3.2
		c1.1,0.4,2.1,2.9,3.2,1.9c0.4-0.4,1.5-1.9,1.7-2.3c1.1-2.5,3.2-4.4,5-6.5c0.6-0.7,0.7-1.6,1.7-2c-0.1,0,1.7-1.9,1.7-1.8
		C231.8,90.1,235.3,97.2,233.8,98.3C233,97.6,235.4,97.1,233.8,98.3z"/>
	<path class="st7" d="M149.8,99.2c-1.5,0.5-2.7-1.1-3.9-1.5c-1.6-0.6-3.1-1.5-4.7-2.2c-3.2-1.2-6.8-2.5-10.1-2.5
		c-4.5,0-9.1,0.6-13.2,2.6c-1.2,0.6-4.7,2.5-5,3.6c-0.3,1-2.2,2.1-2.9,2.8c-1.2,1.3-2,2.7-3,4.2c-2.8,4.1-5.6,9.3-5.8,14.4
		c-0.1,2.3,0.4,4.6,0.7,6.8c0.2,1.2,0.1,2.6,0.5,3.8c0.3,1.1,1.1,2,1.4,3.1c1.1,4.2,5.6,7.4,8.6,10.2c5.4,5.1,15.6,6.8,22.8,5.9
		c3.5-0.5,7.8-2.2,10.6-4.6c1.5-1.3,3.9-2.5,4.7-4.3c0.2-0.5,2.2-2.4,2.3-2.4c1.9,0.4,4.1-8.8,4.7-10.1c1.4-3.2,1.2-9.1,1.1-12.5
		c-0.1-2.8-1.2-5.1-2.2-7.6c-0.6-1.6-2.2-4.2-2.4-5.8c3.8-0.3,5,6.1,5.9,8.8c1.3,4.1,0.8,8.6,0.4,12.8c-0.8,8.7-5,16.5-12.2,21.7
		c-2.6,1.9-5.3,3.4-8.3,5.1c-1.8,1-4.5,0.8-6.5,1.4c-0.7,0.2-4.4,0.2-4.8-0.3c-0.3-0.4-1.8-0.2-2.3-0.2c-1.9-0.1-4.2-0.5-6-1.2
		c-2.8-1.1-5.9-1.9-8.2-4c-3.2-2.9-7.8-5.6-9.4-9.9c-0.8-2.2-2.6-4.6-2.7-7c-0.1-2.8-0.8-5.5-0.9-8.4c-0.2-8.1,4.7-16.3,10.1-22
		c5.3-5.6,12.9-9.2,20.7-9c4.9,0.1,8.9,2,13.3,3.4C144.9,94.8,149.7,96.7,149.8,99.2C148.4,99.7,149.7,96.7,149.8,99.2z"/>
	<path class="st7" d="M127.2,95.9c1.3-0.2,3.3,24,1.1,27.7c-4,6.6-7,13.4-11.6,19.8c-0.4-0.6-1-0.8-1.7-0.7c-0.4-0.6,0.8-2,1-2.4
		c1.1-2,2.3-3.8,3.4-5.8c2.4-4.3,5.2-8.3,7.7-12.5c0.8-1.4,0.1-3.5,0.1-5.2c0-2-0.3-4-0.2-6c0-2.7-0.1-5.4-0.3-8.1
		c-0.1-1.6-0.2-3.2-0.2-4.8C126.4,94.2,126.9,97.5,127.2,95.9C127.6,95.8,127.2,96.2,127.2,95.9z"/>
	<path class="st7" d="M154.8,115.6c-0.6,0-0.9,0.8-1.5,0.8c-1,0.1-2.1,0.4-3,0.6c-1.3,0.3-3,1.3-4.3,1.2c-2.1-0.2-4.4,1.3-6.5,1.4
		c-2,0.1-4,1.2-6.1,1c-3.4-0.4,2-2.2,2.8-2.3c3.1-0.5,6.7-0.6,9.6-1.7C146.9,116.1,154.2,113.4,154.8,115.6
		C154.2,115.5,154.4,114.1,154.8,115.6z"/>
	<path class="st7" d="M156.3,125.6c0,3.1-10-0.6-11.8-0.7c-3.7-0.2-11.3,0.4-14.1-2.6c-1.4-1.5,0.6-2.3,1.7-0.9
		c1,1.4,7.2,1.3,8.9,1.4c2.9,0.2,5.9,0.7,8.8,1.2C151.2,124.2,155.4,124.3,156.3,125.6C156.2,127.5,155.6,124.6,156.3,125.6z"/>
	<path class="st7" d="M238.3,129c-4.8,0.9-10.4,0.4-15.4,0c0,0.6-12.5,0.4-14.5,0.5c-7.9,0.2-16.2,0.2-23.9,0.9
		c-2.1,0.2-3.7,0.5-6,0.5c-4.9-0.1-1.5,1.9-1.9,4.8c4.5-0.9,9.9-1,14.4-1.2c5.4-0.2,10.9-0.1,16.3-0.7c5.4-0.6,11-0.8,16.5-0.5
		c1.4,0.1,2.8,0.1,4.2,0.2c1.9,0.1,3.9-0.6,4.3,1.5c0.2,1.1,0.5,2.5,0.1,3.6c-0.6,1.7,0.7,1,0.4,2.3c-2.7-0.3-4.8,0.2-6.7,0.5
		c-5.8,0.7-12.3-1-17.9,0.6c-2,0.6-4.9,0.6-7.1,0.8c-4,0.4-8,0-12,0.6c-2.6,0.3-5.1,0.4-7.7,0.4c-1.8,0-3.9-0.3-3.9,1.5
		c-0.1,1.5,0,3-0.2,4.5c2.7,0.1,5.8-0.1,8.4-0.7c1.9-0.5,3.9,0.1,5.8-0.2c5.4-0.9,10.8-1,16.3-0.8c5.3,0.2,11-0.3,16.3-0.7
		c1.9-0.2,6.5-0.4,7,1.6c0.6,2.3-0.5,3.9-0.3,5.6c0.1,0.7-13.6,1.5-15.4,1.6c-4.8,0-9.8,1.7-14.6,1.6c-3.3-0.1-6.8,0.4-10.1,0.5
		c-2.9,0.1-5.7,0.4-8.6,0.5c-1.4,0-2.7,0.1-4,0.5c-2.5,0.6-0.9,2.4-2.1,4.3c3.6,0.5,7.9-0.6,11.6-0.9c5.5-0.3,10.7-1.5,16.3-1.5
		c5.7,0,11.3-0.4,17-0.6c2.4-0.1,10.2-1.3,12,0.5c-0.3,2.1-12.3,1-14.2,1.2c-4.4,0.5-9.3,0.7-13.9,1c-4.2,0.2-8.7,0.1-12.7,0.2
		c-2.1,0-4.4,0.8-6.4,1.1c-3.4,0.5-7-0.1-10.4,0.6c0.3-1-0.4-0.9-1-1.2c0-1.4,0-2.8,0-4.1c0.1-3.1,0.4-6.3,0.6-9.4
		c0.3-5.6-0.8-10.7-1.3-16c-0.1-1.6,0-3.2,0-4.8c1.4-0.5,3-0.6,4.5-0.5c1.5,0,3.4,0.2,4.9-0.2c3.9-1,8.8-0.8,12.7-1
		c2.6-0.2,5.6-0.3,8.5-0.3c2.2,0,5.3-0.6,7.4,0c1.8,0.6,3.4-0.4,5-0.5C219.4,127.1,238.6,127.8,238.3,129
		C236.2,129.4,238.5,128.2,238.3,129z M223.7,134.5c-7,0.1-14.9-0.1-21.7,1.4c-3.5,0.8-7.8,0.2-11.4,0.3c-1.7,0-3.3,0.6-5,0.7
		c-1.3,0.1-2.5-0.2-3.8-0.2c-1.6-0.1-3.3,0.9-4.9,0.5c0.4,1.7-0.5,5.4,1.8,5.2c2.7-0.2,5.4-0.1,8-0.3c2.1-0.1,4.3-0.4,6.4-0.6
		c2.4-0.3,4.8,0.5,7.2-0.3c2.6-0.8,5.7-0.5,8.4-0.9c3-0.5,5.8-0.5,8.8-0.3c4.5,0.2,8.8-0.4,13.3-0.7c-1.1-1.3-0.3-2.9-0.7-4.3
		C227.9,135.4,225.9,134.5,223.7,134.5C222.7,134.5,225.5,134.5,223.7,134.5z M227.8,148.9c-3.2-0.2-6.4,0.4-9.6,0.3
		c-2.9-0.1-5.7,0.8-8.6,0.7c-2.1-0.1-4.2,0.1-6.3-0.1c-2-0.2-4,0.2-6.2,0.3c-2.4,0.1-5,0.3-7.3,0.6c-0.9,0.1-2.7,0.7-3.4,0.3
		c-0.5-0.3-4.5,0.4-5.2,0.6c-1.9,0.7-3.5-0.8-3.6,1.5c-0.1,1.5-0.5,2.9-0.5,4.5c2.3,0.2,5-0.6,7.4-0.7c3.3-0.1,6.6-0.1,10-0.2
		c5.5-0.2,11.1-0.8,16.5-1.5c3.1-0.4,6.2-0.3,9.3-0.7c2.3-0.3,4.5-0.4,6.8-0.4c4.2,0,2.1-2.2,2.4-5.1
		C228.7,149,228.3,149,227.8,148.9C226.7,148.9,228.3,148.9,227.8,148.9z"/>
	<path class="st7" d="M276,141.5c-0.3,0.3-3.3-0.3-4-0.3c-2,0.1-3.4,0.7-4.8,2.1c-1.4,1.4-2.3,3.1-2.7,5c-0.7,3.1,0.6,2.9,3.4,2.6
		c4.2-0.4,4.7-3.9,7-6.7c1.3-1.6,3.2,0.3,1.1,1.4c-0.2,1.4-2.4,3.7-3.4,4.6c2.5,0.4,5,0.5,7.4,0.7c0.2,1-0.7,1-1.4,1
		c0.1,1,1.9,0.1,1.9,1.2c-1.1,1.1-5.4-0.5-6.7-1c0.3,1.5,3.1,3.6,2.4,5c-2.3-0.2-2.6-2.6-4.3-3.6c0.1-3-5.5-0.9-7.4-0.7
		c0.8,5.2,8.1,8.9,12.5,6.2c3.2-1.9,5-5.9,5-9.4c0-3.3-1.9-3.3-3.9-5.3c-2.7-2.7,1.4-1.2,1.6-1.3c1.4-0.5,4.2,3.7,4.2,4.9
		c0.1,2.4-0.7,4.9-1.7,7.1c-1.2,2.5-3.6,5.4-6.6,6.3c-5.8,1.6-11.8-2.6-13.1-8.2c-0.9-4-0.1-9.4,3.4-12
		C267.3,140.3,277.4,137.2,276,141.5C275.2,142.3,276.5,140,276,141.5z"/>
	<path class="st7" d="M249.9,142.7C245.2,142.9,252.8,139,249.9,142.7C249.3,142.7,250.4,142,249.9,142.7z"/>
	<path class="st7" d="M273.9,170.1c0.3,0.2,0.4,0.5,0.2,1.2c-0.5,1.5-1.4,2.8-2.5,3.9c-0.2,0.2-3,4.5-3.2,3.4
		c-0.1-0.4,1.2-2.6,1.4-2.9c0.5-0.9,1.1-1.9,1.7-2.7c0.5-0.6,1.3-0.9,1.2-1.7c0-1.2-2-1.8-2.9-2.3c-0.8-0.5-1.3-1-2.1-1.4
		c-1.2-0.6-2.3-1.2-3.4-2c-1.6-1.1-3-2.2-4.7-3.2c-0.9-0.5-1.7-1.5-2.7-1.9c-0.6-0.2-1,0.1-1.2,0.6c-0.3,0.5-0.6,1-0.9,1.5
		c-1.1,1.7,0.4,2.5,0.3,4.4c1.2-0.1,2.5-0.3,3.6-0.7c0.9,0.7,0.4,2.4,0.7,3.4c1.1-0.4,2.4-0.5,3.6-0.7c1-0.4,1.4-1.2,2.6-1
		c0,1.5-0.8,2.8-1,4.3c1.1,0.5,4.2-1.4,4.5,0c0.1,0.6,0.1,4.6-1.3,3.5c-1.7-1.3,0.8-2.7-2.6-1.8c-3.6,1-2.2-1.8-1.8-4.1
		c-2.1-0.2-5.2,3.6-5.6,0c-0.2-1.3-0.7-2-2-1.1c-2,1.2-2.6-1.3-2.7-2.9c-0.8,0.1-2.1,3.6-2.3,3.5c2,0.7,4.5,2.6,6.9,3.5
		c2.9,1.1,5,4,7.8,5.1c1.7,0.7,1,2.7-1.1,1.6c-1.9-1-3.5-2.5-5.4-3.4c-1.4-0.7-3.2-1.8-4.4-3c-1,0.4-4-1.9-4.7-2.5s-1.1-0.7-0.4-1.5
		c0.6-0.6,0.9-1.2,1.3-1.9c0.5-0.9,1.3-1.5,1.7-2.4c0.7-1.3,1.5-2.6,2.2-3.9c0.6-1.2,0.9-2.5,2.4-1.6c1.9,1.1,3.6,2.4,5.4,3.7
		c2.3,1.6,4.7,3,7,4.6c1,0.7,2.1,1.3,3.2,1.9C273.2,169.8,273.6,169.9,273.9,170.1z"/>
	<path class="st7" d="M144.3,164.3c-3.6,1.1-7.3,0.1-11,0.2c-4.3,0-8.4,1.5-12.6,1.7c-4.9,0.2-9-1-13.7,0.6
		c-1.4,0.5-1.9-0.8-1.6-1.9c0.5-1.6,0.8-1.2,2.4-0.9c3.3-1.5,8,0,11.5,0C127.8,163.9,135.7,163.3,144.3,164.3
		C140.4,165.4,140.2,163.8,144.3,164.3z"/>
	<path class="st7" d="M264.7,183.2c0.4,2.4-5.1-1-5.8-1.5c-1.1-0.9-3-2.3-4.5-2.8c-1.4-0.5-2.7-1.8-3.9-2.3c-0.3-0.2-4.8-3-2.4-2.9
		c1.9-0.5,4.4,2.1,6,2.9c1.9,1,3.9,2.7,6,3.3C261.5,180.9,264,181.6,264.7,183.2C264.9,183.9,264.1,182,264.7,183.2z"/>
	<path class="st7" d="M264.5,195.2c-2.9,3-11-5.8-13.7-7c-2.3-1-14.6-6.7-13.2-10.1c2.2-1.1,4.1,2.6,5.8,3.4
		c2.6,1.2,5.3,2.8,7.6,4.3c2.3,1.4,4.8,3.1,6.8,4.6C259.5,191.8,263.8,193,264.5,195.2C263.3,196.5,264.1,194.1,264.5,195.2z"/>
	<path class="st7" d="M193.7,196c-4,1.7-8.1-5.3-7.9-8.5c0.3-3.4,2.9,2,3.2,2.6C190.1,192.4,193.2,193.3,193.7,196
		C192.4,196.5,193.3,193.5,193.7,196z"/>
	<path class="st7" d="M151.2,187.8c0.7,2-5.9,10.3-6.9,8.5c-0.2-0.3-1.9,1-2.7,0.3c0.1-1.7,1.8-2,3.1-2.5
		C146.4,193.5,149.4,185.9,151.2,187.8C151.6,189,150.9,187.5,151.2,187.8z"/>
	<path class="st7" d="M247.5,189.5c-0.2,2.1-3.5,1.1-4.6,2.4c-0.2,1.9,0.3,2.8,1.7,4.1c1,0.9,2.7,0.7,3.6-0.2
		c2.3-2.2-0.4-3.4-0.2-5.5c5-1.5,3.2,12.2-3.6,8.2c-1.5-0.9-2.4-1.8-3.4-3.3c-1.4-2.1,0-3,0.7-4.7
		C242.2,189.1,246.7,187.8,247.5,189.5C247.2,191.5,247.2,188.9,247.5,189.5z"/>
	<path class="st7" d="M211,190.2c0,0,1.7,1.4,1.6,1.2c1.3,1.3,2.8,2.2,4.1,3.3c1.8,1.4,3.8,2.7,5.5,4.2c0.9,0.8-0.3,2.1-1.3,1.8
		c-1.5-0.5-2.5-1.4-3.7-2.4c-2.1-1.7-4.8-4.5-7.2-5.8c-3,0.2-6.1,0.2-9.2,0.2c-1.5,0-3,0.1-4.5,0c-0.4,0-4.9-0.6-2.5-1.7
		c2.1-0.9,4.5-0.2,6.6-0.3C203.2,190.8,208.5,191.5,211,190.2C211,190.4,210.1,190.7,211,190.2z"/>
	<path class="st7" d="M265.7,193.1c-2.3-0.8,9.2-15.1,8.6-16.8c2.8-2.4,4.7-6.8,6.7-9.8c1.2-1.9,2.3-3.8,3.3-5.8
		c0.4-0.9,0.7-1.6,1.7-1.9c0.2-1.4,1.5-2.9,2.2-4.1c1-1.8,1.8-3.1,2.6-5c0.1-0.3,1.3-1.9,0.7-2.3c-0.2-0.2-1,0.2-1-0.3
		c-3.7-2.6-6.6-5.6-10.3-7.9c-1.6-1-3.6-1.7-5-2.9c-1.1-0.9-4.2-3-5.7-3.2c-0.7-0.1-1.1-0.9-1.8-1.1c-0.7,0.8-1.1,1.8-1.7,2.6
		c-0.2,0.4-1.7,2.1-1.7,2.2c0.2,1.2-2.5,4.5-3.4,5.3c-0.3,1.7-1.9,4.1-2.9,5.5c-1.9,2.9-3.2,6-5,9.1c-3,5.2-6.5,10.7-9.4,15.8
		c-0.5,1-1.1,3.3-2.2,3.8c-3.1,1.1,0.3-4,0.6-4.7c2.6-4.7,5.6-9.7,7.9-14.2c0.7-1.5,2.1-3.2,2.9-4.8c0.8-1.7,3.2-4.2,3.5-5.9
		c0.1-0.7,1.4-2.3,1.8-3c1.4-2.5,2.8-5.2,4.5-7.5c0.6-0.8,3.9-6.5,4.4-6.4s1.8-1.4,1.8,0.2c0,0.9,4.6,2.9,5.5,3.3
		c3.2,1.5,6.4,3.6,9.4,5.5c1,0.7,9.7,7.8,9.8,7.5c2.4,0.9-4.9,11.6-6.2,13.4c-2.9,3.9-4.5,9-7.6,12.5c-1.7,1.9-2.7,4.4-3.9,6.5
		c-1.1,1.9-2.4,3.7-3.6,5.5C271.4,185.4,267,194,265.7,193.1C264.3,192.6,266.6,193.8,265.7,193.1z"/>
	<path class="st7" d="M105.1,158.3c0.9-2.5,7.3-0.9,9.2-1c4.6,0,9.2,0.1,13.9,0.1c8.6,0,17.3,0.1,25.9,0.1
		c-2.8,2.1-7.4,1.2-10.5,1.1c-3.9,0-7.9,1.3-11.8,1c-4.6-0.3-9.3-0.2-13.9-0.1C115.9,159.6,105.7,160.7,105.1,158.3
		C105.6,156.9,105.5,159.7,105.1,158.3z"/>
	<path class="st7" d="M247.7,73.6c0.7,4.5,0.4,9.3,0.5,13.7c0.2,6.6,0.9,13.3,0.5,19.9c-0.7,9.3,1.5,19.3,1,28.9
		c-0.1,2-2.3,1.1-2.2-0.6c0.1-2.1-0.1-4.2-0.2-6.4c-0.2-4.7,0-9.7-0.6-14.4c-0.7-5.8,0-12.2-0.2-18c-0.3-7-0.4-14-0.6-21.1
		c-4.5,0.4-8.6,0.5-13.2,0.5c-2.6,0-5.2-0.1-7.8-0.2c-0.9,0-6.9,0.3-4.3-2.1c0.8-0.8,6.2,0.1,7.6,0.2c2.1,0.1,4.2,0.3,6.3,0.2
		c2.6,0,5.2,0.1,7.8-0.4C243.3,73.4,246.5,72.9,247.7,73.6C248.2,76.5,246.8,73.1,247.7,73.6z"/>
	<path class="st7" d="M205.7,76c-9,2.7-19.5,1.5-28.8,1.6c-10.8,0.2-21.7,0.1-32.4,1c-5.5,0.4-11,0.4-16.4,0.6
		c-4.7,0.2-9.9,1.5-14.6,0.8c-7.5-1.3-15.5,1.6-23.2,1.1c0.2,7.4,0.8,14.9,0.4,22.4c-0.4,8.1-0.9,16.6-0.1,24.8
		c0.7,7.5,0.5,15.1,0.7,22.7c0.2,7.6,1.4,15.2,1.6,22.8c2.9-0.1,5.8-0.5,8.6-0.5c2.5,0,5.7-0.4,8.2,0.2c5.5,1.4-3.3,3.3-4.9,2
		c-0.3-0.2-5,0.1-5.7,0.2c-1.6,0.3-2.8,0.1-4.3,0.3c-0.7,0.1-3,0.9-3.3,0.6c-1.4-1.7-0.6-4.2-0.7-6.2c-0.3-3.9-1.3-7.4-1.2-11.3
		c0.2-6.1-0.4-12.2-0.4-18.3c0-9-1.2-17.9-0.9-27.1c0.3-10.9,0.1-21.8,0-32.7c0-3.4,8-2.5,10.9-2.6c4.5-0.2,8.8-0.3,13.3-0.5
		c7.7-0.3,16.1-0.9,23.4-0.9c10.2-0.1,20.8-0.3,30.9-1c8.1-0.5,16.2-0.6,24.2-0.5c1.5,0,2.9,0.4,4.4,0c1.1-0.2,4.7-1.3,5.7-0.6
		C202,75.6,205.7,73.5,205.7,76C202.5,76.9,205.7,74,205.7,76z"/>
	<path class="st7" d="M270,124c0,0.2-2.9,1.2-3.4,1.7c-1,0.9-1.3,1.8-2.2,2.9c-1.5,2-3.2,4.6-4.3,6.5c-1.9,3.1-3.9,6.2-5.8,9.1
		c-2.8,4.4-5.2,9-7.7,13.7c-1.7,3.2-3.7,5.3-5.3,8.4c-1.7,3.3-3.7,7-5.2,10.6s-8.3,12.5-4.7,15.7c3.2,2.8,8,3.5,10.9,6.9
		c0.8,0.9,2.9,1.9,4,2.4c1.2,0.6,5.4,3.6,6.5,3.4c0.5-0.1,3,1.6,3.2,2.2c1.5,3.4-2.9,0.9-3.8,0.3c-4.2-2.5-9.6-4.5-13.1-7.8
		c-2.9-2.8-7.8-3.3-10.2-6.7c-2.8-3.9-0.4-7.5,1.6-11.5c3.4-6.7,6.9-13.5,10.7-19.7c2.4-3.9,4.6-7.7,6.5-11.8
		c2.2-4.6,5.7-8.3,8.1-12.8c2.1-4.1,5-8.2,7.6-11.9c0.5-0.7,2.7-2.7,3.9-2.6C267.8,121.6,271.1,122.2,270,124
		C270,124.9,271.1,122.2,270,124z"/>
	<path class="st7" d="M300.5,145.3c0,0.3,1-0.2,1.2,0.2c0.2,1.3,0.5,2.5,0.6,3.8c0.2,1.7-0.3,3.6-1.6,4.8c-1.2,1.2-2.2,3.5-3.1,5
		c-2.5,4.4-5.4,8.3-8.2,12.5c-1.2,1.9-2.1,4-3.2,5.9c-1.1,1.8-2.7,3.6-3.5,5.6c-1,2.4-3.2,4.4-4.6,6.7c-0.6,0.9-1.5,3.2-2.6,3.4
		c0.1,0.5-1.3,3.2-1.7,3.6c-0.6,0.7-1.2,0.8-1.5,2.1c-0.1,0.5-0.9,2-1.3,2.1c-0.6,0.1-2.8,4-3.4,4.7c-1.8,2.2-2.2,4.2-4.7,5.5
		c-2.8,1.4-1.1-0.4,0.6-1.1c0.5-1.7,2.2-3.8,3.3-5.1c2.2-2.6,3-6.6,5.8-8.6c1.8-6.5,8-9.8,10.1-15.8c0.5-1.4,2.2-4.1,3.4-5.8
		c2.1-3.1,3.8-6.2,6-9.1c1-1.3,1.7-3.8,2.9-4.8c1.1-0.9,2.5-3.4,2.9-4.8c0.7-3,3.4-4.8,2.2-8.8c-1.5,3.6-3.5,7.1-5.7,10.1
		c-2.4,3.3-4.3,7.8-6.6,11.5c-4.4,7.2-8.9,14.2-13.8,21.3c-2.6,3.8-4.8,7.7-7.3,11.6c-1.5,2.4-3.5,5.2-5.4,7.3
		c-1.1,1.2-2.6,2.6-3.9,1.5c-1.6-1.3,1.7-2.4,2.1-3.1c2.7-4.8,6.8-9.6,9.9-14.3c3.1-4.8,6.7-9.4,9.6-14.2
		c3.9-6.3,7.4-13.5,11.3-19.4c1.7-2.6,4.3-5.4,5.4-8.3c0.9-2.2,2.7-4.3,3-6.7s-2.5-4-4.2-5c-4.7-2.7-10.3-6.6-15.3-9.8
		c-1.1-0.7-1.9-1.5-3.1-2.2c-1.3-0.7-3.5-1.6-4.5-2.8c-0.8-0.9,0.1-1.5,0.7-2c1.3,0.5,2.5,1.3,3.8,2c1.7,1,3.4,2.3,5.1,3.3
		c3.7,2.2,8.4,4.6,11.7,7.5C295.5,138.2,303,140.3,300.5,145.3C300.5,145.8,301.4,143.6,300.5,145.3z"/>
	<path class="st7" d="M233.8,171.2c-0.9,3-11.6,2-13.9,1.9c-4.2-0.2-9.3-0.5-13.4,0c-3.1,0.4-6.6-0.3-10.1-0.2
		c-6.2,0.1-12.4,0.4-18.7,0.7c-8.4,0.4-17.1,0.6-25.6,1.4c-11.5,1.1-22.9-1.2-34.4-0.3c-1.7,0.1-3.2-1.6-1.1-1.9
		c1.9-0.2,3.9-0.2,5.8-0.1c5.5,0.1,11,0.5,16.5,0.5c10.5,0,20.7-0.8,31.1-1.4c10.7-0.7,21.3-1.2,32.1-0.5c5.3,0.3,10.7-0.3,16.1,0
		c4.4,0.3,9-0.1,13.4-0.7C232.5,170.4,233.4,170.1,233.8,171.2C233.4,172.7,233.4,170,233.8,171.2z"/>
	<path class="st7" d="M229.9,182.5c-0.2,1.1-10.6,1.5-11.9,1.1s-3,0.6-4.4,0.6c-2.9,0-5.7,0.3-8.6,0.3c-10.8,0-21.5,0.2-32.3,0.5
		c-4.6,0.1-8.8-0.1-13.5,0.2c-4,0.2-8.2,1.1-12.2,0.6c-4.9-0.7-10.5,0.3-15.5,0.2c-5.8,0-11.5-0.3-17.3,0s-11.6,0.9-17.5,1
		c-1.9,0.1-12.1,1.7-12.5-1.3c0-1.2,7.5-0.5,8.4-0.5c5.5,0.1,11-0.8,16.4-0.7c4.7,0.1,9.3-0.8,14-0.6c3.3,0.1,7.2-0.2,11-0.2
		c10.6,0,21-0.7,31.4-1.1c7.3-0.3,14.7-0.1,22-0.4c5.6-0.2,11.6,0.4,17-0.1C207,181.9,229.3,179.3,229.9,182.5
		C229.7,183.6,229.6,180.7,229.9,182.5z"/>
	<path class="st7" d="M146.4,191.9c0.1,1.8-12.7,2.3-14.4,2.6c-1.9,0.4-8.9,0.6-9.5,2.4c-0.6,1.7-3.3,2.9-4.1,4.8
		c2.4,0.4,4.9-0.3,7.3-0.1c1,0.1,4-0.7,4.6-0.1c0.8,0.7,5.4-0.5,6.5-0.5c3.5-0.2,7.1-0.3,10.6-0.5c11.5-0.4,22.9-0.4,34.4-0.5
		c6-0.1,11.9,0.3,17.9,0.1c3.2-0.1,6.3-0.2,9.5-0.3c1.2-0.1,2.4-0.3,3.6-0.2c1.8,0.1,1.2,1.6-0.2,1.9c-3.6,0.7-8.2,0.3-12.1,0.7
		c-6.3,0.7-12.6-0.1-18.9,0.2c-8.3,0.4-16.4-0.1-24.2,0c-10.7,0.2-21.4,1.2-32.1,1.5c-1.7,0.1-9.7,1.3-10.8-1
		c-0.2-1.5,2.7-3.5,3.6-4.5c1-1.1,1.9-2.2,2.9-3.3c1.5-1.7,2.4-1,4.4-1.3c3.1-0.5,5.6-1.3,8.7-1.5c2.8-0.2,5.2-1.2,7.9-1.1
		C143.1,191.2,145.3,190.4,146.4,191.9C146.5,192.6,145.2,190.3,146.4,191.9z"/>
	<path class="st7" d="M222.5,205.1c-2.1,3.3-11.7,1.4-14.9,1.4c-5.7,0.1-11.4,0.8-17,1c-1.3,0.1-13,0.9-13.1,0.3
		c-0.5-1.6-14.4,0.6-16.4,0.6c-4.8,0-9.7,0.2-14.5,0.2c-2.8,0-5.7,0-8.5,0.1c-1.7,0.1-4.4-0.5-6,0.2c-1.3,0.6-3.8,0.1-5.3,0.3
		c-2.5,0.3-5,0.3-7.5,0.4c-2.8,0.1-5.6-0.2-5.4-3.9c0.2-2.5,3,1.4,3.1,1.5c0.7-0.3,2.2,0.1,2.6,0c1.8-0.5,4-0.2,6.1-0.3
		c3.6-0.2,7.2-0.7,10.9-0.8c5-0.2,10-0.2,15-0.1c4.7,0.1,9.6-0.8,14.3-0.5c7.3,0.4,14.5,0.1,21.7-0.3c4.6-0.2,9.2-0.4,13.7-0.5
		c5.7-0.1,11.7,0.6,17.4-0.1C219.8,204.6,221.3,204.3,222.5,205.1C221.5,206.7,220.9,204.1,222.5,205.1z"/>
</g>
</svg>
