<?xml version="1.0" encoding="utf-8"?>
<!-- Generator: Adobe Illustrator 21.1.0, SVG Export Plug-In . SVG Version: 6.00 Build 0)  -->
<svg version="1.1" id="Layer_1" xmlns="http://www.w3.org/2000/svg" xmlns:xlink="http://www.w3.org/1999/xlink" x="0px" y="0px"
	 viewBox="0 0 360 236" style="enable-background:new 0 0 360 236;" xml:space="preserve">
<style type="text/css">
	.st0{fill:#E7ECEF;}
	.st1{fill:#FFFFFF;}
	.st2{fill:#A6D2A8;}
	.st3{fill:#DDCDC0;}
	.st4{fill:#747E91;}
	.st5{fill:#EA9B95;}
</style>
<g>
	<path class="st0" d="M38,195.9c-4.5,0.1-9.3-0.6-13.6-1.9c-3.5-1-8.1-1.1-11.1-2.1c-6-2-4.9-9.2-3.5-15.1c4.1-0.5,10.6-0.3,9.9-6.1
		c-0.4-3.8-4.5-4.1-2.7-9.2c7.7-0.4,0.1-9.2-0.1-12.1c-0.6-9.4,16.5-7.9,20.2-13.9c3.6-5.9-4.6-9.1-4.9-14.1
		c-0.6-11.4,15.4-15.8,23.5-10.3c2.9,2,6.2,6.2,10.7,3.1c3.5-2.4,1.5-7.9,1.2-11.5c-1-9.2,0.7-18.7,3.2-27.6
		c4.4-15.7,6.7-11.4,19.4-13c11.4-1.4,15.7-9.5,16.4-20.2c0.9-13.8,12.6-26.6,24-33.2c10.5-6.1,27.6-10.1,38.4-3.3
		c5.5,3.5,3.5,10,9.8,12.9c7.7,3.5,9.3-2.8,11.5-8.4c1.9-4.7,8.9-8.2,13.5-4.2c5.9,5.2-1.6,8.6-1.4,12.9c0.2,8.4,9,0.6,13.3,2
		c7.3,2.3,1.6,10.1,4.5,14.8c5.3,8.7,18.8-3.9,24.9-4.7c17.7-2.2,23,12.6,28.7,26.6c3.2,7.9,7.8,23.9,16.5,26.7
		c8.6,2.7,15.4-3.5,20.9,4.9c5.1,7.8,2.1,22.3,10.8,27.4c2.4,1.4,5.7,0,8.5,2.1c6.1,4.5,12.3,17.3,6.6,23.8c-3.4,3.9-5.3,3-6.6,9
		c-1.1,5-0.7,10.3-6.1,12.7c-4.3,2-7.2-1.1-9.1,4c-0.7,2,0,5.8,0,8c0,6.3,0.9,7.4-4.6,9.5c-5.1,2-9.7,1.7-14.9,2.5
		c-4.2,0.7-3.7,2.5-7.1,3.9c-8,3.2-10.5-5.5-14.9-9.3c-12.5-10.6-30.8-13.8-45.7-10.6c-8.6,1.8-12.7,1.1-20.6-1.4
		c-6.7-2.1-14.4-0.5-20.6,2.1c-7.6,3.1-13.6,2.3-21.5,2.1c-7.5-0.2-14.9,1.8-22.6,1.3c-9.4-0.6-18.6-0.9-28.2,0
		c-10,0.9-13,4.9-22.4,8.6c-6,2.4-14.7,7-21.4,6.1c-3.2-0.4-5.2-2-9.3-2"/>
	<path class="st1" d="M37,182c1.8-11.5,16.3,6.1,18.6,5.9c2.4-4.8,17.9-19.6,19.4-7.2c1.3,10.1-10.3,13.1-14.6,19.2
		c9-1.5,17.1-7.7,26.6-9.1c7.3-1.1,13.9-2.7,21.3-2.8c4.6-0.1,9.8,0.8,14-0.8c0.4-4.2-0.6-8.2-0.7-12.5c-6.5,2.7-16.3,1.5-20-5.4
		c4.4-3,8.6-3.7,14-4.1c-2.3-4.9-10.7-8.1-14.8-12.4c-3.4-3.6-3.4-12.2,2.9-6.8c1.3-1.1,7.3-23.8,12-11.4c2.4,6.3-8.6,22.3,0.2,24.5
		c8.2,2.1,6.3-27.6,3.7-32.5c-1.8-3.4-6.5-4.9-9-8.7c-2.1-3.3-1.8-7.3-1.5-11.2c5.2-0.3,16.4,1.1,17.9,5.4c0-5.7-6.7-34.8,2.7-32.8
		c1.5,0.3,5.2,5.5,5.8,6.8c1.3,2.6,1.1,6.6,0.8,9.5c-0.5,4.6-6.5,10.1-5.2,15c2.9,0,5-3.3,7.4-5.1c4.1-2.9,13-6,14.3,1.2
		c0.9,4.8-3.7,7.6-6.5,10.5c15.4-0.4,1.8,19.3-3,24.2c-3.3,3.3-7,4.9-8.5,9.7c-1.2,3.8-0.7,8.4-1.6,12.3c4.2-1.8,6.7-6.4,10.7-8.6
		c4.5-2.4,10.5-4.1,15.6-3.4c0.4,6.2,1.1,7.4-3.1,12.7c-4.5,5.6-10.3,9.6-16.2,13.5c-2.5,1.6-6.3,4.5-2.5,7.5
		c2.2,1.7,15.9-2.4,19.3-2.6c9.8-0.5,19.9-0.5,29.7-0.6c12.8-0.2,25.9,2,38.2,1.2c0-9.2-1.3-18.1-1.3-27.2c0-5.2,1.4-8.6,1.2-13.8
		c-3.9,2.1-4.5,4-8.5,5.1c-2.8,0.8-5.7,0.9-8.7,0.7c-6.3-0.4-17.4-1.9-22.7-5.6c-2.7-1.9-6.1-6.7-8.1-9c-7.3-8-10.6-11-11.3-22
		c-0.5-8.7,4.4-16.2,1.9-24.5c-2.1-7.1-3.3-11,0.3-18.9c2.4-5.3,5.7-7.1,9.7-10.7c4.5-4.2,6.4-5.8,13.4-6.7
		c4.7-0.6,9.3-0.9,14.1-1.2c5.2-0.3,6.6-1.3,10.8-3.8c5.8-3.5,13.2-4.8,19.8-5.7c7.3-0.9,18-1.8,25.3,0c7,1.8,10.4,6,15.3,9.6
		c2.6,1.9,1.4,1.7,4.7,2.5c1.9,0.4,4.1-0.2,6,0c4.9,0.4,13.3,2.5,16.5,6.3c3.8,4.5,2.7,6.5,8.7,10.2c7.1,4.4,12.9,5.4,16.3,12.3
		c2.7,5.3,2.5,10.7,2.9,16.5c0.3,4.4,0.7,9.4,0.2,13.8c-0.9,9-7.5,26.7-14.4,33.3c-5.3,5.1-19.8,5-26.9,4.8
		c-8.6-0.2-20-0.6-27.8-4.8c-2.3-1.2-4.5-4.6-6.9-5.2c-9.4-2.3-5.7,10.8-5.4,16.1c0.7,10.2,1.8,20.5,6.5,28.8
		c3.8,6.7,13.2,6,21.5,7.1c11.8,1.6,23.7,3.4,35.2,6.9c6.6,2,36.1,9.9,19,17.8c-10.9,5-23.7,6.8-35.3,8.8c-11.9,2.1-23.6,6-35.7,7.1
		c-23.1,2.2-47.3,1.4-70.3-0.7c-29-2.7-58-4.1-87-6c-23.3-1.5-46.8,1.7-70.1-0.1c-5.2-0.4-13.8-2.7-10.8-9.4c2.1-4.8,10-8,14.2-10.5
		c4.6-2.7,9.8-4.4,6.8-10.5C42.1,190,36,188.3,37,182z"/>
	<path class="st2" d="M273.1,63.4c5.3-7.1,1.3-13.9-7.5-15.5c-6.2-1.1-9.3,2.4-14,5.1c-3.9-8.3-17.5-12-26.3-9.2
		c-8.6,2.7-10.5,11.7-14.2,17.8c-6.6-9.6-15-6.6-21.4,0.2c-2.8,3-9,9.1-9.8,13.3c-0.7,4,3.2,7.4,2.6,10.7c-0.6,3.4-5.9,6.3-6.7,10.6
		c-2.1,11.2,4.2,19.9,9.8,28.6c-6.4,1.1-4.5,10.3-2.2,14.1c4.3,7.1,11.3,9.6,18.9,9.1c7.4-0.5,13.9-3.6,15.5-11.5
		c1.5-7.5-4.7-8.9-10.2-11.5c4.1-2,8.2-3.7,10.2-8.2c1.7-4,2.1-11.6-2.2-14c5.7,3.3,17.2-6.1,20.8-9.4c4.1,10.3,10.5,15.5,22.4,8.1
		c-1,7.2,5.8,19.5,13.8,18.6c-9.4,2.8-6.1,15.7,1.4,18.7c5.6,2.3,29.9,1.6,20.5-8.9c6.9,5.8,20,0.5,23.8-6.5
		c3.4-6.3,4.3-19.9-5.9-19.1c3-4.3,7.9-4.2,9-10.5c0.9-5.2-3.2-18.2-7.4-21.6c-8-6.4-17.1-0.4-20.6,7.4
		C293,67.8,283.4,63.8,273.1,63.4z"/>
	<path class="st2" d="M58.2,223.3c-4.4-0.6-21.1-0.2-20-6.9c0.6-3.9,8.8-5.6,11.6-7.3c9.2-5.7,19.1-8.3,29.9-11.4
		c8-2.3,16.1-5.7,24.6-5.6c7,0.1,11.7-0.1,15.6,5.9c2,3,0.2,10.3,6.7,8c2.7-0.9,4-10.2,6.1-13c4.9-6.5,10.9-6.9,18.7-6.6
		c12.2,0.5,23.7-1.7,35.8-1.7c7.8,0,16.7-3.1,24.2,0.3c6.7,3.1,9.7,10.2,3.1,16c-2.5,2.2-10.4,3.2-6.6,7.8
		c4.2,5.1,12.3-1.9,17.1-1.2c6.7,1,8,9.3,14.7,9.9c10.7,0.9,34.6-5.9,24.2-21.3c-3.4-5-10.7-8.4-5.7-15.8c2-3,4-4.4,8-3.5
		c6,1.5,3,3,4.7,7c6.5,14.6,19.9,20.7,36,22.6c4.2,0.5,10.7,0.6,12.7,5.5c4.3,10.8-18.8,9.2-23.9,9.6c3.2,7.7-5,6.4-10.5,6.5
		c-6.2,0.1-9.8,1.9-15.7,3.9c-20.3,6.7-33.2-12.3-52.3-15.3c-5.7-0.9-13-0.8-18.6-0.8c0.9,3.8-2.6,6.6-5.8,6.5
		c-5.4-0.2-8.8-7.9-15.8-6.7c-1.7,0.3-5.4,4-7.4,5c-6.9,3.3-10.9-1-17,0.1c-2.6,0.5-4.6,3.5-7.4,4.1c-4.7,1-8.2-1.5-12.3-3.2
		c-4.2-1.6-9.3-4.8-13.9-4.3c-3.3,0.4-2.7,2.1-4.8,2.7c-11.6,3.6-25.6-0.7-36.6,2.2C70.7,224.3,65,224.2,58.2,223.3z"/>
	<path class="st2" d="M131.1,81.6c-0.9-1.3-1.5-4.4-3.7-3.7c-1.3,0.4-1.9,3.2-2.2,4.3c-0.9,2.8-2.1,7.5-1.1,10.3
		c0.8,2,5,8.2,7.7,7.2c1.2-0.5,3.3-4,3.6-5.1c0.5-2,0.4-6.4-0.3-8.4C134.3,84.2,132.3,83.4,131.1,81.6z"/>
	<path class="st2" d="M114.6,104.8c-2.6-0.7-7.2-3.1-6.7,0.8c0.3,2.8,3.5,5.5,5.4,7.3c4.2,4.1,7.5,5.3,12.6,3.6
		C126.9,109.9,120.1,106.3,114.6,104.8z"/>
	<path class="st2" d="M148.4,110.6c1.4-1.4,3.3-4.9,1.3-6.2c-1.8-1.1-6.5,0.9-8.1,1.8c-1.2,0.7-7.2,9.6-4.5,10.1
		c1,0.2,1.9,0,2.8-0.3C142.1,115.1,146.6,112.3,148.4,110.6z"/>
	<path class="st2" d="M118.3,138.1c0.5,3.8,0.7,8.8-0.7,12.4c-1.2,3.1-4.2,3.9-6.4,0.9c-1.5-2.1-1.4-4.9-1-7.3
		c0.4-2.9,1.4-5.7,2.7-8.3c0.4-0.7,3.4-4.6,3.3-5.1C116.8,133.5,118,135.4,118.3,138.1z"/>
	<path class="st2" d="M155,121.7c-0.2-1.9-13.8,6.2-15.1,7.8c-1.6,2-5.2,10.5-0.2,10.8c1.5,0.1,3.3-2.2,4.5-3
		c2.5-1.6,5.2-2.3,7.1-4.8C153.2,129.8,155.4,125.2,155,121.7z"/>
	<path class="st2" d="M146,164.7c-0.5,4,0.8,7.3,5.4,5.1c3.5-1.7,5.5-5.1,7.3-8.4c1.1-2,4.7-10,0.8-11.2c-2.3-0.7-7.6,4.3-9.1,5.5
		C147.2,158.3,146.5,160.8,146,164.7z"/>
	<path class="st2" d="M106,173c-1.3-0.3-5-1.2-5-2.9c0.2-3.9,9.6-5.7,12.2-5.7c2.2-0.1,8.3,1.7,7.9,4.7
		C120.7,172.7,108.8,173.6,106,173z"/>
	<path class="st2" d="M53.8,193.8c-4,4.7-10.8-5.1-10-8.8c0.8-3.6,3.3-2.4,5.4-0.3C50.6,186.1,55.7,191.5,53.8,193.8z"/>
	<path class="st2" d="M77.6,176.4c0.8,0.1-4.1,10.9-4.9,12c-1.3,1.6-8.3,4.4-10.1,2.8c-3.2-2.9,2-8.8,4.2-10.4
		C69.4,178.7,74,175.9,77.6,176.4z"/>
	<path class="st3" d="M228.6,134.5c2.5,5.7,1.4,13.9,1.4,19.9c-0.1,7.3-1.8,14.5-3,21.7c-1,6.3-2.3,12.8-5.2,18.1
		c-1.3,2.4-2.4,4.8-3.7,7c-0.4,0.7-2.2,3-1.7,3.8c1.2,2.4,5.3-3.3,6.9-4c4.1-1.9,3.8,1.3,5.2,3.9c2.4,4.6,6.4,1.9,7.4-2.9
		c2.9-0.1,4,5.7,7.6,4.6c2.6-0.9,1.5-3.7,5-3.6c3.8,0.1,7.3,3.5,11.5,3.6c4.6,0.2,5.4-3.6,3.1-7.4c-1.3-2.2-3.6-4-5.3-5.9
		c-3.1-3.5-5-8-6.8-12.3c-3.8-9.3-2.6-20.4-2.6-30.3c0-6.4-0.2-12.6,3.3-17.8c2.2-3.2,7.9-6.6,7-11.1c-3.2-0.5-6.3,3.2-6.6-1.6
		c-0.3-4,3.5-8.8,1-12.5c-3.4-5-6,4-6.9,6.3c-0.5,1.2-1.4,6.6-3.1,7c-2.4,0.6-2.9-4-3.2-5.5c-0.6-3.2-2.5-10.8-5.5-12.6
		c-2.5-1.6-7.7-0.6-7.5,3c0.2,5.2,5.1,10,4.3,15.6c-0.4,2.9-2.7,2.3-4.9,2.1C216.3,122.8,227.3,131.5,228.6,134.5z"/>
	<path class="st4" d="M275.3,18.1c0.6-0.1-1.8,8.1-2.1,9.2c-0.6,2-1.2,3.9-1.8,5.9c-0.1,1.3,1,2.8-1.1,2.8c-3.6,0-0.5-4.9,0.2-6.6
		C272.1,25.6,273.4,21.7,275.3,18.1C275.6,18.1,273.2,22.2,275.3,18.1z"/>
	<path class="st4" d="M208.8,35.9c0.8-0.1,3.6,6.2,3.4,7.3c-0.3,1.7-2.1,0.9-2.6-0.1C208.8,41.7,208.2,37.3,208.8,35.9
		C209.2,35.8,208.2,37.4,208.8,35.9z"/>
	<path class="st4" d="M323.1,45.9c-1.9,2.8-6,3.8-7.3,7c-0.4,1.1-1.1,4.1-2.1,4.4c-3.6,1-1.8-2.5-0.9-4
		C314.5,50.5,319.6,45.9,323.1,45.9C322.2,47.2,322.9,45.9,323.1,45.9z"/>
	<path class="st4" d="M208.8,62.7c-2.2,0.4-3.4-0.2-4.2,2.5c-0.3,1.1-0.4,2.3-0.4,3.5c-0.1,1,1.1,0.9,1,1.9
		c-3.4,0.5-3.1-7.6-1.2-8.3c0.5-0.2,0.9-1.2,1.9-1.5C207.4,60.6,208.9,61,208.8,62.7C207.9,62.9,209,60,208.8,62.7z"/>
	<path class="st4" d="M125.2,69.1c0.7-0.2,2.2,5,2.3,5.7c0.2,3.7,4.1,6.1,5,9.5c1,3.7,2.1,7.1,1,10.9c-0.6,2.2-1.2,3.5-2.4,5.3
		c-0.7,1-1.6,1.8-2.2,2.8c-0.8,1.3-2.4,1-1.9-0.6c-1.2-1.2-1.9-2.1-2.9-3.4c-0.6-0.8-5.9-8.3-3.9-9.2c0.1-0.1,0.6-3.8,0.8-4.2
		c0.6-2,1.4-4,2.1-6C124.3,76.5,123.9,72.5,125.2,69.1C125.4,69.1,124.6,70.8,125.2,69.1z M124.9,79.2c-0.8,4-3.1,8.4-2.5,12.5
		c0.4,2.4,2.4,6.2,4.4,7.7c0.2-2.4,1.4-6,0.3-8.3c-0.4-0.9-1.4-4.2-0.5-4.9c1.2,0.4,1.6,3.1,1.9,4.1c0.8,3,0.9,6.3,0.3,9.3
		c3.7-1.6,3.1-8.5,2.4-11.5c-0.5-2.3-1.2-4.3-2.4-6.4c-0.6-1.1-1.3-2.2-1.9-3.3c-0.4-0.9-0.5-2.6-1.2-3.3
		C125.7,76.6,125.2,77.8,124.9,79.2C124.8,80.1,125.2,77.8,124.9,79.2z"/>
	<path class="st4" d="M36.8,167.7c-0.4-0.3-0.9-1.9,0.1-1.3C37.4,166.6,37.5,167.5,36.8,167.7C36.7,167.6,37.8,167.4,36.8,167.7z"/>
	<path class="st4" d="M150.4,98.1c4.2,2.8-7.8,5.9-8.9,6.5c-3.9,1.9-6.2,5.3-8.2,9.1c1.4,0.9,6-6.4,7.7-6.5
		c-0.6,3.1-5.7,7.5-7.9,9.6c4.2,1.8,9.8-4.2,11.8-7.2c1.4-2.2,3.5-8,6.5-8.6c0.2,1-0.6,1.9-1,2.8c-0.1,0.5-0.5,0.7-0.9,0.8
		c0,0.8-0.2,1.6-0.6,2.3c-1.1,2.2-2.3,5.1-4.1,6.7c-3.5,3.2-9.2,7.8-14.5,5.5c-3.5-1.5,5-12.8,6.6-14.2c2.4-2.2,4.9-3.1,8.1-3.5
		C146.2,101.4,150.2,99.6,150.4,98.1C150.6,98.3,150.3,98.8,150.4,98.1z"/>
	<path class="st4" d="M220.8,93.9c0.6-0.1,6.8,12.1,8.5,13.6c2.9,2.5,1.9,3.4,0.8,6.8c-0.9,2.6,0.6,3.8,1.7,6.1
		c0.3,0.7,0.9,2,0.3,2.8c-0.8,1,0.6,1.8-0.3,2.7c-2.5,0.4-5.8-0.5-8.2-1.1c-2.8-0.7-4.7-3.4-6.9-5.1c-0.3-0.2-3.3-3-3-3
		c3.8,0.1,7.1,4.8,10.3,5.7c1.4,0.4,2.5,0.6,3.9,0.8c3,0.5,1.9-2.1,1.1-4c-1.1-2.5-1.5-3-0.7-5.8c1-3.4-0.5-4.7-2.4-7.5
		C223.4,102.2,222,98.1,220.8,93.9C221.1,93.9,221.1,94.9,220.8,93.9z"/>
	<path class="st4" d="M105.3,100.5c1.2,1.2,0.2,2.7,1.9,3.3c1.2,0.5,2.4,0.8,3.5,1.3c1.5,0.8,3.2,0.3,4.7,0.9
		c1.7,0.8,3.6,1.6,5.2,2.6c2.7,1.6,4.9,5.6,6.3,8.3c0.5,1.1,0.7,1.3,1.7,2.1c1.8,1.3-1.8,2.1-2.5,2c-5.2-0.1-12-1.6-15.2-5.8
		c-1.9-2.4-3.1-4.7-4.1-7.5c-0.4-1.1-0.8-1.7-1-3c-0.1-0.7-0.4-1.3-0.9-1.8C105.7,102.9,105.2,101.1,105.3,100.5
		C105.9,101.2,105.2,101.5,105.3,100.5z M108.9,109.7c2.8,4.8,7.3,8.1,13.2,8.9c-0.5-1.5-5.3-4.2-6.6-4.6c-1.2-0.3-4.8-6.1-2.5-6.2
		c0.8,3.1,3.3,4.9,6.2,5.9c0.7,0.2,4.8,3.8,5.3,3c-1.7-2-3.2-5.6-5.4-6.4c-1.7-0.6-4.6-1.7-5.9-3c-2.8,0.3-4.2-1.8-6.5-2.6
		C107.5,106.3,108,108.1,108.9,109.7C109,109.9,107.9,108.1,108.9,109.7z"/>
	<path class="st4" d="M346.8,97.5c0.3,1.9-5.9,1.5-6.9,0.9c-1.9-1,0.8-2.1,1.8-2C342.8,96.6,346.3,96.6,346.8,97.5
		C347.1,99.2,346.2,96.5,346.8,97.5z"/>
	<path class="st4" d="M248.7,98.3c1.3,0.7-1.8,11.9-2.3,13.6c-0.6,2.2-2,4.2-2.4,6.3c-0.3,1.8-1.7,4.2-3.7,4.4
		c-4.7,0.5-5.3-7.6-5.4-11c-0.1-3.5-1.1-8.3,0.4-11.7c1.1,2.1,0.5,6.3,0.9,8.7c0.6,3.8,0.2,6.9,2.4,10.4c1.2,1.9,3.2,1.7,3.2-0.9
		c0-2.4,1.6-2.8,2.5-4.9C246.2,108.4,246.8,103.1,248.7,98.3C248.9,98.4,247.1,102.2,248.7,98.3z"/>
	<path class="st4" d="M129,105.3c0.1,2.1,0.2,3.1-0.3,5.3c-0.2,1.1,0.2,4.8-0.6,5.5c-2-0.7-1.5-3.9-1.4-5.4
		C126.8,109.5,126.4,102.7,129,105.3C129.1,106.3,128.3,104.6,129,105.3z"/>
	<path class="st4" d="M253.9,105c2.5,0.7-1.3,12-2.2,13.7c-0.9,1.8-1.6,3.4-1,5.5c0.7,2.5,3.4,0.2,4.1-0.9c1.2-1.8,3.2-3,5.8-3.9
		c4.5-1.4,6.3-4.5,7.7-8.9c2.2,0.3-2.1,8.4-3.1,9.1c-1.3,1-3.7,2.5-5.4,2.6c-2.6,0.3-3.2,3-4.9,4.4c-1.3,1.1-5.1,1.3-5.6-0.5
		c-0.8-2.7-1.1-5.1,0-7.8c0.8-2.1,2-3.7,2.8-5.9C253,110.2,253.7,107.3,253.9,105C254.3,105.1,253.9,105.9,253.9,105z"/>
	<path class="st4" d="M153,116.9c0.7,0-0.9,7.7-1,8.6c-0.4,3.4-1.8,6.2-4,8.6c-1.6,1.7-4.6,4.9-7.1,5.2c-0.9,0.1-2.2,1-3.2,1.3
		c-1.7,0.6-2,1.1-2.7,2.7c-3.5,7.7-3.6,16.4-4.8,24.8c-0.1,0.7-0.2,3-1,3.2c-2.1,0.7-0.6-4.1-0.6-5.2c-0.2-3.9,0.7-8.3,1.2-12.1
		c0.5-3.6,1.3-7.4,2.7-10.8c0.3-0.7,0.6-1.4,1-2.1c0.8-1.4,0.3-2.2,0.3-3.8c0-2,0.5-4.2,1.1-6.2c1.6-4.9,6.9-6.8,11-9.1
		c2.2-1.2,3.1-3.1,4.4-4.4c1-1,0,3.1-0.4,3.6c-1.2,1.4-2.8,2.5-4.4,3.3c-5.6,2.9-9.8,6.2-9.5,13.2c1.8,0.6,7.4-11.3,10.3-11.5
		c-2.6,3.7-6.5,7-7.9,11.5c1.4-0.2,4.3-1.6,5.3-2.6c0.7-0.7,2.5-2.6,3.6-2.9c1.1-2.3,2.3-4.5,2.9-7
		C150.5,123.8,151.4,116.9,153,116.9C153.8,116.9,152.9,116.9,153,116.9z"/>
	<path class="st4" d="M172.8,116.5c0.3,0.9-1.3,2.6-1,4c0.3,1.5,1.8,3.1,3.5,2.3c0.6-0.3,1.4-0.9,1.8-1.4c0.8-1.1,2.2,0.3,1.6,1.2
		c-0.6,1.1-2.1,1.3-2.6,2.5c-0.5,1.3-0.4,3.5,0,4.8c1,3.3,4,4.9,7,4.6c1.7-0.2,2.1-2.2,3.8-2.4c1.9,1.5,0.1,2.5-1.4,3.3
		c-3.5,1.7-6.7,1.2-9.2-1.7c-0.9-1.1-1.6-2.7-2.1-4c-0.8-2,1-4.7-1.4-5.4C169.1,123.1,169,115,172.8,116.5
		C173.1,117.4,172.3,116.3,172.8,116.5z"/>
	<path class="st4" d="M114.1,123.6c1.3-0.2,1,3.5,1.1,4.3c0.4,2.1,1.2,3.8,1.8,5.8c1.4,3.9,1.5,8.4,0.3,12.4c-1,3.2-2,6.1-4.3,8.6
		c-2.4,2.6,5.3,6.2,7.2,7.7c2.4,1.9,3.3,2.9,4.4,5.6c0.9,2,2.7,7,1.5,8.9c-0.6,1,0.2,2.7,0.1,3.8c0,1.5-0.2,3-0.2,4.6
		c0,1.8-0.7,4.5-0.2,6.3c0.4,1.6-0.1,6.7-1.1,8c-0.5,0.7-0.8,2-1.1,2.8c-0.7,1.7-1.3,2.2-2.8,3.3c-1.9,1.4-1.9-1.2-1-2.3
		c1.3-1.4,2.1-2.2,2.6-4.1c1-3.9,1.3-8,1.4-12c0.1-4.5,0.5-9.4-0.2-13.8c-0.3-1.9-0.8-4.3-1.7-6c-1.3,0.1-3.8,2.2-4.8,3.1
		c-1.7,1.5-6.3,1.6-8.5,1.2c-2-0.4-4.2-0.8-6.1-1.6c-1.3-0.6-2.5-1.4-3.6-2.2c-0.8-0.4-1.9,0.1-2.6-0.5c-0.1-0.9,4.1-2.1,4.8-2.4
		c2.5-1,4.7-2.4,7.2-3.4c1.5-0.6,3.1-0.8,4.6-1.4c-0.3-1.3-1-2.7-1.9-3.7c-1.3-1.5-2.7-3.8-3.1-5.7c-0.7-3-1.2-4.6-0.8-7.7
		c0.4-3.4,1.7-6.3,2.7-9.5c0.4-1.1,0.9-2.9,1.4-4.1C112.4,127.4,114.1,126.4,114.1,123.6C114.5,123.5,114.1,123.8,114.1,123.6z
		 M112.2,131.7c-1,3.2-2.3,6.8-2.9,10.1c-0.3,1.9-1.3,8.3,1.2,9.4c0-2.4,1.6-8.5,4.6-9.1c0.1,1.1-1.5,3.2-1.9,4.3
		c-0.7,1.8-1.3,3.6-0.7,5.5c2-3.7,3.7-7.5,3.8-11.5c0.1-4.1-1.6-7.9-2.9-11.8C113.1,129.7,112.5,130.7,112.2,131.7
		C111.9,132.8,112.6,130.5,112.2,131.7z M116.5,163.4c-4.7-2.2-11.1,2.3-15.6,3.8c3.3,0.6,7.5,3.8,11,2.7c2.4-0.8,5.8-0.8,7.2-3.4
		c-1.3-0.4-2.7-0.6-4-0.6c-1.1,0-3.4,1.2-4.4,0.8c1.2-2.5,4.9-2.5,7.2-2.4C118.1,163.5,117,163.7,116.5,163.4
		C116,163.2,117,163.6,116.5,163.4z"/>
	<path class="st4" d="M208.1,205.1c0.5-0.9,3.7-1.2,4.7-1.5c1.8-0.5,3.6-2.1,4.7-3.5c2.3-3,4.4-7,5.4-10.9
		c2.4-10.1,3.8-21.3,4.2-31.7c0.2-5.9,3.1-23.4-4.1-26.6c-3.5-1.5-6.7-3-9.1-6.2c-0.4-0.9-3-2.9,0-2.9c1.6,2,3.7,3.8,6,5
		c2.4,1.3,4.8,1.9,7,3.6c0.7,2.1,1.6,4.7,2.5,6.7c1,2.2,0.5,5,0.4,7.2c0,1.1-0.4,9.7-0.1,9.8c1.1,0.8-1.1,10.3-1.2,11.7
		c-0.4,4.7-0.9,9.5-1.3,14.2c-0.4,4-1.3,9.1-2.9,12.7c-1.5,3.3-2.9,6.9-5.5,9.4C216,204.7,211.7,207.1,208.1,205.1
		C208.7,204.2,209.8,206,208.1,205.1z"/>
	<path class="st4" d="M266.9,124.4c4.1,1.3-2.7,3.5-0.5,5.3c2.1,1.8,4.9-1.2,7-1.3c-1.8,1.6-4.6,4.1-7.4,3.6c-1.5-0.3-3-2.5-2.5-3.9
		C263.9,126.6,266.4,126.4,266.9,124.4C267.5,124.6,266.6,125.5,266.9,124.4z"/>
	<path class="st4" d="M201.9,127.5c0.6,1.8,0.4,3.9,1.9,5.3c1.3,1.1,3.2,1.3,4.7,1.6c1.1,0.3,2.1,0.5,3.2,0.3c0.9-0.1,1.6-1.1,2.6-1
		c0.3-0.5,3.1-3,3.6-3.1c0.6,1.1-3.2,4.4-4.1,4.7c-2.4,0.6-4.3,1.2-6.9,0.6c-2.8-0.6-5.1-2.1-6.2-4.7
		C199.8,129.1,200,127.8,201.9,127.5C202.1,128.2,201.4,127.6,201.9,127.5z"/>
	<path class="st4" d="M261.4,129.2c0.2,1.6-4.6,3.7-5.6,4.8c-2.2,2.4-4,5.2-4.1,8.3c-0.1,3.1-0.2,6.7-0.4,9.4
		c-0.3,4.6,0,8.9,0.1,13.5c0.3,7.5-1.9,19.8,3.4,26c2.2,2.6,4.1,4.7,7,6.5c1.6,1.1,3.1,1.6,5.1,2c1,0.2,5.8,1.3,6,2.3
		c-0.1,0.6-5.2-0.1-5.7-0.2c-3.6-0.9-8-1.4-10.6-4.6c-2.8-3.4-5.4-5.6-6.2-10.1c-1.1-5.3-0.7-10.3-1-15.7c-0.2-4.4-0.3-8.7-0.3-13.2
		c-0.1-5.5,0.7-10.9,0.3-16.4c-0.2-3,0.8-3.4,2.1-6C252.5,134,258.6,128,261.4,129.2C261.5,130.5,259.8,128.5,261.4,129.2z"/>
	<path class="st4" d="M302.4,136.4c0.3,0.4,2.5,0.2,2.9-0.1c1-0.8,2.3-3.5,3.7-1.5c1.3,1.9-0.9,1.8-1.9,2.8
		c-1.7,1.7-2.2,1.4-4.2,0.7c-2.3,7.6-16.5,15.2-21.6,6.2c-0.6,0.2,0.4,1.1-0.2,1.4c-1.5,0.1-2.8,1-4.3,0.7c-2.4-0.5-3-3.2-5.6-2
		c-4.6,2-10,1.3-11.7-3.7c-0.4-1.2-0.5-2.4-0.7-3.6c1.9-2.1,2.3,1.1,2.7,2.3c1.1,3.2,4,4.9,7.4,3.7c1.2-0.4,2.1-1.3,3.2-1.8
		c1.8-0.9,1.9,0.6,3,1.6c0.4,0.4,1.7,0.9,2.2,1.2c1.4,0.6,2.6-0.8,3.8,0c-0.4-1-1.6-4.8,1-3.1c0.8,0.6,2.2,2.8,2.9,3.6
		c2.9,3.7,9.9,0.1,12.7-2.2c2.8-2.3,4.2-6.1,1.5-9.1c-0.6-0.7-0.8-0.2-1.4-0.6c-1-0.8,1.4-0.9,1.7-0.8
		C301.2,132.6,302.1,134.8,302.4,136.4C302.7,136.7,301.9,134.1,302.4,136.4z"/>
	<path class="st4" d="M194.9,132.6c0.6,0.2,0.9,0.6,0.7,1.2c-0.4,0.1-0.8,0-1.2-0.2C194.6,133.2,194.7,132.9,194.9,132.6
		C195.6,132.6,194.8,132.9,194.9,132.6z"/>
	<path class="st4" d="M211.9,143.9c1.2-1.5,2.5,0.2,3.6,1c1.4,0.9,4-0.6,5.3-1.4c0.8-0.6,2-1.6,2.1-2.7c0.2-1.1-0.3-2.1-1-2.9
		c-1.3-1.5-2.2,0.2-3.1-0.6c0.7-4.1,8.3,1.8,5.2,5.5C221.9,145.2,212.9,150.4,211.9,143.9C212.2,143.5,212,144.6,211.9,143.9z"/>
	<path class="st4" d="M191.5,137.9c0.1,0.3,0.4,0.5,0.7,0.5c0.3,1.1,0.2,2.3,0.5,3.4c0.3,1,0.8,1.4,1.2,2.4c1.3,3.1,3.8,3.2,6.3,3.9
		c2.1,0.5,6.5-1.2,6.9-3.8c0.3-2.1,5.1-0.1,0.7,2.8c-4.5,3-10.2,4.4-14.2,0.3c-1.5-1.6-2.6-3.7-3.2-5.9c-0.5-1.9-2.6-1.5-4.4-2.6
		c-1.3-0.8-1.8-3.2,0.2-2c0.9,0.5,2.1,1.5,3.2,1.6C190.3,138.5,190.7,137.8,191.5,137.9C191.6,138.2,190.5,137.7,191.5,137.9z"/>
	<path class="st4" d="M128.5,180c-1.6-0.2,0.5-4.4,0.9-5c1.6-1.9,3.8-3,5.3-4.6c0.8-0.9,2.3-1.8,3.5-2.4c1.6-0.8,2.2-0.3,2.6-2.1
		c0.3-1.5,1-3.3,1.7-4.6c1.4-2.4,4.4-5.7,6.2-7.4c1.8-1.7,4.7-2.1,6.5-3.8c0.8-0.7,1.6-1.3,2.3-2.1c1.7-1.7,1.5-1.4,3-0.3
		c0,0-0.8,1.6-0.8,1.7c-1.1,1.2-0.3,2.5-0.8,3.9c-0.7,1.5-0.3,3.4-0.7,5c-1,3.3-3,6.1-5.5,8.6c-1.6,1.6-4.5,2.5-6.7,2.5
		c-1.3,0-2.3-0.4-3.5-0.5c-1.5-0.1-2.9,1.2-4.2,1.8c-2.4,1.2-4.9,3.4-6.9,5.3C130.7,176.8,129.7,179.9,128.5,180
		C127.6,179.9,129.3,179.9,128.5,180z M154.5,152.9c-4.2,2.3-8.8,6.3-10.6,11.3c1.8-0.5,3.3-1.5,4.8-2.5c0.6-0.4,2.1-2.5,2.6-2.6
		c1.2,3.6-6.4,5.5-7.9,7.4c4.4,0.4,7.3-0.1,10.2-3.8c1.4-1.8,2.3-3.9,2.8-6.1c0.4-1.6,2-4.6,1.4-6.2
		C157.1,151.7,155.7,152.2,154.5,152.9C154.1,153.1,155.6,152.2,154.5,152.9z"/>
	<path class="st4" d="M155.5,35.9c-3-1.2-5.2-1.8-8.6-1.4c-1.5,0.2-8.2,2.1-7.7,4.5c3.6-0.7,6.2-3.2,10.3-2.8
		c2.4,0.2,2.6,0.9,3.6,2.3c1.4-0.3,2,1.3,3.1,1.2c1.6,0,1.4-1.9,1.7-2.9c0.9-1.4,1.9-2.9,3.2-4c4.1-3.6,7.8-1.2,12.1,0.4
		c0.4-1.8-6.6-3.3-7.6-3.4c-2.4-0.3-3.7,0.1-5.6,1.5C158.7,32.3,156.1,34.2,155.5,35.9C154.3,35.4,155.7,35.2,155.5,35.9z"/>
	<path class="st4" d="M234.3,155.6c0.3-0.1,1.6,19.3,1.7,21.4c0,1.7,1,13.8-1.4,13.9c-2.3,0.1-0.3-13.3-0.3-14.9
		C234.5,169.4,232.6,162.1,234.3,155.6C234.5,155.6,234,156.6,234.3,155.6z"/>
	<path class="st4" d="M77.4,174.5h0.1c0.1-0.1-0.3,0.8-0.3,0.8c-0.2,0.3-0.3,0.6-0.5,0.9c-0.4,0.9-0.9,1.6-1.4,2.5
		c-1,1.9-1.7,4-2.8,5.8c-2.9,4.5-6.2,6.1-11.1,8c-0.6,0.3-6,1-5.7,1.7c0.7,1.4,0,2-0.4,3.1c-2.1,5.7-3.9,10.5-3.8,16.6
		c-3.2,0-1.4-8.2-1-9.8c0.6-2.2,1.2-4.9,2.4-6.6c0.2-0.3,2-3.8,2.1-3.5c-0.7-1.2,0.2-0.8-0.1-2c-2.9,1.2-7-0.7-9.2-2.4
		c-2.1-1.6-3.9-3.6-5-6c-0.5-1.1-0.9-2.4-1.6-3.4c0.4,0,1.9,0.2,2.1-0.1c0.2-0.2,4.3,0,4.8,0.1c3,0.6,10.1,4.5,9.6,8.4
		c1.4-1.4,2.3-3.7,3.5-5.3c1.1-1.5,2-2.3,3.4-3.4c3-2.3,6.9-4.2,10.8-4.2c-2.6,2-6.4,2-9.2,4c-1.7,1.2-3,2.9-4.1,4.7
		c-0.5,0.9-1,1.9-1.5,2.8c-0.5,0.8-1.3,1.8-1.3,2.8c0.7,0.1,1.7-1.1,2.2-1.6c0.9-1,1.7-2.2,2.8-2.9c1.8-1.1,5.4-5.5,7.6-5.1
		c0.5,1.3-2.7,3.5-3.5,4.2c-2.1,1.7-4.2,3.4-6.4,5.1c-0.3,0.2-0.4,0.6-0.7,0.8c-0.4,0.3-1.3,0.5-1.2,1.1c0.9,0.1,1.4-0.1,2.2-0.3
		c0.9-0.3,1.7-0.8,2.6-1c1.1-0.3,2.1-0.8,3-1.3c1.4-0.8,2.7-3.1,4.2-3.5c0.8-0.2,1.9-2.8,2.4-3.4c0.9-1.1,1.5-2.5,2.1-3.8
		c0.2-0.5,0.9-1.3,0.5-1.8c-0.3-0.3-1,0-1.2-0.4c0.6-0.3,1.2-0.3,1.8-0.5C76.4,175.2,76.8,174.7,77.4,174.5z M50.4,185.3
		C50.6,185.4,49.8,185,50.4,185.3c0.3,0.2,2.7,2,3,1.7c-1.8-1.1-3-2.9-4.9-4c-2.2-1.3-4.2-1.1-6.6-1.4c0.6,2.1,2.4,4.4,4,5.7
		c1.3,1,2.8,1.6,4.2,2.6c0.7,0.5,3.4,1.1,3.8-0.2c0.2-0.7-1.9-1.8-2.3-2.1c-1.2-0.8-2.9-1.7-3.6-3C48.9,184.3,49.7,184.9,50.4,185.3
		z"/>
	<path class="st4" d="M269.3,173.4c1.1,0.4,0,1-0.5,1.2c-1.6,0.8-3,1.7-4.3,2.8c-0.6,0.5-0.8,1.1-1.5,1.7s-1.7,2-2.1,2.6
		c-0.5,0.8-0.8,2.4-1.1,3.4c-0.4,1.5,0.7,2.6,0.3,4c-0.4,1.3-2.3,4.4-2.5,1.1c-0.2-2.8,0.4-5.4,1.8-7.9c0.9-1.7,1.9-3.2,3.2-4.6
		c0.9-0.9,2.2-2.2,3.4-2.9C266.9,174.3,268.6,174.4,269.3,173.4C269.6,173.5,268.7,174.3,269.3,173.4z"/>
	<path class="st4" d="M130.5,181.9c1,1.9,0.3,5.2,0.4,7.3c0.1,2,0,3.8,0.2,5.6c0.3,5.6,0.4,9.2,6.2,11.5c-0.6,2.2-4.6,0-5.7-0.7
		c-2.5-1.7-2.8-4.4-2.9-7.2C128.5,195.4,126.6,181.9,130.5,181.9C131.1,183,130.3,181.9,130.5,181.9z"/>
	<path class="st4" d="M219.4,188.7c-0.7,0.9-5-0.7-6.2-0.8c-2.7-0.3-5.5-0.9-8.2-1.4c-4.2-0.7-8.7,0.2-13.1-0.5
		c-4.1-0.7-9.3-0.2-13.4,0.4c-2.9,0.4-5.7,0.8-8.6,0.9c-2,0.1-3.9,0-5.9,0.2c-1.6,0.1-3.2,0.9-4.8,0.5c3-3.2,11.6-2.8,15.6-3.4
		s10.1-1.9,14.3-0.8c2,0.5,5.4,0,7.5-0.2c1.9-0.1,4.5,0.2,6.7,0.4C205.4,184.4,220.1,185.7,219.4,188.7
		C218.7,189.6,219.8,186.9,219.4,188.7z"/>
	<path class="st4" d="M269.8,185.1c0,1.4,0,2-1.3,1.2c-1.2-0.7-2.5,1.1-3,1.9c-0.6,0.9-1.1,1.9-1.9,2.7c-2.1,0.4-1.6-1.2-1-2.4
		C263.5,186.8,267.9,181.7,269.8,185.1C269.8,185.6,269.2,184.2,269.8,185.1z"/>
	<path class="st4" d="M111.1,192.7c-1.8,1.1-4.3,0-6.2,0.2c-2.5,0.3-5.1,0.3-7.6,0.9c-3.7,0.9-7.2,1-10.8,1.7
		c-3.4,0.6-6.6,1.9-9.8,2.6c-0.3,0.1-5.7,1.6-3.3,0.2c1.5-0.9,3-1.5,4.4-2c0.8-0.3,2.3-1.1,3.7-1.5c3.1-0.8,5.8-1.5,9-2
		C93.3,192.5,111.6,188.6,111.1,192.7C109.5,193.7,111.4,190.6,111.1,192.7z"/>
	<path class="st4" d="M138.6,192.9c-0.1,0.9,0.7,1.2,0.5,2.2c-1,0.8-2.6,0.5-3.7,0C131.2,193.3,137.9,193.2,138.6,192.9
		C138.5,193.9,136.9,193.6,138.6,192.9z"/>
	<path class="st4" d="M69.2,200c-0.1,0.4-1.4,0.6-1.9,0.7c-0.9,0.2-2.1,0-3,0.3c-1,0.4-2.1,1.1-3,1.7c-0.9,0.5-2.3,1.2-3.3,1
		c-0.1-0.8,0.3-1.2,0.9-1.7c1-0.7,2.2-1.4,3.4-1.9c1.3-0.5,2.6-0.8,4-0.9c0.8,0,1.8-0.1,2.6,0.2C69.1,199.8,69.2,199.9,69.2,200z"/>
	<path class="st4" d="M46.3,207.1c0.2,2.2-2.1,1.5-3.5,1.9c-2.6,0.8-4.4,3.1-7.2,3.6c-2.4,0.5-4.7,2.1-6.6,3.6
		c-1.7,1.3-3.1,3.8-4.7,4.9c-0.3,0.2,0.7-2.8,1.4-3.4c1.9-1.6,3.6-3.3,5.6-4.8C33.1,211.7,44.7,204,46.3,207.1
		C46.5,209.3,45.6,205.9,46.3,207.1z"/>
	<path class="st4" d="M229,200.5c1.2,2.7,0.1,5.5-0.3,8.2c-0.6,4.1-1.9,1.3-1.7-1.2c0.1-1.1,0.2-2.2,0.1-3.2
		c-0.6-0.5-2.7,1.2-3.2,1.5c-2.4,1.7-4.3,5.3-6.9,6.4C218.5,208.5,224.6,200.5,229,200.5C229.8,202.2,228.6,200.5,229,200.5z"/>
	<path class="st4" d="M255.6,210.3c-0.3,0.1-3.1-2.3-3.4-2.7c-1.3-1.4-3.3-2.3-5.2-2.3c0.5,1.8,1.6,4.7,3.1,5.9
		c1.8,1.5-0.4,1.1-1.6,0.4c-1.1-0.7-5.9-7-5-8c2.2-2.5,4.8,0.1,7.6,0.9C252.5,204.8,256.5,209.5,255.6,210.3
		C254.8,210.6,256.3,209.6,255.6,210.3z"/>
	<path class="st4" d="M241.7,215.1c-0.7-2.3-1.2-4.7-2.5-6.8c-1.3-2.2-2.2-2.7-3.5-0.9c-0.6,0.8-2.5,7-3.1,7c0.3-1-0.3-2.1-0.2-3.1
		c0.1-1.4,0.7-3.1,1.2-4.4c0.3-0.8,1.8-6.2,3.4-4.1c0.4,0.5,0.7,0.8,1.4,0.6c0.9,1.2,1.8,2.4,2.6,3.7
		C242.1,209.1,243.2,212.9,241.7,215.1C240.6,211.6,242.4,214.1,241.7,215.1z"/>
	<path class="st4" d="M356,81.5c-2.4,1-5,0.1-7.4,0.7c0.3-0.2,0.6-0.3,1-0.2c-2.3-1.2-4.1,1.5-5.8,2.4c-0.8,0.4-6,4.5-5.1,0.6
		c0.7-2.7,7-3.9,9.3-4.2c1.8-0.2,3.6-0.3,5.4,0C353.4,80.8,355.9,81.5,356,81.5C353.7,82.4,355.6,80.9,356,81.5z"/>
	<path class="st4" d="M92.3,136.1c-0.1-0.5,0-0.6,0.2-0.3c1.2,3.5,2.6,7.2,5.8,9.6c1.1,0.9,2.9,1.6,4.2,2.3c0.6,0.3,5.9,3.9,2.8,3.5
		c-2.8-0.3-6.4-3-8.4-4.9C93.5,143.3,93.2,140.3,92.3,136.1C92.2,135.2,92.5,137.2,92.3,136.1z"/>
	<path class="st4" d="M242.4,191.4c-2.1-0.1-1.4-18.6-1.7-21.4c-0.5-5.3-0.2-10.6,0-16c0.1-2.5,0.1-5,0-7.6c-0.1-1.9-1.1-5.3-0.7-7
		c-0.1,0.4,1.3,3.1,1.4,3.9c0.5,2.2,0.4,4.8,0.5,7c0.2,5.4,0,10.9,0.6,16.3s1.2,10.9,1.1,16.4C243.6,184.3,244.5,192.1,242.4,191.4
		C240.8,191.3,243,191.6,242.4,191.4z"/>
	<path class="st4" d="M267.9,195.5c0.4-4,11.1-0.9,13.9-0.1c2.6,0.7,5.3,0.4,7.8,1.6c0.8,0.4,1.5,0,2.3,0.2c1.7,0.4,3.1,1.1,4.9,1.4
		c4.6,0.7,9.5,3.5,13.8,5.1c2.7,1,5.3,2.1,8,3.2c1.2,0.5,2.4,1,3.5,1.6c0.4-0.1,3,0.2,3.3,0.6c0,0.1-4.6-0.6-5.1-0.8
		c-3-0.7-5.9-1.7-8.8-2.7c-5.6-2-11-3.8-16.8-5.1c-2.8-0.6-5.7-1.2-8.4-2c-1.5-0.5-4.5-1.2-6-1.1c-1.6,0.2-4-0.8-5.6-1.2
		C273.2,195.9,268.8,196.8,267.9,195.5C267.9,194.7,268.5,196.3,267.9,195.5z"/>
	<g>
		<path class="st5" d="M41.2,160c0.6,0.6-0.1,1.8,0.2,2.6c0.5,1.3,1.2,2.3,1.1,3.8c0,0.3-0.5,2.5-0.2,2.5c0.8,0,2.3,1,2.2,2
			c-0.2,1.4-1.4,1.4-2.6,1.5c-1,0.1-1.4-0.3-1.6,0.8c-0.1,0.6-0.5,1.2-0.6,1.8c-0.2,0.7-1,1.7-1.8,1.8c-0.7-1.1-0.8-2.3-0.6-3.5
			c-1.1,0-1.9,0.5-3,0.1c-0.7-0.3-1.4-0.6-2.2-1c-0.6-0.3-3.8-0.9-1.7-1.8c1.3-0.5,2.8-0.8,4.2-1.3c0.7-0.3,1.9-0.6,2.5-0.1
			c1.3,1,0.9-2.3,1.1-3.2C38.4,165.1,40.4,159.7,41.2,160C41.8,160.6,41,159.9,41.2,160z"/>
	</g>
	<path class="st4" d="M247,43.3c2.5-0.6,4.3-2.7,7-1.7s7.1,2.8,7.7,6.2c2.8-2.8,10.3-6.3,14.2-4.1c1.6,0.9,3.9,2.3,4.6,4.2
		c0.4,1.1,1,1.9,1.3,3c0.4,1.8-0.8,2.9,1,3.9c2.7,1.5,3.8,3.3,3.8,6.4c0,2,2,1,3.5,1.7c1.2,0.5,2.1,1.3,2.7,2.5
		c0.8,1.5,1.9,0.6,3.4,1.2c1.6,0.6,0.7,1.4,2.5,0.4c1.3-0.7,6.7-0.9,7-1.3c0.6-0.8,4.6,2.1,5.5,2.1c-0.2-0.1,1.4,1.4,1.4,1.4
		c1.1,1.2,1.3,2.3,1.9,3.8c3.9-1,5.1,0.3,8.6,1.5c1,0.3,2.8,3.1,3,3.1c0.8-0.1,0.6,5.4,1.2,6.1c1.8,2.2,2.3,4.7,1.6,7.5
		c-0.6,2.6-4,4.8-3.8,6.8c0.1,1.8,0,3.6-0.6,5.2c0.5,1.3,1.4,2.4,1.4,3.8c1.2,0,1.8-0.7,2.8,0.4c0.9,1.1,1.5,2.4,1.7,3.8
		c0.5,3-0.7,7.5-3.5,9c-1.3,0.7-2.6,0.8-2.6,2.5c0,1.4,0.5,3-0.3,4.4c-1.3,2.1-2.8,4.1-4.8,5.5c-1.9,1.3-3.7,2-6,2.3
		c-1.6,0.2-5.5-0.6-6-2.7c-0.3-1.1,0.9-1.7,1.8-1.3c1.6,0.8,1.5,1.5,3.5,1.5c2.8-0.1,5.6-1.3,7.5-3.5c1.5-1.8,2.6-3.4,2.4-5.9
		c-0.3-3.6,1.1-3.6,4.1-4.9c0.9-0.4,1.6-2.3,1.8-3.2c0.4-1.6,0.3-3.2-0.3-4.7c-1-2.4-3.2,0.2-4.2-1.9c-1-2-1-4.9-3.7-5.8
		c-2-0.6-2.9-2.4-5.1-2.6c-4.8-0.4-8.3,2.7-12.5,3.3c4.3-2.1,9.4-6.6,14.6-4.6c1.7,0.6,5.5,4.4,6,1.6c0.4-2.2-2.2-5,0.8-5.6
		c2.7-0.5,3.6-4.4,3.4-6.7c-0.1-1-0.6-2.6-1.6-2.9c-1.6-0.4-0.9-1.7-0.7-2.9c0.5-2.6-0.7-5.4-3-6.4c-1.4-0.7-6.9-3.9-6.9,0
		c-0.3-0.1-0.5-0.2-0.7-0.5c-0.7-0.2,0.4,1.9-1.3,0.8c-0.8-0.5-0.4-2.8-0.6-3.6c-0.6-3-2.8-4.2-5.4-5.3c-2.8-1.2-7.1-0.1-8.6,2.6
		c0.1,1.6,0,3-1.5,3.7c-1.4,0.6-0.6-3.5-0.2-4c-1.4-0.1-1.5-2.1-3-0.9c-1.4,1.1-3,2.1-2.4-0.8c0.7-3.3-5.4-5-6.3-1.9
		c-0.8,1.5-2.5,0-1.3-1.8c0.6-0.9,0.8-3.3,1.2-3.7c1.2-1.2-2.3-3.9-3-4.3c-0.9,0-3.3,0.6-3.8,1.3c-0.8,1.4-2.9,0-2.2-0.6
		c1.2-1.2,3.7-1.3,4.1-3.3c0.7-3.4-2.3-8.1-6-8.3c-4.2-0.3-8.8,1.7-11.1,5c-2.6,3.6-3.8-4.2-6-5.5c-2.4-1.5-8.5-2.8-8.6,1.5
		c0,1.6-1.6,0.7-2.4,0.4c-0.5-1.2-0.3-1.9-1.3-2.9c-1.6-1.5-3.7-1.8-5.8-2.1c-4-0.5-8.9,0.5-12.4,2.6c-2,1.2-3.5,3.2-4.4,5.4
		c-0.5,1.2,0,5.5-1.5,5.1c-1.7-0.5,0.5-2.3-2-1.9c-2,0.4-3.4,1.2-4.2,2.9c-0.1,0.2-1.1,4.4-2.1,1.5c-0.2-0.8-0.7-1.6-1.2-2.2
		c-0.5-0.5-2.1-0.6-2.2-1.1c-0.8-2.6-8.4,0.5-9.5,1.9c-0.5,0.6-0.8,1.6-1,2.5c-0.5,2.1-1.9-0.3-1.9-1.3c-2.4-0.5-6.9,1.2-8.4,3.1
		c-1,1.2-1.8,2.7-2.6,4.1c-1.2,2-3.6,1.6-5.6,2.5c-2.3,1-3.6,3.7-3.8,6.1c-0.4,4.2,2.9,5.8,6.5,5.8c-0.6,1.8-3.5,0.9-4.8,0.7
		c-0.3,1.4-2.4,1.6-2.9,3.3c-1.1,3.8-1.1,8.5,3.9,8.8c3,0.2,0,2.6-0.5,3.5c-0.7,1.1-0.8,2.9-0.5,4.4c0.4,2.2,1.4,4.6,2.8,6.4
		c0.8,1,1.8,1.8,2.8,2.6c1,0.7,2.5-0.1,3.1,0.4c-0.4,0.6-1,0.9-1.7,1c1.1,2.8-1.2,4.6-0.2,7.9c0.8,2.7,4.8,8.4,8.2,7.5
		c1.3-0.3,2.5-1.5,3.7-1.5c1.4,0.1,3.2,1.3,4.4,1.2c1.6-0.2,1.7-1.6,2.4-2.6c0.9-1.4,1.6,0.5,1.2,1.5c-1.6,3.9-3.5,3.8-7.1,2.5
		c-1.7-0.6-2.3,1-3.8,1.3c-1.8,0.4-3.7-0.3-5.1-1.4c-4.2-3.4-10.1-11.1-4.3-16.1c-2.7-0.6-4.7-2.3-6.2-4.5c-1.5-2.5-1.8-5.6-5.4-3.4
		c-1.5,0.9-2.1,4-1.8,5.6c0.6,3.1,3.3,3.5,5.9,2.5c0.1,2.5-3.3,1-1.4,4.3c0.3,0.5-0.2,1.2-0.7,1c-0.8-0.4-1.3-1.2-1.6-2.2
		c-0.8-2.4-3.8-2.3-4-5.8c-0.1-2.4,0.3-5.1,2.2-6.7c0.7-0.6,1.5-0.9,2.3-1.2c2.5-0.6,1.7-0.4,2.1-3c0.2-0.9,1.7-3.3,0.5-3.7
		c-1.1-0.4-2-0.9-2.7-1.9c-1.9-2.8-1.5-12.7,3.5-11.8c-4.8-2.6-2.7-9.5,0-12.4c1.1-1.3,1.9-1.9,3.6-2.1c2.2-0.3,3.6-1.8,4.8-3.5
		c1.4-2,2.5-3.9,5.3-4.6c2.3-0.5,4.5-1.2,7-1.4c2-0.5,3-2.8,5.2-3.1c2.9-0.5,5.1-0.1,8,0.5c1,1.8,2.2,1.6,3.5,0.6
		c1.5-1.1,3.7-2.2,5.6-2c0.8-1.7,0.9-3.3,1.9-4.8C226.3,39.1,240.9,37.8,247,43.3C248.7,42.9,245.3,41.8,247,43.3z"/>
	<path class="st4" d="M294.7,75c0.6,1.7-0.7,3.5-1,1.1c-0.2-2.3-3.4,2.1-3.6,2.5c0.9,2.2,0.5,4.9-2.2,2.9c-1.7-1.3-3.9-0.2-5.7,0.6
		c-1.3,0.6-4.7,3.3-2,4.6c0.2,0.1,2.4,3.3,2.4,3.3c0.6,2.1-5,0.8-6.2,1.4c-0.9,0.5-1,1.4-1.7,1.9c-1.3,0.9-1.9-1.7-1.9-2.3
		c-0.1-2.8-1.6-4.7-4.1-6.1c-3.2-1.7-5.1-0.6-7.4,1.7c-0.2,3.3-0.8,5.1,1.4,7.9c0.2,0.9,1.4,1.3,0.7,2.4c-0.8,0.8-2.6,0.3-3.5,0
		c-2-0.6-2.2,1.7-3.9,2.4c-1.2-1.5-0.8-3.6-1.9-5.3c-1.6-2.4-4.3-3.7-6.8-2.1c-1.3,0.8-2.2,2-2,3.7c0.1,0.9,1.5,1.7,1.2,2.5
		c-2-0.2-3.3-1.8-3.1-3.7c0.2-1.8,2.5-3.1,3.9-4c3.3-2.1,8.6,1.9,9.7,5.1c1.1-0.5,1.9-0.9,3.1-0.7c-0.2-0.6-0.4-1.1-0.8-1.6
		c-0.6-1-0.3-2.3-0.2-3.4c0-1.7,0.7-2.9,1.7-4.2c2.5-3.1,5.9-3.3,8.9-1.4c0.7,0.5,2.2,1.3,2.9,1.9c0.8,0.7,1,1.3,1.4,2.2
		c0.6,1.1,0.4,2.2,1.9,1.6c1-0.4,1.9-0.8,2.9-0.9c-0.4-1.3-1.4-1.9-1.2-3.4c0.2-1.5,0.9-3.2,2.3-4c2.4-1.4,5.8-3,8.5-2
		C289.1,77.2,291.5,71.9,294.7,75C295,75.7,292.7,73.1,294.7,75z"/>
	<path class="st4" d="M247,133.3c0.9,5.2-0.3,10.5-0.5,15.7c-0.2,5-0.1,10,0,14.9c0.2,5.4,0.7,10.8,1.3,16.2
		c0.3,2.4,0.6,4.9,0.9,7.3c0.1,0.6,1.3,7.2-1.2,4.4c-0.8-0.9-0.8-3-0.9-4.2c-0.1-2-0.9-3.7-1-5.7c-0.2-4.9-0.8-9.9-1-14.8
		C244.1,155.6,245.6,144.7,247,133.3C247.8,138,246.5,137.3,247,133.3z"/>
	<path class="st4" d="M127.8,124.5c0.8,3-0.4,7.6-0.4,10.8c0,4,0.2,7.9-0.2,11.8c-0.3,3.9-0.6,7.8-0.3,11.7c0.1,1.6,0.2,3.3-0.3,4.8
		c-0.8,2.1-1.9,0.5-2-0.9c-0.6-6.9,0.5-13.7,0.6-20.5c0-3.7,0.3-7.5,0.2-11.2c0-1.5-0.1-3,0.1-4.5C125.7,124.2,126,124,127.8,124.5
		C128.2,125.9,127.3,124.4,127.8,124.5z"/>
</g>
</svg>
