<?xml version="1.0" encoding="utf-8"?>
<!-- Generator: Adobe Illustrator 21.1.0, SVG Export Plug-In . SVG Version: 6.00 Build 0)  -->
<svg version="1.1" id="Layer_1" xmlns="http://www.w3.org/2000/svg" xmlns:xlink="http://www.w3.org/1999/xlink" x="0px" y="0px"
	 viewBox="0 0 360 236" style="enable-background:new 0 0 360 236;" xml:space="preserve">
<style type="text/css">
	.st0{fill:#E7ECEF;}
	.st1{fill:#FFFFFF;}
	.st2{fill:#A6D2A8;}
	.st3{fill:#EA9B95;}
	.st4{fill:#CECECD;}
	.st5{fill:#A3D2EC;}
	.st6{fill:#747E91;}
</style>
<g>
	<path class="st0" d="M133.1,194.4c-12.4,7.9-29.2,8-43.3,6c-7.3-1-12.9-4.1-19.7-6c-5.1-1.4-12.6,0.1-16.2-4.5
		c-4.6-5.9,2-8.4,4.3-11.8c10.9-15.5-7.1-17-15-26.4c-5.6-6.7-9.7-21.3,3.8-22.1c7.4-0.4,11.8,5.6,19.3-2c4.1-4.1,4.6-9.2,3.5-15
		c-0.5-2.7-2.7-3.9-2.9-7.2c-0.3-4.7,6.2-14.9,10.5-15.8c6.2-1.4,7.6,3.3,13.2,0.2c16.6-9.6,1.4-44.7,20.5-52.4
		c2.6-1,7.3-1.4,10.1-0.8c4.7,1.1,2.3,1.1,5.8,3.3c3.2,2,1.5,3.7,6.1,4.8c7.4,1.7,12-4.2,17-8c6.6-5,13.8-14.6,21.1-18
		c9-4.3,18.3,3.8,24.7,8.7c6.9,5.3,14,6.6,22.6,7c9.1,0.4,16.2-5.9,24.5-5.7c14.6,0.3-2,12.1,2.2,17.8c5,6.7,15.9-6.2,21.9-4.8
		c13.3,3.1,1.5,12.8-4,16.1c-5.6,3.3-15.9,7.9-7.9,15.7c6,5.9,24.2-2.9,25.8,7.2c0.9,5.8-4.9,5-5,10.1c-0.1,4.6,4.4,5.6,7.5,7.5
		c15.7,9.8-3.2,14.5-0.5,26.5c1.4,6.5,16.4,8.4,22.1,12.2c9.7,6.4,10.7,8.9,9,21.8c-0.4,3.3-2.8,5.1-1.9,8.8
		c5.1,0.8,7.5,4.2,6.8,9.2c-1,7.4-6.7,4.9-11,8c-3.1,2.3-3.3,5.8-7,7.1c-6.3,2.2-6.9-2.3-10.7-4.4c-3.3-1.8-7.3-2.9-11.3-2.7
		c-6.4,0.4-8.5,5.2-16.4,5.8c-9.5,0.7-15.3-2.8-25.1-1c-15.8,2.9-30.5,4.2-47,1c-10.4-2-20.6-1.9-31.3-2.5
		C146.3,187,143.5,187.8,133.1,194.4z"/>
	<path class="st1" d="M246.4,210.6c18.2,0.1,71.3,8.2,77.6-17.6c4.1-16.7-15.1-33.4-27.4-40.4c-2-1.1-4,1.1-5.8-1
		c-1.9-2.2-0.6-7.2-0.8-9.7c-1-11.9-4-18.4-13.3-27.9c-2.2-2.2-1.2-4.2-4-5.5c-6.4-2.8-17.8,2.8-24.7,3.4c-6.6,0.5-15.3,1.6-21.7,1
		c0,0-1.7-31.5-2.3-33.8c-1-4.3-2.8-8.3-5.5-11.8c-2.3-3-5.6-4.3-8.3-6.8c-2-1.9-3.6-4.5-5.3-6.7c-1.7-2-3-4.5-4.9-6.5
		c-1.7-1.9-4.5-3.1-6.4-5c-1.2-1.2-2.8-5.3-1.5-7.1s5.5-0.8,7.3-0.6c4,0.5,11.9,1.6,14.3-1.7c4-5.7-1.3-11.1-6-13.3
		c-1.5-0.7-12.7-5.1-14.5-5.1c-14-0.5-6.2,13.3-8.8,22.1c-2.7,9.1-13.2,16.7-18.5,25c-6.9,10.8-9.1,14.4-9.1,27.8
		c0,9.6,3.5,27.1-6.6,29.1c-13.7,2.8-26-3.4-38.9-3.4c-12.4,0-20.6,12.5-29.8,19C77.8,136.7,66,142,65.4,146
		c-1.1,6.9,8.3,8.8,10.5,13.8c2.4,5.4-1.3,15.3-1.6,21.4c-0.4,7.2-0.3,10.1,3.4,14.9c3.2,4.2,10.1,5.7,13.7,9.1
		c7.7,7.3,5.4,11.6,16.6,12.5c9.6,0.7,15.5-3.5,24.4-5c15.6-2.6,32.9-2.2,48.9-2.2C203.1,210.7,224.7,210.5,246.4,210.6z"/>
	<path class="st2" d="M314.1,188.6c-12.6-0.9-25.1,0.1-37.7-0.5c-8.5-0.4-15.6-4-23.8-5.2c-11.2-1.7-13.7-1-16.7-11.9
		c0.2,0.7-5.2-1-5.9-1.6c-1.4-1.5-1.9-3.8-1.7-5.8c0.4-4.7,6.1-7.9,10-4.3c-2.1-6.5,4.2-11.7,10.6-8.8c4.6,2.1,4.3,7,4.4,11.2
		c6.6-4.4,10-0.3,13,5.9c2.5-2.7,1.6-7,4.3-9.8c3.6-3.8,9-3.5,14.1-3.1c5.6,0.4,9.6,4.3,10,9.9c3.1-2.6,11.1-6.1,15.3-3.7
		c2.8,1.6,3.9,5.2,4.8,8.1c0.3,1,1.7,9-0.9,8.5c4.5,0.7,9.3,4,7.7,9.7c-1.5,1.2-4.5,2.9-6.4,3.6C315,190.2,314.5,189.2,314.1,188.6z
		"/>
	<path class="st3" d="M218.4,171.4c0.8-10.9-0.5-21.7-2.6-32.4c-2.2-10.8,0-27.7,0-38.6c0-3.5,0-7.1,0-10.6c0-3.3-0.2-7.9-4.3-8.4
		c-4-0.5-8.2-0.3-12.1-0.2c-7,0.2-14,1-21,1c-2.8,0-5.6,0-8.4,0c-1.9,0-2-0.8-3-2.2c2.1-2.5,6.5-2,9.7-2c4.4,0,8.6-0.3,12.9-0.3
		c4.3,0,7.7-0.7,11.8-1c4.9-0.3,12.2-2.4,6.9-7.7c-6.3-6.4-9.4-15.4-15.7-21.7c-1.4-1.4-3.6-4-5.2-4.9c-0.6-0.3-2-1.4-2.8-1.2
		s-2.6,2.5-3.1,3.3c-1,1.3-1.6,2.9-2.6,4.2c-1.2,1.6-2.2,3.4-3.4,5c-1.9,2.6-3,5.4-5.3,7.6c-2,2-4.1,3.9-6.1,6
		c-4,4.4-6.3,9.6-5.5,15.6c1.2,9.7,2.7,27.4,3.3,37.6c0.3,6.1,0.9,12.4,0.5,18.6c0-0.7-7.2,0.7-7.9,1.2c-2.4,1.5-3.7,4-4.2,6.8
		c-1.2,6.1-0.4,15.7,2.3,21.4c1.5,3.1,5.7,8.5,10.8,5c5.8-3.9,0-11.5,2.4-16.3c3.6-7.2,26.7-8.4,34.2-4.4
		C210.5,158.7,201.6,174.9,218.4,171.4z"/>
	<path class="st3" d="M250.5,144.5c-7.2-1-18.8,10.3-21.2-1.3c-1.6-7.5,2-5.6,7.7-6.4c9.6-1.2,36.5-7.5,45.1-1.2
		c5.2,3.8,3.7,14.1,3.4,19.7c-6.1,1.6-19.1,6.3-24.4,0.4C255.7,149.7,260.9,145.9,250.5,144.5z"/>
	<path class="st3" d="M145.7,157.8c-0.6-10.6-8.8-15.6-16.6-20.8c-3.8-2.5-9.1-10.8-14.3-11.2c-9.1-0.7-27.8,17-30.9,24.9
		c-2.3,5.8-6,34.8-1.6,39.9c2.3,2.6,11.8,1.1,15.1,0.9c0.6-8.9,1-8.6,7.9-10.8c4.1-1.3,11.5-2.3,15.4,0c4.7,2.7,4.6,8.9,9.9,11.1
		c3.5,1.5,11.5,0,15.2-0.2C146.5,180.5,146.3,168.8,145.7,157.8z"/>
	<path class="st1" d="M176.6,113.6c6.9,5.7,21.6,8,27.8-0.8c6.1-8.7,4.5-23.6-6.2-27.2c-4.6-1.6-11.6-1.5-16.4-0.4
		C168.2,88.4,167.1,105.6,176.6,113.6z"/>
	<path class="st4" d="M249.5,118.4c-3.8,0.5-7.5,1.3-11.4,1.3c-3.5-0.1-7.5-1.6-10.8,0.3c-3.9,2.3-1.8,9.7-1.6,14.1
		c19,1.5,39.7,1.2,58.7,0c0.1-3.1-5.2-6.6-7.2-9c-2.7-3.2-4.7-7.3-8.8-8.6C264.1,115.1,254.4,117.7,249.5,118.4z"/>
	<path class="st4" d="M141,134.3c5.5,4.4,7.9,6.8,15.3,5.6c1.3-3.9,1.9-15-1-16.8c-6.2-3.8-20.4-1.1-27.4-0.5
		c-2.7,0.2,4.5,4.8,4.4,4.7C135.4,129.3,138.1,132,141,134.3z"/>
	<path class="st1" d="M92,166.4c0.4,8,1,8.1,8.8,7.6c10.8-0.6,26.8,3,36.8-1.2c1.4-0.6-0.5-13-0.6-14.7c-0.5-5.8,0.6-6.8-4.9-7.2
		c-10.1-0.6-20.5-1.5-30.5-0.4c-2.7,0.3-12.2,0.8-13,4c-0.3,1.2,1.8,3.1,2.2,4.1C91.7,161.2,91.9,163.8,92,166.4z"/>
	<path class="st5" d="M99.9,168.2c0.1,1.8-0.4,4.7,0.7,6.2c1.4,1.7,9.3,1.3,11.6,1.5c5,0.5,9.9,1.3,14.9,1.3c3.2,0,5.3,0.5,5.8-3.2
		c0.3-2.3,0.1-4.9,0.1-7.2c0-1.3,0.6-4.4-0.3-5.4c-1.2-1.3-5.4-0.5-7-0.5c-2.3,0-4.6,0-6.9,0c-4.7,0-9.4-0.2-14.1,0
		c-1.5,0.1-4.2-0.5-5.3,0.9C98.2,163.4,99.7,166.4,99.9,168.2z"/>
	<path class="st5" d="M197.9,175.4c-5.5,0-12.4,1.4-17.7-0.1c-1.8-0.5-4.4-0.9-6-1.5c-2.7-1.1-1.6-4.9-1.6-7.4
		c0-2.9-0.6-7.8,1.3-10.1c2.5-3,10.7-2.1,14.2-2.1c3.6,0,7.5-0.4,10.9,0.3c4.6,0.8,4.9,1.5,4.9,6.3c0,3.4,0.2,6.9-0.1,10.3
		C203.5,175.1,201.9,175.4,197.9,175.4z"/>
	<path class="st0" d="M293.6,66.1c-3.5,3-10.9,13.2-7.3,17.7c3.4,4.3,12.5,1,14.8-3c3-5.3-3.7-18.9-8.5-11.7"/>
	<path class="st1" d="M183.8,138c-4.7,0-17.4,0.9-15.2-3.7c7.7-0.1,15-0.4,23-0.2c3.9,0.1,17-1.8,16.1,3.3
		C207.1,141.2,188.8,138.1,183.8,138z"/>
	<path class="st6" d="M200.9,21.9c0.9,0.5,2.8-0.6,3.8-0.5c1.9,0.1,3-1,4.9-0.8c0.5,2,0.5,4,0.6,6.1c0.1,1.6-0.1,3.9,0.7,5.3
		c0.4,0.7-0.3,1.6,0.1,2.1c0.5,0.5-0.1,2.3-0.2,2.8c-0.4,2.4-0.3,0-0.7-0.7c-0.9-1.4-0.9-3.5-1.1-5.4c-0.2-1.5-0.3-3.1-0.5-4.6
		c-0.2-2.6,0.1-3.1-2.7-2.7c-2.2,0.3-4.7-0.4-4.7,2.2c0,1.9-0.4,3,1,4.3c1.3,1.1-2,6.8-3.7,6.6c0.1-1.9,1.5-3,2.1-4.7
		c1-2.8-5-1.1-6.4-1c-2.7,0.1-1.4-1.7,0.1-2.2c1.7-0.5,3.8-0.3,5.5,0.3c0.5-1.3-0.6-3-0.5-4.3c0.1-2.2-1-4.3-0.8-6.5
		c-2.6-0.5-6.9,1.5-9.2,0c-0.8-2.3,2.6-1.1,3.6-1.2C200,16,200.2,15.8,200.9,21.9C200.9,22.4,201.1,20.4,200.9,21.9z"/>
	<path class="st6" d="M187.4,18c0.2,0,0.3,1,0.3,1.3c0.7,4,0.7,9.6,0.7,13.9c0,1.7-0.4,11.9-1.3,7.7C186.7,38.7,186.5,18.1,187.4,18
		z"/>
	<path class="st6" d="M208.8,36.9c0.7,1.5-7.7,1-8.7,1.1c-3.3,0.2,0.3-1.5,1.6-1.6C202.5,36.3,208.4,36.1,208.8,36.9
		C209.2,37.9,208.4,36,208.8,36.9z"/>
	<path class="st6" d="M185.8,38.8c0.2,1.5-0.8,2.5-1.6,3.7c-1.2,1.7-2,3.4-3.2,5.3c-1.1,1.6-3.2,3.6-3.8,5.4
		c-0.2,0.6-2.2,3.9-2.8,3.9c0.3,2.5-4.2,6-5.5,7.7c-1.7,2-3.6,4.6-5,5.8c-0.7,0.6-2.8,3.4-3.7,3.2c-1-2,0.7-3.7,2-5
		c2.6-2.5,4.9-4.7,7.1-7.5c3.3-4.4,6.2-9.2,9.1-13.8c1.3-2,2.8-4.1,4.2-6.2C184,38.9,183.7,39,185.8,38.8
		C185.9,39.6,185.3,38.8,185.8,38.8z"/>
	<path class="st6" d="M217,70.2c-0.8,0.2-3-2.1-3.6-2.7c-0.9-0.8-1.3-1.9-2.2-2.7s-1.5-1.7-2.3-2.7c-1.8-2.3-4-4.4-5.9-6.6
		c-1.6-1.9-3.7-4.3-5.3-6.1c-1.3-1.5-4.2-5.5-5.8-6.1c-0.9-0.3-2-2.1-1.8-3.1c0.3-1.9,2.6,0.5,3.2,1c4,3.7,7.6,8,11.3,12
		c2.1,2.3,3.6,4.7,5.7,6.9c2,2.1,3.9,4.2,5.4,6.7C216.1,67.7,217.3,69,217,70.2z"/>
	<path class="st6" d="M137,77c-0.4,0.2-2.2-1.1-2.2-1.3c-0.4-1.3-3.8-1.4-4.9-1.3c-2,0.2-4,1.5-4.6,3.3c-0.3,0.8-0.6,1.6-0.9,2.5
		c-1.3,3.8,0.1,0-1.1,1.3c-0.3,0.3,0.7,1.2,0,1.3c-1.5-0.1-0.7-1.2-1.7-1.6c-0.7-0.3-1.1-1.6-1.5-1.8c-2-1.1-4.5,1.7-4.9,3.4
		c-0.7,3-1.8,5.7-0.6,9.2c-5-0.2,2.1-23.2,7.9-12.7c2.6-2.7,3-6,7.5-6.5C132.5,72.6,136.5,74,137,77C136.3,77.3,136.8,75.7,137,77z"
		/>
	<path class="st6" d="M222.2,75.2c-0.2,1.9-5.9,1.2-7.3,1.2c-1.5,0-8.1,1-8.8-0.2c-0.7-0.1,0.6,0.8-0.3,0.8
		c-1.2,0.1-2.5,0.2-3.8,0.2c-2.6,0.1-5.2-0.1-7.7,0.4c-4.3,0.9-9.1-0.2-13.5,0.5c-2.4,0.4-8.8-0.1-10.6,1.4c-1.2,1-4.1-0.1-5.6,0.2
		c-1.4,0.3-2.7-0.3-4-0.4c-2.1-0.1-4.3,0.2-6.3-0.3c-0.4-1.9,16.8-2.1,18.6-2.4c6-0.9,11.9-1.7,18-1.6c4.7,0.1,9.8-0.2,14.6-0.8
		c2.6-0.3,5.6-0.9,8.2-0.8C215.5,73.7,221.4,73.3,222.2,75.2C222.1,76.9,221.3,73,222.2,75.2z"/>
	<path class="st6" d="M213.7,82.1c-0.4,1.2-4.5,1.1-5.2,1.1c-3.2-0.2-6.4,0.5-9.6,0.1c-4-0.5-8,0.8-11.8,0.6
		c-2.6-0.1-26,2.9-25.8,0.4c0-0.4,0.7-0.8,1-0.9c1.1-0.6,2.6-0.7,3.9-0.8c2.6-0.2,5.3,0.3,7.9,0c4.6-0.5,9.1-0.6,13.7-1
		c3.7-0.3,7.4-0.3,11.2-0.4c2.6,0,5.3,0,7.9,0c0.7,0,6.8-0.1,7,0.5C213.7,81.8,213.7,81.9,213.7,82.1z"/>
	<path class="st6" d="M221.4,81.4c0.1,0,0.2,0.1,0.2,0.1c0.6,0.6,0.8,3.2,1,4c0.5,3.2,0.5,6.4,0.5,9.6c0,4.7,0.1,16.5,0.2,21.2
		c0,1.7-0.1,3.4-0.2,5.1c-0.2,2.7-0.1,5-0.1,7.8c0,1.8-0.3,3.4,0,5.1c0.2,1.4-0.9,5.7-2.2,2.4c-0.7-1.7-0.2-4.3-0.3-6.1
		c-0.2-2.7-0.1-5.4-0.1-8.1c0-2.9,0.3-5.8,0.5-8.9c0.3-5-0.2-17.3-0.5-22.2c-0.1-2.2-0.4-4.3-0.7-6.4c-0.1-0.8-0.5-2.2-0.1-3
		C219.9,81.5,220.8,81.1,221.4,81.4z"/>
	<path class="st6" d="M159.4,84.4c0.5,1.6-0.3,4.3-0.3,6.1c0.1,1.2-0.5,2.4-0.5,3.7c-0.1,3.1,0.3,6.5,0.5,9.8
		c0.4,5,0.7,17.1,1.1,22.1c0.2,2.5,0,4.9,0,7.3c0,1.7-1.8,5.2-2.4,1.8c-0.7-3.7-0.1-7.6-0.3-11.2c-0.3-4.7-1.4-17.3-1.1-21.9
		c0.2-3.1,0.2-6.4,0.2-9.6C156.8,91.2,156.4,82.2,159.4,84.4C159.9,85.8,159.1,84.2,159.4,84.4z"/>
	<path class="st6" d="M199.8,93.1c-1.3,0.2-3-2.5-4.3-3.1c-2.7-1.3-5.6-2.1-8.7-1.9c-3,0.2-6.6,1.9-8.7,3.9
		c-6.4,6-5.5,18.5,2.6,21.9c3,1.3,6.3,1.9,9.5,1.2c6.7-1.3,9.4-4.7,11.5-10.9c1-2.9,0.3-5.2-1-8c-0.7-1.5-1.7-4,1-2.5
		c1.7,0.9,2.8,5.1,2.9,7.3c0.3,7.7-6.2,15.8-14,16.9c-9,1.3-19.7-3.8-19.7-14.2c-0.1-7.9,4.4-14.9,12.1-17.4c2.9-0.9,7-1.1,10.3,0.3
		C194.7,87.1,203.1,90.6,199.8,93.1C198.7,93.3,201.2,92,199.8,93.1z"/>
	<path class="st6" d="M185.5,91.8c1.8,3.6,1.2,8,1.3,11.9c2.8-0.4,5.1-2.1,7.9-2.4c-0.9,1.9-10.1,6.7-10.5,3.2
		c-0.3-2.9,0.3-5.8,0-8.7C184.1,94.4,183.6,91.8,185.5,91.8C187.2,95.2,185.3,91.8,185.5,91.8z"/>
	<path class="st6" d="M274,112.4c-0.4,3.3,6.3,8,7.9,10.6c1.2,1.9,3.1,3.7,4.7,5.3c1.1,1,3.2,6.2,0.2,4c-2.7-2-4-4.8-6.5-7.1
		c-1.8-1.6-3-3.7-4.5-5.5c-1.1-1.3-4-3.8-3.7-5.5c-4.2-0.2-8.1,1.2-12.4,1.3c-2.7,0.1-5.2-0.3-7.9,0.3c-0.9,0.2-2.9,0.7-3.7,0.5
		c-1.9-0.5-5.8,0.2-8.3,0.3c-4.2,0.3-9.3,1.3-13.4,0.8c-1.3-0.2-1.6-1.9-0.5-2.5c1.4-0.7,4.8-0.5,6.4-0.6c4.9-0.2,9.6-0.3,14.4-0.6
		C255.3,113.1,265.2,111.5,274,112.4C273.7,114.5,271.6,112.2,274,112.4z"/>
	<path class="st6" d="M113.2,116.4c3,0,6.9,4.9,9.3,6.6c3.6,2.5,7.4,4.6,11,6.9c1.4,0.9,2.5,2.1,4.1,2.9c2.4,1.3,10.1,5.5,10.4,8.5
		c-3.9,0.3-6.4-2.3-9.5-4.5c-3.7-2.7-7.3-5.5-11.4-7.7C122.8,126.7,113.8,121.6,113.2,116.4C113.4,116.4,113.3,116.9,113.2,116.4z"
		/>
	<path class="st6" d="M154.9,117.4c0,1.5-3.2,1.5-5.3,1C149.7,116.9,153.5,117.5,154.9,117.4C154.9,117.8,152.8,117.5,154.9,117.4z"
		/>
	<path class="st6" d="M112.7,119.8c1.2,1.5-12.7,11.5-14.4,12.7c-1.8,1.3-3.6,2.7-5.4,4.1c-1.3,1-6,3.5-6.5,4.8
		c-0.2,0.5-3.2,2.4-3.8,2.5c-1.8,0.1-2.9,3-4.7,3.6c0-3.7,5.4-7,8.2-8.7c2.5-1.5,4.9-4.4,7.4-5.5c1.9-0.9,3.2-2.6,4.8-3.8
		c2.1-1.6,4.7-3.1,6.3-5C105.4,123.6,111.4,118.2,112.7,119.8C113.5,120.8,112.1,119.1,112.7,119.8z"/>
	<path class="st6" d="M284.8,137c1.6,1.3,0.1,7.3,0.1,9.2c0,2.7,1.4,7.4-0.7,9.6C280.7,154.2,281.3,137,284.8,137
		C286.1,138,284.5,137,284.8,137z"/>
	<path class="st6" d="M215.6,139.3c-1.2,2.9-7.4,0.8-9.5,1.3c-3.4,0.9-9.7,1.7-12.9,1.1c-5-1-10.1,0.6-15,0.5
		c-2.9,0-5.8-0.3-8.7-0.2c-1.5,0.1-6.3,0.9-7.4-0.4c-0.5-0.6-3.3,0.2-1.6-1.8c1.2-1.4,4.3-0.3,5.8-0.3c5.9-0.2,11.8,0.1,17.7-0.3
		c5-0.3,10-0.1,15-0.3C204.7,138.9,210,138.3,215.6,139.3C215.1,140.7,212.9,138.8,215.6,139.3z"/>
	<path class="st6" d="M220.6,139.3c0,0.8-1.2,2.9-2,1.3C218.2,139.5,219.8,138.8,220.6,139.3C220.6,139.8,219.2,138.4,220.6,139.3z"
		/>
	<path class="st6" d="M140.7,143c-0.9,1.5-4,0.2-5.4,0.3c-2.2,0.2-4.4,0.5-6.6,0.4c-3.8-0.1-7.8,0.6-11.6,0.9
		c-5.6,0.5-11.2,0.3-16.9,0.9c-3.1,0.3-6.3,0.8-9.5,0.6c-2-0.1-4.9-1-1.3-2.1c1.9-0.6,4.1-0.3,6.1-0.4c2.4-0.1,4.7-0.8,7.2-0.8
		c3-0.1,6.4-0.6,9.4-0.5C116,142.4,140.4,138.5,140.7,143C139.9,144.4,140.5,141.3,140.7,143z"/>
	<path class="st6" d="M225.7,143.3c1.6,4.5,1.1,9.4,1.2,14.1c0,2.4,0.5,4.9,0.4,7.3c0,1.9,0.6,4.9,0,6.6c-2.9-0.6-3.6-11-3-13.2
		C224.8,155.9,222.2,142.5,225.7,143.3C227.5,148.3,224.9,143.1,225.7,143.3z"/>
	<path class="st6" d="M146.2,181.1c-1.6-1.6-1-4.8-1-6.7c0-1.5-1.5-6.4,0-7.3c-1.1-3-0.8-7.2-1-10.7c-0.1-2.7-0.3-5.4-0.2-8.1
		c0-0.5-0.3-2.3,0.6-2.2c0.5,0,1.2-0.9,1.4,0.2c2.1,4.2,0.1,10.8,0.9,15.4C148,168,146.4,174.7,146.2,181.1
		C144.7,179.6,146.4,175,146.2,181.1z"/>
	<path class="st6" d="M253.9,159.1c2.3,1.2,3.3-1.4,5.4,1.4c0.7,0.9,1.1,1.8,0.7,2.8c-0.1,0.3-1.8,1.4-1.8,0.7c0-1.2,0.2-3-1.4-3.5
		c-1-0.3-2.4,0.1-3.2,0.8c-0.7-0.4-0.9-1.2-1.8-1.3c0.7-2.2,2.8-3.1,2.1-6c-0.3-1.6-3.1-3.6-4.7-3.5c-2.9,0.2-2.7,2.9-3.4,4.8
		c-0.3,0.2-4.3-2.2-5.3-2.4c-1.8,0.7-3.4,3.7-3.6,5.6c-0.5,3.5-2.1-0.2-2.7-1.2c-0.5-0.9-4.4,0.7-3.3-1.3c1.4-2.4,3.8-0.6,4.8,0.6
		c1.5-1.5,2.1-4.4,4.5-4.8c1.8-0.3,3.8,2,5.1,0.3c0.9-1.1,1.2-1.5,2.4-2.3c2.1-1.3,4.5,0.4,6.2,1.7
		C256.7,153.5,255.3,156.6,253.9,159.1C254.9,159.6,254.8,157.5,253.9,159.1z"/>
	<path class="st6" d="M213,147.4c-0.9,2.2-12.5,0.8-14.6,0.8c-3.4,0.1-6.9,0.4-10.3,0.5c-2.7,0.1-5.6-0.6-8.3-0.1
		c-2.8,0.5-5.9,0.1-8.7-0.1c-0.9,2.5,0.4,6.5,0.2,9.2c-0.2,2.3,0.1,12.6-0.1,14.9c-0.4,4-1.7,0.6-1.9-1.2c-0.6-4.2,0-15.9-0.3-20.1
		c-0.4-4.1,0.3-4.6,4-5c2.1-0.2,4-0.2,6.1-0.3c5.4-0.1,10.9,0,16.3-0.1c2.7-0.1,5.3,0.2,8,0.3C206.5,146.3,209.8,147.6,213,147.4
		C212.6,148.3,210.7,147.5,213,147.4z"/>
	<path class="st6" d="M134.6,156c-1.2,2.9-9.1,1.7-11.4,1.6c-3.4-0.1-7,0.1-10.4,0.3c-3.5,0.2-7.4,0.5-10.6,0.1
		c-1.5-0.2-8.5,1.5-9.1-0.4c-0.3-3.4,16.8-1.7,19.5-1.9c3.6-0.3,7.1-0.4,10.6-0.4C126.3,155.2,131.9,154.4,134.6,156
		C133.9,157.6,132.9,155,134.6,156z"/>
	<path class="st6" d="M297.9,162.3c1-3.3-0.5-5.5-3.7-5.7c-3.6-0.2-3.7,2.6-5.3,5c-2.4-0.1-1.6-1.9-4.1-2.3
		c-1.5-0.2-2.3,0.6-3.5,1.2c-1.5,0.7-1.1-1.2-1.5-2c-1.1-4.3-7.3,0.3-7.8,2.6c-0.3,1.4-0.8,5.6-2.6,2.6c-2-3.1-2.8-2.1-5.7-1
		c-1.2-0.4,2.2-2.1,2.4-2.1c1.8-0.6,2.7-0.1,4,1.2c0.7-1,0.5-3.9,2-4.2c0.6-0.1,1.7-1,2.5-1.3c2-0.7,3.4-1.6,5.4-0.4
		c0.6,0.4,1.1,0.8,1.5,1.3c1.2-0.3,2.4-0.3,3.6,0c1.9,0.4,2.6,1.9,3.8,0c0.8-1.2,1.8-2,3.4-2.1c4-0.2,8.3,1.1,7.8,5.9
		c-0.2-0.7,4.3,0.4,5,1.9c1.2-2,5.4-0.1,5.7,1.7c0.2,1.1-0.3,2.7,0.1,3.7c0.2,0.6-1.5,0.4-1.5-1.3s0-3.4-1.9-3.4
		c-1.5,0-2.3,2.4-3.1,2c-1.3-0.7-0.4-2.1-1.9-3c-0.4-0.2-5.1,1.2-3.1-0.7C298.9,162.5,298.4,162.6,297.9,162.3
		C298.6,160,298.6,162.6,297.9,162.3z"/>
	<path class="st6" d="M208,173.5c-2.9-1-2.4-23.9-0.9-24.6c2.1-0.9,1.4,5.2,1.5,6.8C208.7,158.6,210.2,171.2,208,173.5
		C206.8,173.1,209.7,171.7,208,173.5z"/>
	<path class="st6" d="M188.4,149.8c1.6-0.3,1,16.1,1.1,16.9c0.1,1,1.5,12.7-1.2,8.8c-1.2-1.7-1.1-5.7-1.1-7.8
		c0-1.6,0.2-11.2,0.2-12.8c-0.1-1,0-2.1,0.1-3.1C187.6,149.6,188.2,150.9,188.4,149.8C188.7,149.7,188.4,150.1,188.4,149.8z"/>
	<path class="st6" d="M135.4,158.6c1,2.8,0.1,6.3,0.3,9.2c0.1,1,0.4,2.1,0.3,3.2c0,0.6-1.1,2.2-1.5,1c-0.6-2.2-1.5-3.4-1.3-6.1
		C133.3,164.1,132.5,158.3,135.4,158.6C136.2,160.8,134.4,158.5,135.4,158.6z"/>
	<path class="st6" d="M94.2,159.7c2.3,0.7,1.6,7.9,1.6,9.6c0,1.7,0.3,5.6-0.8,6.9c-2.1,2.4-1.6-6.7-1.7-7.2
		C93.3,167.5,91.9,159.7,94.2,159.7C95.2,160,94,159.7,94.2,159.7z"/>
	<path class="st6" d="M115.1,159.7c0.5,2.7-0.3,5.4,0.1,8.1c0.2,1.3-0.8,5.5-1.7,2.4C112.8,167.9,112,159.7,115.1,159.7
		C115.5,162.2,114.8,159.7,115.1,159.7z"/>
	<path class="st6" d="M137,175.3c0.2,1.9-34,1.5-36,1.8c-1,0.1-3.9,0.7-4.4-0.7c0.7-1.9,2.5-1.1,4-1.3c3.2-0.4,6.2-0.6,9.8-0.5
		C119.2,174.5,128,174,137,175.3C137,175.9,132,174.6,137,175.3z"/>
	<path class="st6" d="M231.7,176.3c0.2,1,0.7,5.7-0.3,6.3c-3.3-1.3,0.6-4.9-4.7-3.9c-4.3,0.8-8.9,0.3-13.2,0.9
		c-1.1,0.1-14.8,0.5-14.8,0.5c-0.3,1.1-14.4,0.1-15.9,0.2c-2.7,0.1-5.2,0.6-7.9,0.5c-2.6-0.1-7.7,1.5-9.8-0.5
		c1-3.2,13.8-2.2,16.4-2.1c6.4,0.3,12.8-0.6,19.3-0.5c4.2,0,9.1,0.4,13.4-0.4c3.5-0.7,7-0.2,10.5-0.5
		C227.2,176.6,229.2,176,231.7,176.3C231.9,177.3,230.5,176.2,231.7,176.3z"/>
	<path class="st6" d="M124.3,182.4c1.5-0.2,1.3,4.9,0.5,5.8c2,1.3,3.6,0.1,1.6,2.1c1,1.9,2.6,3.4,3.2,5.5c-1.6,0.7-3-1.7-3.7-2.8
		c-0.6-1-1.4-1.9-1.8-3c-1.5,0.3-3,0.4-4.5,0.4c-2.7,0.1-5.4,0-8.2,0c-4.2,0-5.3,0.2-7.7,3.8c2.1,0.4,4.2,0.1,6.3,0.2
		c2.1,0.2,4.3-0.2,6.4-0.2c2.4-0.1,9.5-1.3,10.8,1.6c-0.6,0.3-1.2,0.4-1.8,0.3c0.4,0.8-0.1,7.6-1.5,6c-0.8-0.9-1-5-0.6-6
		c-4.6,0-9.2,0.6-13.7,0.5c-1.7,0-3.4-0.7-5,0.3c-0.1,1.9,0.2,3.8-0.8,5.5c-1.5-0.6-1.1-3.7-1.3-4.9c-0.3-1.5,0.7-1.1-0.7-1.6
		c-0.9-0.3,0.3-1.8,0.6-2.2c0.4-0.5,1.6-1.5,1.6-1.9c0.2-1.7,1.1-2.5,0.9-4.2c-0.2-1.6-1.3-5.3,0.6-5.7c0.3-0.1,1.8,0.2,2,0.7
		c0.9-0.2,1.9-0.2,2.8-0.2C114.5,182.3,120.4,184.2,124.3,182.4C125.1,182.2,123.7,182.6,124.3,182.4z M123.8,183.7
		c-2.9-0.1-6.1,0.2-9.1,0.1c-1.9,0-3.8-0.1-5.7,0.1c-2.4,0.2-2.7,0.1-2.8,2.5s0.5,2,2.7,2.1c1.9,0,3.9,0.1,5.8,0.2c2,0.1,4,0.1,6,0
		C124.4,188.5,123.7,187.1,123.8,183.7C123.4,183.7,123.8,185.4,123.8,183.7z"/>
	<path class="st6" d="M236.2,183.2c0,0.9,1,2.3,1.1,3.4c0,0.4-0.3,5-1.6,3c-0.6-0.9-0.3-2.4-0.5-3.4c-0.3-1.2-5.1,0-6.3,0.1
		c-8.1,0.6-15.6-0.6-23.8-0.8c-3.9-0.1-8.6,0.4-13.2,0.8c-4.2,0.3-8.4,0-12.5-0.2c-1.5-0.1-6.7-0.4-7.4,0.3
		c-0.4,0.4-5.1,0.7-5.8,0.1c-2.4-2,5.5-1.9,5.8-2c2.8-1,6.4,0.3,9.2,0.3c4.3,0.1,8.9,0,13.1-0.4c6.8-0.8,12.6-0.6,19.4-0.1
		c4.3,0.3,9,0.1,13.4-0.1c0.5,0,4.4-0.4,4.3-0.5C232.3,184.7,235.1,182.9,236.2,183.2C236.2,183.7,234.5,182.8,236.2,183.2z"/>
	<path class="st6" d="M260,187.1c-0.5,1.9-6.1,0.8-7.3,0.7c-1.9-0.1-3.7-0.8-5.6-0.6c-1.5,0.2-3.6,0.7-3.5-1.4
		c0.1-1.8,7.3-0.9,8.7-0.8C253.3,185.1,261.7,185.5,260,187.1C259.7,188.1,260.7,186.4,260,187.1z"/>
	<path class="st6" d="M267.4,187.4c-1.4,0.3-1.8-0.5-2.6-0.8C264.1,183.5,268.2,185,267.4,187.4z"/>
	<path class="st6" d="M138.5,190.8c0.4,0.1,0.5,0.4,0.5,0.8c-3,0.4-6.1,1.6-9.2,1.1C130.5,190.1,136.8,191.6,138.5,190.8
		C138.9,190.9,137,191.5,138.5,190.8z"/>
	<path class="st6" d="M99.2,192.7c-1.2,2.7-5.2,1.5-7.5,1.6c-1.6,0.1-3.4,0.3-4.9-0.5c-0.9,0.9-3.3-0.3-1.7-0.6
		c1.8-0.4,2.9-1.3,5-0.9C92.5,192.7,97.5,190.8,99.2,192.7C98.2,194.9,97.8,191.2,99.2,192.7z"/>
	<path class="st6" d="M152.8,199.7c-0.3,2.1-2.2,1.7-3.2,0.5C149.8,198.7,152.1,198.7,152.8,199.7z"/>
	<path class="st6" d="M251,211.6c-1.9,2.1-6.9-4.8-7.9-6.1c-0.3-3.5,2.9-0.7,3.7,0.5C247.7,207.4,250.8,210,251,211.6
		C250.2,212.5,250.9,210.7,251,211.6z"/>
	<path class="st6" d="M143.6,204.2c1.8,1.2-4,8-5.8,8.2C137.2,211.3,142.3,204.2,143.6,204.2C144.3,204.7,143.3,204.2,143.6,204.2z"
		/>
	<path class="st6" d="M146.2,117.9c0.1,1.7-10.1,1.1-12.1,1.3c-1.7,0.1-4.9,0.4-6.5,0.1c-2.1-0.4-5.6,0.4-7.5-0.4
		c0.7-2,9.4-1.1,11.6-1.1c1.7-0.1,3.1-0.3,4.8-0.3C138.8,117.3,144.3,116.8,146.2,117.9C146.2,119.1,144.8,117.1,146.2,117.9z"/>
	<path class="st6" d="M289.3,135.1c-1.5-0.1-2.9,0.6-4.4,0.5s-3-0.3-4.6-0.2c-3.3,0.2-6.7-0.1-10,0.4c-6.5,0.9-13.2,0.7-19.8,0.9
		c-5.2,0.1-10.2,0.4-15.2,0.8c-1.3,0.1-3,0-4.5,0.3c-1.3,0.2-2.6,1.2-4,0.3c-0.1-1.6,1.6-2.3,2.9-2.6c2.2-0.6,5.4-0.7,7.7-0.8
		c2.5-0.1,6.1-0.8,8.4-0.6c5.3,0.7,11.7,0.1,17.3-0.3C265.2,133.6,289.9,131.6,289.3,135.1C288.3,135,289.5,134,289.3,135.1z"/>
	<path class="st6" d="M151,148.3c0.5,2.6-0.4,5.3-0.3,7.9c0.1,2.7,0.8,5.4,0.9,8.1c0.1,3.9,0.2,8.3-0.9,11.9c-1-0.6-1.2-5.6-1.2-6.7
		c-0.1-2.8-0.2-6.2-0.7-9C148.3,158.2,147.3,148.3,151,148.3C151.5,150.8,150.7,148.3,151,148.3z"/>
	<path class="st6" d="M85.2,147.5c2-0.1,1.2,35.4,1.1,39.7c0,1.5,0.4,3.1-1.3,3.6c-1.5,0.5-1.4-2.2-1.5-2.9c-0.3-4.6,0.3-9.4,0.3-14
		c0-4.9-0.3-9.6-0.1-14.5c0.1-2.7,0.2-5.5,0.1-8.2C83.8,151.3,83.7,146.1,85.2,147.5C86.4,147.5,84.6,146.9,85.2,147.5z"/>
	<path class="st6" d="M159.1,178.7c-0.3,1.8-2.7,1.8-4.1,1.8c-3.2,0-2.5,0.3-2.8,3.2c3.6-0.1,7.3-1.1,10.8,0
		c-0.5,2.1-9.7,1.4-11.6,1.8c-1.1,0.3-2.5,1-2.6,2.3c-0.3,3.8,0,5.4,4.2,4.6c8.1-1.5,15.8-0.9,24.1-1.1c7.8-0.1,15.6,0.2,23-0.2
		c5.3-0.3,10.8,0.2,16.1,0.3c5.8,0.1,11.8-0.5,17.6-0.5c2.4,0,4.9,0.1,7.3-0.2c0.4-0.1,5.9-0.5,4.4,1.1c-1.1,1.1-0.3,2.5-0.1,4.1
		c0.4,3.8-1.9,2.9-5.1,3.3c-4.4,0.5-8.2,0.3-12.6,0.3c-2.2,0-14-1.4-15,0.2c-0.4,0.7-10.6,0.3-12.3,0.3c-5.4,0-10.8,0.4-16.2,0.2
		c-4.2-0.1-8.2,0.6-12.4,0.6c-2.7,0-5.4-0.3-8.1-0.3c-0.9,0-1.9,0.3-2.8,0.3c-0.3,0-1.8-0.8-1.1-1c5.8-1.8,13.7-1.9,20.3-2
		c9-0.1,18.4,0.5,27.4-0.3c10-0.9,19.9,0,29.8-0.4c1.9-0.1,3.9-0.6,5.8-0.3c0.3-1.2-0.1-3.3-1.1-4.2c-3.9,0.9-8.1,0.5-12.1,0.5
		c-7.9-0.1-15.8,0.3-23.6,0.3c-2.8,0-5.8,0.3-8.7,0.3c-2.8,0-6.3-0.9-9-0.5c-3.5,0.6-7-0.6-10.5-0.3c-4.4,0.4-9,0.1-13.5,0.5
		c-3.1,0.3-6.3,0.5-9.3,0.6c-1.5,0-3,0.4-4.5,0.3c-0.5,0-5.6-0.9-5.4-0.5c0.3,0.6,1.7,7.3-0.6,5.1c-0.7-0.7-1.8-5.7,0-5
		c0.3-0.8-0.9-0.2-0.5-1.1c1.1-0.1,2.1-0.5,3.2-0.5c-0.3-1.9-0.5-3.7-0.2-5.6c0.4-3.1,3.6-0.9,3.1-4.1c-0.3-1.4,0.4-6.6,2.5-3.5
		C154.7,179.1,157,178.3,159.1,178.7C158.8,180.9,157.5,178.4,159.1,178.7z"/>
</g>
</svg>
