<?xml version="1.0" encoding="utf-8"?>
<!-- Generator: Adobe Illustrator 14.0.0, SVG Export Plug-In . SVG Version: 6.00 Build 43363)  -->
<!DOCTYPE svg PUBLIC "-//W3C//DTD SVG 1.1//EN" "http://www.w3.org/Graphics/SVG/1.1/DTD/svg11.dtd">
<svg version="1.1" id="Layer_1" xmlns="http://www.w3.org/2000/svg" xmlns:xlink="http://www.w3.org/1999/xlink" x="0px" y="0px"
	 width="375px" height="252px" viewBox="0 0 375 252" enable-background="new 0 0 375 252" xml:space="preserve">
<g>
	<path fill="none" d="M358.685-76"/>
	<path fill-rule="evenodd" clip-rule="evenodd" fill="#E8ECEE" d="M128.3,204.332c-21.974,2.538-41.792,21.623-66.334,7.515
		c-8.111-4.663-9.612-16.067-18.454-20.71c-14.695-7.72-47.338-8.646-28.403-33.159c5.166-6.686,12.442-5.97,10.25-15.428
		c-2.71-11.696-15.968-8.577-21.024-17.51c-6.179-10.918,2.534-10.585,4.609-17.739c2.168-7.481-0.582-19.45,2.867-25.497
		c9.964-17.452,28.553,4.135,41.543-2.25c17.586-8.642,20.486-54.744,46.515-46.082c10.261,3.415,7.743,16.075,16.126,20.122
		c14.692,7.088,21.594-10.351,32.917-14.522c14.135-5.208,41.92-1.036,50.662,10.68c7.57,10.147,3.118,26.738,10.393,36.615
		c5.959,8.1,25.595,12.499,35.183,12.338c11.593-0.194,17.304-11.393,28.166-13.411c8.559-1.59,22.965,2.007,27.824,9.416
		c7.256,11.057-3.114,13.166-5.586,20.701c-5.271,16.068,10.57,5.018,15.729,3.707c10.214-2.593,18.415,3.412,10.938,13.381
		c-4.373,5.832-23.576,14.101-12.057,25.695c1.931,1.943,14.714,3.661,17.957,5.514c8.084,4.62,19.688,6.109,16.726,18.383
		c-8.481,35.148-51.061-3.748-66.042,11.375c-6.071,6.132-4.619,17.398-10.987,23.754c-5.722,5.713-43.577,6.448-43.627,4.132
		c0.338,15.348-19.844,15.989-31.584,13.292C167.557,228.889,157.01,201.016,128.3,204.332"/>
	<path fill-rule="evenodd" clip-rule="evenodd" fill="#FFFFFF" d="M53.691,129.959c1.39,21.281,3.385,42.881,6.819,63.852
		c1.511,9.234,2.086,20.625,7.786,28.709c13.684,19.401,46.403,22.815,69.353,22.706c14.677-0.07,30.856,0.521,44.89-4.021
		c7.697-2.492,21.287-4.823,27.144-9.494c10.483-8.354,5.446-26.537,6.688-39.111c3.292-33.368,6.157-68.149,1.355-101.886
		c-0.812-5.688-1.083-9.72-4.027-14.544c-2.783-4.552-11.686-9.505-12.37-13.885c-1.007-6.469,8.592-8.239,6.905-16.295
		c-0.964-4.608-7.037-9.953-12.229-9.514c-10.13,0.856-16.353,17.67-20.631,25.031c-5.647,9.717-1.647,6.765-11.148,6.466
		c-5.481-0.174-11.625-2.107-16.774-3.217c-0.728-11.502,0.299-23.329-0.41-34.832c-6.896-0.516-17.202-4.601-22.87-2.977
		c-8.508,2.437-7.817,14.088-8.101,21.445c-0.439,11.367,1.909,13.105-9.482,15.146c-10.232,1.833-8.739-0.723-15.974-8.435
		c-4.084-4.354-10.406-10.422-16.596-10.537c-4.598-0.087-18.909,8.556-19.028,13.541c0,0.027,0,0.054,0,0.081
		c-0.053,4.473,4.9,3.043,6.123,6.181c2.052,5.268-0.299,7.391-1.836,11.84C52.974,94.446,52.452,110.941,53.691,129.959"/>
	<path fill-rule="evenodd" clip-rule="evenodd" fill="#B0A8D3" d="M138.5,237.831c10.93,0.664,21.813-0.113,31.113-3.668
		c7.471-2.854,19.207-4.599,25.169-9.855c7.035-6.195,4.421-15.597,4.421-23.877c0-8.082,1.985-15.075-4.517-19.814
		c-4.809-3.501-15.054-5.109-21.734-4.56c-4.013,0.326-3.195,2.866-7.879,1.647c-4.424-1.147-5.859-4.039-11.801-4.313
		c-5.303-0.246-6.47,0.815-10.338,2.737c-3.799,1.892-3.901,5.181-9.649,2.553c-4.278-1.955-5.318-5.177-9.985-6.191
		c-2.994-0.649-9.79-0.765-12.696,0c-4.434,1.169-3.659,3.729-6.436,5.215c-5.591,2.993-6.655-0.493-10.645-1.845
		c-7.779-2.636-13.701-0.177-16.346,7.458c-6.57,18.955-3.604,33.463,13.39,43.633c4.86,2.907,10.87,4.565,16.468,5.877
		C116.55,235.053,127.549,237.167,138.5,237.831"/>
	<path fill-rule="evenodd" clip-rule="evenodd" fill="#F4F5C5" d="M69.305,56.376c4.108,4.86,6.579,11.176,10.676,15.763
		c4.638,5.194,7.468,4.917,15.174,4.431c2.255-9.489-7.838-19.804-11.88-27.667c-4.979-9.674-11.267-16.101-21.168-21.237
		c-3.947-2.049-9.45-4.453-13.824-5.174c-6.165-1.02-3.15-0.159-9.191,3.442c-2.359,1.406-10.938,1.56-9.846,6.526
		c1.568,6.553,12.945,7.131,17.713,8.914C54.837,44.318,63.851,49.925,69.305,56.376"/>
	<path fill-rule="evenodd" clip-rule="evenodd" fill="#A4D2EB" d="M138.527,73.906c0.865-12.121-1.25-24.896,0.945-36.75
		c1.333-7.189,2.84-14.958,4.59-21.957c0.889-3.55,3.561-6.732,2.596-11.547c-0.756-3.777-21.345,1.23-24.15,1.829
		c-0.498,9.438-0.487,19.339-0.108,28.811c0.395,9.845,1.588,16.205,5.262,25.186c1.329,3.25,1.454,7.925,3.526,10.73
		C131.461,70.579,138.304,77.015,138.527,73.906"/>
	<path fill-rule="evenodd" clip-rule="evenodd" fill="#A4D2EB" d="M130.53,124.596c0.014,7.609,0.619,10.599-7.995,10.076
		c-1.345,5.395,6.542,13.645,9.081,17.938c3.28,5.545,5.887,10.586,7.407,17.051c9.258-0.375,15.857-27.666,16.693-34.988
		c-5.284-1.418-9.034,2.662-12.1,5.867c-4.149-4.931-1.341-23.929-1.337-30.386c0-3.599,1.374-10.056-1.29-13.08
		c-3.497-3.966-9.876-3.15-12.278,1.271C125.82,103.657,130.522,118.419,130.53,124.596"/>
	<path fill-rule="evenodd" clip-rule="evenodd" fill="#EA9B95" d="M234.444,44.177c17.201,0.021,17.563-20.343,0.636-19.992
		c-12.206,0.254-24.363,11.112-33.409,17.961c-8.885,6.734-20.058,19.882-20.399,30.812c7.262,2.106,11.68-6.389,15.217-10.911
		c4.608-5.889,10.604-11.073,17.216-14.205C220.283,44.729,225.924,44.168,234.444,44.177"/>
	<path fill-rule="evenodd" clip-rule="evenodd" fill="#EA9B95" d="M182.942,108.331c-0.006-3.763,1.755-14.861-5.262-13.671
		c-3.275,0.557-4.438,6.157-5.216,8.649c-0.661,2.132-2.989,23.719-4.146,23.863c-2.456,0.302-4.891,0.063-6.91-0.652
		c-0.362,5.662,5.667,41.734,10.689,41.561c1.162-0.043,9.248-11.311,10.645-12.894c3.747-4.246,8.065-8.737,10.794-13.622
		c6.282-11.253,1.96-11.012-8.655-11.684C183.261,122.812,182.942,115.757,182.942,108.331"/>
	<path fill-rule="evenodd" clip-rule="evenodd" fill="#F4F5C5" d="M88.063,121.869c0.177,2.764,1.239,9.82-1.29,11.58
		c-3.27,2.275-8.853-3.144-11.18-1.508c-6.618,4.653,18.203,38.479,23.153,42.279c2.377-13.739,6.358-27.285,6.345-42.261
		c-2.186,0.206-4.768-0.474-6.955-0.271c-0.892-12.684,1.446-24.953,0.628-37.656c-0.204-3.172-11.148,0.822-12.413,3.561
		C83.48,103.804,87.637,115.265,88.063,121.869"/>
	<path fill-rule="evenodd" clip-rule="evenodd" fill="#757F92" d="M148.157,8.612c3.32,0.435-1.241,27.504-1.469,30.007
		c-1.266,13.806-0.837,27.429-1.458,41.233c-5.125,0.417-3.02-26.224-2.612-29.975c0.801-7.392,1.186-14.792,2.186-22.174
		c0.533-3.906,1.122-7.805,1.453-11.736C146.321,15.205,146.562,7.012,148.157,8.612C149.79,8.827,147.051,7.503,148.157,8.612"/>
	<path fill-rule="evenodd" clip-rule="evenodd" fill="#757F92" d="M118.557,12.517c3.269,0.54,2.382,8.721,2.442,10.903
		c0.154,5.537,0.679,11.054,1.168,16.568c1.101,12.383,2.149,24.846,0.942,37.262c-2.82-0.621-2.108-8.068-2.28-10.296
		c-0.495-6.35-0.839-12.718-1.215-19.077C119.401,44.267,116.483,12.517,118.557,12.517
		C120.913,12.906,118.448,12.517,118.557,12.517"/>
	<path fill-rule="evenodd" clip-rule="evenodd" fill="#757F92" d="M235.012,23.251c-0.88,1.287-7.839,2.685-9.76,3.251
		c-2.784,0.82-4.596,1.256-7.156,2.603c-4.258,2.243-8.201,4.937-12.405,7.247c-1.024,0.562-7.537,5.281-7.441,5.763
		c0.131,0.655-3.607,3.041-4.225,3.582c-4.332,3.805-7.937,8.074-11.385,12.686c-1.097,1.46-3.042,3.636-3.53,5.362
		c-0.749,2.659-3.922,9.677-6.879,10.577c-0.528-0.64,0.804-3.005,0.958-3.747c0.493-2.4,2.021-4.459,2.606-6.845
		c0.541-2.208,2.325-4.41,3.591-6c4.443-5.598,8.734-11.579,14.313-15.938c5.075-3.959,10.331-8.015,16.404-11.5
		c4.749-2.722,8.575-4.952,13.868-6.316C225.25,23.647,235.405,19.639,235.012,23.251C234.506,23.991,235.212,21.412,235.012,23.251
		"/>
	<path fill-rule="evenodd" clip-rule="evenodd" fill="#757F92" d="M251.598,47.648c0.022,0.681-18.963,2.624-20.814,2.926
		c-7.604,1.245-14.854,2.5-21.769,5.646c-4.465,2.03-8.87,5.346-12.167,9.22c-1.615,1.902-2.919,5.417-4.451,6.93
		c-0.285,0.287-2.836,2.003-2.161-0.028c1.694-5.099,3.096-8.941,7.686-12.43c4.045-3.074,9.5-7.039,14.475-8.13
		C217.729,50.611,249.29,40.375,251.598,47.648C251.626,48.513,250.887,45.402,251.598,47.648"/>
	<path fill-rule="evenodd" clip-rule="evenodd" fill="#757F92" d="M168.65,60.984c-0.988,0.853,0.863,1.228,0,1.951
		c-3.962-0.988-8.603-0.096-12.686-0.649c-1.107-0.146-4.601,0.072-5.966-0.922c-1.099-0.802,0.232-3.237,1.217-2.93
		c1.358,0.426,2.375,0.747,3.988,0.805C159.401,59.393,164.936,59.157,168.65,60.984C167.641,61.856,167.652,60.495,168.65,60.984"
		/>
	<path fill-rule="evenodd" clip-rule="evenodd" fill="#757F92" d="M209.638,82.454c3.838,0,2.104,24.189,1.929,26.282
		c-0.408,4.98-0.702,10.325-0.629,15.356c0.109,7.033-0.35,14.205,0,21.144c0.631,12.173-0.537,24.431-0.693,36.592
		c-0.084,6.144-0.018,12.605,0.693,18.707c0.693,5.979-0.418,11.846-0.838,17.809c-0.12,1.672-0.707,1.499-0.468,2.943
		c0.281,1.696-1.57,0.654-1.359-1.149c0.543-4.696,0.112-10.475,0.109-15.333c-0.012-6.792-1.04-13.527-0.909-20.327
		c0.146-7.58,0.852-15.127,0.866-22.711c0.021-13.149-0.26-26.231,0.015-39.36c0.142-6.85,0.813-13.67,0.887-20.524
		C209.275,98.654,206.996,83.476,209.638,82.454C209.853,82.454,209.169,82.635,209.638,82.454"/>
	<path fill-rule="evenodd" clip-rule="evenodd" fill="#757F92" d="M63.907,82.779c1.308-0.282,0.968,9.463,0.974,10.083
		c0.04,3.285,0.599,6.574,0.869,9.845c0.217,2.6-1.306,8.638-0.029,10.739c0.426,0.703,0.053,4.309-0.047,5.104
		c-0.439,3.415,0.161,6.982,0.365,10.398c0.4,6.787,0.003,13.686,0.246,20.519c0.466,12.975,0.942,25.853,0.551,38.835
		c-0.164,5.426-0.818,11,0.079,16.386c0.541,3.241,3.148,13.612-0.73,15.365c-0.86-1.99-0.313-4.412-0.651-6.506
		c-0.389-2.404-0.908-4.731-1.114-7.173c-0.527-6.176-0.011-12.453,0.055-18.642c0.13-12.101-0.31-24.001-0.826-36.051
		c-0.249-5.767-0.302-11.527-0.413-17.303c-0.116-6.037-1.218-12.404-0.629-18.42c0.518-5.378,0.025-10.889-0.326-16.265
		C62.093,96.834,60.463,84.111,63.907,82.779C64.183,82.72,63.438,82.962,63.907,82.779"/>
	<path fill-rule="evenodd" clip-rule="evenodd" fill="#757F92" d="M86.675,129.946c-2.576-1.753-1.154-6.204-1.956-8.791
		c-0.804-2.59-1.03-6.266-1.177-9.016c-0.229-4.147-1.47-8.354-2.068-12.474c-0.424-2.906-0.78-5.823-0.977-8.755
		c1.811-0.922,2.02-1.577,2.586,0.917c1.782,7.812,2.435,15.87,4.286,23.605C88.031,118.203,90.279,128.885,86.675,129.946
		C84.447,128.429,87.798,129.615,86.675,129.946"/>
	<path fill-rule="evenodd" clip-rule="evenodd" fill="#757F92" d="M102.614,91.562c1.062,12.752,1.872,25.26,1.303,38.059
		c1.832-0.169,4.124-6.007,6.507-4.551c0.183,1.772-7.121,10.711-8.132,7.479c-2.872,0.769-1.337-12.16-1.263-13.732
		c0.209-4.394-0.043-8.776-0.328-13.246c-0.178-2.755-0.466-5.478-0.847-8.21c-0.217-1.566-0.429-3.278,0.103-4.814
		C100.712,90.361,101.069,91.578,102.614,91.562C103.276,99.526,101.85,91.57,102.614,91.562"/>
	<path fill-rule="evenodd" clip-rule="evenodd" fill="#757F92" d="M189.467,94.164c3.713,1.016,1.233,14.975,1.019,17.778
		c-0.191,2.489-0.029,4.677-0.36,6.892c-0.377,2.521,0.868,6.359-0.007,8.511c-5.679-1.611-3.297-10.891-2.926-14.963
		C187.41,109.975,187.06,94.164,189.467,94.164C191.278,94.659,189.251,94.164,189.467,94.164"/>
	<path fill-rule="evenodd" clip-rule="evenodd" fill="#757F92" d="M144.578,94.49c2.499,0.337,1.114,16.938,1.086,19.206
		c-0.048,3.79-0.055,7.59,0.214,11.374c0.119,1.63,2.216,8.07,0.652,9.434c2.607,0.932,5.402-5.937,8.457-6.183
		c0.888,2.907-4.677,7.482-6.716,8.961c-3.112,2.255-3.713-0.074-3.869-2.975c-0.143-2.653-1.528-4.951-1.563-7.63
		C142.792,123.068,141.346,94.49,144.578,94.49C145.971,94.678,144.362,94.49,144.578,94.49"/>
	<path fill-rule="evenodd" clip-rule="evenodd" fill="#757F92" d="M70.737,121.813c1.704,0.584,2.387,3.475,4.314,4.479
		c2.12,1.108,3.574,1.85,5.982,2.101c1.792,0.181,4.363,1.272,5.797,2.415c1.718,1.371-0.95,3.623-2.729,2.146
		c-2.616-2.172-6.48-1.922-9.461-3.658c-0.593-0.329-1.954-1.57-2.441-2.141C70.181,124.795,71.539,124.24,70.737,121.813
		C71.949,122.229,71.054,122.777,70.737,121.813"/>
	<path fill-rule="evenodd" clip-rule="evenodd" fill="#757F92" d="M201.179,125.394c2.343,1.169-8.306,10.402-12.036,8.457
		c0.355-2.527,0.839-2.513,3.254-3.253C195.496,129.66,198.354,126.935,201.179,125.394
		C201.468,125.536,199.003,126.58,201.179,125.394"/>
	<path fill-rule="evenodd" clip-rule="evenodd" fill="#757F92" d="M88.953,160.851c4.709,4.853,10.276,14.873,10.411,21.794
		c-2.292-0.47-4.272-5.622-5.13-7.422c-1.17-2.461-3.126-5.002-4.63-7.218c-4.283-6.316-8.11-13.062-11.25-20.003
		c-1.959-4.331-4.741-8.813-5.837-13.461c-0.273-1.162,0.193-4.349,2.215-2.687c1.051,0.863,1.806,4.18,2.473,5.49
		c2.128,4.187,3.714,8.606,5.896,12.771C84.934,153.626,87.827,156.972,88.953,160.851
		C90.811,162.764,88.227,158.351,88.953,160.851"/>
	<path fill-rule="evenodd" clip-rule="evenodd" fill="#757F92" d="M114.326,133.851c0.796,3.434-2.025,9.063-2.928,12.36
		c-1.101,4.016-2.253,7.66-3.335,11.704c-1.212,4.528-2.047,9.146-3.27,13.667c-0.493,1.828-0.842,10.623-2.828,11.063
		c-2.877-3.27-1.104-9.73-0.129-13.4c1.384-5.211,2.853-10.383,4.145-15.621c1.226-4.977,2.721-9.821,4.384-14.666
		C111.282,136.294,111.798,133.426,114.326,133.851C114.829,136.017,113.863,133.772,114.326,133.851"/>
	<path fill-rule="evenodd" clip-rule="evenodd" fill="#757F92" d="M118.23,133.851c1.213-0.212,5.379,7.597,6.306,8.981
		c1.53,2.284,2.777,3.893,3.846,6.426c0.451,1.066,2.992,6.604,3.842,6.885c2.271,0.749,4.225,10.775,4.897,13.001
		c0.554,1.822,1.279,3.866,1.268,5.783c-0.015,2.532-1.853,2.426-2.496,0.521c-1.308-3.876-2.329-7.971-3.46-11.908
		c-1.545-5.383-4.256-10.358-7.155-15.124C122.906,144.514,116.941,138.865,118.23,133.851
		C118.754,133.759,117.404,137.057,118.23,133.851"/>
	<path fill-rule="evenodd" clip-rule="evenodd" fill="#757F92" d="M130.591,166.706c-0.466,3.321-5.472,1.962-8.763,2.468
		c-2.348,0.361-4.603,0.835-6.991,0.886c-2.595,0.056-6.52,1.61-8.969,0.874C105.519,166.518,130.243,164.156,130.591,166.706
		C130.538,167.082,130.466,165.783,130.591,166.706"/>
	<path fill-rule="evenodd" clip-rule="evenodd" fill="#757F92" d="M162.469,168.005c0.199,3.64-9.199,2.014-9.758,0.326
		C152.787,166.167,161.346,167.05,162.469,168.005C162.513,168.808,161.581,167.249,162.469,168.005"/>
	<path fill-rule="evenodd" clip-rule="evenodd" fill="#757F92" d="M200.204,210.619c-2.297,0.35-3.481,1.741-3.681-1.888
		c-0.129-2.307,0.438-4.695,0.533-7.003c0.063-1.419-0.608-13.12,2.775-10.777c2.044,1.415,1.049,6.365,0.88,8.365
		C200.439,202.588,201.44,207.784,200.204,210.619C199.168,210.777,200.629,209.644,200.204,210.619"/>
	<path fill-rule="evenodd" clip-rule="evenodd" fill="#757F92" d="M105.542,216.148c0.326,2.261-1.009,2.211-2.364,1.691
		C100.425,216.775,103.033,215.304,105.542,216.148C105.778,217.786,104.158,215.682,105.542,216.148"/>
	<path fill-rule="evenodd" clip-rule="evenodd" fill="#757F92" d="M206.84,228.489c3.906,1.189-10.938,8.556-11.926,8.95
		c-6.387,2.547-13.379,3.44-19.825,5.866c-13.389,5.04-29.764,6.926-44.151,6.465c-12.53-0.397-23.789-2.798-35.246-6.957
		c-4.397-1.599-8.733-2.971-13.078-4.966c-3.748-1.722-7.84-3.947-11.613-5.623c-1.315-0.59-2.15-0.802-3.122-1.73
		c-1.887-1.803-2.309-6.665,0.958-3.418c1.493,1.48,1.74,2.269,3.622,3.232c3.502,1.794,7.51,3.088,11.18,4.594
		c12.756,5.242,26.556,9.452,40.568,10.972c13.888,1.505,28.359,0.23,41.993-2.225c7.363-1.326,15.008-4.005,21.981-6.572
		c3.802-1.401,7.635-2.842,11.351-4.423C201.407,231.855,204.933,228.438,206.84,228.489
		C208.597,229.024,206.723,228.486,206.84,228.489"/>
	<path fill-rule="evenodd" clip-rule="evenodd" fill="#757F92" d="M42.438,18.045c0.138-0.153,9.872,2.709,10.457,2.884
		c5.877,1.751,11.979,3.564,16.836,7.521c7.466,6.083,13.821,13.342,18.899,21.476c2.952,4.771,5.374,9.564,8.141,14.363
		c1.207,2.097,2.885,5.617,2.269,8.081c-2.823,1.011-2.95-1.319-3.887-3.474c-3.095-7.115-6.589-14.169-10.936-20.61
		c-0.893-1.323-9.755-11.124-8.926-12.023c-1.046,0.625-6.031-3.28-6.504-4.229c0.154-0.193,0.262-0.41,0.326-0.649
		c-1.975-1.497-7.283-4.168-10.666-5.584c-5.562-2.331-10.644-3.297-16.008-6.451c1.564-0.776,2.955,1.671,4.554,1.626
		C47.316,20.114,42.967,18.564,42.438,18.045C42.866,17.561,43.434,19.023,42.438,18.045"/>
	<path fill-rule="evenodd" clip-rule="evenodd" fill="#757F92" d="M28.775,43.094c2.328,0.99,8.413,1.313,11.709,2.277
		c-0.657-0.555-1.417-0.879-2.277-0.976c3.442-0.456,10.515,1.777,13.522,3.74c1.636,1.066,4.371,1.871,6.277,2.24
		c1.617,0.313,4.754,2.568,6.226,3.454c3.574,2.153,7.055,5.412,10.017,8.299c2.023,1.972,4.003,4.096,5.393,6.576
		c0.509,0.905,1.324,4.38,1.726,4.78c1.427,1.415-1.94,1.317-2.814-0.146c-1.527-2.555-2.576-5.293-4.735-7.437
		c-1.625-1.617-3.182-3.657-5.049-4.96c-1.77-1.238-3.809-2.499-5.84-3.86c-3.492-2.342-6.7-3.651-10.094-5.547
		c-2.737-1.529-11.05-2.309-11.05-5.511c-0.81-0.215,0.159,1.513-0.651,1.3c-1.281,0.363-0.498-1.056-1.299-1.3
		c-0.204,0.394-0.53,0.61-0.978,0.65c0.032-0.699-3.809-1.379-4.878-1.627c0.365-0.339,0.799-0.448,1.299-0.325
		C35.34,44.11,29.683,43.149,28.775,43.094C28.18,42.84,29.948,43.166,28.775,43.094"/>
	<path fill-rule="evenodd" clip-rule="evenodd" fill="#757F92" d="M28.125,44.069c1.479-0.818,3.783,0.329,5.204,0.651
		C33.932,45.48,30.02,44.003,28.125,44.069"/>
	<path fill-rule="evenodd" clip-rule="evenodd" fill="#757F92" d="M75.941,70.745c0.318,1.144-3.791,1.589-4.683,2.102
		c-4.125,2.366-0.233,4.685,2.655,5.739c5.721,2.084,11.741,2.878,17.779,4.175c6.78,1.456,14.354,2.433,21.263,2.495
		c8.585,0.076,17.432,2.267,25.978,1.694c16.108-1.082,33.073,0.23,48.882-3.624c5.321-1.299,12.577-2.213,17.269-5.1
		c9.446-5.812-4.943-8.73-9.435-9.108c0.568-3.976,9.867-1.32,11.587-0.196c3.478,2.275,3.152,1.944,3.868,5.583
		c0.6,3.067-2.936,4.992-5.045,5.998c-17.393,8.331-36.792,6.984-55.105,8.597c-5.297,0.468-10.645,1.221-15.96,0.583
		c-4.877-0.588-9.994-0.305-14.727-1.194c-2.925-0.548-6.461-0.1-9.487-0.159c-5.512-0.104-10.923-1.141-16.389-1.748
		c-8.889-0.991-17.678-3.253-25.726-7.106c-2.097-1.002-2.724-4.619-1.382-6.45C68.286,71.654,75.82,68.327,75.941,70.745
		C76.37,72.288,75.84,68.755,75.941,70.745"/>
	<path fill-rule="evenodd" clip-rule="evenodd" fill="#757F92" d="M172.555,93.188c0.928,2.476-0.907,4.206-0.643,6.185
		c0.163,1.235-1.049,2.684-1.17,4.012c-0.224,2.41-0.484,4.816-0.67,7.229c-0.263,3.435-2.471,13.551-0.188,16.188
		c1.765,2.044-1.352,2.165-2.662,1.511c-1.656-0.825-2.729-2.39-4.103-3.57c-0.839,8.037,1.957,16.55,3.931,24.106
		c0.831,3.18,2.252,6.921,2.423,10.18c0.158,3.073,1.784,7.61,0.479,10.604c1.95-0.876,4.051-3.771,5.203-5.206
		c2.729-3.392,5.301-7.188,8.333-10.528c3.396-3.744,6.567-7.303,9.234-11.59c2.025-3.27,5.322-4.624,6.864-8.098
		c0.708-1.593,2.13-2.705,2.895-4.265c0.308-0.634,1.074-5.983,2.75-3.173c1.037,1.742-2.854,7.565-3.519,9.005
		c-1.081,2.34-2.292,3.738-4.309,5.228c-2.725,2.013-4.713,6.168-6.889,8.821c-5.847,7.131-12.551,14.189-18.286,21.758
		c-0.469,0.613-4.369,7.665-4.795,3.228c-0.508-5.322-0.349-10.55-1.387-15.915c-1.027-5.31-2.953-10.382-3.909-15.714
		c-0.965-5.401-1.363-10.442-1.948-15.84c-0.201-1.851-1.329-3.592-0.934-5.508c0.826-0.849,0.817-1.661-0.025-2.441
		c-0.313-0.516-1.164-3.815,0.773-2.324c2.639,2.036,3.593,6.357,7.019,7.672c0.611-6.729-0.387-13.121,0.649-19.842
		C168.041,102.547,169.2,93.188,172.555,93.188C173.099,94.643,172.23,93.188,172.555,93.188"/>
	<path fill-rule="evenodd" clip-rule="evenodd" fill="#757F92" d="M124.083,95.141c3.458,0.935,3.137,15.282,3.447,18.17
		c0.802,7.447,1.342,15.222-0.519,22.492c-0.644,0.035-3.821-2.851-4.229-3.252c-1.9-1.927-4.9-4.108-7.481-5.859
		c-1.718-1.156-5.977-4.105-5.53-6.83c1.695-0.439,2.039,2.054,3.254,2.603c1.993,0.9,3.679,2.379,5.633,3.37
		c0.981,0.497,5.387,4.299,6.401,4.112c-0.789-6.266-0.651-12.896-1.027-19.224C123.896,108.421,121.653,95.141,124.083,95.141
		C125.992,95.658,123.87,95.141,124.083,95.141"/>
	<path fill-rule="evenodd" clip-rule="evenodd" fill="#757F92" d="M156.612,134.177c0.835-0.116-1.299,11.729-2.247,13.184
		c-2.792,4.285-3.674,9.981-6.507,14.179c-2.08,3.078-3.327,7.38-4.378,11.017c-0.674,2.331-1.855,4.22-2.308,6.626
		c-0.408,2.171-3.417,4.058-2.656,0.641C142.135,163.594,149.683,149.526,156.612,134.177
		C156.991,134.124,155.697,136.208,156.612,134.177"/>
	<path fill-rule="evenodd" clip-rule="evenodd" fill="#757F92" d="M84.399,170.934c-0.717,2.304-3.029,2.351-5.284,3.258
		c-4.307,1.733-1.731,3.152,0.405,5.199c2.729,2.616,9.339,4.371,12.733,5.435c14.811,4.646,31.383,4.978,46.795,4.65
		c6.991-0.112,15.798,0.338,23.093-0.975c6.747-1.217,13.58-1.081,20.249-2.902c3.433-0.938,17.629-5.549,11.992-10.772
		c-1.332-1.229-13.047-3.832-12.914-4.366c0.328-1.327,4.958-0.787,6.256-0.832c3.683-0.13,5.97,0.872,8.576,2.932
		c10.129,8.009-7.48,14.336-13.338,15.941c-8.56,2.307-17.873,2.514-26.499,3.271c-12.574,1.103-25.972,1.221-38.56,0.306
		c-10.806-0.796-21.99-1.789-32.203-5.857c-3.545-1.397-13.163-5.48-12.633-10.261C73.389,173.08,82.673,168.062,84.399,170.934
		C84.31,171.222,83.705,169.779,84.399,170.934"/>
	<path fill-rule="evenodd" clip-rule="evenodd" fill="#757F92" d="M77.73,188.824c1.838,5.01,1.655,11.324,1.625,16.6
		c-0.034,5.651,0.016,11.028-1.299,16.58c-3.562-1.104-2.635-15.357-2.701-18.462c-0.084-3.745,0.779-7.771,0.098-11.466
		C74.991,189.581,74.882,188.824,77.73,188.824C78.745,191.582,77.08,188.824,77.73,188.824"/>
	<path fill-rule="evenodd" clip-rule="evenodd" fill="#757F92" d="M192.724,222.655c-0.665,0.371-4.212-1.692-4.405-2.284
		c-0.513-1.61-8.718-2.933-10.329-3.285c-6.013-1.318-13.327-2.044-19.132-2.031c-5.943,0.012-11.917-0.69-17.858-0.856
		c-9.212-0.259-18.432,1.584-27.65,0.324c0.075-3.522,18.822-2.949,21.461-3.142c3.92-0.287,8.283,1.102,12.051,0.378
		c1.381-0.266,5.591-0.489,6.827-0.164C157.324,212.554,197.87,214.405,192.724,222.655
		C191.764,223.19,194.042,220.544,192.724,222.655"/>
</g>
</svg>
