<?xml version="1.0" encoding="utf-8"?>
<!-- Generator: Adobe Illustrator 21.1.0, SVG Export Plug-In . SVG Version: 6.00 Build 0)  -->
<svg version="1.1" id="Layer_1" xmlns="http://www.w3.org/2000/svg" xmlns:xlink="http://www.w3.org/1999/xlink" x="0px" y="0px"
	 viewBox="0 0 360 236" style="enable-background:new 0 0 360 236;" xml:space="preserve">
<style type="text/css">
	.st0{fill:#E7ECEF;}
	.st1{fill:#FFFFFF;}
	.st2{fill:#ECE5D0;}
	.st3{fill:#DDCDC0;}
	.st4{fill:#A3D2EC;}
	.st5{fill:#747E91;}
</style>
<g>
	<path class="st0" d="M214.5,22.1c-7-1.7-15.5-1.1-20.3,5c-4.1,5.1-2.1,7.8-1.3,12.7c2,11.9-10.5,9.2-17.9,7.4
		c-10.8-2.6-24.6-7.4-33.3,3.1c-4.3,5.3-3.5,13.4-12.4,13.9c-11.4,0.7-14.6-15.1-27-16c-8.3-0.6-23.5,7.2-25,16.1
		c-0.7,4.1,3.1,7.4,1.8,11.5c-0.8,2.5-4.9,2.9-5.8,6.1c-0.9,3.2,1.7,5.1-0.6,8.8c-5.1,8.3-14.6,2.5-16.6,13.8
		c-0.7,4.1,0.8,7.8,0.7,11.8c-0.1,7.6-4.6,3.7-8.6,8.6c-5.4,6.5,2.3,12.2,3.9,17c3.3,9.6,1,24.3,14.6,27.4c13,3,26.8-11.4,33.8,3.2
		c3.3,7,2.8,12.8,11.5,12.1c5.3-0.4,8.8-2.5,12.6-5.5c2.4,1.3,5.7,2.8,7.9,4.6c0.8,0.6,3.2,3.8,3.6,4c3.7,2,4.4-0.9,7.5-1
		c5.1-0.1,3.4,1.1,5.5,4.7c4.3,7.2,9.8,10.7,17.8,13.8c6.7,2.7,18.4,6.4,23.9,0.3c4.6-5.1,0-11.1,2.5-16.2c2.3-4.6,5.9-3.6,9.2-1.5
		c2.9,1.8,4.6,4.5,6.5,7.3c4.1,6.1,8.7,9.7,15.9,12.2c7.4,2.5,15.4,2.2,17.8-6.6c0.7-2.5-1.2-6.7,0.4-8.8c4.1-5.4,23.5-1.1,19.4-13
		c-0.9-2.6-5.7-3.4-5.3-6.9c0.5-3.8,11.9-3.9,15.3-4c7.5-0.2,24.1-5.1,20.1-15.6c-2.2-5.9-9.2-12.2-12.6-17.7
		c-3.9-6.2-7.7-12.4-11.3-18.7c-5.7-10.1-5.1-20.2,3.3-29.1C278.5,80,287.1,75,292.6,67c2.4-3.5,4.7-7.6,2.2-11.7
		c-2.5-4-9.9-6.3-14.1-4c-5.3,2.9-3.8,6.9-11.5,7.4c-4.8,0.3-10.9-0.4-9.8-6.7c0.9-5.1,8-7.2,5.9-13.3c-3.2-9.4-14.4-4.1-20.3-2.2
		c-5.3,1.7-12.5,0.8-16.9-2.8c-2.6-2.1-2.4-5.1-4.3-7.2C221.4,23.5,217.8,22.9,214.5,22.1z"/>
	<path class="st1" d="M257.5,148.5c1.2,2.8,33.7-0.5,37.8-0.5c8.7-0.1,18.8-1.5,25.6-7.6c14.8-13.3-1.4-36.8-7.5-50.2
		c-2.8-6.1-7.4-19.8-14.6-21.9c-4-1.2-12.2,1.2-16.5,1.6c-5.1,0.5-10.3,1-15.2,2.6c-7.1,2.2-14.2,5.1-20.9,8
		c-2.4,1.1-5.6,1.5-7.6,3.7c-2.3,2.6-1.6,4.6-5.3,6c-8.7,3.2-15.2-3.6-23.4-4.9c-10-1.5-19.5-5.6-29.6-6.9
		c-7.7-0.9-11.4,0.6-18.5,3.3c-3.2,1.2-6.8,1.1-9.9,2.2c-3.3,1.1-5,4.2-8,5.4c-4.3,1.8-12.6-1.7-16.8-2.6
		c-10.9-2.4-21.8-6.8-32.7-8.6c-3.5-0.6-7.2-0.6-10.4-1.6c-4.1-1.3-8.4-6.1-12.7-6.4c-9.3-0.7-8,11.4-10.5,17.9
		c-4.2,10.8-10.2,17.4-10.2,29.4c0,6.7-1.2,17.5,5.4,20.6c2.9,1.4,6.4-0.1,9.3,0.8c2.7,0.9,4.9,3.9,7.5,5c4.9,2.1,10.8,1.9,15.8,3.1
		c6.9,1.7,21.8,10.6,28.7,6.3c4.8,3.5,6.9,5.8,12.4,8.5c7.2,3.4,11,3.5,18.4,4.4c8,0.9,14.7,2.8,22.4,3.3c9.3,0.5,15.4-4.2,23.4-8.2
		c5-2.6,11.7-2.2,17.9-3.9c4.1-1.1,7.3-2.1,11.2-4.6c3.5-2.3,5.6-6.1,8.8-8.2c3-2,6.7-2.3,10.1-3.6c2.7-1,4-2.2,6.8-2.3
		c1.2,0,3.4,1.9,5.7,1.5C254.3,143.4,256.3,145.6,257.5,148.5z"/>
	<path class="st0" d="M303.2,69.4c4.1,1.7,12.7-2.6,11.2-7.9c-1.5-5.3-12.3-3.9-14.4,0.2C298.4,65,300.4,68.2,303.2,69.4z"/>
	<path class="st2" d="M209.4,92c-10.8-4.8-24.4-4.9-36.8-3.3c-8.2,1-13.1,2.4-19.4,7c-3.9,2.8-11.8,6.5-4.6,11.1
		c6.3,4.1,14.4-3.5,20.7-4.2c5.3-0.6,9.7,1.1,14.5,3.2c6,2.6,11.5,5.6,17.3,8.6c3.2,1.7,6.8,1.8,9.8,3.3c6,3.1,8.1,12.3,15.4,15.2
		c5,2,8.8-2.2,13.5-3.9c0.6-5.6-1.2-9.5-3.8-14.3c-2.4-4.5-3.9-10.7-8-14c-7-5.6-15.9-3.7-22.8-10.3"/>
	<path class="st2" d="M125.4,154c4.4,0.2,5.1-2.3,6.6-5.9c0.2,2.3,3.1,8.6,5.2,10c4.1,2.8,8.1-1.8,10.6-1.7c6.5,0.2,8.8,8,16.2,6.2
		c1.9-0.5,1.8-1.9,4.4-2.1c4-0.3,8.1,3.3,12.2,3.4c1-4.9-2.5-8.6-6.1-11.1c-3.1-2.2-3.9-4.8-8.3-0.2c-1.6,1.7-2.6,2.7-2.3,5.4
		c-1.6-4.5,0.2-17.5-7.9-17.3c-7.5,0.1-7.6,12.3-11.2,16c-0.3-4.5-3.3-24.5-11.3-16.5c-3.4,3.4-0.9,8.5-5.6,3.2
		c-2.1-2.4-5.7-8.7-8.7-4.7C116.2,142.6,120,153.8,125.4,154z"/>
	<path class="st3" d="M128.1,100c-8.1,8.9-14.9,23.4-7.4,33.8c2.7,3.7,6.5,9.8,11.6,7.8c0.3-4.8,4.3-7.8,9-6.4
		c0.4,3.6,1.2,8.9,6.2,7.9c4.3-0.8,3.2-9.6,10-7.1c4.2,1.5,1.3,4.1,2.9,6.6c2.7,4.4,2.7,5.2,8.5,7.4c8.7,3.4,18.7,6,27.9,3.4
		c4.3-1.2,5.4-4.6,9.5-6.6c2.9-1.4,5.8-0.8,8.9-2.8c12.3-7.7-4.5-15.3-11.1-22c-7.9-8.1-22.4-17.3-34.3-16.3
		c-12.9,1.1-22.3,9.2-35.7,2.2c-0.5-4,3.3-7.1-1.8-8c-3.2-0.6-5.7,1.7-5.6,4.8"/>
	<path class="st4" d="M37.7,85.5c1.5-2.4,4.3-4.4,5.6-6.7c0.2-0.3,2.6-6.2,1.6-6c5-1.4,9.7,3.9,14.3,5.3c3,0.9,6.3,1.4,9.3,2.6
		c-0.7,1.3-0.6,3-1.1,4.5c8.5-5.7,13-2.9,22.8,0.7c2.9,1,12.4,2.2,13.2,5.4c0.7,2.9-6.2,12.6-7.7,15.2c-4.2,7.1-7.4,11.9-8.3,20.1
		c-0.4,3.4,0,16.1-2.6,18c-5.5,4.1-19.5-6.3-24.6-7.9c-6.7-2.1-11.4-0.4-10.1-9.5c1-7.3,5.8-13.9,6.6-21.2
		c-4.2,0.1-8.7,12.9-10,16.5c-3.3,1.1-12.6,2.1-14.7-1.8c-1.9-3.4,3.8-11.5,4.2-15.5C36.7,98.1,33.6,91.8,37.7,85.5z"/>
	<path class="st3" d="M320.5,74.1c-0.4-3.2-27,3.5-29.1,7.3c-1.5,2.6,1,5.5-2.3,7.3c-4.9-6.3-5.2-9.2-13.1-7.1
		c-4.4,1.1-9.6,0.5-13.8,2.6c-7.6,3.9-3.4,8.2-1.4,14.6c1.7,5.6,3.1,11.6,4,17.3c1.4,9.1,3.8,18.3,4.8,27.2c3.2,0.5,7.6-2.4,11-3.1
		c4-0.9,8.6-1.6,12.4-2.8c4.2-1.3,3.7-0.6,4.6-4.7c0.6-2.9-0.1-6.3,0.1-9.3c3.9,2.3,1.6,9.6,4.9,11.7c2.5,1.6,18.7-3.2,22.9-4.5
		c0.7-8.4-1.7-7.9-6.3-13.2c-4-4.6,0.1-8.4-0.3-15.3C318.3,92.3,321.7,84.2,320.5,74.1z"/>
	<path class="st5" d="M176.7,56.6c-1,1.3-4.1,0.6-5.5,0.9c-2,0.4-4,1.2-5.9,2.2c-1.2,0.6-2.7,1-3.6,1.8c0,0-1.9,1-1.3,1.1
		c-3.6,0.6,0.4-4.2,2.2-4.6C167.1,57.2,171.9,55.7,176.7,56.6C175.9,57.6,173.2,55.9,176.7,56.6z"/>
	<path class="st5" d="M198.5,69.1c-5.6-0.2-11.4-1.2-16.9-0.5c-2.7,0.3-5.4,1.1-8,1.7c-1.3-0.2-1.1,1.2-2.5,0.7
		c-0.9-0.3-1-1.2-0.2-1.8c3.8-3.1,10-2.9,14.5-2.5C186.6,66.6,198.8,67.3,198.5,69.1C193.9,68.9,198.7,68.3,198.5,69.1z"/>
	<path class="st5" d="M304.1,73.9c-0.1,0.9-1.2,0.4-0.7,1.7C300.6,75.5,303.1,72.4,304.1,73.9C304,74.6,303.2,72.5,304.1,73.9z"/>
	<path class="st5" d="M295.5,74.3c-0.6,1.4-4.6,2.9-6.1,3.3c-1.5,0.4-3,0.8-4.5,1.3c-1.9-0.7-1.8-2-4-1.2c-3.7,1.3-7.4,2.5-11.2,3.5
		c-3.1,0.8-6.8,1.2-9.8,2.6c-0.9,0.4-7.5,1.7-7,2.5c1.2,1.8,2.5,3.5,3.6,5.7c2.5,5,5,10.9,6.2,16.3c1.3,6,3.2,12,4.9,17.9
		c1.5,5.6,3.4,12.2,0.9,17.4c-0.7,1.4-1.6,3.2-3.6,1.9c-1-0.6-2.7-2.4-3.1-3.4c-0.4-0.8-1.7-2.7-0.7-3.6c1.2-0.3,1.7,0.3,2.1,1.3
		c0.6,1.5,2.1,3.6,3.7,4.5c1.1-1.8,0.6-5.1,0.6-7.2c-0.1-3.5-1.5-7.2-2.2-10.6c-1.5-6.6-3.3-13.2-5.6-19.6
		c-1.8-4.9-3.2-10.3-5.8-14.8c-1.4-2.4-1.7-2.3-4.2-1.4c-1.7,0.5-3.3,1.1-5,1.7c-3.3,1.1-6.7,2.1-10.1,2.5c0.9,3,3,6.3,4.5,9
		c0.9,1.7,1.6,3.6,2.5,5.4c0.8,1.7,1.2,5,2.7,6.3c0.3,0.3,0.8,1.9,0.9,2.4c0.5,1.7,1,3.5,1.8,5.2c2.1,4.7,3.3,10.3,3.5,15.5
		c1.9-1.1,4.5-1.7,6.5-2.6c2.6-1.2,5.8-2.6,8.6-2.9c1.1,3.7-11.2,6.7-13.9,7.7c-1.3,0.5-2.1,1-3.2,0.9c-0.6-0.1-1.6-1.6-2.3-2.1
		c-0.2-0.2-1.4-1.1-1.5-1.3c-0.4-2.3,2.6-0.5,3.2-0.3c-0.9-10.1-5.4-20-9.1-29c-1.4-3.5-3.8-10.6-7.2-12.2c-1-0.5-0.2-1.8,0.2-2.4
		c0.9-1.4,1.3-1.6,3-1.9c2.6-0.5,5.2-0.9,7.6-1.8c2.3-0.8,5.5-0.5,6.8-2.7c0.6-1,1.3-1.9,1.6-3c0.6-2.1,2.4-1.7,4.5-2.1
		c3.6-0.7,6.5-2.5,9.8-3c5.7-0.8,11.3-2.7,16.6-4.8c1.5-0.6,2.1-0.2,3.3,0.8c1.2,1,2.5,0.7,4,0.1C290.8,75.1,293.3,72.8,295.5,74.3
		C294.8,76,293.9,73.3,295.5,74.3z"/>
	<path class="st5" d="M60,106.5c0.7,1.1,0.2,3.8-1.5,3.4C56.4,109.4,58.3,106.4,60,106.5C60.5,107.3,58.1,106.4,60,106.5z"/>
	<path class="st5" d="M52.3,122.3c3.3,0.7-1.4,8.5,2.6,9.4c3.4,0.7,6.9,2.6,10.3,3.9c4.8,1.7,9.4,4,14.2,5.7
		c1.4,0.5,3.1,0.8,4.1,1.9c2,2.4-4,0.6-4.5,0.5c-4.7-1-9.2-3.7-13.8-5.4c-3.2-1.2-6.4-2.1-9.6-3.4c-1.9-0.8-4-0.5-4.6-2.9
		c-0.2-0.8,0-2.6,0-3.7C51.2,126.9,50.1,122.3,52.3,122.3C53.8,122.7,52.2,122.3,52.3,122.3z"/>
	<path class="st5" d="M296.2,125c2.8,2.3,3.2,6.9,3.5,10.3c0.2,2.2,1.2,5-0.9,6.3c-0.6,0.4-1.2,0.8-1.6,1.4
		c-1.4-0.1-2.9-0.3-4.3-0.2c-4.2,0.3-8.3,1.6-12.5,2.1c-1.8,0.3-8.4,3.6-9.6,1.5c-0.1-2.3,7.7-3.2,9.3-3.8c3.5-1.1,6.9-1.4,10.5-1.9
		c4.7-0.6,7.3,0.4,7.3-5.1c0-2-0.1-4.1-0.8-6.1c-0.3-0.7-0.5-1.4-0.7-2.1c-0.3-0.6-1.9-1.5-1.9-2.2
		C295.1,124.8,295.6,125.3,296.2,125C297.6,126.2,295.5,125.4,296.2,125z"/>
	<path class="st5" d="M48,129.1c0,3.1-2.7,0.9-4.6,0.5s-3.7-1-5.6-1.3c-3.5-0.6-8-0.8-11.4,0.4c0.4-2.6,8.9-2.1,10.6-1.9
		c2.3,0.2,4.7,0.2,6.9,1C44.9,128.1,47.5,128.3,48,129.1C48,129.5,47.4,128.3,48,129.1z"/>
	<path class="st5" d="M79.5,127.1c1.1,2.8-0.3,1.8-2.2,1.9c-2.9,0.2-2.2,2.2-1.5,4.3c0.7,2.3,2.8,0.2,2.7-1.4
		c1.6,0.1,3.1-0.2,1.9,2.4c-1.5,3.3-6.3,2.8-7-0.6C72.4,129,73.9,126,79.5,127.1C79.7,127.9,76,126.4,79.5,127.1z"/>
	<path class="st5" d="M282.5,132.4c-1.9-0.6-4.5-3.7-4.8,0.4c-0.3,3.6,2.6,2,4.6,2.5c0.4,4.2-9.4,2.1-6.6-4c1.5-3.3,2.4-2.6,5.4-2.4
		C282.5,128.5,284.3,131.4,282.5,132.4C281.1,132,283.2,132.1,282.5,132.4z"/>
	<path class="st5" d="M128.4,149.9c-1.8-0.7-1.8-4.5-2.4-6c-1-2.7-2.4-4.1-3.8-6.2c-0.5-0.8-2.2-2.6-3.6-2.4
		c-0.7,0.3-1.8,6.6-1.6,7.5c0.5,1.8-0.2,3.4,0.6,5.2c0.8,1.9,2,4.3,3.9,5.4c2.1,1.2,5.1,0.1,6.7-1.4c0.3-0.3,1-1.9,1.5-0.8
		c0.4,0.8,0.3,2.1-0.2,2.8c-0.6,1.2-3,2.7-4.3,2.3c-1.4-0.4-3,0-4.4-0.3c-1.8-0.3-2.7-2-3.7-3.5c-3.9-5.6-1.6-11-1.5-17.2
		c0.1-3.3,2.6-3.2,5.2-1.9c0.6,0.3,4.2,3.2,4.5,3.1c-0.3,1.5,2.7,5.4,3.1,7.2C128.9,145,130.2,149.4,128.4,149.9
		C127.6,149.6,129.8,149.5,128.4,149.9z"/>
	<path class="st5" d="M246.3,133.4c-0.7,1.5-3.3,2.2-4.6,3.1c-1.9,1.3-3.3,2.8-5,4.2c-1.8,1.5-3.1,2.8-5.5,3.5
		c-0.6,0.2-1.2,0.5-1.8,0.5c-0.6,0.1-2.3-1.3-1.4-1.6c3-1.1,5.9-2.6,8.1-5.1C238.6,134.8,241.9,132.6,246.3,133.4
		C245.5,135.2,245.3,133.2,246.3,133.4z"/>
	<path class="st5" d="M142.8,133.9c0.9,1.7,2.6,2.7,3.1,4.6c0.5,1.9-0.2,4.3-0.4,6.2c-0.2,2.5,0,5-0.2,7.6c-0.4,3.5,1.6,6.3-1.3,8.6
		c-2.4,1.9-4.8,1.3-7.2,0.2c-2.5-1.1-4.3-2.2-5.2-5.1c-1.4-4.3-0.6-9-0.5-13.3c0-2.8,0-5.6,2.6-7
		C136.2,134.2,139.7,133.4,142.8,133.9C143.2,134.6,139.6,133.3,142.8,133.9z M143.3,154.7c-0.4-2-0.3-5.3-0.2-7.5
		c0.1-2.3,1.9-7.9-0.7-9.3c-0.3-3.6-6.8-2.1-8.2,0c-1.2,1.8-0.6,5.4-0.6,7.5c-0.1,3.1,0,6.2,0.2,9.1c0.1,2.1,4,4.7,5.8,4.8
		c1.4,0.1,2.6,0.5,3.8-0.5C144.9,157.5,143.6,156.5,143.3,154.7C143.3,154.8,143.5,155.9,143.3,154.7z"/>
	<path class="st5" d="M163,161.2c-4.7,2.6-1.9-13.5-1.9-14.9c-0.1-2.6,0.2-6.6-2.2-8.3c-4.3-3.2-5.6,0.4-6.2,4
		c-0.7,4.3-6,15-0.7,18.1c2.2,1.3,4.4,1.1,6.7,1.8c4,1.2-0.9,2.2-2.8,2c-3.1-0.3-6.5-1.1-7.7-3.9c-1.5-3.5-0.9-6.5,0.2-10
		c0.8-2.7,1.7-6.1,1.9-9c0.2-2.6,1.4-6.1,4.5-6.4c5.4-0.4,7.9,2.9,8.4,7.7c0.3,3,1.2,8.2-0.2,10.9
		C162.6,153.9,162.4,161.3,163,161.2C162,161.8,163.5,161.2,163,161.2z"/>
	<path class="st5" d="M307.7,136.7c0.8,0.7-1.8,3.1-2.6,3.1C302.3,140.5,305.4,134.5,307.7,136.7
		C308.3,137.3,307.4,136.5,307.7,136.7z"/>
	<path class="st5" d="M179.5,146.8c-1.3,0.4-2.3-0.7-3.2-1.6c-1-0.9-3.1-1-3.4-2.6C172.6,140.6,180.1,143.2,179.5,146.8
		C177.9,147.3,179.8,145.5,179.5,146.8z"/>
	<path class="st5" d="M174,149.9c1.2,3.3,2.7,5.8,2,9.4c-0.2,0.9-0.3,3.1-1.2,3.8c-1.6,1.3-1.4-2-1.3-2.7c0.3-2.1,0.3-8.3-2.2-8.8
		c-4.3-0.8-4,4.4-3.8,7.6c0.3,4.8,2.5,0.5,4.1,3.2c0.1,1.3-1.7,1.7-2.6,2.1c-1.9,0.8-3.5-1.6-4.1-3.3c-0.2-3-0.1-6.1,0.8-9
		C167.1,147.8,170.2,148.9,174,149.9C174.6,151.6,171.9,149.3,174,149.9z"/>
	<path class="st5" d="M190.6,172.3c0.1,2.8-4.2,2.8-6.1,3.6c-2.7,1.2-5.4,2.4-8.4,3.4c-5,1.7-12.4,1.5-16-2.7c0.8-0.7,1.6,0.8,2.2,1
		c1.6-0.3,3.5,0.8,5.1,0.9c3.2,0.2,7.9-0.3,10.6-2.2c1.4-1,3.9-1.9,5.3-2.2C185.6,173.6,188.5,170.8,190.6,172.3
		C190.7,174.3,189.7,171.7,190.6,172.3z"/>
	<path class="st5" d="M200.2,176.1c1.2,2.6-9.2,8.8-10.6,7c0.2-1.1,3.4-2.4,4.3-3.1C195.9,178.4,197.7,175.5,200.2,176.1
		C200.9,177.7,199.6,176,200.2,176.1z"/>
	<path class="st5" d="M207.9,149.2c-1.2-1.3,1.1-1.4-0.6-2.7c-1.2-1-2.6-1.7-3.9-2.6c-2.7-1.9-5.1-4.1-7.7-6.2
		c-2.1-1.7-4.1-3.8-6-5.5c-0.6-0.5-5.1-3.3-4.8-4.1c1.5,0.4,3.3,2.2,4,2.6c0.5,0.2,5.7,3,4.9,3.9c1-1,7.1,4.7,8,5.5
		c2.4,2,4.8,3.5,7.5,5.1c2.9,1.6,6.1,2.5,9.4,1.9c4.6-0.9,4.2-3.6,6.2-7c-1.5-2.4-4.4-4.3-6.5-6.5c-2.9-3-6.1-5.8-9.3-8.5
		c-1-0.9-1.8-1.9-2.9-2.8c-1.4-1.2-3.6-1.9-4.5-3.4c-1.4-2.4-5.2-5.5-7.6-7c-0.8-0.5-2-1.8-2.4-2.6c-1.5-0.4-3.4-1.2-4.5-2
		c-2.8-1.9-6.8-3.2-9.9-4.5c-1.5-0.6-3.2-0.8-4.6-1.7c-0.9-0.6-2.5-2.2-0.1-2.2c1.5-0.1,2.8,1.2,4.2,1.5c1.6,0.3,3.7,1.1,5.3,1.7
		c2,0.8,3.7,2,5.8,2.9c2,0.8,5,1.6,6.3,3.3s3,2.8,4.5,4.2c2.1,2,4,4.1,6.5,5.8c1.4,1,3,2,4.8,1.6c1.7-0.4,3-1.7,4.8-2.1
		c1,2.2-3,4.1-4.6,4.6c2.3,3.6,6.8,6.9,10.1,9.5c0.7,0.5,3.7,4.3,4.3,4.2c1.9-0.4,2.3,2.7,2.5,3.7c0.5,2.2-1.6,5.3-2.7,7.1
		c-1.5,2.5-9.9,4.2-12.5,2.2c-0.5,1.1-0.8,2.3-1.7,3.1c0,1.5-0.7,3.6-1.9,4.6c-1.4,1.2-3.6,1.7-5.3,2.4c-2.7,1.1-4.1,1.5-6.8,1.5
		c-2.6-0.1-4.2-2.8-6.4-3.9c-0.5,1.6-0.7,2.7-1.5,4.2c-1.3,2.6-1.6,2.4-4.2,2.1c-1.1-0.1-7.4-0.4-7.3-2.3c0.2-2.4,7.5,1.1,9.2-0.7
		c3.2-3.2-2.9-5.1-0.6-7.4c-1.6-0.5-4.4-3.2-4.3-5c2.3-0.2,7.6,5.1,9.3,6.5c1.9,1.7,3.8,2.9,6.2,3.8c2.2,0.8,9.4-1.6,10.2-3.7
		c1.1-2.5-0.3-2.8-1.9-4.8c-1.4-1.8-3.2-3.9-2.9-5.9C204.2,145.2,205.8,147.5,207.9,149.2C207.5,148.8,205.7,147.5,207.9,149.2z
		 M191.1,132.7c0.6,0.3,1.6,1.6,2.2,1.2C192.5,133.6,191.6,132.3,191.1,132.7z"/>
	<path class="st5" d="M110.9,92.8c-0.4-0.3-7.4,9.1-8,10.1c-4.1,6.2-7.2,13-10.2,19.5c-1.2,2.6-2.1,5.3-2.9,8.1
		c-0.5,1.6-0.9,3.2-1.2,4.8c-0.6,3,0.9,2.7,3.5,3.1c2.3,0.3,4.8,1.3,7.1,1.4c3.3,0.1,6.9,2.4,10.3,2.8c0.1-0.1,0.2-6.8,0.3-7.6
		c0.6-3.2,0.5-6.5,1.1-9.7c1-4.9,3.6-11.6,6.2-15.6c2.5-3.8,3.4-8.4,6.7-11.8c0.7-0.7,1.3-1.5,2.3-1.8c1.7-0.7,2.7,0.5,1.4,1.9
		c-0.8,0.8-1.7,1.4-2.5,2.3c-0.7,0.9-1,1.6-1.6,2.7c-2.8,4.6-4.6,10-7.4,14.6c-1.2,2-2.2,4.7-2.6,7.1c-0.3,1.7-0.3,5.6-1.2,7
		c-0.7,1.2-0.3,4.8-0.3,6.3c-0.1,1-0.6,2.1-0.2,3.1c0.3,1,1.5,1,2,1.8c1,1.7-1.9,2-2.7,2.8c-1.8-0.6-3.7-1.2-5.5-1.8
		c-0.7-0.2-4.5-0.7-4.8-1.2c0,0,0.2-0.9,0.1-0.8c-1.9,2.1-5.2-2.5-7.1-0.7c-1.2,1.1-5.1,5-6.6,3.6c-0.9-0.8-1.1-3.7-1.2-4.9
		c-0.2-3.5,0.4-9.1,2.4-12.1c1.1-1.5,1.4-3.9,2.2-5.7c1-2.3,2.1-4.6,3.2-6.9c1.8-3.6,3.7-7.1,5.7-10.6c2.1-3.6,4.3-6.9,7-10
		c0.7-0.8,1.3-1.7,2-2.4c0.1-0.1,1.5-2,1.5-2c-2.7-1.9-6.6-2.3-9.7-3.3c-3.8-1.2-7.6-2.4-11.2-4.2c-3-1.5-7.8-4.7-11.3-3.6
		c-1.6,0.5-2.8,1.8-4.4,2.3c-2.4,0.8,0-2,0.1-2.5c-1.8,0.3-3.2-1.2-4.8-1.8c-2.5-0.9-5.2-1.5-7.8-2.2c-4.4-1.1-8.3-2.8-12.4-4.7
		c-0.5-0.2-3.5-2.2-1.3-2.4c1.1-0.1,3,1.1,3.9,1.5c2,0.8,4.6,1.5,6.2,2.7c1.7,1.2,5.6,1.4,7.6,2c2.5,0.7,5,1.2,7.4,2.1
		c0.8,0.3,3.8,1.5,4.3,1.2c3.3-1.7,9.9,1.4,12.9,3.1c3.5,2,7.7,3.5,11.6,4.6c2.1,0.5,3.9,1.3,6,1.7c3.1,0.5,5.1,1,5.6,4.2
		c0.6,3.5,10.2,1.5,12.9,1c2.1-0.4,3-1.4,4,1c1.2,2.9,3.2,1.8,5.7,1.2c2.3-0.5,4.6-0.9,7-0.9c1.1,0,4.9,1.5,5.2,1.1
		c1.2-1.6,2-3.5,3.4-5.1c1.5-1.6,3.9-1.7,5.9-2c2.8-0.4,5.6-0.3,8.4-1.2c2.4-0.8,4.8-1.7,7.2-2.4c4.4-1.2,8.7-3.2,13.1-4.4
		c2.5-0.7,6,1.4,8.4,2.3c2.7,1,5.5,2.5,8.3,3.1c4.6,1.1,8.9,2,12.5,5.1c1.5,1.2,5.7,2.5,6.6,4c0.6,1.1,7.4,0.3,6.5,2.4
		c-0.4,0.9-1.3,1.3-2.1,0.5c-1-1.1-2.8,0.1-4.2,0c-3.7-0.3-7.5-4.5-10.6-6.3c-3.5-2-7.3-2.2-11-3.6c-2.8-1.1-5.4-2.5-8.2-3.3
		c-1.8-0.5-3.6-1.1-5.2-2c-0.5,0.3-3.9,1-4.4,1c-1.8-0.3-7.1,2.9-9.2,3.6c-3.7,1.1-7.5,2.2-11.3,2.9c-2.9,0.5-9.7,0-11,3
		c-2.4,5.5-5.7,9.5-10.4,12.9c-0.5,0.4-2.4,2.1-2.9,2.2c0.6,1.6,2.4,2,3.8,2.4c3.8,1.2,8.2,1.1,11.9-0.5c1-0.4,5.6-2.6,5.4-3.6
		c-0.2-0.8,4.9-4.5,6-4.8c0.2,3-5.9,7.6-7.7,9.4c-3.1,3-9.1,2.5-12.9,2.7c-2.5,0.1-11.6-2.6-9-6.5c0.8-1.1,2.9-2.6,4.2-3.2
		c2.7-1.2,5.1-4.2,6.8-6.4c-0.8-0.2-7.9-0.6-7.7-0.1c-0.4-1.4-8.1,2.9-9-0.1s-5.2-2.2-7.5-1.9c-1.9,0.2-3.7,0.7-5.5,0.7
		c-2,0-4.1-1-6-1C110,93.2,111.2,93.7,110.9,92.8C110.6,92.5,111.2,93.7,110.9,92.8z M88.6,142c1.4-0.3,2.5-1.1,3.6-1.9
		c-0.9-0.1-3.1-0.5-3.8-1.2C88.4,139.9,88.2,141.1,88.6,142C90.1,141.7,88.2,141.3,88.6,142z"/>
</g>
</svg>
