<?xml version="1.0" encoding="utf-8"?>
<!-- Generator: Adobe Illustrator 21.1.0, SVG Export Plug-In . SVG Version: 6.00 Build 0)  -->
<svg version="1.1" id="Layer_1" xmlns="http://www.w3.org/2000/svg" xmlns:xlink="http://www.w3.org/1999/xlink" x="0px" y="0px"
	 viewBox="0 0 360 236" style="enable-background:new 0 0 360 236;" xml:space="preserve">
<style type="text/css">
	.st0{fill:#E7ECEF;}
	.st1{fill:#FFFFFF;}
	.st2{fill:#CECECD;}
	.st3{fill:#DDCDC0;}
	.st4{fill:#A3D2EC;}
	.st5{fill:#F69A82;}
	.st6{fill:#F4F4C2;}
	.st7{fill:#747E91;}
</style>
<g>
	<path class="st0" d="M213.1,197c13.7-2.6,26.7-6.5,40.9-5.4c5.1,0.4,13,3.5,18,1.2c4.9-2.3,3.9-8.8,6.5-12.7
		c3.4-5.1,8.1-4.8,13.5-5.2c15.2-1,28.2-11.8,20.9-27.8c-2-4.4-11.5-6.1-11.2-12.9c0.1-2.8,4.7-6,5.8-9c1.4-3.5,1.1-6.1,1.2-9.9
		c0.3-11.6-2.9-25.8-12-31.8c-3.2-2.1-7.7-2.4-10-5.5c-3.1-4-2.1-12.6-4.8-17.6c-3-5.7-10.2-15.9-18-13c-4.1,1.5-5.7,8.1-10.2,9.9
		c-9.9-8.9-22.5-20.5-35.8-13.6c-4.3,2.2-4.1,6.3-9.9,3.4c-2.3-1.2-4.1-6.2-6.3-7.9c-3-2.4-6.9-3.8-10.2-5.8
		c-6.2-3.9-44.4-21.6-41.2-0.9c0.9,6.1,17.2,12.3,6.7,17.8c-4.2,2.2-10-2.6-13.3-2.1c-6.8,1.1-5.6,6.6-10.2,10.1
		c-6.5,4.8-12.6-0.8-19.5-4.5c-6.5-3.5-13.2-6.6-21.5-5.6c-9.8,1.2-30.6,10.2-36.3,19.2c-4.3,6.8,0.3,8.5,3.3,15.2
		c8,17.7-11.6,15.9-15.9,29.6c-2.1,6.8,3.6,10.3,4.1,15.9c0.4,4.8-2.3,8.4-3.1,13c-1,5.5-0.1,11.1,3.1,15.5c4.9,6.9,7.2,3.5,14,5.4
		c9.9,2.7,9.7,10.8,12.3,19c3.4,10.4,11.5,14,21.5,17.4c6,2,13.1,2.3,19.5,3.1c12.6,1.5,25.4,2.1,38.1,2.2
		c14.6,0.1,28.7-3.9,43.3-4.5C202.3,198.8,207.7,198,213.1,197z"/>
	<path class="st1" d="M203.7,85.4c-2.5,2.6-4.5,5.2-6,7.4c-2.9-6.9,7.1-13.7-0.6-20.1c-4.7-3.9-26-9-32-5.5
		c-5.5,3.2-4.1,14-6.3,19.5c-3.8,9.7-6.8,21.5-22.1,12.3c4.9-27.8-32.4-25.9-38.8-4.2c-5,0-3.9,4.3-6.6,5.4
		c-6.2,2.7-13.4-4.7-20.3-2.3c-4.5,1.6-14,19.6-16.3,24.7c-4.5,9.8-3.3,26-2.2,36.4c0.7,6.4,3.4,9.9,5.4,15.6
		c0.9,2.7,0,22.7-0.8,22.2c6.5,4.3,14.6,10.9,20.9,16.2c5.8,4.9,3.5,5.4,12.5,5c9.8-0.4,19.7-0.9,29.6-1.2c44.2-1.5,89,3,133.1-0.2
		c0.7-20,2.7-39.9,3.2-59.7c9.7-0.6,24.1,3,33-0.1c10.9-3.8,2.2-21.9,1.1-30.6c-0.6-5.2-0.8-25.4-4.5-28.4c-4.7-3.8-18.4,1.3-22.9,3
		c-4,1.5-8.3,3-12.5,3.9c-8,1.6-4.5,1.1-9.4-3.1c-4.5-3.9-10.8-8.9-8.3-15.5c2.1-5.7,9.5-9.7-1.7-13.3
		C221.9,69.9,211,77.6,203.7,85.4z"/>
	<path class="st2" d="M125.2,92.2c-1.3,3.7-3.2,9.5-7.3,3.9c-1.6-2.2-1.2-10.9-4.8-11.4c-4.9-0.7-11.4,15.5-3.2,17.9
		c2.2,0.6,4.7,0.4,7,0.7c3,0.4,7.2,2.3,10.3,1.4c2.7-0.7,4-3.6,4.5-6.5c0.6-3.7,0.2-11.6-4.4-12.4C126.7,87.8,126,90,125.2,92.2z"/>
	<path class="st2" d="M93.3,139.4c-1.8,3.9-5.6,9.1-3.9,13.3c1.3,3.2,6.7,7.4,10.1,5.1c1.7-1.1,3-7,3.6-8.6
		c1.8-4.3,3.7-9.6,5.8-14.1c1.1-2.4,7.3-11.9,3.4-14.9c-2.9-2.2-9.4,0.1-11.4,2.2C97,126.6,95.7,134.2,93.3,139.4z"/>
	<path class="st3" d="M69.2,124.5c-2.7-10.3-6.3,2.3-8.5,5.6c-1.1,1.7-3.7,3.4-4.4,5.6c-1.8,5.6,0.7,13.3,0.9,18.9
		c0.3,6.7-0.1,13.3,0.5,19.9c0.5,5-1,11.8,0.5,16.5c1,3.1,6.7,7.3,9.3,9.7c2,1.8,4.3,4.8,6.7,5.8c1.8-2.8,1.6-6.1,1.3-9.3
		c-0.5-4.9-0.8-9.7-0.8-14.7c0-7.6,0.5-15,0.5-22.5c0-5-0.2-9.7-0.9-14.5C73.1,138.5,71,131.4,69.2,124.5z"/>
	<path class="st3" d="M114.7,163.4c-5.8-0.4-11.7-0.1-17.5-0.5c-3.8-0.3-13-3.9-16.5-0.8c-4,3.5-0.5,22.4-0.5,27.3
		c0,6.3-1.2,24,2.9,27.8c2.4,2.2,7.2,1,10.2,1c7.9,0,16.1,0.7,24,0c17.2-1.4,33.4-5.1,50.7-5.2c18.8-0.1,37.4-5.3,56-5.3
		c8.4,0,19.9,4.9,20.3-7.3c0.3-9.9,1-19.4,1-29c0-3.7,0.3-7.6,0-11.3c-0.6-6.7-3-5.3-8.4-4c-9.6,2.3-19.6,2-29.3,3.7
		c-8.6,1.5-17.3,1.1-26,1.1c-5.5,0-10.9-1.2-15,2.2c-3.2,2.7-6.5,7.1-9,10.6c-4.9,6.8-18.3,11.8-18.8-1c-0.1-1.7,0.5-4-0.5-5.4
		c-0.6-0.9-1.8-0.4-2.6-0.8C129.7,163.7,121,163.8,114.7,163.4z"/>
	<path class="st4" d="M226.4,87.9c5.2-9.8-4.8-12.2-11-6.2c-2.7,2.6-5.2,5.7-7.2,8.9c-1.7,2.7-3.2,5.6-5,8.2
		c-1.2,1.7-3.1,3.8-4.2,5.6c-2,3.2-2.5,4.5-2.5,8.3s-2.5,3.1-4.7,5.6c-4.5,5.1,0,6.6,4,9.1c1,0.6,1.8,1.7,2.9,1.7
		c4.3,0.2,3.6-4,4.4-6.4c0.6-1.7,2-2.4,3.3-3.9c2.3-2.6,4.5-5.5,6.4-8.6c3-4.9,6.8-9.6,9.3-14.8C223.4,92.7,225,90.6,226.4,87.9z"/>
	<path class="st2" d="M151.7,136.5c-2.2-3.4-5-6-7.7-8.9c-2.4-2.6-3.8-6.1-6-8.5c-4.9-5.2-8.7-1.5-13.3,2.7
		c-5.9,5.3-2.6,5.3,0.3,11.5c5.3,0.2,5.6,0.2,8.4,4.4c1.7,2.6,3.1,7.6,5.6,9.4c3,2.1,6.1,1.4,9,4.5c2.1,2.2,5.4,5.9,5.6,9.1
		C169,160.8,155.2,141.8,151.7,136.5z"/>
	<path class="st3" d="M86.8,106.1c-6.4,0-11.1-1.3-13,5c-1.6,5.3,1.7,15.2,7.8,14.7c0.4-4.2-1.2-7.4-0.7-11.5
		c9.1-0.3,18.4-1.1,27.8-1.2c10.6,0,21-2.9,31-2.2c8.8,0.6,58,8.3,53.8-7.6c-15.5-1-31.6-0.9-46.9-1.2c-20.7-0.3-43.6,5.6-64,3"/>
	<path class="st3" d="M217.8,108.1c7.8-1.3,20.6,9.6,17.9-5.9c-1.6,0.3-2.3-1-2.9-1.1"/>
	<path class="st3" d="M270.9,107.3c10.8-0.9,11.7,9.3,12.5,17.4c0.5,5.3,3.7,11.8,3.7,16.7c0,2.9,0.5,3.5-2,5.5
		c-0.5,0.4-6.2,2.2-6.4,1.3c-0.7-2.9,1.3-6.7,1.2-9.7c-0.2-4.7-1.7-9.9-3.4-14.3C274.5,118.8,269.5,113.8,270.9,107.3z"/>
	<path class="st3" d="M256.7,128.9c0-3.4,1.3-17.4-6-14c-5,2.3-1,14.2,0.1,17.9c0.1,0.4,6,19,8.9,13.2c0.6-1.2,1.1-2.5,1.2-3.8"/>
	<path class="st0" d="M135.5,30.9c-9.3,2.9,2.6,13.7,9,9.2c7.1-5-1.8-10.4-7-11.2"/>
	<path class="st5" d="M128.8,157.7c7.3-5.6-3.3-9.1-8.4-6.4c-4.7,2.5-6.9,6.9-0.4,8.3C123,160.3,126.5,159.5,128.8,157.7z"/>
	<path class="st6" d="M195.3,81.6c-2.8-6.3-5-11.5-12.7-12c-2.5-0.2-8.3-0.9-10.5,0.2c-5,2.5-5.1,12.9-6.1,17.8
		c-1.8,8.5-4.4,13.6,7.2,14.9c4.1,0.4,10.7,2.4,14.9,0.6c6.7-2.9,5.9-10.3,5.9-16.1"/>
	<path class="st6" d="M171.3,130.3c-5.1,2-4.3-9.4-10.7-7.5c-4.5,1.3-4.5,10.7-2.5,14c2.4,4,10.1,5.7,14.1,4
		c8.5-3.5,8.9-11.9,8.4-19.8C171.3,119.2,177,128.1,171.3,130.3z"/>
	<path class="st2" d="M213.8,154.3c-7.5,0-15-0.3-22.5-0.5c-5.6-0.1-12.1,0.8-16.9-2.9c-11.9-9.1,8.5-9.8,13.9-10.8
		c6-1.2,11.9-3,17.9-4.5c9.3-2.4,17.4-6.2,26.4-9.6c8.3-3.2,10.1-4.3,12,6.2c1.1,6.1,0.5,12.9,2,18.7c-3.4-0.3-6.9,2.3-10.7,2.6
		C228.5,154.1,221.2,154.2,213.8,154.3z"/>
	<path class="st7" d="M197.2,79.6c-2-0.2-3.1-5.2-4.4-6.1c-0.7-0.5,0.8-3.6,2.4-0.2c1.1,2.2,2.5,3.7,2.3,6.3
		C197.4,79.7,197.3,79.7,197.2,79.6z"/>
	<path class="st7" d="M169.8,93c-0.9-0.7-1.6-1.5-1.7-2.5c-0.1-1.3-1.1-2.3-1.4-3.6c-0.7-2.4,0.8-6.4,2.2-8.4
		c1.9-2.5,5.3-4.4,8.4-4.8c4.7-0.6,7.6,4.9,8.3,8.8c0.5,2.5,0.1,5.1-1,7.4c-1.2,2.5-2.4,4-5.1,4.8c-2.6,0.8-5,0.4-7.5-0.5
		C171.4,94,170.5,93.6,169.8,93z M174.6,76.7c-3.3,2.4-5.4,4.3-5.4,8.8c-0.1,6.3,5.1,7.8,10.3,6.7C187.9,90.5,182.4,70.9,174.6,76.7
		C173.5,77.5,176.1,75.6,174.6,76.7z"/>
	<path class="st7" d="M181.9,82.6c-0.6,0.1-1.5,0.2-1.7-0.1c0.9,1.5-0.4,2.5,0.1,4c0.4,1-5.9,1.3-6.9,1.3c-0.2,1.1,1.2,0.5,1.2,1.4
		c-0.1,1.5-2.5,0.4-2.9-0.2c-0.8-1.2-1.2-3.8-1-5.2c0.2-1.5,2-4,3.3-4.9s3.1-1.8,4.8-1.3c1,0.3,1.7,1.7,2.2,2.5
		c0.1,0.2,1.5,2.3,1.3,2.4C182.2,82.5,182,82.5,181.9,82.6z M177.5,79.3c-0.3,0.6-1.9-0.1-1.7,1c0.8,0.6,2.2,0.2,3.1,0.2
		C178.7,79.8,178.3,79.4,177.5,79.3C177.2,79.9,178.2,79.6,177.5,79.3z M173.7,82.4c-3.2,2.8,1.5,3.4,3.6,3.1c1.7-0.2,1.8-1.2,1-2.6
		C176.8,82.2,175.2,82.3,173.7,82.4C173,83,175.4,82.2,173.7,82.4z"/>
	<path class="st7" d="M225.5,84.4L225.5,84.4c-0.9-0.2-0.8-2.1-2.2-0.8c-2.5,2.5-3.5,6.6-5.8,9.4c-1.6,1.9-3.1,4.1-4.6,6.2
		c-0.8,1.3-3,3.6-4.2,5.3c-1.5,2-2.9,4.1-4.3,6.3c-0.5,0.8-1.2,1.5-1.5,2.4c-0.7,1.8,1.2,0.9,1.2,1.1c0,1.4-2.4,1.5-3.2,0.8
		c0.1-1.6,0.9-3,1.8-4.2c1.5-2.1,3-4.3,4.7-6.3c0.7-0.8,1.7-4.2,3.1-4.1c-0.2-0.8,1.8-2.3,1.7-2.6c-0.2-0.9,2.7-3.8,3.4-4.5
		c1.4-1.6,3.2-3.8,4.1-5.9c0.6-1.3,1.3-3.4,2.3-4.4c0.7-0.7,1.9-1.3,2.8-0.7C225.2,82.4,225.9,84.4,225.5,84.4z"/>
	<path class="st7" d="M235.4,109.1c0.9,0.7,1,3,1.9,3.2c1.6,0.5,0.4,2.9,0.2,3.5C235.6,115.9,232.2,109.2,235.4,109.1
		C236.3,109.7,234.8,109.1,235.4,109.1z"/>
	<path class="st7" d="M79.6,153.5c-1.7-1.8-1.6-5.5-1.8-7.8c-0.2-2.8-0.7-5.5-1.1-8.3c-0.8-5.3-1.5-10.3-2.4-15.6
		c-0.3-1.4-2.2-6.6-0.2-7.4c1.6,0.1,1.8,5.3,2,6.3c1,5.9,1.1,12.5,2.3,18.1C78.7,140.2,82.1,153.4,79.6,153.5
		C78.9,152.7,80.8,153.4,79.6,153.5z"/>
	<path class="st7" d="M157.6,118.4c1.6,1.4-0.3,4.7,0,6.2c0.4,1.9-0.7,5-2.9,5c0-0.9-0.2-0.9,0-1.9c0.2-0.7,0.3-1.5,0.5-2.2
		C155.6,124,155.1,117.9,157.6,118.4C158.8,119.4,156.6,118.2,157.6,118.4z"/>
	<path class="st7" d="M117,118.9c2.2,0-2.3,8.5-2.6,9.1c-1.7,3.4-3.9,7.6-4.8,11.4c-0.5,2.3-2.5,4.6-3.1,6.8
		c-0.5,1.6-3.7,11.1-5.6,10.3c-2-0.8,5-13.7,5.4-14.6c1.6-3.8,3.1-8.2,4.8-12.2C111.9,127.8,115.5,118.9,117,118.9
		C118.3,118.9,117,118.9,117,118.9z"/>
	<path class="st7" d="M105.3,121.6c0.9,1.3-3,5.3-3.7,6.6c-1.5,2.7-3.4,5.5-4.5,8.3c-0.9,2.3-2,4.2-2.9,6.4
		c-0.6,1.4-1.5,2.7-2.1,4.1c-0.1,0.2-1,4.2-1.9,3.1c-0.9-1.1,2.4-7.4,3-8.6c2-4.2,4.1-8.3,6.1-12.5
		C100.3,126.8,102.8,121.6,105.3,121.6C106.2,122.8,105.1,121.6,105.3,121.6z"/>
	<path class="st7" d="M138.9,123c0,0.7-5.6,2.9-6.5,3.6c-1.2,0.9-1.9,1.3-2.9,2.6c-0.2,0.3-1.4,2.2-1.7,2.2
		C127,128.3,136.5,119.6,138.9,123C139,124.3,138.2,122,138.9,123z"/>
	<path class="st7" d="M108.2,124c1.3-0.2-0.9,6.4-1.2,7.4c-1,3.2-2.7,6.3-4.1,9.4c-0.9,2.1-5,13.8-8.6,12c1-2.6,3.2-5.1,4.5-7.4
		c0.7-1.2,1.2-2.3,1.7-3.5c0.2-0.6,0.6-1.1,1.2-1.3c0-1.2,0.4-2.3,1-3.4c0.7-1.2,1.8-3,2.4-4.6c0.6-1.4,0.7-2.9,1.2-4.3
		c0.3-0.8,0.7-1.7,1-2.5C107.3,125.5,108.1,124.2,108.2,124C108.6,123.9,108.1,124.3,108.2,124z"/>
	<path class="st7" d="M152.1,142.4c0.2-0.1-3.6-6.4-4.3-7c-2-1.9-7.3,1.4-4.8,3.2c0.3,0.2,0.4,1.3,0.7,1.7c1,1.6,1.4,1.8,2.9,2.9
		c1.9,1.3,0.5,2.7-1.4,1.5c-1.2-0.7-1.5-1-2.2-1.8c-1.5-1.6-1.7-3.8-2.7-5.6c-1.3-2.3,5.6-4.7,7-4.5
		C149.6,133.2,154.6,140.2,152.1,142.4C151.3,142.7,153.3,141.3,152.1,142.4z"/>
	<path class="st7" d="M167,139.8c1.3,1,0.8,2-0.8,2.3C163.3,142.7,166.8,139.9,167,139.8C167.4,140.1,166.6,140.3,167,139.8z"/>
	<path class="st7" d="M77.7,153.2c-0.2,0.5-7.3-5.3-8.2-6.1c-0.1-0.1-2.3-3.1-1.4-2.7c1.6,0.8,2.4,2.2,3.5,3.5
		C73.5,150,76,151.2,77.7,153.2C77.4,154.1,77.2,152.6,77.7,153.2z"/>
	<path class="st7" d="M81,161.9c0.4,0.5,0.4,5.9,0.1,6c0,0,0.1,3.4,0.3,3.9c0.8,3.1,0.1,6.5-0.1,9.5c-0.4,6.2,0.6,12.4,0.1,18.5
		c-0.2,1.9,0.3,3.3,0.4,5c0.1,1.8,0.5,6.1-0.2,7.7c-3-1.5-2.1-9.2-2.2-11.8c-0.1-3.7,0.1-7.5,0-11.3c-0.1-4.4-0.5-9.6,0.1-13.9
		C79.9,172.9,77,161.9,81,161.9C82,163.1,80.6,161.9,81,161.9z"/>
	<path class="st7" d="M79.8,215.4c-3.1,0.7-6.4-5.2-8.1-6.5c-3.2-2.5-5.7-5.9-8.2-8.6c-1.4-1.5-4.7-2.9-5.4-5
		c-0.8-2.4,2.2-0.6,2.8,0.1c1.5,1.6,3.3,2.8,4.9,4.3c2.6,2.7,5.2,5.2,7.8,8C75.4,209.7,79.8,212.4,79.8,215.4
		C78.8,215.6,79.8,213.9,79.8,215.4z"/>
	<path class="st7" d="M249.8,204.4c0.6,2.4-7.9,2.6-9.6,2.6c-2.1,0.1-4.5,0.6-6.9,0.5c0.2,0-6.4-0.8-5.1-1.5c2.5-1.3,5.5-0.2,8-0.6
		c2.2-0.4,4.5-0.6,6.7-0.7C245.2,204.6,247.5,203.2,249.8,204.4C250.3,206.4,248.8,203.9,249.8,204.4z"/>
	<path class="st7" d="M222.4,206.8c-0.1,1.1-2.1,1.1-2.9,0.7C218.4,205.9,222.2,205,222.4,206.8z"/>
	<path class="st7" d="M171.5,157.8c-2.2-2.6,6.9-2.2,7.7-2.2c4,0,8.1,0,12.1-0.2c5.6-0.3,11.1-1.2,16.8-1.4
		c5.6-0.2,10.9-0.1,16.4-0.6c2.5-0.2,5,0,7.5-0.1c2.7-0.2,5.8-0.8,8.4,0.7c-0.5,1.4-7.7,0.7-9.2,1.2c-1.4,0.4-4.7-0.4-5.8,0.4
		c-1,0.7-5,0.3-6.4,0.4c-1.3,0.1-6.5,0.1-6.4-0.5c-1-0.2-7,1.6-7.4,0.6c0.2,0.1,0.2,0.2-0.1,0.4c-0.9-0.5-3-0.3-4.4-0.4
		c-3.1-0.2-6,0.3-9,0.7c-1.1,0.1-14.4,0.7-14.4,1c-0.2-0.1-0.2-0.3,0-0.5c-0.7,0.1-2.3,1.2-2.6,0
		C174.1,157.5,172.6,158.1,171.5,157.8C171.1,157.3,172.6,158.1,171.5,157.8z"/>
	<path class="st7" d="M190.5,69.5c-0.2,1.7-12.3,1.4-14,1.6c-2.7,0.2-5.5,0.5-8.2,0.2c-2.1-0.2-2.1,6.1-2.5,7.9
		c-1,5.4-2.3,10.8-3.2,16.2c-0.3,2-0.5,4.5-1.5,6c-0.8,1.2-1.3,0.6-1.3-1c-0.2-5.2,2.7-10.8,3-15.8c0.2-3,1.3-5.8,1.8-8.7
		c0.3-2,0.2-6.8,2.8-6.9c2.9-0.1,5.9,0.2,8.8,0.1c1.1,0,3-0.7,4-0.3C181.7,69.3,190.5,66.2,190.5,69.5
		C190.4,70.5,190.5,68.9,190.5,69.5z"/>
	<path class="st7" d="M191.3,73.4c0.3,0.5-0.2,2.2-0.2,2.5c-0.4,1.3-0.4,2.5-0.7,3.8c-0.6,3.1-1.3,6.1-2.1,9.1
		c-1.1,4.3-1.2,9.1-2.7,13.2c2.4,0.7,5.1,0.6,5.4-2.1c0.3-1.8,0.7-3.7,1.1-5.7c0.6-2.8,1.3-5.6,2.4-8.2c0.7-1.5,3.3-5.3,2.9-1.2
		c-0.3,2.7-1.9,5.7-2.5,8.5c-0.4,1.9-0.9,3.8-1.3,5.8c-0.3,1.6,0.8,4.1-0.8,4.7c-1.4,0.5-13.7,0.6-13.6,0c-0.7,1.6-7.3,1.2-8.4,1
		c-1.6-0.4-4,0.4-6,0c0-1.1,2.9-1.9,3.7-2c1.6-0.2,4,0.5,5.4-0.4c-0.7-2.5-2.5-2.9-4.8-1.9c-0.4,0.2-3.3,2.5-3.1,0.5
		c0.1-0.9,0.7-2,1.4-2.3c2-0.9,3.5-1.7,5.8-1.1c1.1,0.3,2.1,1.8,2.6,2.8c1.1,2.2,0.5,2,3.3,1.8c1.5-0.1,3.1-0.2,4.6,0
		c0.5-0.6,1-2.8,1.2-3.6c0.8-3.1,1.2-6.3,1.9-9.5c0.6-2.9,1.5-5.9,1.9-8.9c0.2-1.1,0.1-2,0.5-3.1c0.2-0.6,1.2-3.7,1.6-3.8
		C191.1,73.2,191.3,73.3,191.3,73.4z"/>
	<path class="st7" d="M119.2,79.3c1.5,2-6,16.6-3.7,17.4c1.1,0.4,5.9,2.5,6.2,2.1c1.5-2.6,2.2-6,3.1-8.8c0.6-2,2.8-5.1,2.5-6.9
		c-0.6-4.2,4.1,0.9,4.9,1.5c5.4,4.7,5.8,12.8,3.4,19c3.1,0.6,6.9,0.2,9.9-0.4c2.9-0.5,6,0.2,9,0.1c1,0,2.7-0.3,3.7,0
		c1.4,0.5-0.2,1.7-0.9,1.8c-2.9,0.4-7.1,0.8-10,0.3c-1.9-0.3-3.5,0.2-6,0.2c-1.9,0-3.7-0.3-5.5,0c-0.8-0.5-1.4-0.4-1.6,0.4
		c-0.4,1.1-0.8,0.4-1.3,0c-1.5-1.2-19.3,1.4-19.2-0.3c-0.4,0.8-1.6,0.3-2.2,0.2c-1.2-0.2-0.9-0.2-1.9,0c-1.8,0.3-3.9,0-5.8,0.1
		c-1,0.1-4.8,0.5-5.3-0.4c-1.9,1.3-6.6,0.7-8.8,0.7c-1.5,0-3.3-0.1-4.6,0c-2,0.1-4.8,1.2-6.7,0.7c-0.5-0.1-5.2-0.6-2.4-2.2
		c2.4-1.4,6.2-0.4,8.8-0.5c3.6-0.2,7.1-0.3,10.7-0.5c2.2-0.1,3.3,0.2,2.5-2.4c-0.5-1.5-1-2.3-0.7-4.1c0.1-1.1,0.1-3.5,1.9-3.1
		c2.3,0.5,4.4,1.5,4.6-1.9c0.2-3.1,2.4-7.3,4.8-9.6c0.8-0.8,2.1-1.3,3.1-1.9C113.5,80,117.2,79,119.2,79.3
		C119.6,79.8,118.3,79.2,119.2,79.3z M115.8,82c-3.8,1-4.8,2.2-7.4,5.1c-1.2,1.3-1.8,3.3-2.4,5.1c-0.1,0.4-1.3,3.3-1.2,3.5
		c1.5-0.1,2.4,1.3,1,2.2c-2.1-0.2-4.1-1.1-6.2-1c0.2,2.5,1,4.8,1.4,7.2c1.9-1.4,3.9,1.4,3.5-2.1c-0.3-2.5,0.6-3.7,3.2-2.9
		c3.4,1.1,8-0.1,7.3,5c3.6-0.1,7.2-0.2,10.7-0.3c2,0,3.9,0,5.9,0c2.2,0,2.3-2,2.7-4c1.1-4.6-0.5-13.2-5.6-15.1c-1,3.1-2.8,6.6-3,9.9
		c-0.1,1.7-1.1,3-1.5,4.6c-0.4,1.4-2.8,3.1-2.9,0.7c-0.9,0-0.5,1.1-1.7,0.7c-0.5-0.1-2.5-1.4-2.9-1c-0.8,1-3.6-1.9-3.5-3.2
		c0.2-2.9,1.4-5.7,1.6-8.6C115.2,86.7,117.6,82.4,115.8,82C114.9,82.2,116,82,115.8,82z M106.2,103.8c1.5,0,1.9,0.6,1.9-1.2
		c0-1.7-0.4-1.4-1.9-1.7C106.2,101.9,106.2,102.8,106.2,103.8C106.9,103.8,106.1,102.4,106.2,103.8z M110.1,103.8
		c0.7-0.1,5.1,0.2,2.8-1.5C111.1,101,109.9,101.7,110.1,103.8C111.2,103.7,110,102.9,110.1,103.8z"/>
	<path class="st7" d="M254.1,152c-0.5-0.7-1-1.2-1-2.2c-1.3,2.5-1.8,3-4,1.3c-1.3-0.9-1.5,0.8-1.8,1.8c-0.6,1.7-1.5,1.6-3.2,1.2
		c-0.5-0.1-5.8-2.7-2.9-3c3.1-0.3,3.4,2,5.1-1.6c1.5-3.2,3.7,1.1,4.9-0.7c1.2-1.8,1.1-3.3,0.7-5.3c-0.9-4.8-1.7-9.5-2.9-14.2
		c-1-4-2.1-8.7-6.3-10.6c-1.2-0.5-3.7,0.3-4.8,0.7c-2.6,1-5.4,2-8.1,2.7c-3.1,0.9-6,2.3-8.4,3.1c-2.2,0.7-4.4,1.4-6.6,2.1
		c-1.9,0.7-5.2,2.4-7.2,2.4c-2.1,2.3-7.5,2.8-10.2,3.7c-4.9,1.7-10.1,3.3-15.2,4.2c-2.2,0.4-4.2,1.3-6.3,1.9c-3.1,0.9-2-1.5,0.2-2.1
		c1.3-0.4,1-5.6,1.3-7.1c0.6-3.2,1.3-6.3,1.9-9.5c0.3-1.4,0.6-2.8,1.2-4c-0.8-0.8-2.2-0.3-3.1-0.2c-3.2,0.1-3.2-0.4-3.5,2.8
		c-0.3,2.8-0.8,5.5-1.2,8.3c-0.3,2-1.3,3.6-1.6,5.1c-0.9,4-7.3,5-9.6,1.8c-2.9-4-1.3-8.3-0.6-12.7c0.2-1.3,1.8-4.9-0.1-5
		c-2.2-0.1-4.5,0.6-6.6,0.8c-1.6,0.1-3.4-0.2-5-0.1c-1.9,0.1-4.9,0.2-6.7-0.2c-0.2-2.9,15.8-2.3,17.5-2.4c6.7-0.6,13.4-0.1,20.1-0.5
		c0.9-0.1,9.5-0.7,7.2,1.4c-2.1,1.9-3.8-0.5-4.7,2.6c-0.2,0.7-0.6,1.7-0.7,2.4c0,0.7,0,1.4,0,2.2c-0.2,1.4-1.1,2.3-1,3.7
		c0.2,3.4-1.8,6.5-2.1,9.7c2.7,2,4.7-4.9,5.7-6.1c0.6-0.7,1.3-1.8,1.7-2.6c0.8-1.5-0.7-1.9-1.7-3c-1.4-1.4,1-4,2-5.4
		c0.4-0.6,2.3-2.2,2.4-2.9c1.6,0,2.9,0.6,3-1.4c0-1.5-1.2-2.8-0.6-4.2c0.5-1.3,0.7-3,1.5-4.2c1.1-1.8,2.5-3.5,3.6-5s2-3.8,3.5-5.1
		c1.6-1.4,3.4-4.1,4.4-6c1.4-2.5,2.9-4.8,4.4-7.1c2.2-3.4,5.6-9.8,10.1-10.6c6.5-1.2,11.9,3.8,12.5,9.9c0.7,7.4-5.4,11.3-8.4,17.2
		c1.6-0.1,4.3-0.9,5.6-0.3c0.7,0.4,2.5-0.4,3.4-0.4c2,0.1,4,0.2,5.9-0.5c2.8,1.3,5.9,6.9,4.6,10.1c-1.4-0.2-3.3-4.8-3.9-5.9
		c-0.9-1.6-0.9-2-2.7-1.7c-1.9,0.2-3.8,0.1-5.6,0.4c-1.8,0.4-4,0.4-6,0.6c-2.1,0.2-2.5-1-3.8,0.9c-1.3,1.7-2.6,3.4-3.9,5.1
		c-2.9,3.8-5.4,10.1-10,12.2c-1.8,0.8-3.9,1.4-1.7,3.3c2.1,1.8-2.8,5.3-3.7,6.4c1.5,0.2,6.1-1.5,7-2.6c1.9,0.3,4.2-1.3,5.8-1.9
		c2-0.7,5.4-0.8,6.1-2.9c1.1-3.4,3.4-6.4,4.5-9.8c-3.1-0.5-6.4,0.8-9.6,0.2c0.4-2.8,9.1-3,11.1-2.5c3.4,0.7-2.8,10.6-3.5,12.1
		c4.6-0.9,9.5-2.8,13.8-4.6c1.7-0.7,5.3-0.5,4.7-2.8c-1-4.2,1.6-3.9,4.9-4.6c3.7-0.7,7-2.4,10.4-3.4c4.2-1.3,9.7-2.9,13.5-5.5
		c3.8-1.5,6.7-4.5,10.8-5.3c4.9-1,6.2,3,2.6,6.2c-0.6,1-1.6,1.7-1.9,2.9c0.3,1.5,0.7,3.1,1.1,4.6c0.8,2.8,1.7,5.6,2.5,8.4
		c1.5,5.3,3.2,10.5,3.6,16.1c0.1,1.9-0.5,4.8,1.2,6.1c0.8,0.6-0.5,1.5-1,1.9c-1.3,1.3-2.5-4-2.5-4.5c-0.2-2.7,0-5.3-0.4-8
		c-0.6-3.8-1.7-7.7-2.8-11.4c-1.2-3.9-4.5-9.3-3.8-13.4c0.3-2.2,2.6-4,4.1-5.5c-0.2-2.8-2.6-1.7-4.2-0.7c-2,1.3-4.7,2.7-7.3,3.9
		c-7.8,3.5-15.5,6.5-23.5,9c-1.6,0.5-3.3,0.9-5,1c0.4,1.6,0.2,2.8,1.4,3.6c1.6,1.1,3.7,2.4,4.6,4.1c0.6,1.3,0.4,4.4,1.2,5.3
		c1.4,1.5,1.9,6,2.1,8c0.3,2.9,1.3,5.3,2,8.1c0.5,1.8,0.6,3.6,1,5.4c0.2,0.9,0.4,1.7,0.7,2.5c0.6-0.1,1.2,0,1.7,0.2
		c0.2-0.2,5.8,0,5.8-0.1c0.1,0.1,4.5-0.3,5.1-0.4c3.5-0.4,6.9,1.7,10.9,0.4c1.1-0.3,12.7-2.7,11.5-5.5c-1-2.3,2.3-1.6,2.2,0.5
		c-0.1,1.9-1.4,2.6-3.1,3.4c-0.5,0.2-1.3,0.7-1.9,1c-0.9,0.5-5.4,1.4-5.6,1.7c0,0.2,0.1,0.3,0.4,0.2c-4.3,2.1-10,1.2-14.4,0.7
		c-0.9-0.1-5.9,0.3-6,0.1C262.4,152.7,254.4,152,254.1,152C253.7,151.4,255.6,151.8,254.1,152z M203.9,118.9
		C205.1,118.5,202.7,119.4,203.9,118.9c4.5-1.6,5.6-6.7,8.9-10.2c2.3-2.5,4.2-5.9,6.2-8.7c1.1-1.6,2.1-2.4,3.4-4.1c3-4,5.9-7.7,6-13
		c0.1-4.7-5.9-10-10.6-7.1c-4.4,2.7-7.4,9.3-10.3,13.9c-3.3,5.3-8.1,9.7-10.8,15.4c-1.2,2.7-3.5,4.6-2.7,7.9
		c0.5,2.2-0.1,4.4-2.4,5.8c-0.7,0.1-1.4,0.2-2.2,0.2c-0.8,1-1.5,2-2,3.2c-0.9,2.2,1.7,3.6,3.4,4.6s3.5,1.9,5.4,2.7
		c2,0.8,3.1-0.1,4.3-1.7c1.7-2.3,1.1-3.2,0.4-5.6C200.5,120.1,202.2,119.6,203.9,118.9z M167.2,117c-0.5,3-0.8,6.1-1,9.1
		c-0.1,1.5-0.4,2.9-0.3,4.4c0.2,2.8,1.3,0.3,2.7,1.6c0,0.7-0.9,0.7-1,1.4c1.6,0.1,2.5-3.9,3-5c0.7-1.5,0.5-3.7,0.9-5.4
		c0.3-1.3,0.7-2.6,0.7-3.9c0-1.5,0.4-1.2,0.8-2.5C171.2,116.4,169.2,116.8,167.2,117C166.7,119.8,170,116.8,167.2,117z M164.6,117
		c-1.4,2.4-1.2,5.6-1.7,8.3c-0.5,3.1-1.7,6.8,1.9,8.5c-0.7-1.7-1.2-2.9-1-4.8c0.1-0.6,0.9-3.1,0.4-3.6c-0.9-0.9,0.9-7.3,1.8-8.4
		C165.5,117,165,117,164.6,117C163.4,118.9,165,117,164.6,117z M187.6,130c-0.7,1.8-2.1,3.1-2.9,4.7c0-0.1,4.1-0.9,4.9-1
		c2.6-0.4,2-1.2,3.6-3C191.2,130,188.7,127.3,187.6,130C187.3,130.7,187.8,129.4,187.6,130z"/>
	<path class="st7" d="M58.7,133.3c-2.9-1.1,4.6-10.5,5.5-12.5c0.5-1.1,1-1.9,1.7-3.1c0.5-0.9,3.9-5.6,3.4-6.5c1-0.6,2.1-2.9,2.7-4
		c1.3-2.3,2.1,0.7,0.8,2.2c-0.9,1-0.7,2.2-1.6,3.1c-0.1,0.1-1.1,1.6-1,1.3c-1.9,3.9-4.5,7.5-6.9,11.4c-0.4,0.6-2,3.2-2,4
		C59.7,130.4,60.2,132.2,58.7,133.3C57.7,132.9,59.2,133,58.7,133.3z"/>
	<path class="st7" d="M121.1,117c-1.2,2.9-12.7,1.8-15.1,1.7c-1.3-0.1-2.7,0.2-4.1,0.1c-1.9-0.2-1,1.2-1.9,2.8
		c-1.3,2.5-2.6,5.2-3.6,7.6c-1.8,4.1-3.7,8-6.2,11.8c-1.2,1.8-2.3,3.1-3.1,5c-1,2.5,1,5.6,0,8.4c-2.8-0.3-2.5-9-2.7-11.1
		c-0.5-6.8-1.1-13.8-2.4-20.5c-0.2-1-0.4-2.2-0.5-3.2c0-1.5,1.4-2.4,1.8-0.5c0.5,2.1,2,6.1,1.2,8.1c-0.3,0.7,0.5,6.2,0.8,6.4
		c0.9,0.5,0.5,7.6,0.8,8.8c0.8,0.3,4.3-6.2,4.8-7.2c2.8-5.2,5.6-10.8,7.9-16.3c-0.4-0.3-4.9,0.3-4.8-0.5c-1,0.7-8.7,1.5-7.2-0.8
		c1.4-2.2,10.2-0.9,12.4-1.1c2.8-0.1,5.5,0.2,8.2,0.2c0.8,0,4.3,0,4.9-0.4C113.4,115.7,121,115.5,121.1,117
		C120.6,118.3,121,115.7,121.1,117z"/>
	<path class="st7" d="M268,111c-0.5,2.4,2.2,5.6,2.9,7.9c0.7,2.3,0.5,5.6,1.8,7.7c1.2,1.8,5.7,16.6,1.3,16.8
		c-1.2-3.3-0.9-7.4-1.9-10.8c-0.9-3.1-1.8-6.2-2.4-9.4c-0.2-1.3-1-2.3-1.1-3.4c-0.1-1.3-0.9-2.8-1.4-4c-1-2.4-1.6-3.3-4.2-2.6
		c-2.2,0.5-5.7,1.8-5.5,4.6c0.2,3.5,0.8,7.1,1.8,10.4c1.5,5,3.2,10.7,6.1,15.3c1.9-0.1,2.7,0.6,4.4-0.4c4.1-2.4,1.5,2-1.3,2.8
		c-1.4,0.4-3,0.1-4.3-0.5c-1.4-0.6-0.8-1.3-1.8-2.1c-1.4-1.1-1.3-6.8-2.5-7.2c-0.9-0.3-1.9-5.2-2.2-6.1c-1.3-4.2-2.3-8.6-2.4-13
		C255.2,112.2,264.1,110,268,111C267.7,112.2,266.7,110.7,268,111z"/>
	<path class="st7" d="M138.6,111.7c0.1,0.1,0.1,0.3,0.1,0.4c0,0.2,0.1,0.4,0.2,0.6c0.1,0.4,0.3,0.9,0.5,1.3c0.4,0.8,0.9,1.6,1.3,2.4
		c0.2,0.4,0.5,0.8,0.7,1.2c0.4,0.7,0.9,1.4,1.4,2.1c1.2,1.4,0.6,1.3,0,3c-0.9,2.4-0.6,2.7,1.6,2.7c2.8,0,4.9-1.6,6.6,1.1
		c3.2,5.1,6.5,9.7,9.5,15.4c3.3,6.2,6.6,13.6,6.2,20.7c-0.1,1-0.1,1.9,0,2.9c-1,0.5-1.9,1.2-2.7,1.9c-1.5,1.3-4.2,3-4.2-0.1
		c0-3.4-0.9-7-2.7-10c-0.5,2.7,0.7,5.9,0.7,8.6c0,1.8,0,3.5-0.2,5.3c-1.5,0.6-2.8,1.9-4.1,2.9c-1.2,0.9-3.9,4-4.7,1.7
		c-0.5-1.4,0.3-2.3,0.4-3.7c0.1-1.5-0.2-3-0.3-4.5c-0.4-3.4-0.9-6.9-1.9-10.2c-0.8-2.7-3.2-3.4-4.6-5.2c-0.6-0.7-1.8-0.9-2.7-0.9
		c-2.1,0-2.5-0.6-3.7-2.6c-1.8-3.1-3.5-6.3-5-9.5c-0.9,1-4.8,3.6-4,5.3c1,2.1,2.4,3.8,3.8,5.5c1.3,1.6,3,2.6,4.2,4.1
		c1.5,0.4,3-1.5,4.6-1c-0.3,1.3-2.3,1.8-2.4,2.6c-0.1,1,2.4,1.7-0.4,1.7c-3.7,0-7.4,0-11.1,0.5c-1.1,0.1-2.8,0.9-3.7,0
		c-1.5-1.6,2.7-1.8,3.3-1.9c2.3-0.4,4.5-0.7,6.9-0.7c0.5-0.8-1.8-2.1-2.1-2.6c-0.8-1.2-1.9-2.2-2.6-3.4c-1.1-1.7-1.5-3.7-3.5-2.7
		c-1.5,0.8-2.8,2.1-4.2,2.9c-0.6,0.4-1.9,1.3-2.4,1.9c-2.1,2.6-5.7,3.9-7.9,5c-0.8-1.9,8.1-8,9.5-8.4c1.6-0.5,3.2-2.3,4.4-3.1
		c1.4-0.9,2-2.5,3.2-3.7c1.4-1.5,3-2.8,4.3-4.4c-0.9-0.2-1.5,0.5-2.3,0.4c-1.6-0.2,0.2-2,0.7-2.2c0.9-0.3,1.9-0.4,2.8-0.1
		c2,0.6,1,2.1,1.4,3.8c0.7,2.7,2.9,5.4,4.3,7.8c0.8,1.5,0.9,2.5,2.6,2.4c0.2,0,1.4,0.1,1.6,0.3c2,1.5,4,2.7,5.7,4.6
		c1.4,1.6,1.1,3.5,2.1,5.2c1,1.6,0.9,5,1.3,6.8c0.5,2.3,0.5,5-0.1,7.3c0.2,0.2,1.8-0.8,2.2-1c1.8-1,3-2.2,2.9-4.2
		c-0.2-2.9,0-5.6-0.7-8.5c-0.4-1.6-2.1-5.9,0-6.3c3-0.6,5.2,4.8,5.7,7c0.2,0.7,1.7,5.6,0.7,6.3c7.6,0.1-2.3-22.3-4.5-25.7
		c-2.4-3.7-5.2-7.7-7.3-11.5c-0.9-1.6-0.5-2.2-2.4-1.9c-1.7,0.2-3.4-0.1-5.1,0c-1.7,0.1-2.5,1-3.9,1.9c-0.7,0.4-2,1.8-2.8,1.8
		c0.4-2.2,0.3-2.1,1.7-3.4c0.8-0.7,0.9-1.1,2-1.7c1.9-1.1,0.9-2.6,1.8-4.5c-0.9-1.5-3.6-8.1-5-8.3c-2.1-0.3-4.7,0.4-6.5,1.3
		c-4,2.1-8.2,5.9-10,10c-0.7,1.6-1.9,2.3-0.9,3.9c0.7,1.1,1.1,1.9,1.8,2.9c1.7,2.3,3.4,3.6,6,5c-3.6,4.8-8.6-5.8-10.6-7.7
		c0.8-1.7,0.9-3.4,1.9-4.8c1.2-1.7,2.5-3.5,3.8-5c1.4-1.6,2.8-3.1,5-4.3s4.2-2.3,6.6-3.1c0.4-0.1,0.8-0.2,1.2-0.2
		c0.6-0.1,1.2-0.1,1.8-0.1c0.5,0,1,0,1.5,0.1C138.2,111.5,138.5,111.6,138.6,111.7L138.6,111.7z"/>
	<path class="st7" d="M115.1,159c-4.8-0.8-9.3,0.8-14.3,0.9c-3.3,0.1-6.6,0-10-0.1c-1.8-0.1-3.7,0.4-5.5,0.2
		c-1.9-0.1-3.8-0.9-5.8-0.5c-0.4-2.7,3.1-2.1,4.7-1.9c3.3,0.3,7.5-0.7,10.8,0.2c1.4,0.4,3-0.2,4.4-0.2c2.3,0.1,4.6,0.2,6.8,0.1
		C108.5,157.6,114.3,156,115.1,159C113.7,158.8,114.4,156.6,115.1,159z"/>
	<path class="st7" d="M57.3,136.4c1.1,1.7,0.6,5.4,0.7,7.4c0,2.3,0,4.7,0.1,7c0,5.2-0.1,10.5-0.2,15.7c-0.1,4.3-0.1,8.6,0,12.8
		c0.1,4.6,1.3,9.4-0.1,13.9c-3,0.1-1.7-26-1.7-27.8c0-5.6-0.1-11.1-0.2-16.7C55.9,146.3,54.2,136.4,57.3,136.4
		C57.8,137.2,57,136.4,57.3,136.4z"/>
	<path class="st7" d="M252.6,202.7c-2.9-0.8-2-8.9-2.1-11c-0.1-4.3,0.4-9.5-0.5-13.8c-0.4-2.1,0-5.1-0.4-6.8
		c-0.7-3.7-0.1-9.9,0.5-13.9c0.3-1.9,2.6-1.7,2-0.1c-0.6,1.9,0,4.5-0.2,6.5c-0.3,3.9-0.1,7.4,0,11.1c0.1,5.2,0.4,10.3,0.5,15.5
		C252.7,194.2,253.7,198.7,252.6,202.7C251,202.2,253.5,199.4,252.6,202.7z"/>
	<path class="st7" d="M214,208c-0.3,1.3-8.2,1.1-9.5,1.4c-2.1,0.4-4.2-0.1-6.1,0.2c-6.6,0.8-13.4,0.9-19.9,1.1
		c-2.2,0.1-4.7,0.7-6.7,0.7c-3.6,0-7.2,0.2-10.8,0.5c-3.9,0.3-7.9,0.7-11.8,1c-1.4,0.1-11.3,1.7-11,0.5c-1.6,1.5-4.2,0.2-6.1,0.7
		c-2.1,0.6-4.3,0.6-6.4,1.3c-2.9,0.9-7,0.4-10,0.6c-4,0.3-8.1,0.2-12,0.3c-2,0.1-3.9,0.3-5.8,0.2c-3.7-0.1-8,0.4-12,0.2
		c0,0-4.3-0.3-1.6-1.8c1.8-1,4.8-0.3,6.8-0.4c2.5-0.1,22.1-1.2,22.2-0.2c1.4-1.7,8.5-0.6,10.6-0.7c5.3-0.4,10.3-1.3,15.6-1.4
		c8.9-0.3,17.3-1.5,26.2-2.2c9-0.7,18.2-1.6,27.3-2c2.2-0.1,4.5,0,6.7-0.3c1.3-0.2,4.4-0.6,5.5-0.2C208,208.3,210.8,205.9,214,208
		C213.8,208.9,212.9,207.3,214,208z"/>
</g>
</svg>
