<?xml version="1.0" encoding="utf-8"?>
<!-- Generator: Adobe Illustrator 21.1.0, SVG Export Plug-In . SVG Version: 6.00 Build 0)  -->
<svg version="1.1" id="Layer_1" xmlns="http://www.w3.org/2000/svg" xmlns:xlink="http://www.w3.org/1999/xlink" x="0px" y="0px"
	 viewBox="0 0 360 236" style="enable-background:new 0 0 360 236;" xml:space="preserve">
<style type="text/css">
	.st0{fill:#E7ECEF;}
	.st1{fill:#FFFFFF;}
	.st2{fill:#DDCDC0;}
	.st3{fill:#CECECD;}
	.st4{fill:#EA9B95;}
	.st5{fill:#A3D2EC;}
	.st6{fill:#A6D2A8;}
	.st7{fill:#F4F4C2;}
	.st8{fill:#E0E0E0;}
	.st9{fill:#747E91;}
</style>
<g>
	<path class="st0" d="M335.8,130.4c-8.7-4-23,6.5-26.8-5c-1.2-3.6,2.1-7.1,0.8-11c-1.8-5.6-8-5.2-12.9-6c-4.4-0.7-5.4,0.4-8.6-2
		c-5.4-4.2-5.1-12-5.6-17.8c-0.9-10.7-6.4-23.2-21.1-18.2c-6.2,2.1-7.4,11.4-14.9,10c-5.7-1-7.6-11.4-6.1-17.1
		c1.3-4.8,6.5-8.1,4.2-15c-1.7-5-13-13.3-19.1-10.1c-1,0.5-1.7,1.2-2.3,2c-1.2-0.4-2.5-0.7-3.8-0.7c-5-0.2-10,1.1-15.1,2.6
		c-1.2-0.5-2.7-0.8-4.8-0.8l-3.9,3.1c-3.7,0.8-7.4,1.4-11.1,1.1c-10.1-0.8-10.2-10.2-16.8-16.1c-5.6-5-17.3-11.6-25.2-10
		c-8.3,1.8-14.8,15.9-23.8,12.7c-5.4-9.7-18-18.3-30.1-17.6c-6.3,0.4-7.7,1.4-12.2,5.4c-7.7,6.9-9.9,8.5-11.9,17.6
		c-1.1,5-0.7,8.2-6,11.3c-6.5,3.9-16.7,1.4-21,8.4c-3.8,6.2,1,8.9,1.6,14.6c0.8,6.3-0.2,5.3-4.7,9.5c-7.8,7.3-12.2,17,0.5,22.2
		c5.3,2.2,15.2,9.5,16.9,15.3c1.9,6.8-5,9-9.8,10.8c-4.5,1.7-11.8,2.5-13.7,7.9c-2.3,6.7,1.9,15.4,4.6,21.3
		c3.5,7.7,7.3,13.9,17.4,10.9c14.9-4.5,27.3-15.5,43.9-14.2c7.3,0.6,18.1,1.4,24.4,5.7c3.4,2.3,4.1,5.7,5.3,9.5
		c2.7,8.5,5,18.2,15.2,20.6c14.5,3.3,30-0.7,44.7,3c8.6,2.2,10.4,7.8,17.3,11.5c8.9,4.8,21.9,3.3,29.8,1.2c11.2-3,24.7-7.6,33-16.1
		c8.4-8.6,12.1-21.1,27.1-21.4c4.6-0.1,11.2,5,16.5,2.6c6.8-3,8.4-16.8,15.2-20.6c1.9-1.1,3.7-1.1,5.8-2.2
		c3.7-1.9,10.6-1.8,12.5-7.2C343.3,137.1,340.7,132.7,335.8,130.4z"/>
	<path class="st1" d="M116.1,45c-6.9,0.4-13.9,1.5-20.6,3.2c-7.8,1.9-17.3,4.3-23.4,9.5c-6.5,5.5-3.8,20.3-4.7,28.7
		c-2.5,23.2-1.6,47.2,0.5,70.5c0.7,7.6-2.1,15.7,4.1,20.9c4.2,3.5,9.7,5.1,15.1,7.1c8.3,3.1,16.5,7.3,25.2,8.1
		c14.5,1.2,26.9-2.2,39.6-7.9c0.6,7.2,2.3,9.7,6.2,15.6c2.8,4.2,6.3,8.2,9.4,12c4.7,5.7,11.6,8.2,17.6,12.5
		c6.5,4.7,7.3,5.1,14.1,1.2c12-6.9,26.6-10.6,39.5-16.9c12.7-6.2,25.7-10.4,37.1-18.1c5.7-3.8,16.4-10.6,18.1-17
		c0.7-2.5,1.1-8.1,1.4-9.9c0.3-2.3,0.6-7.2,0-9.4c-2.3-8.2-13.8-12.7-19.6-17.8c-6.7-5.8-13.5-11.3-21-15.9c-9-5.5-11.6-5.3-21.5-1
		c-13.4,5.8-27.2,14.3-38.7,23.4c-4.4,3.5-10.8,11.6-17.2,9.9c-0.7-5.2,6.4-10.5,9.8-13.5c5.6-5,11.2-9.4,15.2-15.9
		c7.2-11.8,8.7-26.1,3.9-38.6c-2.3-6-6.5-14.2-11.6-19.1c-5.3-5.2-11.7-3.8-17.4-6.5c-2.9-1.3-3.1-3.6-5.5-6
		c-2.8-2.7-8.2-3.3-10.5-5.9c-6.6-7.5,18.2-38.3,0.7-44.9c-8.7-3.3-14.4,9.5-17,15.6c-2.9,6.8-3.3,14.8-7.5,21
		C132.3,47.6,124.3,44.5,116.1,45z"/>
	<path class="st2" d="M124.6,86.2c1.4-2.8,4.5-7.5,2.8-10.5c-3.3,0.9-34.3,8.1-32.8,9.9c2,2.5,10.6,1.8,14,2
		C114.4,87.9,119.2,87.5,124.6,86.2z"/>
	<path class="st2" d="M138.6,79.6c-5,8.7,9.6,5.1,13.3,2.8C150.1,77.5,141.8,74,138.6,79.6z"/>
	<path class="st3" d="M153,42.5c4.6-7,9.9-16.3,10.8-24.7c0.9-8-5.1-7.9-9.5-2.2c-4.2,5.4-5.5,8.3-7,14.8
		c-1.4,5.8-5.6,10.8-7.9,16.6c-2.3,5.9-3.4,11.2-5.6,17.4c-1.5,4.1-7.3,12.5-4.5,17.3c2.9,5.1,6.1-6.1,7.3-8.7
		c2.5-5,4.6-10.5,6.8-16C145.8,51.1,149.8,47.4,153,42.5z"/>
	<path class="st4" d="M152.1,112.7c-2.5-7-8.2-4.9-12.9-1.6c-3,2.1-2.8,3.6-6.6,3.1c-2.4-0.3-3.8-3.4-6.6-3.2
		c-4.6,0.3-7.9,5.7-7.4,10c0.6,4.7,7,8,10,10.8c2.7,2.6,5.7,8.5,10.2,5.9c1.6-0.9,2.9-4.8,4.1-6.2c2.2-2.6,5-4,7.1-6.4
		C152.7,121.8,153.5,116.6,152.1,112.7z"/>
	<path class="st3" d="M278.2,147.4c-7.4-5.8-17.4-24.5-28.1-23.8c-5.1,0.3-10.9,3.5-15.2,6c-9.3,5.4-17.3,13-27.4,16.8
		c-12.6,4.8-22.2,14.5-33.3,21.8c-5.4,3.6-11.8,4.9-14.2,10.6c-1.5,3.6-3.1,10.5-1.4,14.3c1.8,4.1,11,9.9,14.7,13.3
		c7.8,7.1,16.1,17,27.6,16.1c13.4-1.1,21.4-10.7,32.4-16.9c7.8-4.4,16.7-7.4,24.2-12.3c9.9-6.5,22.5-9.6,30.8-18.5
		c4.1-4.4,6.2-9.3,4.2-15.1C290,152.5,283.5,151.5,278.2,147.4z"/>
	<path class="st1" d="M264.8,153c-6.9-7.3-19.1-24-30.2-15.5c-7,5.3-16.1,7.1-24.2,10.6c-13.2,5.8-27.9,14.2-38.7,23.7
		c4.7,1,12.1,10.3,15.7,13.6c5.6,5,10.3,11.5,15.9,16.2c8.4,7.2,27.4-9.4,34.3-14.9c7-5.5,15.2-9.2,23-13.2
		c3.2-1.6,11.2-5.6,13.3-8.7C278,159.3,268.5,156.8,264.8,153z"/>
	<path class="st3" d="M96.2,111.5c1.4,3,0.8,7,0.5,10.2c-0.2,2.7-0.1,7.6-1.5,9.8c-2.4,3.8-3.8,1.8-7.8,3.8
		c-1.6,5.5,7.7,3.3,10.9,4.6c2.2,0.8,10.8,7.1,9.7-0.8c-0.2-1.8-3.9-2.9-4.8-5.2c-0.7-1.8,0-5.5,0-7.5c0-5.4,1.6-8.5,2.1-13.2
		c3.1,0,10.8-2.3,6.4-6.6c-2.6-2.5-7.4,0.3-10.5,0c-2.9-0.3-6.8-4.8-9.6-2.4c-3,2.6,1.7,4,3.2,5.6C95.5,110.2,95.9,110.8,96.2,111.5
		z"/>
	<path class="st3" d="M117.5,145.1c-2.5-3.9-6.1,3.2-7.9,4.2c-3.8,2.1-9.6-2.8-13.2-4.3c-2-0.9-8.2-3.6-9.5-1.7
		c-1.4,2-1.3,6.9-1.2,9.3c1.9,0.5,2.1-0.9,3.2-1.9c1.4-1.2,1.6-1.4,3.5-1.4c5.6-0.1,4.3,3.8,4.5,8c0.1,2.2,1.6,8.6,0.1,10.4
		c-1.7,2.1-6.5,1-6.4,4.6c0.1,5,5.9,0.3,8.2,1.1c2.2,0.8,4.6,6.3,8.1,4.6c5.1-2.5-2-6.4-3.4-7.8c-2.3-2.3-1.7-9.1-1.3-12.3
		c0.6-4.1,3.2-10,6.8-4.2c2.6,4,0.8,8.6,7,7.9c0.1-1.6,0.8-2.2,0.7-3.9c-0.1-2-1.2-2.6-2.1-4.3c-1.3-2.4-0.7-2.2,0.8-4.3
		C116.4,148.1,118.3,146.3,117.5,145.1z"/>
	<path class="st3" d="M152.7,144.7c0.1-1.1-0.6-3-2-2.2c-1.2,0.7-0.4,3.4-2,4.2c-1.4,0.7-3.4-0.8-4.4-1c-1.9-0.5-3.9-0.3-5.9-0.3
		c-3.2,0-7.3-0.4-9.7,1.3c-2,1.4-4.3,5.2-2.7,7.6c0.6,0.9,3.3,1.9,4.3,2.5c1.7,1.1,3.5,2,5,3.3c2.5,2.1,5.2,5.2,4.3,8.8
		c-0.8,3.5-4.5,3.5-7.4,2.5c-2.5-0.9-5.2-3.6-7.8-3.9c-1.9-0.2-1.3-0.4-2.1,1.8c-0.6,1.8-1.7,6.1,1,7.3c2.1,1,2.2-0.9,3.2-1.7
		c2.1-1.7,3.4-2.3,6-1.7c3.4,0.8,6.3,2.7,10.2,1.8c3.1-0.7,5.6-5,5.3-8.1c-0.4-4.2-3.6-5.9-6.7-8.2c-2.3-1.7-8.1-3.7-7.3-7
		c0.8-3.2,8-4,10.7-3.1c2,0.7,2.3,2.7,3.9,3.7c3.2,2.1,2.8-0.5,3.7-2.7"/>
	<path class="st5" d="M246.1,153.3c2.6-1.7,9-4.6,4.3-7.2c-2.4-1.3-6.3-1.6-9-1.5c-4.3,0.2-8.7,1.2-12.1,3.8c-0.9,0.7-4,2.4-4.3,3.7
		c-0.9,3.6,9.9,6.7,12.4,6.8C241,159.1,243,155.3,246.1,153.3z"/>
	<path class="st6" d="M225.9,188.7c3.4-1.6-11.2-9.6-11.7-10.1c-4.3-3.5-5.2-9.9-10.4-12.7c-3.8-2.1-14.3,0.3-15.9,5
		c-1,3,6.6,11.7,8.5,14.2c3.2,4.1,9.3,12.1,14.8,11.8C216.1,196.7,221.5,190.8,225.9,188.7z"/>
	<path class="st4" d="M242.6,177.4c-6.8,1.6-16.4-7.1-15.5-14.2c0.5-4.1,1.4-3.9,4.8-2.3C234,161.9,245.1,176.8,242.6,177.4z"/>
	<path class="st6" d="M256.7,169c3.5-1.3,4.5-12.9,1.8-15.2c-4.4-3.8-12.1,5-14.9,7.7C246.6,163,253.4,170.3,256.7,169z"/>
	<path class="st7" d="M243.2,164.6c-1.4,5.3,4.2,12.6,9.7,12.5c6.7-0.2,5.9-5.9,1.2-8.6C250.8,166.6,247,164.4,243.2,164.6z"/>
	<path class="st0" d="M184.5,82.8c3,2.3,2.8,9.8,2.8,13.5c0,8.6,1.4,18.5-5.3,24.8c-2.5,2.3-7,5.8-10.2,2.7
		c-2.6-2.5-0.9-9.3-1.1-12.8C170.4,105.7,172,73.3,184.5,82.8z"/>
	<path class="st8" d="M94.6,65.3c0.4-0.8,0.8-1.7,0.8-2.7c-8.2-0.8-15.9,5.9-14,14.1c0.2,1.1,0.9,3.9,2,4.5c2.4,1.3,0.9-0.1,2.7-1
		c3.4-1.7,7.2-3.2,7.8-6.9c0.2-1.4-0.8-3.7-0.4-5.3C93.7,66.9,94.2,66.1,94.6,65.3z"/>
	<path class="st8" d="M149.1,72.9c4.7,3.3,9.7,4.5,10.9-2.9c0.9-5.2-3.8-8.4-8.5-7.9C151.5,63.2,149.6,73.3,149.1,72.9z"/>
	<path class="st8" d="M165.6,110.1c-0.1,9.7-2.4,19.2-2.5,28.9c-0.1,6.6,1.4,15.1,0,21.5c-0.7,3.1-5.4,8.6-8.4,9.9
		c-1.3-2.3-0.6-6.4-0.6-9c0-6.9-1-13.2-1.6-19.9c-0.6-7.9,2.5-15.9,3.1-23.5c0.3-4-0.1-7.9-1.4-11.6c-0.7-2.1-0.3-1.9-1.5-3.6
		c-0.5-0.7-2.4-0.8-2.7-1.8c-1.6-5.3,6.6-12.2,11.2-12.7C171.3,87,165.6,104.5,165.6,110.1z"/>
	<path class="st8" d="M85.6,133.6c1.9-10.9,3.3-21.8,5.6-32.7C92.4,95,88,89,81.2,88.6c-4.1-0.2-3.5,1.3-3.7,4.9
		c-0.3,5.2-1.5,10.4-1.5,15.7c0,6-0.7,12.3,0,18.3c1.1,9.1,1.5,18.5,2.5,27.5c0.5,4.2,0,8.9,1,13c0.8,3.2,4.3,9.9,8.4,8.9
		c-0.1-6,2.5-13.6,0.2-18.7C84.9,151.2,84.1,141.9,85.6,133.6z"/>
	<path class="st8" d="M180.5,125c-3.3,1.3-5.8,1.1-6.5,5c-0.7,4.4,2.1,3.8,3.6,6.4c3.9,0.5,9.6-4,11.9-6.4
		c3.9-4.2,5.3-11.5,5.9-17.5c0.5-4.8,1.6-24.8-4.8-24.3c-1.3,0.1-0.1,15.8-0.1,17.4C190.6,112.6,187.8,122.1,180.5,125z"/>
	<path class="st0" d="M26.8,132.1c-7.3,1.5-8.9-7.4-2.4-9.9C32.4,119.2,34.8,130.5,26.8,132.1z"/>
	<path class="st9" d="M136.7,49c-0.4,1.4-2.5,0.1-3.3,0c-0.9-0.2-1.3,0.2-2.3,0.2c-2.8-0.1-6.1,1.1-8.9,0.4c-2-0.6-4.9,0.1-7.1,0.2
		c-3.4,0.2-7,1.8-10.4,1.6c-2.8-0.2-6,1.5-8.5,2.5s-5.1,1.8-7.6,2.9c-2.8,1.3-5.1,3.3-7.7,4.7c-2,1-3,4.6-4.9,6.1
		c-1.5,1.2-2.1-0.8-1.3-1.9c0.9-1.2,1.9-2.4,3-3.5c1.7-1.7,2.6-3.1,4.6-4.2c6.1-3.5,12.9-6.9,20-8.2c5.1-1,9.8-1.4,15-1.7
		c3.8-0.3,7.9,0.2,11.6-0.5C129.9,47.3,137.2,47.7,136.7,49C136.3,50.3,137,48.2,136.7,49z"/>
	<path class="st9" d="M133.6,54.9c-4.1,1.5-9.2,0.2-13.4,0.9c-1.5,0.3-3-0.2-4.5,0c-2.3,0.3-4.6,0.4-6.9,0.7
		c-3.9,0.5-7.8,1.5-11.7,2.6c-1.3,0.3-2.3,1.5-3.5,0.1c-0.1-1.3,3.5-2.2,4.5-2.4c1.7-0.4,3.4-1,5.1-1.3c1.7-0.3,5,0.2,6.4-0.8
		c0.6-0.4,2.7-0.2,3.5-0.3c1.4-0.3,2.6,0,4-0.2c2.4-0.3,4.9,0,7.1,0C125.3,54,133.4,52.6,133.6,54.9
		C132.5,55.3,133.5,54.2,133.6,54.9z"/>
	<path class="st9" d="M85.2,63.9c1,2.3-5.9,4-4.5,1.6C81.3,64.4,83.9,63.7,85.2,63.9C85.6,64.9,84,63.7,85.2,63.9z"/>
	<path class="st9" d="M76.2,174.3c-0.5-0.1-2-0.3-2.3-0.6c-0.7-0.7-1.2-3.2-1.2-4.2c-0.2-5,0-10,0.1-14.9c0.2-7.5,0.4-15.3,0-22.4
		c-0.5-9.1,0.5-18.3-0.1-27.4c-0.3-5.2-0.5-10.3-0.6-15.5c0-2.6,0.1-5.3-0.3-7.9c-0.3-2.1-0.9-4.4-0.6-6.5c0.1-0.6,1-2.2,1.7-0.9
		c0.7,1.3,0.5,4.2,0.6,5.7c0.3,2.5,0.5,5.1,0.4,7.7c-0.1,2.5,0.6,5,0.3,7.5c-0.4,3.1,0.1,6.9,0.1,9.6c0.1,5.1,0.3,10.2,0.2,15.3
		c-0.1,10-0.1,19.9,0.1,29.9c0.1,4.6,0.1,9.1-0.2,13.7c-0.1,1.9,0.5,4.2,0.1,5.9C74.4,171,76.7,172.4,76.2,174.3
		C75.2,174,76.6,172.7,76.2,174.3z"/>
	<path class="st9" d="M121.7,98.2C120,94.6,125.7,98.1,121.7,98.2C121.6,98,122.7,98.2,121.7,98.2z"/>
	<path class="st9" d="M99.6,105.2c-2.9,0.8-6.3-3.9-9-0.8c-0.5,3.8,7,1.4,6.8,5.6c-0.2,6.7-0.3,13.3-0.3,20c0,1.1-0.2,1.8-0.3,3
		c-0.1,0.8-0.1,1.6-0.3,2.3c-0.4,0.3-1.3,0.2-1.4,0.8c-1.7-0.6-3-2.5-4.8-2.1c-2.1,0.4-2.5,1.3-1.4,3.1c2,3.4,6.4-0.1,9.1,0.6
		c1.8,0.5,2.6,2.2,4,3c1,0.6,1.9,1.1,3,1.7c1.7,1,8.1-0.4,4.9-2.5c-0.8-0.6-1.5-1.5-2.5-1.8c-1.6-0.5-4.2-0.4-5-1.8
		c-1.6-3.1-1-7.9-1-11.4c0-3.9-0.2-10.1,1.7-13.6c1.7-3.1,6.3,1.1,6.9,0.2c-0.1,0.1,3,0.3,3.4,0.2c1.7-0.7,1.8-2.8,0.5-3.8
		s-5.2-1.6-6.7-0.9c-1.7,0.7-10.1,1.6-7.2-2.3c0.6,0,0.6,0.7,0.9,1.1c0.5,0.8,1.8,0,2.4-0.1c1.9-0.3,4.2,0,6-0.8
		c3,0.9,9.2,1.6,6.7,6.4c-1.1,2.1-3.6,2.5-5.8,2c-0.4-0.1-3.5-1.7-3.7-1.4c-0.6,0.6-2.4-1.4-2.8,1c-0.4,2.1-0.5,4.6-0.5,6.8
		c-0.1,2.3,0.1,4.5,0.1,6.8c0,1.1-0.5,3,0,3.9s0.3,2.1,0.3,3c0,1.9,0.2,1.1,1.1,2.1c1,1.2,3.5,1.2,5,2.2c5.4,3.5-0.1,6.4-3.8,6.9
		c-0.2-0.3-2.3-1.3-2.6-1.2c-0.9,0.2-3.3-2.5-3.9-3c-2.9-2.7-5.7,1.1-8.7-0.6c-1.6-0.9-2.7-1.5-3.5-3.1c-0.6-1.2,0-3.1,1.2-3.7
		c1.4-0.7,3.5-0.6,4.7,0.3c2,1.3,1.9,1.7,2.5-0.5c0.6-2.6,1-5.4,0.6-8.2c-0.4-3.1-0.3-6.4-0.1-9.7c0.1-1.4,0.5-5.1-0.5-6
		c-1.7-1.4-4-0.8-5.8-2.4c-2.6-2.4,1.1-5.1,3.5-4.9C94.3,101.8,100,104.6,99.6,105.2C98.3,105.5,99.8,104.8,99.6,105.2z"/>
	<path class="st9" d="M133.8,142.1c-0.4-0.4-2.7-2.9-2.7-3.1c0.1-0.4-3.7-3.1-4.3-3.7c-2.6-2.4-6.2-5.3-8.8-8.4
		c-3.8-4.5-2.9-12.1,1.6-15.6c2.3-1.8,4-3.8,7.2-3.4c1.7,0.2,3.2,0.6,4.6,1.5c0.5,0.4,3.4,2.2,3.4,2.9c0.7-0.5,1.5-3.1,2.4-3.2
		c0.7-0.1,2.1-2.5,2.9-3c1.5-1.2,4.1-1.9,6.1-1.8c5.1,0.1,8.7,5.4,8.8,10.3c0,1.7-0.2,3.5-0.6,5.1c-0.3,1-1,2.3-1.1,3.1
		c-0.1,1.3-4,7.7-4.8,7.5c-0.8-0.1-5.2,5.3-6.2,6.1c-1.3,1-2.4,2-3.8,3.1c-0.8,0.7-1.6,1.4-2.2,2.3
		C135.3,141.6,134.8,142,133.8,142.1C133.2,141.5,135,142,133.8,142.1z M138.1,137.4c1.6,0,3.7-2.7,4.8-3.7c2-1.8,4.8-3.9,5.9-6.4
		c0.9-2.1,2.7-4,3.5-6.4c1-3.1,1.6-6.8,0.2-9.8c-1.5-3.1-4.1-5.7-8.1-5c-2.9,0.5-4.7,1.9-6.5,4.2c-0.8,1-1.2,2.2-2.2,3
		c-1.4,1.2-2.6-1-3.6-1.8c-4-3.2-7.6-2.2-11.1,0.4c-0.8,0.6-2.6,2-2.8,3.1c-0.1,0.8-0.7,1.7-0.9,2.5c-0.3,0.9,0.3,2.7-0.1,3.3
		c-0.9,1.2,1.6,4.6,2.3,5.5c1.5,1.8,3.3,3.5,5,5.1c1.6,1.6,3.6,3,5.4,4.3c2.2,1.7,3.3,3.8,5.3,5.5
		C135.7,139.6,137.4,138.9,138.1,137.4C138.7,137.4,137.4,138.9,138.1,137.4z"/>
	<path class="st9" d="M152.3,141.3c-0.1,0.5-1.6-0.3-2.1,1.3c-0.3,1-0.8,1.9-1,2.6c-1.2,4.7-2.8,0.9-6.1,0c-3.8-1-7.9,0.2-11.7,0.2
		c-4,0-7.5,3.3-8.9,6.8c0.3,0.6,0.3,1.3,0.6,1.8c0.8,1.5,3,3,4.4,4.1c3.3,2.6,7.9,3,11.6,4.7c1.8,0.8,3.2,1.7,3.1,3.8
		c0,1.4-0.6,3.3-1.9,4.1c-3.5,2.3-8.5,0.4-11.8-0.9c-1.6-0.6-3.6-1.2-4.1-3.2c-0.4-1.7-0.5-1.7-2-2.4c-0.7,0.5-0.8,2.5-1,3.3
		c-0.4,1.1-0.4,2.3-0.8,3.3c-0.7,1.9-0.9,3.9-1.8,5.7c-0.7,1.4,1,1.9,1.9,1.1s1.1-0.1,1.7-1.3c0.5-0.8,0.9-1.6,1.3-2.5
		c0.8-1.9,0.2-3.8,2.8-2.7c1,0.4,1.7,1.3,2.5,2.1c1.6,1.6,3.1,1.3,5.3,1.4c2.1,0.1,3.3,0,5.3-0.2c1.2-0.1,2.3,0.3,3.6-0.3
		c2.6-1.3,5.6-6.1,4.9-9.2c-0.4-1.9-1-3.6-3.2-4c-0.4-1-2.9-2.3-3.7-2.7c-0.9-0.4-2-0.2-2.8-0.9c-1-0.8-2.2-1.4-3.2-2.1
		c-1.3-0.8-4.1-2-4.6-3.5c-1-3.6,6.5-4.7,8.6-4.5c2.9,0.3,5.2,0.8,6.1,3.7c0.9,2.5,1.6,4.2,4.8,3.8c2-0.3,1.8-3.6,0.9-4.9
		c-0.7-0.9-0.1-5.8,1.4-5.6c0.6,1.1-0.2,1.9-0.5,2.9c-0.5,1.6,1.5,2.5,1.1,4.1c-0.2,0.9,0.7,4.1-1,4.3c-1.9,0.2-3.7,0.6-5.9,0
		c-3.2-1-1-4.9-4.1-6.3c-2.2-1-5-0.7-7.2,0.2c-0.9,0.4-1.8,0.9-2.5,1.6c0.4,1.3,2,1.4,2.8,2.4s2.6,1.4,3.6,2.3
		c1.6,1.5,5.1,1.3,6.7,2.9c0,0.2-0.1,0.2-0.2,0.2c0.6,0.8,2.1,1.5,2.7,2.1c0.6,0.6,1.2,1.6,1.5,2.8c0.5,2.1-0.3,5.4-1.5,6.7
		c-0.3,0.3-0.5,1.6-0.9,2c-0.6,0.7-1.5,1.4-1.8,2.2c-0.7,1.4-3.6,1.6-5,1.6c-3.5,0.1-6.8,0.8-10.2-0.2c-1.4-0.4-2.2-1.7-3.4-2.7
		c-0.6-0.5-1-0.7-1,0.2c0,1.1-0.8,0.9-1.3,1.8c-0.8,1.6-0.8,2.9-2.7,3.6c-1.3,0.5-6,0.6-5.1-1.8c0.8-1.8,1.6-3,2.1-5
		c0.4-2,1.2-4,1.7-6c0.5-2.3,0-4,3-3.3c1,0.2,1.9,0,2.1,1.3c0.2,1.1,0.1,2.3,1,3.1c0.8,0.7,1.8,1.1,2.9,1.4c1.6,0.5,4.1,1.7,5.7,1.6
		c2,0,7.6-1.8,4.9-4.7c-0.9-1-2.1-1.2-3.1-1.4c-1.3-0.3-2.4-1.4-3.6-1.5c-1.6-0.2-5.6-1.8-6.6-2.9c-1.1-1.3-7.2-4.9-5.9-7.2
		c0.4-0.8,0.2-1.6,1.2-2.6c0.9-0.8,1.7-2.3,2.6-3.3c3.6-3.7,12.4-3.6,17.2-3.1c1.7,0.2,4.1,0.3,5.3,1.8c0.6-1.2,1-2.5,1.6-3.7
		C149.7,140.3,151.9,139.2,152.3,141.3C152.2,142.4,152.1,140.4,152.3,141.3z"/>
	<path class="st9" d="M292.6,161.9c-0.5-2.8,0.6-5.5-1.5-7.9c-1.2-1.4-2.8-2.3-3.9-3.4c-0.5-0.5-2.6-2.3-2.5-2.5
		c0.1-0.5-2.8-2.3-2.7-2.5c0.2-1.2-6.2-5.6-7.2-6.6c-4.3-4.3-9-8.1-13.8-11.3c-0.7-0.5-4.5-3.5-2-3.5c1.3,1.4,3.9,2.6,5.5,3.3
		c0.7,0.3,1.5,1.5,2.2,2c1.2,0.9,2.2,1.7,3.3,2.7c0.7,0.6,5.6,5.5,6.2,5.3c0,0,3.7,3.6,3.7,3.5c-0.1,0.5,6.4,6,7.2,6.7
		c2.1,1.9,4.9,4,6.5,6.4c0.9,1.4,1.2,3.1,1.2,4.7c0,1.1-0.2,2.2-0.8,3.2C293.6,162,292.6,161.7,292.6,161.9
		C292.4,160.6,292.6,161.6,292.6,161.9z"/>
	<path class="st9" d="M260.3,153.7c-1.6,0.1-2.4-2.7-3.3-3.8c-1.1-1.3-2.3-2.5-3.6-3.5c-2.3-1.8-4.8-3.1-7.7-3.5
		c-6.2-1-12.6,0.1-16.6,4.1c-1.8,1.8-3.9,3.5-4.9,6c-1.6,4.1-0.7,9.7,0.8,13.8c2.8,7.3,11.4,11.7,18.9,10.6
		c3.7-0.5,9.6-1.8,11.9-5.3c1-1.4,2.7-2.3,3-4.2c0.1-0.6,0.2-1.2,0.9-1.3c0.8,0.6,0.3,2.3,0.4,3.1c-1.3,1-2.2,2.9-3.1,3.7
		c-1.9,1.6-5,3.3-7.6,4.3c-3.2,1.3-7.5,1.7-11,1.2c-2.4-0.4-4.6-1.3-6.8-2.4c-1.6-0.8-3.1-3-4.7-3.5c-1-0.3-1.6-2.2-2.4-2.9
		c-0.8-0.7-1.2-1.8-1.5-2.9c-1.1-4.1-2-7.6-1.3-11.9c1.8-10.6,13.2-16.1,23.3-14.6c3.2,0.5,6.5,1.9,9.2,3.7
		C255.7,145.6,262.2,151.8,260.3,153.7C258.9,153.8,261.1,152.9,260.3,153.7z"/>
	<path class="st9" d="M262.8,162.1c-0.7,0.7-2.3,3.7-2.3,0.5c0.1-2.3-0.5-4.6-1.1-6.8c1.1-0.8,1.6-0.9,2.2,0.9
		C262.3,158.5,262.2,160.4,262.8,162.1C262.3,162.6,262.5,161.2,262.8,162.1z"/>
	<path class="st9" d="M267.5,155.5c2.3,0,4.3,3.6,6.1,4.8c1.6,1,4.8,3.6,5.2,5.6c1.8-0.6,2.9-2.3,4.9-2.5c-0.5,3-5.7,5.1-8,6.4
		c-2.9,1.7-5.6,3.2-8.3,5.1c-2.7,1.9-6.1,3.2-8.7,5.3c-0.4,0.3-2.7,1.3-2.7,1.5s-4.6,2.7-5.1,2.9c-4.1,1.7-8.9,4.7-12.9,7.2
		c-6,3.7-12.3,6.8-17.9,10.9c-2.1,1.5-4.8,2.6-7,4.1c-0.7,0.5-1.6,1.4-2.3,1.8c-0.6,0.3-1.1,0.9-1.8,1.1c-1.2,0.3-1.7-0.9-1-1.7
		c0.9-0.9,2.6-1.5,3.6-2.1c1.2-0.8,2.4-1.7,3.6-2.3c3.4-1.6,6.8-4.1,9.9-6.1c6-4,12.5-7.4,18.7-11.1c5.2-3.1,10.5-5.5,15.7-8.8
		c6-3.9,12.3-7.4,18.4-11.1c-1.5-1.5-3.1-3.6-4.7-4.7C271.8,160.6,267.5,157.6,267.5,155.5C267.6,155.5,267.5,155.8,267.5,155.5z"/>
	<path class="st9" d="M229.3,185.1c-1.4,0.9-4.6-3.3-5.6-4.1c-2.1-1.7-4.1-3.6-6.1-5.4c-2.5-2.3-5.1-4.5-7.3-7
		c-1.9-2.2-4.6-3.6-6.3-5.8c-1.1-1.4-2.1-0.3-3.6,0.7c-1.3,0.9-3,1.6-4.2,2.6c-1,0.8-2.2,1.1-3.3,1.8c-1.5,1-3.1,1.9-4.8,2.7
		c-0.4,0.2-2.4,1.5-2.8,1c-0.5-0.5,0.7-1.3,1-1.6c2.4-1.7,5.5-2.8,8.1-4.4c0.8-0.5,9.2-6.1,9.6-5.1c0.5,1.2,1.4,1.7,2.5,2.6
		c1,0.8,2.5,2.7,3.6,3.1c0.5,0.2,1.4,1.4,1.7,1.9c2.5,2.7,5.9,5.8,9,8.2c2.2,1.7,4.3,3.9,6.4,5.8C227.8,182.6,229.3,184,229.3,185.1
		C228.7,185.5,229.3,184.1,229.3,185.1z"/>
	<path class="st9" d="M290.7,164.1c0.7,0.1-1,2.5-1.4,2.9c-1.7,1.7-4.4,3-6.4,4.3c-2.6,1.7-5.5,3.1-8.1,4.7c-2.3,1.4-5.2,4-7.8,4.7
		c-1.3,0.4-3,1.6-4,2.4c-1.3,1-3,1.8-4.4,2.8c-1.1,0.7-3.2,2.3-4.6,2.3c-2.1,0,1.8-3.2,2.1-3.4c0.1-0.1,2.1-1.1,2.6-1.4
		c1.5-1,3.2-1.7,4.8-2.7c2.9-1.8,5.9-3.5,8.8-5.3c4-2.4,8-4.7,12-7.2c1.5-0.9,3.8-2,4.8-3.5C289.1,164.5,290.6,163.7,290.7,164.1
		C291.6,164.2,290.7,164,290.7,164.1z"/>
	<path class="st9" d="M212.1,197.8c1.9-0.7,3.7-1.7,5.3-2.9c-0.2-1.1-1.2,0.1,0-1.6c0.8-1.1,1.5-2.4,1.9-3.7c-1.4-0.1-3-0.6-4.4-0.6
		c-2.5,0.1-0.7-1.8-0.3-3.1c-2-0.9-4.4,0-6.3-1.2c-0.8-0.5,2.2-4.2,2.6-5.5c-2.6-0.3-4.8,0.9-7.3,1c-1.2,0.1-2.4,0.1-3.6,0
		c-0.1-1.2,0.6-1.9,1-2.9c-1.5,0.1-3-0.4-4.5-0.4c-0.8,0-1.6,0.2-2.3,0c-0.3-1.1,0.5-2.3,0.8-3.3c-1.7-0.7-4.9,0-6.7,0.3
		c-1.6,0.2-0.4-1.4,0.6-1.5c1.5-0.2,3.2-0.1,4.7-0.1c1.5,0.1,3.9-1.3,3.1,1.3c-0.3,0.9-1.7,2.3,0.1,2.5c2.2,0.3,4.3,0,6.6,0.3
		c0.1,1.2-1.3,1.4-1.4,2.5c2.5,0.4,4.9-0.4,7.3-0.7c0.5-0.1,6-1.2,4.8,0.3c-0.1,0.2-0.8,0.8-1,1c-1.2,1.2-1.9,2.7-2.9,4.3
		c1.9,1.8,4.9-0.3,6.8,0.8c1.1,1.2-3.4,3.1,0.2,3.6c1.4,0.2,4.6-0.6,4.5,1.3c-1.2,1.3-2.1,3.4-3.3,4.9c2.9-2.1,6.1-4.4,9.4-6
		c0.7-0.4,2.8-1.7,3.5-0.8c-0.2,1.2-2.1,1.9-3,2.4c-3.4,2.1-6.7,4.5-10.1,6.7c-1.1,0.7-6,4.3-6.7,2.4c-0.3-0.7-2.1-1.6-2.6-2.1
		c-0.7-0.7-1.5-1.9-2.1-2.5c-2.6-2.7-6.4-5.4-9-8.7c-3.5-4.5-8.8-7.3-12.5-11.7c-1.8-2.1,0.5-2.5,1.5-1c1,1.7,3.5,3.3,4.8,4.7
		c1.7,1.7,3.3,3.1,5.1,4.9c2,2,4.1,3.9,6.2,5.7c1.6,1.4,3.2,2.8,4.8,4.2c0.6,0.6,0.9,1.6,1.7,2.3
		C209.9,195.6,211.8,196.6,212.1,197.8C214.1,197,212,197.4,212.1,197.8z"/>
	<path class="st9" d="M153.6,182.6c0.1,0.7-0.6,1.5-0.7,2.1c-0.2,1.2-0.5,2.4-0.5,3.6c0,1.3,0.8,2,0.7,3.3c-0.2,1.4-1.2,0.6-1.8,0
		c-1.3-1.5-0.9-4-0.7-6C150.6,184.7,152.8,179.9,153.6,182.6C153.7,183.3,153.5,182.1,153.6,182.6z"/>
	<path class="st9" d="M181.7,201.3c-0.4-1,1.4-2.6,2-3.3c1-1.4,1.4-3.4,0.7-5c-0.7-1.7-2.2-2.6-4-2.8c-0.9-0.1-1.8-0.1-2.5,0.6
		c-0.3,0.3,0.1,0.6-0.5,0.7c-1.4,0.2-1.4,3.3-1.3,4.3c0.1,1.7,2.5,2.6,2.6,3.8c2.1-0.1,2.4,1.6,0,1.1c-0.8-0.2-2-1.1-2.6-1.6
		c-3.2-2.8-1.8-10.7,3.7-10.6c3.3,0.1,5.9,2.2,6.6,5.4c0.2,1-0.7,3.7-0.3,4.2C184.7,198.8,183.6,201.9,181.7,201.3
		C181.3,200.4,182.6,201.6,181.7,201.3z"/>
	<path class="st9" d="M250.9,190c0.5,1.7-5.1,4.2-6.2,4.9c-2.9,1.8-5.9,3.5-8.9,5.1c-1.5,0.8-12.1,7.3-12.2,7.2
		c-0.3-0.3-11.6,6.1-12.6,6.7c-4.1,2.3-9.3,6.5-14.3,5.1c-8.3-2.3-14.5-10-20.7-15.6c-2.4-2.1-4.5-4-7-6.4c-1.4-1.4-5.8-4.6-5.5-7
		c4,2,7.5,6.1,10.6,9.3c2.2,2.3,5.3,4.9,7.5,6.7c1.3,1,5.7,6.6,7,6.4c0,0,1.7,1.6,1.9,1.8c0.8,0.7,1.7,1.3,2.5,2
		c1.2,1,1.6,0.4,2.9,0.9c1.8,0.7,4.6,0.2,6.3-0.4c1.5-0.5,3.7-3.2,5.3-2.9c0.3,0,1.9-1.3,2.5-1.6c1.7-0.9,3.5-1.8,5.2-2.7
		c8.1-4.1,15.9-9.3,23.6-13.7c1.3-0.7,3.3-1.9,4.9-2.7C244.8,192.4,250.2,188.2,250.9,190C251.2,190.9,250.7,189.6,250.9,190z"/>
	<path class="st9" d="M155.4,194.1c1.4,0,2.1,2.6,3.3,3.1c1.3,0.6,2.8,2.7,4.1,3.8c2.8,2.5,5.6,4.9,8.3,7.6c3.2,3.3,6.5,6.2,9.9,9.1
		c1.7,1.5,3.6,3,5.4,4.4c1.6,1.3,4.8,3.5,5,5.7c-1.7,0.6-4.1-2.5-5.2-3.4c-1.7-1.4-3.3-2.7-5-4.1c-3-2.6-6-5-8.9-7.9
		c-3.3-3.2-6.7-6.4-10.1-9.5C160.1,201.1,154.1,197.3,155.4,194.1C155.6,194.1,154.6,196,155.4,194.1z"/>
	<path class="st9" d="M166.1,6.3c0.4,1.9,1.5,3.6,1.5,5.6c0,2.5-0.2,5.1-0.7,7.6c-0.7,3.3-1.5,6.5-3,9.6c-1.9,3.7-4.2,7.1-6.1,10.8
		c-0.7,1.4-1.4,2.5-2.1,4c-1.2,2.4-2.3,4.7-3.5,7.1c-3.2,6.2-6,12.7-8.5,19.1c-2,4.9-3.8,10-6.2,14.8c-0.4,0.7-0.9,2.5-1.6,2.8
		c-0.5,0.2-0.6,0.6-1,0.9c-1.2,0.7,0.1-3,0.2-3.2c1.7-3.5,3-7.2,4.6-10.7c1.9-4.3,3-9.2,5.2-13.3c3.2-6.2,6.4-12.6,9.5-18.9
		c3.5-7.2,9.7-14.3,10.6-22.4c0.4-3.3,1.5-6.8,0.3-10c-0.5-1.3-0.2-2.1-1.6-2.5c-1-0.3-2.1-0.5-3.1-0.3c-1.3,0.3-3.1,1.8-3.9,2.8
		c-4.6,5.7-7.2,12.5-9.7,19.4c-2.5,6.8-4.4,14-6.6,21.1c-2.3,7.2-4.6,14.7-6.9,22c-1.3,4.2-2.5,8.8-4.5,12.7
		c-0.2,0.4-0.7,1.5-1.1,1.7c-0.6,0.3-1.6-0.3-1.3-1.1c0.5-1.2,1-2.5,1.6-3.6c1.7-2.9,2.1-6.7,3.1-9.8c0.4-1.2,0.8-2.4,1.2-3.7
		c0.2-0.5,0.9-3,1.2-3.3c1-0.9,1.2-4,1.6-5.3c0.8-2.5,1.5-5,2.3-7.6c1.4-5.1,3-10.1,4.5-15.1c2-6.8,4.8-13.4,7.6-19.8
		c1.7-4,3.9-6.9,6.8-10C159.3,3.8,162.3,5.3,166.1,6.3C166.4,8,164.1,5.7,166.1,6.3z"/>
	<path class="st9" d="M172,68.9c-0.7-0.9-0.5-2-0.8-3.1c-0.5-1.4-1.6-2.7-2.6-3.7c-1.1-1.2-2.3-1.9-3.6-3c-2.2-1.8-5-2.6-7.7-3.5
		c-1.3-0.4-2.5-0.7-3.8-1.1c-1-0.3-1-1.6,0.2-1.6c4.4,0,8.6,3,12.5,4.7c0.9,0.4,1.8,1.2,2.4,1.9c0.6,0.7,1.2,0.7,1.8,1.2
		c1.5,1.3,3.4,4.1,3.1,6.2c0.5,0,2.9-0.5,3.3-0.8c1.7-1.1,5.8-0.4,7.6,0.2c1.2,0.4,4.1,0.6,4.7,2c0.4,0.9,2.3,2.5,3.1,3.2
		c0.6,0.5,0.8,1.5,1.2,2.1c1.1,1.6,2.7,3,3.6,4.7c0.6,1.3,2.2,2.9,3.2,4.5c0.6,1,1.9,2.1,2.2,3.2c0.2,0.7,0.7,1.2,1.1,1.8
		c0.7,1.1,0.5,2.4,0.8,3.6c1.2,4.4-0.3,10.3-1,14.6c-0.3,2.1-5.3,24.7-7.6,23.2c-0.5,2.5-3.7,4.5-5.7,5.7c-1.5,0.9-2.4,2-4.1,2.9
		c-4.4,2.3-11.1,3.1-13.3,8c-5-0.8-0.9,5-2.6,6.8c-0.4,0.4,0,3.9,0.3,4.5c0.5,1.1,0.7,7.9-1.2,4.7c-1.4-2.3-1.1-6.3-1.2-9
		c-0.1-2.9,0.1-6.1,0.3-9.1c0.3-4,0.2-8.1,0.5-12.1c0.5-7.5,0.9-15.1,1.6-22.6c0.7-6.9,1.4-13.9,1.5-20.9c0-3.1-0.4-6.9,0.5-10
		c0.7-2.1,1.5,1,1.5,1.6c0,0.4-0.2,4.4,0.1,4.2c2.3-1,4.9-3.1,7.5-4.3c0.9-0.4,3.2-0.3,4.5-1c1.3,0.7,3.2,1.1,4.6,1.5
		c1.6,0.5,2.4,1.5,3.7,2.6c2.3,1.8,4.9,6.5,2.6,9.3c-0.8-0.1-1.3-4-1.6-4.6c-0.7-1.7-1.8-2.8-3.2-3.8c-3.2-2.4-6.5-3.3-10.5-1.6
		c-1.7,0.7-3.2,1.9-4.9,2.5c-1.2,0.4-1.4,1.1-2.1,1.8c-1.4,1.4-1,2.7-1.1,4.8c-0.1,2.9-0.2,5.8-0.5,8.7c-0.4,4.7-0.9,9.5-1.2,14.2
		c-0.2,3.2-2.1,9.1,2.4,9.9c1.6,0.3,3.1-0.7,4.3-1.6c0.4-0.3,2.1-2,2.4-2c0.5,0.1,2.4-2.4,2.7-2.9c1.2-2,2-4.7,2.5-6.9
		c0.7-2.8,1.4-7.1,1-10.1c-0.3-2.1,0.2-5-0.5-7.3c-0.9-3-0.2-6.4-2.3-9.1c-1.1-1.5,1-2.7,1.8-0.9c1.1,2.2,2,4.3,2.4,6.7
		c0.8,4.8,0.8,9.8,0.5,14.6c-0.1,2.3-0.4,4.6-0.9,6.8c-0.6,2.6-2.1,4.7-2.8,7.3c-3,2.9-8.6,10.7-13.6,6.6c-0.2-0.2-0.4-0.4-0.6-0.6
		c-0.2,2.2-0.4,4.4-0.5,6.6s-0.4,3.2,0.9,4.7c0.8,1-1.1,1.3-1.1,2.3c-0.2,2.3-0.3,4.5-0.6,6.8c2.2,0,1.2-1.9,2.5-2.3
		c1.6-0.6,2.3-2.5,4.1-3.2c2.7-1,5.3-1.4,7.8-2.9c2.2-1.4,4.4-2.8,6.6-4.3c6.1-4.1,5.7-11.4,8.5-17.6c0.8-1.9,0.9-4.7,1.3-6.8
		c0.4-2.1,1.2-4.5,1-6.8c-0.2-2.9,0.7-5.7,0.3-8.6c-0.3-3-1.7-4.4-3-6.9c-1.4-2.6-3.3-5.4-5.2-7.7c-0.6-0.8-2.5-3.8-3.1-4
		c-0.8-0.2-1.1-1.8-1.6-2.4c-0.4-0.4-1.2-1-1.7-1.4c-0.4-0.3-4-1.5-3.6-1.9c-1.6,0.5-3.4-0.2-5.1,0C176.9,68.1,174.2,68.5,172,68.9
		C171.3,67.9,174.5,68.4,172,68.9z"/>
	<path class="st9" d="M78,69.7c0.5,0-0.7,2.2-0.8,2.9c-0.2,1.4-0.1,3.9,0.3,5.2c1.4,4.4,5.7,5.6,9.1,7.9c0.1-0.4,0.1-0.8,0-1.2
		c0-0.9,1.2-1.5,1.8-2c1.5-1.2,3.1-2,4.9-2.8c3.5-1.6,7.2-2.9,11-3.7c6.8-1.3,13.8-1.8,20.7-2.2c0.6,0,3.2-0.1,3.5,0.6
		c-0.1,1.5-3.3,1.2-4.3,1.2c-4.7,0.4-9.5,0.8-14.2,1.3c-4.2,0.4-8.2,1.7-12.3,3.1c-3.3,1.1-8,3-10.1,5.9c1.3,2.3,6.3,2.3,8.3,3.2
		c2.7,1.3,7,1.7,9.9,2.1c5.7,0.7,12.2,0.2,17.9-0.6c5.5-0.8,11.8-1.7,16.8-3.9c4.9-2.1,9.6-2.6,14.2-6.2c-3.2-1.6-7.1-3.1-10.7-3.3
		c-3.2-0.2-1.1-2.8,0.2-1.4c-0.2-0.2,3.3,0.3,3.7,0.4c1.3,0.4,3.8,1.6,5.1,1.4c3.6,4.1,6.3-0.8,8.6-3.3c0.8-0.8,1.4-3.6,1.6-4.7
		c0.3-2.3-1.1-2.6-1.8-4.2c-1.3-2.8-5.7-3.9-8.4-5.1c-0.4-0.2-3.8-1.2-2.1-2.2c1.4-0.8,4.6,1.2,5.8,1.7c2.8,1.3,4.9,2.7,7,4.9
		c3.9,4.3,0.2,12.4-4.1,14.6c-0.7,0.3-1.9,2.4-2.8,2.3c-1.2-0.2-3.3,2.9-4.7,2.7c-0.2,0-1.9,0.8-1.9,0.8c-1.2,0.5-2.3,1.2-3.6,1.5
		c-0.9,0.3-6,1.9-6.2,2.4c-0.2,0.6-5.5,1.4-6.3,1.6c-2.3,0.5-5,0.7-7.1,1.1c-3.1,0.5-6.2,1.1-9.4,1.3c-3.3,0.2-6.7-0.3-9.9,0.1
		c-3.3,0.4-6.8-1.1-10-1.6c-3.8-0.6-6.8-1.6-10.3-3.3c-4.1-2-7.9-3.7-10.8-7.3C74.8,78.5,73.6,70.2,78,69.7
		C79,69.7,77.3,69.8,78,69.7z"/>
	<path class="st9" d="M172.2,72.1c-0.4,3.6-3.1,6.2-4.9,8.8c-2.3,3.3-4.9,4.9-8.4,7c-1.9,1.2-3.8,2.2-5.9,3.2
		c-1.4,0.7-2.6,1.6-4.1,2c-1.2,0.3-2.7,0.5-3.7,1.2c-0.8,0.6-2.2,0.5-3.1,0.7c-1.2,0.3-2.2,0.9-3.3,1.2c-2.7,0.7-5.3,0.4-8,0.6
		c-1.3,0.1-2.5,1-3.8,0.5c-1.9-0.6-0.2-1.6,0.7-1.7c2.9-0.4,6-0.5,8.8-1.1c5.8-1.2,11.6-3.2,16.8-5.9c3.5-1.8,7.4-3.9,9.8-6.5
		c0.7-0.8,1.5-1.5,2.3-2.2c1-0.9,1.4-2.2,2.4-3.3C169,75.4,169.9,70.6,172.2,72.1C172.1,73.1,171.7,71.8,172.2,72.1z"/>
	<path class="st9" d="M91.8,142.7c-1.2,0.8-1.9-1.3-3-0.3c-1,0.9-1.2,2.6-1.5,3.8c-0.3,1.2-2.2,6-1,7c2.6-0.9,2.7-5.8,6-4.7
		c2.1,0.7,4.5-0.7,5.2,1.9c0.5,1.7-0.8,3-0.4,4.7c0.4,1.4-0.4,4-0.4,5.6c0,2.2-0.2,4.4,0,6.5c0.3,4.4-4.6,4.2-7.4,5.7
		c-0.1,1.4,2.8,0.9,3.4,0.8c1.6-0.3,3.1-0.7,4.7-1.1c2-0.5,2.6,0.9,4,1.9c0.7,0.5,1.4,0.9,2.2,1.3c1,0.5,1.5,0.2,2.5,0.6
		c1.2,0.5,2.8-0.4,1.6-1.8s-1.9-2.6-3.7-2.9c-2.8-0.4-2.4-1.9-2.3-4.2c0.2-2.7,0.3-5.4,0.5-8.1c0.2-2.1,0.3-4.2,0.6-6.3
		c0.3-2.2,1.4-1.6,2.9-2.1c3.3-1.1,5.1,1.8,6.5,4.2c0.7,1.1,1.4,2.5,2.5,3.3c2.5,1.8,1-2.4,0.4-3.3c-1.2-1.6-1.6-2.8-1.2-4.8
		c0.3-1.6,2-2.9,2.1-4.3c-1.5-0.7-2.1,0.7-3,1.6c-1.1,1.1-2.6,0.6-3.9,0.4c-4.2-0.7-8.3-0.8-12.4-2c-1.7-0.5-3.3-0.7-4.1-2.6
		c-1.2-3,1.8,0.1,2.1,0.3c0.8,0.5,1.7,0.8,2.6,0.9c1.2,0.1,1.4,0.5,2.5,0.8c1.8,0.5,4.5,0.9,6.3,0.8c1.4-0.1,3.3-0.1,4.6,0.6
		c1.7,0.8,2.9-2.3,4.5-2.3c1,0,3.2,2.3,1.6,2.8c-0.8,0.3-1.4,3.4-1.5,4.2c-0.2,2.4,5.8,10-0.4,9c-2.9-0.5-4.8-5.5-6.5-7.4
		c-0.9-1-4.3-0.8-4.2,0.7c0.1,1.9-0.3,4.1-0.4,6.1c-0.1,1.6,0.1,4.7-0.7,6.1c-0.5,0.8-0.6,4.3,0.5,4.4c1.6,0.1,3.9,0.3,4.7,2.2
		c0.6,1.4,1.6,2,1.3,3.8c-0.7,3.8-5.6,0.6-7.1,0.8c-0.5,0.1-2.9-2.1-3.4-2.6c-1.3-1.2-4.4,0.4-6,0.6c-2.2,0.3-3.6,0.4-5.2-1.5
		c-0.1-2,1.7-2.4,3.2-3s2.7-0.7,4.2-1.7c-0.3-1.1,0.6-3.3,0.6-4.5c0-2.3,0.1-4.6,0.2-7c0.1-1.1,0.8-7.5-0.3-7.3
		c-1.4,0.2-3.8-0.9-5,0.1c-1.1,0.8-2.9,6-4.9,4.3c-2.5-2.1,0.5-6.8,0.7-9.1c0.2-1.8,0.4-3.5,2.1-4.5
		C89.4,140.4,92.2,141.1,91.8,142.7C90.8,143.4,92,141.9,91.8,142.7z"/>
	<path class="st9" d="M255.8,122.9c-1.6,0.5-2.7-1.1-4.4-0.7c-1.6,0.4-3.3,0.7-4.8,1.5c-0.9,0.5-4.5,1.8-4.8,2.5
		c0,0.1-1.2,0.6-1.5,0.8c-1.5,0.9-3,1.6-4.6,2.5c-2.1,1.3-4.8,3.9-7.2,4.5c-2.1,0.5-3.7,2.8-5.9,3.3c-1.8,0.4-4.3,2.3-6,3.4
		c-4.6,2.7-9.3,5.7-13.8,8c-1.9,1-4.6,2.5-6.2,4c-1.1,1-2.8,1.8-4.1,2.6c-1.3,0.8-3.3,2.7-4.8,2.8c-1,0.1-1.6,1.2-2.4,1.7
		c-1.5,0.8-3,1.7-4.4,2.6c-1.3,0.8-2.7,1.7-4.1,2.1c-0.8,1.1-2.9,2.1-4.1,2.6c-2.7,1-5,3.1-7.5,4.6c-1.9,1.1-3.7,2-5.6,3.4
		c-1.1,0.8-4.2,3.3-3.3,4.7c0.7,1.2,2,2,2.5,3.3c1.2,0.6,2.5,0.8,2.1,2.5c-1.1-0.1-2.8-1-3.4-1.4c-0.3-0.2-1.1-1.5-1.2-1.5
		c0,0-1.5-1.8-1.6-2c-1.3-2.2-0.4-2.6,1-4.3c0.6-0.8,2.7-3,3.7-3.1c0.1,0,1.2-0.7,1.2-0.7c0.2-0.9,3.3-1.7,4-2.3
		c1-0.9,2.2-1.6,3.4-2.2c0.8-0.3,3.6-1.7,3.8-2.5c3-1.1,5.9-2.9,8.5-4.7c1.6-1.2,3.2-1.9,4.8-2.8c3.1-1.9,6.3-3.7,9.3-5.7
		c9.7-6.3,19.9-12.1,30-17.9c5.1-3,10.8-6.5,15.6-9c2-1,4.1-1.8,6-3c0.6-0.4,3.1-0.9,3.3-1.3C250,119.4,255.8,120.9,255.8,122.9
		C254.6,123.3,255.8,121.4,255.8,122.9z"/>
	<path class="st9" d="M78.8,177.2c0.2,1,3.7,3.2,4.7,3.7c2.6,1.4,5.3,3.3,7.6,5.1c4.1,3.2,10.8,3.9,15.8,4.7
		c3.5,0.5,7.1,1.1,10.7,1.2c3.6,0.1,7.3-0.8,10.9-1.2c2.5-0.3,4.5-1,6.9-1.5c3.3-0.6,5.7-2.5,9.2-2.5c0.2,2.1-5.4,3-6.8,3.6
		c-3.2,1.4-7.1,2-10.4,2.3c-2.7,0.3-5.3,1-8,1c-3.5,0-6.8-0.5-10.2-0.9c-4-0.5-7.8-1-11.7-2.2c-1.4-0.4-2.8-0.8-4.1-1.2
		c-0.7-0.2-2.8-1-3.1-1.6c-2.9-2.6-6.8-3.9-9.8-6.3c-1.3-1-2.8-2.2-3.9-3.4C75.5,177,78,175.6,78.8,177.2
		C79,177.7,78.1,175.8,78.8,177.2z"/>
	<path class="st9" d="M239.6,163.5c2.2,3.7,4.3,7.8,6,11.9c-1.4,1.3-8.4-11.9-8.4-13.5c-1.9-1.1-4.3-1.2-5.9-2.6
		c-1.3-1.1-7-1.6-6.5-4.2c4.4,0.5,8.1,4,12.5,4.9c0.9,2.4,6.2-2.5,7.5-3.4c2.4-1.7,4.7-3.6,7.4-5c0.6-0.3,1.6-1.2,2.1-1.4
		c1.4-0.3,2.1,0.5,0.9,1.5c-2.1,1.8-4.9,2.9-7.1,4.6c-1.5,1.2-3.4,2.3-5,3.7c-0.6,0.6-2,2-3,2c0.5,0.7,1.8,1.3,2.4,1.9
		c1,0.8,2.3,1.8,3.4,2.4c1.3,0.6,2.6,1.8,3.9,2.8c0.4,0.3,3.1,1.7,2.8,1.7c-0.2-0.2-0.4-0.1-0.6,0c0.3,0.9,1.9,0.4,1.8,1.6
		c-2.4,0.5-4.7-2.5-6-3.5c-1-0.7-2.1-1.1-3.1-1.8C243.5,166.1,240.9,163.5,239.6,163.5C240.1,164.3,239.8,163.5,239.6,163.5z"/>
	<path class="st9" d="M282.9,161.9c-1.6,0.8-8-5.9-9.4-7c-4.3-3.5-8.4-7.5-12.5-11.3c-3.3-3-6.5-6.6-10.1-9.3
		c-0.4-0.3-4-3.3-3.9-3.6c0,0-1-1.3-1-1.4c-1.2,0.5-2.2,1.4-3.1,2.3c1.4,1.5,3.1,2.8,4.5,4.2c0.2,0.2,1.9,1.7,2.1,1.7
		c-0.1,0.7-6.3-4.2-6.9-4.6c-0.9-0.6-1.5,0.2-2.6,0.9c-2,1.3-4,2.2-6.1,3.2c-2.7,1.3-5.3,3.9-8.2,4.6c-0.9,0.2-1.8,0.8-2.4,1.2
		c-1.9,1.3-4,2.2-5.9,3.5c-8.8,5.7-17.9,11.6-27.5,16.6c-5.7,3-11.5,5.9-16.5,9.8c-2,1.5,0,2.1,1.2,3.5c2.9,3.4,6.6,6.2,9.7,9.3
		c3.5,3.5,7.1,6.6,10.6,10.2c2.1,2.2,4.3,4,6.5,6.1c1.3,1.3,2.5,3.2,4,4.1c2,1.2-0.1,2.2-1.6,0.6c-9.4-9.5-19.1-18.8-28.8-27.6
		c-1.1-1-6-4.4-4.6-6.1c0.5-0.6,1.9-1.2,2.7-1.7c1-0.6,1.9-1.5,2.9-2.1c1.7-1.1,3-2.1,5.1-3.1c3.7-1.9,7.8-3.9,11.2-6.2
		c3.1-2.1,6.5-3.7,9.7-5.6c3.3-2,6.3-4.2,9.6-6.2c2.5-1.6,5.1-3.4,7.5-4.8c3.9-2.2,8.1-3.9,11.9-6.3c1.5-0.9,2.6-1.4,4.2-2.1
		c1.1-0.5,2.7-2.1,3.8-2.2c2.4-0.2,4-3.3,6-4.2c2.2-1,5.7,3.3,7.2,4.9c2,2,4.1,3.9,6,5.6c5.9,5.1,11.3,10.6,17.4,15.5
		C276.6,155.1,283.5,159.6,282.9,161.9C281.6,162.5,283.2,160.6,282.9,161.9z"/>
	<path class="st9" d="M294.8,163.9c1.8,0,1,2,0.9,3.2c-0.1,1.1-0.3,4.7-1.1,5.4c-0.4,0.3-0.8,1.9-1.5,1.7c-1-0.2-4.2,3.2-5.1,3.9
		c-2,1.9-5.5,2.6-7.3,4.7c-2.9,3.2-8.1,5.4-11.8,7.6c-5.6,3.3-10.8,6.8-16.2,10.4c-1.1,0.7-2.5,1.8-3.6,2.1
		c-1.4,0.4-2.4,2.2-3.7,2.5c-0.8,0.2-1.2,1-1.8,1.4c-0.1,0.1-2.3,1-2.3,1c-0.1,0-1.6,0.6-1.8,0.8c-0.6,0.8-2.2,1.6-3.3,2.3
		c-3.4,2.2-7,4.5-10.5,6.5c-2.3,1.3-4.5,2.9-6.7,4.2c-3.2,2-6.7,3.7-10.1,5.4c-2.7,1.4-5.6,2.7-8.7,3.4c-2.2,0.5-4,0-6.1-0.4
		c-2.9-0.6-0.8-2,1.1-1.8c7.5,0.7,12.4-3.1,18.9-6.2c4.8-2.3,8.8-6,13.5-8.4c3.6-1.8,7.5-4,10.7-6.5c2.4-1.8,5.3-2.8,7.9-4.7
		c3.6-2.7,7.4-4.5,11-6.9c3.8-2.6,7.5-5,11.6-7.3s9.5-4.9,12.7-8.2c1.4-1.5,5.2-1.9,6-4c0.5-1.2,4.2-3,5.4-3.9
		C292.9,170.8,293.7,164.3,294.8,163.9C295,163.9,294.5,164,294.8,163.9z"/>
</g>
</svg>
