<?xml version="1.0" encoding="utf-8"?>
<!-- Generator: Adobe Illustrator 14.0.0, SVG Export Plug-In . SVG Version: 6.00 Build 43363)  -->
<!DOCTYPE svg PUBLIC "-//W3C//DTD SVG 1.1//EN" "http://www.w3.org/Graphics/SVG/1.1/DTD/svg11.dtd">
	<svg id="rocket" data-name="rocket" xmlns="http://www.w3.org/2000/svg" viewBox="0 0 372.07 751.73">
		<defs>
		<style>
			.rocket-1 {
			fill: #4c687d;
			}

			.rocket-2 {
			fill: #d8d8d8;
			}

			.rocket-3 {
			fill: #d1eafd;
			}

			.rocket-4 {
			fill: #6b91af;
			}

			.rocket-5 {
			fill: #ebf6fe;
			}
		</style>
		</defs>
		<g>
		<path class="rocket-1" d="M127.15,580.73a32.26,32.26,0,0,0-11.77,3.79,46.13,46.13,0,0,0-14.15,12.12,88.85,88.85,0,0,0-11.81,20,181.91,181.91,0,0,0-10.13,30.6,318.94,318.94,0,0,0-6,31.71q-1.6,11.32-2.59,22.72c-1,11.83-1.74,23.68-1.86,35.55a5.1,5.1,0,0,0,0,.55c.05.52-.16.75-.7.72s-1.1,0-1.64,0H56.74c-1.07,0-1.08,0-1.29-1.09q-1.82-9.54-3.63-19.09Q49,703.56,46.18,688.85t-5.59-29.3Q37.78,644.84,35,630.12l-5.34-28-5.31-27.82c-.33-1.7-.66-3.4-1-5.1-.09-.49-.28-2.34-.28-2.8,0-1.09.17-2.06.17-3.27,1.54-19.38,7.71-37.31,17-54.25A199.91,199.91,0,0,1,67.5,471.18,249.52,249.52,0,0,1,105,437.24c.18-.13.38-.25.57-.37a5.28,5.28,0,0,1,.25,1.62c.49,6,.93,12,1.49,18q1,10.91,2.34,21.79t2.87,22q2.28,15.85,5.07,31.62,4.21,23.79,9.54,47.35A2.29,2.29,0,0,1,127.15,580.73Z" transform="translate(-23.04 -20.14)"/>
		<path class="rocket-1" d="M134.51,166.53c1.85-7,3.78-14,6-20.88A397.23,397.23,0,0,1,159.32,99a566,566,0,0,1,44.09-76.84c.46-.67.93-1.34,1.4-2h.27c-.14.4.22.57.4.79A472.44,472.44,0,0,1,256.24,101a486.2,486.2,0,0,1,26.25,61.47c.46,1.34.91,2.67,1.37,4-.05.8-.8.8-1.28,1-20.33,9.58-41.81,14.17-64.2,14.83A197.86,197.86,0,0,1,183,180.19a219.22,219.22,0,0,1-34.33-8c-4.43-1.42-8.81-3-13.1-4.78C135.16,167.22,134.58,167.18,134.51,166.53Z" transform="translate(-23.04 -20.14)"/>
		<path class="rocket-2" d="M199.32,771.86l0-.34c2.1,0,4.19,0,6.29,0,1.82,0,3.64-.1,5.46.07v.28Z" transform="translate(-23.04 -20.14)"/>
		<path class="rocket-3" d="M134.51,166.53c.07.65.65.69,1.08.87,4.29,1.81,8.67,3.36,13.1,4.78a219.22,219.22,0,0,0,34.33,8,197.86,197.86,0,0,0,35.36,2.21c22.38-.66,43.87-5.26,64.2-14.83.48-.23,1.23-.23,1.28-1,1.58,4,2.71,8.1,4,12.17q1.13,3.51,2.16,7.05c1.29,4.46,2.59,8.91,3.81,13.39,1.1,4,2.13,8.09,3.13,12.16,2,8.21,3.9,16.44,5.47,24.75.85,4.5,1.8,9,2.63,13.5.64,3.53,1.16,7.08,1.73,10.62.44,2.78.9,5.55,1.31,8.34.32,2.2.59,4.41.88,6.61.35,2.56.72,5.12,1,7.69.24,1.89.39,3.79.61,5.69.24,2.12.52,4.23.76,6.35.13,1.08.22,2.17.32,3.26.15,1.67.23,3.35.5,5,.16,1,.15,2.09.24,3.12.12,1.45.3,2.9.38,4.35.11,1.9.2,3.81.47,5.7a35.82,35.82,0,0,1,.26,3.94c.07,2.28.21,4.56.43,6.81s-.09,4.65.44,6.94a1,1,0,0,1,0,.27c-.16,2.88.25,5.73.31,8.61.11,4.42.11,8.85.3,13.27.44,10.09.21,20.18.13,30.27,0,3.69,0,7.39-.25,11.07-.2,2.51,0,5-.27,7.51-.22,2.14-.1,4.28-.25,6.42-.25,3.4-.38,6.81-.57,10.22-.15,2.77-.3,5.54-.56,8.3a41.08,41.08,0,0,1-.38,4.89c0,.19.11.43.17.64-.3.16-.24.47-.26.73-.54,7.19-1.19,14.38-1.89,21.56q-1.14,11.59-2.59,23.13-1.89,15-4.26,30c-1.54,9.73-3.27,19.44-5.07,29.12-2.54,13.68-5.79,27.2-8.65,40.81-.49.38-.42,1-.55,1.48-1.33,5.06-2.62,10.14-3.92,15.21,0,.12-.15.22-.23.32-1.25.66-2.48,1.34-3.74,2-2.84,1.45-5.76,2.72-8.7,4a161.9,161.9,0,0,1-22.36,7.52c-4.92,1.29-9.91,2.29-14.91,3.17q-3.28.58-6.6.92c-1.85.19-3.69.43-5.55.59a63.16,63.16,0,0,1-7.2.47c0-.59,0-1.19,0-1.78.15-5.2.31-10.4.45-15.61q.4-14.51.77-29,.58-22.8,1.14-45.6c.23-9.63.29-19.27.4-28.9.08-7,.35-14.06.32-21.09a184.94,184.94,0,0,0-1.19-21.18,47.54,47.54,0,0,0-2.44-10.92,16.87,16.87,0,0,0-3.24-5.67,7.55,7.55,0,0,0-11.66.05A16.27,16.27,0,0,0,198.5,441a44.63,44.63,0,0,0-3,10.64A116.51,116.51,0,0,0,194,465.07c-.35,6.11-.49,12.23-.36,18.35.18,8.12.46,16.25.63,24.37.18,8.81.26,17.62.41,26.44q.33,19,.7,37.93.23,12.67.44,25.34.16,9.31.33,18.62a22,22,0,0,1-3.53-.19c-3.08-.27-6.13-.68-9.19-1.11q-6.28-.89-12.44-2.33a171.91,171.91,0,0,1-16.91-4.85,169.35,169.35,0,0,1-21.31-8.84,2.49,2.49,0,0,0-1.14-.43c-1.14-4.16-2.06-8.38-3-12.58-.29-1.24-.55-2.48-.85-3.72a2.07,2.07,0,0,0-.6-1.33,2.29,2.29,0,0,0,0-1.47q-5.32-23.56-9.54-47.35-2.79-15.77-5.07-31.62-1.58-11-2.87-22t-2.34-21.79c-.56-6-1-12-1.49-18a5.28,5.28,0,0,0-.25-1.62,62.34,62.34,0,0,0-.51-8.16,1.67,1.67,0,0,1,0-.27,52.57,52.57,0,0,0-.37-7.5c-.21-2.54.1-5.11-.44-7.62a1.07,1.07,0,0,1,0-.27c.15-3.1-.19-6.19-.31-9.29-.28-7.35-.17-14.69-.32-22,0-2.18-.31-4.38-.17-6.55.41-6.25,0-12.51.3-18.75.13-2.73,0-5.48.26-8.19.21-2.23.1-4.47.25-6.69.24-3.5.39-7,.56-10.49.14-2.77.34-5.54.54-8.3.18-2.58.36-5.17.55-7.75.22-3,.58-6.06.81-9.09.2-2.76.52-5.51.81-8.27.35-3.29.64-6.6,1.12-9.88.57-3.91,1-7.83,1.54-11.74.56-4.18,1.13-8.37,1.77-12.53.81-5.2,1.7-10.39,2.61-15.57,1.29-7.38,2.8-14.72,4.25-22.07.78-4,1.78-7.89,2.68-11.83,1.11-4.88,2.26-9.74,3.53-14.58,1.47-5.59,3-11.17,4.55-16.72,1.45-5.08,3-10.13,4.53-15.18A2,2,0,0,1,134.51,166.53Zm75.5,67a69.51,69.51,0,1,0,69.52,69.85A69.58,69.58,0,0,0,210,233.5Z" transform="translate(-23.04 -20.14)"/>
		<path class="rocket-1" d="M290.39,580.76c2.86-13.61,6.11-27.14,8.65-40.81,1.8-9.69,3.52-19.39,5.07-29.12q2.37-14.94,4.26-30,1.45-11.55,2.59-23.13c.71-7.18,1.35-14.36,1.89-21.56,0-.26,0-.56.26-.73a246.89,246.89,0,0,1,48.45,47,173.53,173.53,0,0,1,24.3,41.27,131.16,131.16,0,0,1,8,28.37c.51,3.11.84,6.24,1.13,9.38a35.2,35.2,0,0,1-.85,10.05c-1.94,9.89-3.81,19.8-5.7,29.7l-6.11,32q-3,15.52-5.94,31-3.23,16.87-6.47,33.73-2.81,14.72-5.61,29.44c-.54,2.82-1.12,5.64-1.61,8.47-.13.77-.46.93-1.17.93-3.7,0-7.4,0-11.1,0-1.06,0-1.09,0-1.09-1,0-6.17-.31-12.33-.66-18.48q-.56-9.57-1.51-19.12c-.57-5.72-1.22-11.44-2-17.13-2.68-19-6.43-37.77-13.15-55.82A109.47,109.47,0,0,0,320.45,602a57.76,57.76,0,0,0-11.35-12.74A36.73,36.73,0,0,0,291,581,2.92,2.92,0,0,1,290.39,580.76Z" transform="translate(-23.04 -20.14)"/>
		<path class="rocket-1" d="M196.17,616.11q-.16-9.31-.33-18.62-.22-12.67-.44-25.34-.34-19-.7-37.93c-.15-8.81-.23-17.62-.41-26.44-.17-8.12-.45-16.25-.63-24.37-.13-6.12,0-12.23.36-18.35a116.51,116.51,0,0,1,1.46-13.47,44.63,44.63,0,0,1,3-10.64,16.27,16.27,0,0,1,2.67-4.28,7.55,7.55,0,0,1,11.66-.05,16.87,16.87,0,0,1,3.24,5.67,47.54,47.54,0,0,1,2.44,10.92,184.94,184.94,0,0,1,1.19,21.18c0,7-.24,14.06-.32,21.09-.11,9.63-.18,19.27-.4,28.9q-.54,22.8-1.14,45.6-.37,14.51-.77,29c-.14,5.2-.31,10.41-.45,15.61,0,.59,0,1.18,0,1.78a3.83,3.83,0,0,0-.05.41c-.26,8.74-.55,17.48-.76,26.23-.08,3.55-.35,7.1-.26,10.65-.12,3.73-.25,7.46-.36,11.19q-.26,8.53-.5,17.06-.33,10.75-.65,21.5-.55,17.8-1.1,35.6-.5,15.54-1.05,31.08c0,.6.2,1.36-.79,1.45-1.82-.17-3.64-.06-5.46-.07-2.1,0-4.19,0-6.29,0-.15-5.66-.32-11.32-.45-17q-.41-19-.77-37.94-.35-17.12-.71-34.24c0-.32,0-.64-.06-1s0-.64,0-1c-.1-5.33-.19-10.65-.3-16-.08-3.69-.19-7.37-.29-11.06,0-.45.05-.91,0-1.36q-.24-12.51-.48-25Q196.28,621.58,196.17,616.11Z" transform="translate(-23.04 -20.14)"/>
		<path class="rocket-4" d="M215.55,653.7c-.09-3.55.18-7.1.26-10.65.2-8.74.5-17.49.76-26.23a3.83,3.83,0,0,1,.05-.41,63.16,63.16,0,0,0,7.2-.47c1.86-.16,3.7-.4,5.55-.59q3.32-.34,6.6-.92c5-.89,10-1.88,14.91-3.17a161.9,161.9,0,0,0,22.36-7.52c2.93-1.25,5.86-2.52,8.7-4,1.26-.64,2.49-1.32,3.74-2a62.25,62.25,0,0,1-1.75,6.45q-3.65,12.52-7.36,25c-1.12,3.8-2.28,7.58-3.42,11.37-.33-.41-.69-.1-1,0-.47.15-.9.45-1.37.63-4.82,1.91-9.63,3.85-14.61,5.33-2.44.73-4.87,1.5-7.32,2.18-3.94,1.09-7.93,2-11.95,2.69-1.65.3-3.3.66-5,.85-2.66.3-5.3.69-8,.91A76.43,76.43,0,0,1,215.55,653.7Z" transform="translate(-23.04 -20.14)"/>
		<path class="rocket-1" d="M215.55,653.7a76.43,76.43,0,0,0,8.43-.48c2.67-.22,5.32-.6,8-.91,1.66-.19,3.31-.54,5-.85,4-.74,8-1.6,11.95-2.69,2.45-.68,4.88-1.46,7.32-2.18,5-1.48,9.79-3.42,14.61-5.33.47-.18.89-.48,1.37-.63.3-.1.67-.4,1,0-.77,2.86-1.53,5.72-2.33,8.57-1.68,6-3.4,11.92-5.06,17.88a1.82,1.82,0,0,1-1,1.31A136.14,136.14,0,0,1,236,678.72a116,116,0,0,1-14.26,2.44c-2,.21-4.07.46-6.12.53a1.51,1.51,0,0,0-.9.27q.25-8.53.5-17.06C215.31,661.16,215.44,657.43,215.55,653.7Z" transform="translate(-23.04 -20.14)"/>
		<path class="rocket-4" d="M196.17,616.11q.11,5.47.22,10.93.24,12.51.48,25c0,.45,0,.91,0,1.36a5.53,5.53,0,0,1-.82,0c-2.72-.44-5.48-.66-8.21-1-3.91-.54-7.77-1.3-11.61-2.16a140.46,140.46,0,0,1-17.24-5.06,132.94,132.94,0,0,1-16.47-7.28,7.62,7.62,0,0,0-2.3-1.16c-.65-2.79-1.32-5.58-1.94-8.38-1.34-6-2.65-12.09-4-18.14-.69-3.16-1.41-6.31-2.08-9.47-.17-.79-.7-1.5-.51-2.37a2.5,2.5,0,0,1,1.14.43,169.35,169.35,0,0,0,21.31,8.84A171.91,171.91,0,0,0,171,612.48q6.16,1.43,12.44,2.33c3.06.43,6.11.84,9.19,1.11A22,22,0,0,0,196.17,616.11Z" transform="translate(-23.04 -20.14)"/>
		<path class="rocket-1" d="M140.16,636.72a7.62,7.62,0,0,1,2.3,1.16,132.94,132.94,0,0,0,16.47,7.28,140.46,140.46,0,0,0,17.24,5.06c3.84.86,7.7,1.61,11.61,2.16,2.73.38,5.49.59,8.21,1a5.53,5.53,0,0,0,.82,0c.1,3.69.21,7.37.29,11.06.11,5.33.2,10.65.3,16,0,.32,0,.64,0,1a120.26,120.26,0,0,1-14.57-2.22,121.88,121.88,0,0,1-28-9.66,77.09,77.09,0,0,1-8-4.46,1.85,1.85,0,0,1-1-1.22Q143,650.28,140.16,636.72Z" transform="translate(-23.04 -20.14)"/>
		<path class="rocket-1" d="M210,233.5a69.51,69.51,0,1,1-69.51,69.19A69.52,69.52,0,0,1,210,233.5Zm-49.53,69.94a49.31,49.31,0,1,0,49.69-49.24A49.29,49.29,0,0,0,160.48,303.44Z" transform="translate(-23.04 -20.14)"/>
		<path class="rocket-5" d="M160.48,303.44a49.31,49.31,0,1,1,49.28,49.36A49.4,49.4,0,0,1,160.48,303.44Z" transform="translate(-23.04 -20.14)"/>
		</g>
	</svg>
	<svg id="flame-1" data-name="flame-1" xmlns="http://www.w3.org/2000/svg" viewBox="0 0 137 403">
		<defs>
		<style>
			.flame-1 {
			fill: #f15a24;
			}

			.flame-2 {
			fill: #c1272d;
			}

			.flame-2, .flame-3 {
			opacity: 0.4;
			}

			.flame-3 {
			fill: #f7931e;
			}
		</style>
		</defs>
		<path class="flame-1" d="M105.2,433C60.76,433,39,357,39,319.58,39,277.35,97,97.57,97,30c15.42,88.08,76,216.83,78.9,304.06C177.75,389.56,142.38,433,105.2,433Z" transform="translate(-39 -30)"/>
		<path class="flame-2" d="M104.1,425.88c-39.39,0-58.69-63.54-58.69-94.81,0-35.3,51.45-185.59,51.45-242.07,13.67,73.63,67.42,181.25,69.94,254.17C168.42,389.57,137.06,425.88,104.1,425.88Z" transform="translate(-39 -30)"/>
		<path class="flame-3" d="M113.19,417.29c-29.7-2.44-42-53.16-40.83-77.53,1.27-27.52,45.48-141.48,47.52-185.51,7.65,58.24,44.29,145.45,43.57,202.45C163,393,138,419.33,113.19,417.29Z" transform="translate(-39 -30)"/>
		<path class="flame-3" d="M99.17,426.12c33.78,0,50.32-52.46,50.32-78.27,0-29.14-44.12-153.22-44.12-199.85-11.72,60.79-57.8,149.64-60,209.84C44,396.14,70.9,426.12,99.17,426.12Z" transform="translate(-39 -30)"/>
		<path class="flame-3" d="M97.58,417.68c-28.57,1-43.5-45-44-67.92-.52-25.86,34.56-137.31,33.72-178.68,11,53.58,51.58,131,54.5,184.38C143.68,389.4,121.48,416.82,97.58,417.68Z" transform="translate(-39 -30)"/>
	</svg>
	<svg id="flame-2" data-name="flame-2" xmlns="http://www.w3.org/2000/svg" viewBox="0 0 155 387">
		<defs>
			<style>
				.flame-1 {
				fill: #f15a24;
				}

				.flame-2 {
				fill: #c1272d;
				}

				.flame-2, .flame-3 {
				opacity: 0.4;
				}

				.flame-3 {
				fill: #f7931e;
				}
			</style>
		</defs>
		<path class="flame-1" d="M292.1,433c50.27,0,74.9-73,74.9-108.92,0-40.55-65.66-213.2-65.66-278.08-17.44,84.58-86,208.22-89.26,292C210,391.29,250,433,292.1,433Z" transform="translate(-212 -46)"/>
		<path class="flame-2" d="M288.35,426.16c47.92,0,71.39-58.3,71.39-87,0-32.39-62.59-170.28-62.59-222.11-16.63,67.56-82,166.31-85.08,233.21C210.12,392.85,248.26,426.16,288.35,426.16Z" transform="translate(-212 -46)"/>
		<path class="flame-3" d="M283.06,417.94c33.58-2.08,47.26-47.78,45.89-69.76-1.54-24.82-52-127.79-54.45-167.51-8.43,52.5-49.55,131-48.52,182.42C226.65,395.79,255,419.67,283.06,417.94Z" transform="translate(-212 -46)"/>
		<path class="flame-3" d="M298.93,426.39c-38.21,0-56.93-47.48-56.93-70.84,0-26.38,49.91-138.67,49.91-180.87,13.26,55,65.4,135.43,67.85,189.92C361.32,399.26,330.9,426.39,298.93,426.39Z" transform="translate(-212 -46)"/>
		<path class="flame-3" d="M298.86,418.34c31.08.95,47.33-41.52,47.84-62.65.57-23.85-37.59-126.64-36.68-164.8-12,49.42-56.12,120.85-59.29,170.06C248.7,392.26,272.85,417.55,298.86,418.34Z" transform="translate(-212 -46)"/>
	</svg>
	<svg id="flame-3" data-name="flame-3" xmlns="http://www.w3.org/2000/svg" viewBox="0 0 137 398">
		<defs>
		<style>
			.flame-1 {
			fill: #f15a24;
			}

			.flame-2 {
			fill: #c1272d;
			}

			.flame-2, .flame-3 {
			opacity: 0.4;
			}

			.flame-3 {
			fill: #f7931e;
			}
		</style>
		</defs>
		<path class="flame-1" d="M484.2,433c-44.44,0-66.2-75.07-66.2-112,0-41.71,58-219.26,58-286,15.42,87,76,214.13,78.9,300.29C556.75,390.1,521.38,433,484.2,433Z" transform="translate(-418 -35)"/>
		<path class="flame-2" d="M478.72,425.77c-39.38-1-57.11-61.29-56.35-90.7.86-33.2,56-173.21,57.36-226.34,11.86,69.61,63,172.23,63.7,240.88C543.91,393.29,511.67,426.63,478.72,425.77Z" transform="translate(-418 -35)"/>
		<path class="flame-3" d="M492.19,418c-29.7-2.24-42-48.76-40.83-71.12,1.27-25.24,45.48-129.78,47.52-170.17,7.65,53.42,44.29,133.42,43.57,185.71C542,395.71,517,419.89,492.19,418Z" transform="translate(-418 -35)"/>
		<path class="flame-3" d="M491.17,424.12c33.78,0,50.32-48.12,50.32-71.8,0-26.73-44.12-140.55-44.12-183.32-11.72,55.76-57.8,137.26-60,192.49C436,396.62,462.9,424.12,491.17,424.12Z" transform="translate(-418 -35)"/>
		<path class="flame-3" d="M476.58,418.38c-28.57.94-43.5-41.29-44-62.31-.52-23.72,34.56-126,33.72-163.91,11,49.15,51.58,120.19,54.5,169.13C522.68,392.44,500.48,417.59,476.58,418.38Z" transform="translate(-418 -35)"/>
	</svg>
