<?xml version="1.0" encoding="utf-8"?>
<!-- Generator: Adobe Illustrator 16.0.0, SVG Export Plug-In . SVG Version: 6.00 Build 0)  -->
<!DOCTYPE svg PUBLIC "-//W3C//DTD SVG 1.1//EN" "http://www.w3.org/Graphics/SVG/1.1/DTD/svg11.dtd">
<svg version="1.1" id="Layer_1" xmlns="http://www.w3.org/2000/svg" xmlns:xlink="http://www.w3.org/1999/xlink" x="0px" y="0px"
	 width="1370.93px" height="826.281px" viewBox="0 0 1370.93 826.281" enable-background="new 0 0 1370.93 826.281"
	 xml:space="preserve">
<path fill-rule="evenodd" clip-rule="evenodd" fill="#D8E0ED" d="M1360.844,801.573c-4.094-12.751-12.932-24.26-27.146-25.392
	c-22.221-1.77-28.469,33.539-52.127,34.653c-8.013-16.955,21.932-14.225,3.168-38.476c-8.012-10.353-27.166-7.729-8.73-26.25
	c13.147-13.207,43.659-0.412,51.683-19.272c5.803-13.637-3.58-33.39-14.935-41.204c-19.341-13.312-28.671,10.908-36.916,24.918
	c-6.334,10.764-12.938,23.18-20.358,32.862c-8.005,10.446-21.774,15.139-35.315,19.175c-20.937,6.242-18.643-4.98-18.619-20.784
	c0.025-17.289-13.302-23.839-27.894-20.287c-14.379,3.5-23.901,2.75-37.812,1.789c-5.337-0.369-12.921-1.948-18.504,1.313
	c-6.055,3.537-5.928,9.782-9.771,15.362c-7.399,10.737-21.573,9.896-24.4-3.962c-2.635-12.901,2.201-19.768-10.827-30.113
	c-9.033-7.171-21.608-4.991-31.956,1.169c-11.508,6.85-13.146,22.9-23.285,31.432c-23.326,19.623-23.972-12.588-34.971-25.306
	c-20.228-23.384-61.277,6.795-86.617,1.878c-12.742-2.474-27.769-10.935-25.851-25.883c1.942-15.14,15.656-19.076,28.028-22.031
	c13.762-3.289,31.492-0.229,38.671-15.766c7.647-16.55-3.106-24.047-18.727-20.765c-14.927,3.137-23.788,12.265-31.583-6.016
	c-5.45-12.784,2.852-21.895,10.686-31.454c9.693-11.834,16.711-29.414,6.887-43.381c-8.336-11.852-24.143-14.857-37.718-13.248
	c-11.342,1.344-31.419,10.086-35.761,21.426c-3.047,7.955,1.839,21.207-5.676,27.113c-10.204,8.019-15.498-8.574-24.585-5.759
	c-10.19,3.155-8.595,21.531-15.752,26.984c-8.992,6.854-15.8-2.901-18.848-10.333c-1.844-4.493-1.624-9.754-3.917-13.811
	c-3.118-5.512-12.292-15.861-17.622-20.997c-8.137-7.841-14.206-9.06-24.938-6.312c-8.594,2.2-18.051,11.057-25.516,15.821
	c-10.825,6.907-20.161,14.765-32.11,20.024c-22.791,10.031-49.186,13.188-72.371,2.559c-19.804-9.081-18.114-32.488-46.78-24.354
	c-20.764,5.894-28.074,29.266-37.349,46.011c-4.22,7.619-14.686,18.392-23.734,19.595c-13.216,1.76-21.839-14.796-24.964-25.687
	c-5.652-19.692,1.021-28.163-14.496-39.989c-35.97-27.412-88.905,40.577-94.199-10.654c15.437-5.236,5.396-17.98-7.357-21.156
	c-7.571-1.885-27.357,3.519-35.21,7.604c-10.339,5.378-22.508,27.062-32.907,25.322c-10.151-1.7-17.687-20.532-20.042-28.992
	c-14.932,0.038-28.812,5.519-30.316,22.68c-1.768,20.141,18.005,22.304,22.145,38.875c3.171,12.692-9.175,37.897-23.045,40.929
	c-6.853,1.499-14.997-6.938-22.042-8.303c-21.701-4.2-29.096,9.08-48.242,8.445c-5.401-11.614-2.514-51.583-19.379-48.729
	c-16.102,2.727-14.225,48.31-41.474,20.095c-11.632-12.044-8.875-32.32-23.657-44.005c-16.031-12.67-14.659-1.046-31.896-3.163
	c-23.949-2.941,16.726-50.475-6.692-50.296C17.099,517.558,6.44,527.284,0,535.955c0,0-0.039,290.332,0,290.326l1371.226-0.069
	l-0.592,0.139l0,0"/>
</svg>
