<?xml version="1.0" encoding="utf-8"?>
<!-- Generator: Adobe Illustrator 16.0.0, SVG Export Plug-In . SVG Version: 6.00 Build 0)  -->
<!DOCTYPE svg PUBLIC "-//W3C//DTD SVG 1.1//EN" "http://www.w3.org/Graphics/SVG/1.1/DTD/svg11.dtd">
<svg version="1.1" id="Layer_1" xmlns="http://www.w3.org/2000/svg" xmlns:xlink="http://www.w3.org/1999/xlink" x="0px" y="0px"
	 width="169.785px" height="170.857px" viewBox="2297.12 0 169.785 170.857" enable-background="new 2297.12 0 169.785 170.857"
	 xml:space="preserve">
<g>
	<defs>
		<circle id="XMLID_14_" cx="2382.012" cy="85.428" r="79.63"/>
	</defs>
	<use xlink:href="#XMLID_14_"  overflow="visible" fill="#F4F4F4"/>
	<clipPath id="XMLID_16_">
		<use xlink:href="#XMLID_14_"  overflow="visible"/>
	</clipPath>
	<g clip-path="url(#XMLID_16_)">
		<path fill="#B3B4B4" stroke="#808080" stroke-miterlimit="10" d="M2363.792,34.753c-2.943,1.809-7.775,4.918-8.188,8.419
			c-0.254,2.147-0.16,2.868-2.459,3.528c-2.316,0.665-4.074,1.145-5.566,3.351c-0.447,0.661-0.484,1.322-0.838,1.946
			c-0.508,0.894-0.97,0.914-1.547,1.541c-0.617,0.668-0.816,1.538-1.346,2.42c-0.893,1.485-2.453,2.836-3.643,4.306
			c-1.004,1.242-1.773,2.048-1.225,3.838c0.4,1.308,2.023,1.642,2.24,3.009c0.242,1.518-1.442,3.111-1.578,4.614
			c-0.197,2.201,2.334,4.154,1.535,6.581c-0.666,2.023-2.315,1.167-1.666,3.281c0.357,1.159,1.822,3.308,2.723,4.288
			c2.086,2.27,4.223,2.023,4.484,5.488c0.209,2.744,0.81,3.678,3.091,5.53c1.356,1.102,3.211,1.632,2.169,3.622
			c2.314,0.109,2.336,0.09,3.625,1.693c0.889,1.104,2.331,2.548,3.985,2.336c1.663-0.213,2.296-1.994,3.991-2.336
			c1.487-0.301,3.501-0.027,4.605,0.744c2.316,1.618,1.872,2.144,5.433,2.531c2.331,0.254,2.405,0.117,4.087,0.879
			c2.096,0.949,4.444,1.775,6.835,1.346c1.578-0.285,2.174-1.144,3.386-2.001c0.988-0.698,1.837-1.126,3.02-1.142
			c2.525-0.033,2.805,0.35,5.405-0.57c1.907-0.676,3.581-0.066,5.392-1.01c2.201-1.146,2.978-3.301,4.561-5.041
			c1.299-1.426,2.34-2.311,1.305-4.246c1.076-0.811,2.722-1.091,3.992-1.687c-0.297-6.808,9.476-9.72,8.52-16.773
			c-0.28-2.068-1.792-3.763-1.56-5.872c0.399-3.608,1.979-6.19,1.907-9.999c-0.051-2.698-0.442-6.569-2.125-8.772
			c-0.976-1.278-2.52-2.292-3.938-3.172c-1.377-0.854-1.846-0.622-3.133-1.045c-1.332-0.438-3.294-1.669-4.337-2.662
			c-1.854-1.764-0.511-3.913-3.019-5.432c-3.738-2.264-7.643-4.307-10.827-7.417c-1.472-1.438-2.276-2.244-4.542-2.332
			c-2.253-0.087-6.198,0.15-8.133,1.18c-1.697,0.903-3.42,1.77-5.21,2.49c-0.59,0.237-1.505,0.238-2.01,0.611
			c-0.483,0.357-0.46,1.156-0.948,1.529c-0.941,0.719-1.361,0.905-2.586,0.852C2367.63,35.113,2365.818,33.51,2363.792,34.753z"/>
		<path fill="#D7C8AA" stroke="#726658" stroke-miterlimit="10" d="M2394.515,94.376c0.333,7.166,1.153,11.389,3.5,16.666
			c1.333,3-10.668,6.334-17.334,6.334c-6.668,0-18.668-3.334-17.334-6.334c2.346-5.277,3.166-9.5,3.5-16.666H2394.515z"/>
		<path fill="#D7C8AA" stroke="#726658" stroke-miterlimit="10" d="M2359.347,75.042c-0.25-3.159-2.875-4.208-5.509-4.649
			c-3.184-0.533-3.944,0.778-3.659,4.149c0.258,3.036,3.473,4.439,4.408,7.305c0.305,0.937,2.874,6.571,4.092,3.195"/>
		<path fill="#D7C8AA" stroke="#726658" stroke-miterlimit="10" d="M2400.847,72.709c0.979-1.262,4.535-4.542,6.337-3.8
			c1.892,0.778,1.124,6.248,0.737,7.67c-0.512,1.876-2.061,3.203-2.704,5.038c-0.327,0.934-1.446,5.59-3.37,3.092"/>
		<path fill="#C2AE92" d="M2367.679,100.542c2.641,5.036,7.693,8.319,13.346,8.5c2.649,0.086,5.404-0.227,7.617,1.084
			c2.266,1.34,4.828,2.359,7.57,1.596c0.08-2.289-1.939-4.32-2.037-6.854c-0.074-1.912,0.443-4.086-1-5.346
			c-2.264,3.293-7.986,5.844-11.996,6.02c-5.15,0.225-9.271-1.195-12.334-5.166"/>
		<path fill="#C2AE92" d="M2358.013,75.376c-1.354-0.794-1.939-2.509-3.5-2.666c-1.33-0.133-2.386,0.84-1.686,2.24
			c0.729,1.458,2.057,1.061,2.52,2.759c0.518,1.902,0.191,2.602,2.009,3.186c0.253-0.161,0.361-0.419,0.491-0.686"/>
		<path fill="#C2AE92" d="M2401.513,75.376c0.622-2.935,5.955-6.609,4.633-1.5c-0.387,1.496-0.797,2.189-0.967,3.864
			c-0.146,1.438-0.719,3.49-2.5,2.97"/>
		<path fill="#D7C8AA" stroke="#726658" stroke-miterlimit="10" d="M2381.011,36.379c9.334,0,23.17,13.497,22.504,29.164
			c-0.667,15.667,1.833,22.5-5.167,29.167c-7,6.666-9.667,11.332-17,11.332h-2.002c-7.333,0-10-4.666-17-11.332
			c-7-6.667-4.5-13.5-5.167-29.167c-0.666-15.667,13.17-29.164,22.504-29.164H2381.011z"/>
		<path fill="#C2AE92" d="M2361.683,73.843c-4.516-3.904-0.18-10.992,4.626-11.875c3.665-0.673,6.963,0.246,8.649,3.989
			c1.182,2.622,1.383,8.001,1.055,10.748c-0.311,2.605-0.979,2.498-3.425,1.654c-1.973-0.681-3.243-1.826-5.263-2.529
			C2365.567,75.219,2363.215,75.167,2361.683,73.843z"/>
		<path fill="#998675" d="M2368.564,65.164c-0.854,0.116-1.672,0.401-2.506,0.625c-0.66,0.177-1.4,0.15-2.021,0.419
			c-0.677,0.293-1.256,0.757-1.911,1.09c-0.188,0.096-0.744,0.245-0.822,0.453c-0.15,0.406,0.823,0.298,1.118,0.333
			c1.192,0.14,0.134,0.785-0.066,1.332c-0.396,1.082,0.175,1.879,1.227,1.876c1.917-0.007,3.815-0.236,5.728-0.333
			c0.939-0.048,1.94,0.025,2.871-0.081c0.74-0.085,0.896-0.724,1.103-1.388c0.188-0.604-0.142-1.432-0.497-1.95
			c-0.41-0.595-1.16-0.702-0.805-1.479c0.127-0.279,0.254-0.604,0.295-0.908c0.07-0.505,0.041-0.566-0.385-0.44
			c-0.555,0.165-0.961,0.379-1.573,0.406C2369.735,65.146,2369.146,65.085,2368.564,65.164z"/>
		<path fill="#B3B4B4" d="M2359.513,51.209c1.922-4.029,8.692-9.579,13.012-6.645c1.135,0.772,1.449,1.729,2.654,2.145
			c1.078,0.372,2.613-0.443,3.654,0.017s1.728,1.823,2.447,2.667c1.115,1.305,2.36,2.09,3.742,3
			c4.797,3.164,10.805,3.455,15.764,5.968c2.332,1.182,2.559,2.077,3.717,4.015c0.743,1.243,1.594,1.366,2.68,1.779
			c-0.029-5.206-2.726-10.642-4.158-15.637c-1.711-5.97-6.947-10.863-12.541-13.171c-5.201-2.146-10.118-1.85-15.479-0.804
			c-3.145,0.613-6.468,3.023-9.182,4.81c-0.788,0.519-2.263,0.784-2.942,1.557c-0.533,0.606-0.666,1.663-1.034,2.472
			c-0.449,0.988-4.557,6.807-2.499,7.495"/>
		<path fill="#B3B4B4" stroke="#E6E6E6" stroke-miterlimit="10" d="M2359.347,50.876"/>
		<path fill="none" stroke="#808080" stroke-linecap="round" stroke-linejoin="round" stroke-miterlimit="10" d="M2359.513,51.209
			c1.922-4.029,8.692-9.579,13.012-6.645c1.135,0.772,1.449,1.729,2.654,2.145c1.078,0.372,2.613-0.443,3.654,0.017
			s1.728,1.823,2.447,2.667c1.115,1.305,2.36,2.09,3.742,3c4.797,3.164,10.805,3.455,15.764,5.968
			c2.332,1.182,2.559,2.077,3.717,4.015c0.743,1.243,1.594,1.366,2.68,1.779"/>
		<g>
			<path fill="#C2AE92" d="M2396.715,63.235c-2.526-1.854-6.78-2.272-9.651-1.792c-5.347,0.896-6.075,7.469-6.256,11.854
				c-0.139,3.366,0.591,7.111-3.721,7.683c-0.07,0.01,1.112,1.405,1.302,1.525c0.584,0.37,1.265,0.534,1.952,0.515
				c1.363-0.039,2.986-0.879,3.299-2.271c0.557-2.476-2.828-5.675-0.837-7.964c2.36-2.712,9.3-0.513,12.386-0.743
				c3.475-0.259,4.361-6.308,2.004-8.42C2397.042,63.486,2396.882,63.357,2396.715,63.235z"/>
		</g>
		<path fill="#754C29" d="M2382.65,80.262c-1.986,0.717-4.859,0.717-6.83-0.004c0.189,0.346,1.513,1.757,3.33,1.757
			C2381.458,82.015,2382.554,80.463,2382.65,80.262z"/>
		<path opacity="0.7" fill="#FFFFFF" stroke="#999999" stroke-width="0.5" stroke-miterlimit="10" d="M2375.683,75.132
			c0,1.193-0.967,2.16-2.16,2.16h-9.432c-1.193,0-2.16-0.967-2.16-2.16v-1.93c0-1.193,0.967-2.16,2.16-2.16h9.432
			c1.193,0,2.16,0.967,2.16,2.16V75.132z"/>
		<path opacity="0.7" fill="#FFFFFF" stroke="#999999" stroke-width="0.5" stroke-miterlimit="10" d="M2383.683,75.132
			c0,1.193,0.967,2.16,2.16,2.16h9.432c1.192,0,2.16-0.967,2.16-2.16v-1.93c0-1.193-0.968-2.16-2.16-2.16h-9.432
			c-1.193,0-2.16,0.967-2.16,2.16V75.132z"/>
		<path fill="#C1272D" d="M2380.307,92.034c0.507,0.024,1.005,0.146,1.571,0.232c1.678,0.252,3.877-1.463,3.715-3.273
			c-0.147-1.65-2.407-2.524-3.824-2.394c-1.199,0.11-1.111,1.704-2.115,1.944c-0.976,0.232-1.149-1.477-2.065-1.545
			c-0.95-0.07-2.794,0.855-3.457,1.507c-1.101,1.081,0.491,2.991,1.538,3.565c0.895,0.491,2.491,0.464,3.451,0.127
			C2379.542,92.051,2379.927,92.014,2380.307,92.034z"/>
		<path fill="#726658" d="M2371.681,89.542c-0.053,0-0.107-0.008-0.162-0.026c-0.261-0.09-0.4-0.374-0.311-0.636
			c0.324-0.945,0.906-1.651,1.474-2.293c0.184-0.207,0.499-0.227,0.706-0.044s0.227,0.499,0.043,0.706
			c-0.501,0.566-1.012,1.184-1.276,1.955C2372.083,89.412,2371.89,89.542,2371.681,89.542z"/>
		<path fill="#726658" d="M2387.49,88.93c-0.258,0-0.478-0.199-0.498-0.461c-0.043-0.561-0.136-1.114-0.525-1.371
			c-0.23-0.152-0.295-0.462-0.143-0.692c0.151-0.23,0.463-0.294,0.691-0.143c0.752,0.495,0.914,1.354,0.975,2.13
			c0.021,0.275-0.186,0.516-0.461,0.536C2387.516,88.93,2387.503,88.93,2387.49,88.93z"/>
		<path fill="#726658" d="M2378.63,90.29c-2.242,0-4.737-0.455-6.25-1.599c-0.221-0.167-0.264-0.479-0.098-0.7
			c0.166-0.222,0.48-0.266,0.7-0.098c1.683,1.271,5.052,1.604,7.508,1.278l0.343-0.045c1.602-0.208,4.582-0.597,5.756-1.698
			c0.201-0.189,0.519-0.18,0.707,0.021c0.189,0.201,0.179,0.518-0.022,0.707c-1.409,1.323-4.478,1.723-6.312,1.961l-0.34,0.045
			C2380.008,90.245,2379.332,90.29,2378.63,90.29z"/>
		<path fill="#998675" d="M2369.833,62.262c-1.707-0.128-3.732,0.233-5.342,0.796c-0.77,0.269-1.385,0.506-2.002,1.037
			c-0.756,0.65-0.939,1.222-1.437,2.027c-0.395-1.339,0.899-2.685,1.858-3.518c1.158-1.008,2.59-1.573,4.004-1.846
			c0.557-0.107,1.144-0.043,1.701-0.167c0.52-0.115,1.047-0.536,1.551-0.63c0.869-0.163,2.273,1.296,2.402,2.093
			C2372.806,63.511,2370.531,62.314,2369.833,62.262z"/>
		<path fill="#FFFFFF" stroke="#000000" stroke-width="0.5" stroke-miterlimit="10" d="M2366.166,66.841
			c0.984-0.346,2.08-0.236,3.139-0.236c0.969,0,2.084,0.104,2.688,0.938c0.14,0.192,0.803,1.525,0.581,1.833
			c-0.085,0.119-1.759,0.542-1.935,0.56c-1.776,0.185-2.741,0.215-4.219,0.245c-0.566,0.012-1.366,0.073-1.861-0.239
			C2362.953,68.931,2365.204,67.18,2366.166,66.841z"/>
		<path stroke="#A67C52" stroke-miterlimit="10" d="M2370.46,69.787c-0.151-1.447-0.812-2.261-2.232-2.261
			c-1.52,0-1.756,1.75-1.809,2.472"/>
		<circle fill="#FFFFFF" cx="2367.445" cy="68.31" r="0.452"/>
		<path fill="#998675" d="M2390.8,65.164c0.854,0.116,1.674,0.401,2.508,0.625c0.658,0.177,1.398,0.15,2.02,0.419
			c0.678,0.293,1.256,0.757,1.91,1.09c0.189,0.096,0.746,0.245,0.823,0.453c0.151,0.406-0.823,0.298-1.118,0.333
			c-1.191,0.14-0.134,0.785,0.066,1.332c0.396,1.082-0.174,1.879-1.227,1.876c-1.916-0.007-3.816-0.236-5.728-0.333
			c-0.939-0.048-1.94,0.025-2.871-0.081c-0.739-0.085-0.896-0.724-1.103-1.388c-0.188-0.604,0.142-1.432,0.497-1.95
			c0.409-0.595,1.159-0.702,0.805-1.479c-0.127-0.279-0.254-0.604-0.296-0.908c-0.068-0.505-0.041-0.566,0.385-0.44
			c0.557,0.165,0.963,0.379,1.574,0.406C2389.63,65.146,2390.22,65.085,2390.8,65.164z"/>
		<path fill="#998675" d="M2389.533,62.262c1.707-0.128,3.732,0.233,5.34,0.796c0.771,0.269,1.385,0.506,2.002,1.037
			c0.758,0.65,0.939,1.222,1.438,2.027c0.395-1.339-0.899-2.685-1.857-3.518c-1.16-1.008-2.59-1.573-4.006-1.846
			c-0.556-0.107-1.143-0.043-1.701-0.167c-0.52-0.115-1.046-0.536-1.55-0.63c-0.869-0.163-2.273,1.296-2.402,2.093
			C2386.56,63.511,2388.834,62.314,2389.533,62.262z"/>
		<path fill="#FFFFFF" stroke="#000000" stroke-width="0.5" stroke-miterlimit="10" d="M2393.199,66.841
			c-0.982-0.346-2.078-0.236-3.139-0.236c-0.968,0-2.083,0.104-2.688,0.938c-0.139,0.192-0.802,1.525-0.58,1.833
			c0.086,0.119,1.76,0.542,1.936,0.56c1.775,0.185,2.74,0.215,4.217,0.245c0.566,0.012,1.367,0.073,1.863-0.239
			C2396.414,68.931,2394.162,67.18,2393.199,66.841z"/>
		<path stroke="#A67C52" stroke-miterlimit="10" d="M2388.906,69.787c0.15-1.447,0.812-2.261,2.23-2.261
			c1.52,0,1.758,1.75,1.809,2.472"/>
		<circle fill="#FFFFFF" cx="2391.92" cy="68.31" r="0.452"/>
		<polyline fill="none" stroke="#808080" stroke-linecap="round" stroke-linejoin="round" stroke-miterlimit="10" points="
			2356.179,69.876 2360.512,74.042 2361.847,74.042 		"/>
		<polyline fill="none" stroke="#808080" stroke-linecap="round" stroke-linejoin="round" stroke-miterlimit="10" points="
			2403.185,69.876 2398.853,74.042 2397.519,74.042 		"/>
		
			<path fill="none" stroke="#808080" stroke-width="0.5" stroke-linecap="round" stroke-linejoin="round" stroke-miterlimit="10" d="
			M2375.347,74.376h1.5c0,0-0.081-2.439,2.836-2.439"/>
		
			<path fill="none" stroke="#808080" stroke-width="0.5" stroke-linecap="round" stroke-linejoin="round" stroke-miterlimit="10" d="
			M2384.019,74.376h-1.5c0,0,0.08-2.439-2.836-2.439"/>
		<path fill="#FFFFFF" d="M2378.917,90.134c-0.795-0.147-1.897-0.307-2.609,0.047C2376.759,91.094,2379.273,91.833,2378.917,90.134z
			"/>
		<path fill="#C2AE92" d="M2388.563,98.747c-3.581,1.307-7.47,2.309-11.388,2.13c-2.385-0.108-4.506-1.354-6.804-1.476
			c0.006,0.023,0.005,0.425-0.001,0.447c1.453,1.023,2.926,1.551,4.584,2.084c-0.5,1.932,3.035,2.398,4.371,2.633
			c2.541,0.447,5.279-0.494,7.469-1.758c4.766-2.753,7.657-5.836,10.963-10.189c1.35-1.778,2.537-3.84,2.23-6.215
			c-0.006,0.001-0.447-0.001-0.447-0.001c-0.899,1.562-1.6,3.259-2.486,4.881C2395.13,94.806,2392.315,97.377,2388.563,98.747z"/>
		<path fill="#CCCCCC" d="M2354.883,54.579c0.702-1.07,2.146-3.772,1.401-4.995c-1.151-1.89-4.138-0.091-5.078,1.003
			c-0.506,0.59-1.112,1.247-1.027,2.126c0.099,1.009,1.08,0.733,1.17,1.667c0.1,1.039-0.117,1.134-1.004,1.328
			c-2.297,0.503-1.801-1.645-4.277-0.141c-3.017,1.833-1.736,2.474-1.76,4.775c-0.005,0.455-1.082,1.052-0.637,2.046
			c0.779,1.742,1.1,0.119,2.137,0.142c3.105,0.068,0.725,2.148-0.875,2.97c-1.696,0.871-1.881,2.463-2.425,4.375
			c-0.226,0.793-0.726,2.153-0.329,2.975c0.574,1.193,0.414,0.191,1.37,0.859c0.688,0.481,0.919-0.266,1.304,0.833
			c0.1,0.284-0.635,1.934-0.725,2.151c-0.623,1.528-1.989,3.086-1.624,4.846c0.442,2.134,1.843,1.514,2.832,2.705
			c0.948,1.142,0.587,3.147,2.722,1.72c0.89-0.596,1.253-3.332,2.92-2.891c2.29,0.604-0.061,3.987-0.596,4.813
			c-0.839,1.293-1.793,2.348-0.698,4.365c1.427,2.631,2.249-0.847,4.433-0.121c0.228,1.534-2.131,5.762,0.066,5.745
			c1.24-0.01,1.684-4.216,3.141-2.511c0.861,1.008-0.706,3.147,1.855,3.016c1.871-0.096,1.576-2.236,0.792-3.639
			c-0.401-0.717-1.075-0.941-1.547-1.668c-0.491-0.758-0.237-2.089-0.728-2.706c-0.564-0.708-1.672-0.242-2.146-0.691
			c-0.765-0.726-0.326-1.196-0.534-2.138c-0.384-1.737-1.113-4.43-2.62-5.524c-1.567-1.138-3.475,0.358-4.051-1.638
			c-0.217-0.752,0.326-1.861,0.338-2.67c0.02-1.353-0.332-3.776-0.756-4.87c-0.698-1.808-2.336-2.274-0.748-3.718
			c0.528-0.481,1.454-0.287,2.02-0.646c0.981-0.622,2.029-2.129,2.35-3.251c1.482-0.062,2.232,2.443,3.642-0.467
			c0.998-2.062-0.309-4.174-1.14-5.627C2353.001,57.292,2353.595,56.544,2354.883,54.579z"/>
		<path fill="#CCCCCC" d="M2358.842,41.376c0.188,3.926,6.665-0.278,8.21-0.907c3.354-1.365,3.385-0.908,5.545,1.11
			c0.727,0.679,1.487,1.368,2.441,1.671c2.122,0.673,3.924-1.61,5.461-1.236c1.752,0.426,2.475,4.205,3.517,5.521
			c1.255,1.585,4.508,4.869,6.421,3.035c0.66-0.633,1.036-2.491,0.555-3.389c-0.338-0.627-2.406-0.755-1.994-1.976
			c0.973-2.887,4.806,2.198,4.994,3.225c0.211,1.143-0.664,3.149-0.176,3.983c0.348,0.594,2.885,1.417,3.524,1.439
			c1.766,0.058,0.947,0.083,2.21-0.996c3.44-2.94,2.191-1.469,3.311,1.642c0.462,1.287,1.126,2.992,2.268,3.829
			c0.629,0.461,1.473,0.153,2.043,0.736c0.829,0.849,0.774,2.439,1.137,3.496c0.638,1.854,2.532,2.759,3.621,0.688
			c0.368-0.702,0.053-1.208,0.079-2.038c0.046-1.447,0.575-2.711,0.671-4.121c0.17-2.482-1.133-3.909-3.037-5.17
			c-2.048-1.356-3.006-2.875-4.662-4.546c-1.563-1.576-3.555-0.83-4.475-2.836c-1.111-2.426,0.39-4.702-2.672-5.866
			c-1.732-0.658-3.709-0.629-5.383-1.814c-0.576-0.409-1.613-1.966-2.317-1.755c-1.208,0.361-1.155,4.11-2.491,1.276
			c-0.801-1.702,0.506-2.86-1.959-3.504c-1.414-0.369-3.666,0.092-4.963,0.504c-1.006,0.319-1.276,0.479-1.879,1.125
			c-0.573,0.614-0.039,1.748-1.328,1.877c-1.012,0.102-0.773-1.049-1.367-1.14c-1.289-0.198-1.429,0.519-2.266,1.22
			c-1.506,1.262-2.104,1.25-4.201,1.251c-1.334,0.001-2.531-0.488-3.814-0.76C2363.146,36.373,2358.675,37.89,2358.842,41.376z"/>
		<path fill="#CCCCCC" d="M2413.38,78.043c-0.334,0.543-0.199,1.914-0.506,2.605c-0.59,1.333-1.666,1.968-2.655,3.056
			c-1.338,1.472-0.69,3.458-2.048,4.671c-1.405,1.255-2.261,0.479-1.99-1.333c0.264-1.771,1.925-2.953,2.377-4.67
			c0.172-0.651-0.021-1.334,0.114-1.989c0.295-1.434,1.219-2.526,1.716-3.836c0.719-1.896-0.11-2.89-0.337-4.671
			c-0.146-1.151-0.702-3.39,0.161-4.369c1.178-1.335,3.267-0.577,4.022,0.683c0.63,1.049,1.406,3.99,1.571,5.182
			C2416.138,75.756,2414.453,76.304,2413.38,78.043z"/>
		<g>
			
				<path fill="#C1272D" stroke="#231F20" stroke-width="1.5" stroke-linecap="round" stroke-linejoin="round" stroke-miterlimit="10" d="
				M2346.417,179.868c5.564-13.989,7.531-28.988,8.067-43.949c0.184-5.111,0.633-9.952,0.401-15.089
				c-4.566-0.2-12.928-1.776-16.027,2.677c-2.789,4.008-4.117,8.891-6.928,12.965c-2.922,4.234-7.078,9.764-8.996,14.419
				c-5.014,12.163,0.744,26.885-4.824,38.671c-0.92,1.945-2.391,4.174-1.375,6.674c0.993,2.445,4.146,2.18,6.826,2.971
				c5.4,1.594,13.604,4.527,15.805-1.676c1.149-3.236,1.663-6.773,3.055-9.941C2343.578,184.958,2345.349,182.553,2346.417,179.868z
				"/>
			
				<path fill="#C1272D" stroke="#231F20" stroke-width="1.5" stroke-linecap="round" stroke-linejoin="round" stroke-miterlimit="10" d="
				M2419.476,161.059c-2.162-9.223-4.914-18.309-6.719-27.615c-0.518-2.66-2.719-8.867-1.689-11.289
				c1.016-2.396,5.564-2.725,7.725-2.664c3.57,0.103,6.199,4.11,8.41,6.336c2.051,2.063,4.166,4.284,6.354,6.201
				c3.625,3.18,3.025,4.872,4.166,9.883c1.701,7.477,3.746,14.631,5.6,22.105c1.643,6.623,5.266,13.496,3.863,20.928
				c-0.531,2.809-4.551,8.291-7.051,9.955c-2.162,1.439-4.908,1.34-7.334,2.242c-4.58,1.707-7.461,4.693-8.848-0.773
				c-1.035-4.078-1.088-8.828-1.371-13.043C2422.074,175.724,2421.222,168.509,2419.476,161.059z"/>
			<path fill="#C1272D" stroke="#000000" stroke-width="1.5" stroke-miterlimit="10" d="M2382.025,113.046
				c-13.229,1.757-18.41-3.793-35.346,7.496c-1.5,1,0.5,5.5-6.5,22s-12,34.5,0.498,40.998c-2.998,4.502-5.002,18.004-3.002,22.504
				c-11,15.5-7.779,18.348-12.496,32.498c-0.5,1.5,3.5,7.5,3.5,7.5s-2-6.5,7-5.5s30,4.5,44,3c0.004-13,0.5-19.5,0.5-19.5
				s5,12.5,14,20.5c0,0,13.998,0,28.998-4.5s8.5,1.5,8.5,1.5l4-6.5c0,0-6-17.5-11-25.5c0,0,2.998-17.502-0.002-25.002
				c5-5,8-8.496,8-16.996c0-11-8.379-20.508-10.998-30.002c-4-14.5-4.5-17-4.5-17S2412.179,109.042,2382.025,113.046z"/>
			
				<path fill="#C1272D" stroke="#231F20" stroke-width="1.5" stroke-linecap="round" stroke-linejoin="round" stroke-miterlimit="10" d="
				M2396.179,116.042c1.419-1.275,2.299-3.02,3.338-4.596c-1.78-2.217-2.508-6.131-3.463-8.826
				c-6.116,5.605-15.178,9.412-23.797,8.996c0.633,3.99,4.34,6.227,3.422,10.926"/>
			
				<path fill="#C1272D" stroke="#231F20" stroke-width="1.5" stroke-linecap="round" stroke-linejoin="round" stroke-miterlimit="10" d="
				M2357.179,114.04c4.738-1.516,6.35-5.201,7.854-9.252c1.862,3.195,6.826,5.666,9.611,6.619c5.039,1.723,6.618,1.891,11.66,2.836
				c0.689,0.129-0.623,19.549-1.732,24.664c-3.694,17.031-3.393,35.518-3.393,53.061c0,3.523,0,7.049,0,10.574"/>
		</g>
		<path opacity="0.2" d="M2338.679,172.983c-1.256-5.596-1.208-11.131-0.449-16.809c0.602-4.502,2.316-9.406,3.954-13.623
			c1.505-3.877,2.856-7.883,3.767-11.943c0.287-1.279,1.369-4.629,0.502-5.864c-1.152-1.642-5.614,1.788-6.773,3.099
			c-1.32,1.491-1.604,3.033-2.227,4.801c-1.348,3.824-3.67,7.791-5.572,11.383c-2.516,4.75-7.137,10.401-7.719,15.738
			c-0.766,7.018-0.016,14.537,0.268,21.542c0.104,2.571-0.438,4.652-1.047,7.106c-0.412,1.668-0.824,2.615,0.248,3.947
			c1.007,1.248,3.629,3.461,5.023,3.693c0.885,0.148,4.309-0.467,5.328-0.969c0.611-0.301,0.791-1.066,1.311-1.332
			c0.381-0.193,1.553-0.336,1.801-0.514c0.886-0.633,1.105-0.887,1.873-1.805c2.063-2.465,2.955-6.419,3.596-9.611
			c0.346-1.723,0.266-1.69-0.82-3.219C2340.32,176.603,2339.236,175.466,2338.679,172.983z"/>
		<path opacity="0.2" d="M2419.079,135.592c-1.101-2.301-3.144-12.246-0.993-13.073c1.672-0.644,4.367,3.156,5.795,3.983
			c2.355,1.365,4.311,3.257,5.355,5.812c1.994,4.875,4.354,9.445,6.381,14.569c1.936,4.891,3.527,9.768,5.088,14.788
			c1.043,3.356,2.607,6.665,3.166,10.131c0.707,4.402,0.959,9.017-2.025,12.375c-0.646,0.725-2.141,2.623-3.072,2.922
			c-1.139,0.365-2.92-0.658-4.242-1.062c-2.34-0.715-3.996-2.072-4.273-4.486c-0.529-4.646,0.803-9.543,0.58-14.297
			c-0.221-4.707-0.941-10.334-2.996-14.592c-0.648-1.344-1.732-2.485-2.627-3.666C2422.56,145.488,2420.98,139.565,2419.079,135.592
			z"/>
		<path opacity="0.2" d="M2381.296,120.659c0.204-1.611,1.156-3.273,1.005-4.891c-0.117-1.25-9.528-2.852-10.62-3.062
			c-2.871-0.554-4.492-1.986-6.707-3.699c-0.036,0.529-3.217,6.236-3.942,5.95c3.527,1.39,6.791,3.459,10.29,4.836
			C2372.218,120.145,2381.189,121.514,2381.296,120.659z"/>
		<path opacity="0.2" d="M2390.062,117.323c-0.092-4.198-2.758-4.662-5.914-5.614c1.896-0.94,3.98-1.388,5.855-2.353
			c1.875-0.967,2.945-2.535,4.685-3.631c1.062,2.551,3.223,4.352,1.728,7.108C2395.951,113.69,2390.072,117.764,2390.062,117.323z"
			/>
		<path opacity="0.2" d="M2348.671,131.291c-0.412,2.204-0.938,4.001-1.574,6.096c-1.438,4.742-3.486,8.796-4.825,13.325
			c-1.815,6.137-3.737,11.912-1.339,18.132c3.35,8.69,15.287,14.03,24.471,11.865c1.895-0.446,2.951-0.876,4.643-2.116
			c1.31-0.961,4.861-3.765,5.572-5.226c0.505-1.038,0.052-3.145,0.061-4.301c0.033-4.009,0.64-8.054,1-12.054
			c0.621-6.873,1.963-13.805,2.334-20.644c0.158-2.901,2.688-6.748,1.858-9.597c-0.88-3.028-4.761-2.75-7.104-3.854
			c-3.353-1.578-6.617-3.512-10.42-4.219c-1.402-0.262-2.885-0.668-4.336-0.656c-2.54,0.02-6.912,1.456-8.451,3.594
			C2348.838,124.027,2349.195,128.496,2348.671,131.291z"/>
		<path opacity="0.2" d="M2414.113,131.534c-1.034-3.826-0.287-7.713-3.203-10.754c-1.805-1.882-2.68-4.211-5.338-4.629
			c-4.432-0.697-14.445,3.485-15.308,8.338c-0.747,4.209-0.37,8.889-1.003,13.203c-1.38,9.415-3.604,18.768-3.582,28.334
			c0.008,3.178-0.318,6.844,0.65,9.699c2.147,6.335,12.191,7.016,17.986,7.686c4.238,0.489,6.93-1.229,10.842-2.443
			c4.137-1.283,8.054-4.883,10.811-8.209c2.975-3.59,2.01-8.002,1.184-11.846c-0.65-3.029-1.618-5.757-2.729-8.801
			c-1.637-4.491-4.7-7.558-6.952-11.723C2415.819,137.335,2415.004,134.835,2414.113,131.534z"/>
		<path fill="none" stroke="#000000" stroke-width="2" stroke-linecap="round" stroke-linejoin="round" stroke-miterlimit="10" d="
			M2380.599,128.762c0,0,2.408,1.032,10.15-0.86"/>
		<path fill="none" stroke="#000000" stroke-width="2" stroke-linecap="round" stroke-linejoin="round" stroke-miterlimit="10" d="
			M2378.347,158.679c0,0,2.164,1.478,10.126,1.117"/>
		<path d="M2394.535,126.526c-0.106-1.789,0.366-4.266-1.965-4.16c-1.211,0.055-3.371,1.041-3.244,2.517
			c0.09,1.04,0.799,1.938,1.089,2.847c0.233,0.733,0.022,2.27,0.536,2.892c1.217,1.474,4.357,0.419,4.271-1.337
			C2395.185,128.538,2394.593,127.516,2394.535,126.526z"/>
		<path d="M2390.636,160.497c0.557-1.703,1.9-3.837-0.309-4.591c-1.146-0.391-3.518-0.261-3.939,1.158
			c-0.295,1.002,0.037,2.098-0.025,3.049c-0.051,0.769-0.807,2.12-0.557,2.888c0.595,1.816,3.904,1.98,4.465,0.314
			C2390.509,162.608,2390.33,161.44,2390.636,160.497z"/>
		<path fill="#FFFFFF" d="M2395.462,75.594c0.518-0.61,1.127-3.199,0.496-3.232c-1.492-0.078-2.701,0.729-3.949,1.399
			c-1.352,0.725-3.19,1.242-4.25,2.186c-0.086,0.078,2.453,0.189,2.673,0.181c1.396-0.055,3.643,0.354,4.923-0.436
			C2395.39,75.67,2395.426,75.637,2395.462,75.594z"/>
		<path fill="#FFFFFF" d="M2373.755,75.594c0.517-0.61,1.127-3.199,0.494-3.232c-1.49-0.078-2.701,0.729-3.949,1.399
			c-1.351,0.725-3.189,1.242-4.248,2.186c-0.088,0.078,2.451,0.189,2.672,0.181c1.396-0.055,3.643,0.354,4.922-0.436
			C2373.682,75.67,2373.718,75.637,2373.755,75.594z"/>
		<path fill="#FBB03B" d="M2400.67,145.452c-0.86,0.658-1.573,1.688-2.304,2.51c0.982-0.229,2.254-1.77,3.156-1.797
			c1.048-0.033,2.342,1.656,3.27,2.121c2.518,1.264,6.229,1.215,8.09-1.145c-1.16-0.363-3.195-0.773-3.932-1.654
			c1.955-2.254,5.614-4.818,5.344-8.312c-2.646-1.193-5.947,5.189-7.402,6.602c0.289-2.1,0.396-6.822-1.393-8.35
			c-2.35,1.656-1.694,5.016-1.35,7.352c-0.914-0.008-2.025-0.23-2.895,0.24C2399.966,143.716,2400.767,145.378,2400.67,145.452z"/>
	</g>
</g>
</svg>
