<?xml version="1.0" encoding="utf-8"?>
<!-- Generator: Adobe Illustrator 16.0.0, SVG Export Plug-In . SVG Version: 6.00 Build 0)  -->
<!DOCTYPE svg PUBLIC "-//W3C//DTD SVG 1.1//EN" "http://www.w3.org/Graphics/SVG/1.1/DTD/svg11.dtd">
<svg version="1.1" id="Layer_1" xmlns="http://www.w3.org/2000/svg" xmlns:xlink="http://www.w3.org/1999/xlink" x="0px" y="0px"
	 width="169.785px" height="170.857px" viewBox="1482.787 0 169.785 170.857" enable-background="new 1482.787 0 169.785 170.857"
	 xml:space="preserve">
<g>
	<defs>
		<circle id="XMLID_8_" cx="1567.679" cy="85.428" r="78.717"/>
	</defs>
	<use xlink:href="#XMLID_8_"  overflow="visible" fill="#F4F4F4"/>
	<clipPath id="XMLID_16_">
		<use xlink:href="#XMLID_8_"  overflow="visible"/>
	</clipPath>
	<g clip-path="url(#XMLID_16_)">
		<path fill="#D7C8AA" stroke="#736759" stroke-miterlimit="10" d="M1547.158,62.973c-0.744-1.435-3.232-5.413-5.625-4.873
			c-2.271,0.512-1.424,4.616-0.785,6.099c0.555,1.286,1.412,2.409,1.903,3.747c0.913,2.488,0.368,4.15,0.63,6.777
			c0.195,1.95,1.461,3.715,3.625,2.375"/>
		<path fill="#D7C8AA" stroke="#736759" stroke-miterlimit="10" d="M1588.281,63.6c0.635-1.267,1.592-2.32,2.623-3.213
			c0.688-0.595,3.095-2.307,3.981-1.92c1.142,0.498,1.112,3.225,0.931,4.265c-0.29,1.655-1.205,3.118-1.818,4.618
			c-1.042,2.547-0.787,5.566-2.095,7.946c-0.542,0.985-3.743,2.945-4.249,1.079c-0.16-0.066-0.326-0.117-0.498-0.15"/>
		<g>
			<path fill="#BADEE1" stroke="#808080" stroke-width="1.5" stroke-miterlimit="10" d="M1617.473,142.153
				c-0.608-3.736-1.569-7.399-1.923-11.178c-0.151-1.611-1.668-6.601-0.46-7.707c0.775-0.709,4.315,0.458,5.356,0.457
				c2.387-0.004,4.953,0.312,7.166,1.25c2.547,1.08,2.726,2.375,4.25,4.391c1.393,1.839,2.65,3.699,3.816,5.684
				c1.256,2.139,2.725,3.889,4.12,6.031c2.175,3.338,3.11,6.498,4.03,10.451c0.799,3.433,1.609,7.675,1.984,10.874
				c0.453,3.854,1.111,7.634,0.892,11.547c-0.511,9.099,1.716,17.278,2.071,26.428c0.125,3.217-1.271,5.548-2.175,8.085
				c-1.349,3.784-2.323,6.529-5.458,9.561c-3.321,3.213-4.481,3.902-8.705,1.958c-2.901-1.335-5.544-2.335-7.81-4.503
				c-3.308-3.164-2.405-8.777-2.833-13.125c-0.614-6.253-1.619-12.749-2.61-18.932c-1.026-6.4-0.406-13.277-0.406-19.749
				C1618.78,156.395,1618.609,149.137,1617.473,142.153z"/>
			<g>
				<path fill="#BADEE1" stroke="#808080" stroke-width="1.5" stroke-miterlimit="10" d="M1517.206,200.831
					c1.644-9.482,1.589-19.166,2.573-28.722c0.84-8.165-0.384-16.305,1.74-24.502c1.493-5.768,2.98-11.831,5.189-17.43
					c1.801-4.563,2.885-7.677-3.127-7.942c-4.381-0.194-8.979,1.246-12.76,3.396c-2.674,1.522-4.45,4.736-5.951,7.317
					c-2.541,4.367-5.671,4.031-8.092,8.427c-1.399,2.541-2.856,8.413-3.551,11.166c-2.047,8.102-2.854,17.241-3.263,25.567
					c-0.411,8.341-0.692,16.629-1.964,24.818c-0.472,3.034-1.76,6.204-1.721,9.352c0.041,3.424,1.391,3.596,4.098,4.857
					c3.44,1.605,7.805,4.778,11.851,3.547c1.401-0.427,2.21-1.79,3.344-2.56c1.46-0.99,3.426-1.425,4.987-2.572
					C1515.248,212.106,1516.251,206.336,1517.206,200.831z"/>
			</g>
			<path fill="#BADEE1" stroke="#808080" stroke-width="1.5" stroke-miterlimit="10" d="M1515.785,184.294
				c-2.682-12.232-4.407-25.33-2.111-37.814c0.932-5.061,1.773-10.133,2.742-15.114c1.213-6.247,2.541-10.105,8.359-13.383
				c2.631-1.482,5.723-1.527,8.404-2.922c2.916-1.517,5.979-2.601,9.012-3.929c3.117-1.364,3.898-2.4,7.258-0.824
				c7.041,3.304,17.97,5.83,26.018,3.1c4.572-1.551,10.131-7.454,15.066-4.774c2.365,1.284,4.238,3.542,6.658,4.675
				c7.262,3.402,15.148,2.241,20.926,8.983c3.124,3.646,3.053,10.599,3.332,15.1c0.469,7.558,0.666,14.983,0.666,22.601
				c0,3.834,0.158,7.222-0.924,10.686c-1.498,4.801,0.156,8.931,1.664,13.727c1.017,3.234,0.927,6.176,0.927,9.672
				c0,9.639-1.001,24.412-1.991,33.977c-0.473,4.57-1.1,8.755-2.5,12.874c-1.082,3.183-3.408,9.122-5.924,11.979
				c-2.412,2.738-7.19,4.271-10.918,4.834c-5.021,0.756-10.24,2.031-15.334,2.656c-7.275,0.893-14.73,1.207-22,1.666
				c-2.82,0.178-5.758,0.062-8.225-0.758c-4.6-1.527-10.16-2.619-15.093-3.975c-4.95-1.363-10.704-2.436-15.11-5.074
				c-1.803-1.08-3.994-3.271-4.924-5.175c-1.252-2.564-1.307-2.853-2.066-5.591c-0.922-3.315-2.168-6.564-2.248-10.049
				c-0.076-3.33-0.333-6.597-0.333-9.968c0-5.96,0.843-19.901,0.667-25.823C1517.666,191.695,1516.619,188.102,1515.785,184.294z"/>
		</g>
		<path opacity="0.2" d="M1559.256,183.602c0.276-2.443,7.313-24.613-1.428-17.146c-5.663,4.838-4.801,14.207-11.573,18.393
			c-3.303,2.041-10.066,0.227-9.909,5.316c2.826-0.025,5.206,6.133,6.069,8.338c0.428,1.092,0.672,2.598,0.893,3.695
			c0.471,2.343,0.907,7.863,1.75,9.668c1.658,3.551,1.208,8.125,2.911,11.46c1.708,3.344,5.899,6.382,8.337,9.296
			c-0.475-8.645,1.24-23.684,2.477-32.35C1559.574,194.722,1558.632,189.128,1559.256,183.602z"/>
		<path opacity="0.2" d="M1582.893,134.003c1.661-5.326,5.47-12.802,4.138-18.586c-1.526-6.624-11.336-0.087-15.26,0.729
			c-3.797,0.788-7.332,1.251-11.23,1.245c-3.777-0.005-7.629-2.133-11.432-1.54c-6.051,0.945-1.114,6.604,0.264,9.693
			c0.842,1.887,1.133,3.996,1.492,6.066c0.377,2.184,1.576,6.119,4,6.973c3.557,1.25,3.863-3.893,6.16-5.301
			c3.256-1.996,7.557,1.413,9.471,3.842c1.346,1.707,2.404,3.083,3.395,4.968c0.799,1.519,1.164,6.942,2.553,7.364
			C1580.418,150.665,1582.008,136.84,1582.893,134.003z"/>
		<path fill="#D7C8AA" stroke="#736759" stroke-miterlimit="10" d="M1549.449,110.307c-0.887-10.427-1.666-23.416-1.666-23.416
			l40-0.5c0,0-1.334,17.5-2,25C1585.116,118.891,1550.449,122.057,1549.449,110.307z"/>
		<path fill="#C2AE92" d="M1567.247,103.395c-3.589,0.166-6.87-1.571-9.638-3.701c-2.262-1.74-4.475-5.259-7.729-4.924
			c-0.244,2.33,5.283,7.124,7.006,8.664c2.827,2.53,5.996,4.744,9.75,5.758c3.068,0.828,6.332,2.143,9.364,0.694
			c2.216-1.058,7.989-3.384,9.048-5.704c0.85-1.862,0.322-6.957,0.255-9.012C1579.925,100.003,1574.878,103.04,1567.247,103.395z"/>
		<path fill="#262261" stroke="#0F103A" stroke-width="1.5" stroke-miterlimit="10" d="M1572.836,221.289
			c-0.444,6.234-7.892,9.667-9.687,15.355c-1.947-1.701-2.829-5.148-3.82-7.464c-1.156-2.704-2.844-4.859-4.443-7.332
			c-1.858-2.876-1.842-3.71-1.438-7.319c0.746-6.654,1.484-18.226,2.122-24.98c1.077-11.416,4.46-22.392,5.141-33.858
			c0.089-1.501,0.181-2.953,0.468-4.389c0.619-3.098,0.943-4.165,1.715-7.252c0.246-0.984,1.213-3.152,1.213-5.577
			c1.455-10.428-0.215-14.599,4.85-13.58c0.34,2.901-0.647,11.289,0.248,14.148c1.002,3.194,0.964,6.505,0.965,9.843
			c0,6.824,0.693,13.643,1.023,20.462c0.203,4.188,1.157,8.052,1.158,12.287c0.003,6.604,0.243,13.196,0.243,19.806
			C1572.594,206.373,1573.188,216.365,1572.836,221.289z"/>
		<path fill="#262261" stroke="#0F103A" stroke-width="1.5" stroke-miterlimit="10" d="M1563.548,246.231
			c-1.586-1.448-2.915-3.147-4.459-4.636c-0.329-0.316-3.45-2.756-3.439-2.865c0.562-5.578,2.652-11.017,2.879-16.646
			c0.1-2.481,0.242-5.002,0.242-7.549c0-6.588,1.28-18.284,1.711-24.823c0.266-4.053-0.013-8.039,0.404-12.1
			c0.552-5.365,1.229-10.662,1.576-15.977c0.467-7.109,1.49-14.352,1.898-21.504c0.151-2.636,1.016-12.014,1.432-14.519
			c0.566-3.403,1.285-2.929,4.342-2.819c0.947,4.154,0.721,14.809,1.242,19.068c0.891,7.281,2.688,14.432,3.709,21.738
			c0.803,5.749,0.769,11.717,1.4,17.525c0.844,7.758,1.857,20.595,3.13,28.243c0.964,5.798,3.212,11.734,4.388,17.269
			c0.418,1.963,0.926,4.349,1.219,6.325c0.26,1.764,0.48,3.965-0.321,5.312c-3.035,5.102-8.163,9.252-12.495,13.188
			c-1.189,1.08-0.895,1.15-2.291,0.66C1567.572,251.227,1565.509,248.02,1563.548,246.231z"/>
		<path fill="#262261" stroke="#0F103A" stroke-width="2" stroke-miterlimit="10" d="M1571.916,126.838
			c2.613-3.304,7.274-9.583,0.667-12.006c-2.761-1.013-7.831,0.274-10.337,1.64c-1.88,1.027-2.867,1.598-2.321,3.928
			c0.487,2.078,2.115,4.073,3.495,5.639c0.941,1.068,2.603,3.308,3.906,3.893C1569.734,131.012,1570.75,128.311,1571.916,126.838z"
			/>
		<g>
			<path fill="#BADEE1" stroke="#808080" stroke-width="1.5" stroke-miterlimit="10" d="M1568.391,113.899
				c-3.509-0.21-7.616-2.389-10.752-3.93c-2.579-1.269-7.214-2.625-8.048-5.645c-0.195-0.705-0.846-2.162-0.893-2.898
				c-1.957-0.629-0.735,4.027-0.676,5.084c0.086,1.485-0.846,2.494-1.319,3.982c-0.071,0.222-2.49,3.557-2.8,3.242
				c4.035,4.1,9.064,10.834,10.854,16.441c2.353-2.763,3.477-7.442,5.832-10.484
				C1562.689,116.981,1565.907,115.828,1568.391,113.899z"/>
			<path fill="#BADEE1" stroke="#808080" stroke-width="1.5" stroke-miterlimit="10" d="M1568.391,113.899
				c1.579-1.726,6.832-2.896,8.719-4.333c0.958-0.729,1.384-1.216,2.518-1.718c1.409-0.623,2.76-1.447,4.095-2.213
				c1.48-0.847,3.43-3.274,3.555-4.879c2.188-0.691,0.315,5.218,0.314,6.42c-0.002,1.221,0.039,2.447,0.523,3.537
				c0.213,0.479,0.539,0.742,0.754,1.182c0.426,0.873,0.229,0.42-0.008,1.173c-0.574,1.821-1.424,3.669-2.318,5.342
				c-1.192,2.226-2.072,4.564-3.242,6.976c-1.027,2.115-2.34,3.803-3.445,5.866c0.043-2.637-1.174-5.562-2.836-7.71
				c-0.4-0.515-0.932-0.826-1.322-1.488c-0.73-1.241-1.219-2.63-1.967-3.863C1572.542,116.233,1570.025,115.493,1568.391,113.899z"
				/>
		</g>
		<g opacity="0.3">
			<path d="M1519.37,161.866c-0.063,0-0.129-0.015-0.193-0.045c-0.295-0.142-0.44-0.313-0.515-0.475
				c-0.246-0.02-0.443-0.217-0.459-0.467c-0.018-0.275-0.061-0.672-0.111-1.139c-0.342-3.117-0.553-5.992,0.594-6.912
				c1.01-0.809,3.701-0.537,6.854-0.131c0.658,0.084,1.208,0.156,1.547,0.176c1.77,0.098,3.602,0.062,5.373,0.029
				c0.92-0.018,1.838-0.036,2.75-0.036c5.76,0,11.753,0.243,18.861,0.765c0.249,0.019,0.447,0.219,0.463,0.467l0.024,0.377
				c0.06,0.886,0.128,1.891,0.008,2.779c-0.057,0.418-0.175,0.782-0.289,1.135c-0.183,0.566-0.341,1.055-0.204,1.656
				c0.062,0.27-0.107,0.537-0.376,0.598c-0.274,0.062-0.538-0.106-0.599-0.375c-0.199-0.87,0.027-1.569,0.228-2.187
				c0.104-0.325,0.204-0.632,0.249-0.962c0.104-0.771,0.045-1.697-0.011-2.521c-6.894-0.499-12.737-0.731-18.354-0.731
				c-0.906,0-1.818,0.018-2.731,0.036c-1.79,0.034-3.64,0.07-5.448-0.031c-0.354-0.021-0.93-0.094-1.619-0.183
				c-1.733-0.224-5.341-0.688-6.098-0.08c-0.814,0.653-0.402,4.416-0.227,6.022c0.031,0.289,0.061,0.551,0.082,0.777
				c0.184,0.065,0.354,0.203,0.405,0.487c0.224,0.133,0.346,0.432,0.233,0.667C1519.717,161.748,1519.551,161.866,1519.37,161.866z"
				/>
			<path d="M1618.03,159.962c-0.44,0-0.79-0.334-1.075-0.607c-0.123-0.119-0.33-0.316-0.415-0.338
				c-0.274-0.032-0.468-0.28-0.435-0.555c0.032-0.274,0.289-0.475,0.558-0.438c0.375,0.045,0.672,0.311,0.934,0.561
				c0.017-0.419,0.049-0.876,0.083-1.348c0.161-2.264,0.362-5.081-1.13-5.25c-0.497-0.061-1.933,0.195-3.089,0.396
				c-0.846,0.146-1.646,0.286-2.168,0.33c-2.961,0.255-5.67,0.487-8.564,0.487c-0.002,0-0.004,0-0.005,0
				c-1.009,0-2.074-0.048-3.104-0.093c-2.102-0.094-4.273-0.189-6.237,0.088c-0.877,0.124-1.771,0.259-2.678,0.395
				c-2.766,0.416-5.621,0.846-8.517,1.069l-0.004,0.054c-0.1,1.283-0.224,2.879,0.201,3.85c0.111,0.252-0.004,0.547-0.258,0.658
				c-0.254,0.113-0.548-0.004-0.658-0.258c-0.525-1.199-0.391-2.934-0.283-4.326l0.037-0.48c0.017-0.248,0.215-0.445,0.463-0.463
				c3.004-0.21,5.986-0.658,8.869-1.092c0.91-0.137,1.807-0.271,2.688-0.396c2.055-0.291,4.274-0.191,6.421-0.098
				c1.066,0.048,2.073,0.093,3.06,0.093c0.002,0,0.004,0,0.006,0c2.852,0,5.541-0.231,8.387-0.476
				c0.571-0.049,1.35-0.184,2.174-0.327c1.654-0.288,2.783-0.474,3.373-0.404c2.445,0.276,2.207,3.624,2.015,6.315
				c-0.058,0.807-0.112,1.568-0.082,2.119c0.013,0.254-0.165,0.479-0.416,0.521C1618.127,159.958,1618.078,159.962,1618.03,159.962z
				"/>
			<path d="M1588.958,161.931c-0.276,0-0.5-0.224-0.5-0.5s0.224-0.5,0.5-0.5c3.158,0,6.359-0.124,9.453-0.243
				c3.098-0.119,6.3-0.242,9.462-0.242c0.276,0,0.5,0.224,0.5,0.5s-0.224,0.5-0.5,0.5c-3.144,0-6.335,0.123-9.423,0.242
				C1595.346,161.807,1592.136,161.931,1588.958,161.931z"/>
			<path d="M1526.781,162.354c-1.641,0-3.219-0.135-4.606-0.502c-0.267-0.07-0.427-0.344-0.355-0.611
				c0.071-0.267,0.347-0.424,0.611-0.355c2.95,0.782,6.921,0.434,10.412,0.047c2.838-0.315,5.753-0.311,8.578-0.307l1.009,0.001
				c0.277,0,0.5,0.224,0.5,0.5s-0.223,0.5-0.5,0.5l-1.01-0.001c-2.797-0.008-5.686-0.01-8.467,0.301
				C1530.966,162.146,1528.826,162.354,1526.781,162.354z"/>
			<path d="M1542.447,192.686c-3.852,0-10.119-0.639-12.038-1.154c-0.729-0.195-1.515-0.324-2.345-0.461
				c-1.48-0.242-3.012-0.494-4.289-1.162c-1.158-0.605-1.328-0.975-1.521-1.873c-0.041-0.191-0.088-0.416-0.165-0.689
				c-0.385-1.373-0.669-3.262-0.919-4.928c-0.115-0.771-0.227-1.514-0.342-2.16c-0.285-1.619-0.629-3.271-0.961-4.869
				c-0.404-1.945-0.822-3.957-1.15-5.963c-0.125-0.775-0.342-1.549-0.57-2.367c-0.418-1.492-0.85-3.035-0.707-4.615
				c0.025-0.275,0.268-0.475,0.543-0.453c0.275,0.025,0.479,0.268,0.453,0.543c-0.127,1.396,0.28,2.85,0.674,4.256
				c0.227,0.809,0.46,1.646,0.596,2.475c0.322,1.985,0.738,3.986,1.141,5.922c0.334,1.604,0.68,3.264,0.967,4.898
				c0.116,0.654,0.229,1.404,0.346,2.186c0.246,1.637,0.525,3.494,0.894,4.807c0.083,0.297,0.136,0.543,0.181,0.75
				c0.143,0.668,0.161,0.754,1.007,1.195c1.135,0.594,2.585,0.832,3.987,1.062c0.818,0.133,1.664,0.271,2.441,0.48
				c2.25,0.605,11.145,1.416,13.871,1.014c0.279-0.045,0.527,0.15,0.568,0.422c0.04,0.273-0.148,0.527-0.422,0.568
				C1544.134,192.649,1543.357,192.686,1542.447,192.686z"/>
			<path d="M1605.931,192.952c-0.849,0-1.686-0.076-2.544-0.152c-1.4-0.127-2.933-0.174-4.492-0.139
				c-1.122,0.025-2.28,0.051-3.417-0.027c-0.86-0.059-1.734-0.082-2.611-0.107c-2.404-0.066-4.892-0.135-7.131-0.943
				c-0.239-0.086-0.443-0.156-0.62-0.215c-1.085-0.369-1.337-0.49-1.977-1.725c-0.624-1.205-0.737-3.387-0.829-5.141
				c-0.031-0.604-0.06-1.16-0.105-1.605c-0.188-1.805-0.28-3.67-0.37-5.475c-0.036-0.705-0.071-1.408-0.11-2.104
				c-0.162-2.785-0.52-5.568-0.866-8.26c-0.228-1.771-0.463-3.604-0.642-5.43c-0.027-0.275,0.174-0.52,0.448-0.547
				c0.278-0.02,0.519,0.175,0.546,0.449c0.178,1.811,0.412,3.635,0.64,5.4c0.348,2.708,0.708,5.51,0.872,8.328
				c0.04,0.699,0.076,1.404,0.111,2.112c0.089,1.791,0.182,3.642,0.365,5.421c0.048,0.461,0.078,1.035,0.11,1.658
				c0.086,1.656,0.192,3.719,0.718,4.732c0.477,0.92,0.477,0.92,1.41,1.236c0.182,0.061,0.393,0.133,0.639,0.221
				c2.088,0.754,4.493,0.82,6.819,0.885c0.89,0.025,1.778,0.051,2.652,0.109c1.09,0.076,2.227,0.051,3.325,0.025
				c1.613-0.039,3.186,0.016,4.604,0.143c1.928,0.174,3.592,0.322,5.511-0.32c1.222-0.408,4.001-2.783,4.507-3.711
				c0.541-0.992,0.728-2.734,0.907-4.422c0.117-1.1,0.228-2.139,0.437-2.963c1.564-6.186,2.676-13.41,2.97-19.327
				c0.023-0.458,0.013-0.94-0.005-1.399c-0.012-0.275,0.203-0.508,0.479-0.52c0.262-0.021,0.509,0.203,0.52,0.479
				c0.025,0.612,0.027,1.072,0.006,1.489c-0.298,5.979-1.419,13.277-3,19.523c-0.191,0.754-0.298,1.76-0.411,2.824
				c-0.19,1.783-0.386,3.627-1.022,4.793c-0.615,1.129-3.596,3.689-5.068,4.182C1608.117,192.829,1607.015,192.952,1605.931,192.952
				z"/>
		</g>
		<path fill="#C2AE92" d="M1546.283,64.348c-0.481-0.449-2.199-2.719-2.873-1.751c-0.375,0.537-0.074,2.283,0.026,2.823
			c0.153,0.818,0.419,1.715,0.787,2.434c0.291,0.568,0.253,0.359,0.687,0.543c0.039,0.016,0.182-0.262,0.359-0.162
			c0.21,0.117,0.133,0.918,0.14,1.103c0.024,0.661-0.231,1.308,0.441,1.629c0.394,0.188,1.978-0.013,2.245-0.118"/>
		<path fill="#C2AE92" d="M1590.783,64.348c0.48-0.449,2.199-2.719,2.873-1.751c0.373,0.537,0.074,2.283-0.027,2.823
			c-0.152,0.818-0.42,1.715-0.787,2.434c-0.291,0.568-0.253,0.359-0.688,0.543c-0.037,0.016-0.181-0.262-0.359-0.162
			c-0.209,0.117-0.132,0.918-0.139,1.103c-0.025,0.661,0.23,1.308-0.441,1.629c-0.393,0.188-1.979-0.013-2.244-0.118"/>
		<path fill="#D7C8AA" stroke="#736759" stroke-miterlimit="10" d="M1568.116,104.557c13.333,0,22.5-11.834,22.5-22.836
			c0-6.168-0.333-6.498-0.333-10.998s1.998-8.998,1.998-16.664c0-17.333-11.832-26.103-24.165-26.103s-24.165,8.77-24.165,26.103
			c0,7.666,1.998,12.164,1.998,16.664s-0.333,4.83-0.333,10.998C1545.616,92.723,1554.783,104.557,1568.116,104.557z"/>
		<path opacity="0.2" d="M1499.505,204.552c0.167,0.318,0.33,0.648,0.484,0.99c1.064,2.383,1.365,8.123,5.129,8.198
			c2.551,0.037,4.949-8.727,5.658-10.837c2.594-7.728,2.008-16.162,2.008-24.229c0-8.839-1-16.743-1-25.656
			c0-3.65-0.006-7.48-0.771-11.047c-2.127,3.299-3.981,7.805-5.082,11.64c-1.406,4.901-3.956,11.036-4.142,16.11
			c-0.128,3.5,1.079,5.066,2.856,7.235c1.625,1.983,3.405,1.835,2.562,5.078c-2.598,1.068-6.188-3.863-7.445,0.673
			c-0.861,3.108,4.611,3.646,5.418,6.113c1.277,3.91-2.892,5.772-5.146,7.264C1495.46,199.11,1497.718,201.167,1499.505,204.552z"/>
		<path opacity="0.2" d="M1614.216,124.948c2.382,3.406,1.256,9.414,2.041,13.567c2.457,12.987,3.335,26.265,1.877,39.232
			c-0.422,3.749-0.163,7.396,0.305,11.173c0.567,4.577-0.094,9.191,0.346,13.767c0.436,4.538,0.795,14.031,0.664,18.806
			c-0.084,3.083-0.695,6.176-1.467,9.18c-0.684,2.66-1.064,6.586-2.347,8.982c-0.757,1.412-2.407,2.646-3.192,4.433
			c-0.995,2.259-1.284,4.96-2.912,7.065c-1.879,2.43-3.854,1.986-6.779,2.584c-4.196,0.855-6.172-0.559-10.601-0.051
			c-4.464,0.51-8.245,2.803-12.928,2.541c-2.919-0.164-4.938-0.928-7.855-0.607c-2.782,0.305-5.203,2.416-8.01,2.506
			c-9.135,0.289-24.884-5.615-31.828-11.996c-2.48-2.28-7.27-8.562-5.245-12.4c1.922-3.646,6.984,0.896,9.763,3.6
			c7.423,7.222,13.288,7.641,23.394,10.208c10.863,2.759,9.672-1.2,19.053-6.294c3.154-1.713,21.774-6.105,19.19-12.338
			c-0.698-1.668-3.951-0.838-3.3-3.677c1.374-5.989,13.586,1.062,13.444-3.987c-0.095-3.394-7.595-3.76-9.435-4.744
			c-4.274-2.289-1.955-2.287,0.414-4.215c4.676-3.805,0.385-9.878-2.128-12.809c-3.817-4.453-2.638-11.282-3.239-16.779
			c-0.07-0.643-0.618-2.662-0.33-3.556c1.32-4.103,7.549-6.177,8.682-10.7c0.82-3.281-0.324-7.387-1.25-10.536
			c-0.718-2.441-0.867-4.853-1.5-7.243c-0.896-3.391-4.383-2.41-7.541-3.658c-0.672-2.061,1.081-2.13,1.872-3.61
			c2.001-3.744,0.627-9.12,1.79-13.216c1.004-3.533,1.83-5.678,0.527-9.25c-0.537-1.473-1.886-2.927-1.451-4.482
			c1.623-0.334,5.177,0.508,6.888,1.016c2.576,0.766,4.153,2.321,6.329,3.556C1609.835,122.362,1612.503,122.501,1614.216,124.948z"
			/>
		<path opacity="0.2" d="M1633.773,136.1c1.769,2.186,3.676,4.709,4.421,7.383c2.51,9.014,0.492,19.572,4.394,28.117
			c3.254,7.127,4.668,14.904,3.564,22.695c-0.508,3.592-1.186,15.082-7.02,12.298c-4.91-2.343,0.05-8.144-3.029-11.921
			c0.027,0.035-8.838-7.879-6.246-7.872c9.469,0.024-2.122-9.175-1.001-13.024c3.533,1.291,6.062,3.715,5.925-2.053
			c-0.088-3.632-2.604-4.799-3.623-7.875c-0.943-2.846,0.117-6.883,0.123-10.086c0.008-5.217-0.846-11.451-2.47-16.338
			c-0.642-1.93-3.874-6.35-3.065-8.326C1626.921,126.221,1632.917,135.044,1633.773,136.1z"/>
		<path fill="#262261" stroke="#808080" stroke-miterlimit="10" d="M1609.212,149.265c-0.141-2.257-0.23-5.075-2.999-5.075
			c-1.392,0-2.069,1.031-2.423,2.422c-0.449,1.773,0.199,5.646,0.344,7.385c0.224,2.711,0.482,2.58,0.597,5.285
			c1.432,0.062,2.917,0.062,4.349,0c0.084-1.981,0.053-4.01,0.135-5.977C1609.279,151.762,1609.307,150.782,1609.212,149.265z"/>
		<path fill="#262261" stroke="#808080" stroke-miterlimit="10" d="M1589.949,149.265c-0.141-2.257-0.23-5.075-3-5.075
			c-1.391,0-2.069,1.031-2.422,2.422c-0.449,1.773,0.197,5.646,0.342,7.385c0.225,2.711,0.484,2.58,0.6,5.285
			c1.43,0.062,2.916,0.062,4.347,0c0.085-1.981,0.054-4.01,0.136-5.977C1590.015,151.762,1590.042,150.782,1589.949,149.265z"/>
		<path stroke="#808080" stroke-miterlimit="10" d="M1602.523,150.188c-0.116-1.846-1.396-7.994-2.81-7.816
			c-1.804,0.088-2.497,6.316-2.497,8.034c0,2.909-0.217,6.132,0.248,8.991c1.346,0.141,4.166,0.049,5.502-0.345
			C1603.034,156.512,1602.697,152.983,1602.523,150.188z"/>
		<path fill="#FFFFFF" stroke="#808080" stroke-width="1.5" stroke-miterlimit="10" d="M1595.404,153.648
			c-2.916,0.026-5.828,0.207-8.742,0.357c-1.039,0.054-2.095-0.078-3.135-0.107c-1.307-0.038-0.402,0.356-1.639,0.46
			c-0.075,2.146,0.336,4.029,0.672,6.096c1.096,6.719,7.311,4.647,12.237,4.266c5.239-0.402,10.532-0.574,15.804-0.574
			c1.475,0,3.078,0.146,4.494-0.234c1.136-0.305,1.23-0.764,1.495-1.965c0.714-3.238,0.356-6.623,0.214-9.895
			c-2.191-0.095-4.131,0.098-6.29,0.331C1605.436,152.931,1600.503,153.604,1595.404,153.648z"/>
		<path fill="#808080" d="M1588.8,160.743c0.033-1.1-0.441-11.381-1.033-11.473c-2.36-0.367-1.125,4.678-1.021,6.771
			c0.059,1.202,0.123,2.558,0.164,3.796C1586.964,161.434,1587.637,161.021,1588.8,160.743z"/>
		<path fill="#808080" d="M1607.228,160.874c0.127-1.086,0.545-11.373-0.032-11.572c-2.312-0.795-1.519,4.436-1.601,6.531
			c-0.045,1.203-0.1,2.559-0.165,3.796C1605.347,161.221,1606.05,160.936,1607.228,160.874z"/>
		<path fill="#808080" d="M1600.941,160.79c0.022-1.101-0.341-11.382-0.794-11.474c-1.809-0.366-0.86,4.679-0.782,6.771
			c0.045,1.203,0.093,2.559,0.125,3.797C1599.531,161.48,1600.046,161.067,1600.941,160.79z"/>
		<path fill="#736759" stroke="#534741" stroke-miterlimit="10" d="M1586.033,34.89c-2.358-2.719-4.268-5.069-7.748-6.638
			c-3.471-1.563-8.104-2.421-11.975-2.278c-2.523,0.093-6.389,0.653-8.525,1.913c-1.732,1.021-4.804,3.623-5.483,5.577
			c2.923-0.886,5.037-2.433,8.23-2.739c1.334-0.128,2.354,0.213,3.437,0.813c2.859,1.587,5.525,3.583,8.344,5.251
			c3.521,2.084,8.056,2.887,11.766,3.852c1.365,0.355,4.65,0.917,5.844,0.087c-0.764-0.772-1.27-1.73-1.816-2.654
			C1587.443,36.955,1586.887,35.876,1586.033,34.89z"/>
		<path fill="#736759" stroke="#534741" stroke-miterlimit="10" d="M1542.601,43.895c-1.582,3.329-1.82,7.604-2.291,11.211
			c0.406-0.037,0.943,0.157,1.355,0.104c0.229,1.654,1.01,2.037,1.951,3.266c0.768,1,2.164,3.847,1.92,5.143
			c0.348-1.852,0.773-4.35,1.157-6.445c0.243-1.33,0.345-0.729,0.667-2.041c0.19-0.779,0.76-1.363,0.729-2.213
			c-0.039-1.078-0.779-1.654-1.34-2.518c-0.797-1.229-0.947-2.479-1.045-3.902c-0.2-2.924,0.199-4.789,1.641-7.333
			C1545.604,40.358,1543.529,41.94,1542.601,43.895z"/>
		<path fill="#736759" stroke="#534741" stroke-miterlimit="10" d="M1591.783,59.848c-1.138,1.127-2.071,4.197-2.143,5.879
			c0.135-3.152-0.816-7.233-0.607-10.384c0.074-1.119-0.053-0.251,0-1.371c0.062-1.341,0.676-1.884,1.009-3.132
			c0.882-3.304-2.488-6.002-0.737-9.227c2.586,1.832,3.436,5.085,4.516,7.914c0.823,2.158,1.45,4.622,0.743,6.826
			C1593.894,58.44,1593.411,58.235,1591.783,59.848z"/>
		<path fill="#C2AE92" d="M1562.616,58.89c-4.374,0.011-10.145-0.106-13.297,2.709c-2.87,2.563-1.32,6.699,1.143,9.132
			c2.586,2.555,7.564,3.162,10.942,2.043c2.547-0.844,2.902-2.844,4.846-4.104c0.986-0.64,3.248-0.466,4.037-1.28
			c0.663-0.684-0.002-3.596,0.166-4.974c0.121-0.985,0.365-1.862,0.33-2.858"/>
		<path fill="#FFFFFF" stroke="#000000" stroke-width="0.5" stroke-miterlimit="10" d="M1553.021,67.04
			c-0.033-1.023,0.047-2.186,0.869-2.904c1.309-1.145,3.549-1.023,5.126-0.76c0.948,0.158,2.084,0.795,2.274,1.836
			c0.209,1.141-1.124,1.206-1.945,1.387c-1.018,0.225-1.891,0.467-2.938,0.5c-1.086,0.035-2.33,0.365-3.383,0.045
			C1553.024,67.108,1553.023,67.074,1553.021,67.04z"/>
		<path stroke="#736759" stroke-miterlimit="10" d="M1559.908,66.536c-0.25-1-0.875-1.812-1.5-2.062
			c-0.835-0.334-2.249-0.061-2.893,0.484c-0.785,0.666-0.787,2.194-0.787,2.194"/>
		<circle fill="#FFFFFF" cx="1556.408" cy="65.223" r="0.5"/>
		<path fill="none" stroke="#000000" stroke-width="0.5" stroke-miterlimit="10" d="M1564.781,64.034
			c0,3.049-3.861,7.522-8.625,7.522s-7.623-2.472-7.623-5.521c0-3.05,1.416-5.145,7.623-5.521
			C1560.912,60.225,1564.781,60.984,1564.781,64.034z"/>
		<path fill="#C2AE92" d="M1557.75,44.512c0.016,0.119,0.036,0.24,0.057,0.354c4.234,0.355,8.676-0.638,12.84,0.512
			c-1.236,1.494-5.75,1.115-7.701,1.504c-1.141,0.227-4.068-0.09-4.491,1.105c4.493,0.559,9.399,0.238,13.807,0.6
			c-0.471,1.948-13.995-0.166-13.803,2.445c2.956,0.09,5.905,0.719,8.913,0.858c2.167,0.101,4.17,0.112,4.041,2.622
			c-0.084,1.63-1.495,3.09-1.795,4.869c-0.313,1.854-1.053,4.141-0.254,5.797c0.646,1.337,1.383,1.815,1.757,3.35
			c0.186,0.76,0.271,1.645,0.329,2.361c0.201,2.473-0.412,4.965-1,7.334c-0.441,1.777-0.131,3.52-0.492,5.331
			c-0.414,2.07-0.808,4.155-1.079,6.249c-0.28,2.164-1.066,1.613-2.933,1.674c-1.139,0.038-1.6,0.266-2.385,0.977
			c3.48,0.098,4.747,2.932,4.872,6.101c0.029,0.733,0.151,1.59-0.376,2.089c-0.646,0.611-2.514,0.467-3.351,0.357
			c-2.048-0.268-3.95-1.12-5.789-1.881c-0.847-0.352-2.353-1.482-3.222-1.449c0.031,1.369,3.805,2.881,4.973,3.297
			c1.197,0.426,2.666,0.914,3.865,1.172c7.804,1.675,15.756-2.967,19.961-9.373c4.871-7.42,3.408-14.643,2.793-23.385
			c-0.145-2.051-0.85-4.134-1.004-6.146c-0.233-3.023,0.477-6.031,0.5-9.047c0.04-5.285,1.025-9.768-4.371-12.093
			c-2.539-1.095-5.406-1.823-7.971-2.529c-1.597-0.439-1.937-0.822-3.031,0.819c-1.918,2.872-4.957,2.885-8.127,3.338
			c-1.774,0.253-3.83,0.086-5.559,0.451C1557.724,44.277,1557.734,44.393,1557.75,44.512z"/>
		<path fill="#9B8D7C" d="M1563.357,81.707c0.959,0.437,2.105,0.628,3.107,0.98c0.699,0.246,1.443,0.578,2.16,0.7
			c0.79,0.133,1.775,0.439,2.59,0.32c0.724-0.105,1.004-0.47,1.511-0.906c1.237-1.066,3.058-1.142,3.911-2.658
			c0.725-1.29,0.762-3.219,0.141-4.564c-0.227-0.489-1.09-1.561-1.641-0.955c-0.268,0.295-0.115,1.117-0.162,1.479
			c-0.072,0.569-0.223,1.156-0.677,1.547c-0.821,0.705-1.968,1.137-2.89,1.699c-0.786,0.48-1.589,0.992-2.453,1.203
			c-1.528,0.373-3.127-0.477-4.443-1.193c-0.889-0.483-2.783-0.992-3.35,0.326C1560.734,80.678,1562.678,81.398,1563.357,81.707z"/>
		<path fill="#726658" d="M1563.255,79.544c-0.615-0.064-2.491,0.668-2.286-0.672c0.118-0.771,1.495-1.092,2.087-0.864
			c1.246,0.48,2.392,1.265,3.68,1.782c1.342,0.539,2.209,0.549,3.592-0.242c1.102-0.628,1.926-1.692,3.197-2.07
			c1.521-0.451,2.586,0.654,0.684,1.302c-0.661,0.226-1.074,0.138-1.726,0.525c-0.703,0.419-1.202,0.952-1.925,1.495
			C1567.781,82.884,1566.099,79.84,1563.255,79.544z"/>
		<path fill="#726658" d="M1560.657,87.127c-0.899-0.198-1.908-0.954-2.854-0.807c-0.57,0.089-0.658,0.975-1.23,0.676
			c-1.027-0.538-0.254-2.349,0.629-2.54c0.896-0.193,3.121,1.215,4.346,1.484c2.877,0.635,4.881,1.295,7.986,1.158
			c2.256-0.099,5.279-0.358,7.225-1.652c0.738-0.49,1.148-2.063,1.783-1.475c0.197,0.182,0.662,2.403,0.598,2.733
			c-0.795,0.089-1.465-0.155-2.237,0.009c-0.657,0.139-1.572,0.791-2.241,1.01c-2.457,0.807-5.365,1.332-7.953,0.902
			C1564.691,88.292,1562.646,87.565,1560.657,87.127z"/>
		<path fill="#D7C8AA" d="M1575.267,35.967c2.936,1.508,5.902,2.276,9.099,2.996c-2.979-3.482-8.228-3.82-12.114-5.956
			c-1.561-0.857-2.864-2.121-4.497-2.878c-1.368-0.635-3.381-0.395-4.623-0.406c1.704,0.016,3.644,1.523,5.021,2.398
			C1570.449,33.58,1572.85,34.724,1575.267,35.967z"/>
		<path fill="#D7C8AA" d="M1576.289,32.982c2.183,1.17,5.666,1.57,7.256,3.571c-1.523-2.304-3.898-4.021-6.295-5.323
			c-2.387-1.297-5.178-1.537-7.634-2.674C1571.048,30.386,1574.267,31.898,1576.289,32.982z"/>
		<path fill="#0071BC" d="M1574.283,165.223c0,4.301,0.105,8.653-0.076,12.925c-3.629,0.339-7.105,1.526-10.473,2.907
			c0.24-9.314,0.672-11.297,9.549-15.332"/>
		<path fill="#0071BC" d="M1572.708,158.145c0.054-1.514-2.002-10.931-1.419-11.292c-1.763,1.092-3.896,2.598-5.929,3.153
			c0.227,3.354,0.451,9.093-0.508,12.203C1565.633,161.378,1572.697,158.313,1572.708,158.145z"/>
		<path fill="#0071BC" d="M1569.25,131.382c-2.072,2.18-2.199,1.51-2.778,4.336c-0.249,1.217,0.101,4.938-1.106,5.789
			c1.185-0.836,2.455-1.42,3.852-1.793c0.09-2.406,0.033-4.861,0.033-7.284"/>
		
			<path fill="none" stroke="#FFFFFF" stroke-width="0.5" stroke-linecap="round" stroke-linejoin="round" stroke-miterlimit="10" d="
			M1549.783,67.473c-1.375-5,3.791-5.866,6.875-5.875"/>
		
			<path fill="none" stroke="#FFFFFF" stroke-width="0.5" stroke-linecap="round" stroke-linejoin="round" stroke-miterlimit="10" d="
			M1557.658,70.473c1.125-0.375,2.627-1.162,3.766-2.108c1.083-0.901,1.734-2.142,2.234-3.517"/>
		<path fill="#FFFFFF" stroke="#000000" stroke-width="0.5" stroke-miterlimit="10" d="M1583.21,67.04
			c0.033-1.023-0.047-2.186-0.869-2.904c-1.309-1.145-3.549-1.023-5.126-0.76c-0.948,0.158-2.084,0.795-2.274,1.836
			c-0.209,1.141,1.124,1.206,1.945,1.387c1.018,0.225,1.891,0.467,2.938,0.5c1.086,0.035,2.33,0.365,3.383,0.045
			C1583.208,67.108,1583.208,67.074,1583.21,67.04z"/>
		<path stroke="#736759" stroke-miterlimit="10" d="M1576.324,66.536c0.25-1,0.875-1.812,1.5-2.062
			c0.835-0.334,2.249-0.061,2.893,0.484c0.785,0.666,0.787,2.194,0.787,2.194"/>
		<circle fill="#FFFFFF" cx="1578.116" cy="65.14" r="0.5"/>
		<path fill="none" stroke="#000000" stroke-width="0.5" stroke-miterlimit="10" d="M1571.451,64.034
			c0,3.049,3.861,7.522,8.625,7.522s7.623-2.472,7.623-5.521c0-3.05-1.416-5.145-7.623-5.521
			C1575.32,60.225,1571.451,60.984,1571.451,64.034z"/>
		
			<path fill="none" stroke="#FFFFFF" stroke-width="0.5" stroke-linecap="round" stroke-linejoin="round" stroke-miterlimit="10" d="
			M1572.701,65.471c-0.835-3.581,2.582-4.331,6.415-4.081"/>
		
			<path fill="none" stroke="#FFFFFF" stroke-width="0.5" stroke-linecap="round" stroke-linejoin="round" stroke-miterlimit="10" d="
			M1580.949,70.557c1.584-0.167,2.945-0.638,4.084-1.584c1.083-0.9,1.75-2.25,1.916-4.041"/>
		
			<line fill="none" stroke="#000000" stroke-width="0.5" stroke-linecap="round" stroke-linejoin="round" stroke-miterlimit="10" x1="1545.283" y1="60.723" x2="1548.533" y2="65.034"/>
		
			<line fill="none" stroke="#000000" stroke-width="0.5" stroke-linecap="round" stroke-linejoin="round" stroke-miterlimit="10" x1="1590.949" y1="60.723" x2="1587.699" y2="65.034"/>
		
			<path fill="none" stroke="#000000" stroke-width="0.5" stroke-linecap="round" stroke-linejoin="round" stroke-miterlimit="10" d="
			M1564.908,63.848c1.787-1.477,4.75-1.5,6.25-0.375"/>
		<path fill="#736759" d="M1555.918,58.346c-1.499-0.008-2.925,0.427-4.231,1c-1.039,0.455-1.588,1.176-2.762,1.357
			c0.6-2.289,4.187-3.66,6.361-3.861c1.645-0.15,3.348-0.171,4.996-0.246c1.199-0.056,2.455-0.238,3.633-0.204
			C1564.738,59.663,1557.392,58.352,1555.918,58.346z"/>
		<path fill="#736759" d="M1580.313,58.346c1.499-0.008,2.925,0.427,4.231,1c1.039,0.455,1.588,1.176,2.762,1.357
			c-0.6-2.289-4.187-3.66-6.361-3.861c-1.645-0.15-3.348-0.171-4.996-0.246c-1.199-0.056-2.455-0.238-3.633-0.204
			C1571.494,59.663,1578.839,58.352,1580.313,58.346z"/>
	</g>
</g>
</svg>
