<?xml version="1.0" encoding="utf-8"?>
<!-- Generator: Adobe Illustrator 16.0.0, SVG Export Plug-In . SVG Version: 6.00 Build 0)  -->
<!DOCTYPE svg PUBLIC "-//W3C//DTD SVG 1.1//EN" "http://www.w3.org/Graphics/SVG/1.1/DTD/svg11.dtd">
<svg version="1.1" id="Layer_1" xmlns="http://www.w3.org/2000/svg" xmlns:xlink="http://www.w3.org/1999/xlink" x="0px" y="0px"
	 width="169.785px" height="170.857px" viewBox="1913.787 0 169.785 170.857" enable-background="new 1913.787 0 169.785 170.857"
	 xml:space="preserve">
<g>
	<defs>
		<circle id="XMLID_10_" cx="1998.679" cy="85.428" r="78.717"/>
	</defs>
	<use xlink:href="#XMLID_10_"  overflow="visible" fill="#F4F4F4"/>
	<clipPath id="XMLID_16_">
		<use xlink:href="#XMLID_10_"  overflow="visible"/>
	</clipPath>
	<g clip-path="url(#XMLID_16_)">
		<path fill="#2E358F" stroke="#272361" stroke-width="2.3133" stroke-miterlimit="10" d="M1993.816,111.888
			c-6.16,0-12.845-0.731-18.865,0.864c-2.837,0.752-5.557,1.861-8.348,2.763c-2.003,0.647-8.73,4.269-8.328,6.419
			c0.284,1.521,2.604,3.188,3.51,4.426c1.176,1.604,2.26,3.428,2.439,5.453c0.197,2.23-0.611,4.824-0.68,7.137
			c-0.188,6.246-1.344,12.264-2.279,18.436c-0.343,2.251-1.029,5.089-0.587,7.412c0.612,3.215,1.726,6.441,2.009,9.707
			c0.257,2.974,0.444,5.572,1.104,8.58c0.685,3.114,0.601,6.371,0.909,9.547c0.349,3.592,0.325,7.311,0.178,10.92
			c-0.146,3.552-1.852,8.205,0.134,11.492c1.343,2.223,5.399,3.678,7.764,4.398c2.71,0.824,5.763,0.723,8.565,1.347
			c3.925,0.876,8.01,1.141,11.84,2.465c6.268,2.168,15.195-0.402,21.678-1.04c5.723-0.562,14.031-1.131,18.602-5.101
			c3.302-2.866,1.818-9.888,2.11-13.824c0.473-6.398,0.918-12.826,1.563-19.212c0.255-2.513,0.307-4.918,0.319-7.431
			c0.021-4.21,0.746-8.261,1.015-12.418c0.235-3.651,0.145-7.336,0.145-10.994c0-3.951,0.06-7.904-0.092-11.854
			c-0.131-3.416-0.163-6.628-1.028-9.952c-0.768-2.943-0.644-5.958,0.183-8.897c0.49-1.744,1.907-3.244,1.82-5.146
			c-0.056-1.229-0.272-1.313-1.133-1.886c-4.697-3.127-10.793-1.872-16.01-3.002c-3.223-0.698-7.236-0.591-10.563-0.471
			C2005.792,112.243,1999.827,111.888,1993.816,111.888z"/>
		<path fill="#231F20" d="M1974.467,66.499c-0.442,0.804-0.079,2.417-0.315,3.406c-0.473,1.962-1.418,3.399-1.419,5.35
			c0,1.312-0.073,3.051,0.282,4.301c0.156,0.546,0.513,1.023,0.673,1.553c0.183,0.608,0.07,1.176,0.034,1.817
			c-0.087,1.53-0.025,3.065-0.025,4.597c0,1.771-0.262,3.484-0.363,5.252c-0.122,2.093-0.403,4.174-0.508,6.256
			c-0.059,1.137,0.051,2.352-0.082,3.479c-0.068,0.578-0.34,1.317-0.307,1.985c0.217-0.346,0.456-0.174,0.754-0.377
			c0.4-0.273,0.382-0.532,0.721-0.858c0.549-0.531,1.512-0.877,1.938-1.574c0.097,0.31,0.008,0.664,0.06,1.005
			c0.116,0.75,0.554,1.572,0.877,2.259c-0.004-0.795,0.429-1.918,1.026-2.438c0.549,0.91,0.952,1.728,2.228,1.846
			c-0.352-0.705-1.093-1.146-1.399-1.89c-0.291-0.708-0.172-1.601-0.18-2.379c0.315,0.591,0.531,1.431,1.016,1.931
			c0.447-0.645,0.865-1.374,1.192-2.11c1.214,0.858,1.354,3.34,1.037,4.744c1.151-0.78,1.929-2.175,3.015-2.866
			c0.546,0.935,1.498,1.653,2.244,2.433c0.057-0.686-0.109-1.539,0.168-2.142c0.71,0.241,1.366,1.292,1.637,2.005
			c0.156-0.237,0.509-0.415,0.724-0.632c0.321,0.847,1.519,2.2,2.309,2.668c0.209-0.31,0.865-1.521,1.409-1.437
			c0.389,0.061,0.985,1.481,1.143,1.765c0.505-0.691,1.176-1.53,1.742-2.067c0.439,0.707,1.401,1.604,1.482,2.453
			c0.409-0.533,1.386-2.037,2.021-2.347c1.172-0.575,2.25,1.425,3.293,2.17c0.589-0.456,1.036-1.21,1.34-1.843
			c1.075,0.729,0.795,1.254,2.267,1.29c-0.182-0.641-0.154-1.348-0.098-2.002c0.303,0.688,1.529,0.805,2.017,1.708
			c1.079-0.523,1.584-2.064,2.553-2.58c0.29,0.572,0.769,1.01,0.546,1.725c0.863-0.956,1.991-1.355,2.66-2.458
			c0.35,0.844,0.376,1.773,0.463,2.742c0.557-0.807,1.825-2.291,2.566-2.853c0.057,1.143,0.922,2.407,2.152,2.261
			c0.05-0.767-0.183-1.859,0.308-2.386c0.931,1.096,2.286,2.723,3.894,2.379c-0.477-0.583-1.424-2.265-0.448-2.808
			c0.235,0.595,0.84,0.878,1.154,1.375c0.254-0.446,0.49-0.935,0.671-1.418c1.126,0.497,0.848,2.433,0.685,3.413
			c1.175-0.985,2.409-2.476,2.089-3.865c-0.395-1.717-0.694-3.336-0.718-5.205c-0.065-4.895-1.137-9.757-0.86-14.557
			c0.16-2.785-0.008-5.635-0.008-8.424c0-1.236-1.316-2.553-1.043-3.703c0.299-1.258,0.217-2.712,0.518-3.961"/>
		
			<path fill="#E5DCB7" stroke="#998675" stroke-width="1.1566" stroke-linecap="round" stroke-linejoin="round" stroke-miterlimit="10" d="
			M2016.685,109.874c-2.747-4.771-4.049-16.627-2.603-20.097l-13.735,5.327l-13.734-5.327c1.445,3.47,0.145,15.325-2.604,20.097
			c-2.746,4.771,16.338,15.325,16.338,15.325S2019.432,114.644,2016.685,109.874z"/>
		<path fill="#C1BA9D" d="M1997.929,94.74c-1.754-0.447-3.467-1.452-5.188-2.009c-0.73-0.238-3.023-1.406-3.131,0.193
			c-0.042,0.607,0.834,1.631,1.152,2.116c0.944,1.438,2.042,2.81,3.312,3.973c1.347,1.231,3.237,2.206,4.824,3.088
			c1.585,0.88,3.138,1.725,4.636,2.807c1.638,1.184,3.119,2.551,4.74,3.735c1.131,0.828,2.476,1.322,3.625,2.075
			c0.866,0.568,1.952,0.962,2.436-0.129c0.293-0.661,0.079-1.149-0.256-1.912c-0.539-1.232-0.849-2.1-1.106-3.405
			c-0.764-3.861-0.812-7.934-1.021-11.85c-0.047-0.89-0.118-1.551-1.185-1.409c-1.098,0.145-2.354,1.397-3.429,1.768
			c-1.647,0.565-3.428,0.794-5.076,1.23c-0.623,0.165-1.455,0.265-2.088,0.296C1999.316,95.348,1998.754,94.952,1997.929,94.74z"/>
		
			<path fill="#E5DCB7" stroke="#998675" stroke-width="1.1566" stroke-linecap="round" stroke-linejoin="round" stroke-miterlimit="10" d="
			M2000.3,97.04c5.442,0,16.734-6.059,19.321-10.951c2.229-4.219,2.751-10.676,3.812-18.673c4.24-32-13.108-37.661-23.133-37.661
			c-10.025,0-27.373,5.661-23.133,37.661c1.059,7.998,1.581,14.455,3.811,18.673C1983.565,90.981,1994.261,97.04,2000.3,97.04z"/>
		<path fill="#231F20" d="M1976.667,39.715c1.539-1.779,3.503-3.139,5.038-4.904c0.897-1.032,1.593-1.385,2.554-2.351
			c0.917-0.922,1.754-1.859,3.087-2.207c2.456-0.641,4.904-0.678,7.338-1.297c0.544-0.138,5.405-0.557,5.639-0.17
			c0.597,0.992-0.582,1.256-1.131,1.753c-1.819,1.648-7.63,5.631-8.692,5.742c-1.308,0.135-1.554,0.6-2.319,1.461
			c-1.371,1.542-3.691,2.238-4.636,4.188c-0.594,1.227-3.139,12.654-3.697,17.015c-0.18,1.404-2.181,7.397-2.547,8.986
			c-0.408,1.771,0.229,3.608-0.349,5.417c-1.22,3.822-2.306,6.957-2.053,10.965c0.118,1.877-0.206,3.693-0.825,5.466
			c-0.327,0.933-0.377,1.706-0.438,2.657c-0.064,0.991-0.63,1.859-0.903,2.803c0.098-4.016-0.126-5.029-0.02-7.235
			c0.115-2.343,0.468-4.272,0.127-6.597c-0.311-2.121-1.234-20.222-1.24-22.28C1971.599,59.072,1974.969,41.683,1976.667,39.715z"/>
		<path fill="#C1BA9D" d="M1992.4,56.874c0.881-0.048,1.812,1.104,2.311,1.735c1.154,1.459,1.171,3.86,1.376,5.713
			c0.147,1.32,0.086,2.663-0.118,3.974c-0.078,0.503-0.261,2.114-0.826,2.29c-0.533,0.165-1.842-1.078-2.396-1.324
			c-1.01-0.447-2.092-0.806-3.197-0.896c-1.661-0.137-3.315-0.017-4.977-0.185c-1.053-0.106-2.396,0.063-3.326-0.553
			c-0.817-0.542-1.307-1.621-1.375-2.561c-0.121-1.661,0.132-3.094,1.014-4.51c0.806-1.294,2.012-1.612,3.254-2.397
			c0.982-0.621,1.938-0.924,3.053-1.317c1.23-0.436,3.514-0.919,4.728-0.355"/>
		
			<path fill="#E5DCB7" stroke="#998675" stroke-width="1.1566" stroke-linecap="round" stroke-linejoin="round" stroke-miterlimit="10" d="
			M1978.082,65.36c-0.865-1.825-3.387-6.328-5.901-5.761c-0.44,1.203-1.135,2.009-0.859,3.408c0.396,2.008,2.062,3.227,2.63,5.107
			c0.594,1.973,0.43,4.137,1.294,6.022c0.638,1.392,2.178,2.409,3.705,0.928"/>
		
			<path fill="#E5DCB7" stroke="#998675" stroke-width="1.1566" stroke-linecap="round" stroke-linejoin="round" stroke-miterlimit="10" d="
			M2022.517,65.36c0.795-1.673,2.135-3.343,3.405-4.671c0.422-0.441,1.396-1.609,2.134-1.458c0.947,0.195,1.39,2.93,1.223,3.776
			c-0.396,2.008-2.062,3.227-2.629,5.107c-0.595,1.973-0.431,4.137-1.295,6.022c-0.637,1.392-2.178,2.409-3.705,0.928"/>
		<path fill="#231F20" d="M1983.25,59.867c0.86-0.473,1.72-1.117,2.616-1.573c1.371-0.7,2.519-1.293,4.06-1.209
			c1.753,0.094,4.394,1.309,4.875-1.313c-2.067,0.441-4.29,0.051-6.415,0.068c-0.416,0.002-0.913-0.152-1.317-0.083
			c-0.561,0.096-1.071,0.641-1.493,1.008c-0.492,0.428-0.993,0.691-1.529,1.1c-0.734,0.557-2.777,2.049-2.736,3.072
			C1981.834,60.466,1982.632,60.209,1983.25,59.867z"/>
		
			<path fill="#FFFFFF" stroke="#231F20" stroke-width="0.5783" stroke-linecap="round" stroke-linejoin="round" stroke-miterlimit="10" d="
			M1986.332,62.187c-0.855,0.411-2.195,0.368-2.049,1.541c0.129,1.026,0.733,1.845,1.665,2.162c1.208,0.409,2.817,0.492,3.94,0.29
			c0.953-0.171,1.653-0.449,2.245-1.271c0.483-0.673,0.884-1.625,0.294-2.365c-0.576-0.725-1.852-0.924-2.713-1.046"/>
		<path fill="#231F20" stroke="#754D24" stroke-width="1.1566" stroke-miterlimit="10" d="M1986.126,62.595
			c-0.234,1.65,0.771,2.22,2.465,2.193c1.29-0.019,3.031-1.1,2.474-2.515"/>
		<circle fill="#FFFFFF" cx="1987.018" cy="63.271" r="0.578"/>
		<path fill="#C1BA9D" d="M2005.503,58.609c-1.092,1.381-0.992,3.125-1.283,4.759c-0.26,1.459-0.115,3.515,0.189,4.968
			c0.171,0.817,0.217,1.696,0.384,2.582c0.146,0.789,0.388,3.491,1.261,3.874c0.474,0.209,0.449-3.074,0.463-3.316
			c0.055-0.986,0.256-2.23,1.361-2.548c1.979-0.566,4.376-0.586,6.443-0.583c1.096,0.001,2.307,0.158,3.391-0.001
			c0.793-0.116,1.355-0.652,2.006-1.081c0.689-0.455,1.092-0.983,1.383-1.686c0.829-2-0.375-4.063-1.605-5.584
			c-1.279-1.583-3.389-2.242-5.143-3.13c-1.626-0.823-3.68-0.555-5.428-0.408c-0.678,0.057-1.613,0.471-2.178,0.857
			C2006.263,57.642,2005.864,58.154,2005.503,58.609z"/>
		<path fill="#231F20" d="M2017.38,59.867c-0.86-0.473-1.719-1.117-2.615-1.573c-1.373-0.7-2.52-1.293-4.062-1.209
			c-1.752,0.094-4.393,1.309-4.874-1.313c2.066,0.441,4.29,0.051,6.414,0.068c0.416,0.002,0.915-0.152,1.319-0.083
			c0.559,0.096,1.07,0.641,1.492,1.008c0.491,0.428,0.992,0.691,1.53,1.1c0.732,0.557,2.776,2.049,2.735,3.072
			C2018.796,60.466,2017.998,60.209,2017.38,59.867z"/>
		<path fill="#C1BA9D" d="M1976.546,68.126c2.008,0.455-0.291,2.267,0.967,3.002c1.459,0.854,2.094-2.131,1.531-2.965
			c-0.289-0.431-0.609-0.215-1.068-0.386c-0.927-0.346-1.817-1.482-2.276-2.323c-0.338-0.62-0.645-1.233-1.11-1.763
			c-0.289-0.33-1.451-0.953-1.26,0.077c0.568,0.272,1.18,1.461,1.443,1.945c0.25,0.458,0.334,0.915,0.49,1.422
			C1975.528,67.992,1975.695,67.934,1976.546,68.126z"/>
		<path fill="#C1BA9D" d="M2024.054,68.126c-2.009,0.455,0.29,2.267-0.967,3.002c-1.46,0.854-2.095-2.131-1.532-2.965
			c0.289-0.431,0.61-0.215,1.068-0.386c0.927-0.346,1.817-1.482,2.276-2.323c0.338-0.62,0.645-1.233,1.11-1.763
			c0.289-0.33,1.451-0.953,1.261,0.077c-0.569,0.272-1.181,1.461-1.443,1.945c-0.251,0.458-0.335,0.915-0.49,1.422
			C2025.072,67.992,2024.906,67.934,2024.054,68.126z"/>
		
			<path fill="#FFFFFF" stroke="#231F20" stroke-width="0.5783" stroke-linecap="round" stroke-linejoin="round" stroke-miterlimit="10" d="
			M2014.269,62.187c0.854,0.411,2.194,0.368,2.048,1.541c-0.129,1.026-0.733,1.845-1.665,2.162c-1.208,0.409-2.817,0.492-3.939,0.29
			c-0.954-0.171-1.654-0.449-2.246-1.271c-0.483-0.673-0.883-1.625-0.294-2.365c0.576-0.725,1.852-0.924,2.714-1.046"/>
		<path fill="#231F20" stroke="#754D24" stroke-width="1.1566" stroke-miterlimit="10" d="M2014.473,62.595
			c0.235,1.65-0.771,2.22-2.465,2.193c-1.29-0.019-3.031-1.1-2.474-2.515"/>
		<circle fill="#FFFFFF" cx="2010.541" cy="63.25" r="0.578"/>
		<path fill="#231F20" d="M1986.169,63.041c0.958-0.468,1.814-0.092,2.835-0.147c2.138-0.118,3.538,0.673,5.591,0.175
			c-0.641,0.156-2.089-1.473-2.751-1.688c-0.985-0.318-2.03-0.306-3.071-0.394c-0.848-0.071-1.948,0.307-2.723,0.67
			c-0.487,0.228-0.911,0.524-1.395,0.782c-0.729,0.391-1.399,1.306-1.863,1.991c0.494-0.157,0.982-0.368,1.49-0.545
			C1984.912,63.666,1985.537,63.348,1986.169,63.041z"/>
		<path fill="#C1BA9D" d="M1994.708,76.637c0.574,0.497,0.863,1.128,1.505,1.573c0.626,0.434,1.344,0.707,1.983,1.117
			c0.305,0.195,0.58,0.326,0.901,0.493c0.53,0.272,0.985,0.812,1.609,0.921c1.217,0.216,2.589-0.747,3.622-1.208
			c0.924-0.415,3.481-0.847,3.875-1.896c0.158-0.426-0.036-1.288-0.019-1.752c0.033-0.814-0.029-1.668-0.345-2.428
			c-0.29-0.7-1.064-1.859-1.855-1.832c-1.182,0.039-0.834,1.119-0.601,1.951c0.182,0.654,0.824,1.695,0.286,2.345
			c-0.41,0.497-1.287,0.271-1.85,0.366c-0.964,0.163-1.845,0.646-2.817,0.808c-1.01,0.167-2.021,0.091-3.024-0.077
			c-1.092-0.184-2.059-1.078-3.174-0.477"/>
		<path fill="#231F20" d="M2014.43,63.041c-0.958-0.468-1.813-0.092-2.835-0.147c-2.137-0.118-3.538,0.673-5.592,0.175
			c0.643,0.156,2.09-1.473,2.752-1.688c0.985-0.318,2.029-0.306,3.071-0.394c0.849-0.071,1.948,0.307,2.724,0.67
			c0.486,0.228,0.91,0.524,1.394,0.782c0.729,0.391,1.399,1.306,1.864,1.991c-0.495-0.157-0.983-0.368-1.491-0.545
			C2015.689,63.666,2015.063,63.348,2014.43,63.041z"/>
		<path fill="#736357" d="M1996.859,76.946c0.59,0.223,1.225,0.51,1.781,0.865c1.162,0.745,2.118,1.076,3.469,0.32
			c1.164-0.649,2.156-1.133,3.464-1.133c0.401,0,1.396,0.141,1.293-0.563c-0.058-0.399-0.918-0.771-1.163-0.81
			c-0.484-0.076-1.156,0.264-1.623,0.43c-0.559,0.198-1.245,0.432-1.842,0.672c-0.781,0.316-1.755,0.582-2.615,0.42
			c-1.514-0.285-3.651-2.551-5.168-1.108c-0.505,0.479-1.018,1.264,0.076,1.077C1995.334,76.977,1996.026,76.632,1996.859,76.946z"
			/>
		<path fill="#C1BA9D" d="M2000.997,87.905c-0.474-0.086-1.286-0.22-1.789,0.016c-0.306,0.142-0.497,0.42-0.426,0.93
			c0.083,0.605,0.296,0.455,0.865,0.479c0.842,0.036,2.345-0.007,2.95-0.753C2003.34,87.663,2001.675,88.028,2000.997,87.905z"/>
		<path fill="#DDBCA4" d="M2000.781,85.171c-1.568,0.189-4-0.105-5.329-1.062c0.678-0.558,1.895-0.557,2.728-0.501
			c1.021,0.067,1.495,0.742,2.506,0.48c0.837-0.215,1.406-0.384,2.308-0.384c0.972,0,1.952,0.007,2.921-0.003
			C2004.201,83.808,2002.534,84.961,2000.781,85.171z"/>
		<g>
			<path fill="#6FCCDD" d="M2000.3,142.663l19.01-29.906c0,0,0.941-0.271-1.66-2.151c-2.432,2.289-14.748,12.316-16.998,12.316
				c-2.665,0-14.566-10.027-16.997-12.316c-2.603,1.88-1.66,1.861-1.66,1.861L2000.3,142.663z"/>
			<path fill="#29AAE2" d="M2018.117,112.478c-0.1-0.099-0.233-0.223-0.418-0.375c-3.079,2.666-14.243,11.976-17.047,11.976
				c-3.206,0-14.116-9.394-17.056-11.98c-0.125,0.1-0.228,0.187-0.315,0.26l-2.1,0.999c-0.205-0.156-0.363-0.37-0.445-0.625
				c-0.32-0.989,0.504-1.808,2.242-3.064l0.774-0.56l0.695,0.654c3.466,3.263,14.264,11.948,16.207,12.003
				c1.879-0.224,13.134-9.115,16.202-12.003l0.695-0.653l0.775,0.559c1.805,1.304,2.443,2.173,2.283,3.098
				c-0.055,0.317-0.218,0.601-0.449,0.809L2018.117,112.478z"/>
		</g>
		<path fill="#DDBCA4" d="M2001.263,85.343c-0.033,0-0.928-0.203-0.963-0.203c-0.828-0.027-1.001,0.031-1.832,0.012
			c-0.873-0.023-1.395-0.235-2.212-0.59c-0.4-0.174-0.798-0.355-1.238-0.371c0.104,0.664,1.651,1.665,2.193,1.924
			c1.023,0.486,2.138,0.771,3.276,0.7c0.982-0.06,1.91,0.18,2.746-0.354c0.846-0.539,1.844-1.477,2.463-2.273
			c-0.903,0.239-1.796,0.402-2.698,0.675C2002.407,85.04,2001.875,85.343,2001.263,85.343z"/>
		<path fill="#736357" d="M2007.594,82.708c-0.292-0.369-0.628-0.916-0.893-0.361c-0.212,0.447,0.112,0.595-0.396,0.908
			c-0.298,0.184-0.695,0.328-1.004,0.46c-1.068,0.46-2.127,0.669-3.229,0.948c-0.6,0.15-1.181,0.168-1.773,0.178
			c-0.594-0.01-1.175-0.027-1.773-0.178c-1.103-0.279-2.161-0.488-3.229-0.948c-0.309-0.132-0.706-0.276-1.005-0.46
			c-0.507-0.313-0.183-0.461-0.395-0.908c-0.265-0.555-0.6-0.008-0.893,0.361c-0.542,0.691-1.017,1.439-0.96,2.344
			c0.466,0.201,0.469-0.438,0.729-0.677c0.291-0.265,0.562-0.276,0.939-0.183c0.929,0.233,1.781,0.249,2.717,0.559
			c1.224,0.406,2.527,0.968,3.869,0.915c1.34,0.053,2.645-0.509,3.868-0.915c0.936-0.31,1.788-0.325,2.717-0.559
			c0.377-0.094,0.648-0.082,0.939,0.183c0.261,0.238,0.263,0.878,0.729,0.677C2008.611,84.147,2008.136,83.399,2007.594,82.708z"/>
		<path fill="#231F20" d="M1971.599,59.072"/>
		<path fill="#231F20" d="M2021.359,58.553c0.124,0.666,0.167,1.351,0.234,1.877c0.17,1.299,0.5,2.936,0.608,4.431
			c-0.046-0.615,2.597-2.363,3.037-3.074c0.876-1.416,0.679-3.619,0.587-5.2c-0.206-3.556-0.354-7.127-0.936-10.672
			c-0.147-0.889-0.359-1.924-0.737-2.761c-0.898-1.99-4.786-7.175-5.928-8.39c-1.243-1.323-7.169-4.368-8.627-4.808
			c-2.995-0.902-6.135-1.387-9.263-1.389c-3.09-0.003-6.078,0.654-9.104,1.177c-0.623,0.108-1.195,0.44-1.867,0.54
			c-1.418,0.211-2.4,0.472-3.612,0.865c1.695,0.878,3.177,1.945,4.578,3.231c2.866,2.627,4.192,6.181,6.423,9.299
			c1.484,2.075,3.879,3.886,6.109,5.011c3.347,1.688,7.432,2.13,10.547,4.314c0.986,0.691,1.28,1.483,1.893,2.394
			c0.325,0.482,0.888,0.882,1.102,1.417c0.206,0.516,1.229,3.866,1.682,4.167c0.723-1.869-1.615-5.713-2.541-7.178
			c1.635,0.104,2.88,1.929,3.418,3.301c0.334,0.853,0.479,2.272,0.63,3.024c0.163,0.819,0.252,1.618,0.414,2.418
			c1.038-1.959-0.34-4.366-0.259-6.299C2020.763,56.509,2021.162,57.507,2021.359,58.553z"/>
		<g>
			<path fill="#231F20" d="M2019.587,61.613c-0.607-0.667-1.459-1.033-2.397-1.033h-10.198c-0.94,0-1.787,0.367-2.386,1.034
				c-0.504,0.562-0.763,1.28-0.78,2.052c-3.234-0.497-5.979-0.175-6.989-0.014c-0.021-0.766-0.278-1.479-0.779-2.038
				c-0.6-0.667-1.446-1.034-2.39-1.034h-10.195c-0.939,0-1.793,0.367-2.396,1.033c-0.608,0.671-0.895,1.562-0.805,2.506l0.21,2.2
				c0.171,1.763,1.699,2.946,3.805,2.946h8.464c2.108,0,3.652-1.182,3.844-2.942l0.209-1.928c0.831-0.138,3.729-0.531,7.059,0.01
				l0.209,1.918c0.192,1.76,1.737,2.942,3.844,2.942h8.462c2.107,0,3.635-1.184,3.807-2.946l0.21-2.2
				C2020.48,63.175,2020.197,62.284,2019.587,61.613z M1996.109,64.046l-0.239,2.201c-0.185,1.692-1.796,2.292-3.12,2.292h-8.464
				c-1.319,0-2.918-0.599-3.077-2.289l-0.215-2.201c-0.07-0.74,0.151-1.43,0.619-1.946c0.468-0.513,1.126-0.796,1.859-0.796h10.195
				c0.735,0,1.391,0.281,1.848,0.792C1995.978,62.615,1996.189,63.306,1996.109,64.046z M2019.458,66.25
				c-0.163,1.689-1.762,2.289-3.082,2.289h-8.462c-1.322,0-2.937-0.6-3.12-2.292l-0.239-2.201c-0.08-0.74,0.131-1.431,0.593-1.946
				c0.458-0.511,1.112-0.792,1.845-0.792h10.198c0.732,0,1.393,0.283,1.858,0.796c0.472,0.516,0.69,1.207,0.619,1.946
				L2019.458,66.25z"/>
			<polygon opacity="0.2" fill="#FFFFFF" points="1986.025,61.765 1983.822,68.195 1985.751,68.172 1987.888,61.765 			"/>
			<polygon opacity="0.2" fill="#FFFFFF" points="1988.684,61.765 1986.571,68.081 1990.32,68.035 1992.615,61.742 			"/>
			<polygon opacity="0.2" fill="#FFFFFF" points="2009.708,61.765 2007.503,68.195 2009.435,68.172 2011.572,61.765 			"/>
			<polygon opacity="0.2" fill="#FFFFFF" points="2012.366,61.765 2010.253,68.081 2014.001,68.035 2016.298,61.742 			"/>
		</g>
		
			<line fill="#FFFFFF" stroke="#231F20" stroke-width="0.8675" stroke-linecap="round" stroke-linejoin="round" stroke-miterlimit="10" x1="1978.114" y1="63.063" x2="1980.446" y2="64.857"/>
		
			<line fill="#FFFFFF" stroke="#231F20" stroke-width="0.8675" stroke-linecap="round" stroke-linejoin="round" stroke-miterlimit="10" x1="2022.723" y1="63.063" x2="2020.39" y2="64.857"/>
		
			<path fill="none" stroke="#333333" stroke-width="0.5783" stroke-linecap="round" stroke-linejoin="round" stroke-miterlimit="10" d="
			M1993.184,33.166c-0.086,1.209,1.722,3.436,2.318,4.638c1.542,3.108,3.05,4.861,5.536,6.894c2.472,2.022,5.564,3.799,8.652,4.437"
			/>
		
			<path fill="none" stroke="#333333" stroke-width="0.5783" stroke-linecap="round" stroke-linejoin="round" stroke-miterlimit="10" d="
			M1997.311,36.396c2.869,2.803,5.124,5.859,8.429,8.208c2.785,1.982,6.721,2.938,9.333,5.248"/>
		
			<path fill="none" stroke="#333333" stroke-width="0.5783" stroke-linecap="round" stroke-linejoin="round" stroke-miterlimit="10" d="
			M2010.05,43.93c0.544,1.274,2.486,2.02,3.582,2.741c1.637,1.079,3.031,2.406,4.311,4.077"/>
		
			<path fill="none" stroke="#333333" stroke-width="0.5783" stroke-linecap="round" stroke-linejoin="round" stroke-miterlimit="10" d="
			M1981.523,43.507c-1.431,6.165-1.861,12.338-3.229,18.3"/>
		
			<path fill="none" stroke="#333333" stroke-width="0.5783" stroke-linecap="round" stroke-linejoin="round" stroke-miterlimit="10" d="
			M1978.473,46.378c-0.213,2.531-0.839,4.819-0.938,7.431c-0.081,2.157-0.239,4.301-0.498,6.384"/>
		
			<path fill="none" stroke="#333333" stroke-width="0.5783" stroke-linecap="round" stroke-linejoin="round" stroke-miterlimit="10" d="
			M1976.435,49.967c-0.373,2.728-0.539,5.295-0.539,8.073"/>
		
			<path fill="none" stroke="#333333" stroke-width="0.5783" stroke-linecap="round" stroke-linejoin="round" stroke-miterlimit="10" d="
			M1974.884,77.417c-0.295,6.824,2.301,13.338,2.332,20.093"/>
		
			<path fill="none" stroke="#333333" stroke-width="0.5783" stroke-linecap="round" stroke-linejoin="round" stroke-miterlimit="10" d="
			M1977.216,78.672c0.077,2.494-0.533,5.167-0.147,7.663c0.335,2.166,1.155,4.932,1.763,6.869"/>
		
			<path fill="none" stroke="#333333" stroke-width="0.5783" stroke-linecap="round" stroke-linejoin="round" stroke-miterlimit="10" d="
			M1980.388,97.331c0.003-3.791-0.961-6.988-1.434-10.586"/>
		
			<path fill="none" stroke="#333333" stroke-width="0.5783" stroke-linecap="round" stroke-linejoin="round" stroke-miterlimit="10" d="
			M2024.223,82.081c0,5.818,0.179,11.588,0.179,17.403"/>
		
			<path fill="none" stroke="#333333" stroke-width="0.5783" stroke-linecap="round" stroke-linejoin="round" stroke-miterlimit="10" d="
			M2022.07,86.925c0.335,4.227,0.256,8.507,0.538,12.738"/>
		<path opacity="0.2" d="M1993.866,131.471c-2.923-6.422-12.538-6.113-17.55-1.682c-2.293,2.028-1.733,4.705-2.736,7.483
			c3.705-1.257,7.888-3.882,12.818-2.981c4.983,0.911,9.057,6.045,11.877,10.019C1999.357,141.692,1995.149,134.29,1993.866,131.471
			z"/>
		<g>
			<path opacity="0.2" d="M2033.828,155.402c-0.661-7.531-1.11-14.54-1.43-22.041c-0.185-4.296-0.011-8.647-0.002-12.946
				c0.012-5.257-4.506-6.717-9.247-7.383c-3.185-0.447-3.837,0.466-2.946,3.932c0.42,1.632,1.906,4.565,1.863,6.044
				c-0.057,2.016-1.512,2.131-1.686,3.774c-0.542-0.269-1.062-0.48-1.533-0.623c-2.961-0.894-6.281-0.36-9.084,1.22
				c-4.035,2.275-9.559,12.512-5.571,16.937c3.482-4.021,6.782-8.826,12.519-9.699c12.881-1.96,12.842,10.89,13.084,19.924
				c0.134,5.026-1.574,9.912-2.538,14.747c-1.423,7.132-1.799,12.179-0.86,19.098c0.813,5.995,0.741,11.492-2.051,16.993
				c-1.689,3.329-9.111,7.642-8.677,11.577c5.751,0.506,13.373-1.027,14.415-7.292c0.307-1.848-0.188-3.858-0.005-5.725
				c0.249-2.546,1.231-4.787,1.738-7.245c0.819-3.964,0.407-8.023,0.579-12.074C2032.822,174.676,2034.687,165.22,2033.828,155.402z
				"/>
			<path opacity="0.2" d="M2004.348,144.511c-0.062-0.061-0.1-0.133-0.156-0.196c-0.14,0.162-0.281,0.325-0.422,0.485
				L2004.348,144.511z"/>
		</g>
		
			<path fill="none" stroke="#333333" stroke-width="0.5783" stroke-linecap="round" stroke-linejoin="round" stroke-miterlimit="10" d="
			M2021.166,91.231c0,2.414-0.715,5.728-0.359,7.894"/>
		
			<path fill="#2E358F" stroke="#272361" stroke-width="1.1566" stroke-linecap="round" stroke-linejoin="round" stroke-miterlimit="10" d="
			M1998.902,145.672c-0.197-0.262,0.236-3.079,0.09-3.743c-0.296-1.344-1.004-2.732-1.371-4.092
			c-0.961-3.559-2.148-7.028-3.836-10.314c-2.066-4.026-4.225-8.203-6.678-11.87c-1.909-2.855-2.02-5.818-2.154-9.09
			c-1.852,0.664-3.291,2.099-4.817,3.27c-1.7,1.305-2.487,1.203-4.703,1.479c-1.075,0.136-5.2,0.434-4.477,1.012
			c3.462,2.766,9.713,1.415,6.792,7.403c-2.109,4.321-6.834,9.605-5.609,14.723c4.693-3.352,8.815-6.098,15.003-6.568
			c3.76-0.286,4.709,2.655,6.246,5.927C1995.228,137.725,1996.308,142.23,1998.902,145.672z"/>
		
			<path fill="#2E358F" stroke="#272361" stroke-width="1.1566" stroke-linecap="round" stroke-linejoin="round" stroke-miterlimit="10" d="
			M2001.823,145.255c0.196-0.262-0.237-3.079-0.091-3.743c0.296-1.344,1.004-2.731,1.371-4.091c0.961-3.56,2.148-7.028,3.836-10.315
			c2.067-4.025,4.225-8.203,6.678-11.87c1.909-2.854,2.02-5.818,2.154-9.089c1.853,0.664,3.291,2.098,4.817,3.269
			c1.701,1.306,2.487,1.204,4.703,1.479c1.075,0.135,5.2,0.435,4.477,1.013c-3.462,2.764-9.713,1.414-6.792,7.401
			c2.11,4.321,6.834,9.606,5.609,14.723c-4.693-3.352-8.814-6.098-15.002-6.568c-3.761-0.285-4.709,2.656-6.246,5.928
			C2005.496,137.309,2004.416,141.814,2001.823,145.255z"/>
		
			<path fill="#2E358F" stroke="#272361" stroke-width="1.1566" stroke-linecap="round" stroke-linejoin="round" stroke-miterlimit="10" d="
			M2000.3,143.262c0.016,3.989,1.205,41.42,1.353,45.385c0.181,4.833-0.618,9.086-1.271,13.81c-0.539,3.898-1.157,8.06-0.614,11.995
			c0.401,2.91,0.874,5.48,0.874,8.439"/>
		<path fill="#2E358F" stroke="#272361" stroke-width="2.3133" stroke-miterlimit="10" d="M1962.985,124.679
			c-3.554-6.487-10.435-2.79-13.01,2.415c-1.567,3.168-3.397,6.393-4.274,9.827c-0.996,3.91-1.29,7.954-1.772,11.948
			c-0.407,3.377-0.451,6.783-0.448,10.18c0.007,5.982-0.008,11.963,0,17.945c0.002,1.595,0.086,3.273-0.312,4.831
			c-0.389,1.528-0.971,2.771-1.131,4.348c-0.147,1.452-0.12,2.954-0.431,4.379c-0.447,2.063-1.566,3.932-1.958,6.013
			c-0.203,1.075,0.1,2.021,0.024,3.033c-0.092,1.229-0.794,2.375-0.826,3.679c-0.059,2.412,2.691,6.551,4.753,6.93
			c1.194,0.22,3.265-0.148,4.453-0.148c2.176,0,3.644,0.282,5.458-0.669c2.249-1.18,5.699-2.455,6.232-5.189
			c0.356-1.826,0.17-3.878,0.475-5.759c0.3-1.847,0.682-3.682,0.763-5.557c0.272-6.278-0.475-12.479,0.488-18.761
			c0.876-5.728,2.727-11.172,2.837-16.999c0.151-7.817,1.178-15.609,1.15-23.407C1965.445,130.464,1964.568,127.57,1962.985,124.679
			z"/>
		<path fill="#2E358F" stroke="#272361" stroke-width="2.3133" stroke-miterlimit="10" d="M2047.68,121.195
			c-1.73-2.335-3.369-2.376-5.909-3.343c-1.733-0.659-2.484-1.771-3.963-0.022c-0.799,0.945-1.083,2.21-1.316,3.395
			c-0.488,2.487-0.461,5.057-0.48,7.58c-0.036,4.27-0.355,8.577,0.277,12.809c0.414,2.756,1.473,5.269,1.746,8.025
			c0.276,2.788,0.509,5.679,1.013,8.459c1.73,9.531,1.292,18.94,1.301,28.547c0.005,5.229-0.544,10.479-0.288,15.713
			c0.064,1.329,0.049,3.447,0.574,4.437c0.584,1.103,2.739,3.287,3.817,3.802c1.346,0.645,5.237,0.908,6.751,0.457
			c0.975-0.29,1.654-0.954,2.437-1.534c1.786-1.321,4.651-3.364,5.483-5.508c0.842-2.171-0.197-5.494-0.463-7.633
			c-0.898-7.215-1.832-14.656-1.98-21.921c-0.146-7.151-0.742-14.068-1.259-21.211c-0.277-3.851-0.458-7.637-0.883-11.463
			c-0.359-3.256-1.256-6.084-2.178-9.227C2051.366,129.172,2049.723,123.95,2047.68,121.195z"/>
		<path opacity="0.2" d="M2052.333,146.863c-0.129,2.038-0.246,4.075-0.115,6.082c0.397,6.103,1.832,12.115,1.991,18.266
			c0.152,5.917-0.021,11.877,0.381,17.741c0.13,1.886,2.307,10.317-0.513,10.838c-0.618,0.114-5.164-3.852-5.799-4.663
			c-2.202-2.815-0.641-10.601-0.583-14.098c0.088-5.404,0.363-9.796,1.287-15.01c0.711-4.009-1.717-3.546-2.309-6.731
			c-0.581-3.125,1.826-5.3,1.348-8.778c-0.256-1.873-0.786-3.053-1.286-4.703c-0.646-2.131-2.575-19.304-0.473-20.21
			c0.856-0.366,4.062,7.183,4.649,8.37C2052.938,138.065,2052.612,142.465,2052.333,146.863z"/>
		<path opacity="0.2" d="M1951.467,163.165c-0.001,2.587-0.898,6.101-0.302,8.429c0.451,1.764,2.618,2.525,2.626,4.667
			c0.006,1.581-0.769,1.354-1.19,2.568c-1.293,3.736-0.271,4.071,0.916,8.558c1.138,4.295-1.006,3.367-2.12,6.998
			c-0.819,2.669,0.265,8.112,4.074,7.245c1.572-13.613,2.537-27.7,4.741-40.647c1.448-8.502,2.117-17.2,1.396-25.812
			c-0.23-2.754,0.172-7.665-2.372-9.304c-2.411-1.554-4.12-0.269-3.079,2.44c0.916,2.38,2.062,2.196,1.072,4.982
			c-0.957,2.696-2.87,3.751-3.534,6.873C1952.103,147.632,1951.468,155.541,1951.467,163.165z"/>
	</g>
</g>
</svg>
