<?xml version="1.0" encoding="utf-8"?>
<!-- Generator: Adobe Illustrator 16.0.0, SVG Export Plug-In . SVG Version: 6.00 Build 0)  -->
<!DOCTYPE svg PUBLIC "-//W3C//DTD SVG 1.1//EN" "http://www.w3.org/Graphics/SVG/1.1/DTD/svg11.dtd">
<svg version="1.1" id="Layer_1" xmlns="http://www.w3.org/2000/svg" xmlns:xlink="http://www.w3.org/1999/xlink" x="0px" y="0px"
	 width="169.785px" height="170.857px" viewBox="1714.787 0 169.785 170.857" enable-background="new 1714.787 0 169.785 170.857"
	 xml:space="preserve">
<g>
	<defs>
		<circle id="XMLID_9_" cx="1799.679" cy="85.428" r="78.717"/>
	</defs>
	<use xlink:href="#XMLID_9_"  overflow="visible" fill="#F4F4F4"/>
	<clipPath id="XMLID_16_">
		<use xlink:href="#XMLID_9_"  overflow="visible"/>
	</clipPath>
	<g clip-path="url(#XMLID_16_)">
		<path fill="#262261" stroke="#0F103A" stroke-width="2" stroke-miterlimit="10" d="M1753.543,122.123
			c-2.92,0.853-3.351,5.688-5.051,10.423c-1.701,4.735-5.027,29.83-6.91,39.37s-5.565,8.218-5.736,11.007
			c-0.171,2.791,2.608,4.977,1.852,7.08c-0.755,2.105-2.315,3.802-0.062,5.799c2.252,1.997,15.575,3.933,17.791,1.402
			c2.216-2.531,0.022-4.031-0.492-6.236c-0.515-2.204,3.787-6.242,4.524-10.61s3.088-14.216,3.6-22.585
			c0.512-8.37,3.491-8.726,4.051-14.584c0.56-5.856,1.354-16.298-3.984-20.949c-5.339-4.649-7.726,0.671-7.726,0.671
			L1753.543,122.123z"/>
		<path fill="#262261" stroke="#0F103A" stroke-width="2" stroke-miterlimit="10" d="M1835.724,121.195
			c1.497-0.104,2.99-0.207,3.789,0.488c0.471,0.41,3.776-0.342,5.298,0.742c1.719,1.222,2.574,2.301,2.883,4.211
			c0.929,5.749,2.347,7.605,3.379,13.458c1.139,6.459,4.216,12.335,5.505,18.806c1.396,7.011,2.072,14.354,5.134,20.906
			c0.771,1.65,1.714,2.591,0.993,4.47c-0.893,2.328-3.915,7.076-5.914,8.641c-2.197,1.721-4.139,1.004-6.723,1.723
			c-1.649,0.459-4.219,2.412-6.307,1.338c-2.872-1.479-0.362-2.969-0.981-5.213c-0.271-0.98-1.735-1.371-2.029-2.238
			c-0.833-2.457,1.821-6.494,1.761-9.232c-0.077-3.518-1.947-6.847-2.832-10.201c-0.755-2.855-1.197-5.788-1.735-8.703
			c-1.598-8.66-6.264-25.134-5.876-30.423S1835.724,121.195,1835.724,121.195z"/>
		<path fill="#754C28" d="M1784.759,94.781c1.27,0.974,2.811,1.949,4.36,2.641c1.525,0.681,3.343,1.635,4.935,2.035
			c1.219,0.305,2.525,0.477,3.709,0.819c0.695,0.202,1.612,0.78,2.297,0.884c1.487,0.225,3.641-1.945,4.974-2.859
			c4.058-2.78,7.769-6.338,12.067-8.482c2.495-1.245,5.299-2.223,7.816-3.575c0.033-1.136,0.018-2.343-0.146-3.465
			c-0.674-4.598-1.508-9.153-1.674-13.828c-0.156-4.397-0.222-8.788-0.5-13.183c-0.263-4.131-1.94-6.901-4.002-10.51
			c-1.516-2.654-3.718-6.108-6.529-7.449c-4.33-2.065-9.201-4.012-13.748-5.479c-8.172-2.637-13.938,5.105-18.443,10.742
			c-2.311,2.892-3.994,6.023-4.603,9.675c-1.022,6.137-0.526,10.925,0.19,17.074c0.465,3.979,1.059,7.971,1.297,11.96
			c0.137,2.283-0.014,5.55,1.576,7.371C1780.12,91.195,1782.593,93.119,1784.759,94.781z"/>
		<path fill="#D6C7AA" stroke="#716558" stroke-miterlimit="10" d="M1789.013,88.537c0,0,1,9.244-0.25,15.494s-11.25,9.25-19,12.25
			c8.25,8.5,14.5,16,29,16s24-9.75,27-17.5c-13-4-16-5.75-17-10.25s-0.022-16-0.022-16L1789.013,88.537z"/>
		<path fill="#262261" stroke="#0F103A" stroke-width="2" stroke-miterlimit="10" d="M1772.763,114.531c0,0-1.25,1.75,1,4
			s10.75,12.751,25.5,12.751c16.25,0,24.75-15.251,24.75-16.251s-2-2-2-2s5.5-0.5,12.75,3.75c5.25,3,4.75,4.25,4.75,4.25
			s-4.499,0.499-4.249,10.749s3.749,22.493,3.749,27.993s-5.252,12.503-7.002,14.753c-0.75,5.25-0.748,16.001-0.748,20.001
			s3.752,17.75,6.252,20.75c-15.752,13.248-27.754,16.998-33.504,17.998c-2.75-7.25-3.751-10.253-3.751-10.253
			s-2.749,9.503-3.749,10.753c-8.25-0.75-20.249-3.251-35.999-13.501c4.25-13.75,6.562-19.415,7.748-23.496
			c-1.747-9.745-0.995-15.998-0.745-19.998c-2.75-5.25-5.502-10.003-5.502-14.003s2.999-25.749,2.999-32.499
			s-5.249-9.497-6.499-9.247s1.25-1.5,6.25-4s7.034-3.221,10.205-2.92C1772.468,115.111,1772.763,114.531,1772.763,114.531z"/>
		<path opacity="0.2" fill="#231F20" d="M1825.356,131.081c0.138-3.692,6.311-19.972,8.347-9.298
			c2.381,12.484-0.551,22.754-0.001,35.509c0.26,6.029-0.548,6.616-3.401,11.914c-4.594,8.531-2.98,24.814-1.747,35.364
			c1.343,11.485,6.267,11.06-5.886,16.441c-6.891-7.394-4.395-16.593-3.633-25.572c0.706-8.334-0.613-13.083-4.26-20.263
			c-0.146-0.286-0.189-0.59-0.131-0.91c4-4.311,8.216-5.574,10.523-11.16c2.133-5.164,2.732-11.29,3.034-16.824
			C1828.556,139.76,1825.113,137.58,1825.356,131.081z"/>
		<path fill="#D6C7AA" stroke="#716558" stroke-miterlimit="10" d="M1798.826,32.626c17.375,0,19.25,20.061,19.25,28.561
			c0,17.625-8.812,36.563-19.312,36.563h0.125c-10.5,0-19.312-18.938-19.312-36.563
			C1779.576,52.687,1781.451,32.626,1798.826,32.626z"/>
		<path fill="#A87C4F" stroke="#8A5D3B" stroke-miterlimit="10" d="M1779.929,61.948c0,13,1,23.999,1.834,33.499
			c-2.667-2-5.834-5.832-7.166-8.666c-0.191-0.408,0.332-4.067,0.332-4.067s-1.24,2.727-1.366,2.604
			c-1.494-1.462-3.466-1.536-3.466-1.536s1.479-1.428,1.99-3.834c0.621-2.919-0.99-17.333-0.99-24.499s3.332-12.332,4.166-12.998
			s2-0.167,2-0.167s1.334-1.167,2.166-5c3.167-2.333,13.5-7.5,13.5-7.5l-0.666-1.333c0,0,0.5,0.667,8,0.333
			c15-2.333,23,10.667,24.5,16s1.334-0.502,2.834,10.338c0.669,4.83-4.185,28.997,8.487,25.623
			c-0.863,1.648-2.071,5.998-7.317,4.207c0.594,1.018,1.324,1.992,2.162,2.83c-3.5,2.666-4.832,0-4.832,0s-0.919,4.047-6.922,4.047
			c-3.938,0-5.609,1.273-7.101,4.295c-0.274-1.608-0.353-4.59,0.688-8.508c2.184-8.214,3.332-8.167,5.166-20.667
			c-0.5-3.167-1.167-6.667-0.5-14.833c-5.834-5.833-15.5-8.832-15.5-8.832s0,0,0.334,1.667c-2.5-1.333-4.5-1.167-9.5-9.333
			c-0.875,4.167,1.125,3.292-4.875,9.667S1779.929,56.115,1779.929,61.948z"/>
		<path fill="#C1AC90" d="M1810.05,125.784c0.305-0.991-0.871-2.77-1.103-3.788c-0.252-1.109-0.208-2.158-0.272-3.286
			c1.596-0.875,3.033-2.171,4.361-3.358c0.454-0.406,0.58-0.893,1.211-1.03c0.49-0.106,1.055,0.067,1.535,0.15
			c1.193,0.208,2.326,0.438,3.507,0.695c0.69,0.151,2.292,0.614,2.974,0.302c0.663-0.303,0.549-0.781,0.043-1.026
			c-0.189-0.091-0.519-0.147-0.676-0.193c-0.564-0.163-0.983-0.321-1.559-0.636c-0.879-0.477-1.803-0.819-2.718-1.221
			c-0.8-0.351-1.407-0.871-2.135-1.271c-1.029-0.568-2.21-0.84-3.186-1.527c-2.316-1.631-3.651-4.262-4.429-6.932
			c-0.372-1.275,0.338-1.863,0.222-3.189c-0.064-0.732,0.116-5.89,0.116-5.89c-2.08,1.964-3.523,3.118-6.814,4.389
			c-1.193,0.46-1.375,1.981-2.127,2.986c-0.516,0.691-0.806,1.63-1.361,2.253c-0.705,0.792-1.658,0.527-2.466,0.98
			c-0.694,0.389-1.162,1.53-1.624,2.164c-0.488,0.671-1.109,1.782-1.902,2.1c-0.858,0.343-1.957-0.109-2.814-0.197
			c-0.968-0.098-1.932-0.062-2.545,0.685c-0.995,1.212,3.086,2.907,3.625,3.314c1.83,1.38,1.162,3.521,1.162,5.649
			c0,2.002-0.047,4.041,0.129,6.001c0.078,0.87,0.035,2.668,0.622,3.346c0.79,0.913,4.06,1.005,5.233,1.128
			c2.211,0.232,4.391,0.729,6.626,0.528C1805.528,128.744,1809.419,127.841,1810.05,125.784z"/>
		<path fill="#C1B49A" stroke="#716558" stroke-miterlimit="10" d="M1808.425,143.876"/>
		<path d="M1760.763,120.531"/>
		<path fill="#262261" stroke="#0F103A" stroke-miterlimit="10" d="M1838.013,121.031"/>
		<path fill="#262261" stroke="#0F103A" stroke-miterlimit="10" d="M1803.765,166.281c0,18.306-1.556,30.433-1.503,48.494"/>
		<path fill="#D91C5C" d="M1798.836,85.556c-2.068-0.009-5.256-0.484-5.256-0.484c1.06,1.06,2.22,2.912,5.144,2.912
			s4.083-1.853,5.142-2.912C1803.866,85.072,1800.903,85.548,1798.836,85.556z"/>
		<path fill="#D91C5C" d="M1804.798,84.878c-0.907,0-3.328-1.74-4.159-1.74c-0.814,0-0.624,0.72-1.892,0.751
			c-1.266-0.031-1.076-0.751-1.89-0.751c-0.832,0-3.252,1.74-4.159,1.74c-0.891,0,3.452,0.651,5.974,0.677v0.003
			c0.024,0,0.052-0.001,0.075-0.001c0.025,0,0.053,0.001,0.076,0.001v-0.003C1801.346,85.529,1805.689,84.878,1804.798,84.878z"/>
		<path fill="#C1AC90" d="M1799.734,90.857c0.621,0.088,3.465,0.673,2.717-0.158c-0.75-0.834-2.76-1.205-3.557-1.229
			c-0.699-0.021-2.193,0.312-3.109,0.979c-0.831,0.604,0.289,0.573,0.916,0.5C1797.72,90.83,1798.648,90.701,1799.734,90.857z"/>
		<path fill="#C3996B" d="M1801.453,40.368c0.094-0.502-0.06-1.454-0.236-1.95c1.889,3.072,4.53,4.482,7.735,6.334
			c2.505,1.447,4.993,2.205,7.211,3.975c1.745,1.393,3.271,2.79,4.176,4.565c-0.005,0.095-0.009,0.097-0.014,0.007
			c0.761-4.78-2.04-5.743-4.329-9.369c1.255,0.175,2.906,1.303,3.846,2.183c0.126-1.232-1.447-3.426-2.202-4.37
			c-1.038-1.296-2.19-3.107-3.741-3.841c1.48,0.022,3.355,0.433,4.436,1.435c-2.248-3.873-5.363-7.146-9.883-7.581
			c-3.539-0.341-7.285-0.384-10.811-1.083c0.352,0.503,0.727,1.057,1.141,1.519c-1.516,0.479-3.869-0.222-5.565-0.136
			c2.228-0.111,3.681,3.093,4.681,4.588C1798.275,37.21,1801.517,40.025,1801.453,40.368z"/>
		<path fill="#C3996B" d="M1786.804,43.836c-2.213,2.162-3.896,4.501-5.496,7.11c-4.119,6.722-3.586,13.42-2.496,21.079
			c-1.016-0.74-2.324-3.388-2.681-4.623c-0.454-1.573-0.558-2.387-0.556-4.034c0.003-2.544,0.397-5.001,0.503-7.522
			c0.103-2.436,0.923-3.169,0.722-5.55c-1.084,1.089-1.766,0.738-2.871,1.685c0.628-3.037,1.213-4.719,2.744-7.188
			c0.172,0.558,0.515,0.987,0.868,1.468c0.321-1.81,2.64-3.534,3.774-4.831c-0.793,0.117-1.76,0.407-2.389,0.909
			c1.889-1.869,3.146-4.163,5.491-5.565c2.146-1.284,5.878-1.626,7.419-3.582C1790.832,36.838,1789.583,41.121,1786.804,43.836z"/>
		
			<path fill="none" stroke="#754C28" stroke-width="0.5" stroke-linecap="round" stroke-linejoin="round" stroke-miterlimit="10" d="
			M1798.888,85.592c-1.312,0-6.189-0.562-6.939-1.25"/>
		
			<path fill="none" stroke="#754C28" stroke-width="0.5" stroke-linecap="round" stroke-linejoin="round" stroke-miterlimit="10" d="
			M1798.638,85.592c1.312,0,6.189-0.562,6.939-1.25"/>
		
			<path fill="none" stroke="#754C28" stroke-width="0.5" stroke-linecap="round" stroke-linejoin="round" stroke-miterlimit="10" d="
			M1792.199,83.607c-0.516,0.719-0.547,1.5-0.547,1.5"/>
		
			<path fill="none" stroke="#754C28" stroke-width="0.5" stroke-linecap="round" stroke-linejoin="round" stroke-miterlimit="10" d="
			M1805.312,83.607c0.516,0.719,0.547,1.5,0.547,1.5"/>
		<circle fill="#A6A8AB" stroke="#58595B" stroke-miterlimit="10" cx="1799.204" cy="165.513" r="1.25"/>
		<path opacity="0.2" fill="#231F20" d="M1752.461,188.274c3.81-13.636,5.844-26.465,7.226-39.094c0.69-6.316,2.915-8.599,2.688-15
			c-0.279-7.854-5.023-14.651-7.494-3.534c-2.851,12.818-3.879,22.048-4.953,35.112c-0.384,4.656-1.608,9.116-2.009,13.604
			c-0.171,1.915-0.782,3.595,0.171,5.451C1748.402,185.423,1752.318,188.786,1752.461,188.274z"/>
		<path opacity="0.2" fill="#231F20" d="M1849.062,169.385c0.274,2.953,0.512,13.313,3.113,14.94
			c5.921,3.701,5.716-6.827,5.536-9.56c-0.672-10.219-5.087-20.18-7.805-29.768c-0.938-3.31-2.784-24.756-9.55-21.113
			C1834.857,126.847,1848.48,163.104,1849.062,169.385z"/>
		<path opacity="0.2" fill="#231F20" d="M1764.694,167.772c3.416,3.777,8.733,4.654,13.509,3.506c3.49-0.838,6.26-2.642,10.02-1.021
			c6.098,2.627-2.288,6.811-5.254,7.145c-5.785,0.65-14.518-4.67-17.772-9.131"/>
		<path fill="#C3996B" d="M1821.184,69.913c-0.55-0.158-1.267-0.477-1.788-0.793c0.123,7.277-3.739,14.154-4.703,21.248
			c0.815-2.592,2.508-4.642,3.708-6.925c1.302-2.474,2.233-5.057,2.667-7.953c0.484,1.545,1.877,3.285,3.445,3.432
			c-0.787-3.735-0.278-7.67-1.488-11.138c-0.934-2.68-0.658-5.526-0.99-8.345c-0.262-2.217-1.777-4.256-3.3-5.817
			c1.036,1.062,0.388,6.655,0.396,8.106C1819.145,64.582,1819.301,67.6,1821.184,69.913z"/>
		<g>
			<path fill="#BADEE1" stroke="#26A9E0" stroke-miterlimit="10" d="M1800.536,104.09c-2.056,0.375-4.501-2.102-6.335-2.664
				c-5.783-1.774-5.533-4.232-5.717-5.061c-1.677-0.328-1.438,0.348-1.554,2.082c-0.079,1.17,0.319,1.605,0.829,2.505
				c0.463,0.815,1.039,1.167,0.527,2.182c-0.193,0.382-1.499,2.761-1.773,3.022c-2.271,2.16-0.061,2.313,2.579,3.625
				c1.171,0.58,1.987,0.93,3.338,1c2.496,0.128,4.853,0.334,7.333,0.333c1.546-0.001,2.68-0.638,4.176-0.667
				c1.577-0.03,3.262,0.925,4.834,0.508c0.657-0.174,3.16-1.953,3.457-2.582c0.797-1.695-0.313-2.105-1.405-2.217
				c-0.104-1.311-0.957-1.754-1.38-2.891c-0.451-1.216-0.535-1.41-0.145-2.619c0.666-2.068,2.078-4.265,0.014-4.543
				c-0.723,2.825-3.207,3.315-5.555,4.182C1801.558,101.097,1801.447,102.318,1800.536,104.09z"/>
			<path fill="none" stroke="#26A9E0" stroke-linecap="round" stroke-linejoin="round" stroke-miterlimit="10" d="M1788.761,106.283
				c0.527,1.316,2.889,2.674,4.334,2.5"/>
			<path fill="#26A9E0" d="M1800.978,144.391c-3.251,3.895-7.61,7.619-12.71,8.762c-2.577,0.578-4.649,0.479-7.143-0.49
				c-1.393-0.541-2.41-0.793-3.437,0.405c-1.347,1.573-0.569,2.07,0.83,2.731c0.068,0.033,0.311-0.03,0.499,0.074
				c0.147,0.082,0.266,0.516,0.488,0.67c0.504,0.35,1.053,0.407,1.59,0.129c0.205,2.031,2.367,2.837,3.695,1.473
				c1.325,1.768,7.197,3.554,7.454-0.031c0.928,0.525,2.108,1.324,3.176,0.736c0.483-0.268,0.933-0.945,1.106-1.452
				c0.152-0.442-0.091-1.497,0.227-1.815c0.283-0.285,1.11,0.08,1.517,0.002c2.142-0.414,1.68-2.687,2.612-3.961
				c0.296-0.404,0.97-0.281,1.416-0.502c1.322-0.652,1.502-3.1,1.534-4.391c-0.004,0.137,1.596-0.395,1.684-0.433
				c0.014,0.628,0.16,1.114,0.528,1.62c0.433,0.597,0.763,0.582,1.505,0.828c1.904,0.633,4.464,1.17,5.463-0.979
				c0.811,0.341,1.856,0.888,2.416-0.157c0.222-0.414,0.154-1.252,0.075-1.679c0.921,0.019,3.378-0.883,1.818-2.042
				c2.116-0.352,2.327-1.487,0.146-2.007c-1.324-0.314-2.486-0.619-3.605-1.386c-2.36-1.615-4.688-2.422-7.438-1.218
				C1804.087,140.302,1802.562,142.493,1800.978,144.391z"/>
			<path fill="#BADEE1" stroke="#26A9E0" stroke-miterlimit="10" d="M1807.889,113.914c3.067-1.918,3.618-4.094,6.878-2.764
				c5.087,2.075,6.834,3.22,15.441,3.22c-2.414-2.306-5.102-2.92-6.904-5.831c-0.708-1.142-1.31-2.858-2.369-3.625
				c-1.486-1.072-3.654-0.652-5.496-0.504c-2.933,0.238-5.873-0.27-8.047,1.488c-1.423,1.15-1.396,2.26-3.464,2.383
				c-1.286,0.076-3.19-1.12-4.407-0.555c-1.871,0.873-0.271,2.825,0.52,4.275C1801.915,115.435,1804.558,115.998,1807.889,113.914z"
				/>
			<path fill="none" stroke="#26A9E0" stroke-linecap="round" stroke-linejoin="round" stroke-miterlimit="10" d="M1802.763,106.447
				c2.266,0,3.688-2.398,4.5-4.668"/>
			<path fill="#BADEE1" stroke="#26A9E0" stroke-miterlimit="10" d="M1810.125,147.917c3.755,1.102,6.367-2.816,7.951-5.609
				c-2.707-0.842-5.307-2.563-6.771-5.035c-1.491-2.521-2.06-1.8-3.13-4.366c-2.34-5.604-5.312-11.385-5.745-17.459
				c-0.159-2.226,0.554-15.525-4.69-11.848c-2.928,2.054-3.922,7.77-4.652,11.01c-0.953,4.236-1.156,8.908-1.49,13.338
				c-0.365,4.844-1.131,5.124-2.297,9.825c-1.336,5.385-2.381,8.589-5.992,12.711c-1.732,1.979-3.133,1.717-5.183,2.654
				c0.835,3.324,6.876,5.37,9.792,5.645c4.779,0.451,9.845-4.357,12.643-7.586c2.309-2.666,4.797-5.645,7.865-7.32
				c0.094-0.052,0.188-0.102,0.283-0.151c1.232-0.634,3.413-1.307,4.809-0.578c2.104,1.099,0.95,2.313-0.587,2.999
				C1811.874,146.616,1810.828,146.991,1810.125,147.917z"/>
			<path fill="none" stroke="#26A9E0" stroke-linecap="round" stroke-linejoin="round" stroke-miterlimit="10" d="M1798.597,108.445
				c0.018,7.25-0.236,15.283,1.887,22.309c0.986,3.266,0.912,3.115,2.28,6.188"/>
			<path fill="none" stroke="#26A9E0" stroke-linecap="round" stroke-linejoin="round" stroke-miterlimit="10" d="M1796.597,112.275
				c0,11.267,2.188,19.205-1.333,29.997"/>
			<path fill="none" stroke="#26A9E0" stroke-linecap="round" stroke-linejoin="round" stroke-miterlimit="10" d="M1810.392,111.987
				c1.648-1.296,2.068-1.576,3.121-2.061c1.652-0.761,4.256-1.634,5.945-0.412"/>
		</g>
		<path fill="#C3996B" d="M1779.091,75.427c-0.232-1.676-1.426-2.823-2.49-4.029c-0.525-0.597-2.46-2.832-1.974-3.733
			c-1.197,2.22,0.495,5.311,1.304,7.355c1.225,3.095,1.616,6.562,1.218,9.903c0.233-1.078,0.917-2.229,1.228-3.414
			C1778.868,79.637,1779.365,77.394,1779.091,75.427z"/>
		<path fill="#C1AC90" d="M1783.626,66c0.189,0.253,0.582,0.7,0.922,0.926c1.25,0.832,7.143,2.279,10.441-1.921
			c2.03-2.585,0.459-7.977-2.892-8.589c-2.202-0.402-5.07-0.792-7.238-0.032c-1.388,0.486-2.327,1.88-2.726,3.261
			c-0.406,1.413,0.328,2.414,0.831,3.666C1783.458,64.538,1782.886,65.012,1783.626,66z"/>
		<path fill="#A87C4F" d="M1787.953,56.286c-1.445,0-5.44,0.598-5.677,2.187c0.865-5.815,8.926-2.948,12.483-3.484
			C1794.855,57.263,1789.429,56.286,1787.953,56.286z"/>
		<g>
			<path fill="#FFFFFF" stroke="#231F20" stroke-width="0.6655" stroke-miterlimit="10" d="M1789.527,66.175
				c2.338,0,4.225-2.337,4.225-4.125c-2.256-1.154-2.865-2.139-5.398-1.477c-1.771,0.465-2.496,1.842-3.775,3.265
				C1785.541,64.387,1786.916,66.175,1789.527,66.175z"/>
			<circle fill="#231F20" stroke="#007694" stroke-width="0.7321" stroke-miterlimit="10" cx="1789.249" cy="63.011" r="2.114"/>
			<circle fill="#FFFFFF" cx="1788.475" cy="62.272" r="0.652"/>
			<path fill="#231F20" d="M1783.908,64.01c-0.688-0.032-1.145-0.767-1.416-1.289c0.346,0.197,0.593,0.373,0.992,0.443
				c-0.319-0.358-0.416-0.824-0.278-1.308c0.19,0.349,0.547,0.544,0.99,0.535c-0.425-0.354-0.351-0.958-0.228-1.438
				c0.473,1.462,2.188,0.022,2.907-0.186"/>
		</g>
		<g>
			<path fill="#C1AC90" d="M1815.877,60.43c-0.269-2.253-2.041-3.44-4.4-4.186c-2.015-0.636-3.154-0.344-5.165,0.169
				c-5.592,1.423-5.43,8.627-5.609,12.997c-0.139,3.366,0.59,7.111-3.722,7.683c-0.069,0.01,1.112,1.405,1.302,1.525
				c0.584,0.37,1.266,0.534,1.953,0.515c1.363-0.039,2.986-0.88,3.299-2.271c0.557-2.476-2.828-5.675-0.838-7.964
				c1.715-1.969,5.77-0.611,7.934-0.533c1.041,0.038,2.514,0.142,3.414-0.512c1.289-0.935,0.584-2.519,1.036-3.88
				C1815.442,62.887,1816.152,62.737,1815.877,60.43z"/>
		</g>
		<path fill="#754C28" d="M1802.544,76.376c-1.987,0.717-4.859,0.717-6.831-0.004c0.19,0.346,1.513,1.757,3.331,1.757
			C1801.351,78.129,1802.448,76.577,1802.544,76.376z"/>
		<g>
			<path fill="#FFFFFF" stroke="#231F20" stroke-width="0.6655" stroke-miterlimit="10" d="M1807.915,66.175
				c-2.338,0-4.224-2.337-4.224-4.125c2.257-1.154,2.865-2.139,5.399-1.477c1.771,0.465,2.495,1.842,3.774,3.265
				C1811.902,64.387,1810.527,66.175,1807.915,66.175z"/>
			<path fill="#231F20" d="M1813.618,64.01c0.688-0.032,1.146-0.767,1.417-1.289c-0.347,0.197-0.594,0.373-0.992,0.443
				c0.318-0.358,0.416-0.824,0.278-1.308c-0.19,0.349-0.548,0.544-0.99,0.535c0.425-0.354,0.351-0.958,0.227-1.438
				c-0.473,1.462-2.187,0.022-2.907-0.186"/>
		</g>
		<circle fill="#231F20" stroke="#007694" stroke-width="0.7321" stroke-miterlimit="10" cx="1808.277" cy="63.011" r="2.114"/>
		<circle fill="#FFFFFF" cx="1807.503" cy="62.272" r="0.652"/>
		
			<path fill="none" stroke="#FFFFFF" stroke-width="0.5" stroke-linecap="round" stroke-linejoin="round" stroke-miterlimit="10" d="
			M1795.032,85.659"/>
		<path fill="#231F20" d="M1795.506,63.699c-1.568-1.259-3.504-1.757-6.043-1.757c-2.828,0-2.82,1.076-4.833,1.987
			c-1.828-5.149,8.507-5.566,10.142-2.063C1794.958,62.263,1795.506,63.699,1795.506,63.699z"/>
		<path fill="#231F20" d="M1802.088,63.699c1.568-1.259,3.504-1.757,6.043-1.757c2.828,0,2.82,1.076,4.833,1.987
			c1.828-5.149-8.507-5.566-10.143-2.063C1802.636,62.263,1802.088,63.699,1802.088,63.699z"/>
		<path fill="#A87C4F" d="M1809.804,56.286c1.169,0,5.44,0.598,5.677,2.187c-0.865-5.815-8.926-2.948-12.483-3.484
			C1802.902,57.263,1808.328,56.286,1809.804,56.286z"/>
	</g>
</g>
</svg>
