<?xml version="1.0" encoding="utf-8"?>
<!-- Generator: Adobe Illustrator 16.0.0, SVG Export Plug-In . SVG Version: 6.00 Build 0)  -->
<!DOCTYPE svg PUBLIC "-//W3C//DTD SVG 1.1//EN" "http://www.w3.org/Graphics/SVG/1.1/DTD/svg11.dtd">
<svg version="1.1" id="Layer_1" xmlns="http://www.w3.org/2000/svg" xmlns:xlink="http://www.w3.org/1999/xlink" x="0px" y="0px"
	 width="169.785px" height="170.857px" viewBox="548.797 0 169.785 170.857" enable-background="new 548.797 0 169.785 170.857"
	 xml:space="preserve">
<g>
	<defs>
		<circle id="XMLID_4_" cx="633.69" cy="85.428" r="78.717"/>
	</defs>
	<use xlink:href="#XMLID_4_"  overflow="visible" fill="#F4F4F4"/>
	<clipPath id="XMLID_16_">
		<use xlink:href="#XMLID_4_"  overflow="visible"/>
	</clipPath>
	<g clip-path="url(#XMLID_16_)">
		<path fill="#224266" stroke="#0F2133" stroke-width="2" stroke-miterlimit="10" d="M710.722,212.913
			c-6.008,1.182-15.906,8.352-17.388,2.895c-2.265-8.336-3.198-16.367-3.624-22.082c-0.248-3.324-0.272-7.918-0.601-12.339
			c-0.611-8.212-1.37-14.466-1.9-22.679c-0.56-8.67-1.118-25.732,4.442-33.25c3.971-5.365,7.692-4.936,11.838-0.535
			c4.89,5.191,2.969,10.604,5.639,16.654c1.754,3.971,5.432,6.043,6.459,10.476c0.995,4.295-0.497,8.749-0.551,13.043
			c-0.125,9.986,4.037,20.899,5.555,30.796c1.167,7.613,5.014,14.164-5.361,16.114C713.878,212.26,712.347,212.593,710.722,212.913z
			"/>
		<path fill="#224266" stroke="#0F2133" stroke-width="2" stroke-miterlimit="10" d="M577.449,142.484
			c-0.567-5.433-1.586-11.073-3.854-16.079c-0.56-1.231-1.127-4.08-2.078-4.778c-1.898-1.394-5.37,1.106-7.246,1.669
			c-8.086,2.419-4.945,9.119-8.182,15.836c-1.954,4.057-4.139,4.703-5.138,9.135c-1.038,4.602-0.364,12.561-1.116,17.226
			c-0.994,6.169-4.697,12.366-5.356,18.573c-0.599,5.631-3.162,20.629-2.187,22.431c1.416,2.612,1.454,2.194,4.345,2.488
			c3.62,0.369,7.196,0.696,10.677,1.636c3.383,0.912,10.092,3.586,13.227,0.879c4.387-3.789,2.992-9.953,3.512-14.893
			c0.753-7.152,2.028-14.173,2.859-21.283C578.075,165.383,578.49,152.468,577.449,142.484z"/>
		<path opacity="0.1" d="M572.913,184.903c0.354-0.982,0.669-1.982,0.865-3.021c0.7-3.683-0.404-10.078-0.899-13.869
			c-0.6-4.597-1.529-9.375-2.566-13.893c-1.73-7.532-3.331-15.517-5.654-22.841c2.033,14.384-3.057,29.548-4.557,43.868
			c-0.646,6.182,0.467,12.465-0.496,18.486c-0.463,2.891-2.584,6.163,0.432,8.213c2.701,1.837,9.607,0.758,11.094-2.155
			c1.178-2.31-0.531-4.353-0.494-6.667C570.683,190.13,571.949,187.577,572.913,184.903z"/>
		<path fill="#BD2327" stroke="#6E6F72" stroke-miterlimit="10" d="M641.431,205.731c-0.208,5.934-7.16,9.448-8.668,14.911
			c-1.907-1.548-2.863-4.79-3.883-6.955c-1.191-2.528-2.868-4.516-4.471-6.808c-1.864-2.666-1.877-3.459-1.617-6.898
			c0.479-6.345,0.954-12.604,1.327-19.039c0.63-10.875,3.464-21.412,3.716-32.32c0.033-1.428,0.07-2.811,0.294-4.184
			c0.48-2.961,0.751-3.986,1.378-6.943c0.2-0.942,1.043-3.034,0.959-5.336c1.022-9.95-0.706-13.853,4.137-13.061
			c0.423,2.742-0.227,10.74,0.723,13.424c1.062,2.999,1.139,6.143,1.254,9.312c0.236,6.479,1.129,12.929,1.677,19.392
			c0.337,3.968,1.375,7.604,1.522,11.625c0.229,6.269,0.684,12.52,0.911,18.795C640.859,196.33,641.595,201.044,641.431,205.731z"/>
		<path stroke="#6E6F72" stroke-miterlimit="10" d="M631.986,228.505c-1.508-1.376-2.77-2.99-4.236-4.404
			c-0.312-0.301-3.277-2.617-3.267-2.722c0.534-5.3,2.519-10.466,2.735-15.814c0.094-2.357,0.229-4.752,0.229-7.171
			c0-6.26,1.216-12.615,1.624-18.828c0.254-3.85-0.012-7.637,0.386-11.495c0.523-5.097-3.965-10.128-3.634-15.177
			c0.443-6.754,1.416-13.634,1.804-20.429c0.144-2.505,1.557-8.155,1.952-10.534c0.538-3.234,5.172-0.816,8.076-0.713
			c0.9,3.946,2.221,8.844,2.717,12.891c0.846,6.917,1.604,13.711,2.573,20.65c0.763,5.463,0.73,11.132,1.331,16.649
			c0.802,7.371,1.765,14.811,2.973,22.077c0.916,5.508,3.051,11.147,4.169,16.404c0.397,1.865,0.88,4.131,1.157,6.01
			c0.248,1.676,0.457,3.768-0.305,5.047c-2.884,4.846-7.756,8.789-11.871,12.529c-1.129,1.025-0.85,1.092-2.176,0.625
			C635.808,233.252,633.849,230.205,631.986,228.505z"/>
		<path fill="#224266" stroke="#0F2133" stroke-width="2" stroke-miterlimit="10" d="M591.81,115.657
			c5.795-1.402,11.398-1.525,17.052-3.578c4.726,8.824,3.967,17.564,7.997,26.779c4.232,9.674,14.554,24.583,15.127,35.506
			c0.362,6.925-0.242,8.527-0.242,15.461c0,12.975,0.951,25.727,0.949,38.681c-0.001,7.421-0.168,14.708-0.857,22.099
			c-0.328,3.512,0.19,0.453-0.309,3.964c-0.42,2.956-0.518,23.653-1.123,24.167c-0.914,0.773-17.093-0.412-23.435-1.299
			c-6.927-0.969-24.005-7.586-29.035-12.764c1.714-2.83,4.224-13.466,4.258-19.77c0.017-3.233,0.913-12.97,0.372-16.533
			c-1.229-8.108-0.394-15.832-0.771-24.026c-0.516-11.203-3.908-21.974-6.004-32.889c-2.154-11.222-5.959-24.425-8.805-35.447
			c-2.002-7.759-3.324-10.45-5.225-11.638c-4.128-1.459,11.234-4.035,17.475-5.871C584.552,116.934,586.419,116.963,591.81,115.657z
			"/>
		<path stroke="#6E6F72" stroke-miterlimit="10" d="M637.436,120.907c2.483-3.14,6.911-9.105,0.634-11.406
			c-2.623-0.962-7.439,0.26-9.819,1.559c-1.786,0.975-2.725,1.517-2.206,3.73c0.463,1.975,2.01,3.869,3.32,5.357
			c0.895,1.014,2.131,2.458,3.369,3.014C635.021,124.188,636.33,122.305,637.436,120.907z"/>
		<path opacity="0.1" d="M621.414,157.777c-4.507-6.828-16.769-17.169-16.311-25.669c0.363-6.754,6.608-18.115-5.895-17.436
			c-1.224,0.066-8.428,2.92-8.53,2.811c1.262,1.348,5.774,2.645,6.371,4.146c1.112,2.801-2.727,4.014-2.868,6.447
			c-0.377,6.479,8.348,15.387,9.972,22.203c0.708,2.973,0.806,5.953,1.378,8.93c3.354-0.166,7.284,0.361,8.477,3.4
			c2.189,5.576-3.197,5.882-6.658,7.205c4.395,5.129,10.004,3.686,10.532,11.244c5.034-0.529,11.899,4.355,11.909,9.545
			C633.45,178.266,628.287,168.193,621.414,157.777z"/>
		<g>
			<path fill="#FFFFFF" stroke="#BDBEC0" stroke-miterlimit="10" d="M634.087,108.616c-3.332-0.201-7.234-2.27-10.214-3.734
				c-2.45-1.205-6.853-2.493-7.646-5.363c-0.186-0.669-0.803-2.053-0.848-2.753c-1.859-0.597-0.699,3.827-0.642,4.83
				c0.081,1.411-0.804,2.37-1.254,3.784c-0.067,0.21-1.866,1.607-2.159,1.309c1.68,9.911,5.207,14.447,7.223,19.318
				c2.235-2.625,5.891-8.998,8.129-11.889C628.671,111.542,631.728,110.447,634.087,108.616z"/>
			<path fill="#FFFFFF" stroke="#BDBEC0" stroke-miterlimit="10" d="M634.087,108.616c1.501-1.641,6.491-2.752,8.283-4.117
				c0.91-0.693,1.314-1.156,2.393-1.633c1.338-0.592,2.621-1.375,3.889-2.102c1.406-0.805,3.26-3.111,3.377-4.635
				c2.079-0.656,0.301,4.957,0.299,6.098c-0.002,1.16,0.037,2.326,0.498,3.361c0.202,0.455,1.805,1.186,2.008,1.604
				c0.406,0.828,0.059,1.133-0.168,1.848c-0.545,1.73-1.68,10.416-6.047,19.486C648.66,126.022,639.379,111.559,634.087,108.616z"/>
		</g>
		<path opacity="0.1" d="M703.307,166.102c-0.851-3.311-1.763-6.608-2.729-9.873c-1.115-3.768-2.182-7.801-2.493-11.672
			c-0.408-5.066,0.46-15.842,4.168-18.938c1.637,5.185,1.237,11.283,3.325,16.203c2.555,6.014,6.76,9.195,6.883,16.244
			c0.122,7.087-0.146,14.078,0.406,21.216c0.578,7.493,3.721,14.578,3.172,22.228c-1.619-1.633-3.949-1.777-6.042-0.812
			c-3.004-4.342-1.919-12.508-2.888-17.605C706.041,177.468,704.763,171.768,703.307,166.102z"/>
		<path fill="#224266" stroke="#0F2133" stroke-miterlimit="10" d="M613.601,112.094c-0.562-2.438-1.017-3.875-0.117-6.195
			c0.135-0.347,1.868-5.366,1.426-5.255c-4.63,1.163-8.127,3.729-11.113,7.45c-2.912,3.632-7.979,5.054-12.551,6.295
			c-0.953,3.328,9.195,4.209,11.352,4.518c4.008,0.574,2.219,2.622,0.542,5.336c-1.003,1.624-3.256,4.312-3.595,6.053
			c4.941,5.869,7.744,13.471,11.865,19.993c2.826,4.474,4.933,9.163,8.015,13.392c2.559,3.512,6.109,6.002,8.894,9.307
			c2.006,2.381,4.814,5.407,5.7,8.383c0.882-2.865-0.869-7.964-1.501-10.846c-0.87-3.966-9.388-29.042-10.854-32.491
			c-1.433-3.368-1.724-7.327-2.95-10.796C616.912,122.143,614.821,117.392,613.601,112.094z"/>
		<path fill="#224266" stroke="#0F2133" stroke-width="2" stroke-miterlimit="10" d="M670.914,114.206
			c3.753,0.59,14.35,2.211,18.605,3.693c2.129,0.742,8.227,2.371,10.285,3.269c3.812,1.663,6.626,1.78,3.03,4.39
			c-3.958,2.873-11.875,61.75-16.388,76c-2.584,8.162,0.929,18.582,0,27.075c-0.636,5.825-0.025,16.778,0.238,22.562
			c0.153,3.386,0.531-1.125,0.712,2.185c0.167,3.042,1.853,12.191,2.138,15.201c0,0-17.264,4.318-23.75,5.938
			c-5.718,1.426-26.479,3.688-32.301,4.512c0,0,0-4.75-1.072-18.058c-0.195-2.435-1.936-22.803-1.936-26.725
			c0-9.364-0.091-18.729,0.076-28.093c0.083-4.677,0.227-9.353,0.479-14.023c0.252-4.68,0.754-10.201,0.551-14.831
			c-0.232-5.322,5.653-9.192,8.402-13.409c6.228-9.555,11.605-19.928,16.822-30.131c3.488-6.824,2.893-13.34,3.154-20.854
			C663.693,113.113,667.308,113.641,670.914,114.206z"/>
		<path fill="#D1D3D4" d="M671.484,116.057c-5.666,0.322-0.82,7.652-1.125,10.963c-0.183,1.98-2.457,4.389-2.722,6.107
			c-0.247,1.605,0.633,3.193,0.547,4.66c-0.286,4.892-2.035,8.966-4.804,13.104c-5.777,8.637-11.088,17.278-19.592,23.342
			c-3.556,2.534-6.289,5.152-9.271,8.181c-0.252-4.237,0.205-6.822,2.043-10.546c4.852-9.83,11.434-17.58,16.83-26.795
			c3.928-6.706,3.381-14.073,3.82-21.602c0.354-6.086,3.524-7.049,5.725-11.689"/>
		<path fill="#224266" stroke="#0F2133" stroke-miterlimit="10" d="M632.792,177.186c5.733-3.158,14.353-13.182,17.896-16.658
			c3.027-2.971,5.371-5.065,7.711-8.51c4.797-7.059,9.883-14.367,13.117-22.326c0.572-1.41,0.594-2.97,1.316-4.272
			c-1.732-0.541-3.729-2.054-5.225-3.128c-1.664-1.195-3.798-3.902-5.771-4.375c-0.857-2.576,3.988-1.859,5.6-1.859
			c2.689,0,5.104-1.805,7.184-3.008c-3.508-2.332-7.046-2.922-10.49-5.713c-2.711-2.198-9.326-6.201-12.832-5.767
			c-0.278,1.158,1.907,3.823,2.511,6.356c0.535,2.248-0.001,4.713-0.367,6.944c-0.646,3.941-12.513,40.138-18.847,54.388
			C631.081,177.161,630.223,178.6,632.792,177.186z"/>
		<path opacity="0.1" d="M698.962,123.255c-3.189,0.607-10.082-2.523-13.707-2.922c-3.543-0.39-7.549,0.08-10.824-0.902
			c0.601,0.18-0.148,13.911-0.57,15.219c-0.768,2.383-4.191,4.789-4.236,7.199c-0.119,6.317,11.066,7.932,14.135,12.147
			c2.719,3.739,1.428,4.239,0.991,9.54c-0.315,3.828,0.81,7.557,0.521,11.369c-0.359,4.741-3.634,7.898-4.807,12.148
			c-0.465,1.688-0.586,3.451-0.744,5.2c-2.384,1.633-2.055,3.067-5.406,3.984c-6.285,1.713-20.42-0.156-24.227-6.28
			c2.04,3.281,2.182,6.264,6.028,8.273c3.743,1.955,8.89,1.715,12.991,1.912c3.529,0.171,6.439,0.263,8.457-0.59
			c-0.073,0.103-0.139,0.206-0.217,0.308c-5.153,6.577-4.557,12.991-3.161,21.169c0.761,4.454,2.358,9.711,1.099,14.312
			c-0.365,1.331-1.809,3.15-2.016,4.074c-0.315,1.414,0.068,2.545-0.004,3.597c-0.355,5.165-0.434,2.526-2.191,7.75
			c-1.683,4.993-0.782,2.844-0.036,7.552c0.502,3.166-1.709,6.137-1.85,8.994c3.569,0.682,12.237,2.363,14.667-1.312
			c2.535-3.838-1.256-9.375-1.656-13.271c-0.374-3.626,2.135-0.039,1.809-3.4c-0.17-1.754-1.203-2.367-1.659-3.824
			c-0.309-0.987-1.304-0.916-1.591-2.176c-0.274-1.209,0.918-4.031,1.15-5.324c1.091-6.074,1.451-12.268,1.451-18.43
			c0-3.582-0.461-7.057-0.769-10.543c-0.102-1.155-0.187-2.312-0.232-3.474c-0.238-6.079,2.067-12.004,3.271-17.878
			c2.469-12.045,4.943-24.003,7.278-36.047c1.017-5.24,1.612-10.646,2.935-16.029C696.816,131.633,699.703,127.336,698.962,123.255z
			"/>
		<path fill="#224266" stroke="#0F2133" stroke-miterlimit="10" d="M674.493,169.891c-6.147-1.6-13.851-1.182-20.147-1.561
			c0.924-2.818,0.727-5.783,0.878-8.844c4.089-2.111,10.616-0.193,15.06,0.141c5.756,0.435,11.513,0.879,17.279,1.145
			c0.291,3.341-0.51,6.574-0.402,9.91"/>
		<path fill="#224266" stroke="#0F2133" stroke-miterlimit="10" d="M596.593,169.891c3.336-0.264,7.084-0.246,10.261-0.84
			c2.951-0.549,6.376,0.128,9.382-0.033c-0.29-3.06-0.638-6.155-1.598-9.078c-7.005-0.435-13.296-0.27-20.049,1.148
			c-2.766,0.58-10.44,0.495-12.682,2.008c-2.732,1.844-1.24,1.558-1.17,4.392c0.072,2.976,0.025,2.377,1.027,5.19"/>
		<path fill="#FFFFFF" stroke="#BDBEC0" stroke-miterlimit="10" d="M677.682,147.874c4.132,0.865,3.894,4.148,6.154,6.193
			c1.276,1.154,2.333-0.729,3.44,1.404c1.12,2.16-1.352,3.427-2.238,5.276c-1.613,3.366-1.531,7.114-1.756,11.289
			c-5.295-1.892-6.416-10.588-11.668-12.385c-3.334-1.141-7.902-0.241-11.469-0.456c-0.248-0.015,3.102-5.254,3.82-5.731
			C667.722,150.971,672.871,146.866,677.682,147.874z"/>
		<path fill="#D7C8AA" stroke="#736759" stroke-linecap="round" stroke-linejoin="round" stroke-miterlimit="10" d="
			M633.484,108.192c7.125,0.475,23.066-8.627,23.066-12.901c0-10.021,2.584-17.233,2.584-26.733c0-24.7-9.5-34.675-25.65-34.675
			c-16.149,0-25.649,9.975-25.649,34.675c0,9.5,2.584,16.712,2.584,26.733C610.418,99.565,626.359,108.667,633.484,108.192z"/>
		<path fill="#C3AF92" d="M625.66,74.353c2.773-2.535,6.177-8.544,3.824-12.303c-1.895-3.028-7.236-2.329-10.199-2.042
			c-1.345,0.13-3.77,0.482-4.791,1.333c-1.477,1.228-2.051,4.945-2.262,6.698c-0.193,1.614,0.324,1.938,1.58,2.941
			C616.682,73.273,622.193,77.522,625.66,74.353z"/>
		<path fill="#C3AF92" d="M646.615,47.883c-0.914-1.705-1.785-3.434-2.598-5.19c-0.557-1.207-0.93-3.109-1.885-4.06
			c-1.731-1.725-4.979-1.617-7.202-1.479c-0.845,0.053-2.527,0.05-3.2,0.68c-1.098,1.026,1.219,2.505,1.746,3.614
			c0.973,2.049,1.059,4.9,1.121,7.159c0.086,3.076-0.348,6.138-0.346,9.222c0.001,1.865,0.005,3.73,0,5.596
			c-0.01,3.422,0.437,6.407,1.004,9.755c0.492,2.9,1.104,6.998-1.764,8.922c-0.18-0.007-0.184-0.015-0.014-0.024
			c1.767,0.505,1.689,6.808,1.738,8.514c2.479,0.759,2.852,2.958,0.227,3.893c2.187,2.826,3.693,6.713,1.182,10.104
			c3.209,0.211,6.301-1.285,9.305-2.312c1.953-0.668,3.434-2.027,5.128-3.108c1.212-0.772,2.41-1.576,3.276-2.745
			c-0.686-4.268,0.143-8.657,0.729-12.886c0.442-3.199,2.009-8.542,0.252-11.503c-0.859-1.448-1.246-2.316-1.471-4.188
			c-0.098-0.804-0.12-1.505-0.109-2.318c0.004-0.369,0.226-0.646,0.191-0.971c-0.107-1.035-1.072-2.316-1.498-3.308
			c-0.316-0.732-0.969-1.727-1.128-2.406c-0.194-0.829,0.253-1.686,0.233-2.497c-0.035-1.541-1.332-2.361-2.117-3.455
			C648.324,51.37,647.48,49.496,646.615,47.883z"/>
		<path fill="#D7C8AA" stroke="#736759" stroke-linecap="round" stroke-linejoin="round" stroke-miterlimit="10" d="M608.84,71.478
			c-0.435-2.402-4.515-3.996-6.337-5.195c-0.791-0.52-2.148-1.649-3.184-1.146c-1.615,0.786-0.937,3.655-0.671,4.94
			c0.669,3.23,3.009,4.052,4.89,6.514c0.854,1.118,1.686,3.135,2.133,4.409c0.723,2.058-0.678,5.302,2.411,4.881
			c0.88-0.12,1.597-0.329,1.667-1.364"/>
		<path fill="#D7C8AA" stroke="#736759" stroke-linecap="round" stroke-linejoin="round" stroke-miterlimit="10" d="M658.128,71.478
			c0.436-2.402,4.514-3.996,6.338-5.195c0.79-0.52,2.148-1.649,3.184-1.146c1.615,0.786,0.936,3.655,0.67,4.94
			c-0.668,3.23-3.008,4.052-4.889,6.514c-0.854,1.118-1.687,3.135-2.133,4.409c-0.723,2.058,0.677,5.302-2.412,4.881
			c-0.88-0.12-1.596-0.329-1.667-1.364"/>
		<path fill="#939598" stroke="#6D6E71" stroke-miterlimit="10" d="M608.12,43.502c-0.726,1.226-3.382,2.643-4.12,3.881
			c-0.754,1.262-1.559,2.487-2.283,3.773c-0.49,0.869-1.531,1.841-1.77,2.709c0.259-0.042,0.607,0.071,0.878,0.031
			c-0.951,2.442,0.627,6.47,1.313,9.062c0.452,1.705,1.875,3.168,3.021,4.443c0.673,0.749,1.464,1.399,2.172,2.115
			c0.633,0.639,1.092,1.557,1.773,2.113c0.479-4.543-1.318-9.12-0.371-13.687c0.479-2.304,1.522-4.599,2.263-6.929
			c0.493-1.555,0.935-3.213,1.483-4.547c0.431-1.049,1.148-2.042,1.647-3.006c0.319-0.621-2.22-1.654-2.585-1.757
			C609.902,41.244,609.007,42.003,608.12,43.502z"/>
		<path fill="#939598" stroke="#6D6E71" stroke-miterlimit="10" d="M658.897,70.419c-0.21,0.371-0.432,0.738-0.671,1.098
			c-1.139-3.347-1.883-6.843-3.033-10.202c-1.004-2.929,0.255-5.377-0.146-8.252c-2.128,0.403-4.386-2.247-5.266-3.927
			c-0.737-1.407-1.556-2.528-2.236-3.863c-1.378-2.707-2.694-7.812-5.808-9.091c-1.932-0.794-6.071-0.027-8.085-0.027
			c-2.557,0-5.168-0.093-7.706,0.152c-2.008,0.193-4.105,1.338-6.048,2.153c-2.272,0.955-3.655,3.029-5.369,4.535
			c-0.355-0.189-4.028-1.948-4.228-1.682c1.122-1.5-0.407-3.486,1.328-4.553c1.768-1.087,5.271-3.287,6.592-4.844
			c0.997-1.175,1.569-1.759,3.172-1.973c4.392-0.588,8.608-1.243,13.081-1.369c1.418-0.039,2.499-0.179,3.78,0.265
			c2.042,0.707,4.212,0.973,6.233,1.763c1,0.391,1.723,0.946,2.605,1.497c0.462,0.288,2.844,1.912,3.271,1.744
			c-0.539,0.212-1.217,0.383-1.678,0.796c0.816,0.875,1.855,1.438,2.879,2.16c2.577,1.82,2.865,0.051,4.683,2.624
			c1.095,1.549,2.748,2.656,3.722,4.296c0.781,1.315,1.541,2.789,2.259,4.149c1.763,3.341,1.583,12.537-0.031,15.567
			C660.982,65.72,660.171,68.162,658.897,70.419z"/>
		<path fill="#808285" d="M626.802,59.177c1.031,0.301,0.385,0.511,1.463,0.604c0.366,0.031,2.35,0.041,2.334-0.11
			c0.129,1.204-1.842,2.227-2.781,2.456c-1.264,0.309-0.284,0.147-1.538-0.132c-1.95-0.434-4.415-1.508-6.452-1.273
			c-1.439,0.167-2.804,0.379-4.112,0.768c-0.894,0.265-1.735,1.266-2.64,1.474c0.361-1.668,2.156-2.75,3.483-3.514
			c2.03-1.168,3.577-1.213,5.882-1.307C623.933,58.079,625.279,58.731,626.802,59.177z"/>
		<path fill="#808285" d="M640.544,59.177c-1.031,0.301-0.386,0.511-1.463,0.604c-0.366,0.031-2.351,0.041-2.334-0.11
			c-0.129,1.204,1.841,2.227,2.781,2.456c1.264,0.309,0.283,0.147,1.537-0.132c1.95-0.434,4.416-1.508,6.452-1.273
			c1.44,0.167,2.804,0.379,4.112,0.768c0.895,0.265,1.736,1.266,2.641,1.474c-0.361-1.668-2.156-2.75-3.484-3.514
			c-2.029-1.168-3.577-1.213-5.881-1.307C643.413,58.079,642.067,58.731,640.544,59.177z"/>
		<g>
			<path fill="#FFFFFF" stroke="#726658" stroke-width="0.75" stroke-miterlimit="10" d="M621.253,70.101
				c-4.875-0.049-7.191-4.318-5.106-5.106c1.438-0.543,3.198-0.475,4.741-0.475c1.99,0,4.391,0.319,6.287-0.104
				c0.104-0.023-0.062,1.173-0.104,1.41c-0.149,0.86-0.61,2.285-1.352,2.893C624.307,69.876,623.128,70.12,621.253,70.101z"/>
			<path fill="#231F20" stroke="#754C29" stroke-miterlimit="10" d="M617.928,64.876c-0.069,1.15,1.063,2.494,2.022,2.969
				c0.992,0.493,2.748,0.259,3.648-0.394c0.889-0.646,0.944-1.879,1.217-2.931"/>
			<circle fill="#FFFFFF" cx="619.472" cy="65.233" r="0.713"/>
			<path fill="#594A42" d="M620.781,64.969c1.756-0.086,7.166,0.774,7.365-1.734c-1.24,0.466-2.423,0.454-3.805,0.454
				c-1.398,0-2.795-0.025-4.16,0.113c-1.422,0.144-6.486,0.748-6.486,3.1c1.077-0.669,1.705-1.346,3.045-1.628
				C618.063,64.994,619.437,65.035,620.781,64.969z"/>
		</g>
		<g>
			<path fill="#FFFFFF" stroke="#726658" stroke-width="0.75" stroke-miterlimit="10" d="M645.373,70.101
				c4.875-0.046,7.191-4.318,5.106-5.106c-1.438-0.543-3.199-0.475-4.741-0.475c-1.99,0-4.391,0.319-6.288-0.104
				c-0.103-0.023,0.063,1.173,0.104,1.41c0.149,0.86,0.609,2.285,1.352,2.893C642.319,69.876,643.355,70.12,645.373,70.101z"/>
			<path fill="#231F20" stroke="#754C29" stroke-miterlimit="10" d="M648.698,64.876c0.069,1.15-1.063,2.494-2.022,2.969
				c-0.992,0.493-2.748,0.259-3.648-0.394c-0.889-0.646-0.944-1.879-1.217-2.931"/>
			<circle fill="#FFFFFF" cx="647.154" cy="65.233" r="0.713"/>
			<path fill="#594A42" d="M645.845,64.969c-1.757-0.086-7.166,0.774-7.365-1.734c1.342,0.345,2.423,0.454,3.805,0.454
				c1.398,0,2.795-0.025,4.16,0.113c1.422,0.144,6.486,0.505,6.486,3.1c-1.078-0.669-1.705-1.346-3.045-1.628
				C648.563,64.994,647.189,65.035,645.845,64.969z"/>
		</g>
		<path fill="#726658" d="M633.26,82.744c-1.19-0.109-2.656-0.653-3.631-1.329c-0.225-0.156-2.569-1.818-2.561-1.851
			c0.401-1.424,2.868,0.965,3.283,1.245c0.758,0.512,2.27,0.468,3.15,0.454c0.569-0.01,6.514-3.126,6.28-1.109
			c0.082-0.711-2.57,1.392-2.614,1.423C636.197,82.287,634.472,82.855,633.26,82.744z"/>
		<path fill="#726658" d="M634.03,91.074c-2.903,0.146-5.389-0.064-8.143-0.942c-0.599-0.19-1.146-0.502-1.728-0.059
			c-0.559,0.425-0.223,1.221-0.993,1.434c0.05-0.74,0.325-2.434,0.958-2.949c0.721-0.58,1.869,0.805,2.83,1.055
			c1.098,0.287,2.352,0.514,3.473,0.254c0.459-0.106,0.664-0.506,1.183-0.49c0.437,0.014,0.757,0.527,1.212,0.492
			c0.398-0.031,0.719-0.502,1.208-0.61c1.489-0.327,4.042,0.868,5.362-0.115c0.945-0.704,0.207-1.505,1.205-0.394
			c0.383,0.426,1.302,1.639,1.408,2.188c-0.754-0.006-1.213-0.724-1.768-0.867c-0.76-0.197-1.058,0.146-1.848,0.393
			C636.984,90.901,635.505,91.001,634.03,91.074z"/>
		<path fill="#726658" d="M631.767,94.802c-0.673,0-3.998,0.621-4.009-0.461c-0.008-0.69,1.747-0.894,2.248-0.906
			c1.757-0.045,3.509-0.196,5.265-0.234c0.874-0.02,1.455-0.055,2.156,0.479c0.375,0.286,1.299,1.317,0.804,1.786
			c-0.449,0.425-2.891-0.406-3.53-0.435C633.642,94.983,632.853,94.802,631.767,94.802z"/>
		<path fill="#C3AF92" d="M614.253,82.372c0.937,1.448,2.209,2.685,2.498,4.302c0.236,1.322-0.158,2.926-0.158,4.324
			c0,2.166,0.589,4.371,0.475,6.451c-0.137,2.516-2.168,1.406-3.436-0.074c-1.415-1.652-1.502-4.766-1.788-6.738
			c-0.354-2.447-0.292-4.968-0.477-7.442c-0.138-1.85-0.403-3.749-0.478-5.582c-0.029-0.681-0.189-1.245,0.1-1.846
			C612.29,76.078,613.399,81.049,614.253,82.372z"/>
		<path fill="#726658" d="M608.152,73.833c-0.5-2.543-4.322-5.35-6.943-5.359c-0.172,2.909,5.797,2.65,5.177,6.135
			c-0.419-0.078-0.963,0.125-1.376,0.04c-0.355,2.403,2.902,2.019,2.85,4.385c-0.006,0.242,1.105-1.196,1.16-1.753
			c0.121-1.246-0.49-2.278-0.709-3.448"/>
		<path fill="#726658" d="M662.246,73.52c0.16,0.239,0.335,0.482,0.298,0.841c-0.06,0.574-1.227,1.784-1.624,2.21
			c-1.334,1.433-2.444,1.535-1.706-0.749c0.673-2.078,2.128-4.583,3.595-6.201c0.377-0.416,2.509-1.725,2.969-1.638
			c2.168,0.413-0.693,1.853-1.297,2.33c-0.575,0.453-2.118,1.597-2.4,2.274C661.91,72.994,662.068,73.255,662.246,73.52z"/>
		<path fill="#A7A9AC" d="M656.867,51.303c-1.816-0.539-3.629-4.116-4.041-5.813c1.065,1.184,2.674,2.037,3.656,3.357
			c0.984,1.321,1.53,3.258,1.896,4.657c1.891-2.699-1.767-6.653-3.502-8.352c1.885,0.534,3.297,2.486,5.184,2.802
			c-0.447-1.032-1.361-1.853-1.836-2.998c-0.498-1.206-0.578-2.393-1.584-3.367c-0.812-0.789-1.65-0.813-2.568-1.215
			c-0.939-0.412-1.793-1.287-2.684-1.44c0.691,1.245,1.088,2.523,2.188,3.467c-1.964,0.375-3.366-1.602-4.299-2.929
			c-1.214-1.727-2.474-2.893-3.978-4.179c0.908,0.777,1.831,2.598,2.25,3.702C649.27,43.534,651.132,50.264,656.867,51.303z"/>
		<path fill="#A7A9AC" d="M640.891,34.641c-3.861-2.629-8.712-2.021-13.288-2.025c1.31-0.732,3.383-1.717,5.192-1.725
			c-1.292-1.491-6.659,0.162-8.054,0.706c-2.135,0.833-4.408,1.19-6.564,2.571c1.031-0.012,1.979-0.365,3.1-0.253
			c-1.205,0.569-2.52,1.628-3.771,2.351c-1.436,0.83-2.498,1.68-2.68,3.459c3.318-2.993,7.648-4.815,12.086-5.574
			c2.431-0.415,4.912-0.534,7.373-0.418C635.968,33.812,639.458,33.665,640.891,34.641z"/>
		<path fill="#A7A9AC" d="M607.73,55.108c-1.008,2.649-0.757,6.077-0.857,9.072c-1.379-2.229-1.447-4.236-1.599-6.855
			c-0.683,1.081-1.312,1.437-1.271,2.965c-1.476-3.1,0.213-7.046,1.622-9.734c-0.021,1.291-0.298,2.946,0.468,4.024
			c0.265-1.56,1.024-2.748,1.429-4.247c0.319-1.185,0.216-2.5,0.673-3.621c0.168,0.543,0.39,0.531,0.718,0.93
			c0.517-0.879,0.955-2.362,1.743-3.099c-0.568,0.533-0.493,3.092-0.676,3.902C609.46,50.743,608.564,52.914,607.73,55.108z"/>
	</g>
</g>
</svg>
