<?xml version="1.0" encoding="utf-8"?>
<!-- Generator: Adobe Illustrator 16.0.0, SVG Export Plug-In . SVG Version: 6.00 Build 0)  -->
<!DOCTYPE svg PUBLIC "-//W3C//DTD SVG 1.1//EN" "http://www.w3.org/Graphics/SVG/1.1/DTD/svg11.dtd">
<svg version="1.1" id="Layer_1" xmlns="http://www.w3.org/2000/svg" xmlns:xlink="http://www.w3.org/1999/xlink" x="0px" y="0px"
	 width="169.785px" height="170.857px" viewBox="2674.453 0 169.785 170.857" enable-background="new 2674.453 0 169.785 170.857"
	 xml:space="preserve">
<g>
	<defs>
		<circle id="XMLID_15_" cx="2759.345" cy="85.428" r="79.63"/>
	</defs>
	<use xlink:href="#XMLID_15_"  overflow="visible" fill="#F4F4F4"/>
	<clipPath id="XMLID_16_">
		<use xlink:href="#XMLID_15_"  overflow="visible"/>
	</clipPath>
	<g clip-path="url(#XMLID_16_)">
		<path fill="#C1B49A" stroke="#5A4A42" stroke-miterlimit="10" d="M2799.072,126.401c0.217-4.018-0.137-8.605,3.928-10.813
			c4.314-2.344,7.449,1.062,10.318,3.982c0.91,0.925,2.09,1.563,3.031,2.567c1.547,1.65,2.557,3.555,2.736,5.73
			c0.446,5.429,0.801,10.88,1.256,16.287c0.36,4.293-1.094,8.556-1.006,12.99c0.104,5.219,2.394,9.73,3.061,14.828
			c0.641,4.891,1.955,9.945,1.943,14.918c-0.004,2.482,0.119,3.562,0.809,5.858c0.492,1.642,0.756,7.528-0.631,9.323
			c-0.625,0.812-3.477,1.057-4.438,1.369c-2.438,0.792-5.541,1.752-8.177,2.17c-1.785,0.283-5.396-1.691-6.266-3.295
			c-0.39-0.721,0.051-2.133-0.039-2.944c-0.15-1.386-0.738-2.815-1.074-4.231c-1.082-4.568-0.202-9.585-0.684-14.225
			c-0.774-7.474-3.12-14.428-3.699-21.669c-0.512-6.406-0.997-12.585-1.055-19.208
			C2799.044,135.509,2798.829,130.919,2799.072,126.401z"/>
		<path fill="#C1B49A" stroke="#5A4A42" stroke-miterlimit="10" d="M2721.097,126.401c-0.216-4.018,0.139-8.605-3.928-10.813
			c-4.314-2.344-7.447,1.062-10.318,3.982c-0.908,0.925-2.09,1.563-3.029,2.567c-1.549,1.65-2.558,3.555-2.736,5.73
			c-0.447,5.429-0.802,10.88-1.256,16.287c-0.361,4.293,1.094,8.556,1.006,12.99c-0.104,5.219-2.395,9.73-3.062,14.828
			c-0.641,4.891-1.953,9.945-1.943,14.918c0.006,2.482-0.117,3.562-0.807,5.858c-0.492,1.642-0.756,7.528,0.629,9.323
			c0.627,0.812,3.479,1.057,4.439,1.369c2.438,0.792,5.541,1.752,8.177,2.17c1.786,0.283,5.396-1.691,6.265-3.295
			c0.391-0.721-0.049-2.133,0.039-2.944c0.152-1.386,0.739-2.815,1.075-4.231c1.083-4.568,0.202-9.585,0.683-14.225
			c0.775-7.474,3.121-14.428,3.699-21.669c0.513-6.406,0.998-12.585,1.057-19.208
			C2721.125,135.509,2721.341,130.919,2721.097,126.401z"/>
		<path fill="#4B5921" stroke="#603813" stroke-miterlimit="10" d="M2801.402,132.475c0.072-1.873,1.224-22.867,1.484-22.894
			c1.115-0.114,7.844,5.44,7.779,5.549c-2.488,4.165-2.975,5.159-4.23,9.808c-1.324,4.899-0.747,9.826-2.758,14.542
			c-0.755,1.771-1.408,4.504-3.423,4.883C2799.582,140.622,2801.251,136.341,2801.402,132.475z"/>
		<path fill="#4B5921" stroke="#603813" stroke-miterlimit="10" d="M2720.418,135.546c-0.263-6.334-0.577-15.463-3.026-21.344
			c-2.195-5.271-5.127,0.889-9.234,1.412c3.844,4.982,4.074,12.164,5.65,18.232c1.484,5.713,5.047,12.538,4.66,18.232
			c1.061-0.109,2.154-0.221,3.285-0.332C2721.761,145.98,2720.646,141.053,2720.418,135.546z"/>
		<path fill="#697833" stroke="#603813" stroke-miterlimit="10" d="M2736.585,101.964c-3.941-0.174-10.554,2.075-14.145,3.41
			c-2.021,0.751-5.209,1.681-6.955,3.151c-2.167,1.826,0.344,7.96,0.695,10.321c0.579,3.883,1.21,7.475,1.244,11.416
			c0.061,6.866,1.832,13.291,1.834,20.095c0,2.119-0.129,4.288,0,6.405c0.201,3.306,1.297,6.55,1.688,9.867
			c0.893,7.574-0.699,14.686-0.688,22.21c0.004,2.837,0.566,5.042,1.143,7.867c1.194,5.866,0.704,12.057,1.395,17.997
			c0.24,2.068,1.779,2.618,3.005,4.168c0.408,0.518,0.616,1.166,1.166,1.588c1.252,0.961,5.665,0.965,7.344,1.184
			c5.499,0.713,11.412,0.153,16.978,0.153c11.86,0,23.643-0.63,35.456-0.833c2.174-0.038,5.464-0.473,7.161-1.775
			c4.115-3.158,2.848-8.637,2.996-13.104c0.33-9.991,1.385-19.962,2.221-29.89c0.436-5.172,1.827-10.133,1.962-15.373
			c0.047-1.818,0.001-3.642,0.001-5.46c0-2.823-0.304-5.769-0.01-8.569c0.744-7.077,3.152-14.098,3.343-21.328
			c0.118-4.466,0.86-8.896,1.089-13.357c0.176-3.441-1.185-4.202-4.293-5.022c-3.02-0.796-6.145-1.616-8.975-3.009
			c-2.133-1.049-9.573-4.983-11.821-2.778"/>
		<path fill="#A87C4F" stroke="#231F20" stroke-miterlimit="10" d="M2745.918,82.797c-0.833,8.5-1.333,16.167-5,18.833
			c4.667,7.167,18.167,24.667,18.167,24.667l19.166-25.667c0,0-3.666-1.999-3.666-17.166
			C2766.585,82.464,2759.418,82.13,2745.918,82.797z"/>
		<path fill="#C1B49A" stroke="#5A4A42" stroke-miterlimit="10" d="M2776.697,103.205c-0.143,6.311-6.745,10.609-10.52,15.315
			c-2.309,2.879-5.463,6.576-6.825,9.892c-2.962-3.2-5.405-6.616-8.423-9.902c-1.979-2.153-4.146-4.179-5.786-6.618
			c-0.667-0.992-2.933-8.519-2.743-8.418c4.947,2.637,11.021,4.896,16.672,4.871
			C2761.364,108.333,2776.623,106.475,2776.697,103.205z"/>
		<path fill="#8A5D3B" d="M2773.689,89.821c-1.305-0.307-4.357,1.84-5.742,2.217c-1.721,0.47-3.527,0.975-5.301,1.202
			c-2.918,0.375-8.547-2.056-10.791,0.159c-2.268,2.237,7.061,7.332,8.613,8.352c3.346,2.194,8.232,4.895,12.186,2.293
			c0.656-0.432,2.369-1.703,2.73-2.418c0.689-1.364-0.534-3.483-0.816-5.05C2774.164,94.331,2774.321,92.005,2773.689,89.821z"/>
		<path fill="#A87C4F" stroke="#231F20" stroke-miterlimit="10" d="M2760.085,97.13c7.07,0,10.082-3.5,18-10.666
			c3.899-3.53,2.434-13.908,3.332-22c2.667-24-6.746-34.667-21.412-34.667h0.159c-14.667,0-24.079,10.667-21.413,34.667
			c0.9,8.092-0.578,18.483,3.334,22C2750.334,93.88,2753.015,97.13,2760.085,97.13z"/>
		<path fill="#8A5D3B" d="M2756.316,63.761c0.571-1.376-0.087-4.104-0.484-5.504c-0.504-1.776-2.729-2.076-4.291-1.75
			c-2.066,0.431-4.199,0.884-6.213,1.522c-0.835,0.265-1.885,0.648-2.659,1.167c-1.657,1.11-1.438,3.774-1.249,5.681
			c0.303,3.072,3.169,5.248,6.426,4.761c1.797-0.269,3.865-1.52,5.402-2.474C2754.3,66.512,2755.824,64.947,2756.316,63.761z"/>
		<path fill="#8A5D3B" d="M2779.67,62.99c0.157-1.402,0.781-3.497-0.431-4.54c-0.764-0.658-1.91-0.982-2.842-1.309
			c-2-0.701-4.076-1.316-6.154-1.748c-1.43-0.297-2.42-0.61-3.791-0.16c-1.084,0.356-2.986,1.315-3.596,2.309
			c-0.715,1.167-0.186,3.208-0.188,4.497c-0.006,2.411,2.419,4.002,2.931,6.442c0.219,1.045,0.949,2.525,0.398,3.504
			c-0.367,0.652-1.492,0.969-1.666,1.649c-0.072,0.285,0.198,0.689,0.293,0.95c0.274,0.758,0.455,1.493,0.547,2.298
			c0.104,0.896,0.089,1.8,0.08,2.706c-0.006,0.54,0.045,1.169-0.148,1.671c-0.129,0.338-0.648,0.745-0.695,1.044
			c-0.066,0.433,0.514,0.843,0.639,1.252c1.213,3.957-4.235,2.593-6.308,2.573c-0.892-0.009-2.054-0.286-2.679,0.295
			c-0.277,0.258-0.646,1.055-0.352,1.352c0.412,0.415,1.146-0.165,1.498-0.331c0.854-0.401,1.818-0.313,2.795-0.315
			c0.971,0,1.879,0.064,2.812,0.334c1.012,0.291,1.107,0.535,1.326,1.56c0.258,1.208,0.119,2.429,0.361,3.629
			c0.217,1.073,0.775,0.612,1.484,0.081c0.997-0.746,2.104-1.482,3.154-2.254c0.607-0.446,1.168-1.08,1.827-1.432
			c0.458-0.244,0.765-0.355,1.155-0.646c0.393-0.295,0.723-0.554,1.137-0.836c1.077-0.734,2.086-1.754,2.968-2.696
			c0.727-0.776,1.493-1.631,2.044-2.538c0.877-1.444,1.004-3.138,1.346-4.753c0.096-0.447,0.243-0.557,0.232-0.998
			c-0.021-0.932-0.654-1.866-0.772-2.79c-0.065-0.507,0.009-1.075,0.009-1.588C2779.085,68.936,2779.31,66.207,2779.67,62.99z"/>
		<path fill="#FFFFFF" stroke="#754C28" stroke-miterlimit="10" d="M2754.648,61.892c-0.742,0.333-2.419-0.488-3.246-0.6
			c-1.31-0.177-2.65-0.271-3.965-0.078c-1.224,0.18-2.406,0.722-3.123,1.794c-0.848,1.27,0.125,3.001,1.623,3.548
			c1.75,0.639,3.727,0.594,5.366-0.168C2754.358,64.967,2754.414,61.997,2754.648,61.892z"/>
		<path fill="#231F20" d="M2740.41,49.293c0.468-2.257,1.881-2.446,3.092-4.025c-0.235-1.119-3.6-7.009-4.822-6.987
			c-1.737,0.032-3.509-0.052-5.232,0.046c-0.726,1.97,0.424,4.367,0.097,6.475c-0.341,2.191-0.847,4.378-0.962,6.637
			c-0.198,3.901,1.186,8.245,3.17,11.566c0.478,0.799,0.825,1.785,1.318,2.537c0.264,0.403,2.002,1.712,1.982,2.034
			c0.229-3.653-0.74-7.351,0.064-10.932C2739.666,54.203,2739.905,51.73,2740.41,49.293z"/>
		<path fill="#231F20" d="M2744.585,41.13c2.785-3.76,4.995-0.078,8.825-1.191c0.701-0.204,1.271-0.96,1.861-1.222
			c1.13-0.5,2.328-0.738,3.536-0.916c3.883-0.57,7.575,0.752,10.793,2.352c0.9,0.448,2.275,1.355,3.258,1.644
			c1.59,0.467,3.336-0.323,4.518,0.838c1.402,1.377,1.443,4.552,1.834,6.325c0.48,2.174,1.322,4.434,2.045,6.342
			c0.567,1.498,0.622,3.525,0.492,5.108c-0.105,1.276-0.867,2.504-0.767,3.767c1.591-1.638,3.813-2.159,5.534-3.588
			c3.869-3.212,1.738-9.291,2.785-13.529c0.682-2.763,0.57-3.196,2.714-2.279c0.343-1.182-1.325-4.098-2.121-5.021
			c-1.045-1.212-2.578-1.569-3.786-2.285c-1.195-0.708-2.453-1.706-3.691-2.491c-2.336-1.479-4.567-3.116-6.672-4.908
			c-0.79-0.672-1.746-1.323-2.47-2.055c-0.194-0.196-1.573-2.37-1.496-2.367c0.245,0.01,0.642-0.143,0.794-0.146
			c-1.232-1.227-2.383-3.615-4.584-3.012c-0.643,0.176-1.702,1.259-2.481,1.596c-1.147,0.497-2.463,0.902-3.624,1.338
			c-2.572,0.965-5.305,1.567-7.645,2.915c-1.656,0.954-4.93,3.885-7.02,2.493c-1.62-1.079,0.266-0.87,0.008-2.353
			c-1.013,0.131-1.562,0.984-2.345,1.598c-1.624,1.274-3.393,0.555-4.684,2.264c-0.753,0.997-1.839,2.927-1.775,4.232
			c0.114,2.317,3.559,5.648,5.3,6.996c0.041-0.2,0.033-0.402,0.029-0.612"/>
		<path fill="#A87C4F" stroke="#231F20" stroke-linecap="round" stroke-linejoin="round" stroke-miterlimit="10" d="
			M2739.361,65.327c-1.518-2.018-3.127-2.624-5.213-4.01c-1.035-0.688-1.678-0.83-3.135-0.937c-1.342-0.099-1.803,0.007-2.264,1.417
			c-0.23,0.704-0.377,1.492-0.414,2.254c-0.09,1.825,1.106,2.178,2.352,3.39c1.041,1.013,1.158,1.805,1.269,3.218
			c0.118,1.5,0.979,2.92,1.566,4.303c0.586,1.38,1.192,3.097,2.922,3.34c1.513,0.212,1.97-0.333,2.368-1.504
			c0.199-0.587,0.439-1.409,1.189-1.417"/>
		<path fill="#A87C4F" stroke="#231F20" stroke-linecap="round" stroke-linejoin="round" stroke-miterlimit="10" d="
			M2780.808,64.968c1.518-2.018,3.127-2.264,5.214-3.65c1.034-0.688,1.677-0.83,3.135-0.937c1.343-0.099,1.802,0.007,2.264,1.417
			c0.231,0.704,0.377,1.492,0.415,2.254c0.09,1.825-1.107,2.178-2.353,3.39c-1.041,1.013-1.157,1.805-1.269,3.218
			c-0.117,1.5-0.979,2.92-1.566,4.303c-0.586,1.38-1.191,3.097-2.922,3.34c-1.512,0.212-1.97-0.333-2.368-1.504
			c-0.2-0.587-0.44-1.409-1.189-1.417"/>
		<path fill="#754C28" d="M2739.229,69.375c2.267-1.578-0.599-1.013-1.481-1.538c-1.028-0.611-2.037-1.564-2.936-2.363
			c-0.821-0.729-1.619-2.045-2.541-2.603c-1.038-0.626-2.443-0.516-2.257,0.808c-0.065-0.464,2.106,0.265,2.306,0.638
			c0.13,0.244-0.582,3.265,0.828,2.272c0.261-0.183-0.037-0.614,0.303-0.727c0.364-0.121,1.012,0.606,1.273,0.801
			c0.896,0.664,1.902,1.305,2.209,2.452c-1.098,0.105-1.633,1.701-1.161,2.684c0.435,0.905,1.52,1.237,1.729-0.031
			c0.122-0.743-0.016-0.71,0.498-1.265C2738.362,70.113,2738.791,69.679,2739.229,69.375z"/>
		<path fill="#231F20" stroke="#754C28" stroke-width="0.75" stroke-miterlimit="10" d="M2746.55,61.467
			c-0.156,1.052-0.744,1.742,0.258,2.663c0.68,0.626,1.787,0.744,2.66,0.587c1.114-0.201,3.095-2.219,1.666-3.25"/>
		<path fill="#231F20" d="M2747.261,61.762c-2.17,0.518-2.623,2.019-4.48,2.944c0.455-0.459,0.576-1.275,0.91-1.832
			c0.48-0.796,1.378-1.507,2.257-1.887c1.062-0.459,2.55-0.814,3.743-0.608c1.031,0.178,2.006,0.212,3.009,0.496
			c1.063,0.3,1.76,0.559,2.812,0.604c-0.068,1.053-2.086,0.78-2.666,0.765C2751.302,62.202,2748.783,61.399,2747.261,61.762z"/>
		<circle fill="#FFFFFF" cx="2747.411" cy="62.384" r="0.5"/>
		<path fill="#231F20" d="M2748.532,58.301c1.541-0.125,3.354,0.23,4.753-0.419c1.152-0.535,1.637-2.029,1.482-3.323
			c-1.076,0.349-2.111,0.543-3.373,0.492c-1.467-0.06-2.939-0.361-4.391,0.002c0.141,0.223,0.258,0.535,0.251,0.826
			c-0.002,0.077-2.653,0.76-2.919,0.874c-1.344,0.576-3.152,1.985-3.123,3.604c0.982-0.313,1.771-1.08,2.798-1.379
			C2745.476,58.549,2747.015,58.423,2748.532,58.301z"/>
		<path fill="#FFFFFF" stroke="#754C28" stroke-miterlimit="10" d="M2765.523,61.892c0.74,0.333,2.418-0.488,3.244-0.6
			c1.311-0.177,2.651-0.271,3.967-0.078c1.223,0.18,2.406,0.722,3.121,1.794c0.849,1.27-0.123,3.001-1.621,3.548
			c-1.75,0.639-3.729,0.594-5.367-0.168C2765.812,64.967,2765.755,61.997,2765.523,61.892z"/>
		<path fill="#231F20" stroke="#754C28" stroke-width="0.75" stroke-miterlimit="10" d="M2773.619,61.467
			c0.157,1.052,0.746,1.742-0.256,2.663c-0.682,0.626-1.788,0.744-2.66,0.587c-1.115-0.201-3.096-2.219-1.667-3.25"/>
		<path fill="#231F20" d="M2772.91,61.762c2.169,0.518,2.623,2.019,4.479,2.944c-0.456-0.459-0.575-1.275-0.911-1.832
			c-0.479-0.796-1.377-1.507-2.256-1.887c-1.062-0.459-2.551-0.814-3.743-0.608c-1.031,0.178-2.005,0.212-3.009,0.496
			c-1.062,0.3-1.76,0.559-2.812,0.604c0.07,1.053,2.086,0.78,2.666,0.765C2768.868,62.202,2771.386,61.399,2772.91,61.762z"/>
		<circle fill="#FFFFFF" cx="2772.759" cy="62.384" r="0.5"/>
		<path fill="#231F20" d="M2771.638,58.301c-1.541-0.125-3.354,0.23-4.753-0.419c-1.151-0.535-1.637-2.029-1.481-3.323
			c1.074,0.349,2.111,0.543,3.372,0.492c1.467-0.06,2.938-0.361,4.392,0.002c-0.141,0.223-0.259,0.535-0.252,0.826
			c0.002,0.077,2.653,0.76,2.919,0.874c1.345,0.576,3.152,1.985,3.123,3.604c-0.983-0.313-1.771-1.08-2.798-1.379
			C2774.693,58.549,2773.154,58.423,2771.638,58.301z"/>
		<path fill="#231F20" d="M2756.505,74.388c1.31,0.591,2.591,1.037,4.08,0.825c2.469-0.352,4.189-3.023,6.877-1.831
			c-0.152,0.546-0.775,0.334-1.213,0.5c-0.41,0.155-0.779,0.499-1.22,0.706c-0.911,0.428-1.858,0.933-2.716,1.336
			c-1.302,0.612-3.613,0.803-4.96,0.187c-0.743-0.339-1.274-0.671-2.108-0.911c-0.205-0.059-2.487-0.556-2.481-0.499
			C2752.576,72.923,2755.907,74.118,2756.505,74.388z"/>
		<path fill="#231F20" d="M2757.225,75.712c-0.636-0.292-1.571-0.859-2.249-0.979c-0.789-0.139-1.721,0.447-2.444,0.7
			c-1.246,0.437-1.938,1.554-2.585,2.641c-0.621,1.043-0.943,2.486-1.658,3.396c0.402,0.391,1.658,0.352,2.241,0.419
			c0.741,0.085,1.856,0.737,2.354-0.036c0.032,0.708,0.141,0.77,0.893,0.956c0.982,0.244,1.991,0.707,3,0.862
			c1.073,0.166,2.223,0.284,3.322,0.223c0.012-0.102,0.021-0.211,0.024-0.314c0.487,0.664,0.444,0.365,1.069,0.258
			c1.038-0.178,2.184-0.047,3.198-0.367c0.61-0.192,3.193-0.623,3.068-1.387c0.1,0.096,0.277,0.14,0.393,0.318
			c1.347-0.278,2.536-0.857,3.658-1.436c0.635-0.327,0.858-0.289,0.705-0.897c-0.094-0.374-0.653-1.095-0.854-1.5
			c-0.505-1.022-1.272-2.048-2.103-2.833c-0.826-0.781-2.004-1.077-2.795-1.742c-1.115,0.41-2.294,0.723-3.41,1.098
			c-0.978,0.329-2.021,0.504-3.029,0.712C2758.667,76.085,2758.369,76.236,2757.225,75.712z"/>
		<path fill="#754C28" d="M2783.97,71.907c-0.218,0.175-0.448,0.172-0.645-0.149c-0.311-0.511-0.017-1.196-0.521-1.697
			c-0.438-0.435-1.276-0.291-1.461-0.991c-0.229-0.869,0.68-1.332,1.214-1.747c1.111-0.862,1.857-2.106,3.015-2.921
			c0.552-0.388,4.56-2.754,4.166-0.45c-0.79,0.083-1.174-0.339-1.925-0.008c-0.615,0.271-1.06,0.863-1.639,1.208
			c0.139,0.354,0.99,0.987,0.1,1.225c-0.211-0.377-0.572-0.577-0.963-0.439c-0.137,0.048-0.244,0.444-0.373,0.535
			c-0.253,0.179-0.643,0.2-0.865,0.385c-0.543,0.453-0.574,1.03-0.323,1.657c0.243,0.608,0.575,0.467,0.895,1.003
			C2784.949,70.025,2784.498,71.485,2783.97,71.907z"/>
		<path fill="#8A5D3B" d="M2770.763,47.374c0.074,1.272-1.139,4.159-0.689,5.26c0.457,1.124,3.283,1.119,4.307,1.458
			c1.68,0.557,3.66,1.614,4.842,2.857c0.21-3.27-1.141-6.744-2.128-9.819c-0.747-2.329-2.569-3.04-4.378-4.393
			c-1.575-1.179-3.611-3.218-5.773-2.915C2766.612,42.628,2770.595,44.475,2770.763,47.374z"/>
		<path fill="#404041" d="M2745.585,36.797c1.851-0.874,1.312-0.015,2.521,0.641c1.421,0.771,3.776,1.173,5.34,0.525
			c1.607-0.666,2.506-1.81,4.352-2c1.35-0.139,3.034-0.086,4.274,0.133c-1.184-1.15-4.523-1.844-5.938-0.955
			c3.123-2.561,8.156-1.864,12.014-1.171c-3.414,0.109-6.369-2.432-9.818-1.191c1.938-1.209,2.783-1.46,4.922-1.816
			c1.663-0.277,2.239-0.85,3.146-2.274c-1.994,2.096-4.768,0.792-7.095,1.974c-2.062,1.047-3.834,2.837-5.68,4.208
			c-0.859,0.638-2.497,2.447-3.75,1.637c-0.857-0.554-0.283-2.217-1.617-2.386c-1.178-0.149-2.219,1.809-3.305,2.224
			c-1.718,0.655-2.28-0.878-1.715-2.348c-0.735,0.128-1.767,1.879-1.127,2.807c0.867,1.255,4.014,0.674,4.477-0.508"/>
		<path fill="#404041" d="M2738.91,48.924c0.323-1.789,2.479-2.316,1.786-3.979c-0.476-1.144-2.245-1.525-2.92-2.531
			c-0.828-1.235-1.138-3.441-2.237-1.2c-0.268,0.548-0.134,1.159-0.264,1.732c-0.438,1.937-1.591,3.917-1.865,5.854
			c-0.168,1.19,0.137,5.593,1.008,6.19c0.703-0.737,0.258-2.618,0.334-3.694c0.115-1.624,0.722-2.847,1.801-3.99
			c0.004,1.758-1.167,5.027,0.166,6.614c0.053-1.806,0.682-2.479,1.209-3.944c0.388-1.082,0.373-2.407,0.658-3.37
			C2738.903,47.176,2739.009,48.156,2738.91,48.924z"/>
		<path fill="#404041" d="M2754.21,78.409c0.219-0.357,0.054-1.95,0.298-2.564c-2.659,0.362-4.384,3.762-4.429,6.234
			c0.845-1.021,1.469-2.286,2.518-3.182c-0.137,0.731-0.362,1.48-0.482,2.216c0.395-0.47,0.84-1.063,1.307-1.599
			c0.308,0.783-0.049,1.743,0.501,2.478c0.421-0.609,0.636-1.446,1.254-1.849c0.114,0.659-0.123,1.519,0.384,1.954
			c0.432,0.37,2.559,0.23,3.166,0.174c0.25-1.926,0.391-5.325-1.599-5.786c-0.224,0.838-0.427,1.72-1.217,2.254
			c0.011-0.752,0.019-1.513-0.015-2.258C2754.9,76.644,2754.666,77.667,2754.21,78.409z"/>
		<path fill="#404041" d="M2761.73,81.938c-0.311,0.101-0.832,0.073-1.119-0.036c-0.339-0.128-0.39-3.06-0.361-3.454
			c0.06-0.856,0.322-2.443,1.378-1.169C2762.269,78.052,2761.77,80.959,2761.73,81.938z"/>
		<path fill="#4B5921" stroke="#603813" stroke-miterlimit="10" d="M2736.302,102.155c-0.217-0.691,7.162-4.647,7.116-4.358
			c-0.5,3.167,0.706,5.222,2.216,7.976c1.172,2.134,2.566,4.146,3.91,6.229c1.49,2.311,7.562,9.281,8.354,10.422
			c0.665,0.957,1.697,0.99,2.337,0.132c1-1.342,13.076-15.491,14.641-18.165c0.654-1.117,1.69-2.583,1.699-3.926
			c0.008-1.227,0.176-1.834-0.324-4c1.878-0.082,6.834,3.166,6.667,3.833c-0.416,1.665-2.81,5.687-3.833,7
			c-3.451,4.429-6.338,8.379-10.334,13.5c-2.675,3.429-9.031,12.222-10.196,11.733c-0.065-0.027-1.862-2.072-2.455-2.708
			c-1.36-1.456-6.963-9.205-7.481-9.771c-1.92-2.09-7.65-10.6-8.398-12.119C2739.796,107.075,2736.952,103.294,2736.302,102.155z"/>
		<path fill="#9FB347" d="M2759.085,163.981c3.577-2.682,6.613-5.865,9.453-9.301c0.894-1.08,6.594-5.713,6.555-6.185
			c-0.086-1.051-7.385-6.574-8.156-7.159c-0.977-0.74-7.229-6.629-7.854-6.307c-3.059,1.574-5.766,5.707-8.392,7.992
			c-1.938,1.686-3.876,3.983-5.654,5.85c-0.72,0.757-1.257,1.088-1.429,1.445c-0.171,0.355,4.467,3.928,5.789,5.127
			C2750.386,156.339,2757.033,161.816,2759.085,163.981z"/>
		<path fill="#9FB347" d="M2795.356,142.2c-2.985-1.951-6.438-4.338-6.862-4.693c-1.004,1.115-2.373,1.348-3.584,2.339
			c-0.859,0.703-7.391,7.044-7.777,6.888c4.127,1.656,7.967,4.277,11.711,6.688c2.07-1.938,6.371-4.971,10.974-8.607
			C2799.658,144.939,2797.644,143.698,2795.356,142.2z"/>
		<path fill="#9FB347" d="M2721.512,151.137c0.345-0.301,3.878,2.13,4.255,2.354c0.951,0.566,1.889,1.207,2.887,1.68
			c1.187,0.562,2.611,0.735,3.707,1.484c-0.394-0.27,3.21-2.91,3.383-3.031c1.146-0.797,2.323-1.646,3.428-2.523
			c0.596-0.473,2.349-1.42,2.428-2.077c-0.777-0.259-1.183-0.771-1.819-1.191c-0.816-0.538-1.808-0.815-2.638-1.355
			c-0.678-0.44-1.406-0.901-2.146-1.225c-0.7-0.306-1.46-0.544-2.079-1.009c-0.414-0.312-0.49-0.826-1.162-0.818
			c-1.162,0.86-2.48,1.936-3.731,2.853c-0.776,0.567-1.489,1.198-2.304,1.735C2724.263,148.971,2722.804,149.981,2721.512,151.137z"
			/>
	</g>
</g>
</svg>
