<?xml version="1.0" encoding="utf-8"?>
<!-- Generator: Adobe Illustrator 16.0.0, SVG Export Plug-In . SVG Version: 6.00 Build 0)  -->
<!DOCTYPE svg PUBLIC "-//W3C//DTD SVG 1.1//EN" "http://www.w3.org/Graphics/SVG/1.1/DTD/svg11.dtd">
<svg version="1.1" id="Layer_1" xmlns="http://www.w3.org/2000/svg" xmlns:xlink="http://www.w3.org/1999/xlink" x="0px" y="0px"
	 width="169.785px" height="170.857px" viewBox="1032.787 0 169.785 170.857" enable-background="new 1032.787 0 169.785 170.857"
	 xml:space="preserve">
<g>
	<defs>
		<circle id="XMLID_6_" cx="1117.679" cy="85.428" r="78.717"/>
	</defs>
	<use xlink:href="#XMLID_6_"  overflow="visible" fill="#F4F4F4"/>
	<clipPath id="XMLID_16_">
		<use xlink:href="#XMLID_6_"  overflow="visible"/>
	</clipPath>
	<g clip-path="url(#XMLID_16_)">
		<path fill="#58595B" stroke="#414042" stroke-width="2" stroke-miterlimit="10" d="M1076.821,147.139
			c-0.76-5.866-2.398-11.68-4.014-17.521c-0.727-2.629-1.6-5.031-2.869-7.495c-2.18-4.229-6.336-3.952-9.727-0.983
			c-1.023,0.896-2.383,2.816-3.039,3.965c-1.021,1.789-1.1,3.957-1.752,5.861c-2.57,7.488-5.688,15.114-7.758,22.746
			c-2.734,10.081-3.756,20.275-4.814,30.623c-0.949,9.256-5.822,24.553,6.58,28.127c20.43,5.889,26.465-39.477,27.406-52.707
			C1077.139,155.481,1077.375,151.415,1076.821,147.139z"/>
		<path fill="#58595B" stroke="#414042" stroke-width="2" stroke-miterlimit="10" d="M1174.581,121.278
			c0.926,0.911,1.234-0.203,2.047,0.77c3.045,3.651,2.336,3.414,4.246,7.811c6.908,15.892,8.689,24.871,13.294,41.404
			c1.589,5.705,2.189,8.027,2.692,29.229c0.127,5.328-5.707,6.162-11.057,6.023c-6.385-0.162-12.789-4.104-14.637-9.691
			c-3.814-11.535-3.531-23.1-4.73-34.912c-0.449-4.396-1.162-8.764-1.871-13.156c-1.055-6.539-1.094-13.098-2.158-19.668
			C1161.211,121.721,1168.975,115.775,1174.581,121.278z"/>
		<path fill="#58595B" stroke="#414042" stroke-width="2" stroke-miterlimit="10" d="M1118.725,103.385
			c-28.833,0-56.333,16.762-56.333,16.762s8.333,11.166,8.333,31.5c0,20.332,7,29.5,7,29.5s-3,19.467,0.167,31.799
			c0,8.143-4.262,16.342-4.781,24.564c-0.729,11.537,12.71,10.438,21.81,12.283c9.033,1.832,18.246,2.988,27.472,2.988
			c8.675,0,17.319-0.92,25.821-2.67c4.367-0.896,12.115-1.039,13.856-6.23c0.813-2.43-0.501-4.664-0.965-7.078
			c-0.882-4.588-0.865-9.701-0.713-14.355c0.333-10.168,2.999-6.634,2.833-23.301c-0.166-16.668,0.014-25.089-0.5-28.167
			c-0.5-3,4.334-6.5,5.834-27s3.833-24.167,3.833-24.167S1145.391,103.385,1118.725,103.385z"/>
		<path fill="#414042" d="M1130.513,102.007c2.386-0.227,6.166,1.619,6.989,3.57c1.029,2.436,1.572,4.129,0.451,6.641
			c-2.027,4.537-4.641,7.562-8.939,9.727c-3.428,1.725-8.559,3.064-12.504,2.535c-4.926-0.66-12.297-2.579-14.85-7.328
			c-1.469-2.732-1.986-5.43-1.412-8.428c0.677-3.537,3.005-5.164,6.757-5.576L1130.513,102.007z"/>
		<path fill="#736759" stroke="#594A42" stroke-miterlimit="10" d="M1146.453,79.448c-3.252,3.941,0.31,7.42,0.337,11.746
			c-0.348-0.734-0.878-1.381-1.808-1.562c-0.916,2.64-1.144,6.028-3.37,8.054c0.018-1.543-0.914-5.067-2.672-2.447
			c-0.803,1.197-0.932,3.488-0.154,4.776c-1.221-0.696-3.492-1.281-5-0.94c-3.036,0.686-4.221,1.865-4.357,5.133
			c-2.811-1.002-6.113-1.273-9.137-1.296c-1.325-0.01-2.533,0.028-3.832-0.29c-1.864-0.457-3.443-1.402-5.326-1.809
			c-2.139-0.463-4.213-1.006-6.352-1.23c-0.61-0.064-1.57,0.076-2.129-0.203c-0.366-0.184-0.407-0.654-0.646-0.814
			c-0.824-0.553-2.073-1.047-3.026-1.3c-0.976-0.258-2.738,0.112-3.348-0.904c2.513-1.018,0.759-5.358-0.386-6.705
			c-1.82-2.14-3.464-3.542-3.461-6.578c0.002-2.586,0.223-5.271-0.028-7.844c-0.12-1.237-0.419-2.427-0.714-3.37
			c-0.379-1.214-2.717-6.092-1.262-7.139c0.397-0.286,3.223,0.356,4.012,0.354c2.067-0.007,4.111-0.173,6.168-0.167
			c4.025,0.014,7.976-0.481,12.002-0.296c6.996,0.321,14.021,0.13,21.024,0.13c2.445,0,4.958,0.03,7.396-0.16
			c1.907-0.148,3.399-0.877,5.438-0.711c1.584,0.129,1.152,0.575,1.672,1.992c0.465,1.266,1.202,1.91,1.458,3.176
			c0.296,1.467-0.302,3.197-0.231,4.707C1148.827,76.007,1147.965,77.614,1146.453,79.448z"/>
		<path fill="#D7C8AA" stroke="#736759" stroke-miterlimit="10" d="M1103.594,89.329c-0.264,3.412,0.465,18.318,0.486,20.297
			c5.479,14.521,27.145,11.521,29.318-1.301c0.891-5.253,0.099-17.658-0.021-19.94C1122.892,98.358,1113.892,95.313,1103.594,89.329
			z"/>
		<path fill="#C3AF92" d="M1127.122,113.388c-2.646-1.495-2.977-6.765-4.9-9.055c-0.668-0.796-2.482-1.382-3.402-2.077
			c-1.804-1.365-6.01-3.148-5.707-5.739c0.234-2.011,11.708-10.194,13.918-10.55C1131.739,85.212,1133.508,116.999,1127.122,113.388
			z"/>
		<path fill="#D7C8AA" stroke="#736759" stroke-miterlimit="10" d="M1117.655,102.893c10.404,0,19.49-16.734,20.297-21.734
			c0.806-5,1.482-9.012,3.096-16.679c5.867-27.89-8.322-34-22.586-34c-14.924,0-30.068,6.11-24.201,34
			c1.615,7.667,2.291,11.679,3.098,16.679C1098.164,86.159,1108.059,102.893,1117.655,102.893z"/>
		<path fill="#C3AF92" d="M1098.797,64.271c0.025-3.204,4.251-4.38,6.713-5.142c2.475-0.766,5.232-0.885,7.293,0.891
			c2.213,1.907,1.504,4.749,1.078,7.345c-0.105,0.641-0.311,3.552-1.25,3.807c-0.602,0.163-1.422-0.769-1.979-0.964
			c-1.021-0.361-2.346-0.344-3.451-0.519c-2.822-0.446-7.985-1.334-8.381-4.967C1098.803,64.568,1098.795,64.417,1098.797,64.271z"
			/>
		<path fill="#C3AF92" d="M1132.139,49.299c-1.598-1.204-3.666-1.934-5.281-3.054c-1.061-0.736-3.617-1.092-3.455,1.225
			c0.069,0.982,1.521,2.446,1.853,3.491c0.401,1.261,0.535,2.57,0.146,3.854c-0.518,1.705-2.527,2.643-3.521,4.029
			c-1.06,1.479-1.654,3.492-1.654,5.305c0.001,1.341,0.422,2.507,0.5,3.833c0.192,3.23,0.707,6.692-0.333,9.843
			c-0.196,0.595-0.88,1.739-0.837,2.325c0.066,0.876,1.283,1.744,1.712,2.67c0.487,1.051,0.58,1.934,0.625,3.162
			c0.075,2.063,0.204,4.218-1.329,5.709c-1.01,0.98-4.742,0.5-4.312,2.096c0.146,0.541,2.654,0.723,3.034,1.502
			c0.498,1.021-0.808,2.669-0.237,3.87c0.891,1.88,2.621,0.027,3.545-0.634c3.807-2.727,7.34-5.223,9.133-9.543
			c1.192-2.873,3.031-6.627,3.8-9.719c0.599-2.406,0.72-4.935,0.904-7.397c0.062-0.818,0.466-2.351,0.132-3.15
			c-0.363-0.873-1.674-1.097-2.17-2.024c-0.326-0.607-0.357-1.223-0.223-1.867c0.131-0.634,1.664-2.03,1.912-2.36
			c1.162-1.545,1.293-1.57,0.635-3.447C1135.548,55.686,1135.049,51.49,1132.139,49.299z"/>
		<path fill="#FFFFFF" stroke="#736759" stroke-miterlimit="10" d="M1101.788,64.639c0.82,4.612,9.463,4.59,10.115,0.631
			c0.681-4.125-9.127-1.489-10.361-0.314"/>
		<path fill="#FFFFFF" stroke="#736759" stroke-miterlimit="10" d="M1134.6,64.639c-0.838,3.815-9.102,4.59-9.756,0.631
			c-0.68-4.125,9.129-1.489,10.361-0.314"/>
		<path fill="#736759" stroke="#594A42" stroke-miterlimit="10" d="M1096.617,73.18c0.397-3.668,0.962-3.323,0.364-6.861
			c-0.256-1.515,0.443-5.457,0.846-7.028c0.538-2.096,2.521-4.204,3.52-6.287c1.061,0.08,1.85,0.718,2.274,1.7
			c2.056-1.837,1.725-6.152,3.362-8.525c1.455-2.109,4.284-2.827,5.736-4.92c1.758-2.531,1.158-5.718,0.2-8.445
			c-0.638-1.817-0.44-3.056-1.747-4.647c-2.227-2.71-6.931,1.894-8.879,3.165c-1.756,1.146-3.17,2.529-4.533,4.118
			c-0.79,0.921-4.887,3.071-5.65,3.885c-1.695,1.804-0.684,3.295-1.658,5.624c-0.871,2.083-1.999,3.309-3.942,4.479
			c0.708,0.428,1.725,0.441,2.585,0.567c0.832,0.122-2.291,4.04-2.507,4.475c-0.854,1.714-1,3.5-1.357,5.508
			c0.407-0.07,0.851,0.041,1.249,0.018c0.052,1.447-0.553,3.22-0.587,4.975c-0.039,2.057,0.465,3.833-1.323,5.212
			c-0.063,0.049,3.539,2.004,3.73,2.329c0.917,1.563-0.035,5.534-0.211,7.271c0.635-0.257,1.673-0.549,2.175-1.076
			c0.617,1.425,0.661,2.973,1.115,4.438c0.392,1.262,1.362,2.041,1.714,3.342"/>
		<path fill="#D7C8AA" stroke="#736759" stroke-linecap="round" stroke-linejoin="round" stroke-miterlimit="10" d="
			M1097.036,67.878c-0.869-1.801-7.037-6.175-8.658-3.477c-1.523,2.532,1.23,6.001,2.744,7.913c0.922,1.162,1.734,2.361,2.096,3.907
			c0.326,1.401-0.676,2.615,0.312,3.778c1.26,1.48,3.943,1.031,3.787-1.282"/>
		<path fill="#736759" stroke="#594A42" stroke-miterlimit="10" d="M1112.17,34.177c0.238,0.896,0.457,1.83,0.637,2.8
			c0.736,3.948,2.326,4.768,5.797,6.402c3.193,1.503,6.992,3.903,9.143,6.663c1,1.283,1.957,2.692,3.117,3.867
			c2.014,2.042,4.877,3.632,6.395,6.115c0.457,0.748,0.474,1.865,0.551,2.704c0.137,1.5-0.342,2.923,0.549,4.202
			c0.705,1.014,2.732,1.809,3.688,2.611c1.212,1.02,1.615,2.578,2.711,3.477c0.969-1.102,1.526-2.432,2.363-3.457
			c0.598,0.613,0.881,1.71,1.252,2.643c0.765-0.563,3.292-9.749,2.211-10.209c0.971,0.414,1.508,1.777,2.15,2.597
			c-0.02-1.842,0.603-3.848-0.092-5.613c-0.543-1.382-1.176-2.783-1.744-4.174c-0.744-1.82-2.244-3.341-3.705-4.733
			c-0.92-0.877-2.076-1.747-2.6-2.922c-0.812-1.821-0.988-4.331-1.392-6.331c-0.577-2.861-0.867-2.727-2.964-4.864
			c-1.254-1.278-2.953-2.445-4.516-3.375c-3.564-2.119-7.056-4.678-10.869-5.571c-1.854-0.434-4.375-2.131-6.267-1.755
			c-0.612,0.122-0.974,0.804-1.522,0.98c-0.785,0.252-1.877,0.289-2.717,0.502c-1.307,0.331-2.414,0.764-3.75,0.78
			c-0.119,1.4,0.529,3.142,0.942,4.477C1111.755,32.694,1111.969,33.422,1112.17,34.177z"/>
		<path fill="#736759" d="M1118.392,82.313c1.093,0.087,5.299-2.147,4.593-2.854c-0.27-0.27-1.396,0.246-4.736,0.246
			c-3.416,0-4.436-0.646-4.642-0.439C1112.68,80.194,1117.291,82.224,1118.392,82.313z"/>
		<path fill="#736759" d="M1125.205,88.96c-2.263-0.283-4.32,1.531-6.62,1.494c-1.924-0.031-3.678-1.044-5.576-1.111
			c-0.617-0.022-2.436,1.014-2.584,0.822c-0.239-0.307-0.031-1.211,0.053-1.559c0.059-0.243,0.215-1.402,0.652-1.325
			c0.33,0.058,0.08,0.457,0.211,0.646c0.444,0.635,2.077,0.367,2.738,0.49c1.119,0.208,2.186,0.639,3.288,0.907
			c1.659,0.403,3.05-0.161,4.573-0.737c1.149-0.436,3.1-0.084,4.043-0.794c0.303-0.228,0.222-0.627,0.506-0.829
			c0.614-0.438,0.891,1.66,0.955,2.047c0.031,0.183,0.145,0.527,0.008,0.692c-0.314,0.381-0.53-0.068-0.746-0.251
			C1126.317,89.124,1125.746,89.026,1125.205,88.96z"/>
		<path fill="#736759" stroke="#594A42" stroke-width="0.75" stroke-miterlimit="10" d="M1119.93,81.344
			c-2.52,0.143-6.461-0.164-8.531,1.514c-1.025,0.832-1.512,2.238-2.177,3.35c-0.778,1.295-1.345,3.219-1.017,4.758
			c0.706-0.08,1.018-0.947,1.564-1.395c0.665-0.545,0.865-0.512,1.688-0.67c0.827-0.156,1.351-0.246,2.108-0.592
			c0.581-0.266,1.312-0.811,1.986-0.648c0.733,0.176,0.702,0.834,1.571,0.93c0.675,0.072,1.061-0.217,1.837-0.061
			c0.349,0.068,0.323,0.338,0.833,0.32c0.789-0.027,0.465-0.246,1.012-0.535c0.627-0.334,1.795-1.27,1.823-0.072
			c1.3,0.281,2.479,0.488,3.644,1.143c0.834,0.471,1.602,1.287,2.546,1.389c0.139-3.127-1.097-8.207-4.788-9.01
			C1122.521,81.436,1121.458,81.259,1119.93,81.344z"/>
		<path fill="#231F20" stroke="#736759" stroke-miterlimit="10" d="M1109.821,63.238c0,3.034-5.258,3.519-5.307,0.476"/>
		<path fill="#231F20" stroke="#736759" stroke-miterlimit="10" d="M1126.461,63.327c0.153,3.113,5.424,3.329,5.324,0.22"/>
		<path fill="#736759" d="M1108,57.749c-2.232,0.566-8.146,2.625-8.281,5.269c1.023,0.083,1.893-0.816,2.786-1.254
			c1.161-0.569,2.316-1.028,3.513-1.458c2.32-0.835,4.076-0.962,6.193,0.604c0.459,0.338-0.533-2.709-0.602-2.838
			C1110.555,56.097,1109.924,57.261,1108,57.749z"/>
		<path fill="#736759" d="M1128.028,57.749c2.232,0.566,7.965,2.379,8.281,5.269c-1.023,0.083-1.893-0.816-2.786-1.254
			c-1.161-0.569-2.316-1.028-3.513-1.458c-2.32-0.835-4.076-0.962-6.193,0.604c-0.459,0.338,0.533-2.709,0.602-2.838
			C1125.473,56.097,1126.104,57.261,1128.028,57.749z"/>
		<path opacity="0.2" fill="#231F20" d="M1156.59,116.137c3.244,1.47,6.449,3.049,9.893,3.932
			c-0.359,5.789-0.614,11.819-0.898,17.914c-0.441,9.464-4.54,18.724-5.031,27.943c-0.206,3.869-0.658,7.736-0.914,11.605
			c-0.947,14.344,3.678,30.912-5.426,43.525c-1.436,1.99-0.412,1.16,0.324,2.699c0.892,1.865,1.398,3.912,2.106,5.893
			c1.507,4.213,1.075,9.678-0.296,13.924c-3.932,0.254-7.367,2.084-11.284,2.295c-4.647,0.248-9.15,0.576-13.8,1.014
			c-1.848,0.174-10.383,2.537-11.299,0.043c-0.693-1.885,5.305-5.486,6.477-6.316c4.695-3.336,14.975-6.031,16.053-12.543
			c-2.819-1.941-9.523,0.146-7.483-5.111c1.823-4.699,14.45-6.256,8.81-13.81c-2.184-2.923-6.717-3.743-9.08-6.838
			c-3.713-4.864-2.117-7.733-2.17-13.384c-0.057-5.924-3.148-13.463-5.396-18.895c-1.635-3.954-5.951-7.91-5.195-12.453
			c0.752-4.513,4.145-8.031,4.736-13.078c0.525-4.469,0.09-9.125,0.923-13.547c0.775-4.117,0.458-3.463,3.862-5.695
			c2.812-1.842,5.499-3.585,7.449-6.371c3.9-5.574,3.937-7.406,11.365-5.203C1152.468,114.319,1154.538,115.206,1156.59,116.137z"/>
		<path opacity="0.2" fill="#231F20" d="M1189.132,166.157c2.796,11.426,7.175,24.998-3.237,33.076
			c-1.267-5.602-1.195-11.541-1.824-17.216c-0.661-5.954-2.812-11.554-3.872-17.428c-0.897-4.977-0.638-10.111-1.655-15.074
			c-0.493-2.401-1.1-5.272-2.087-7.506c-0.889-2.01-2.962-3.337-3.68-5.437c-0.604-1.77-0.335-4.508,0.374-6.236
			c3.117-7.613,7.245,7.081,7.99,9.24c1.501,4.349,3.69,8.26,4.862,12.795C1187.182,156.935,1188.012,161.58,1189.132,166.157z"/>
		<path opacity="0.2" fill="#231F20" d="M1070.878,177.231c-0.072-0.935-0.261-1.842-0.599-2.707
			c-1.469-3.745-2.179-7.233-2.701-11.172c-0.852-6.41-3.072-13.1-2.467-19.58c0.251-2.681,0.984-5.363,0.301-8.073
			c-0.5-1.981-3.943-8.681-6.055-6.457c-2.084,2.196,0.834,8.39,0.229,11.329c-0.57,2.768-2.373,5.048-1.867,7.996
			c0.605,3.522,3.125,6.636,3.162,10.287c0.051,4.924,0.867,10.289-0.139,15.076c-1.186,5.635-2.556,11.232-4.045,16.794
			c-1.096,4.091-4.68,17.442,4.193,10.739c3.893-2.94,5.986-8.35,7.503-12.803C1069.579,185.184,1071.168,180.995,1070.878,177.231z
			"/>
		<path fill="#58595B" stroke="#414042" stroke-miterlimit="10" d="M1112.717,130.779c0.197-3.805-0.907-7.329-0.73-11.012
			c1.912-0.1,3.176,0.56,5.018,0.712c1.896,0.158,4.024-0.229,5.646-0.709c1.639,1.934,0.842,7.035,0.91,9.391
			c0.107,3.699,0.156,7.399,0.156,11.101c0,4.8,1.988,8.688-3.123,10.862c-1.762,0.748-4.792,0.291-6.146-1.176
			c-1.316-1.426-0.731-4.352-0.731-6.275C1113.717,138.052,1112.424,136.477,1112.717,130.779z"/>
		<path fill="#414042" d="M1118.922,132.797c2.629-0.528,2.716-4.726,0.113-5.393
			C1115.724,126.554,1114.786,133.629,1118.922,132.797z"/>
		<path fill="#414042" d="M1118.17,142.979c3.914,0.539,3.637-6.503,0.028-5.439C1115.967,138.198,1115.54,142.618,1118.17,142.979z
			"/>
		<path fill="#C3AF92" d="M1097.725,68.533c-0.096,3.04,1.029,5.396,2.982,7.488c1.545,1.653,3.794,2.697,4.888,4.638
			c1.706,3.025,0.989,9.098,0.438,12.514c-1.004-0.133-2.678-3.035-3.342-3.961c-1.727-2.407-2.486-4.773-3.457-7.539
			c-0.262-0.744-2.893-10.105-1.343-9.973"/>
		<path fill="#594A42" d="M1116.392,37.647c1.833,4.896,8.072,7.154,11.845,10.441c-0.172-1.291-1.324-1.869-1.991-2.804
			c-0.887-1.243-1.307-2.071-2.854-2.93c-2.233-1.24-5.002-2.496-6.499-4.541"/>
		<path fill="#594A42" d="M1141.725,60.48c-2.08-4.529-3.835-9.64-7.451-13.271c0.705,4.657,4.535,9.641,6.951,13.771"/>
		<path fill="#594A42" d="M1147.616,62.339c-1.427-1.508-3.635-2.159-4.988-3.783c-1.148-1.38-1.953-3.378-2.635-5.017
			c-0.523-1.258-1.154-2.777-1.871-3.929c0.525,1.074,1.321,1.601,1.975,2.515c0.637,0.89,0.738,2.009,1.373,2.891
			C1142.937,57.059,1148.168,59.492,1147.616,62.339z"/>
		<path fill="#736759" d="M1096.5,70.555c-1.26-1.289-2.828-3.971-4.951-3.74c-0.07,0.852,0.713,2.114,1.256,2.734
			c0.832-0.572,2.951,2.199,2.92,2.997c-1.539-0.122-0.545,2.626,1.164,2.103c0.01-0.143-0.008-0.287-0.037-0.43"/>
		<path fill="#D7C8AA" stroke="#736759" stroke-linecap="round" stroke-linejoin="round" stroke-miterlimit="10" d="
			M1138.274,67.517c0.867-1.8,7.035-6.175,8.658-3.477c1.523,2.532-1.232,6.001-2.746,7.912c-0.92,1.163-1.732,2.362-2.094,3.907
			c-0.328,1.401,0.676,2.615-0.314,3.778c-1.26,1.481-3.943,1.032-3.785-1.282"/>
		<path fill="#736759" d="M1138.809,70.196c1.258-1.289,2.826-3.971,4.951-3.741c0.068,0.851-0.715,2.114-1.256,2.735
			c-0.834-0.572-2.951,2.199-2.922,2.996c1.541-0.121,0.547,2.627-1.162,2.104c-0.01-0.143,0.008-0.287,0.037-0.43"/>
		<path opacity="0.2" fill="#231F20" d="M1083.625,221.919c-0.043,0.105-0.084,0.207-0.127,0.311
			c-2.488,6.07-5.492,13.529-4.76,20.111c-4.875-0.352-1.023-11.211,0.094-13.961c2.225-5.48,3.273-9.107,2.467-15.079
			c-0.682-5.056-0.865-10.62-1.051-15.974c-0.158-4.562,1.605-9.458,0.973-13.949c-0.484-3.43-2.301-7.111-3.23-10.516
			c-2.553-9.346-5.91-18.787-3.973-28.632c0.018-0.087,2.16-6.772,2.713-4.981c2.469,7.982,1.645,16.697,2.838,24.951
			c0.447,3.09,0.484,7.231,2.09,10.168c4.016,7.338,5.309,1.558,8.756-2.08c-0.598,0.631-0.318,8.385-0.598,9.846
			c-0.703,3.692-1.893,7.276-2.562,10.978c-1.135,6.259-0.057,12.152-0.49,18.389C1086.52,215.042,1085.026,218.52,1083.625,221.919
			z"/>
		<path fill="#736759" d="M1107.652,62.266c1.491-0.304,5.063-0.217,4.701,2.057c-0.649,0.022-1.173-0.387-1.78-0.563
			c-2.512-0.729-4.305,0.102-6.86,0.536c-1.246,0.212-2.878,0.643-4.119,0.271c0.713,0.214,2.97-0.742,3.798-1.069
			C1104.862,62.918,1105.871,62.629,1107.652,62.266z"/>
		<path fill="#736759" d="M1128.967,62.211c-1.154-0.235-3.564-0.138-4.382,0.777c-0.321,0.36-0.739,1.177-0.741,1.675
			c2.948-1.891,5.896-0.96,9.062-0.421c1.246,0.212,2.879,0.643,4.119,0.272c-0.711,0.213-2.969-0.743-3.797-1.07
			C1131.758,62.863,1130.75,62.574,1128.967,62.211z"/>
		<circle fill="#FFFFFF" cx="1105.642" cy="64.232" r="0.453"/>
		<circle fill="#FFFFFF" cx="1127.348" cy="63.693" r="0.454"/>
		<path fill="#594A42" d="M1096.923,57.676c-0.966,2.44-1.316,5.387-1.563,7.996c-0.018-1.021-0.663-1.892-0.861-2.883
			c-0.189-0.944-0.297-1.943-0.42-2.878c-1.125,0.77-0.418,3.005-1.33,3.753c-1.133-1.209-0.703-4.266-0.662-5.834
			c-0.383,0.443-0.933,0.878-1.357,1.282c0.055-1.418,0.603-3.003,1.231-4.198c0.567-1.078,1.183-2.521,2.046-3.317
			c-0.023,0.73-0.057,1.595-0.068,2.211c0.451-1.064,1.335-2.015,1.816-2.976c0.621-1.242,0.565-2.627,0.855-3.961
			c0.821,1.265,0.811,4.22,0.729,5.809c1.464-2.751,1.236-5.812,0.416-8.558c0.533,1.006,1.335,1.885,1.73,3.044
			C1100.817,51.068,1098.258,54.302,1096.923,57.676z"/>
		<path fill="#594A42" d="M1095.523,86.538c0.756,1.062,1.399,2.201,2.138,3.301c1.086,1.615,1.683,3.343,1.793,5.265
			c0.67-0.504,0.765-1.308,1.135-2.032c0.628,0.885,1.137,1.623,2.283,1.74c-0.214-0.7-0.85-1.338-1.256-1.942
			c-0.855-1.268-1.084-2.896-1.675-4.341c-0.502-1.227-0.93-2.396-1.812-3.381c-0.958-1.072-1.818-2.223-2.441-3.536
			c-0.49,0.854,0.139,1.771-0.008,2.67c-0.887-0.718-1.664-1.667-2.56-2.46c0.429,0.38,0.633,1.589,0.86,2.123
			c0.316,0.74,0.662,1.436,1.156,2.074C1095.269,86.188,1095.397,86.362,1095.523,86.538z"/>
		<path fill="#594A42" d="M1134.837,90.661c-0.255,0.609-0.479,1.238-0.562,1.895c-0.207,1.654,0.005,3.429,0.176,5.031
			c-0.142-1.515,0.674-2.32,1.477-3.479c-0.066,0.097,0.617,1.183,0.684,1.341c-0.021-1.323,0.67-2.35,0.842-3.663
			c0.15,0.748,0.695,1.325,0.683,2.095c0.217-0.571,0.395-0.771,0.521-1.39c0.172-0.85,0.133-1.94,0.416-2.731
			c0.723,0.403,0.809,2.276,0.832,3.033c1.297-1.795,0.846-2.932,0.527-4.958c-0.217-1.374-0.073-2.489,0.569-3.699
			c-0.458,0.489-0.966,0.778-1.359,1.326c-0.311,0.431-0.532,0.896-0.837,1.294c-0.117-1.723,0.604-2.971,1.367-4.434
			c-1.156,0.758-2.547,1.947-3.118,3.236c-0.616,1.389-1.204,2.788-1.815,4.185C1135.106,90.044,1134.967,90.35,1134.837,90.661z"/>
		<path fill="#736759" stroke="#594A42" stroke-miterlimit="10" d="M1121.135,92.95c-0.18-0.073-0.45-0.156-0.861-0.277
			c-5.053-1.473-6.453,5.15-11.207,0.615c-2.84-2.711-2.948-7.155-3.534-10.782c-0.589-3.647-3.178-4.522-5.401-6.932
			c-2.381-2.579-2.752-4.865-3.256-8.302c-0.604,2.272,0.762,16.725,1.184,18.965c0.545,2.895,2.18,9.871,3.693,12.259
			c2.964,4.679,6.586,9.24,10.994,12.72c0.922-1.844,2.709,1.098,3.305,1.764c0.178-0.592,0.639-0.828,0.945-1.201
			c0.615,0.445,1.151,0.994,1.411,1.691c1.033-0.281,4.322-2.665,4.665-3.641c0.111,0.812,0.432,1.474,0.773,2.229
			c1.969-3.069,4.904-5.345,6.904-8.571c1.065-1.719,1.414-3.682,2.411-5.385c1.014-1.729,2.079-3.387,2.583-5.459
			c1.393-5.713,2.908-19.572,2.527-25.562c-0.748,3.008-1.249,6.259-3.289,8.715c-1.711,2.062-5.082,2.957-5.812,5.793
			c-0.938,3.644,0.11,7.509-1.785,10.919c-1.179,2.12-3.748,5.173-5.546,1.87C1121.261,93.316,1121.772,93.206,1121.135,92.95z"/>
		<circle fill="none" stroke="#58595B" stroke-width="2" stroke-miterlimit="10" cx="1144.499" cy="149.979" r="10"/>
		<circle fill="none" stroke="#58595B" stroke-width="2" stroke-miterlimit="10" cx="1144.498" cy="149.979" r="4.917"/>
		
			<path fill="#FF6700" stroke="#000000" stroke-width="2" stroke-linecap="round" stroke-linejoin="round" stroke-miterlimit="10" d="
			M1096.934,105.229c-10.5,8.625,9.561,41.194,10.57,47.352c1.113,6.795,2.001,13.156,2.001,20.201
			c0,5.807,0.778,43.987,0.769,49.715c-0.007,4.068,0.241,9.629-4.205,11.494c-7.266,3.051-21.986-0.432-29.439-2.967
			c-3.07-1.045-4.737-15.08-3.57-22.545c1.362-8.716,1-18.23,1-27.502c0-12.016,0.93-24.461-1.672-36.293
			c-2-9.089-2.767-20.034-9.218-27.222C1071.307,112.831,1104.09,99.351,1096.934,105.229z"/>
		
			<path fill="#FF6700" stroke="#000000" stroke-width="2" stroke-linecap="round" stroke-linejoin="round" stroke-miterlimit="10" d="
			M1144.059,106.979c5.829,4.25-5.947,28.234-9.167,40.167c-2.302,8.532-2.363,9.11-3.628,17.896
			c-1.021,7.107-1.869,14.27-2.431,21.415c-0.74,9.413-0.91,18.858-0.946,28.297c-0.02,5.224-1.338,16.411,3.859,19.231
			c8.273,4.488,24.77,0.018,32.066-5.006c0,0,2.746,1.5,1.295-26.904c-0.671-13.136-0.834-26.298,0.579-39.377
			c1.276-11.812,1.009-23.947,2.856-35.627c0.609-3.852,0.988-6.292,2.605-10.162c-4.257-2.096-6.424-3.43-12.406-5.744
			C1154.167,109.395,1138.229,102.729,1144.059,106.979z"/>
		<path fill="none" stroke="#FFFFFF" stroke-miterlimit="10" d="M1120.645,61.033l-2.946,0.587l-2.946-0.587
			c-11.5-2.5-16.5,1.667-18.834,4.167v2c0,0,0.834,0,2.167,1.166c6.667,5.668,15,3.167,16.5,0.5c1.5-2.666,1.937-4.413,3.113-4.413
			s1.613,1.747,3.113,4.413c1.5,2.667,9.833,5.168,16.5-0.5c1.333-1.166,2.167-1.166,2.167-1.166v-2
			C1137.145,62.699,1132.145,58.533,1120.645,61.033z"/>
		<path opacity="0.4" fill="#FFFFFF" d="M1112.642,62.617c0.175-0.585-0.516-0.996-0.948-1.134
			c-0.625-0.199-1.288-0.239-1.932-0.354c-1.021-0.182-2.136-0.27-3.172-0.269c-1.107,0.001-2.203,0.158-3.281,0.402
			c-0.921,0.208-1.775,0.69-2.628,1.104c-0.952,0.462-2.997,1.318-2.673,2.669c0.26,1.074,1.287,1.737,2.404,1.629
			c0.646-0.062,1.164-0.621,1.689-1.027c1.758-1.354,4.025-2.619,6.32-2.678c0.848-0.021,1.686,0.026,2.527,0.034
			C1111.398,62.998,1112.469,63.195,1112.642,62.617z"/>
		<path opacity="0.4" fill="#FFFFFF" d="M1125.947,63.461c-0.585,0.085-1.095,0.436-1.679,0.574c-0.68,0.16-1.376,0.243-2.072,0.285
			c-0.625,0.038-1.502,0.093-2.07-0.166c-0.561-0.255-0.828-0.821-0.544-1.389c0.296-0.592,1.257-0.667,1.837-0.871
			c1.525-0.535,3.059-1.126,4.69-1.222c0.724-0.042,1.386-0.135,2.104-0.032c0.764,0.109,1.498,0.242,2.232,0.482
			c0.404,0.132,1.334,0.449,1.602,0.825c0.854,1.203-1.639,1.11-2.229,1.11C1128.495,63.056,1127.266,63.27,1125.947,63.461z"/>
		<path opacity="0.4" fill="#FFFFFF" d="M1122.347,68.046c0.726,0.25,1.353-0.273,1.466-0.975c0.105-0.658-0.008-1.339-0.686-1.599
			c-0.535-0.205-1.613-0.355-2.037,0.167C1120.49,66.382,1121.631,67.798,1122.347,68.046z"/>
		<g>
			<path fill="#FFFF00" d="M1095.057,233.643l-7.998-0.166c0.094-4.543,0.514-9.273,0.959-14.281
				c1.871-21.085,4.436-49.962-13.733-106.119l7.611-2.463c18.67,57.706,16.022,87.52,14.091,109.289
				C1095.554,224.772,1095.146,229.37,1095.057,233.643z"/>
			<path fill="#FFFFFF" d="M1093.058,233.602l-3.999-0.082c0.093-4.477,0.51-9.174,0.951-14.148
				c1.887-21.256,4.471-50.366-13.822-106.91l3.805-1.232c18.545,57.319,15.919,86.898,14.002,108.498
				C1093.559,224.63,1093.148,229.26,1093.058,233.602z"/>
		</g>
		<g>
			<path fill="#FFFF00" d="M1141.12,233.643l7.998-0.166c-0.094-4.543-0.514-9.273-0.959-14.281
				c-1.871-21.085-4.436-49.962,13.733-106.119l-7.611-2.463c-18.67,57.706-16.022,87.52-14.091,109.289
				C1140.623,224.772,1141.031,229.37,1141.12,233.643z"/>
			<path fill="#FFFFFF" d="M1143.119,233.602l3.999-0.082c-0.093-4.477-0.51-9.174-0.951-14.148
				c-1.887-21.256-4.471-50.366,13.822-106.91l-3.805-1.232c-18.545,57.319-15.919,86.898-14.002,108.498
				C1142.618,224.63,1143.029,229.26,1143.119,233.602z"/>
		</g>
	</g>
</g>
</svg>
