<?xml version="1.0" encoding="utf-8"?>
<!-- Generator: Adobe Illustrator 16.0.0, SVG Export Plug-In . SVG Version: 6.00 Build 0)  -->
<!DOCTYPE svg PUBLIC "-//W3C//DTD SVG 1.1//EN" "http://www.w3.org/Graphics/SVG/1.1/DTD/svg11.dtd">
<svg version="1.1" id="Layer_1" xmlns="http://www.w3.org/2000/svg" xmlns:xlink="http://www.w3.org/1999/xlink" x="0px" y="0px"
	 width="169.785px" height="170.857px" viewBox="1267.787 0 169.785 170.857" enable-background="new 1267.787 0 169.785 170.857"
	 xml:space="preserve">
<g>
	<defs>
		<circle id="XMLID_7_" cx="1352.679" cy="85.428" r="78.717"/>
	</defs>
	<use xlink:href="#XMLID_7_"  overflow="visible" fill="#F4F4F4"/>
	<clipPath id="XMLID_16_">
		<use xlink:href="#XMLID_7_"  overflow="visible"/>
	</clipPath>
	<g clip-path="url(#XMLID_16_)">
		<path fill="#231F20" d="M1329.958,108.635c-0.271,2.5,1.135,4.538,0.814,7.182c-0.135,1.113-1.676,3.359-0.803,4.312
			c0.268,0.291,1.236,0.272,1.607,0.396c0.45,0.149,0.697,0.472,1.321,0.586c0.746,0.138,1.913-0.378,2.534-0.156
			c0.952,0.342,1.354,1.875,2.182,2.461c1.972,1.395,5.553,1.135,7.812,1.049c4.534-0.172,9.103-1.623,13.524-2.519
			c1.174-0.237,2.264-0.505,3.449-0.503c2.189,0.002,5.3,1.526,7.396,0.7c1.959-0.772,3.267-3.661,5.121-4.543
			c-0.018-1.278-1.216-2.699-1.738-3.892c-0.623-1.425-1.173-3.059-1.381-4.613c-0.273-2.035,0.52-3.863,0.482-5.824
			c-0.039-2.101-1-4.076-1.13-6.16c-0.122-1.956-0.044-4.062-0.043-6.039c0-0.688,0.126-1.564-0.067-2.248
			c-0.329-1.162-1.039-1.867-1.395-2.928c-0.809-2.406-0.815-5.141-1.675-7.609c-0.292-0.842-0.588-1.359-0.851-2.289
			c-1.058-3.744-4.015-6.134-6.348-9.16c-0.558-0.725-1.018-1.51-1.583-2.122c-2.023-2.188-4.854-4.211-7.282-6.027
			c-0.894-0.668-2.787-2.146-3.938-1.743c-0.687,0.24-1.358,2.043-1.634,2.653c-1.539,3.407-4.3,6.231-6.095,9.528
			c-2.119,3.89-3.875,7.558-4.984,11.875c-0.879,3.42-1.153,6.892-1.149,10.402c0.002,1.768,0.154,3.637-0.283,5.348
			C1332.802,100.745,1330.409,104.486,1329.958,108.635z"/>
		<path fill="#A67C52" stroke="#754D24" stroke-miterlimit="10" d="M1332.903,65.768c-0.783-2.221-1.42-4.757-3.379-6.379
			c-2.762-2.286-4.311,0.404-4.156,3.417c0.14,2.725,1.541,5.324,1.869,8.102c0.33,2.794,2.756,5.35,4.68,1.862"/>
		<path fill="#A67C52" stroke="#754D24" stroke-miterlimit="10" d="M1370.03,65.675c0.789-2.219,1.434-4.753,3.396-6.37
			c2.766-2.279,4.309,0.415,4.146,3.427c-0.146,2.725-1.555,5.321-1.891,8.097c-0.338,2.794-2.77,5.344-4.684,1.851"/>
		<path fill="#603916" d="M1330.452,65.878c-0.477-1.159-0.238-2.79-1.02-3.87c-0.383-0.528-1.008-0.736-1.625-0.914
			c-0.984-0.283-1.246-0.103-0.363,0.493c0.607,0.411,0.898,0.794,0.949,1.676c0.078,1.353-0.686,0.439-1.213,1.28
			c-0.787,1.254,0.801,1.477,0.885,2.439c0.032,0.366-0.303,0.733-0.312,1.09c-0.012,0.41,0.268,1.047,0.444,1.426
			c0.31,0.657,1.229,1.598,1.718,1.78"/>
		<path fill="#603916" d="M1372.176,65.878c0.48-1.158,0.246-2.79,1.031-3.868c0.383-0.526,1.01-0.733,1.627-0.909
			c0.986-0.281,1.246-0.1,0.363,0.494c-0.609,0.409-0.9,0.792-0.955,1.673c-0.082,1.352,0.684,0.441,1.209,1.283
			c0.785,1.257-0.803,1.475-0.891,2.438c-0.033,0.366,0.301,0.734,0.311,1.091c0.01,0.409-0.27,1.047-0.449,1.424
			c-0.311,0.657-1.232,1.596-1.721,1.776"/>
		<path fill="#576332" stroke="#808080" stroke-width="1.5" stroke-miterlimit="10" d="M1404.977,146.374
			c-0.377-1.317-0.762-2.634-1.178-3.939c-1.217-3.832-9.174-22.929-15.866-15.503c-2.821,3.13-2.763,8.917-3.419,12.842
			c-1.414,8.476,0.961,16.169,2.892,24.162c1.935,8.008,5.701,15.08,5.701,23.631c0,2.563-0.104,5.145-0.017,7.704
			c0.111,3.285-0.812,8.461,1.234,11.396c2.727,3.91,9.287,0.563,13.017-0.02c4.636-0.725,8.61-5.294,9.104-10.064
			c0.529-5.09-1.559-10.762-2.392-15.775c-0.944-5.687-2.948-11.137-3.929-16.815c-0.508-2.931-1.488-5.821-2.379-8.384
			C1406.701,152.598,1405.865,149.481,1404.977,146.374z"/>
		<path fill="#576332" stroke="#808080" stroke-width="1.5" stroke-miterlimit="10" d="M1319.512,147.882
			c-0.295-4.585,0.857-11.65-1.395-15.782c-1.862-3.417-6.628-6.403-10.493-5.267c-3.624,1.068-5.705,5.148-6.429,8.604
			c-1.207,5.761-2.866,11.303-4.076,17.091c-0.926,4.434-2.245,8.684-3.031,13.119c-0.781,4.4-0.768,8.918-1.4,13.342
			c-0.463,3.23-0.995,6.447-1.58,9.598c-0.627,3.369-1.982,6.406-2.003,9.938c-0.026,4.47,0.329,5.873,4,7.983
			c3.907,2.247,5.244,3.763,10.309,3.749c3.82-0.01,6.472,0.875,8.776-2.244c3.209-4.344,3.918-8.875,4.248-14.162
			c0.311-4.955,0.51-9.502,1.332-14.003c1.29-7.069,1.275-14.196,1.742-21.405C1319.743,154.889,1319.738,151.38,1319.512,147.882z"
			/>
		<path fill="#A67C52" stroke="#754D24" stroke-miterlimit="10" d="M1340.747,89.672c0,0,1.101,9.244-0.274,15.494
			s-4.367,11.252-12.893,14.252c9.075,8.5,7.942,13.998,23.893,13.998c15.949,0,20.394-7.748,23.693-15.498
			c-14.3-4-11.594-7.752-12.693-12.252c-1.101-4.5-0.025-16-0.025-16L1340.747,89.672z"/>
		<path fill="#8C6339" d="M1361.524,100.092c0-2.062-0.188-4.595-0.042-6.468c-2.035,0.773-4.45,1.959-6.465,2.697
			c-2.464,0.902-5.437,0.148-8.205,0.308c-0.362,1.118,0.914,1.997,1.663,2.585c0.518,0.408,1.201,0.672,1.737,1.121
			c1.547,1.299,2.999,3.145,3.394,5.178c0.603,3.103-0.525,6.833,0.455,9.791c2.805,0.184,4.822-0.02,7.096-1.336
			c2.584-1.494,1.938-2.929,1.605-5.613C1362.472,106.025,1361.524,102.546,1361.524,100.092z"/>
		<path fill="#A67C52" stroke="#754D24" stroke-miterlimit="10" d="M1351.541,33.761c19.112,0,21.175,20.061,21.175,28.561
			c0,17.625-9.693,36.562-21.243,36.562h0.137c-11.55,0-21.243-18.938-21.243-36.562
			C1330.366,53.822,1332.428,33.761,1351.541,33.761z"/>
		<path fill="#8C6339" d="M1347.127,65.492c-0.796-0.083-1.741-0.517-2.57-0.409c-2.363,0.31-4.584,2.121-7.068,1.763
			c-3.73-0.535-5.508-5.814-4.249-8.967c1.272-3.188,5.784-4.481,8.784-4.039c1.747,0.258,2.943,1.107,4.123,2.39
			c0.564,0.613,1.148,1.199,1.438,2.047c0.553,1.625,1.818,5.072,0.855,6.648C1348.122,65.446,1347.658,65.548,1347.127,65.492z"/>
		<path fill="#8C6339" d="M1352.441,90.94c1.24-0.164,2.504,0.724,3.538-0.166c0.811-0.699,1.111-2.199,1.75-2.963
			c-1.239,1.48-5.264,1.463-7.154,1.342c-0.812-0.051-1.809-0.017-2.631-0.15c-0.736-0.12-1.405-0.764-2.156-0.602
			c-0.107,1.008,0.503,1.899,1.095,2.609C1348.458,92.897,1350.523,91.194,1352.441,90.94z"/>
		<path fill="#FFFFFF" d="M1335.497,62.577c-0.166-0.744-0.395-1.183-1.188-1.968c2.637,0.879,4.484-0.531,7.148-0.522
			c2.334,0.008,5.104,0.896,5.795,3.345c-1.096-0.669-2.777,0.126-3.862,0.398c-1.253,0.314-2.083,0.981-3.378,1.099
			c-1.558,0.142-1.756-0.065-3.018-0.341C1336.071,64.386,1335.708,63.523,1335.497,62.577z"/>
		<path fill="#FFFFFF" stroke="#999999" stroke-miterlimit="10" d="M1339.872,102.536c-2.715,1.4-5.783,2.207-5.264,5.148
			c0.46,2.594,1.006,5.359-0.752,7.664c-1.354,1.773-2.828,1.926-3.342,4.244c-1.51,6.834,3.457,12.399,6.286,18.062
			c1.447,2.899,2.856,6.138,4.612,9.064c3.297,5.496,6.806,11.187,10.611,16.277c1.561,2.09,2.69,4.05,5.043,5.102
			c0.211-3.401,0.619-4.432,2.447-7.1c1.442-2.104,2.985-3.984,4.157-6.306c3.204-6.349,5.979-13.245,8.011-20.104
			c1.569-5.297,2.818-11.303,3.092-16.663c0.207-4.077-4.18-5.298-7.617-5.718c-0.568-0.068,0.611-3.551,0.621-3.768
			c0.034-0.801-0.219-1.06-0.598-1.667c-0.525-0.843-1.332-1.552-2.027-2.253c-0.658-0.664-1.504-1.18-2.029-1.397
			c0.135,1.858,0.645,6.149-1.816,6.853c-2.752,0.526-1.855,0.408-4.2,0.615c-2.377,0.21-4.872,0-7.259,0
			c-4.393,0-7.09,0.775-10.152-2.49c-0.878-1.348-0.703-1.171-0.117-3.045L1339.872,102.536z"/>
		<path opacity="0.15" d="M1313.713,180.177c1.906-9.781,1.979-21.156,0.773-31.057c-0.261-2.146-1.122-4.003-1.768-5.988
			c-0.498-1.53-0.295-6.061-1.876-7.119c-4.438-2.971-5.866,7.287-5.775,8.758c0.671,10.844,0.548,20.564-3.716,30.727
			c-2.913,6.939-5.258,12.787-3.443,20.504c5.925-1.022,13.283,4.227,13.722-5.057
			C1311.805,187.225,1312.999,183.833,1313.713,180.177z"/>
		<path fill="#576332" stroke="#808080" stroke-width="1.5" stroke-miterlimit="10" d="M1379.502,118.926
			c-2.654-1.929-8.281-6.228-11.494-5.964c1.734,3.287,2.232,5.544,1.77,9.287c-0.68,5.508-3.166,10.453-4.657,15.912
			c-1.558,5.699-4.159,11.149-7.202,15.846c-1.742,2.688-5.449,6.828-5.89,9.893c-1.459-1.146-2.08-4.037-3.241-5.728
			c-1.574-2.29-3.162-4.787-4.775-6.98c-2.904-3.952-5.234-8.065-7.307-12.12c-2.236-4.372-3.654-9.078-5.268-13.572
			c-2.07-5.766,1.469-7.668,3.396-12.654c-2.692,0.15-7.735,1.943-9.66,3.787c-1.438,1.377-2.456,3.123-4.005,4.4
			c-2.866,2.362-6.837,4.264-10.684,5.283c-2.665,6.715,3.888,15.636,4.691,22.191c0.954,7.783-4.343,15.033-4.757,22.66
			c-0.203,3.75,0.301,6,1.852,8.84c1.422,2.6,3.48,5.953,3.832,8.918c0.498,4.199,0.172,8.795,0.334,12.998
			c0.184,4.803-2.572,9.023-2.685,13.577c-0.088,3.577,2.942,5.597,5.618,7.171c2.787,1.639,6.475,3.561,9.752,4.244
			c4.551,0.949,9.29,1.945,13.906,2.75c1.281,0.225,2.57,0.365,3.831,0.596c0.692,0.126,1.778,0.705,2.235,0.68
			c2.01-0.113,2.441-1.419,3.999-1.949c1.79-0.609,2.047,0.131,3.675,0.267c2.818,0.235,5.551-1.185,8.262-1.675
			c3.551-0.641,6.631-1.852,10.135-2.688c1.754-0.419,3.684-0.357,5.433-1.038c3.429-1.334,6.478-4.446,6.495-8.256
			c0.018-4.01-0.32-8.146-0.32-12.219c0-4.786-0.344-9.714-0.004-14.486c0.258-3.609,1.633-6.508,2.74-9.897
			c0.767-2.344,1.078-4.757,1.26-7.407c0.248-3.604-0.148-6.715-1.332-10.009c-0.938-2.616-2.705-5.244-3.34-7.648
			c-1.422-5.39-0.539-13.152,1.08-18.251c1.059-3.332,4.955-8,1.86-11.017c-1.313-1.28-3.407-1.648-4.926-2.492
			C1382.542,121.3,1380.999,120.012,1379.502,118.926z"/>
		<path d="M1343.68,55.587c-0.092-0.025-0.319-0.184-0.432-0.24c-0.227-0.113-0.437-0.248-0.661-0.355
			c-1.292-0.623-2.627-0.759-3.981-0.394c-1.299,0.351-1.752,0.667-3.104,0.668c-0.727,0.001-1.376-0.22-2.014-0.562
			c0.266-0.173,0.467-0.133,0.784-0.147c0.457-0.021,0.965-0.052,1.415-0.147c1.293-0.272,1.582-0.519,2.855-0.916
			c1.553-0.484,3.123-0.56,4.714-0.108c0.599,0.17,1.091,0.413,1.589,0.814c0.102,0.082,0.23,0.219,0.334,0.276
			c0.154,0.085,0.494,0.042,0.584,0.233c0.096,0.203-0.176,0.551-0.336,0.655C1345.022,55.628,1344.133,55.711,1343.68,55.587z"/>
		<path stroke="#754D24" stroke-miterlimit="10" d="M1339.582,64.47c0.921,0.3,2.18-0.114,2.972-0.548
			c0.826-0.454,1.168-1.877,0.468-2.566c-0.725-0.713-1.864-0.997-2.874-0.889C1338.05,60.693,1337.475,63.785,1339.582,64.47z"/>
		<path fill="none" stroke="#000000" stroke-miterlimit="10" d="M1335.497,62.577c-0.166-0.744-0.395-1.183-1.188-1.968
			c2.637,0.879,4.484-0.531,7.148-0.522c2.334,0.008,5.104,0.896,5.795,3.345c-1.096-0.669-2.777,0.126-3.862,0.398
			c-1.253,0.314-2.083,0.981-3.378,1.099c-1.558,0.142-1.756-0.065-3.018-0.341C1336.071,64.386,1335.708,63.523,1335.497,62.577z"
			/>
		<circle fill="#FFFFFF" cx="1339.584" cy="61.78" r="0.688"/>
		<g>
			<path fill="#8C6339" d="M1369.821,61.054c0.438-1.775,0.271-3.695-0.719-5.232c-1.459-2.268-4.54-1.336-6.83-1.48
				c-7.951-0.5-7.178,10.914-7.416,16.206c-0.149,3.312,0.359,4.794-2.92,6.502c-1.035,0.539-3.001,0.147-3.816,0.834
				c1.074,0.504,1.69,1.133,2.986,1.374c2.035,0.38,6.211,0.389,6.865-2.261c0.404-1.637-0.754-2.047-1.273-3.5
				c-0.634-1.78-0.301-2.893,0.242-4.619c0.307-0.973,0.228-2.039,1.088-2.758c1.424-1.187,3.492-0.201,5.08,0.102
				C1366.417,66.852,1369.051,64.177,1369.821,61.054z"/>
		</g>
		<path fill="#FFFFFF" d="M1367.448,62.577c0.166-0.744,0.395-1.183,1.188-1.968c-2.637,0.879-4.484-0.531-7.148-0.522
			c-2.334,0.008-5.104,0.896-5.795,3.345c1.096-0.669,2.777,0.126,3.862,0.398c1.253,0.314,2.083,0.981,3.378,1.099
			c1.558,0.142,1.756-0.065,3.018-0.341C1366.874,64.386,1367.236,63.523,1367.448,62.577z"/>
		<path d="M1359.264,55.587c0.092-0.025,0.319-0.184,0.432-0.24c0.227-0.113,0.437-0.248,0.661-0.355
			c1.292-0.623,2.627-0.759,3.981-0.394c1.299,0.351,1.752,0.667,3.104,0.668c0.727,0.001,1.376-0.22,2.014-0.562
			c-0.266-0.173-0.467-0.133-0.784-0.147c-0.457-0.021-0.965-0.052-1.415-0.147c-1.293-0.272-1.582-0.519-2.855-0.916
			c-1.553-0.484-3.123-0.56-4.714-0.108c-0.599,0.17-1.091,0.413-1.589,0.814c-0.102,0.082-0.23,0.219-0.334,0.276
			c-0.154,0.085-0.494,0.042-0.584,0.233c-0.096,0.203,0.176,0.551,0.336,0.655C1357.922,55.628,1358.811,55.711,1359.264,55.587z"
			/>
		<path stroke="#754D24" stroke-miterlimit="10" d="M1363.363,64.47c-0.921,0.3-2.18-0.114-2.972-0.548
			c-0.826-0.454-1.168-1.877-0.468-2.566c0.725-0.713,1.864-0.997,2.874-0.889C1364.894,60.693,1365.469,63.785,1363.363,64.47z"/>
		<path fill="none" stroke="#000000" stroke-miterlimit="10" d="M1367.448,62.577c0.166-0.744,0.395-1.183,1.188-1.968
			c-2.637,0.879-4.484-0.531-7.148-0.522c-2.334,0.008-5.104,0.896-5.795,3.345c1.096-0.669,2.777,0.126,3.862,0.398
			c1.253,0.314,2.083,0.981,3.378,1.099c1.558,0.142,1.756-0.065,3.018-0.341C1366.874,64.386,1367.236,63.523,1367.448,62.577z"/>
		<circle fill="#FFFFFF" cx="1361.083" cy="61.575" r="0.688"/>
		<path fill="none" stroke="#FBB03B" stroke-linecap="round" stroke-linejoin="round" stroke-miterlimit="10" d="M1330.848,75.085
			c-0.008,1.311-0.405,2.371-0.889,2.369c-0.483-0.003-0.869-1.068-0.861-2.381c0.008-1.311,0.405-2.372,0.888-2.369"/>
		<path fill="none" stroke="#FBB03B" stroke-linecap="round" stroke-linejoin="round" stroke-miterlimit="10" d="M1372.772,74.608
			c0.295,1.277,0.916,2.225,1.387,2.116s0.613-1.233,0.318-2.511s-0.916-2.227-1.385-2.117"/>
		<path fill="#231F20" d="M1374.655,55.546c-0.001-0.179-0.092-0.344-0.082-0.547c0.023-0.478,0.236-0.856,0.303-1.333
			c0.084-0.607-0.014-1.048-0.304-1.53c-0.825-1.367,0.259-2.447,0.157-3.897c-0.052-0.741-0.592-1.291-0.846-1.967
			c-0.417-1.115-0.225-2.312-0.59-3.429c-0.23-0.709-0.779-1.283-1.084-1.905c-0.457-0.932-0.84-1.869-1.316-2.811
			c-0.278-0.548-0.676-1.035-0.985-1.547c-0.271-0.448-0.53-1.125-0.919-1.408c-0.229-0.166-0.561-0.19-0.825-0.455
			c-0.402-0.403-0.7-0.961-1.075-1.394c-0.487-0.562-1.219-0.888-1.893-1.118c-0.396-0.136-0.756-0.171-1.107-0.357
			c-0.686-0.363-0.873-1.122-1.348-1.647c-0.703-0.778-1.867-0.603-2.844-0.681c-1.004-0.08-1.941-0.633-2.899-0.825
			c-0.38-0.076-0.755-0.223-1.124-0.242c-0.506-0.026-0.979,0.242-1.438,0.311c-1.098,0.163-2.187-0.229-3.279-0.228
			c-0.564,0-1.021,0.011-1.538,0.224c-0.483,0.199-1.062,0.691-1.622,0.766c-0.508,0.068-1.19-0.167-1.71-0.243
			c-0.917-0.134-1.253-0.165-1.968,0.076c-0.931,0.313-1.828,1.039-2.775,1.147c-1.438,0.166-1.962,0.067-2.811,1.147
			c-0.498,0.631-1.115,1.045-1.734,1.482c-0.928,0.657-1.834,1.338-2.568,2.251c-0.311,0.385-0.513,0.826-0.887,1.151
			c-0.4,0.348-0.84,0.4-1.254,0.747c-0.451,0.378-0.759,0.961-0.916,1.532c-0.15,0.545,0.176,1.294,0.027,1.708
			c-0.086,0.239-0.616,0.552-0.791,0.717c-0.346,0.325-0.586,0.609-0.83,1.038c-0.405,0.714-0.891,1.421-1.065,2.185
			c-0.133,0.582-0.13,1.215-0.347,1.796c-0.237,0.639-0.431,0.753-0.363,1.387c0.059,0.539,0.301,1.068,0.157,1.646
			c-0.093,0.375-0.417,0.719-0.56,1.083c-0.219,0.555-0.211,0.99-0.211,1.605c0,0.604,0.152,1.221,0.119,1.821
			c-0.021,0.372-0.178,0.708-0.184,1.079c-0.017,1.077,0.508,2.154,0.861,3.15c0.312,0.881,0.891,1.275,1.435,2.012
			c0.393,0.531,0.612,0.891,1.261,1.045c0.298-0.753,0.094-2.015,0.158-2.847c0.064-0.824,0.309-1.528,0.5-2.277
			c0.188-0.736,0.182-1.559,0.309-2.319c0.23-1.384,0.384-2.827,0.812-4.163c0.425-1.325,1.079-2.522,1.648-3.808
			c0.56-1.262,0.923-2.406,1.909-3.423c0.564-0.583,0.783-1.175,1.241-1.832c0.448-0.641,1.31-1.389,1.937-1.908
			c0.496-0.411,1.143-0.676,1.672-1.135c0.299-0.26,0.639-0.68,0.974-0.815c0.962-0.386,1.875-0.489,2.854-0.572
			c0.977-0.083,1.477-1.031,2.365-1.297c0.897-0.268,2.473,0.001,3.342,0.341c1.169,0.457,2.109,0.719,3.383,0.811
			c1.174,0.085,1.511-1.295,2.629-1.089c0.461,0.085,0.998,0.298,1.445,0.473c0.36,0.14,0.66,0.327,0.998,0.448
			c0.543,0.196,1.163,0.34,1.664,0.619c0.305,0.169,0.573,0.464,0.842,0.697c0.53,0.46,1.076,0.743,1.654,1.138
			c0.566,0.386,1.285,1.081,1.71,1.656c0.534,0.725,0.843,1.427,1.519,2.089c0.616,0.604,1.214,1.208,1.539,1.991
			c0.783,1.882,2.107,4.002,2.385,6.082c0.261,1.965,0.99,3.791,0.984,5.842c-0.002,0.864,0.275,1.625,0.411,2.448
			c0.11,0.668,0.319,1.333,0.437,1.986c0.062,0.34,0.005,0.73,0.152,1.042c0.553-0.04,1.406-1.129,1.565-1.632
			c0.093-0.295,0.05-0.6,0.142-0.902C1374.379,57.694,1374.657,56.683,1374.655,55.546z"/>
		<path fill="#754C24" d="M1352.614,87.589c-1.623-0.575-2.961,0.766-4.618,0.246c-1.145-0.359-2.992-2.516-3.595-3.824
			c-0.222-0.48,2.318-0.829,3.685-1.352c0.589-0.225,1.243-0.309,1.916,0.073c0.597,0.339,1.077,0.728,1.724,0.703
			c0.777-0.03,1.177-0.793,1.861-1.06c0.559-0.217,1.416-0.221,1.955-0.072c1.232,0.338,2.314,0.359,3.498,0.898
			c0.187,0.986-1.27,3.088-1.709,3.411c-0.602,0.442-1.398,0.952-2.033,1.139C1354.586,87.963,1353.243,87.812,1352.614,87.589z"/>
		<path fill="#754C29" d="M1356.417,77.51c-2.645,0.717-6.469,0.717-9.092-0.004c0.254,0.346,2.014,1.757,4.434,1.757
			C1354.829,79.263,1356.288,77.712,1356.417,77.51z"/>
		<path fill="none" stroke="#231F20" stroke-linecap="round" stroke-linejoin="round" stroke-miterlimit="10" d="M1344.179,83.53
			c2.155,1.466,4.874,0.739,7.554,0.739c2.299,0,4.844,0.493,7.307-1.067"/>
		<path fill="none" stroke="#754D24" stroke-linecap="round" stroke-linejoin="round" stroke-miterlimit="10" d="M1344.179,82.036
			c-0.161,0.838-0.669,1.475-0.739,2.3"/>
		<path fill="none" stroke="#754D24" stroke-linecap="round" stroke-linejoin="round" stroke-miterlimit="10" d="M1359.122,81.955
			c0.089,0.364,0.47,0.682,0.639,1.067c0.152,0.346,0.196,0.816,0.43,1.067"/>
		<path fill="#333333" d="M1340.404,32.935c-0.104,0.241-0.12,1.09-0.253,1.233c-0.605,0.655-1.857,0.306-2.59,0.498
			c-1.046,0.274-2.242,1.371-2.223,2.616c-0.687,0.057-1.383,0.514-1.693,1.068c-0.138,0.247,0.138,0.726,0.014,0.981
			c-0.169,0.351-0.69,0.601-0.98,0.895c-0.773,0.783-0.646,0.929-0.887,1.87c-0.281,1.097-1.015,1.63-1.403,2.667
			c-0.995,2.655-1.882,5.752-1.705,8.537c0.051,0.804-0.045,3.148,0.931,3.272c0.929,0.117,1.299-4.479,1.551-5.165
			c0.338-0.921,0.354-1.398,0.466-2.459c0.13-1.229,0.658-1.594,1.28-2.512c0.703-1.04,0.354-1.699,0.586-2.896
			c0.207-1.057,0.596-0.76,1.09-1.53c0.295-0.457,0.105-0.807,0.309-1.289c0.357-0.85,0.377-0.351,1.086-0.769
			c0.841-0.494,1.865-1.453,1.771-2.465c0.559-0.067,1.071-0.262,1.488-0.493c0.777-0.431,1.053-1.274,1.673-1.598
			c0.82-0.427,1.963,0.07,2.84-0.11c1.034-0.212,0.695-0.484,1.562-1.056c0.753-0.497,1.433-0.108,2.16-0.34
			c0.896-0.286,1.104-0.927,2.054-0.815c1.667,0.196,2.261,1.41,4.029,0.704c3.221-1.286,0.125-3.328-1.799-4.135
			c-1.792-0.75-1.793,0.8-3.232,0.915c-0.935,0.075-1.991-1.261-3.035-0.482c-0.484,0.361-0.363,1.407-0.879,1.717
			c-0.754,0.455-1.58-0.413-2.341-0.341C1341.461,31.528,1340.709,32.22,1340.404,32.935z"/>
		<path fill="#333333" d="M1364.396,33.429c-1.308-0.321-1.339-1.798-2.206-2.528c-0.568-0.477-1.242-0.608-1.973-0.592
			c-1.387,0.03-2.701,2.083-1.908,3c0.588,0.682,1.316,0.603,2.138,0.548c1.368-0.091,0.784-0.429,1.468,0.652
			c0.543,0.858,0.765,1.231,1.878,1.518c0.468,0.121,0.323,0.243,0.851,0.275c0.952,0.058,1.008-0.525,1.74,0.142
			c0.684,0.622,0.376,1.473,0.502,2.259c0.164,1.033,0.547,1.818,1.389,2.43c1.457,1.059,2.098,0.794,2.182,2.538
			c0.031,0.657,0.088,1.267,0.198,1.821c0.274,1.379,0.132,2.77,0.38,4.279c0.145,0.884,0.105,2.138,0.357,3.088
			c0.186,0.694,0.717,0.893,0.896,1.403c0.207,0.593-0.144,2.83,1.234,1.802c0.931-0.695,0.197-2.698-0.073-3.385
			c-0.601-1.529-0.062-2.049,0.112-3.572c0.213-1.857-0.728-4.194-1.052-6c-0.299-1.664-1.233-1.873-1.903-3.163
			c-0.703-1.356-0.096-3.624-1.617-4.467c-0.504-0.279-1.162,0.031-1.635-0.21c-0.675-0.343-0.697-1.193-1.197-1.61
			C1365.379,33.008,1365.202,33.627,1364.396,33.429z"/>
		<path fill="#333333" d="M1336.563,95.997c-0.285,0.271-0.277-3.23-0.273-3.389c0.025-0.873,0.03-2.027-0.862-2.461
			c-0.105,0.617,0.11,1.219,0.155,1.852c0.117,1.631,0.062,3.354-0.195,4.969c-0.367,2.305-2.158,4.64-1.878,6.99
			c1.609-0.793,1.822-4.61,3.061-5.895c0.069,0.854-0.409,3.498,0.511,3.754c0.252-0.578,0.174-1.539,0.266-2.21
			c0.113-0.825,0.434-1.515,0.658-2.18c0.48-1.42,0.395-3.151,0.285-4.671C1337.356,93.259,1337.447,95.159,1336.563,95.997z"/>
		<path fill="#333333" d="M1369.352,90.718c0.189,1.555,0,3.258,0,4.822c0,1.551,0.105,2.689,0.586,4.072
			c0.609,1.758,0.506,3.514,0.506,5.461c0,1.124,0.361,2.984-0.035,4.005c-0.773,1.997-0.9-0.61-0.9-1.517
			c0-2.92-0.984-5.352-1.59-8.098c-0.811,0.435,0.254,2.307-0.749,2.97c-0.854-0.638-0.196-3.662-0.464-4.702
			c-0.424-1.645-1.986-2.738-1.697-4.653c0.643,0.071,1.492,3.497,2.281,1.972c0.465-0.898-1.787-3.357,0.012-3.848
			c0.137-0.037,0.004,2.156,1.07,1.094c0.693-0.691-0.143-2.857-0.088-3.737c0.16-0.023,0.268-0.006,0.422,0.001
			C1368.699,89.229,1369.266,90.01,1369.352,90.718z"/>
		<path opacity="0.15" d="M1383.512,153.262c-0.049-0.785-0.072-1.566-0.072-2.338c0-5.066-0.404-10.737,0.296-15.739
			c0.468-3.339,4.228-7.647,0.714-10.586c-0.829-0.692-3.299-2.429-4.458-1.913c-1.718,0.764-0.882,4.256-0.875,5.854
			c0.029,6.49,0.104,12.988-0.343,19.469c-0.824,11.95,0.432,23.789-5.391,34.936c-2.482,4.753-5.566,7.301-6.18,13.021
			c-0.416,3.873,0.638,6.902,1.361,10.607c0.831,4.248-0.243,7.805-0.76,11.942c-0.413,3.313,0.357,6.093,4.303,5.742
			c2.988-0.267,7.016-2.428,8.504-5.249c1.589-3.01,0.602-7.958,0.754-11.315c0.197-4.322,0.677-8.673,1.23-12.979
			c0.389-3.02,0.412-6.759,1.16-9.73c1.053-4.181,3.356-7.566,3.351-12.127c-0.006-4.216-0.472-6.582-1.815-10.419
			C1384.276,159.538,1383.702,156.372,1383.512,153.262z"/>
		<path opacity="0.15" d="M1316.7,166.194c-1.143-0.447-1.732,1.576-1.939,4.682c-0.625,9.426,6.556,17.188,5.714,26.949
			c-0.251,2.916-0.541,5.822-1.076,8.688c-0.278,1.49-1.165,3.77-0.813,5.352c0.615,2.777,4.322,5.346,6.352,7.199
			c1.576,1.439,4.119,3.879,6.424,3.621c3.066-0.344,2.222-1.549,1.658-3.434c-1.646-5.502-5.183-11.387-5.67-17.191
			c-0.418-4.984,2.514-9.178,2.818-13.951c0.301-4.693-3.051-6.607-5.855-10.008c-2.707-3.287-3.811-6.305-5.693-9.639
			C1317.852,167.108,1317.219,166.395,1316.7,166.194z"/>
		<path opacity="0.15" d="M1327.034,128.574c1.115,7.229,4.279,15.2,7.59,21.81c2.59,5.168,4.99,10.538,7.557,15.766
			c1.033,2.104,1.783,3.863,3.427,5.525c1.08,1.093,2.686,2.041,3.406,3.412c0.744-0.933,2.073-5.337,2.176-6.747
			c0.181-2.479-1.885-4.548-3.416-6.683c-3.616-5.041-6.966-9.602-9.747-15.398c-2.826-5.888-6.314-10.959-7.408-17.238
			c-0.472-2.707-1.031-5.207-0.844-8.037c0.151-2.287,1.199-3.84,1.633-6.007c0.107-0.536-3.318,1.833-3.592,2.178
			C1325.643,119.887,1326.532,125.319,1327.034,128.574z"/>
		<path opacity="0.15" d="M1374.44,126.581c0.02,7.865-2.527,15.354-4.945,22.738c-2.086,6.367-6.193,10.813-9.889,16.305
			c-1.537,2.285-2.93,4.148-4.499,6.402c-1.136,1.631-3.703,2.99-4.008,5.122c0.04-4.255,1.306-8.295,2.767-12.407
			c1.314-3.699,3.734-6.17,5.797-9.289c2.549-3.854,4.162-9.021,6.123-13.23c4.061-8.716,5.704-17.095,6.371-26.596
			C1376.714,116.854,1374.433,123.522,1374.44,126.581z"/>
		<path opacity="0.15" d="M1407.071,161.141c-1.749-8.891-3.701-17.815-8.365-25.735c-1.173-1.989-4.82-5.902-7.216-5.763
			c-0.481,5.011,1.964,9.369,3.698,13.875c1.438,3.734,2.758,7.316,3.85,11.156c1.39,4.888,3.578,9.335,4.576,14.348
			c0.869,4.361,1.41,7.881,0.492,12.303c-0.439,2.12-1.359,4.491-1.592,6.413c-0.442,3.634,1.011,3.218,3.926,3.52
			c2.841,0.294,5.834,4.534,7.749,0.415c0.761-1.641,0.062-3.473-0.424-5.09c-1.106-3.679-2.647-7.474-3.649-11.264
			C1408.898,170.712,1408.014,165.93,1407.071,161.141z"/>
		<path opacity="0.1" d="M1360.879,124.798c4.492,1.53,7.366-8.555,6.605-8.668c-1.287-0.192-1.725,1.686-2.868,2.225
			c-1.442,0.68-3.951,0.557-5.556,0.449c-0.408-1.311,0.695-1.326,1.136-2.275c0.815-1.759-0.001-2.695-2.55-3.043
			c-2.158-0.296-8.129,2.251-9.616,0.069c-1.024,0.315-1.188,1.387-0.706,2.286c0.664,1.239,2.27,1.072,3.441,1.006
			c2.369-0.133,3.078,0.291,5.22,0.788c1.319,5.532-7.66,0.586-9.452,0.439c-0.957-0.078-2.072,0.229-3.01,0.017
			c-0.913-0.205-1.449-0.988-2.462-0.967c-0.515,1.627,1.769,3.452,3.136,4.029c2.945,1.243,6.525,0.163,9.509,1.189
			c1.54,0.529,3.144,0.332,4.622,0.744C1359.424,123.391,1359.973,124.488,1360.879,124.798z"/>
		<path opacity="0.1" d="M1343.35,127.341c1.574,0.182,10.001,2.719,8.902-1.712c-3.829-0.125-7.432-0.544-10.484-2.726
			c-1.478-1.057-2.356-2.844-3.908-3.841c-0.758-0.487-2.658-0.956-3.49-0.449c-1.375,0.837-0.589,2.636-0.023,3.954
			C1335.886,126.159,1339.817,126.931,1343.35,127.341z"/>
	</g>
</g>
</svg>
