<?xml version="1.0" encoding="utf-8"?>
<!-- Generator: Adobe Illustrator 16.0.0, SVG Export Plug-In . SVG Version: 6.00 Build 0)  -->
<!DOCTYPE svg PUBLIC "-//W3C//DTD SVG 1.1//EN" "http://www.w3.org/Graphics/SVG/1.1/DTD/svg11.dtd">
<svg version="1.1" id="Layer_1" xmlns="http://www.w3.org/2000/svg" xmlns:xlink="http://www.w3.org/1999/xlink" x="0px" y="0px"
	 width="169.785px" height="170.857px" viewBox="2117.787 0 169.785 170.857" enable-background="new 2117.787 0 169.785 170.857"
	 xml:space="preserve">
<g>
	<defs>
		<circle id="XMLID_11_" cx="2202.679" cy="85.428" r="78.717"/>
	</defs>
	<use xlink:href="#XMLID_11_"  overflow="visible" fill="#F4F4F4"/>
	<clipPath id="XMLID_16_">
		<use xlink:href="#XMLID_11_"  overflow="visible"/>
	</clipPath>
	<g clip-path="url(#XMLID_16_)">
		<path fill="#FFFFFF" stroke="#BCBEC0" stroke-width="2" stroke-miterlimit="10" d="M2201.199,114.137
			c-3.51-0.21-7.617-2.389-10.752-3.931c-2.58-1.268-7.215-2.624-8.049-5.645c-0.195-0.705-0.846-2.162-0.893-2.898
			c-1.957-0.628-0.734,4.028-0.675,5.084c0.085,1.486-0.846,2.494-1.319,3.982c-0.072,0.223-2.49,3.557-2.801,3.242
			c4.035,4.101,9.064,10.834,10.854,16.442c2.354-2.763,3.478-7.442,5.833-10.485
			C2195.496,117.219,2198.714,116.066,2201.199,114.137z"/>
		<path fill="#FFFFFF" stroke="#BCBEC0" stroke-width="2" stroke-miterlimit="10" d="M2201.199,114.137
			c1.578-1.726,6.832-2.896,8.719-4.333c0.958-0.73,1.383-1.217,2.518-1.719c1.408-0.623,2.76-1.447,4.094-2.212
			c1.48-0.847,3.431-3.274,3.555-4.88c2.188-0.69,0.316,5.219,0.314,6.42c-0.002,1.221,0.039,2.448,0.523,3.537
			c0.213,0.479,0.539,0.742,0.754,1.183c0.426,0.872,0.23,0.419-0.008,1.173c-0.573,1.821-1.423,3.669-2.318,5.342
			c-1.191,2.226-2.071,4.564-3.242,6.975c-1.026,2.115-2.34,3.804-3.445,5.867c0.044-2.637-1.173-5.562-2.836-7.71
			c-0.399-0.515-0.931-0.827-1.321-1.489c-0.731-1.24-1.22-2.629-1.968-3.862C2205.349,116.47,2202.833,115.73,2201.199,114.137z"/>
		<g>
			<path fill="#FFFFFF" stroke="#BCBEC0" stroke-width="2" stroke-miterlimit="10" d="M2272.251,127.642
				c2.015,2.169,4.074,7.197,4.694,9.789c0.825,3.445,1.132,7.35,2.271,10.654c1.078,3.127,2.122,6.699,2.329,10.144
				c0.284,4.726,1.409,9.058,2.195,13.748c0.568,3.396,1.301,7.272,2.128,10.452c0.992,3.82,0.283,8.6,0.533,12.539
				c0.66,10.418-1.395,18.196-12.606,20.811c-2.407,0.562-6.458,1.218-9.01,0.54c-5.528-1.468-8.028-10.841-9.181-15.551
				c-0.6-2.45-1.387-4.722-1.691-7.225c-0.488-4.019-1.175-8.338-0.119-12.009c0.744-2.589,1.436-5.421,2.35-7.945
				c0.733-2.027,2.145-4.256,2.832-6.5c1.363-4.449,1.473-9.307,1.473-14.073c0-5.789-1.879-11.384-2.015-17.161
				c-0.05-2.14,0.523-4.521,1.124-6.555c0.975-3.291,1.571-3.592,4.772-3.654c2.284-0.045,5.71,0.086,7.539,1.631
				C2272,127.387,2272.127,127.51,2272.251,127.642z"/>
			<path fill="#FFFFFF" stroke="#BCBEC0" stroke-width="2" stroke-miterlimit="10" d="M2137.502,126.099
				c-2.233,0.086-4.327,4.273-5.396,5.984c-0.816,1.307-1.18,1.389-1.341,2.918c-0.452,4.273-0.87,8.565-1.774,12.793
				c-0.494,2.303-0.641,4.746-1.148,7.201c-0.525,2.549-1.014,5.305-1.312,7.91c-0.874,7.602-3.094,14.881-3.094,22.637
				c0,11.01-6.241,31.053,9.484,33.225c9.047,1.249,15.259-2.404,17.427-11.185c1.259-5.099,1.927-9.657,2.188-14.796
				c0.239-4.66,0.588-9.631,0.061-14.295c-0.303-2.68-0.758-5.338-1.023-8.031c-0.21-2.125-1.027-4.203-1.231-6.275
				c-0.345-3.492,0.743-6.707,1.29-9.963c0.819-4.877-1.139-9.138-2.678-13.672c-0.683-2.01-1.448-4.143-2.413-6.203
				C2144.617,130.238,2142.726,125.902,2137.502,126.099z"/>
			<path fill="#FFFFFF" stroke="#BCBEC0" stroke-width="2" stroke-miterlimit="10" d="M2200.185,111.708
				c11.451-1.088,22.844,0.214,34.207,1.405c5.768,0.605,11.558,3.15,16.838,6.076c2.73,1.514,5.448,1.361,8.016,2.512
				c2.227,0.997,3.296,2.693,6.211,3.514c0.855,2.812-2.284,7.891-2.825,10.586c-0.901,4.49-0.485,9.444-0.485,14.09
				c0,5.268,0.238,10.66-0.459,15.847c-0.773,5.749-3.577,9.131-5.752,14.208c-3.602,8.406-2.647,19.341-3.976,29.193
				c-0.751,5.571-2.925,10.274-2.908,15.891c0.015,5.224,2.438,7.253-0.628,11.475c-6.9,9.503-17.017,14.104-28.5,13.289
				c-8.985-0.637-17.016-0.152-26.098,0.389c-4.854,0.289-11.705,1.182-16.377-0.001c-4.922-1.246-9.338-5.286-13.25-8.25
				c-9.895-7.498-2.361-14.319-4.362-23.707c-0.702-3.294-1.763-5.796-1.966-9.138c-0.271-4.512-1.68-6.273-3.514-10.213
				c-1.59-3.411-1.465-7.018-1.929-10.726c-0.723-5.791-2.722-11.149-3.661-16.888c-1.467-8.973,1.447-19.775-1.821-28.357
				c-1.104-2.898-2.805-5.605-4.476-8.213c-1.459-2.275-2.459-5.91-4.072-7.606c1.756-3.013,4.357-3.187,7.252-2.935
				c0.268,0.023,1.765-0.564,2.133-0.574c0.777-0.02,1.506-0.742,1.965-0.75c1.391-0.027,1.789-2.973,3.711-1.494
				c2.621-1.723,3.312-2.084,5.976-3.379c4.34-2.107,9.116-2.725,13.786-3.693c5.086-1.055,9.455-1.648,14.703-1.631
				c3.605,0.013,7.088-0.337,10.574-0.741C2199.06,111.82,2199.623,111.761,2200.185,111.708z"/>
		</g>
		<path opacity="0.1" fill="#231F20" d="M2273.773,142.614c0.766,3.716,0.523,7.979,1.443,11.552
			c0.562,2.184,2.442,3.495,3.314,5.143c2.735,5.173,2.262,10.533,2.977,16.1c0.924,7.201,0.868,14.693,0.916,21.947
			c0.035,5.301-3.615,10.84-9.484,10.293c0.955-4.986,3.672-6.684,2.656-12.582c-1.311-7.606,1.13-17.18-2.27-24.346
			c-1.023-2.158-3.688-4.166-4.305-6.423c-0.648-2.37-0.085-5.663-0.085-8.138c0-4.58,0.566-9.539,0.012-14.063
			c-0.514-4.191-1.588-7.274,0.126-11.413c0.314-0.758,2.445,3.537,2.516,3.709C2272.57,136.802,2273.242,140.038,2273.773,142.614z
			"/>
		<path opacity="0.1" fill="#231F20" d="M2142.214,211.541c1.191-0.109,2.406-0.715,3.529-1.988
			c1.209-1.371,1.778-5.467,1.968-7.273c0.249-2.377-0.2-5.053,0.409-7.334c0.484-1.809,1.775-2.785,1.518-5.311
			c-0.484-4.73-3.646-7.967-3.903-12.609c-0.49-8.851,1.518-19.523-0.451-28.142c-0.573-2.513-3.481-9.257-5.757-11.061
			c-0.338,4.812,1.189,8.751,1.367,13.503c0.201,5.349,0.233,10.701,0.498,16.007c0.387,7.732-2.821,15.319-3.758,22.975
			c-0.551,4.505-2.845,9.52-2.357,14.227C2135.655,208.189,2138.839,211.851,2142.214,211.541z"/>
		<path fill="#D7C8AA" stroke="#726658" stroke-miterlimit="10" d="M2178.156,71.372c-0.139-1.552-5.27-11.825-7.207-8.538
			c-0.43,0.728-0.537,2.691-0.637,3.517c-0.065,0.55-0.076,1.396,0.01,1.949c0.184,1.193,1.082,1.778,1.53,2.78
			c0.501,1.121,0.248,2.61,0.248,3.837c0,2.042,0.032,4.032,0.695,5.906c0.685,1.937,4.546,6.776,5.36,2.509"/>
		<path fill="#D7C8AA" stroke="#726658" stroke-miterlimit="10" d="M2224.703,68.162c0.008-0.708,0.424-1.274,0.692-1.929
			c0.339-0.828,0.313-1.95,0.752-2.704c0.208-0.359,0.929-0.983,1.329-1.326c1.389-1.189,1.809-0.64,2.279,0.68
			c0.98,2.753,0.529,7.019-0.994,9.669c-0.9,1.565-1.049,3.217-1.009,5.143c0.024,1.132,0.409,2.803-0.063,3.938
			c-0.307,0.734-2.256,2.533-3.116,2.357c-0.794-0.16-2.224-2.283-2.167-2.936"/>
		<path fill="#D7C8AA" stroke="#726658" stroke-miterlimit="10" d="M2180.99,114.136c1.79-12.205,3.233-20.37,3.233-20.37
			l33.304-0.97l2.909,20.693c0,0-5.495,4.203-18.753,4.203C2188.426,117.693,2180.99,114.136,2180.99,114.136z"/>
		<path fill="#9B8D7C" d="M2176.878,70.412c-0.392-0.474-2.02-2.692-2.918-2.662c-1.441,0.049,0.502,2.501,0.58,3.561
			c0.105,1.454-0.268,3.065,0,4.496c0.209,1.114,2.716,2.867,2.697,1.08"/>
		<path fill="#9B8D7C" d="M2224.47,70.412c0.391-0.474,2.018-2.692,2.917-2.662c1.442,0.049-0.502,2.501-0.579,3.561
			c-0.105,1.454,0.268,3.065,0,4.496c-0.209,1.114-2.717,2.867-2.697,1.08"/>
		<path fill="#C2AE92" d="M2210.255,103.252c-2.123,0.934-5.544,1.783-7.297,3.159c-1.589,1.247-1.26,3.149-1.357,4.97
			c-0.057,1.043-0.707,5.469,0.642,6.02c0.644,0.262,5.198-2.541,6.075-2.988c2.617-1.33,5.156-3.127,7.268-5.111
			c2.045-1.922,2.1-2.395,1.941-5.032c-0.061-1.017,0.117-1.946-0.256-2.903c-0.594-1.524-0.156-1.057-1.619-0.668
			C2213.658,101.226,2212.112,102.433,2210.255,103.252z"/>
		<path fill="#D7C8AA" stroke="#726658" stroke-miterlimit="10" d="M2200.691,107.829c0,0,1.44,0.485,4.107-0.242
			c2.668-0.728,16.109-9.155,18.188-11.883c1.295-1.697-0.484-1.05,1.455-28.615c2.225-31.604-8.729-36.618-23.765-36.618
			s-26.731,5.075-23.765,36.618c2.426,25.786-0.162,26.594,1.455,28.615c2.142,2.679,15.52,11.155,18.188,11.883
			C2199.221,108.314,2200.691,107.829,2200.691,107.829"/>
		<path fill="#6D6E71" stroke="#58595B" stroke-miterlimit="10" d="M2177.574,75.599c-0.072-2.829,0.801-2.832,0.737-5.684
			c-0.068-3.048-0.097-6.124,0.446-9.136c0.808-4.468,2.222-8.865,2.883-13.343c0.309-2.093,0.32-4.28,0.32-6.409
			c0-1.653-0.162-1.903-1.779-4.005c-1.103-1.434-1.869,1.033-2.914,2.247c-1.073,1.246-2.623,1.072-3.436,2.562
			c-0.83,1.521-0.146,2.958-0.631,4.607c-0.277,0.949-0.932,1.334-1.106,2.392c-0.192,1.168,0.004,2.532,0.004,3.715
			c0,2.419-0.263,5.019,0,7.429c0.216,1.978,2.429,4.263,3.157,6.18c0.606,1.598,1.084,3.242,1.443,4.912
			C2176.812,71.595,2176.685,73.477,2177.574,75.599z"/>
		<path fill="#6D6E71" stroke="#58595B" stroke-miterlimit="10" d="M2182.603,38.498c2.789-1.009,7.022-2.661,9.906-3.456
			c3.058-0.843,6.926-2.766,10.304-2.227c2.597,0.414,4.322,3.883,5.847,5.667c2.102,2.459,5.518,4.066,8.547,4.683
			c1.339,0.273,2.99,0.693,3.068,2.264c0.049,0.96-0.436,1.693-0.605,2.703c-0.208,1.229-0.201,2.369-0.203,3.618
			c-0.004,3.071,4.317,6.169,4.494,9.188c0.102,1.718-0.068,3.463,0.037,5.185c0.061,0.986,0.133,2.011,0.179,3.028
			c1.452-3.282,2.149-5.075,3.86-8.361c0.586-1.125-1.381-4.408-1.133-5.66c0.395-1.994-0.084-2.707,0.371-4.706
			c0.531-2.33,0.309-4.587-0.893-6.62c-0.859-1.453-2.582-2.421-3.508-3.839c0.422-0.103,0.83-0.175,1.26-0.223
			c-0.214-1.575-3.229-2.868-4.367-3.571c-2.681-1.655-5.123-4.453-7.84-5.756c-1.206-0.579-3.507-1.366-4.793-1.342
			c-0.484,0.009-0.811,0.392-1.381,0.355c-0.812-0.053-1.787-0.883-2.453-1.144c-2.994-1.173-6.266,0.838-9.207,1.172
			c-0.229,1.291-2.529,0.838-3.623,1.216c-0.945,0.327-1.707,0.96-2.758,1.14c-1.293,0.222-2.676,0.396-3.861,0.994
			c-1.123,0.566-2.837,2.655-3.916,3.293C2180.562,37.04,2181.707,37.813,2182.603,38.498z"/>
		<path fill="#FFFFFF" stroke="#231F20" stroke-width="0.5" stroke-miterlimit="10" d="M2189.154,65.051
			c0.939-0.253,3.389-0.675,4.49-0.104c1.01,0.524,0.936,2.689,1.221,3.648c0.189,0.63-12.576,2.049-8.643,1.626
			c-0.773,0.082-1.434,0.346-1.541-0.483c-0.121-0.924,0.111-2.038,0.774-2.748C2186.691,65.669,2187.529,65.488,2189.154,65.051z"
			/>
		<path fill="#58595B" d="M2187.715,62.433c3.502-1.619,5.427-0.645,7.705,0.252c0.321-2.521-1.376-3.934-2.727-4.261
			c-1.662-0.401-2.679,0.296-4.237,0.923c-2.3,0.926-5.091,4.206-6.635,6.962C2182.877,66.952,2186.056,63.202,2187.715,62.433z"/>
		<path fill="#231F20" stroke="#8B5E3C" stroke-miterlimit="10" d="M2191.921,64.883c0.221,0.874,0.002,1.697-0.455,2.315
			c-0.352,0.472-0.927,0.995-1.535,1.053c-0.668,0.063-1.365-0.195-1.865-0.545c-0.234-0.163-0.428-0.551-0.551-0.808
			c-0.137-0.282-0.192-0.619-0.219-0.944c-0.014-0.157,0.016-0.33-0.02-0.477"/>
		<path fill="#FFFFFF" d="M2188.137,66.992c-0.612-0.449,0.068-1.287,0.601-0.896C2189.29,66.5,2188.787,67.468,2188.137,66.992z"/>
		<path fill="#A7A9AC" d="M2180.304,44.627c0.076,1.119-0.626,2.377-1.06,3.391c-0.11,0.26-0.334,0.75-0.486,0.97
			c-0.231,0.334-0.653,0.467-0.765,0.933c0.031-1.501,0.275-2.982,0.582-4.461c0.332-1.607,1.146-3.742,1.002-5.23
			c-0.074,1.271-1.46,2.929-1.973,4.171c-0.424,1.027-0.66,2.397-1.276,3.244c0.28-0.384-0.011-2.385,0.098-2.977
			c0.157-0.859,0.452-1.667,0.489-2.551c-1.615,1.263-2.272,3.387-2.406,5.357c-0.087,1.291-0.983,2.345-0.996,3.602
			c-0.021,1.968,0,3.937,0,5.905c0,1.555-0.222,2.989,0.695,4.16c0.74,0.946,2.775,3.066,2.699,4.353
			c0.014-3.701,1.537-7.187,1.99-10.83c0.176-1.409,0.721-2.639,0.951-4.026C2180.177,48.669,2180.288,46.621,2180.304,44.627z"/>
		<path fill="#A7A9AC" d="M2208.093,34.314c0.457,0.695,0.908,1.276,1.42,1.918c0.963,1.208,1.724,2.812,3.152,3.574
			c3.09,1.649,8.958,2.281,9.132,6.743c0.86-1.125-0.243-2.932-0.88-3.816c-0.6-0.833-1.393-1.598-2.151-2.358
			c-0.616-0.617-1.567-0.814-2.078-1.43c0.71-0.101,1.646,0.218,2.417,0.218c0.674,0,1.395-0.081,2.02,0.13
			c-0.836-0.525-1.32-1.365-2.291-1.83c-1.406-0.673-2.439-1.54-3.62-2.61c-0.737-0.669-1.37-1.527-2.206-2.126
			c-0.91-0.65-1.906-0.888-2.87-1.438c0.194,0.635,0.704,1.123,0.989,1.664c0.32,0.605,0.562,1.237,0.783,1.842
			c-2.164-1.418-4.378-3.678-6.979-3.806C2206.058,32.004,2207.251,33.035,2208.093,34.314z"/>
		<path fill="#A7A9AC" d="M2187.335,35.5c1.457-0.501,2.927-1.149,4.444-1.645c3.016-0.985,6.644-2.193,9.941-2.075
			c-1.577-2.03-5.21-1.053-7.241-0.352c-1.484,0.512-2.881,1.083-4.231,1.679c-1.213,0.536-2.485,0.613-3.723,0.855
			c0.368-0.291,0.656-0.706,0.888-1.108c-0.017,0.029-1.205,0.245-1.373,0.327c-0.455,0.224-0.823,0.579-1.201,0.909
			c-0.791,0.692-1.446,1.338-2.441,1.691C2184.247,36.275,2185.545,36.116,2187.335,35.5z"/>
		<path fill="#C2AE92" d="M2196.005,86.676c0.958,0.437,2.105,0.628,3.107,0.98c0.699,0.246,1.442,0.578,2.16,0.699
			c0.789,0.134,1.774,0.439,2.59,0.32c0.723-0.105,1.004-0.469,1.51-0.906c1.238-1.066,3.059-1.141,3.912-2.658
			c0.955-1.701,0.455-3.9,0.838-5.775c0.402-1.967,1.135-3.825,3.084-4.709c1.181-0.535,2.243-0.932,3.539-1.167
			c1.192-0.217,2.498-0.174,3.064-1.324c0.537-1.09,1.012-2.644,1.113-3.842c0.128-1.52-0.871-2.394-1.829-3.412
			c-1.255-1.333-2.407-1.856-4-2.709c-2.314-1.239-3.502-2.743-6.354-2.045c-4.256,1.041-5.5,6.553-5.483,10.305
			c0.015,3.247,0,6.494,0,9.74c0,1.324,0.702,4.045-0.498,5.002c-1.571,1.252-4.177-0.073-5.599-0.847
			c-0.89-0.483-2.783-0.993-3.351,0.325C2193.381,85.646,2195.326,86.367,2196.005,86.676z"/>
		<path fill="#A7A9AC" d="M2223.564,53.219c0.004-0.327-1.356-1.668-1.578-2.083c-0.323-0.608-0.636-1.27-0.916-1.899
			c-0.178,1.767,0.146,3.736,1.125,5.234c0.533,0.817,1.215,1.37,1.637,2.277c0.329,0.708,0.615,1.532,0.838,2.255
			c1.955-1.976,1.088-5.447,1.223-8.078c0.06-1.153,0.488-2.687-0.023-3.755c-0.463-0.966-1.662-2.094-2.471-2.78
			c0.102,0.682,0.705,1.171,1.006,1.806c0.375,0.791,0.543,1.715,0.631,2.578c0.087,0.861-0.383,2.115-0.24,2.843
			c-0.217-1.104-1.365-2.824-2.303-3.562C2222.576,49.761,2223.589,51.497,2223.564,53.219z"/>
		<path fill="#726658" d="M2195.903,84.511c-0.615-0.063-2.491,0.668-2.286-0.672c0.119-0.771,1.496-1.092,2.087-0.863
			c1.247,0.48,2.392,1.265,3.681,1.781c1.342,0.539,2.208,0.549,3.592-0.242c1.101-0.627,1.926-1.691,3.197-2.069
			c1.521-0.452,2.586,0.653,0.684,1.302c-0.662,0.225-1.074,0.137-1.727,0.525c-0.703,0.418-1.201,0.951-1.924,1.494
			C2200.429,87.852,2198.748,84.808,2195.903,84.511z"/>
		<path fill="#726658" d="M2208.261,92.072c0.275-0.18,0.569-0.316,0.779-0.231c1.158,0.472-1.322,2.339-1.779,2.491
			c-0.631,0.211-1.047,0.071-1.678,0.122c-0.896,0.072-1.691,0.111-2.607,0.121c-1.113,0.013-1.887,0.093-2.99,0
			c-1.385-0.117-2.648-0.112-4.042-0.304c-0.823-0.112-1.776-0.819-2.472-0.718c-0.543,0.079-1.106,0.757-1.148-0.271
			c-0.012-0.294,0.257-1.015,0.508-1.198c1.02-0.746,2.72,0.979,3.734,1.111c1.559,0.201,3.248,0.057,4.822,0.084
			c1.498,0.027,2.928,0.027,4.354-0.121c0.714-0.074,1.279-0.248,1.876-0.627c0.99-0.627,0.334-0.557,0.463-1.422
			c1.3-0.108,1.755,1.555,1.348,2.648c-0.424,0.127-0.447-0.268-0.713-0.476"/>
		<path fill="#C2AE92" d="M2200.551,87.301c-1.573-0.414-1.781,4.621,0.448,4.086c0.064-1.024,0.037-2.08,0.037-3.117"/>
		<path fill="none" stroke="#726658" stroke-width="0.5" stroke-miterlimit="10" d="M2189.154,65.051
			c0.939-0.253,3.389-0.675,4.49-0.104c1.01,0.524,0.936,2.689,1.221,3.648c0.189,0.63-12.576,2.049-8.643,1.626
			c-0.773,0.082-1.434,0.346-1.541-0.483c-0.121-0.924,0.111-2.038,0.774-2.748C2186.691,65.669,2187.529,65.488,2189.154,65.051z"
			/>
		<path opacity="0.1" fill="#231F20" d="M2177.328,177.679c0.606,3.274,2.526,9.148,2.02,12.471
			c-0.25,1.636-2.281,2.506-1.996,4.746c7.088,0.334,1.945,6.012,3.759,9.795c0.972,2.025,5.227,4.062,6.665,6.346
			c1.621,2.572,2.091,3.867,4.345,5.726c0.755-2.978-0.919-4.884-1.259-7.235c-0.479-3.299-0.049-7.219-0.004-10.514
			c0.122-8.851,1.982-17.291,3.406-25.857c0.686-4.124,1.166-7.692,0.947-12.138c-0.188-3.796,2.301-6.741,1.39-10.101
			c-6.332-1.768-12.655-2.854-19.249-2.436c-0.143,0.734-0.087,1.127,0.12,1.781c4.534,0.947,4.004,2.77,5.13,6.293
			c0.318,1,2.25,1.076,1.983,2.534c-0.288,1.572-3.638,1.689-4.882,1.926c-2.94,0.559-6.204,1.108-9.1,1.484
			c-3.098,0.394-6.26-1.362-9.232-0.128C2166.018,167.908,2175.882,169.886,2177.328,177.679z"/>
		<path opacity="0.1" fill="#231F20" d="M2220.89,114.066c-0.025,0.079-14.631,4.205-15.965,4.395
			c-5.639,0.797-11.527-1.789-17.074-2.712c-3.117-0.519-8.087-1.802-8.771,2.322c-0.635,3.825,4.691,9.997,6.57,13.108
			c0.504,0.836,2.221,5.096,3.249,5.162c1.546,0.1,3.944-3.882,5.737-4.42c3.292-0.988,2.666,0.016,4.837,2.18
			c0.306,0.305,0.063,1.088,0.424,1.477c0.573,0.621,1.884,0.407,2.134,0.694c0.591,0.678,1.249,1.362,1.928,2.45
			c3.098,4.967,2.496,12.09,4.486,17.443c1.516-3.971-0.222-9.514,0.301-13.902c0.311-2.607,0.859-4.814,2.476-6.514
			c1.077-1.131,2.519-0.363,3.747-2.316c1.955-3.105,1.799-8.312,3.029-11.712C2218.971,119.031,2220.013,116.804,2220.89,114.066z"
			/>
		<path opacity="0.1" fill="#231F20" d="M2258.429,126.924c-0.4-0.812-6.258-3.273-7.553-4.057
			c-3.205-1.939-6.809-2.723-10.166-4.312c-4.609-2.186-10.212-2.739-15.222-2c0.054,3.047,4.539,4.74,6.528,6.812
			c2.537,2.643,4.889,6.365,5.393,10.037c0.94,6.865-0.8,13.035-1.369,19.705c3.311,0.273,11.604-1.957,13.412,2.093
			c3.21,7.196-11.634,2.579-12.975,6.558c3.143,1.734,8.439-0.687,11.02,2.513c2.176,2.698,0.576,10.991-0.162,13.921
			c-1.055,4.18-0.763,10.066-4.285,11.416c-3.836,1.468-10.281,1.891-14.296,2.043c-0.362,4.287,0.112,8.71,0.387,13.001
			c0.534,8.358,2.144,18.763-1.782,26.315c-2.036,3.918-8.393,7.138-8.787,11.461c5.898,1.602,7.793-1.387,12.767-3.455
			c4.216-1.755,6.95-2.283,9.588-6.685c2.989-4.987,1.72-11.972,3.19-17.977c1.381-5.632,2.871-11.122,4.279-16.844
			c1.731-7.044,1.571-14.503,4.17-21.278c2.425-6.32,5.713-11.438,6.184-18.566c0.344-5.203-1.191-9.311-1.453-14.638
			c-0.166-3.392-0.094-6.982,0.484-10.086C2258.145,130.95,2259.379,128.859,2258.429,126.924z"/>
		<path fill="#698587" stroke="#6D6E71" stroke-miterlimit="10" d="M2208.927,216.365c-0.219,6.246-7.537,9.945-9.123,15.695
			c-2.008-1.629-3.014-5.042-4.088-7.32c-1.254-2.662-3.02-4.754-4.707-7.166c-1.961-2.807-1.975-3.641-1.701-7.262
			c0.504-6.679,1.004-13.268,1.396-20.041c0.664-11.447,3.646-22.539,3.912-34.022c0.035-1.503,0.074-2.958,0.309-4.402
			c0.506-3.118,0.791-4.196,1.451-7.31c0.211-0.992,1.098-3.193,1.01-5.617c1.076-10.474-0.744-14.581,4.354-13.747
			c0.445,2.887-0.238,11.306,0.762,14.13c1.117,3.156,1.199,6.467,1.32,9.802c0.248,6.82,1.188,13.609,1.764,20.411
			c0.355,4.178,1.447,8.005,1.604,12.238c0.24,6.598,0.719,13.179,0.959,19.783C2208.326,206.469,2209.101,211.431,2208.927,216.365
			z"/>
		<path fill="#698587" stroke="#6D6E71" stroke-miterlimit="10" d="M2196.356,241.465c-1.587-1.448-2.915-3.148-4.46-4.637
			c-0.328-0.316-3.449-2.755-3.438-2.864c0.562-5.578,2.651-11.017,2.879-16.647c0.1-2.48,0.242-5.002,0.242-7.548
			c0-6.589,1.28-13.279,1.71-19.818c0.267-4.054-0.012-8.04,0.405-12.101c0.552-5.365,1.228-10.661,1.576-15.977
			c0.467-7.109,1.49-14.351,1.898-21.503c0.151-2.636,1.015-12.014,1.432-14.519c0.565-3.404,1.285-2.93,4.341-2.82
			c0.948,4.154,0.721,14.809,1.242,19.068c0.891,7.281,2.688,14.433,3.709,21.738c0.803,5.75,0.77,11.717,1.4,17.525
			c0.845,7.759,1.858,15.59,3.131,23.238c0.964,5.799,3.211,11.734,4.388,17.27c0.418,1.963,0.926,4.348,1.218,6.325
			c0.261,1.763,0.48,3.965-0.32,5.312c-3.035,5.102-8.164,9.252-12.496,13.189c-1.188,1.08-0.895,1.148-2.29,0.658
			C2200.379,246.462,2198.317,243.254,2196.356,241.465z"/>
		<path fill="#698587" stroke="#6D6E71" stroke-miterlimit="10" d="M2204.722,127.076c2.613-3.305,7.275-9.584,0.668-12.006
			c-2.762-1.014-7.832,0.273-10.337,1.64c-1.88,1.026-2.868,1.597-2.321,3.927c0.486,2.079,2.115,4.074,3.495,5.64
			c0.94,1.067,2.603,3.308,3.905,3.893C2202.541,131.25,2203.557,128.549,2204.722,127.076z"/>
		<g>
			<path fill="#FFFFFF" stroke="#BCBEC0" stroke-miterlimit="10" d="M2201.199,114.137c-3.51-0.21-7.617-2.389-10.752-3.931
				c-2.58-1.268-7.215-2.624-8.049-5.645c-0.195-0.705-0.846-2.162-0.893-2.898c-1.957-0.628-0.734,4.028-0.675,5.084
				c0.085,1.486-0.846,2.494-1.319,3.982c-0.072,0.223-2.49,3.557-2.801,3.242c4.035,4.101,9.064,10.834,10.854,16.442
				c2.354-2.763,3.478-7.442,5.833-10.485C2195.496,117.219,2198.714,116.066,2201.199,114.137z"/>
			<path fill="#FFFFFF" stroke="#BCBEC0" stroke-miterlimit="10" d="M2201.199,114.137c1.578-1.726,6.832-2.896,8.719-4.333
				c0.958-0.73,1.383-1.217,2.518-1.719c1.408-0.623,2.76-1.447,4.094-2.212c1.48-0.847,3.431-3.274,3.555-4.88
				c2.188-0.69,0.316,5.219,0.314,6.42c-0.002,1.221,0.039,2.448,0.523,3.537c0.213,0.479,0.539,0.742,0.754,1.183
				c0.426,0.872,0.23,0.419-0.008,1.173c-0.573,1.821-1.423,3.669-2.318,5.342c-1.191,2.226-2.071,4.564-3.242,6.975
				c-1.026,2.115-2.34,3.804-3.445,5.867c0.044-2.637-1.173-5.562-2.836-7.71c-0.399-0.515-0.931-0.827-1.321-1.489
				c-0.731-1.24-1.22-2.629-1.968-3.862C2205.349,116.47,2202.833,115.73,2201.199,114.137z"/>
		</g>
		<g opacity="0.3">
			<path fill="#231F20" d="M2153.484,162.728c-0.063,0-0.129-0.014-0.193-0.045c-0.295-0.141-0.441-0.312-0.516-0.474
				c-0.244-0.021-0.441-0.218-0.457-0.467c-0.018-0.276-0.062-0.671-0.113-1.139c-0.34-3.118-0.551-5.992,0.596-6.912
				c1.008-0.808,3.699-0.537,6.852-0.132c0.659,0.086,1.209,0.157,1.547,0.176c1.77,0.099,3.602,0.064,5.373,0.029
				c0.92-0.018,1.838-0.035,2.751-0.035c5.76,0,11.753,0.243,18.861,0.766c0.249,0.018,0.446,0.217,0.462,0.467l0.025,0.375
				c0.061,0.887,0.128,1.891,0.008,2.779c-0.057,0.418-0.175,0.783-0.289,1.136c-0.184,0.565-0.342,1.055-0.204,1.655
				c0.062,0.27-0.106,0.538-0.376,0.6c-0.274,0.062-0.537-0.107-0.599-0.377c-0.198-0.869,0.028-1.568,0.228-2.186
				c0.105-0.325,0.205-0.633,0.249-0.962c0.104-0.771,0.046-1.697-0.011-2.522c-6.895-0.498-12.737-0.73-18.354-0.73
				c-0.905,0-1.817,0.018-2.731,0.035c-1.789,0.035-3.639,0.072-5.449-0.031c-0.354-0.02-0.929-0.093-1.617-0.182
				c-1.734-0.223-5.342-0.689-6.1-0.08c-0.813,0.652-0.402,4.416-0.227,6.023c0.032,0.288,0.061,0.551,0.082,0.775
				c0.184,0.066,0.355,0.204,0.406,0.488c0.225,0.133,0.346,0.432,0.232,0.667C2153.832,162.611,2153.666,162.728,2153.484,162.728z
				"/>
			<path fill="#231F20" d="M2253.145,158.822c-0.44,0-0.79-0.334-1.075-0.607c-0.123-0.117-0.33-0.314-0.415-0.336
				c-0.274-0.033-0.468-0.281-0.435-0.556c0.032-0.274,0.289-0.474,0.558-0.437c0.375,0.045,0.672,0.31,0.934,0.559
				c0.017-0.418,0.049-0.875,0.083-1.346c0.161-2.265,0.362-5.082-1.13-5.25c-0.497-0.062-1.933,0.193-3.089,0.395
				c-0.846,0.148-1.646,0.287-2.168,0.332c-2.961,0.254-5.67,0.486-8.564,0.486c-0.002,0-0.004,0-0.005,0
				c-1.009,0-2.074-0.047-3.104-0.094c-2.102-0.093-4.273-0.189-6.237,0.089c-0.877,0.124-1.771,0.259-2.678,0.396
				c-2.766,0.416-5.621,0.845-8.517,1.068l-0.004,0.055c-0.1,1.282-0.224,2.879,0.201,3.848c0.111,0.254-0.004,0.549-0.258,0.659
				c-0.254,0.113-0.548-0.004-0.658-0.257c-0.525-1.199-0.391-2.934-0.283-4.328l0.037-0.479c0.017-0.249,0.215-0.447,0.463-0.465
				c3.004-0.209,5.986-0.657,8.869-1.091c0.91-0.137,1.807-0.272,2.688-0.396c2.055-0.29,4.274-0.191,6.421-0.097
				c1.066,0.047,2.073,0.092,3.06,0.092c0.002,0,0.004,0,0.006,0c2.852,0,5.541-0.23,8.387-0.475
				c0.571-0.049,1.35-0.186,2.174-0.328c1.654-0.288,2.783-0.473,3.373-0.404c2.445,0.275,2.207,3.625,2.015,6.314
				c-0.058,0.807-0.112,1.569-0.082,2.121c0.013,0.254-0.165,0.477-0.416,0.52C2253.243,158.818,2253.193,158.822,2253.145,158.822z
				"/>
			<path fill="#231F20" d="M2224.074,160.793c-0.276,0-0.5-0.224-0.5-0.5s0.224-0.5,0.5-0.5c3.158,0,6.359-0.123,9.453-0.242
				c3.098-0.119,6.3-0.243,9.462-0.243c0.276,0,0.5,0.224,0.5,0.5s-0.224,0.5-0.5,0.5c-3.144,0-6.335,0.123-9.423,0.242
				C2230.461,160.67,2227.251,160.793,2224.074,160.793z"/>
			<path fill="#231F20" d="M2160.895,163.217c-1.641,0-3.22-0.133-4.606-0.5c-0.268-0.071-0.426-0.345-0.355-0.611
				c0.07-0.268,0.347-0.424,0.611-0.355c2.949,0.781,6.921,0.433,10.412,0.045c2.838-0.314,5.753-0.309,8.578-0.306l1.01,0.001
				c0.275,0,0.5,0.224,0.5,0.5s-0.225,0.5-0.5,0.5l-1.012-0.001c-2.797-0.008-5.684-0.009-8.466,0.3
				C2165.08,163.01,2162.939,163.217,2160.895,163.217z"/>
			<path fill="#231F20" d="M2176.562,196.552c-3.853,0-10.12-0.639-12.039-1.154c-0.73-0.195-1.514-0.324-2.344-0.461
				c-1.48-0.242-3.012-0.494-4.29-1.162c-1.157-0.605-1.329-0.975-1.521-1.873c-0.041-0.19-0.09-0.416-0.166-0.689
				c-0.385-1.373-0.668-3.262-0.919-4.928c-0.116-0.771-0.228-1.513-0.341-2.16c-0.287-1.619-0.63-3.271-0.962-4.869
				c-0.405-1.945-0.823-3.957-1.149-5.963c-0.127-0.775-0.343-1.549-0.572-2.367c-0.417-1.492-0.849-3.035-0.706-4.615
				c0.024-0.275,0.269-0.475,0.543-0.453c0.274,0.025,0.478,0.268,0.453,0.543c-0.126,1.396,0.28,2.85,0.673,4.256
				c0.227,0.809,0.461,1.646,0.596,2.475c0.324,1.985,0.74,3.986,1.143,5.922c0.333,1.604,0.678,3.264,0.967,4.898
				c0.115,0.655,0.229,1.404,0.346,2.186c0.246,1.638,0.525,3.494,0.893,4.807c0.084,0.298,0.137,0.543,0.181,0.75
				c0.144,0.668,0.161,0.754,1.007,1.196c1.135,0.594,2.585,0.831,3.987,1.062c0.817,0.134,1.663,0.272,2.441,0.481
				c2.25,0.604,11.145,1.416,13.871,1.013c0.28-0.045,0.527,0.15,0.567,0.422c0.041,0.273-0.148,0.527-0.421,0.568
				C2178.248,196.516,2177.472,196.552,2176.562,196.552z"/>
			<path fill="#231F20" d="M2241.046,194.816c-0.849,0-1.686-0.075-2.544-0.152c-1.4-0.126-2.933-0.174-4.492-0.139
				c-1.122,0.025-2.28,0.052-3.417-0.026c-0.86-0.06-1.734-0.083-2.611-0.108c-2.404-0.066-4.892-0.135-7.131-0.943
				c-0.239-0.086-0.443-0.155-0.62-0.215c-1.085-0.368-1.337-0.489-1.977-1.725c-0.624-1.205-0.737-3.387-0.829-5.14
				c-0.031-0.604-0.06-1.16-0.105-1.606c-0.188-1.805-0.28-3.67-0.37-5.475c-0.036-0.705-0.071-1.408-0.11-2.104
				c-0.162-2.785-0.52-5.568-0.866-8.26c-0.228-1.771-0.463-3.604-0.642-5.43c-0.027-0.275,0.174-0.52,0.448-0.547
				c0.278-0.02,0.519,0.175,0.546,0.449c0.178,1.811,0.412,3.635,0.64,5.4c0.348,2.708,0.708,5.51,0.872,8.328
				c0.04,0.699,0.076,1.404,0.111,2.112c0.089,1.791,0.182,3.643,0.365,5.422c0.048,0.46,0.078,1.034,0.11,1.657
				c0.086,1.656,0.192,3.719,0.718,4.732c0.477,0.92,0.477,0.92,1.41,1.236c0.182,0.062,0.393,0.133,0.639,0.222
				c2.088,0.754,4.493,0.82,6.819,0.885c0.89,0.024,1.778,0.05,2.652,0.109c1.09,0.076,2.227,0.05,3.325,0.024
				c1.613-0.038,3.186,0.016,4.604,0.143c1.928,0.174,3.592,0.323,5.511-0.319c1.222-0.409,4.001-2.783,4.507-3.711
				c0.541-0.992,0.728-2.735,0.907-4.422c0.117-1.101,0.228-2.14,0.437-2.964c1.564-6.186,2.676-13.41,2.97-19.327
				c0.023-0.458,0.013-0.94-0.005-1.399c-0.012-0.275,0.203-0.508,0.479-0.52c0.262-0.021,0.509,0.203,0.52,0.479
				c0.025,0.612,0.027,1.072,0.006,1.489c-0.298,5.979-1.419,13.277-3,19.523c-0.191,0.755-0.298,1.76-0.411,2.824
				c-0.19,1.783-0.386,3.627-1.022,4.794c-0.615,1.128-3.596,3.688-5.068,4.181C2243.232,194.693,2242.13,194.816,2241.046,194.816z
				"/>
		</g>
		<path fill="none" stroke="#726658" stroke-linecap="round" stroke-linejoin="round" stroke-miterlimit="10" d="M2184.681,69.739
			c-0.121-0.924,0.111-2.038,0.774-2.748c1.235-1.322,2.073-1.503,3.698-1.94c0.939-0.253,3.389-0.675,4.49-0.104
			c1.01,0.524,0.871,2.479,1.156,3.438"/>
		<path fill="#FFFFFF" stroke="#231F20" stroke-width="0.5" stroke-miterlimit="10" d="M2212.942,65.051
			c-0.939-0.253-3.39-0.675-4.489-0.104c-1.011,0.524-0.938,2.689-1.222,3.648c-0.005,0.017,7.946,1.552,8.644,1.626
			c0.772,0.082,1.433,0.346,1.541-0.483c0.119-0.924-0.112-2.038-0.775-2.748C2215.405,65.669,2214.566,65.488,2212.942,65.051z"/>
		<path fill="#58595B" d="M2214.38,62.433c-3.502-1.619-5.427-0.645-7.705,0.252c-0.321-2.521,1.376-3.934,2.727-4.261
			c1.662-0.401,2.679,0.296,4.237,0.923c2.3,0.926,5.091,4.206,6.635,6.962C2219.218,66.952,2216.04,63.202,2214.38,62.433z"/>
		<path fill="#231F20" stroke="#8B5E3C" stroke-miterlimit="10" d="M2210.174,64.883c-0.221,0.874-0.002,1.697,0.456,2.315
			c0.351,0.472,0.926,0.995,1.535,1.053c0.666,0.063,1.364-0.195,1.864-0.545c0.233-0.163,0.429-0.551,0.552-0.808
			c0.137-0.282,0.191-0.619,0.219-0.944c0.013-0.157-0.018-0.33,0.02-0.477"/>
		<path fill="#FFFFFF" d="M2213.958,66.992c0.611-0.449-0.068-1.287-0.602-0.896C2212.806,66.5,2213.31,67.468,2213.958,66.992z"/>
		<path fill="none" stroke="#726658" stroke-width="0.5" stroke-miterlimit="10" d="M2212.942,65.051
			c-0.939-0.253-3.39-0.675-4.489-0.104c-1.011,0.524-0.938,2.689-1.222,3.648c-0.005,0.017,7.946,1.552,8.644,1.626
			c0.772,0.082,1.433,0.346,1.541-0.483c0.119-0.924-0.112-2.038-0.775-2.748C2215.405,65.669,2214.566,65.488,2212.942,65.051z"/>
		<path fill="none" stroke="#726658" stroke-linecap="round" stroke-linejoin="round" stroke-miterlimit="10" d="M2217.416,69.739
			c0.119-0.924-0.112-2.038-0.775-2.748c-1.235-1.322-2.074-1.503-3.698-1.94c-0.939-0.253-3.39-0.675-4.489-0.104
			c-1.011,0.524-0.872,2.479-1.156,3.438"/>
		<path fill="#C2AE92" d="M2205.443,101.564c-1.73-4.059-8.34-2.441-11.141-0.524c-1.224-3.888,5.836-3.979,8.055-3.851
			c2.913,0.166,5.007,0.967,3.73,4.388C2205.937,101.556,2205.605,101.566,2205.443,101.564z"/>
		<path fill="#698587" stroke="#6D6E71" stroke-miterlimit="10" d="M2177.409,77.931c0.19-1.489-0.038-2.976-1.011-4.178
			c-0.611-0.757-1.531-1.421-2.48-0.81c-0.763,0.491-1.201,1.601-1.278,2.455c-0.071,0.788-0.172,1.574-0.175,2.364
			c-0.003,0.904,0.295,1.732,0.465,2.612c0.245,1.268,0.998,2.343,1.621,3.47c0.468,0.846,0.699,1.774,1.178,2.611
			c0.732,1.279,1.559,2.145,2.865,2.863c0.537,0.295,1.062,0.471,1.67,0.622c0.41,0.103,0.928,0.354,1.332,0.106
			c0.879-0.539,0.328-1.867-0.285-2.33c-0.652-0.492-1.553-0.4-2.266-0.654c-0.738-0.264-1.408-0.438-1.908-1.092
			c-0.553-0.721-0.871-1.592-0.867-2.498c0.004-0.85,0.025-1.689,0.198-2.521C2176.681,79.92,2177.273,78.992,2177.409,77.931z"/>
	</g>
</g>
</svg>
