<?xml version="1.0" encoding="utf-8"?>
<!-- Generator: Adobe Illustrator 16.0.0, SVG Export Plug-In . SVG Version: 6.00 Build 0)  -->
<!DOCTYPE svg PUBLIC "-//W3C//DTD SVG 1.1//EN" "http://www.w3.org/Graphics/SVG/1.1/DTD/svg11.dtd">
<svg version="1.1" id="Layer_1" xmlns="http://www.w3.org/2000/svg" xmlns:xlink="http://www.w3.org/1999/xlink" x="0px" y="0px"
	 width="169.785px" height="170.857px" viewBox="0 0 169.785 170.857" enable-background="new 0 0 169.785 170.857"
	 xml:space="preserve">
<g>
	<g>
		<g>
			<defs>
				<circle id="XMLID_5_" cx="84.893" cy="85.428" r="78.717"/>
			</defs>
			<use xlink:href="#XMLID_5_"  overflow="visible" fill="#F4F4F4"/>
			<clipPath id="XMLID_2_">
				<use xlink:href="#XMLID_5_"  overflow="visible"/>
			</clipPath>
			<path clip-path="url(#XMLID_2_)" fill="#3B2314" stroke="#231F20" stroke-width="1.0868" stroke-miterlimit="10" d="
				M74.613,102.517c-0.223-3.099-2.475-8.785-6.719-8.634c-3.607,0.13-3.346,4.902-5.594,6.609
				c-1.445,1.097-3.983,1.833-4.052,3.957c-3.477,0.824-6.629,3.752-8.732,6.325c-1.21,1.478-2.278,2.802-2.81,4.596
				c-0.224,0.752-0.053,0.999-0.726,1.688c-1.685,1.722-4.297,2.448-6.045,3.913c-2.245,1.878-0.456,7.109-0.538,9.786
				c-0.08,2.601-1.938,7.477-0.137,9.729c0.695,0.869,2.284,1.292,3.162,2.025c0.833,0.696,1.675,1.599,2.284,2.47
				c1.188,1.697,1.64,3.937,2.732,5.573c0.96,1.437,2.096,1.038,3.628,1.732c1.844,0.837,3.388,3.134,5.506,3.248
				c0.003-2.044-1.642-2.781-2.434-4.48c-0.79-1.694,0.065-3.505,0.857-5.001c0.589-1.114,1.476-1.547,2.245-2.57
				c1.286-1.707,0.64-4.181,0.774-6.179c2.193,2.044,3.208,5.483,4.763,7.998c0.144-2.979-0.047-5.601,0.924-8.515
				c0.496-1.484,1.012-1.484,2.398-2.424c6.754-4.578,10.797-13.974,11.167-21.566c0.117-2.393-0.792-4.032-1.725-6.062
				C74.983,105.522,74.714,103.926,74.613,102.517z"/>
			<path clip-path="url(#XMLID_2_)" fill="#1B75BB" stroke="#26A9E0" stroke-width="1.0868" stroke-miterlimit="10" d="
				M37.494,151.151c2.259,4.284,2.689,9.423,3.432,14.05c1.682,10.502-0.242,20.021,6.579,29.186
				c1.546,2.076,2.883,6.787,3.394,9.357c0.721,3.631-0.569,7.387,0.016,11.067c0.548,3.449,2.567,7.03,0.452,10.326
				c-1.646,2.566-2.813,5.493-4.291,8.211c-2.25,4.144-5.195,8.261-7.211,12.623c2.77,2.312,8.97,5.274,12.468,6.592
				c6.588,2.479,14.149,4.311,21.149,5.608c3.551,0.657,8.951,2.234,11.341-0.496c3.223-3.68,1.106-10.552,4.883-14.046
				c3.202,3.159,6.039,11.755,6.782,15.964c2.574-0.077,5.113-1.153,7.591-1.794c2.478-0.639,5.574-0.889,8.429-1.367
				c4.615-0.775,9.004-1.999,13.544-3.09c3.229-0.777,4.134-4.487,7.256-5.4c-2.229,0.65-12.11-22.822-13.026-25.316
				c-1.557-4.239,0.826-9.16,0.26-13.571c-0.564-4.402-1.675-10.24,0.538-14.397c1.348-2.529,3.757-4.104,4.702-7.256
				c2.823-9.413,4.973-19.955,5.066-29.763c0.029-3.091,0.989-4.543,1.945-7.412c0.418-1.256,6.768-1.995,7.5-3
				c-1.629-1.685-11.239-4.618-13.327-5.63c-2.237-1.085-4.735-2.609-7.039-3.928c-4.091-2.343-7.979-5.102-12.198-7.195
				c-2.227-1.105-4.087-2.213-6.319-3.523c-6.55-3.85-15.4-3.203-22.787-2.613c-8.006,0.636-13.542,5.997-20.41,9.3
				c-5.103,2.454-10.605,4.108-15.745,6.51c-2.085,0.974-6.68,4.005-9.138,6.229C32.062,147.524,36.241,148.77,37.494,151.151z"/>
			<path clip-path="url(#XMLID_2_)" fill="#D6C7A8" stroke="#73685A" stroke-width="1.0868" stroke-miterlimit="10" d="
				M97.5,105.099c0,4.62-0.103,5.432,0.06,10.056c0.149,4.233,1.665,9.836,5.931,12.145c1.543,0.835,3.173,1.729,4.791,2.541
				c0.52,0.261,1.081,0.751,1.693,0.981c0.816,0.308,1.892,0.336,2.594,0.754c-1.098,3.859-2.393,7.768-4.266,11.538
				c-2.145,4.321-5.132,8.211-8.004,12.133c-2.719,3.715-4.913,19.136-9.453,21.104c-3.474,1.506-6.108-10.653-8.877-12.893
				c-1.365-1.104-2.653-2.459-3.719-3.795c-1.471-1.839-3.389-3.235-4.897-5.198c-3.665-4.765-7.059-10.161-8.864-15.818
				c-0.69-2.16-2.797-5.65-1.822-7.845c7.022-2.761,9.184-7.038,10.394-11.182c0.817-2.796,0.431-5.795,0.432-8.732
				c0.001-1.754-0.41-3.358-0.422-5.108L97.5,105.099z"/>
			<path opacity="0.1" clip-path="url(#XMLID_2_)" fill="#231F20" d="M96,119.338c0.708,4.676,2.634,6.656,5.974,10.117
				c7.966,8.251-7.473,16.835-8.521,25.688c1.147-9.701-0.632-27.817-10.614-32.593c-2.528-1.209-2.97-2.292-4.384-4.401
				c-1.736-2.588-4.533-5.621-4.115-8.843c3.966,0.261,8.207,1.098,12.249,1.176c0.013,0,0.028,0,0.041,0
				c3.53,0.06,5.637-1.567,8.547-3.079C95.996,110.998,95.415,115.47,96,119.338z"/>
			<path clip-path="url(#XMLID_2_)" fill="#D6C7A8" stroke="#73685A" stroke-width="1.0868" stroke-miterlimit="10" d="
				M85.027,116.201c7.843,0,22.311-17.459,22.311-35.619c0-18.159-6.014-39.81-22.172-39.81c-16.16,0-22.172,21.651-22.172,39.81
				C62.994,98.742,75.958,116.201,85.027,116.201z"/>
			<path clip-path="url(#XMLID_2_)" fill="#C8C2AC" d="M71.177,82.64c3.18,1.076,9.561,1.43,10.542-2.216
				c1.477-5.494-2.572-13.787-9.54-10.501c-2.98,1.405-4.964,3.508-4.8,6.71C67.501,79.032,68.543,81.75,71.177,82.64z"/>
			<path clip-path="url(#XMLID_2_)" fill="#D6C7A8" stroke="#73685A" stroke-width="1.0868" stroke-miterlimit="10" d="
				M64.755,76.84c-1.458-0.978-5.59-6.164-7.582-4.58c-1.527,1.216-0.825,5.256,0.042,6.578c0.696,1.06,1.957,1.909,2.332,3.113
				c0.531,1.703-0.32,3.541-0.147,5.234c0.282,2.771,2.875,2.584,4.526,0.294"/>
			<path clip-path="url(#XMLID_2_)" fill="#D6C7A8" stroke="#73685A" stroke-width="1.0868" stroke-miterlimit="10" d="
				M105.764,76.709c1.691-1.074,3.185-2.938,4.653-4.222c0.857-0.75,0.976-1.312,2.255-1.012c1.907,0.447,1.976,3.01,1.367,4.403
				c-0.733,1.684-2.609,2.771-3.14,4.557c-0.738,2.483,0.288,4.95-0.908,7.399c-0.457,0.933-0.948,1.745-2.112,1.974
				c-1.48,0.292-0.891-1.419-2.009-1.936"/>
			<path clip-path="url(#XMLID_2_)" fill="#3B2314" stroke="#231F20" stroke-width="1.0868" stroke-miterlimit="10" d="
				M86.834,41.094c-0.239,0.843-1.041,5.576-1.876,4.956c-0.705-0.523-5.127,0.308-6.138,0.933
				c-1.548,0.957-3.128,2.148-4.272,3.431c-4.374,4.9-7.706,10.786-9.652,16.866c-0.422,1.322-0.579,2.667-0.955,3.988
				c-0.327,1.148-0.172,2.56,0.814,5.572c-0.928-1.219-5.104-3.647-5.636-4.976c-0.533-1.33-0.189-3.404-0.283-4.841
				c-0.108-1.659-0.422-3.253-0.422-4.957c0-1.299-0.25-2.869,0.141-4.09c0.238-0.742,0.104-0.515,0.423-1.172
				c-0.109-0.047,0.424-0.75,0.299-0.808c0.446-2.032,1.732-3.939,2.794-5.76c1.798-3.081,4.071-5.054,7.213-6.875
				c1.01-0.585,2.034-1.162,2.977-1.839c0.792-0.571,1.524-1.585,2.416-1.984c1.845-0.826,4.775-0.822,6.815-1.358
				c0.995-0.262,3.963-0.325,4.967-0.495C86.625,38.815,87.167,39.922,86.834,41.094z"/>
			<path clip-path="url(#XMLID_2_)" fill="#3B2314" stroke="#231F20" stroke-width="1.0868" stroke-miterlimit="10" d="
				M112.381,56.685c-0.595-2.719-2.284-5.021-3.979-7.307c-1.389-1.873-2.734-3.539-4.291-5.31
				c-1.087-1.236-2.422-1.861-3.738-2.815c-1.368-0.988-1.936-1.995-3.635-2.259c-1.947-0.302-3.854-0.539-5.799-0.888
				c-0.971-0.174-2.615-0.648-3.494-0.684c-1.092-0.043-0.389,1.875-0.493,2.77c-0.161,1.378-0.589,2.596-0.828,3.921
				c2.406,0.104,2.979,0.149,5.388,0.887c2.801,0.858,6.881,2.525,8.877,4.871c2.29,2.688,3.119,5.526,3.803,8.931
				c0.336,1.684,0.645,3.458,0.979,5.102c0.457,2.251,1.521,4.689,1.723,7.042c0.149,1.768,0.141,2.488-1.128,5.762
				c1.453-1.138,4.017-2.629,5.249-4.027c1.907-2.163,1.729-4.483,1.822-7.103C112.94,62.618,113.017,59.605,112.381,56.685z"/>
			<path opacity="0.1" clip-path="url(#XMLID_2_)" fill="#231F20" d="M96.682,57.447c0.055,0.421,0.107,0.857,0.167,1.308
				c0.34,2.556,1.337,6.153-0.333,8.474c-1.9,2.642-6.013,3.384-7.115,6.502c-1.263,3.574-1.837,8.146-2.051,11.882
				c-0.092,1.641-0.17,3.218-0.48,4.58c-0.174,0.768-0.218,1.572-0.417,2.386c-0.482,1.95-0.272,3.188,2.379,3.014
				c0.659,0.989,0.559,3.215,0.361,4.514c-0.103,0.671-0.695,1.324-0.687,1.999c0.009,0.872,0.729,1.141,0.398,2.191
				c-0.271,0.863-1.35,1.168-1.607,1.921c-0.179,0.519,0.203,1.434,0.241,2.095c0.048,0.838-1.247,4.144-0.312,4.826
				c1.367,0.994,5.186-2.468,6.09-3.393c2.312-2.359,4.165-5.289,5.819-8.068c2.806-4.72,5.526-11.467,4.938-16.938
				c-0.242-2.255-0.33-4.757,0-6.984c0.322-2.177,1.052-3.949,0.938-6.286c-0.178-3.695-1.427-8.33-2.718-11.833
				c-0.926-2.511-1.347-5.989-3.153-8.333c-1.764-2.288-6.404-5.497-9.473-5.742c-3.884-0.311-0.772,1.766,0.691,2.738
				c1.104,0.734,2.163,1.618,3.145,2.429C95.945,52.741,96.343,54.833,96.682,57.447z"/>
			<path clip-path="url(#XMLID_2_)" fill="#716558" d="M78.57,100.724c-0.074-0.17-0.132-0.374-0.174-0.616
				c-0.427,0.068-0.936,1.529-0.646,1.959c0.329,0.486,0.619,0.101,1.083,0.073c1.129-0.066,2.513,0.538,3.656,0.707
				c1.348,0.2,2.986,0.156,4.48,0.156c0.762,0,1.406-0.013,2.111-0.253c0.833-0.283,1.786-0.825,2.625-0.984
				c0.263-0.05,0.92,0.244,1.123,0.084c0.382-0.305-0.388-1.979-0.941-1.897c0.26,2.116-2.763,1.354-3.903,1.244
				c-1.271-0.123-1.971,1.114-3.276,0.688c-0.528-0.173-0.819-0.562-1.374-0.69c-0.453-0.102-1.058,0.041-1.498,0.099
				C80.347,101.489,79.087,101.931,78.57,100.724z"/>
			<path clip-path="url(#XMLID_2_)" fill="#FFFFFF" d="M76.928,80.709c1.042-0.244,2.241-1.312,2.704-2.187
				c0.376-0.714,0.615-1.713-0.343-2.001c-0.798-0.241-1.691-0.434-2.445-0.838c-0.571-0.306-1.02-0.623-1.747-0.613
				c-0.993,0.014-1.963,0.54-2.815,0.896c-0.765,0.319-1.843,0.598-2.707,0.757c-1.334,0.248-1.043,1.413-0.542,2.252
				c0.801,1.341,1.822,1.64,3.389,1.936C73.804,81.172,75.559,81.028,76.928,80.709z"/>
			<path clip-path="url(#XMLID_2_)" fill="#231F20" stroke="#26A9E0" stroke-width="1.0868" stroke-miterlimit="10" d="
				M74.412,79.174c2.584-0.137,4.276-2.179,3.166-3.443c-0.957-1.091-4.14-0.786-5.39-0.115
				C69.721,76.94,71.886,79.309,74.412,79.174z"/>
			<path clip-path="url(#XMLID_2_)" fill="#716558" d="M90.908,91.766c-0.556,0.002-1.091,0.137-1.614,0.321
				c-0.214,0.075-0.405,0.214-0.591,0.291c-0.518,0.218-1.025,0.427-1.544,0.663c-0.536,0.242-1.111,0.418-1.712,0.43
				c-1.271,0.021-2.249-0.451-3.438-0.721c-0.593-0.133-1.292-0.628-1.91-0.577c0.05,0.763,0.516,0.845,1.153,1.264
				c0.745,0.489,3.573,1.788,4.465,1.956c1.198,0.229,2.272-0.617,3.05-1.354c0.447-0.423,0.854-0.88,1.257-1.34
				c0.188-0.214,0.307-0.37,0.553-0.516c0.038-0.023,0.564-0.412,0.507-0.414C91.025,91.766,90.967,91.766,90.908,91.766z"/>
			<path clip-path="url(#XMLID_2_)" fill="#AFAD9E" d="M89.984,74.138c-0.414,1.408-0.597,3.057-0.756,4.528
				c-0.2,1.85-0.516,3.668-0.638,5.545c-0.081,1.26,0.188,3.376-0.406,4.516c-0.707-0.747-0.322-2.817-0.391-3.733
				c-0.132-1.793,0.075-3.641,0.042-5.476c-0.032-1.895,0.056-8.617,3.629-8.077c-0.158,0.428-0.693,0.679-0.93,1.07
				C90.249,72.983,90.137,73.621,89.984,74.138z"/>
			<path clip-path="url(#XMLID_2_)" fill="#231F20" d="M72.282,76.096c0.765-0.264,1.309-0.341,2.22-0.458
				c1.347-0.174,1.862,0.051,2.992,0.577c0.768,0.357,3.17,1.612,3.363,0.047c-1.641,0.608-2.849-1.804-5.247-2.034
				c-0.773-0.074-2.155,0.172-2.79,0.401c-0.544,0.195-0.578,0.409-1.228,0.083c-0.626-0.313-0.614-0.587-1.062-0.834
				c-0.348,0.618,0.179,1.113,0.605,1.536c0.303,0.301-0.829,0.653-0.946,0.647c-0.647-0.033-1.188-0.567-1.772-0.766
				c-0.049,0.535,0.852,0.801,1.193,1.13c-0.374,0.34-1.25,0.157-1.785,0.188C68.617,78.177,71.359,76.414,72.282,76.096z"/>
			<path clip-path="url(#XMLID_2_)" fill="#3B2314" d="M73.543,68.852c1.576-0.39,3.369-0.599,4.746,0.318
				c0.951,0.632,3.229,1.59,3.15,2.893c-0.102,1.684-2.332-0.383-2.914-0.726c-1.558-0.917-3.05-0.915-4.795-0.694
				c-1.751,0.223-2.424,0.637-3.915,1.59c-0.676,0.433-1.114,0.768-1.678,1.268c-0.135,0.12-0.889,0.864-1.001,0.876
				c-1.122,0.121,0.674-1.392,1.028-1.751C69.537,71.232,71.536,69.349,73.543,68.852z"/>
			<path clip-path="url(#XMLID_2_)" fill="#1B75BB" stroke="#26A9E0" stroke-width="1.0868" stroke-miterlimit="10" d="
				M105.551,143.56c-3.328,6.47-10.06,13.085-12.14,19.988c-1.349,4.481-0.594,10.801,0.296,15.231
				c0.591-2.203,2.831-4.127,4.216-6.005c1.409-1.913,2.458-3.877,4.373-5.459c1.59-1.316,3.266-1.807,5.166-2.673
				c3.209-1.461,2.695-1.73,0.627-3.92c-1.947-2.064-1.714-1.769-0.084-3.974c3.195-4.322,6.334-8.773,9.396-13.177
				c1.441-2.071,3.183-4.027,4.937-5.984c0.935-1.042,3.278-2.567,3.688-3.745c-6.072-0.33-10.646-2.034-14.272-6.703
				c-3.685-4.741-6.406-4.451-12.429-5.343c-0.19-0.028,1.132,3.256,1.628,3.627C108.071,130.76,109.497,135.888,105.551,143.56z"/>
			<path clip-path="url(#XMLID_2_)" fill="#1B75BB" stroke="#26A9E0" stroke-width="1.0868" stroke-miterlimit="10" d="
				M91.831,172.427c-2.762-5.574-9.033-10.266-12.74-15.236c-3.967-5.317-7.688-10.79-11.619-16.13
				c-2.454-3.335-3.435-6.699-0.965-10.352c1.381-2.04,5.305-5.378,4.868-8.076c-3.215,2.334-9.612,3.045-12.61,5.992
				c-3.309,3.254-6.01,6.299-11.301,6.005c-0.13,1.848,2.695,3.121,3.975,4.329c2.239,2.112,4.391,4.83,6.493,7.103
				c3.723,4.026,7.604,7.168,10.959,11.314c-0.929,0.764-2.26,1.345-3.176,2.096c5.935,3.818,14.38,7.023,19.063,12.485
				c2.343,2.73,4.669,5.407,6.204,8.589c0.872,1.807,1.307,5.059,3.047,5.996C94.701,182.319,93.729,176.26,91.831,172.427z"/>
			<path clip-path="url(#XMLID_2_)" fill="#716558" d="M87.6,106.279c0.552-0.271,2.361-0.509,1.002-0.935
				c-0.752-0.234-1.913,0.434-2.685,0.49c-0.628,0.046-1.258,0.078-1.888,0.104c-0.363,0.014-0.863-0.128-1.203,0.03
				c-0.502,0.231-0.258,0.61,0.065,0.827c0.77,0.517,1.755,0.65,2.742,0.529C86.377,107.233,86.961,106.594,87.6,106.279z"/>
			<ellipse clip-path="url(#XMLID_2_)" fill="#FFFFFF" cx="72.805" cy="76.467" rx="0.564" ry="0.524"/>
			<path clip-path="url(#XMLID_2_)" fill="#FFFFFF" d="M93.936,80.709c-1.041-0.244-2.239-1.312-2.702-2.187
				c-0.377-0.714-0.616-1.713,0.342-2.001c0.8-0.241,1.69-0.434,2.446-0.838c0.57-0.306,1.019-0.623,1.746-0.613
				c0.992,0.014,1.965,0.54,2.814,0.896c0.767,0.319,1.845,0.598,2.708,0.757c1.335,0.248,1.043,1.413,0.542,2.252
				c-0.8,1.341-1.821,1.64-3.388,1.936C97.06,81.172,95.305,81.028,93.936,80.709z"/>
			<path clip-path="url(#XMLID_2_)" fill="#231F20" stroke="#26A9E0" stroke-width="1.0868" stroke-miterlimit="10" d="
				M96.452,79.174c-2.583-0.137-4.276-2.179-3.165-3.443c0.957-1.091,4.456-0.865,5.706-0.194
				C101.459,76.86,98.979,79.309,96.452,79.174z"/>
			<path clip-path="url(#XMLID_2_)" fill="#231F20" d="M98.582,76.096c-0.764-0.264-1.309-0.341-2.22-0.458
				c-1.346-0.174-1.861,0.051-2.993,0.577c-0.766,0.357-3.168,1.612-3.361,0.047c1.64,0.608,2.849-1.804,5.246-2.034
				c0.773-0.074,2.154,0.172,2.79,0.401c0.545,0.195,1.365,0.683,2.016,0.358c0.626-0.315,0.418-0.708,0.865-0.956
				c0.347,0.617-0.025,0.972-0.451,1.396c-0.304,0.301,0.238,0.501,0.354,0.496c0.647-0.033,1.036-0.428,1.619-0.626
				c0.05,0.535-0.851,0.801-1.192,1.13c0.374,0.34,1.25,0.157,1.785,0.188C102.248,78.177,99.506,76.414,98.582,76.096z"/>
			<path clip-path="url(#XMLID_2_)" fill="#3B2314" d="M97.322,68.852c-1.576-0.39-3.369-0.599-4.746,0.318
				c-0.95,0.632-3.229,1.59-3.15,2.893c0.102,1.684,2.332-0.383,2.914-0.726c1.558-0.917,3.051-0.915,4.795-0.694
				c1.753,0.223,2.425,0.637,3.915,1.59c0.676,0.433,1.114,0.768,1.679,1.268c0.136,0.12,0.889,0.864,1.001,0.876
				c1.123,0.121-0.674-1.392-1.028-1.751C101.328,71.232,99.329,69.349,97.322,68.852z"/>
			<ellipse clip-path="url(#XMLID_2_)" fill="#FFFFFF" cx="94.409" cy="76.467" rx="0.564" ry="0.524"/>
			<path clip-path="url(#XMLID_2_)" fill="#754C28" d="M61.774,66.998c0.098-1.031-1.504-1.048-1.979-1.819
				c1.011-0.5,1.456,1.161,2.589,0.534c-1.224-0.692-1.504-1.396-2.273-2.363c0.503-0.189,1.893,1.438,2.703,1.676
				c1.88,0.55,1.295,0.047,0.378,1.211c0.16,0.07,0.33,0.201,0.559,0.281c-0.4,0.382-0.54,0.678-0.151,1.089
				c-1.391,0.416-2.769,0.52-3.739-0.712C60.527,66.684,61.084,67.059,61.774,66.998z"/>
			<path clip-path="url(#XMLID_2_)" fill="#754C28" d="M75.606,47.113c-0.787-0.933-1.802-1.451-2.959-1.941
				c-0.73-0.309-2.161-1.211-2.797-1.181c0.189,0.584,1.234,1.764,1.817,2.177c-1.281,0.304-2.067-0.925-3.132-0.498
				c0.735,0.743,1.541,1.242,2.172,2.075c-0.677,0.318-2.811-0.801-3.965-0.736c0.568,0.425,1.577,0.499,1.701,1.293
				c-0.922,0.268-2.626-0.241-3.292,0.38c0.663,0.585,2.042,0.431,2.845,0.884c0.611,0.344,1.078,0.889,1.676,1.188
				c-0.368-0.065-0.86,0.091-1.234,0.045c0.005,0.074-0.008,0.262-0.023,0.335c0.941,0.502,2.034,0.846,3.088,0.938
				c-0.007-0.596-0.466-0.894-0.67-1.4c0.581,0.049,1.046,0.258,1.652,0.218c0.058-0.661-0.903-1.066-1.38-1.523
				c0.744,0.103,1.393,0.484,2.225,0.344c0.143-0.798-0.714-1.144-1.09-1.662c0.625-0.02,1.165,0.112,1.795,0.091
				c-0.111-0.189-0.063-0.399-0.25-0.608c0.637,0.018,1.275,0.204,1.943,0.084c0.006-0.417-0.204-0.856-0.545-1.158"/>
			<path clip-path="url(#XMLID_2_)" fill="#754C28" d="M91.918,42.937c-0.616,0.278-0.486,0.878-1.14,1.081
				c-0.191-0.781-0.282-1.683-0.246-2.5c0.031-0.773,0.73-1.76,0.699-2.417c0.052,1.086,0.189,2.02,0.319,3.026
				c0.828-0.309,0.746-1.987,1.787-2.33c0.183,0.848-0.575,1.335-0.092,2.188c1-0.302,0.63-1.667,1.498-2.191
				c0.084,1.266,0.054,4.56-1.246,5.247c-0.227-0.596,0.127-1.404-0.538-1.711c0.051,0.523-0.165,0.872-0.703,0.882
				C92.328,43.739,92.221,43.312,91.918,42.937z"/>
			<path clip-path="url(#XMLID_2_)" fill="#716558" d="M59.57,75.285c-0.259,0.499,1.101,1.317,1.557,1.944
				c0.62,0.852,1.241,1.652,1.07,2.736c-0.183-0.087-0.583-0.073-0.81-0.198c-0.193,0.832,0.797,1.531,1.389,2.084
				c0.5,0.467,0.5,0.047,0.852,0.75c0.144,0.288,0.003,0.967,0.023,1.289C68.581,84.133,60.291,73.898,59.57,75.285z"/>
			<path clip-path="url(#XMLID_2_)" fill="#716558" d="M110.876,75.285c0.259,0.499-1.1,1.317-1.556,1.944
				c-0.621,0.852-1.242,1.652-1.07,2.736c0.183-0.087,0.583-0.073,0.81-0.198c0.192,0.832-0.797,1.531-1.389,2.084
				c-0.5,0.467-0.5,0.047-0.852,0.75c-0.145,0.288-0.004,0.967-0.022,1.289C101.866,84.133,110.155,73.898,110.876,75.285z"/>
			<path clip-path="url(#XMLID_2_)" fill="#754C28" d="M57.76,111.073c-2.16,1.171-5.872,2.691-6.568,5.102
				c-0.37,1.28,0.198,2.504-0.89,3.531c-1.242,1.175-3.728,1.219-4.752,2.56c-0.808,1.057-0.716,2.964-0.243,4.04
				c0.283,0.645,0.924,1.046,0.965,1.725c-2.224-0.596-3.098-3.807-2.342-5.753c0.633-1.634,2.035-2.614,3.636-3.107
				c1.721-0.529,1.719-0.601,1.829-2.385c0.154-2.507,3.447-4.371,5.641-5.553c2.283-1.23,4.167-2.263,5.393-4.332
				c0.583-0.985,0.764-2.11,1.367-3.103C63.183,106.208,59.752,109.993,57.76,111.073z"/>
			<path clip-path="url(#XMLID_2_)" fill="#754C28" d="M53.764,118.351c-0.093,1.889-0.524,2.701-2.48,3.288
				c1.532-1.351,0.503-3.146,1.102-4.827c0.664-1.858,2.882-2.241,4.065-3.524C56.34,115.156,53.87,116.199,53.764,118.351z"/>
			<path clip-path="url(#XMLID_2_)" fill="#754C28" d="M52.623,110.344c0.653-1.467,2.176-1.569,3.509-2.337
				c0.965-0.556,1.865-1.476,2.672-2.247c0.062-0.06-0.038,1.276-0.198,1.528c-0.366,0.573-1.191,0.978-1.793,1.292
				C55.474,109.279,53.942,109.606,52.623,110.344z"/>
			<path clip-path="url(#XMLID_2_)" fill="#754C28" d="M107.576,68.459c0.193-0.118,1.843,1.036,2.231,1.068
				c-1.014,1.257-1.361,1.551-1.366,3.214c0.167-0.965,1.24-1.861,1.781-2.681c0.683-1.031,0.992-2.03,1.462-3.134
				c-0.277,0.653-1.124,1.342-1.922,1.52c0.395-1.739,1.816-3.249,1.786-5.287c-0.533,1.979-2.81,2.726-4.185,3.771
				c0.501,0.113,1.084,0.096,1.625,0.108C108.762,67.661,108.127,68.125,107.576,68.459z"/>
			
				<path clip-path="url(#XMLID_2_)" fill="none" stroke="#929497" stroke-width="0.8151" stroke-linecap="round" stroke-linejoin="round" stroke-miterlimit="10" d="
				M80.92,78.577c1.451-2.638,7.229-2.638,8.646,0.155"/>
			
				<path clip-path="url(#XMLID_2_)" fill="none" stroke="#929497" stroke-width="0.8151" stroke-linecap="round" stroke-linejoin="round" stroke-miterlimit="10" d="
				M66.748,76.684c0-1.25,1.091-2.263,2.436-2.263h9.182c1.345,0,2.436,1.013,2.436,2.263v2.225c0,1.25-1.09,2.263-2.436,2.263
				h-9.182c-1.345,0-2.436-1.012-2.436-2.263V76.684z"/>
			
				<path clip-path="url(#XMLID_2_)" fill="none" stroke="#929497" stroke-width="0.8151" stroke-linecap="round" stroke-linejoin="round" stroke-miterlimit="10" d="
				M103.429,76.684c0-1.25-1.091-2.263-2.437-2.263h-9.182c-1.346,0-2.436,1.013-2.436,2.263v2.225c0,1.25,1.09,2.263,2.436,2.263
				h9.182c1.346,0,2.437-1.012,2.437-2.263V76.684z"/>
			<path clip-path="url(#XMLID_2_)" fill="#C8C2AC" d="M85.636,100.601c-0.167-1.426-0.023-2.961-0.473-4.316
				c-0.927,0.352-1.129,1.487-1.061,2.382C84.17,99.58,85.638,100.627,85.636,100.601z"/>
		</g>
	</g>
	<g>
		<defs>
			<circle id="SVGID_1_" cx="84.893" cy="85.428" r="78.717"/>
		</defs>
		<clipPath id="SVGID_2_">
			<use xlink:href="#SVGID_1_"  overflow="visible"/>
		</clipPath>
	</g>
</g>
</svg>
