<?xml version="1.0" encoding="utf-8"?>
<!-- Generator: Adobe Illustrator 16.0.0, SVG Export Plug-In . SVG Version: 6.00 Build 0)  -->
<!DOCTYPE svg PUBLIC "-//W3C//DTD SVG 1.1//EN" "http://www.w3.org/Graphics/SVG/1.1/DTD/svg11.dtd">
<svg version="1.1" id="Layer_1" xmlns="http://www.w3.org/2000/svg" xmlns:xlink="http://www.w3.org/1999/xlink" x="0px" y="0px"
	 width="100px" height="36.167px" viewBox="0 0 100 36.167" enable-background="new 0 0 100 36.167" xml:space="preserve">
<g>
	<g>
		<path fill="#808184" d="M40.301,30.227c-0.09,0.439-0.456,0.729-0.929,0.729c-0.404,0-0.666-0.227-0.666-0.576
			c0-0.051,0.007-0.104,0.017-0.16l0.353-1.695h0.442l-0.352,1.695c-0.011,0.047-0.014,0.08-0.014,0.119
			c0,0.178,0.108,0.275,0.279,0.275c0.216,0,0.411-0.146,0.463-0.396l0.348-1.693h0.408L40.301,30.227z"/>
		<path fill="#808184" d="M41.789,29.324c-0.153-0.045-0.303-0.041-0.397,0.004l-0.328,1.592h-0.425l0.366-1.777
			c0.174-0.08,0.432-0.135,0.752-0.135c0.07,0,0.122,0.004,0.181,0.006L41.789,29.324z"/>
		<path fill="#808184" d="M43.3,30.572c-0.191,0.25-0.474,0.383-0.843,0.383c-0.244,0-0.484-0.053-0.599-0.137l0.543-2.633h0.425
			l-0.188,0.908c0.08-0.041,0.206-0.076,0.369-0.076c0.366,0,0.589,0.252,0.589,0.658C43.597,29.973,43.478,30.342,43.3,30.572z
			 M42.861,29.266c-0.111,0-0.198,0.02-0.271,0.055l-0.275,1.338c0.048,0.023,0.118,0.031,0.198,0.031c0.202,0,0.358-0.1,0.47-0.289
			c0.115-0.191,0.195-0.521,0.195-0.744C43.178,29.43,43.092,29.266,42.861,29.266z"/>
		<path fill="#808184" d="M45.255,30.818c-0.146,0.074-0.366,0.137-0.666,0.137c-0.47,0-0.725-0.266-0.725-0.688
			c0-0.295,0.115-0.65,0.3-0.881c0.191-0.24,0.471-0.379,0.839-0.379c0.251,0,0.481,0.062,0.599,0.135L45.255,30.818z
			 M44.941,29.258c-0.192,0-0.352,0.105-0.467,0.301c-0.115,0.191-0.188,0.486-0.188,0.713c0,0.254,0.104,0.41,0.352,0.41
			c0.098,0,0.181-0.016,0.233-0.045l0.279-1.34C45.115,29.279,45.045,29.258,44.941,29.258z"/>
		<path fill="#808184" d="M47.449,29.605l-0.275,1.314h-0.425l0.279-1.332c0.006-0.029,0.01-0.061,0.01-0.094
			c0-0.121-0.076-0.219-0.286-0.219c-0.111,0-0.216,0.018-0.299,0.049l-0.331,1.596h-0.425l0.366-1.777
			c0.188-0.08,0.457-0.135,0.752-0.135c0.467,0,0.648,0.195,0.648,0.455C47.463,29.51,47.46,29.559,47.449,29.605z"/>
		<path fill="#808184" d="M50.208,28.818h-0.721l-0.15,0.725h0.641l-0.059,0.293h-0.641l-0.227,1.084h-0.442l0.495-2.396h1.163
			L50.208,28.818z"/>
		<path fill="#808184" d="M51.574,30.818c-0.156,0.08-0.426,0.137-0.729,0.137c-0.436,0-0.638-0.16-0.638-0.463
			c0-0.053,0.007-0.115,0.021-0.178l0.265-1.271h0.425l-0.272,1.295c-0.007,0.039-0.01,0.072-0.01,0.107
			c0,0.123,0.059,0.217,0.265,0.217c0.118,0,0.215-0.018,0.29-0.049l0.326-1.57h0.422L51.574,30.818z"/>
		<path fill="#808184" d="M53.765,29.605L53.49,30.92h-0.426l0.279-1.332c0.007-0.029,0.01-0.061,0.01-0.094
			c0-0.121-0.076-0.219-0.285-0.219c-0.111,0-0.216,0.018-0.3,0.049l-0.331,1.596h-0.425l0.365-1.777
			c0.188-0.08,0.457-0.135,0.753-0.135c0.467,0,0.647,0.195,0.647,0.455C53.778,29.51,53.775,29.559,53.765,29.605z"/>
		<path fill="#808184" d="M55.309,29.369c-0.039-0.027-0.118-0.076-0.223-0.076c-0.175,0-0.321,0.098-0.426,0.279
			c-0.104,0.178-0.17,0.455-0.17,0.664c0,0.256,0.101,0.404,0.285,0.404c0.108,0,0.223-0.041,0.282-0.086l0.045,0.264
			c-0.087,0.074-0.254,0.137-0.453,0.137c-0.354,0-0.588-0.283-0.588-0.711c0-0.279,0.098-0.613,0.254-0.84
			c0.182-0.264,0.439-0.396,0.707-0.396c0.202,0,0.369,0.076,0.429,0.135L55.309,29.369z"/>
		<path fill="#808184" d="M56.604,29.311h-0.307l-0.227,1.104c-0.007,0.031-0.011,0.062-0.011,0.088
			c0,0.094,0.042,0.156,0.157,0.156c0.038,0,0.083-0.01,0.111-0.021l-0.056,0.266c-0.042,0.021-0.133,0.041-0.227,0.041
			c-0.3,0-0.418-0.174-0.418-0.385c0-0.047,0.004-0.092,0.014-0.137l0.23-1.111h-0.209l0.056-0.268h0.208l0.084-0.416l0.453-0.117
			l-0.111,0.533h0.307L56.604,29.311z"/>
		<path fill="#808184" d="M57.067,30.92h-0.425l0.39-1.877h0.426L57.067,30.92z M57.312,28.725c-0.115,0-0.195-0.076-0.195-0.174
			c0-0.133,0.136-0.254,0.282-0.254c0.114,0,0.195,0.08,0.195,0.174C57.594,28.604,57.458,28.725,57.312,28.725z"/>
		<path fill="#808184" d="M59.015,30.537c-0.167,0.258-0.414,0.418-0.752,0.418c-0.422,0-0.631-0.273-0.631-0.662
			c0-0.283,0.098-0.637,0.251-0.871c0.171-0.258,0.425-0.414,0.756-0.414c0.425,0,0.627,0.268,0.627,0.662
			C59.266,29.947,59.164,30.307,59.015,30.537z M58.607,29.275c-0.182,0-0.307,0.125-0.394,0.311
			c-0.091,0.191-0.171,0.533-0.171,0.746c0,0.191,0.062,0.334,0.258,0.334c0.185,0,0.307-0.125,0.39-0.307
			c0.091-0.195,0.167-0.543,0.167-0.756C58.857,29.416,58.799,29.275,58.607,29.275z"/>
		<path fill="#808184" d="M61.188,29.605l-0.275,1.314h-0.425l0.278-1.332c0.008-0.029,0.011-0.061,0.011-0.094
			c0-0.121-0.077-0.219-0.285-0.219c-0.111,0-0.216,0.018-0.3,0.049l-0.331,1.596h-0.425l0.365-1.777
			c0.188-0.08,0.456-0.135,0.753-0.135c0.467,0,0.647,0.195,0.647,0.455C61.202,29.51,61.199,29.559,61.188,29.605z"/>
		<path fill="#808184" d="M62.868,30.818c-0.146,0.074-0.366,0.137-0.666,0.137c-0.47,0-0.724-0.266-0.724-0.688
			c0-0.295,0.114-0.65,0.299-0.881c0.191-0.24,0.471-0.379,0.84-0.379c0.251,0,0.48,0.062,0.599,0.135L62.868,30.818z
			 M62.555,29.258c-0.191,0-0.353,0.105-0.468,0.301c-0.114,0.191-0.188,0.486-0.188,0.713c0,0.254,0.104,0.41,0.352,0.41
			c0.098,0,0.181-0.016,0.233-0.045l0.278-1.34C62.729,29.279,62.658,29.258,62.555,29.258z"/>
		<path fill="#808184" d="M63.742,30.92H63.32l0.568-2.734h0.421L63.742,30.92z"/>
		<path fill="#808184" d="M64.651,30.92h-0.425l0.39-1.877h0.426L64.651,30.92z M64.895,28.725c-0.114,0-0.194-0.076-0.194-0.174
			c0-0.133,0.136-0.254,0.282-0.254c0.114,0,0.194,0.08,0.194,0.174C65.177,28.604,65.042,28.725,64.895,28.725z"/>
		<path fill="#808184" d="M66.292,29.311h-0.307l-0.227,1.104c-0.007,0.031-0.01,0.062-0.01,0.088c0,0.094,0.041,0.156,0.156,0.156
			c0.038,0,0.084-0.01,0.111-0.021l-0.056,0.266c-0.042,0.021-0.132,0.041-0.227,0.041c-0.3,0-0.417-0.174-0.417-0.385
			c0-0.047,0.003-0.092,0.013-0.137l0.23-1.111h-0.209l0.056-0.268h0.209l0.084-0.416l0.452-0.117l-0.111,0.533h0.307L66.292,29.311
			z"/>
		<path fill="#808184" d="M66.79,31.668h-0.449l0.46-0.752l-0.23-1.873h0.439l0.073,1.219c0.007,0.146-0.011,0.264-0.011,0.264
			h0.007c0,0,0.031-0.117,0.101-0.264l0.597-1.219h0.41L66.79,31.668z"/>
		<path fill="#808184" d="M67.779,31.508h-0.254l0.494-0.934c0.07-0.072,0.167-0.129,0.289-0.129c0.115,0,0.164,0.057,0.164,0.129
			L67.779,31.508z"/>
		<path fill="#808184" d="M71.535,29.596c-0.153,0.164-0.369,0.258-0.593,0.27v0.006l0.499,1.049h-0.478L70.5,29.822h-0.007
			l-0.229,1.098h-0.436l0.477-2.295c0.185-0.084,0.415-0.137,0.683-0.137c0.502,0,0.763,0.223,0.763,0.568
			C71.75,29.254,71.671,29.453,71.535,29.596z M70.939,28.742c-0.098,0-0.167,0.014-0.234,0.041l-0.191,0.932
			c0.028,0.01,0.095,0.018,0.164,0.018c0.202,0,0.366-0.066,0.478-0.195c0.107-0.121,0.16-0.311,0.16-0.475
			C71.315,28.848,71.189,28.742,70.939,28.742z"/>
		<path fill="#808184" d="M73.263,30.818c-0.157,0.08-0.425,0.137-0.729,0.137c-0.436,0-0.637-0.16-0.637-0.463
			c0-0.053,0.007-0.115,0.021-0.178l0.265-1.271h0.425l-0.271,1.295c-0.007,0.039-0.011,0.072-0.011,0.107
			c0,0.123,0.06,0.217,0.265,0.217c0.119,0,0.216-0.018,0.289-0.049l0.328-1.57h0.421L73.263,30.818z"/>
		<path fill="#808184" d="M74.851,29.324c-0.153-0.045-0.303-0.041-0.396,0.004l-0.328,1.592h-0.425l0.366-1.777
			c0.174-0.08,0.432-0.135,0.752-0.135c0.07,0,0.122,0.004,0.182,0.006L74.851,29.324z"/>
		<path fill="#808184" d="M76.349,30.818c-0.146,0.074-0.365,0.137-0.665,0.137c-0.471,0-0.725-0.266-0.725-0.688
			c0-0.295,0.115-0.65,0.3-0.881c0.191-0.24,0.471-0.379,0.839-0.379c0.251,0,0.481,0.062,0.6,0.135L76.349,30.818z M76.035,29.258
			c-0.191,0-0.352,0.105-0.467,0.301c-0.114,0.191-0.188,0.486-0.188,0.713c0,0.254,0.105,0.41,0.353,0.41
			c0.098,0,0.181-0.016,0.233-0.045l0.278-1.34C76.21,29.279,76.14,29.258,76.035,29.258z"/>
		<path fill="#808184" d="M77.224,30.92h-0.422l0.567-2.734h0.422L77.224,30.92z"/>
		<path fill="#808184" d="M80.358,29.652c-0.171,0.201-0.442,0.33-0.84,0.33c-0.073,0-0.146-0.004-0.216-0.01l-0.198,0.947h-0.433
			l0.478-2.295c0.171-0.08,0.404-0.137,0.689-0.137c0.513,0,0.739,0.244,0.739,0.574C80.578,29.27,80.49,29.494,80.358,29.652z
			 M79.79,28.742c-0.094,0-0.198,0.025-0.244,0.041l-0.19,0.928c0.052,0.008,0.111,0.01,0.17,0.01c0.247,0,0.412-0.086,0.51-0.24
			c0.072-0.115,0.117-0.289,0.117-0.428C80.152,28.854,80.045,28.742,79.79,28.742z"/>
		<path fill="#808184" d="M81.73,29.324c-0.153-0.045-0.303-0.041-0.397,0.004l-0.327,1.592h-0.425l0.366-1.777
			c0.174-0.08,0.432-0.135,0.752-0.135c0.07,0,0.122,0.004,0.182,0.006L81.73,29.324z"/>
		<path fill="#808184" d="M83.229,30.818c-0.146,0.074-0.365,0.137-0.665,0.137c-0.471,0-0.725-0.266-0.725-0.688
			c0-0.295,0.114-0.65,0.3-0.881c0.191-0.24,0.471-0.379,0.839-0.379c0.251,0,0.481,0.062,0.6,0.135L83.229,30.818z M82.915,29.258
			c-0.191,0-0.352,0.105-0.467,0.301c-0.115,0.191-0.188,0.486-0.188,0.713c0,0.254,0.105,0.41,0.353,0.41
			c0.098,0,0.181-0.016,0.233-0.045l0.278-1.34C83.09,29.279,83.02,29.258,82.915,29.258z"/>
		<path fill="#808184" d="M85.026,29.369c-0.038-0.027-0.118-0.076-0.223-0.076c-0.174,0-0.321,0.098-0.425,0.279
			c-0.104,0.178-0.171,0.455-0.171,0.664c0,0.256,0.101,0.404,0.285,0.404c0.108,0,0.224-0.041,0.282-0.086l0.045,0.264
			c-0.087,0.074-0.254,0.137-0.452,0.137c-0.355,0-0.59-0.283-0.59-0.711c0-0.279,0.099-0.613,0.255-0.84
			c0.182-0.264,0.439-0.396,0.707-0.396c0.202,0,0.37,0.076,0.429,0.135L85.026,29.369z"/>
		<path fill="#808184" d="M86.322,29.311h-0.307l-0.227,1.104c-0.007,0.031-0.011,0.062-0.011,0.088
			c0,0.094,0.042,0.156,0.157,0.156c0.038,0,0.083-0.01,0.111-0.021l-0.056,0.266c-0.042,0.021-0.133,0.041-0.227,0.041
			c-0.3,0-0.418-0.174-0.418-0.385c0-0.047,0.004-0.092,0.014-0.137l0.23-1.111h-0.209l0.056-0.268h0.209l0.083-0.416l0.453-0.117
			l-0.111,0.533h0.307L86.322,29.311z"/>
		<path fill="#808184" d="M86.785,30.92H86.36l0.39-1.877h0.426L86.785,30.92z M87.029,28.725c-0.115,0-0.195-0.076-0.195-0.174
			c0-0.133,0.136-0.254,0.282-0.254c0.115,0,0.195,0.08,0.195,0.174C87.312,28.604,87.176,28.725,87.029,28.725z"/>
		<path fill="#808184" d="M88.607,29.369c-0.038-0.027-0.119-0.076-0.223-0.076c-0.175,0-0.321,0.098-0.426,0.279
			c-0.104,0.178-0.17,0.455-0.17,0.664c0,0.256,0.101,0.404,0.285,0.404c0.108,0,0.224-0.041,0.282-0.086l0.045,0.264
			c-0.087,0.074-0.254,0.137-0.453,0.137c-0.354,0-0.588-0.283-0.588-0.711c0-0.279,0.097-0.613,0.254-0.84
			c0.182-0.264,0.439-0.396,0.707-0.396c0.202,0,0.369,0.076,0.429,0.135L88.607,29.369z"/>
		<path fill="#808184" d="M90.15,30.818c-0.146,0.074-0.365,0.137-0.666,0.137c-0.47,0-0.724-0.266-0.724-0.688
			c0-0.295,0.114-0.65,0.3-0.881c0.19-0.24,0.47-0.379,0.839-0.379c0.251,0,0.48,0.062,0.6,0.135L90.15,30.818z M89.837,29.258
			c-0.191,0-0.353,0.105-0.467,0.301c-0.115,0.191-0.188,0.486-0.188,0.713c0,0.254,0.104,0.41,0.352,0.41
			c0.099,0,0.182-0.016,0.234-0.045l0.278-1.34C90.011,29.279,89.941,29.258,89.837,29.258z"/>
		<path fill="#808184" d="M91.025,30.92h-0.423l0.568-2.734h0.422L91.025,30.92z"/>
		<path fill="#808184" d="M91.934,30.92h-0.425l0.391-1.877h0.425L91.934,30.92z M92.178,28.725c-0.115,0-0.195-0.076-0.195-0.174
			c0-0.133,0.136-0.254,0.282-0.254c0.115,0,0.195,0.08,0.195,0.174C92.46,28.604,92.324,28.725,92.178,28.725z"/>
		<path fill="#808184" d="M93.574,29.311h-0.307l-0.227,1.104c-0.007,0.031-0.01,0.062-0.01,0.088c0,0.094,0.042,0.156,0.157,0.156
			c0.038,0,0.083-0.01,0.111-0.021l-0.057,0.266c-0.041,0.021-0.132,0.041-0.226,0.041c-0.3,0-0.418-0.174-0.418-0.385
			c0-0.047,0.003-0.092,0.014-0.137l0.23-1.111h-0.21l0.057-0.268h0.208l0.084-0.416l0.452-0.117l-0.11,0.533h0.307L93.574,29.311z"
			/>
		<path fill="#808184" d="M94.072,31.668h-0.449l0.46-0.752l-0.229-1.873h0.438l0.073,1.219c0.007,0.146-0.011,0.264-0.011,0.264
			h0.008c0,0,0.031-0.117,0.101-0.264l0.596-1.219h0.411L94.072,31.668z"/>
	</g>
	<path fill="#58595B" d="M67.201,11.415c-0.754,0-1.368-0.604-1.368-1.364c0-0.757,0.614-1.364,1.368-1.364
		c0.748,0,1.363,0.607,1.363,1.364C68.564,10.812,67.949,11.415,67.201,11.415z M67.201,8.948c-0.615,0-1.096,0.5-1.096,1.103
		c0,0.604,0.48,1.099,1.096,1.099c0.609,0,1.091-0.495,1.091-1.099C68.292,9.448,67.811,8.948,67.201,8.948z M67.442,10.796
		l-0.411-0.638h-0.022v0.638h-0.293V9.321c0.115-0.059,0.262-0.092,0.415-0.092c0.407,0,0.58,0.233,0.58,0.46
		c0,0.239-0.153,0.384-0.368,0.442l0.468,0.664H67.442z M67.116,9.467c-0.042,0-0.082,0.008-0.107,0.016v0.479h0.072
		c0.216,0,0.33-0.061,0.33-0.268C67.411,9.501,67.25,9.467,67.116,9.467z"/>
	<path fill="#58595B" d="M8.154,10.389v8.57H6.35v-8.57H4.53V9.183h5.457v1.206H8.154z"/>
	<path fill="#58595B" d="M13.554,19.1c-2.146,0-3.183-1.705-3.183-3.965c0-2.287,1.038-3.979,3.183-3.979
		c2.16,0,3.184,1.691,3.184,3.979C16.737,17.395,15.7,19.1,13.554,19.1z M13.554,12.251c-1.222,0-1.463,1.406-1.463,2.87
		c0,1.449,0.271,2.799,1.463,2.799c1.236,0,1.464-1.35,1.464-2.799C15.018,13.657,14.79,12.251,13.554,12.251z"/>
	<path fill="#58595B" d="M25.889,18.959h-1.563l-1.322-4.805c-0.142-0.497-0.157-0.98-0.157-0.98h-0.028c0,0-0.028,0.483-0.17,0.98
		l-1.35,4.805h-1.563l-2.131-7.66h1.748l1.122,4.96c0.128,0.582,0.143,1.008,0.143,1.008h0.028c0,0,0.043-0.426,0.199-1.008
		l1.35-4.96h1.449l1.293,4.96c0.128,0.482,0.185,1.008,0.185,1.008h0.028c0,0,0.043-0.525,0.157-1.022l1.179-4.945h1.535
		L25.889,18.959z"/>
	<path fill="#58595B" d="M33.619,18.959V13.53c0-0.626-0.285-1.279-1.378-1.279c-0.568,0-0.867,0.085-1.194,0.213v6.495h-1.733
		v-7.248c0.724-0.341,1.705-0.555,2.998-0.555c2.288,0,3.041,1.108,3.041,2.345v5.458H33.619z"/>
	<path fill="#58595B" d="M39.217,19.1c-1.165,0-1.89-0.213-2.416-0.554l0.441-1.265c0.34,0.228,0.895,0.455,1.634,0.455
		c0.966,0,1.563-0.598,1.563-1.507c0-0.738-0.426-1.193-1.521-1.648c-1.592-0.668-2.018-1.72-2.018-2.672
		c0-1.549,1.123-2.87,2.927-2.87c0.98,0,1.706,0.242,2.146,0.555l-0.398,1.108c-0.341-0.214-0.881-0.44-1.506-0.44
		c-0.896,0-1.407,0.554-1.407,1.421c0,0.853,0.626,1.25,1.479,1.605c1.918,0.81,2.202,1.89,2.202,2.827
		C42.344,17.85,41.037,19.1,39.217,19.1z"/>
	<path fill="#58595B" d="M46.905,19.115c-2.047,0-2.97-0.896-2.97-2.587v-5.229h1.734v5.329c0,0.724,0.397,1.292,1.292,1.292
		c0.498,0,0.853-0.085,1.151-0.256v-6.365h1.733v7.204C49.208,18.846,48.241,19.115,46.905,19.115z"/>
	<path fill="#58595B" d="M52.617,9.977c-0.525,0-0.951-0.383-0.951-0.853c0-0.482,0.426-0.866,0.951-0.866
		c0.54,0,0.952,0.384,0.952,0.866C53.569,9.594,53.157,9.977,52.617,9.977z M51.752,18.959v-7.66h1.731v7.66H51.752z"/>
	<path fill="#58595B" d="M57.932,19.043c-1.506,0-2.103-1.009-2.103-2.075v-4.561h-0.853v-1.108h0.853V9.607l1.733-0.483v2.175
		h1.251v1.108h-1.251v4.477c0,0.597,0.242,0.994,0.839,0.994c0.156,0,0.27-0.028,0.412-0.071v1.08
		C58.657,18.959,58.344,19.043,57.932,19.043z"/>
	<path fill="#58595B" d="M61.484,15.761c0.143,1.421,0.824,2.132,2.089,2.132c0.882,0,1.521-0.214,1.933-0.427l0.412,1.094
		c-0.54,0.3-1.364,0.54-2.528,0.54c-2.175,0-3.554-1.406-3.554-3.993c0-2.501,1.266-3.95,3.27-3.95c2.031,0,3.14,1.351,3.069,3.922
		L61.484,15.761z M63.048,12.223c-1.009,0-1.705,0.824-1.662,2.657l3.168-0.483C64.554,12.848,64,12.223,63.048,12.223z"/>
	<g>
		<path fill="#808184" d="M10.37,25.174l-0.443-4.045c-0.035-0.297-0.035-0.557-0.035-0.557H9.877c0,0-0.049,0.26-0.134,0.557
			l-1.125,4.045H8.259L7.14,21.129c-0.077-0.281-0.126-0.557-0.126-0.557H7c0,0-0.014,0.268-0.042,0.549l-0.45,4.053H6.148
			l0.605-4.84h0.472l1.083,3.898c0.092,0.322,0.127,0.549,0.127,0.549h0.014c0,0,0.028-0.227,0.12-0.549l1.097-3.898h0.472
			l0.612,4.84H10.37z"/>
		<path fill="#808184" d="M13.106,25.252c-0.907,0-1.42-0.662-1.42-1.436v-3.482h0.401v3.482c0,0.697,0.492,1.111,1.041,1.111
			s1.041-0.414,1.041-1.111v-3.482h0.359v3.482C14.528,24.59,14.014,25.252,13.106,25.252z"/>
		<path fill="#808184" d="M18.651,25.174l-2.287-3.932c-0.19-0.332-0.338-0.635-0.338-0.635h-0.014c0,0,0.021,0.318,0.021,0.641
			v3.926h-0.338v-4.84h0.514l2.23,3.855c0.183,0.316,0.288,0.541,0.288,0.541h0.021c0,0-0.028-0.232-0.028-0.562v-3.834h0.337v4.84
			H18.651z"/>
		<path fill="#808184" d="M20.255,25.174v-4.84h0.401v4.84H20.255z"/>
		<path fill="#808184" d="M23.45,25.244c-1.084,0-1.767-1.082-1.767-2.49c0-1.373,0.668-2.49,1.759-2.49
			c0.422,0,0.703,0.113,0.901,0.254l-0.12,0.238c-0.148-0.105-0.409-0.211-0.725-0.211c-1.021,0-1.393,1.084-1.393,2.209
			c0,1.162,0.408,2.195,1.386,2.195c0.31,0,0.535-0.084,0.732-0.203l0.12,0.238C24.153,25.139,23.815,25.244,23.45,25.244z"/>
		<path fill="#808184" d="M25.201,25.174v-4.84h0.401v4.84H25.201z"/>
		<path fill="#808184" d="M27.438,23.092l-0.246-0.021v2.104h-0.394v-4.65c0.232-0.141,0.619-0.26,1.076-0.26
			c1.042,0,1.548,0.568,1.548,1.422C29.422,22.521,28.846,23.211,27.438,23.092z M27.833,20.518c-0.303,0-0.527,0.062-0.64,0.111
			v2.182l0.232,0.021c1.175,0.105,1.604-0.416,1.604-1.162C29.029,20.918,28.663,20.518,27.833,20.518z"/>
		<path fill="#808184" d="M32.666,25.174l-0.534-1.652h-1.773l-0.549,1.652h-0.38l1.675-4.84h0.316l1.661,4.84H32.666z
			 M31.414,21.305c-0.127-0.4-0.148-0.592-0.148-0.592h-0.014c0,0-0.035,0.184-0.169,0.584l-0.64,1.965h1.604L31.414,21.305z"/>
		<path fill="#808184" d="M33.876,25.174v-4.84h0.401V24.9h1.569v0.273H33.876z"/>
		<path fill="#808184" d="M39.449,25.244c-0.521,0-0.816-0.105-1.055-0.26l0.127-0.281c0.196,0.127,0.457,0.232,0.872,0.232
			c0.633,0,1.041-0.422,1.041-1.07c0-0.492-0.267-0.781-0.936-1.033c-0.83-0.311-1.055-0.811-1.055-1.281
			c0-0.689,0.493-1.287,1.28-1.287c0.401,0,0.725,0.113,0.922,0.254l-0.113,0.26c-0.169-0.113-0.45-0.232-0.788-0.232
			c-0.584,0-0.908,0.4-0.908,1c0,0.568,0.429,0.809,0.879,0.977c0.971,0.352,1.118,0.936,1.118,1.33
			C40.834,24.682,40.244,25.244,39.449,25.244z"/>
		<path fill="#808184" d="M43.347,25.244c-1.203,0-1.674-1.098-1.674-2.49c0-1.379,0.471-2.49,1.674-2.49
			c1.21,0,1.682,1.111,1.682,2.49C45.028,24.146,44.557,25.244,43.347,25.244z M43.347,20.537c-1.02,0-1.273,1.148-1.273,2.209
			c0,1.049,0.218,2.195,1.273,2.195c1.069,0,1.28-1.146,1.28-2.195C44.627,21.686,44.374,20.537,43.347,20.537z"/>
		<path fill="#808184" d="M46.428,20.607v1.914h1.562v0.275h-1.562v2.377h-0.401v-4.84h2.118v0.273H46.428z"/>
		<path fill="#808184" d="M50.066,20.607v4.566h-0.401v-4.566h-1.02v-0.273h2.441v0.273H50.066z"/>
		<path fill="#808184" d="M55.519,25.174h-0.352l-0.915-3.793c-0.07-0.301-0.105-0.555-0.105-0.555h-0.014
			c0,0-0.021,0.246-0.099,0.555l-0.929,3.793h-0.345l-1.154-4.84h0.429l0.796,3.834c0.057,0.281,0.099,0.557,0.099,0.557h0.014
			c0,0,0.042-0.275,0.112-0.557l0.929-3.834h0.338l0.922,3.834c0.063,0.254,0.105,0.557,0.105,0.557h0.014
			c0,0,0.042-0.303,0.099-0.557l0.83-3.834h0.38L55.519,25.174z"/>
		<path fill="#808184" d="M60.169,25.174l-0.534-1.652h-1.773l-0.549,1.652h-0.38l1.675-4.84h0.316l1.66,4.84H60.169z
			 M58.917,21.305c-0.127-0.4-0.148-0.592-0.148-0.592h-0.014c0,0-0.035,0.184-0.169,0.584l-0.641,1.965h1.604L58.917,21.305z"/>
		<path fill="#808184" d="M63.596,25.174l-1.815-2.322H61.76v2.322h-0.388v-4.656c0.197-0.127,0.592-0.254,1.076-0.254
			c0.992,0,1.527,0.514,1.527,1.4c0,0.914-0.627,1.406-1.646,1.371v0.014l1.737,2.125H63.596z M62.421,20.51
			c-0.282,0-0.5,0.043-0.661,0.127v2.146c0.091,0.027,0.302,0.055,0.499,0.055c0.894,0,1.322-0.414,1.322-1.168
			C63.581,20.875,63.188,20.51,62.421,20.51z"/>
		<path fill="#808184" d="M64.988,25.174v-4.84h2.133v0.273H65.39v1.914h1.569v0.275H65.39V24.9h1.731v0.273H64.988z"/>
	</g>
	<g>
		
			<rect x="78.867" y="12.337" transform="matrix(0.424 0.9056 -0.9056 0.424 60.9581 -65.2893)" fill="#00578D" width="5.884" height="5.886"/>
		
			<rect x="75.929" y="5.47" transform="matrix(0.4242 0.9056 -0.9056 0.4242 53.0341 -66.5807)" fill="#D8E0ED" width="5.885" height="5.884"/>
		
			<rect x="71.901" y="15.786" transform="matrix(0.4241 0.9056 -0.9056 0.4241 60.0629 -56.9934)" fill="#6B94BD" width="5.883" height="5.884"/>
		
			<rect x="86.984" y="19.429" transform="matrix(-0.4559 -0.89 0.89 -0.4559 110.2105 109.2947)" fill="#E48C1A" width="3.059" height="3.059"/>
		
			<rect x="90.885" y="17.864" transform="matrix(-0.4258 -0.9048 0.9048 -0.4258 113.8346 109.546)" fill="#2CA243" width="1.58" height="1.58"/>
		
			<rect x="88.733" y="23.823" transform="matrix(-0.4252 -0.9051 0.9051 -0.4252 105.3232 116.1399)" fill="#E03A3E" width="1.61" height="1.609"/>
	</g>
</g>
</svg>
