<?xml version="1.0" encoding="utf-8"?>
<!-- Generator: Adobe Illustrator 16.0.0, SVG Export Plug-In . SVG Version: 6.00 Build 0)  -->
<!DOCTYPE svg PUBLIC "-//W3C//DTD SVG 1.1//EN" "http://www.w3.org/Graphics/SVG/1.1/DTD/svg11.dtd">
<svg version="1.1" id="Layer_1" xmlns="http://www.w3.org/2000/svg" xmlns:xlink="http://www.w3.org/1999/xlink" x="0px" y="0px"
	 width="169.785px" height="170.857px" viewBox="182.146 0 169.785 170.857" enable-background="new 182.146 0 169.785 170.857"
	 xml:space="preserve">
<g>
	<defs>
		<circle id="XMLID_2_" cx="267.039" cy="85.428" r="78.717"/>
	</defs>
	<use xlink:href="#XMLID_2_"  overflow="visible" fill="#F4F4F4"/>
	<clipPath id="XMLID_16_">
		<use xlink:href="#XMLID_2_"  overflow="visible"/>
	</clipPath>
	<g clip-path="url(#XMLID_16_)">
		<path fill="#BCAA7D" stroke="#726658" stroke-miterlimit="10" d="M298.524,73.259c0.008,2.487-1.148,4.371-1.537,6.739
			c-0.213,1.289-0.803,2.576-0.934,3.847c-0.16,1.568,0.979,2.396,1.699,3.738c0.752,1.402,2.129,2.639,2.234,4.155
			c0.102,1.458-0.379,3.251-0.463,4.737c-0.049,0.893,0.002,1.679-0.197,2.531c-0.34,1.457-1.531,2.557-2.012,3.85
			c-0.686,1.848,0.922,3.551,1.699,5.274c0.314,0.698,0.387,1.21,1.051,1.571c0.359,0.195,1.191,0.385,1.631,0.168
			c1.424-0.707,0.414-1.748,0.512-2.778c2.197,1.364,1.469,3.589,0.688,5.466c-0.363,0.871-0.596,1.441-1.043,2.055
			c-0.154,0.213-0.666,0.275-0.795,0.494c-0.324,0.552-0.076,2.117,0.422,2.641c0.869,0.916,4.08,0.368,4.891-0.463
			c1.17-1.201-0.381-2.43-0.996-3.346c0.977,0.073,4.168,1.312,4.617,2.297c0.621,1.367-0.268,3.492-0.078,4.994
			c-2.418,1.855-6.338,4.343-9.357,3.197c-4.9-1.859-10.184-2.491-15.078-4.389c-1.639-0.635-2.953-2.104-4.662-2.51
			c-1.004-0.237-2.051-0.252-3.084-0.456c-5.35-1.06-11.275-0.79-16.518,0.339c-3.355,0.724-6.58,1.412-9.84,1.787
			c-2.074,0.238-4.164,0.219-6.236,0.383c-2.02,0.159-5.004-0.465-6.791,0.43c-0.223-1.268,0.492-2.889,0.641-4.143
			c0.24-2.031-0.473-3.51-0.137-5.629c0.635-4.011,0.129-8.334-0.605-12.453c-0.381-2.135-1.045-4.039-1.055-6.215
			c-0.016-3.535,1.055-7.223,2.408-10.463c0.797-1.904,2.416-3.917,2.758-5.907c0.234-1.356-0.066-2.917-0.211-4.246
			c-0.314-2.861,0.045-5.8,0.045-8.697c0-3.65,0.18-7.256,0.824-10.836c0.715-3.962,3.451-6.913,5.477-10.2
			c1.449-2.352,2.057-2.749,4.482-4.163c2.359-1.375,4.941-3.077,7.705-3.496c5.705-0.867,12.146,0.343,17.148,2.972
			c3.543,1.862,6.82,5.518,8.889,9.066c2.092,3.589,4.57,7.583,6.129,11.479c0.768,1.921,0.949,3.997,1.592,5.942
			c0.621,1.878,2.346,2.939,3.041,4.728C298.133,69.445,298.516,71.453,298.524,73.259z"/>
		<path fill="#DDCDA6" d="M253.434,96.925c0.412,3.006,2.174,7.055,0.508,9.672c-0.279-1.561-0.959-3.414-1.502-4.857
			c-0.488-1.303-1.156-2.586-1.336-4.003c-0.15-1.192,0.066-2.453-0.025-3.646c-1.035,0.16-1.719,2.54-1.85,3.442
			c-0.281,1.946,0.125,3.739,0.383,5.548c0.359,2.541,0.195,5.008-2.648,5.999c-0.035-1.317,0.594-2.64,0.322-4.054
			c-0.217-1.129-0.955-1.938-1.357-2.922c-0.865-2.121,0.189-3.859,0.934-5.721c0.496-1.24,0.908-2.514,1.146-3.83
			c0.225-1.256,0.104-2.291-0.01-3.529c-0.711,0.392-0.713,1.688-0.887,2.398c-0.24,0.976-0.42,1.961-0.504,2.979
			c-0.135,1.617-1.373,3.009-2.166,4.375c-0.719,1.242-0.244,2.625,0.002,4.055c0.09,0.516,0.043,1.064,0.156,1.557
			c0.242,1.068,0.963,1.95,1.24,3.027c0.242,0.949,0.355,1.99,0.201,2.943c-0.164,1.016-0.441,1.428-1.471,1.773
			c-0.25-1.215-0.75-2.405-1.135-3.605c-0.695-2.174-1.158-4.402-1.775-6.591c-0.256-0.908-0.322-1.996-0.221-2.942
			c0.086-0.801,0.447-1.107,0.885-1.768c0.373-0.564,0.727-1.201,1.182-1.703c0.875-0.967,1.486-1.299,1.416-2.622
			c-0.053-0.993-0.139-1.886-0.084-2.897c0.074-1.396,0.008-3.124,0.838-4.197c0.594-0.766,1.105-1.697,1.701-2.525
			c0.266-0.368,0.732-0.623,0.748-1.12c-0.02,0.622,1.012,0.945,1.41,1.146c0.621,0.312,1.01,0.72,1.328,1.364
			c0.615,1.251,0.621,2.696,0.951,4.028c0.32,1.289,1.441,2.166,1.803,3.437C254.051,93.666,253.215,95.331,253.434,96.925z"/>
		<path fill="#DDCDA6" d="M292.848,86.089c0.156,0.698,0.488,1.637,0.822,2.267c0.453,0.857,1.51,1.456,1.832,2.341
			c0.352,0.968-0.088,2.402-0.326,3.204c-0.699,2.349-1.209,4.95-1.318,7.495c-0.092,2.119,0.881,9.35,4.453,9.155
			c-0.73,1.101-2.363,0.183-3.275-0.171c-2.943-1.141-3.998-2.985-5.021-5.974c-0.76-2.216,0.285-4.595,0.855-6.97
			c0.273-1.133,0.92-2.805,0.662-3.98c-0.191-0.863-0.838-1.359-1.336-2.084c-0.67,0.957-0.209,2.444-0.549,3.535
			c-0.516,1.654-2.057,2.965-2.51,4.631c-0.482,1.781,0.02,4.098,0.684,5.655c1.342,3.146,3.252,4.667,5.906,6.87
			c1.377,1.143,2.805,3.121,2.184,5.005c-0.891-0.464-1.652-1.631-2.5-2.367c-1.254-1.089-2.555-2.181-3.846-3.175
			c-2.17-1.674-4.953-3.239-7.021-5.139c-2.826-2.595-0.48-5.186-0.52-8.479c-0.018-1.469-0.748-2.814-1.797-3.854
			c-0.768-0.762-2.033-1.246-2.406-2.258c2.068-3.521,3.59-6.271,4.682-10.209c0.408-1.472,0.898-3.163,1.521-4.516
			c0.645-1.398,2.502-2.85,2.861-4.327c1.127,1.036,1.77,2.572,2.762,3.732c0.922,1.079,2.832,1.338,3.326,2.771
			C293.637,81.187,292.37,83.95,292.848,86.089z"/>
		<path fill="#BF1724" stroke="#7F1717" stroke-width="2" stroke-miterlimit="10" d="M303.875,171.525
			c0.914,7.652,1.361,15.139,0.938,22.751c-0.229,4.113,1.443,8.077,3.014,11.759c0.943,2.215,1.492,3.356,3.801,4.385
			c1.086,0.484,1.752,0.545,2.971,0.568c2.721,0.053,8.838,1.135,11.295-1.297c0.854-0.846,2.305-3.125,2.547-4.248
			c0.346-1.588-0.139-1.741-0.707-3.264c-1.195-3.203-1.42-7-1.875-10.358c-0.496-3.649-0.934-7.361-1.18-11.01
			c-0.26-3.854,0.037-7.301-1.359-10.96c-1.338-3.5-2.383-6.546-3.834-9.873c-0.732-1.679-0.354-3.537-0.422-5.399
			c-0.084-2.306-0.627-4.487-1.006-6.753c-0.289-1.722-0.176-3.652-0.545-5.34c-0.719-3.272-3.182-5.312-4.826-7.955
			c-0.893-1.434-0.787-3.399-1.387-4.963c-0.764-1.997-1.73-4.241-3.174-5.843c-2.145-2.385-4.27-0.447-6.682,1.477
			c-2.988,2.387-2.402,7.442-3.045,10.814c-0.68,3.564-2,6.669-0.783,10.277c1.191,3.538,3.016,6.735,3.949,10.399
			C302.788,161.502,303.288,166.605,303.875,171.525z"/>
		<path fill="#BF1724" stroke="#7F1717" stroke-width="2" stroke-miterlimit="10" d="M235.438,143.787
			c0.35-5.816-6.297-22.717-14.441-15.999c-1.006,0.83-1.033,2.062-1.502,3.207c-2.088,5.109-3.311,9.529-4.006,15.203
			c-0.285,2.327-0.051,5.013-0.543,7.29c-0.926,4.271-3.406,8.17-4.25,12.52c-0.68,3.498-2.287,7.514-2.748,11.246
			c-0.574,4.641-2.508,9.271-2.766,13.984c-0.322,5.921-0.936,13.452,0.812,18.958c2.936,9.239,16.914,6.776,19.006-1.366
			c1.957-7.619,0.537-16.699,0.988-24.66c0.473-8.349,3.5-15.314,5.443-23.188c0.881-3.563,1.311-7.401,2.189-11.011
			C234.17,147.717,235.307,145.972,235.438,143.787z"/>
		<path fill="#BF1724" stroke="#7F1717" stroke-width="2" stroke-miterlimit="10" d="M225.219,126.159c0,0,19.93-11.17,40.93-11.17
			s39.15,8,39.15,8s-7,14.75-7.25,21.124c-0.25,6.375,5.324,12.875,5.324,20.625s-8.449,21.5-8.699,30.625s3.75,12.375,4.875,13.875
			c-4.375,6.125-5.525,5.625-11.775,7.5s-6.375,3.625-12.25,3.875s-9.674-2.515-9.674-2.515s-4,2.375-8.5,2.25
			s-9.875-0.625-23.625-8.875c2.5-3.5,3.375-3,3.375-14.375s-8.152-19.36-8.152-32.36s4.076-12.625,4.076-20.125
			C233.024,137.114,225.219,126.159,225.219,126.159z"/>
		<path fill="#E5D8C3" stroke="#726658" stroke-miterlimit="10" d="M266.024,157.088l-10.025-5.455
			c-7.135-14.62-15.055-32.128-12.584-33.116c1.293-0.518,2.648-1.111,3.984-1.777c10.701-5.352,6.875-21.75,4.125-28.375h29
			c-2.75,6.625-6.576,23.023,4.125,28.375c1.578,0.789,3.184,1.475,4.684,2.053c2.285,0.883-5.793,18.228-13.055,32.78
			L266.024,157.088z"/>
		<path fill="#D3C4AE" d="M281.538,118.243c0.316-1.91-4.295-6.827-4.857-8.739c-0.85-2.882-0.775-5.778-0.912-8.739
			c-0.057-1.196-0.672-5.404,0.205-6.25c-1.512,1.456-2.535,2.414-4.637,3.176c-2.361,0.855-7.023,0.514-9.602,0.041
			c-2.119-0.391-4.344-1.828-6.436-1.94c1.229,1.915,3.15,3.257,4.896,4.657c1.564,1.255,2.48,2.748,3.529,4.485
			c2.811,4.655,5.357,10.536,10.494,13.173c1.434,0.735,6.033,2.242,7.195,0.465C281.477,118.475,281.518,118.366,281.538,118.243z"
			/>
		<path fill="#E5D8C3" stroke="#918477" stroke-miterlimit="10" d="M266.18,35.24c19.973,0,22.127,20.061,22.127,28.561
			c0,17.625-10.129,37.642-22.199,37.642h0.145c-12.07,0-22.199-20.017-22.199-37.642C244.053,55.301,246.208,35.24,266.18,35.24z"
			/>
		<path opacity="0.1" fill="#231F20" d="M256.786,175.651c-0.312-3.244,1.092-7.798,3.312-10.106
			c1.027-1.068,1.74-1.664,3.238-2.049c0.529-0.137,1.789-0.037,2.199-0.258c0.602-0.326,0.734-1.127,0.969-1.268
			c2.078-1.259,5.607,0.203,7.227,1.662c2.574,2.322,3.93,6.412,4.824,9.586c4.369-1.282,7.826-4.188,9.844-8.207
			c1.576-3.141,1.316-7.193,1.125-10.857c-0.238-4.531-0.609-9.114-0.75-13.655c-0.072-2.332,0.527-5.32-0.232-7.467
			c-1.287,3.053-1.957,5.127-4.02,7.752c-2.104,2.677-4.02,5.444-6.5,7.517c-3.07,2.57-6.877,6.352-10.449,7.75
			c-3.064,1.198-4.602-2.023-7.67-2.111c-3.918-0.113-8.582,4.113-9.869,7.592c-0.986,2.671,0.221,4.133,1.633,6.373
			c0.824,1.311,1.652,2.619,2.504,3.914C254.754,172.707,256.688,174.64,256.786,175.651z"/>
		<path fill="#BF1724" stroke="#7F1717" stroke-miterlimit="10" d="M280.823,168.207c1.18-0.742-0.1-3.9-0.512-4.742
			c-0.986-2.018-2.561-4.185-4.732-5.045c-1.727-0.684-3.592-0.865-5.434-0.914c-2.547-0.066-3.23,1.047-5.09,2.686
			c0.305-0.27,0.57-1.637,0.762-2.061c0.723-1.59,1.596-3.405,2.713-4.767c1.25-1.524,9.354-16.947,10.449-18.82
			c0.951-1.627,5.203-11.09,6.299-14.118c0.473-1.304,0.209-2.306-0.445-3.507c-0.986-1.806-2.584-1.822-3.859-3.333
			c-0.961-1.137-2.594-3.163-2.387-4.703c1.855,0.481,4.266,1.504,5.609,2.34c1.205,0.75,2.584,1.634,3.545,2.636
			c1.137,1.185,2.406,3.91,2.738,5.57c0.404,2.021-0.51,10.123-0.809,12.145c-0.654,4.43-1.031,8.055-1.328,12.521
			c-0.209,3.111-2.271,13.638-2.818,16.27C284.723,164.212,283.055,166.802,280.823,168.207z"/>
		<path fill="#BF1724" stroke="#7F1717" stroke-miterlimit="10" d="M251.262,166.924c0.727-2.693,2.104-5.201,4.127-7.152
			c1.395-1.346,3.578-3.016,5.562-3.299c2.553-0.363,2.943,2.111,4.77,3.719c-0.307-0.27,0.869-1.637,0.678-2.061
			c-0.723-1.59-1.596-3.405-2.713-4.767c-1.252-1.524-9.354-16.947-10.449-18.82c-0.951-1.627-5.203-11.09-6.299-14.118
			c-0.473-1.304-0.607-2.632,0.445-3.507c1.723-1.43,2.582-1.822,3.859-3.333c0.959-1.137,2.594-3.163,2.387-4.703
			c-1.855,0.481-4.266,1.504-5.609,2.34c-1.205,0.75-2.584,1.634-3.545,2.636c-1.139,1.185-2.406,3.91-2.738,5.57
			c-0.404,2.021,0.51,10.123,0.809,12.145c0.654,4.43,1.031,8.055,1.328,12.521c0.207,3.111,0.844,6.281,1.342,9.369
			c0.42,2.604,0.74,5.105,1.289,7.738c0.801,3.85,1.469,6.895,4.16,9.86C250.7,169.668,250.899,168.272,251.262,166.924z"/>
		<path fill="#D3C4AE" d="M259.733,76.239c-2.598-2.906-6.551-3.347-9.482-5.889c-4.246-3.684-3.979-7.686-3.977-12.922
			c0-3.567,0.098-7.812,2.5-10.468c2.211,2.463,1.75,5.44,1.75,8.78c0,1.657-0.332,3.713,0.35,5.278
			c0.967,2.226,2.572,1.673,4.662,1.709c1.402,0.024,2.463,0.476,3.488,1.457c2.797,2.679,6.607,13.046,3.328,16.545
			C261.125,79.777,260.764,77.392,259.733,76.239z"/>
		<path fill="#D3B2BA" d="M249.471,68.653c2.254,0.142,3.887-1.078,6.055-1.017c0.801,0.022,5.965,0.863,6.25,1.504
			c-0.734-1.65-0.479-3.488-1.865-4.854c-1.264-1.243-3.23-1.545-4.92-1.66C250.463,62.318,249.942,64.888,249.471,68.653z"/>
		<path fill="#FFFFFF" d="M250.834,69.105c0.006,0.298,0.234,0.704,0.406,0.938c0.412,0.559,0.875,1.188,1.438,1.604
			c0.23,0.17,0.451,0.339,0.709,0.469c0.469,0.241,0.953,0.552,1.473,0.663c0.91,0.194,1.898,0.184,2.793-0.11
			c1.818-0.597,3.139-2.885,3.244-3.419l-3.738-2.201L250.834,69.105z"/>
		<path fill="none" stroke="#726658" stroke-width="0.75" stroke-miterlimit="10" d="M260.897,69.25
			c-0.105,0.535-1.426,2.822-3.244,3.419c-0.895,0.294-1.883,0.304-2.793,0.11c-0.52-0.111-1.004-0.422-1.473-0.663
			c-0.258-0.13-0.479-0.299-0.709-0.469c-0.562-0.415-1.025-1.045-1.438-1.604c-0.172-0.234-0.4-0.64-0.406-0.938"/>
		<path fill="#231F20" d="M259.409,68.196c-0.475,1.454-1.432,2.699-3.059,2.876c-0.836,0.091-1.656-0.111-2.334-0.572
			c-0.691-0.473-1.533-1.328-1.783-2.15l4.426-1.327L259.409,68.196z"/>
		<path fill="none" stroke="#5DCAE9" stroke-miterlimit="10" d="M259.409,68.196c-0.475,1.454-1.432,2.699-3.059,2.876
			c-0.836,0.091-1.656-0.111-2.334-0.572c-0.691-0.473-1.533-1.328-1.783-2.15"/>
		<path fill="#D3C4AE" d="M280.774,59.239c-2.922-0.369-5.998,1.192-8.445,2.501c-2.264,1.21-4.18,3.798-4.568,6.236
			c-0.473,2.964,0.014,7.216,0.701,9.989c0.254,1.02,1.615,3.062,1.586,3.736c-0.055,1.32-1.768,2.391-2.986,2.295
			c-0.143,2.141-0.389,4.103-0.537,6.212c-0.16,2.291,1.252,3.057,1.25,5.5c-0.004,2.82,0.271,4.562,2.812,3.038
			c1.629-0.978,3.422-2.385,4.75-3.97c2.602-3.107,4.768-5.552,6.5-9.201c1.553-3.275,3.713-8.433,4.131-12.198
			c0.232-2.082,0.057-4.286,0.057-6.389"/>
		<path fill="#FFFFFF" d="M271.319,69.25c0.105,0.535,1.424,2.739,3.242,3.419c0.883,0.33,1.883,0.304,2.795,0.11
			c0.518-0.111,1.002-0.422,1.473-0.663c0.258-0.13,0.477-0.299,0.709-0.469c0.562-0.415,1.025-1.045,1.438-1.604
			c0.172-0.234,0.4-0.64,0.406-0.938l-5.824-2.083L271.319,69.25z"/>
		<path fill="#D3B2BA" d="M283.036,68.653c-2.254,0.142-3.887-1.078-6.055-1.017c-0.801,0.022-5.967,0.863-6.252,1.504
			c0.734-1.65,0.48-3.488,1.867-4.854c1.264-1.243,3.23-1.545,4.918-1.66C282.042,62.318,282.565,64.888,283.036,68.653z"/>
		<path fill="none" stroke="#726658" stroke-width="0.75" stroke-miterlimit="10" d="M281.381,69.105
			c-0.006,0.298-0.234,0.704-0.406,0.938c-0.412,0.559-0.875,1.188-1.438,1.604c-0.232,0.17-0.451,0.339-0.709,0.469
			c-0.471,0.241-0.955,0.552-1.473,0.663c-0.912,0.194-1.912,0.22-2.795-0.11c-1.818-0.681-3.137-2.885-3.242-3.419"/>
		<path fill="#231F20" d="M272.807,68.196c0.475,1.454,1.432,2.699,3.057,2.876c0.836,0.091,1.658-0.111,2.336-0.572
			c0.691-0.473,1.533-1.328,1.781-2.15l-4.424-1.327L272.807,68.196z"/>
		<path fill="none" stroke="#5DCAE9" stroke-miterlimit="10" d="M272.807,68.196c0.475,1.454,1.432,2.699,3.057,2.876
			c0.836,0.091,1.658-0.111,2.336-0.572c0.691-0.473,1.533-1.328,1.781-2.15"/>
		<circle fill="#FFFFFF" cx="273.787" cy="68.638" r="0.755"/>
		<path fill="#D3C4AE" d="M250.024,43.989c1.406,0.158,2.131,1.193,3.367,1.693c1.012,0.41,2.984,0.623,3.85,0.833
			c4.059,0.987,6.064,2.761,9.082,5.224c2.279,1.86,4.549,4.567,7.562,5.193c1.533,0.319,2.465,0.186,3.82,1.056
			c1.014,0.651,1.85,1.712,2.963,2.224c0.641-1.673,0.289-1.739-0.838-2.786c-1.314-1.221-2.697-2.478-4.061-3.656
			c-2.16-1.868-4.51-3.347-6.627-5.27c-2.695-2.445-5.502-4.64-8.676-6.27c-1.457-0.749-3.469-0.987-5.076-1.118
			c-2.586-0.211-3.307,0.207-4.617,2.375"/>
		<path fill="#C64F66" d="M267.875,90.107c-0.469,0.05-3.031,0.05-3.5,0c-0.783-0.083-2.926-0.075-4.848-1.188
			c0.275,0.669,0.873,1.115,1.328,1.679c0.424,0.525,0.826,1.517,1.402,1.892c1.293,0.843,2.662,0.314,4.102,0.225
			c0.428-0.026,0.861,0.02,1.273,0.077c0.371,0.052,0.803,0.035,1.166,0.053c0.408,0.02,0.863-0.139,1.193-0.354
			c0.576-0.375,0.979-1.366,1.402-1.892c0.455-0.563,1.053-1.01,1.328-1.679C270.45,90.032,268.659,90.024,267.875,90.107z"/>
		<path fill="#C64F66" d="M272.536,88.43c-0.812-0.016-0.648-0.098-1.42,0.018c-0.709,0.107-1.211,0.15-1.963-0.004
			c-0.471-0.096-1.352-0.501-1.822-0.362c-0.6,0.181-0.588,1.089-1.309,1.102c-0.717-0.013-0.707-0.921-1.307-1.102
			c-0.471-0.139-1.354,0.267-1.822,0.362c-0.752,0.154-1.254,0.111-1.963,0.004c-0.771-0.115-0.607-0.033-1.42-0.018h-0.219
			c0.086,0.583,0.305,0.512,0.748,0.729c0.924,0.449,1.973,0.887,2.965,0.988c1.023,0.104,1.971,0.295,3.018,0.19
			c1.049,0.104,1.996-0.087,3.02-0.19c0.992-0.102,2.041-0.539,2.965-0.988c0.443-0.217,0.662-0.146,0.748-0.729H272.536z"/>
		<path fill="#918477" d="M261.442,81.77c0.594-0.41,2.781,0.658,3.629,0.816c1.602,0.3,3.576-0.328,5.053-0.943
			c-0.059,1.553-2.684,2.379-4.016,2.379C264.45,84.022,261.442,81.77,261.442,81.77z"/>
		<path fill="#E5D8C3" stroke="#726658" stroke-linecap="round" stroke-linejoin="round" stroke-miterlimit="10" d="M286.198,68.904
			c0.637-0.361,1.258-2.475,1.852-3.095c0.555-0.581,1.941-1.609,2.852-1.506c1.693,0.194,1.859,3.756,1.568,4.882
			c-0.324,1.253-0.783,2.167-1.527,3.267c-0.688,1.02-1.621,1.876-1.744,3.075c-0.117,1.16,0.529,1.889-0.365,2.904
			c-1.104,1.253-2.086-0.247-3.018-1.192"/>
		<path fill="#918477" d="M285.653,74.035c-0.035-0.623,0.158-1.438,0.475-1.978c0.383-0.651,1.109-0.979,1.553-1.578
			c0.576-0.779,1.137-1.919,1.885-2.564c0.285-0.248,0.469-0.375,0.867-0.319c0.488,0.692,0.533,1.793,0.025,2.385
			c-0.062-0.418-0.141-1.113-0.727-0.93c-0.162,0.633-0.559,1.331-0.957,1.868c-0.445,0.604-1.586,1.164-1.461,1.982
			c0.064,0.428,0.633,0.774,0.771,1.185c0.133,0.398-0.059,1.06-0.553,0.995c-0.396-0.053-0.359-0.843-0.652-1.044
			C286.471,73.756,286.086,74.128,285.653,74.035z"/>
		<path fill="#918477" d="M272.663,87.307c-0.107,0.589,0.379,0.282,0.428,0.816c-0.953,0.691-0.992,0.846-2.061,1.229
			c-1.66,0.598-3.115,0.507-4.865,0.615c-0.01,0-0.025,0.029-0.039,0.043c-0.014-0.014-0.029-0.043-0.039-0.043
			c-1.752-0.108-3.205-0.018-4.865-0.615c-1.07-0.384-0.748-0.538-1.701-1.229c0.047-0.534,0.535-0.228,0.428-0.816
			c-0.795-0.113-1.689,1.1-1.553,1.778c0.783,0.016,0.328-0.937,1.037-0.548c0.699,0.385,0.656,0.826,1.393,1.141
			c1.615,0.686,2.881,0.73,4.6,0.844c0.197,0.014,0.484,0.078,0.701,0.025c0.217,0.053,0.504-0.012,0.701-0.025
			c1.719-0.113,2.984-0.158,4.6-0.844c0.527-0.225,0.953-0.621,1.467-0.832c0.119-0.05,0.199-0.126,0.32-0.174
			c0.277-0.109,0.361,0.17,0.393,0.402c0.016,0.119,0.004,0.395,0.188,0.34c0.064-0.019,0.15-0.235,0.162-0.296
			c0.135-0.638-0.178-1.195-0.656-1.578C273.26,87.509,272.688,87.173,272.663,87.307z"/>
		<path fill="#231F20" d="M273.704,67.897c-0.678,0.329-1.289,0.874-2.041,1.307c-0.307,0.177-0.525,0.18-0.863,0.137
			c-0.154-0.019-0.309-0.014-0.453-0.08c-0.062-0.029,0.551-0.274,0.512-0.275c0.389-0.268,0.24-0.151,0.559-0.461
			c0.744-0.727,1.459-1.499,2.463-1.845c1.268-0.437,2.92-0.088,4.111,0.305c1.656,0.548,5.248,2.51,6.277-0.263
			c-0.143,0.932-0.463,1.592-1.83,2.275c0.648,0.137,1.537-0.238,2.189-0.27c-0.783,0.574-1.178,0.936-1.619,0.991
			c-0.555,0.069-0.838-0.017-1.406-0.113c-0.602-0.104-2.115-0.802-2.695-1.063c-0.66-0.298-0.883-0.476-1.568-0.726
			C275.872,67.283,275.151,67.199,273.704,67.897z"/>
		<path fill="#BCAA7D" stroke="#726658" stroke-miterlimit="10" d="M260.186,43.539c2.436,1.385,5.119,3.265,7.043,5.312
			c2.039,2.171,4.047,4.238,6.719,5.787c1.684,0.975,3.357,1.659,5.008,2.674c2.439,1.5,2.52,4.03,3.316,6.757
			c0.689,2.361,1.443,4.436,2.299,6.668c1.809,4.725,6.125,11.974,11.953,12.001c3.229,0.014,4.1-2.65,5.486-4.984
			c-0.846,0.104-1.385,1.039-2.145,1.15c-1.52,0.223-1.176-1.28-1.176-2.415c0-4.558,2.334-8.836,2.334-13.452
			c0-3.048,0.834-7.907-0.99-10.171c-2.6-3.226-6.389-5.385-8.734-8.813c2.141-0.084,4.842-1.219,5.514-3.258
			c-2.836,0.118-5.156-1.812-7.604-2.968c-6.338-2.995-11.201-7.146-18.312-8.726c-4.914-1.092-10.479,0.17-15.373,1.051
			c-1.654,0.298-3.893,0.718-5.184,1.898c-1.289,1.177-1.066,2.317-2.018,3.65c-1.811,2.539-5.1,3.925-7.957,2.603
			c1.297,0.499,2.225,1.924,3.803,1.792c-0.928,3.804-7.064,6.426-10.453,7.274c-0.664,1.972,1.508,2.877,0.508,4.926
			c-0.586,1.202-1.152,2.319-1.68,3.565c-0.938,2.218-2.756,4.343-3.029,6.742c-0.305,2.681,1.199,5.315,1.344,7.968
			c0.152,2.829-1.988,4.797-2.705,7.296c-0.836,2.92,4.369,5.869,3.494,9.154c-0.211,0.795-0.789,1.471-0.998,2.305
			c-0.637,2.537-0.268,5.646,1.193,7.816c2.75,4.091,6.287,9.555,2.807,14.348c-1.361,1.877-6.756,2.438-5.055-0.9
			c-1.717,1.123-3.188,1.054-3.07,3.314c0.066,1.291,0.041,4.19-1.213,4.837c0.453-0.233,4.246,2.497,5.014,2.848
			c1.668,0.765,3.688,0.938,5.498,1.046c0.859,0.051,1.426,0.244,2.246-0.205c0.799-0.438,1.592-1.513,2.305-2.142
			c1.545-1.36,3.734-2.612,3.984-4.683c0.414-3.455-0.221-7.371-1.301-10.637c-0.725-2.191-1.096-3.791-1.199-6.102
			c-0.1-2.203,3.576-2.969,3.332-5.129c-0.787-7,1.852-6.441,2.387-13.167c0.109-1.382-2.711-10.688-2.191-11.975
			c0.627-0.129,1.82,1.3,2.162,1.838c0.236-1.234,0.041-4.686-0.137-5.966c-0.254-1.822-0.482-4.695-0.363-6.552
			c0.234-3.674,0.463-6.191,1.648-9.671c0.18-0.529,0.396-0.898,0.258-1.475c-0.096-0.398-0.99-0.662-1.457-1.341
			c1.055,0.019,3.518,0.093,3.855-0.097c0.928-0.521,1.139-1.701,2.066-2.288C255.37,41.811,258.317,42.475,260.186,43.539z"/>
		<path fill="#DDCDA6" d="M245.024,52.389c-0.307,1.626-0.35,3.188-0.334,4.838c0.031,2.88,0.9,5.732,1.199,8.585
			c0.076,0.72,0.346,1.192,0.223,1.94c-0.451-0.597-0.83-1.367-1.424-1.818c-0.633-0.482-1.434-0.638-2.146-0.981
			c-1.377-0.662-0.945-2.048-1.326-3.465c-0.613-2.283-1.334-3.587-0.361-5.828c0.736-1.698,1.297-4.323,1.131-6.203
			c-0.352,0.813-1.047,1.458-1.461,2.235c-0.693,1.302-0.904,2.961-1.244,4.409c-0.586,2.486-1.09,4.753-1.09,7.3
			c0,2.187-0.41,4.46-0.188,6.627c0.229,2.195,0.926,5.224,1.799,7.296c0.523,1.242,1.018,1.996,1.26,3.21
			c0.514,2.577,1.031,5.247,0.6,7.942c-0.361,2.26-1.697,4.392-2.145,6.416c-0.262,1.178,0.125,2.646,0.373,3.775
			c0.549,2.469,1.107,4.932,1.65,7.383c0.271,1.216,0.131,2.079-0.062,3.245c-0.215,1.304,0.346,2.611,0.08,3.917
			c-0.283,1.406-1.639,1.807-2.861,1.727c-0.936-0.062-1.877,0.055-2.375,0.873c-0.424,0.693-0.035,2.445-0.729,2.916
			c-0.566,0.387-1.994-0.433-2.57-0.541c-1.15-0.215-1.271,0.635-2.201,0.9c-1.045,0.299-1.055-0.972-1.342-2.038
			c-0.264-0.974-0.67-1.692-0.402-2.714c1.062,0.621,1.471,2.545,2.574,1.701c0.463-0.354,0.795-1.762,1.371-1.846
			c0.824-0.119,0.822,1.853,1.389,2.139c1.16,0.586,1.094-1.074,1.084-1.756c-0.02-1.301,0.264-1.027,1.27-1.702
			c2.486-1.669,1.684-5.657,1.25-8.003c-0.363-1.97-0.516-4.138-0.824-6.131c-0.35-2.257-0.871-4.375-0.5-6.668
			c0.641-3.941,1.682-9.697-0.373-13.382c-0.225,0.77-0.209,1.592-0.424,2.354c-0.184,0.65-0.422,0.731-0.758,1.255
			c-0.762,1.182-0.359,1.881,0.064,3.141c0.244,0.729,0.389,1.58,0.295,2.377c-0.166,1.406-1.617,2.782-0.75,3.874
			c0.41,0.517,0.84,0.421,0.996,1.228c0.156,0.795-0.271,1.334-0.383,2.041c-0.201,1.264,1.045,2.615,0.736,3.729
			c-0.768,0.165-1.334-1.643-1.865-2.16c-0.488-0.473-0.785-0.189-0.967-1.004c-0.117-0.527,0.18-0.983,0.127-1.492
			c-0.156-1.545-1.564-0.211-1.363-2.223c0.336-3.344,2.408-6.348,0.955-9.81c-0.373-0.89-1.607-2.797-1.59-3.795
			c0.033-1.883,3.115-3.291,3.504-5.427c0.457-2.519,0.295-5.761,0.104-8.374c-1.07,1.312-2.383,2.456-3.148,3.979
			c0.025-1.781-0.254-4.011,0.219-5.588c0.475-1.577,1.801-2.753,2.631-4.138c1.322-2.209,2.016-5.966,1.387-8.55
			c1.025-0.585,2.189-0.761,3.242-1.418c1.438-0.898,2.531-2.34,4.012-3.138c0.574,1.087,2.244,1.659,2.627,2.76
			C246.375,49.489,245.247,51.208,245.024,52.389z"/>
		<path fill="#E5D8C3" stroke="#726658" stroke-linecap="round" stroke-linejoin="round" stroke-miterlimit="10" d="M246.739,68.904
			c-0.639-0.361-1.26-2.475-1.854-3.095c-0.555-0.581-1.941-1.609-2.852-1.506c-1.693,0.194-1.859,3.756-1.568,4.882
			c0.326,1.253,0.785,2.167,1.527,3.267c0.689,1.02,1.623,1.876,1.744,3.075c0.117,1.16-0.529,1.889,0.365,2.904
			c1.104,1.253,2.086-0.247,3.02-1.192"/>
		<path fill="#DDCDA6" d="M259.499,39.361c2.117,0.366,3.201,1.879,4.789,3.206c3.715,3.105,6.932,7.134,10.748,10.185
			c1.24,0.991,2.482,1.993,4.154,2.154c0.52,0.05,1.197-0.162,1.625,0.144c0.613,0.438,0.879,2.025,1.08,2.719
			c0.471,1.633,1.072,3.095,1.775,4.644c0.711,1.566,1.584,3.191,2.102,4.83c0.074,0.237,0.127,0.453,0.254,0.683
			c0.59,1.077,0.859,0.887,1.736,1.265c0.197,0.855-0.014,1.453,0.012,2.297c0.029,1.005,0.492,1.04,1.23,1.438
			c0.965,0.518,0.699,1.325,0.854,2.25c0.17,1.03,1.287,2.48,2.326,2.633c-0.504-0.314-0.357-1.126-0.406-1.648
			c-0.076-0.806-0.227-1.595-0.176-2.412c0.037-0.588,0.385-2.072,0.07-2.593c-0.256-0.425-0.787-0.315-1.146-0.506
			c-1.223-0.649-0.205-2.727-0.551-3.879c-0.252-0.835-1.016-1.144-1.699-1.553c-0.949-0.567-1.031-1.041-1.367-2.017
			c-0.85-2.469-2.086-4.574-1.701-7.305c0.896,0.455,1.695,2.453,2.211,3.269c1.316,2.081,2.84,4.028,3.895,6.244
			c0.914,1.921,1.082,3.404,1.207,5.604c0.076,1.338,0.5,2.638,0.705,3.964c0.117,0.75,0.344,1.79,0.756,2.438
			c0.438,0.685,1.275,1.439,2.055,1.692c0.332-0.492-0.301-2.653-0.346-3.521c-0.139-2.675,0.764-5.47,0.342-8.113
			c-0.422-2.656-3.125-5.032-4.279-7.464c-0.861-1.818-1.562-3.646-2.074-5.543c0.174,0.641,1.629,1.148,2.068,1.604
			c0.57,0.591,0.543,1.476,0.861,2.246c0.385,0.931,1.281,1.116,2.26,1.341c1.797,0.414,1.104,1.087,0.494,2.463
			c-0.697,1.569,1.086,1.642,1.973,2.463c0.379,0.351,0.467,0.758,0.521,1.24c0.057,0.493-0.098,1.292,0.404,1.556
			c-0.062-1.451,1.908-2.747,0.23-3.96c-0.711-0.514-0.758-0.87-0.514-1.819c0.324-1.251,1.531-2.777,0.529-3.904
			c-0.893-1-2.162,0.001-3.316-0.365c-0.393-0.125-0.697-0.514-0.666-0.922c0.039-0.522,0.461-0.459,0.771-0.811
			c1.598-1.81-1.936-4.131-3.373-4.819c-0.734-0.351-2.135-0.503-2.475-1.278c-0.371-0.845,0.018-2.109-0.086-3.015
			c-0.17-1.49-0.045-3.227-0.822-4.574c-0.289-0.503-0.928-1.145-1.424-1.476c-1.992-1.333-5.094-2.021-7.184-3.109
			c-2.566-1.335-5.482-2.49-8.223-3.372c-1.225-0.395-4.975-0.462-5.486-1.356c-3.279-0.594-6.525-1.936-9.674-1.102
			c-1.771,0.469-2.264,1.069-3.559,2.207c-1.26,1.108-3.131,2.413-3.734,4.184c0.75-0.195,1.08-1.042,1.705-1.512
			c1.17-0.878,2.605-0.71,3.9-1.129c0.861-0.279,1.354-0.851,2.32-1.014c0.768-0.129,1.693,0.009,2.465,0.009
			c3.42,0,6.832-0.31,10.119,0.813c1.34,0.457,2.529,1.443,3.707,2.064c3.223,1.699,6.857,2.477,10.119,4.16
			c5.033,2.597,3.967,7.981,4.781,12.738c-0.51-1.48-2.002-2.658-2.969-3.856c-0.881-1.094-1.875-2.199-2.838-3.216
			c-1.588-1.676-3.639-2.766-5.439-4.225c-1.689-1.37-3.893-2.44-5.92-3.06c-1.156-0.354-3.686-1.041-4.639-0.966
			c1.244,0.371,2.898,1.557,4.031,2.165c1.502,0.808,2.871,2.021,4.299,3.032c2.135,1.511,5.957,3.912,6.441,6.615
			c-1.592,0.561-4.635-1.859-5.684-2.527c-1.746-1.113-3.277-2.446-4.934-3.609c-0.984-0.692-2-1.33-2.898-2.155
			c-1.447-1.327-2.818-3.39-4.592-4.271c-1.535-0.764-3.352-0.701-5.045-0.701c-2.424,0-4.316-0.357-6.197,0.838
			c-1.164,0.741-1.59,2.115-2.615,2.949c-0.826,0.674-2.047,0.746-2.838,1.518c2.336,0.235,5.061-1.139,7.111-2.148
			C255.682,39.394,257.137,38.953,259.499,39.361z"/>
		<path fill="#918477" d="M247.282,73.316c0.035-0.623-0.156-1.438-0.473-1.978c-0.385-0.651-1.111-0.979-1.555-1.578
			c-0.574-0.779-1.137-1.919-1.883-2.564c-0.287-0.248-0.471-0.375-0.869-0.319c-0.488,0.692-0.533,1.793-0.025,2.385
			c0.062-0.418,0.141-1.113,0.729-0.93c0.16,0.633,0.559,1.331,0.955,1.868c0.445,0.604,1.586,1.164,1.463,1.982
			c-0.066,0.428-0.635,0.774-0.771,1.185c-0.135,0.398,0.057,1.06,0.551,0.995c0.398-0.053,0.361-0.843,0.652-1.044
			C246.463,73.036,246.848,73.408,247.282,73.316z"/>
		<path fill="#BF1724" stroke="#7F1717" stroke-miterlimit="10" d="M266.524,160.738c1.5,7.25,1,35.75,0,53"/>
		<path opacity="0.1" fill="#231F20" d="M302.274,124.989c-1.398,2.022-2.055,5.408-2.746,7.77c-0.58,1.98-1.209,3.994-1.748,5.977
			c-0.832,3.07-1.461,6.552-1.701,9.698c-0.545,7.182,4.324,12.415,2.645,19.533c-1.246,5.279-1.59,9.788-4.207,14.523
			c-2.76,4.994-4.393,9.787-3.998,15.604c0.145,2.128,0.443,4.656,0.99,6.683c0.369,1.366,2.094,3.321,1.502,4.71
			c-0.404,0.949-3.217,2.064-4.166,2.31c-3.092,0.797-6.785,0.075-9.824,1.142c-0.867,0.305-1.766,0.841-2.41,0.949
			c1.768-3.5,0.848-7.65,1.41-11.4c0.449-2.995,2.594-5.662,2.502-8.814c-0.074-2.604-1.764-5.665-1.209-8.227
			c0.383-1.762,1.998-3.06,3.262-4.258c2.887-2.734,6.213-5.213,8.621-8.389c2.594-3.424,3.314-7.895,2.211-12.168
			c-0.916-3.541-1.684-7.414-1.883-11.143c-0.27-5.094,1.957-9.755,2-14.767c0.023-2.828,0-5.655,0-8.482
			c0-1.648-0.33-3.536,1.531-4.062c2.709-0.764,5.238,2.021,7.719,2.562"/>
		<path opacity="0.1" fill="#231F20" d="M235.024,169.738c0.246,1.864,3.389,4.057,4.73,5.432c1.803,1.847,3.557,2.946,5.924,3.673
			c2.006,0.616,3.572,1.226,5.551,1.396c1.451,0.126,3.078-0.656,4.293-0.512c3.877,0.462,3.541,7.094,3.209,10.031
			c-0.643,5.678,0.104,11.264-0.246,16.945c-2.301,0.074-3.906-4.785-5.35-6.539c-2.68-3.258-6.666-6.037-10.131-8.407
			c-3.693-2.528-5.92-5.846-7.391-10.08c-1.053-3.03-3.209-8.761-1.59-11.688"/>
		<path opacity="0.1" fill="#231F20" d="M310.813,137.772c-1.129-1.984-1.18-10.08-4.783-9.477
			c-2.768,0.463-1.441,4.565-0.959,6.255c0.906,3.163,1.643,6.317,2.562,9.484c2.182,7.497,6.33,14.648,6.383,22.636
			c0.02,2.727,0.473,5.421,0.52,8.153c0.064,3.752-0.377,7.461,0.713,11.105c0.424,1.415,1.459,2.928,1.781,4.264
			c0.693,2.879,0.48,6.315,0.5,9.261c0.01,1.61-0.637,4.423,0.793,5.777c1.418,1.342,3.553-0.312,4.127-1.976
			c0.83-2.416,0.242-6.518,0.244-9.011c0.002-2.275-0.256-4.478-0.25-6.753c0.025-9.735-1.564-18.287-4.17-27.145
			c-0.684-2.325-1.549-4.737-2.146-7.105c-0.854-3.383-0.727-7.264-1.865-10.551C313.663,140.962,311.827,139.556,310.813,137.772z"
			/>
		<path opacity="0.1" fill="#231F20" d="M224.274,192.228c-0.029-2.673-0.771-4.785-1.457-7.355
			c-0.916-3.424-0.928-7.891-0.555-11.44c0.217-2.068,1.197-4.282,1.988-6.228c0.793-1.953,1.717-3.486,2.139-5.586
			c0.457-2.275,0.777-4.581,1.361-6.822c1.611-6.17,5.82-11.521,2.775-17.567c-0.717-1.423-4.197-7.059-6.008-6.295
			c-1.186,0.502-0.861,4.521-0.99,5.535c-0.783,6.181-1.699,12.362-2.574,18.536c-1.293,9.131-2.756,17.783-5.527,26.609
			c-0.67,2.137-1.896,3.803-2.158,6.053c-0.611,5.266,0.951,10.549-0.4,15.706c-1.549,5.914,5.291,8.404,8.713,3.763
			C224.663,202.954,224.327,197.164,224.274,192.228z"/>
		<path fill="#231F20" d="M258.51,67.897c0.68,0.329,1.291,0.874,2.043,1.307c0.307,0.177,0.525,0.18,0.863,0.137
			c0.154-0.019,0.309-0.014,0.453-0.08c0.062-0.029-0.617-0.31-0.578-0.31c-0.422-0.233-0.174-0.116-0.492-0.426
			c-0.746-0.727-1.459-1.499-2.463-1.845c-1.268-0.437-2.922-0.088-4.111,0.305c-1.656,0.548-5.248,2.51-6.277-0.263
			c0.143,0.932,0.461,1.592,1.83,2.275c-0.648,0.137-1.537-0.238-2.189-0.27c0.783,0.574,1.178,0.936,1.619,0.991
			c0.555,0.069,0.836-0.017,1.406-0.113c0.602-0.104,2.115-0.802,2.695-1.063c0.66-0.298,0.881-0.476,1.568-0.726
			C256.344,67.283,257.065,67.199,258.51,67.897z"/>
		<circle fill="#FFFFFF" cx="253.749" cy="68.998" r="0.754"/>
		<path fill="none" stroke="#FBC23B" stroke-linecap="round" stroke-linejoin="round" stroke-miterlimit="10" d="M251.598,113.565
			c0,5.633,13.553,13.643,14.35,13.594c0.709-0.043,15.047-7.141,15.047-13.297"/>
		<path fill="#FFFFFF" stroke="#FBC23B" stroke-miterlimit="10" d="M264.934,131.573c-0.338,2.487,2.148,1.891,2.141-0.184
			c-0.006-1.367-1.176-2.746-1.156-3.98C265.897,128.784,265.12,130.194,264.934,131.573z"/>
		
			<circle fill="#FFFFFF" stroke="#FBC23B" stroke-width="0.5" stroke-linecap="round" stroke-linejoin="round" stroke-miterlimit="10" cx="244.083" cy="77.792" r="0.667"/>
		
			<circle fill="#FFFFFF" stroke="#FBC23B" stroke-width="0.5" stroke-linecap="round" stroke-linejoin="round" stroke-miterlimit="10" cx="288.191" cy="77.792" r="0.667"/>
		<path fill="#918477" d="M260.268,64.704c-0.068-0.012-0.336-0.223-0.424-0.266c-0.15-0.076-0.268-0.199-0.396-0.277
			c-1.182-0.708-2.758-1.157-4.164-1.078c-1.131,0.062-2.193,0.316-3.256,0.697c-0.455,0.164-0.922,0.265-1.385,0.407
			c-0.305,0.094-0.777,0.412-1.084,0.141c0.297-0.117,3.775-1.778,4.348-1.987c0.369-0.135,0.799-0.382,1.203-0.354
			c0.826,0.057,4.432,0.988,4.824,1.13c0.367,0.135,0.512,0.141,0.92,0.089c0.209-0.027,0.482-0.167,0.684-0.118
			c-0.062,0.467-0.107,0.794-0.441,1.15C260.913,64.437,260.571,64.763,260.268,64.704z"/>
		<path fill="#918477" d="M271.946,64.704c0.07-0.012,0.338-0.223,0.424-0.266c0.15-0.076,0.27-0.199,0.398-0.277
			c1.18-0.708,2.756-1.157,4.164-1.078c1.131,0.062,2.191,0.316,3.256,0.697c0.455,0.164,0.922,0.265,1.385,0.407
			c0.305,0.094,0.777,0.412,1.082,0.141c-0.297-0.117-3.773-1.778-4.348-1.987c-0.369-0.135-0.797-0.382-1.201-0.354
			c-0.828,0.057-4.432,0.988-4.824,1.13c-0.367,0.135-0.512,0.141-0.92,0.089c-0.211-0.027-0.482-0.167-0.684-0.118
			c0.061,0.467,0.107,0.794,0.439,1.15C271.303,64.437,271.645,64.763,271.946,64.704z"/>
	</g>
</g>
</svg>
