<?xml version="1.0" encoding="utf-8"?>
<!-- Generator: Adobe Illustrator 16.0.0, SVG Export Plug-In . SVG Version: 6.00 Build 0)  -->
<!DOCTYPE svg PUBLIC "-//W3C//DTD SVG 1.1//EN" "http://www.w3.org/Graphics/SVG/1.1/DTD/svg11.dtd">
<svg version="1.1" id="Layer_1" xmlns="http://www.w3.org/2000/svg" xmlns:xlink="http://www.w3.org/1999/xlink" x="0px" y="0px"
	 width="169.785px" height="170.857px" viewBox="831.797 0 169.785 170.857" enable-background="new 831.797 0 169.785 170.857"
	 xml:space="preserve">
<g>
	<defs>
		<circle id="XMLID_5_" cx="916.69" cy="85.428" r="78.717"/>
	</defs>
	<use xlink:href="#XMLID_5_"  overflow="visible" fill="#F4F4F4"/>
	<clipPath id="XMLID_16_">
		<use xlink:href="#XMLID_5_"  overflow="visible"/>
	</clipPath>
	<g clip-path="url(#XMLID_16_)">
		<path fill="#5E1D1D" stroke="#3A1212" stroke-width="2" stroke-miterlimit="10" d="M967.19,193.725
			c0.736,2.391-0.201,6.26,0.799,8.361c1.238,2.602,4.647,0.395,6.838-0.305c3.483-1.112,6.955-1.674,10.647-0.851
			c2.036,0.454,4.345,3.626,6.185,1.588c1.551-1.72-1.176-8.6-1.462-10.341c-0.663-4.028-2.886-9.146-3.24-13.26
			c-0.628-7.291-1.806-14.734-3.392-21.867c-0.775-3.484-1.582-6.715-1.742-10.305c-0.316-7.025-8.994-29.082-16.142-20.627
			c-3.68,4.358-4.009,8.578-5.312,13.791c-1.087,4.354-1.395,8.874-1.532,13.345c-0.126,4.057,0.802,7.382,1.147,11.327
			C960.809,174.01,964.38,184.612,967.19,193.725z"/>
		<path fill="#5E1D1D" stroke="#3A1212" stroke-width="2" stroke-miterlimit="10" d="M870.008,171.401
			c1.564-9.543,3.783-15.745,2.54-25.418c-0.604-4.703-1.843-9.529-4.136-13.713c-1.484-2.707-4.674-7.695-8.053-7.873
			c-2.348-0.123-2.939,1.433-3.945,3.36c-1.181,2.26-2.714,5.43-3.564,7.815c-1.18,3.311-0.473,6.824-1.543,10.158
			c-1.564,4.879-1.352,6.898-3.326,11.683c-2.051,4.966-2.113,8.308-3.244,13.528c-0.248,1.144-0.434,2.238-0.496,3.425
			c-0.357,6.788-0.658,13.165-2.029,19.812c-0.76,3.684-2.795,8.785-1.274,12.208c1.522,3.428,4.288,1.582,7.111,0.639
			c2.458-0.82,2.609-1.268,5.202-0.645c2.803,0.676,5.404,2.006,8.189,2.818c3.537,1.033,3.082-0.017,3.812-2.811
			c0.562-2.16,2.465-3.996,2.748-6.227c0.295-2.318,0-4.947,0-7.273c0-3.395-0.062-6.793,0-10.186
			C868.071,178.923,869.396,175.137,870.008,171.401z"/>
		<path fill="#5E1D1D" stroke="#3A1212" stroke-width="2" stroke-miterlimit="10" d="M886.75,110.637
			c-2.816,1.252-5.656,4.213-8.64,4.8c-1.685,0.331-3.493,2.609-5.21,2.692c-2.734,0.13-4.02,1.301-6.464,2.512
			c-1.854,0.919-5.325,1.799-6.3,3.83c-0.912,1.903,1.018,4.363,2.102,6.466c2.211,4.288,1.645,6.259,2.949,10.812
			c1.083,3.778,1.951,6.656,2.441,10.889c0.543,4.666,3.486,10.535,3.611,15.18c0.087,3.305,0.981,4.352,1.319,7.854
			c0.577,5.98,0.597,9.663,0.69,15.717c0.111,7.121,1.029,16.382,0.045,23.367c-0.84,5.954-0.422,12.525,0.193,18.479
			c0.227,2.193,0.557,4.283,0.3,6.493c-0.374,3.218-1.204,6.347-1.007,9.623c1.084,0.329,2.463-3.612,3.42-4.435
			c-0.137,1.971,0.21,5.368,2.15,6.471c1.002,0.569,2.445,0.49,3.576,0.835c1.504,0.458,3.014,0.896,4.529,1.315
			c6.48,1.793,13.354,3.617,20.129,3.538c2.07-0.024,4.128-0.083,6.182-0.435c0.705-0.121,1.352-0.439,1.914-0.527
			c2.095-0.325,3.645,0.24,5.665,0.312c1.966,0.068,3.952-0.055,5.916-0.158c3.937-0.21,7.876-0.519,11.792-0.975
			c10.777-1.255,20.195-5.904,20.195-5.904c0.09-2.138,0.014-13.649-0.115-15.875c-0.338-5.867,1.199-17.859,1.366-23.713
			c0.284-9.98-0.755-19.92-0.751-29.895c0.008-16.283,3-20.018,5.5-36.018c0.365-2.329-1.079-5.619,1.508-10.77
			c0.986-1.965,5.084-8.41,5.182-9.844c0.111-1.666-9.248-4.898-11.758-5.684c-5.35-1.673-12.65-4.659-17.148-8.051
			c-4.992-3.766-6.969-3.516-13.307-1.357c-3.512,1.197-7.266,1.894-10.893,2.83c-2.408,0.621-4.741,0.769-7.242,0.699
			c-4.281-0.121-9.844-2.803-14.092-3.324C892.329,107.878,891.25,108.637,886.75,110.637z"/>
		<path fill="#FFFFFF" d="M909.61,134.038c0.045,0.211,0.094,0.422,0.146,0.632c1.006,3.964,3.008,7.366,4.939,10.699
			c0.212-1.463,1.508-3.231,2.117-4.675c0.602-1.43,1.105-3.188,1.732-4.734c1.951-4.812,5.563-7.53,8.616-11.451
			c0.661-0.85,3.7-8.222,2.999-8.293c-1.786-0.182-2.857,1.287-4.242,2.146c-1.774,1.102-4.094,2.061-6.129,2.539
			c-2.454,0.576-4.207,1.199-6.678,0.668c-1.768-0.381-6.584-3.035-7.42-1.461c-0.689,1.295,1.623,4.336,2.141,5.478
			C909.036,128.241,908.995,131.182,909.61,134.038z"/>
		<path fill="#493428" stroke="#594A42" stroke-linecap="round" stroke-linejoin="round" stroke-miterlimit="10" d="M924.879,82.894
			c-7.914,1.706-17.133,2.369-25.213,1.547c-2.87-0.292-5.726-2.502-8.471-2.493c-0.134,3.866,3.681,9.531,1.84,13.333
			c1.975,1.273,2.824-0.069,5.094,0.853c4.906,1.992,9.939,1.346,15.15,1.117c7.043-0.307,11.973,0.428,18.477-1.778
			c0.039-0.86-0.004-1.757,0.053-2.616c0.835,0.716,1.923,0.676,3.17,0.62c0.029-4.31-0.91-9.972-0.402-14.386
			c-1.025,0.445-1.795,1.33-2.805,1.834C929.774,81.923,927.049,82.427,924.879,82.894z"/>
		<path fill="#D7C8AA" stroke="#736759" stroke-miterlimit="10" d="M900.584,89.387c0.666,10.167-0.5,19.834-3,23.834
			c2.666,1.833,11.166,8.333,17.333,8.333s11.833-4.167,16.833-7.167c-3.5-7.166-4.832-14.666-4.832-24.5
			C917.75,87.887,909.584,88.054,900.584,89.387z"/>
		<path opacity="0.1" d="M912.782,104.387c0.305,3.273,2.086,6.314,2.748,9.506c0.195,0.938,0.056,2.821,0.795,3.514
			c2.312,2.165,6.4,0.016,8.457-1.031c1.312-0.67,2.261-0.877,2.748-2.232c0.873-2.43-0.65-7.393-1-9.788
			c-0.413-2.828-0.386-5.89-0.536-8.93c-0.315-0.054-0.636-0.056-0.962-0.038"/>
		<path fill="#D7C8AA" stroke="#736759" stroke-miterlimit="10" d="M912.936,106.637c10.648,0,20.984-17,20.984-33.75
			c4.742-24.75-2.788-38.5-20.92-38.5c-18.128,0-25.658,13.75-20.916,38.5C892.084,89.637,901.918,106.637,912.936,106.637z"/>
		
			<path fill="#D7C8AA" stroke="#736759" stroke-width="0.9" stroke-linecap="round" stroke-linejoin="round" stroke-miterlimit="10" d="
			M892.75,70.554c-1.953-1.818-3.609-4.001-6.547-4.098c-2.674-0.088-1.42,4.097-0.615,5.565c1.179,2.15,1.723,3.42,3.13,5.427
			c0.857,1.223,0.454,2.521,0.921,3.88c0.381,1.11,2.59,3.776,4.24,1.826"/>
		<path fill="#493428" stroke="#594A42" stroke-linecap="round" stroke-linejoin="round" stroke-miterlimit="10" d="M904.547,40.739
			c1.561-0.578,2.555-0.587,4.144-0.68c1.665-0.097,3.724-1.333,5.287-1.191c1.759,0.159,4.079,2.332,5.688,3.498
			c4.082,2.958,4.96,7.742,7.701,11.627c1.033,1.465,2.385,3.012,3.707,4.208c0.611,0.554,1.529,0.971,1.915,1.728
			c0.577,1.131,0.266,0.449,0.224,1.647c-0.109,3.204-0.135,6.444-0.128,9.671c0.295-0.474,2.647-0.512,3.608-0.757
			c1.159-0.296,2.279-0.801,3.362-1.13c0.212-2.113,0.925-3.613,1.058-5.782c0.855,0.649-0.494-7.668-1.363-12.522
			c0.976,0.779-2.623-7.896-5.025-11.768c-2.102-3.385-5.434-4.602-7.916-7.559c-0.334-0.398-0.875-0.29-1.354-0.476
			c-1.021-0.397-3.276-0.572-4.425-0.522c-2.019,0.087-4.066-0.008-6.087-0.008c-2.311,0-4.581,0.594-6.896,0.491
			c-1.781-0.08-3.537-0.739-5.123,0.35c-1.115,0.767-1.666,1.979-2.937,2.625c-0.46,0.233-5.356,1.613-5.518,1.042
			c0.587,2.09,2.667,4.351,4.098,5.938C900.409,43.21,902.262,41.586,904.547,40.739z"/>
		<path opacity="0.1" d="M904.584,59.221c2.384,0.206,4.475-1.508,6.66-2.283c2.534-0.899,6.123-2.754,7.486,0.845
			c0.498,1.318,0.299,3.067,0.537,4.454c0.317,1.853,0.811,3.688,0.264,5.554c-0.562,1.916-2.132,3.411-2.859,5.272
			c-1.182,3.033,2.041,8.834-2.571,9.921c-2.079,0.49-3.576-1.488-5.329-1.328c0.17-0.016,2.486,3.434,3.074,3.784
			c2.432,1.447,6.541,0.888,8.653,2.929c0.755,0.729,1.064,2.646,1.024,3.645c-0.08,1.979-2.011,2.149-3.017,3.496
			c-1.001,1.339-0.089,3.714-0.479,5.308c-0.273,1.122-1.539,2.614,0.342,2.177c0.932-0.217,1.876-1.683,2.534-2.291
			c2.709-2.498,5.865-4.979,7.136-8.585c2.125-6.04,3.107-11.976,3.887-18.227c0.317-2.544-0.422-5.095-0.305-7.646
			c0.07-1.528,0.58-3.854-0.188-5.225c-1.681-3-5.257-4.727-6.891-7.93c-0.508-0.995-0.799-1.95-0.996-3.042
			c-0.152-0.852,0.024-2.407-0.504-3.121c-1.141-1.54-4.138,0.549-5.645,1.493c-3.589,2.247-8.294,5.197-11.314,8.132"/>
		
			<path fill="#D7C8AA" stroke="#736759" stroke-width="0.9" stroke-linecap="round" stroke-linejoin="round" stroke-miterlimit="10" d="
			M933.122,70.554c1.953-1.818,3.609-4.001,6.547-4.098c2.674-0.088,1.42,4.097,0.615,5.565c-1.179,2.15-1.721,3.744-3.129,5.751
			c-0.857,1.223-0.455,2.198-0.922,3.557c-0.381,1.11-2.623,3.476-4.24,1.826"/>
		<path fill="#493428" stroke="#594A42" stroke-linecap="round" stroke-linejoin="round" stroke-miterlimit="10" d="M890.382,39.266
			c0.511-0.882,0.887-1.826,1.62-2.562c4.865-4.894,11.519-5.743,17.976-7.699c1.175-0.356,2.483-0.93,3.772-0.925
			c3.093,0.01,5.615,1.653,8.539,2.069c2.861,0.407,3.551-1.478,4.893,1.626c1.699,3.929,0.324,6.952-0.693,10.838
			c-0.889,3.4-2.83,2.973-5.18,5.517c-4.176,4.52-9.785,7.115-14.77,10.616c-2.264,1.591-4.955,3.079-6.482,5.444
			c0.447-1.644,0.814-3.126,0.773-4.941c-1.436,0.133-2.672,1.543-3.711,2.459c-2.207,1.945-4.488,6.129-4.747,9.159
			c-1.417-1.417-2.917-2.774-4.347-4.19c-0.484-0.48-3.535-3.739-2.941-4.47c-0.6,0.737-1.027,1.588-1.698,2.269
			c-0.058-2.514,0.688-5.172,1.214-7.631c0.467-2.185,1.933-5.283,1.769-7.462c-0.589-0.021-0.823-1.792-0.438-2.677
			c0.677-1.554,3.021-5.402,4.028-6.781C890.114,39.711,890.252,39.49,890.382,39.266z"/>
		<path fill="none" stroke="#3A1212" stroke-linecap="round" stroke-linejoin="round" stroke-miterlimit="10" d="M914.696,145.369
			c-2.619,3.737-2.01,12.97-2.195,17.519c-0.094,2.3-0.461,4.248,0.577,6.354c0.973,1.974,2.351,3.881,3.979,5.364
			c1.299-0.812,2.188-2.203,3.375-3.211c0.67-0.57,1.684-1.307,2.111-2.008c0.081-0.131,0.475-2.438,0.457-2.5"/>
		<path fill="#726658" d="M892.19,77.728c0.25,0.118-0.598-4.939-0.992-5.584c-1.048-1.71-2.711-2.904-4.783-2.904
			c-0.119,2.165,4.584,1.718,4.661,4.432C887.452,72.232,891.178,77.25,892.19,77.728z"/>
		<path fill="#726658" d="M937.549,69.621c1.913-1.19,2.041,0.404,1.113,1.876c0.074-0.261-0.032-0.583-0.013-0.844
			c-1.242-0.242-1.803,1.36-2.442,2.024c-0.262,0.272-1.287,0.886-1.329,1.259c-0.096,0.838,0.666,0.667,1.192,0.412
			c0.27,0.948-0.557,1.572-1.156,2.117c-0.765,0.695-1.176,1.071-1.619,2.007c-0.494-0.393-0.059-1.034,0.316-1.421
			C932.7,74.324,935.424,70.945,937.549,69.621z"/>
		<path fill="#726658" d="M906.036,90.167c2.274,0.1,4.133,0.803,6.421,0.674c1.958-0.107,3.888-0.455,5.806-0.852
			c1.48-0.307,2.963-0.554,3.396-2.219c0.754,0.023,1.145,1.262,1.266,1.859c0.244,1.199,0.197,1.029-0.703,0.799
			c-1.28-0.33-1.723,0.24-3.01,0.585c-1.204,0.321-2.465,0.353-3.691,0.528c-2.296,0.329-5.291,0.739-7.553,0.035
			c-0.723-0.227-1.572-0.613-2.385-0.877c-0.348-0.111-0.873-0.389-1.241-0.316c-0.577,0.11-0.522,0.712-1.216,0.666
			c-0.193-0.688,0.945-2.68,1.564-2.927c0.13,0.357,0.111,0.812,0.124,1.235c1.289,0.392,2.392,0.802,3.699,1.033"/>
		<path fill="#726658" d="M914.759,85.241c0.743-0.375,3.228-1.367,3.596-2.242c0.102-0.239,0.222-0.959-0.055-1.148
			c-0.549-0.375-0.601,0.381-0.811,0.53c-0.688,0.482-1.214,1.057-2.041,1.459c-2.048,0.997-3.487,0.645-5.415-0.531
			c-0.421-0.256-0.586-0.248-0.883-0.664c-0.203-0.287-0.184-0.513-0.672-0.714c-0.828-0.341-0.564,0.865-0.314,1.292
			c0.462,0.791,1.678,1.083,2.479,1.473C911.954,85.334,913.31,85.972,914.759,85.241z"/>
		<path fill="#726658" d="M916.483,96.572c-0.389,0.32-0.852-0.257-1.451-0.427c-0.578-0.165-1.184-0.155-1.741-0.215
			c-1.093-0.117-2.195,0.314-3.213,0.177c-0.046-0.006,0.632-0.847,0.759-0.935c0.467-0.32,0.991-0.434,1.547-0.488
			c0.803-0.082,1.58,0.109,2.379,0.102c0.416-0.003,1.113-0.254,1.498-0.031c0.438,0.254,0.68,1.057,0.441,1.525
			C916.631,96.417,916.558,96.51,916.483,96.572z"/>
		<g>
			<path fill="#FFFFFF" stroke="#726658" stroke-width="0.5" stroke-miterlimit="10" d="M903.631,73.501
				c2.288-0.194,5.678-3.215,4.047-4.847c-1.119-1.119-5.086-0.965-6.541-0.596c-0.791,0.198-2.375,0.58-2.584,1.434
				C897.997,71.777,900.827,73.738,903.631,73.501z"/>
			<path fill="#594A42" d="M902.203,64.196c2.067,0.436,6.146,1.866,6.975-1.152c-2.485,0.965-5.299-0.371-7.657-0.668
				c-1.329-0.168-2.179,0.331-3.197,1.049c-0.475,0.335-1.002,0.712-1.388,1.13c-0.369,0.397-0.772,0.843-0.971,1.354
				c0.263-0.678,2.044-1.29,2.656-1.477C899.759,64.083,901.03,63.949,902.203,64.196z"/>
			<path fill="#231F20" stroke="#2E637A" stroke-miterlimit="10" d="M900.697,68.845c0.125,1.428,0.815,2.95,2.378,2.817
				c2.078-0.176,2.57-1.962,2.175-3.374"/>
			<circle fill="#FFFFFF" cx="901.674" cy="69.527" r="0.55"/>
			<path fill="#594A42" d="M901.668,67.17c0.872-0.128,1.408-0.118,2.138-0.117c1.643,0,3.01,0.409,4.122,1.596
				c-1.628,0.374-3.43-0.183-5.101,0.029c-1.864,0.236-3.406,0.541-4.387,2.259c0,0-0.204-1.016-0.122-1.268
				c0.138-0.418,0.402-0.821,0.73-1.113C899.704,67.974,900.655,67.319,901.668,67.17z"/>
		</g>
		<g>
			<path fill="#FFFFFF" stroke="#726658" stroke-width="0.5" stroke-miterlimit="10" d="M922.93,73.501
				c-2.289-0.194-5.367-3.527-4.047-4.847c1.118-1.119,5.086-0.965,6.541-0.596c0.791,0.198,2.375,0.58,2.584,1.434
				C928.565,71.777,925.735,73.738,922.93,73.501z"/>
			<path fill="#594A42" d="M924.358,63.836c-2.066,0.436-6.146,1.866-6.975-1.152c2.486,0.965,5.299-0.371,7.658-0.668
				c1.328-0.168,2.178,0.331,3.197,1.049c0.475,0.335,1.002,0.712,1.387,1.13c0.369,0.397,0.773,0.843,0.971,1.354
				c-0.262-0.678-2.043-1.29-2.656-1.477C926.801,63.723,925.532,63.589,924.358,63.836z"/>
			<path fill="#231F20" stroke="#2E637A" stroke-miterlimit="10" d="M925.864,68.845c-0.125,1.428-0.814,2.95-2.377,2.817
				c-2.078-0.176-2.57-1.962-2.176-3.374"/>
			<circle fill="#FFFFFF" cx="924.887" cy="69.527" r="0.551"/>
			<path fill="#594A42" d="M924.893,67.17c-0.873-0.128-1.408-0.118-2.139-0.117c-1.643,0-3.01,0.409-4.121,1.596
				c1.627,0.374,3.43-0.183,5.1,0.029c1.865,0.236,3.406,0.541,4.387,2.259c0,0,0.205-1.016,0.123-1.268
				c-0.139-0.418-0.402-0.821-0.73-1.113C926.858,67.974,925.907,67.319,924.893,67.17z"/>
		</g>
		<path opacity="0.1" d="M927.202,124.122c-2.139,2.613-4.248,4.609-6.05,7.377c-2.683,4.117-6.575,9.259-6.173,14.361
			c5.065-1.947,11.386-8.254,17.281-6.388c3.342,1.058,4.205,4.327,6.038,6.958c1.964-2.935,2.366-8.438,3.313-11.854
			c1.127-4.065,1.827-7.916,1.973-12.161c0.134-3.903,0.134-7.847-2.076-11.085c-0.879-1.29-5.137-5.419-6.809-5.015
			c-2.061,0.499-2.661,5.774-3.189,7.542C930.417,117.522,929.696,121.073,927.202,124.122z"/>
		<path opacity="0.1" d="M909.868,136.171c0.945-8.621-4.427-11.201-10.451-15.049c-1.627-1.039-3.861-3.723-5.264-2.24
			c-2.049,2.164-0.767,10.405,0.053,12.863c0.578,1.733,7.864,13.911,6.842,14.865c2.236-2.087,0.833-6,3.221-8.406
			C905.884,136.575,907.669,136.336,909.868,136.171z"/>
		<path fill="#BBBBBC" d="M905.327,121.268c-3.652-2.749-4.948-4.919-6.699-9.021c-0.555-1.297-0.861-2.99-0.392-4.231
			c3.104,1.44,4.229,6.214,6.946,8.386c2.773,2.217,6.082,3.035,9.818,3.236c6.412,0.347,13.74-3.894,16.951-9.168
			c0.557,8.746-8.199,14.093-16.367,14.085C911.117,124.55,908.864,123.928,905.327,121.268z"/>
		<path fill="#5E1D1D" stroke="#3A1212" stroke-miterlimit="10" d="M891.75,118.604c-0.045,4.41-0.281,8.811-0.037,13.229
			c0.137,2.454,0.691,5.088,1.209,7.555c0.285,1.361,1.234,3.328,2.415,4.279c0.899-1.215,1.17-3.352,1.913-4.789
			c0.923-1.785,1.832-3.643,2.635-5.526c0.796-1.868,6.066-10.46,7.527-5.796c0.689,2.197,1.458,4.379,2.032,6.619
			c0.978,3.812,2.268,8.275,4.728,11.094c0.263-2.986-0.787-5.772-1.42-8.408c-0.458-1.91-1.07-4.199-1.331-6.143
			c-0.339-2.525-0.962-5.482-2.595-7.534c-1.697-2.132-4.251-4.032-6.172-6.101c-3.52-3.789-2.447-8.988-2.771-13.845
			c-2.746,1.392-5.318,3.536-6.861,6.231C891.429,112.257,891.783,115.489,891.75,118.604z"/>
		<path fill="#5E1D1D" stroke="#3A1212" stroke-miterlimit="10" d="M928.747,107.868c0.448,2.766,1.16,4.711,0.495,7.824
			c-0.668,3.129-1.353,4.921-3.124,7.531c-1.062,1.566-2.435,2.67-3.31,4.387c-1.014,1.986-2.282,4.174-3.247,6.184
			c-1.502,3.129-2.457,5.413-3.314,7.652c-0.477,1.245-2.24,3.166-1.965,4.695c3.648-2.174,5.607-7.254,7.178-10.92
			c1.092-2.552,2.402-5.749,4.686-7.473c3.949-2.98,4.717,3.677,5.564,6.314c0.734,2.281,1.355,4.611,2.115,6.779
			c0.498,1.421,1.359,2.984,1.456,4.523c1.596-0.825,2.413-4.277,2.881-5.924c0.83-2.916,1.275-6.051,1.766-9.193
			c0.55-3.524,1.751-7.773,0.974-11.32c-0.732-3.34-2.051-6.749-3.296-9.926c-1.171-2.986-1.73-4.443-5.014-5.557
			c-1.667-0.565-3.218-1.811-4.981-2.032C927.423,101.39,928.648,107.262,928.747,107.868z"/>
		<circle fill="#3A1212" cx="917.75" cy="148.387" r="2"/>
		<circle fill="#3A1212" cx="917.5" cy="161.137" r="2"/>
		<path fill="none" stroke="#3A1212" stroke-linecap="round" stroke-linejoin="round" stroke-miterlimit="10" d="M914.694,149.159
			c2.451,0.096,5.188-0.322,7.611-0.746"/>
		<path fill="none" stroke="#3A1212" stroke-linecap="round" stroke-linejoin="round" stroke-miterlimit="10" d="M914.448,160.559
			c2.066,0.014,4.258,0.184,6.268,0.598"/>
		<path opacity="0.1" d="M982.555,163.373c-0.619-5.487-0.631-11.805-2.266-17.095c-1.377-4.459-3.952-8.475-4.934-13.156
			c-0.597-2.844-0.998-6.516-5.08-2.977c-4.005,3.474-3.436,8.243-1.512,12.787c2.852,6.732,5.494,13.451,7.561,20.498
			c1.249,4.264-0.994,8.439-0.461,12.904c0.338,2.843,3.012,4.617,4.156,6.803c0.633,1.209,1.684,2.764,1.729,4
			c0.072,1.936-4.221,4.299-2.246,6.693c0.583,0.708,6.605,1.586,7.5,1.305c1.744-0.547,1.459-1.684,1.498-3.354
			c0.059-2.4-0.631-2.199-1.387-4.006C984.221,180.866,983.446,171.259,982.555,163.373z"/>
		<path opacity="0.1" d="M869.184,159.871c-1.027-4.202-3.135-8.034-4.42-12.149c-0.332-1.059-0.867-7.884-3.105-4.951
			c-0.559,0.732-0.511,2.083-0.594,3.03c-0.34,3.878-1.035,7.733-1.9,11.527c-1.025,4.496-3.852,8.753-4.233,13.269
			c-0.653,7.744,5.628,10.509,1.809,18.348c-1.328,2.726-3.915,5.576-2.154,8.518c1.874,3.133,6.973,5.188,8.608,8.416
			c0.049-4.478,3.02-7.343,3.057-11.899c0.031-4.034-1.975-8.136-1.666-12.106c0.271-3.476,2.197-6.832,2.936-10.342
			C868.355,167.559,870.129,163.735,869.184,159.871z"/>
		<path opacity="0.1" d="M954.917,194.548c0,10.711,1.931,21.375,0.44,32.18c-0.973,7.05,0.58,14.408-1.165,21.436
			c-4.04,1.402-8.349,1.693-12.532,2.485c-2.966,0.562-6.078,1.527-9.064,0.528c4.734-5.902,6.649-15.732,8.539-22.959
			c1.82-6.965,1.08-13.896,1.926-20.893c0.635-5.256,3.084-10.237,3.564-15.486c0.531-5.824-4.258-11.455-1.758-16.637
			c2.777-5.755,6.159-10.842,6.383-17.463c0.162-4.781-0.141-9.738,0.334-14.5c0.56-5.611,3.724-6.764,3.587-12.785
			c-0.04-1.736-0.085-3.127-0.741-4.693c-0.595-1.419-2.84-2.422-2.279-4.365c1.016-3.527,11.191,1.438,13.97,1.424
			c-1.003,0.005-2.358,9.018-2.613,9.966c-0.907,3.364-1.181,4.285-1.606,7.782c-1.105,9.105-2.151,17.002-4.391,25.636
			C955.096,175.51,954.917,184.875,954.917,194.548z"/>
		<g>
			
				<ellipse fill="none" stroke="#7A7A7A" stroke-width="0.75" stroke-miterlimit="10" cx="903.345" cy="70.835" rx="6.671" ry="4.13"/>
			
				<ellipse fill="none" stroke="#7A7A7A" stroke-width="0.75" stroke-miterlimit="10" cx="923.171" cy="70.835" rx="6.671" ry="4.13"/>
			<path fill="none" stroke="#7A7A7A" stroke-width="0.75" stroke-miterlimit="10" d="M910.016,70.611
				c1.736-1.18,5.023-1.14,6.484,0"/>
			
				<line fill="none" stroke="#7A7A7A" stroke-width="0.75" stroke-miterlimit="10" x1="929.573" y1="71.239" x2="933.963" y2="69.821"/>
			
				<line fill="none" stroke="#7A7A7A" stroke-width="0.75" stroke-miterlimit="10" x1="896.491" y1="71.239" x2="892.012" y2="69.991"/>
		</g>
		<path fill="#493428" stroke="#594A42" stroke-linecap="round" stroke-linejoin="round" stroke-miterlimit="10" d="M901.904,98.635
			c-0.491,3.951,2.691,6.921,5.363,9.502c1.652,1.598,5.704,6.162,6.995,2.103c1.247,0.316,1.991,1.319,2.188,2.68
			c1.533-2.048,4.107-2.799,5.404-5.21c2.015-3.746,2.009-8.188,4.605-11.864c-1.72,0.063-4.251-0.453-5.856,0.149
			c-2.115,0.793-2.412,3.508-4.292,3.67c-0.483-3.357-2.56-3.756-5.527-3.026c0.107,0.55-0.258,1.385-0.162,1.928
			c-2.53,0.455-4.168-1.966-7.068-1.581"/>
	</g>
</g>
</svg>
