<?xml version="1.0" encoding="utf-8"?>
<!-- Generator: Adobe Illustrator 16.0.0, SVG Export Plug-In . SVG Version: 6.00 Build 0)  -->
<!DOCTYPE svg PUBLIC "-//W3C//DTD SVG 1.1//EN" "http://www.w3.org/Graphics/SVG/1.1/DTD/svg11.dtd">
<svg version="1.1" id="Layer_1" xmlns="http://www.w3.org/2000/svg" xmlns:xlink="http://www.w3.org/1999/xlink" x="0px" y="0px"
	 width="169.785px" height="170.857px" viewBox="364.797 0 169.785 170.857" enable-background="new 364.797 0 169.785 170.857"
	 xml:space="preserve">
<g>
	<defs>
		<circle id="XMLID_3_" cx="449.69" cy="85.428" r="78.717"/>
	</defs>
	<use xlink:href="#XMLID_3_"  overflow="visible" fill="#F4F4F4"/>
	<clipPath id="XMLID_16_">
		<use xlink:href="#XMLID_3_"  overflow="visible"/>
	</clipPath>
	<g clip-path="url(#XMLID_16_)">
		<path fill="#5E1D1D" stroke="#3A1212" stroke-width="2" stroke-miterlimit="10" d="M500.75,188.027
			c0.736,2.391-0.201,6.26,0.799,8.361c1.238,2.602,4.647,0.395,6.838-0.305c3.483-1.112,6.955-1.674,10.647-0.851
			c2.036,0.454,4.345,3.626,6.185,1.588c1.551-1.72-1.176-8.6-1.462-10.341c-0.663-4.028-2.526-9.146-2.88-13.26
			c-0.629-7.291-0.727-14.734-2.312-21.867c-0.775-3.484-1.582-6.715-1.742-10.305c-0.266-5.947-9.523-30.159-17.581-20.627
			c-3.68,4.358-4.009,8.578-5.312,13.791c-1.087,4.354-1.395,8.874-1.532,13.345c-0.126,4.057,0.802,7.382,1.147,11.327
			C494.37,168.312,497.941,178.914,500.75,188.027z"/>
		<path fill="#5E1D1D" stroke="#3A1212" stroke-width="2" stroke-miterlimit="10" d="M403.569,165.703
			c1.564-9.543,3.424-17.545,2.18-27.217c-0.604-4.703-1.842-9.53-4.135-13.713c-1.484-2.708-4.674-7.695-8.053-7.873
			c-2.348-0.123-2.939,1.432-3.946,3.359c-1.181,2.26-2.714,5.43-3.563,7.816c-1.18,3.311-0.473,6.824-1.543,10.158
			c-1.564,4.879-1.352,6.898-3.327,11.682c-2.05,4.966-2.833,10.107-3.964,15.328c-0.248,1.144-0.433,2.238-0.495,3.425
			c-0.357,6.788,0.421,13.165-0.95,19.812c-0.76,3.684-2.795,8.785-1.274,12.208c1.522,3.428,4.288,1.582,7.111,0.639
			c2.458-0.82,2.609-1.268,5.202-0.645c2.803,0.676,5.404,2.006,8.189,2.818c3.537,1.033,3.082-0.017,3.812-2.811
			c0.562-2.16,2.465-3.996,2.748-6.227c0.295-2.318,0-4.947,0-7.273c0-3.395-0.062-6.793,0-10.186
			C401.631,173.224,402.957,169.439,403.569,165.703z"/>
		<path fill="#5E1D1D" stroke="#3A1212" stroke-width="2" stroke-miterlimit="10" d="M420.311,104.94
			c-2.816,1.252-5.656,4.211-8.64,4.799c-1.685,0.332-3.854,0.811-5.57,0.893c-2.733,0.131-4.019,1.302-6.464,2.512
			c-1.854,0.92-5.324,1.799-6.299,3.83c-0.912,1.903,1.017,4.364,2.101,6.466c2.211,4.288,1.646,6.26,2.95,10.812
			c1.082,3.777,1.95,6.656,2.441,10.889c0.543,4.666,3.486,10.535,3.61,15.179c0.087,3.306,1.342,6.151,1.68,9.653
			c0.577,5.98,0.597,9.663,0.69,15.717c0.111,7.121,1.029,16.382,0.045,23.367c-0.957,6.793,0.676,28.288,1.455,35.133
			c0,0,20.555,7.318,31.836,7.187c1.247-0.015,2.713,0.159,3.902-0.241c1.318-0.443,3.209-1.717,3.725-2.876
			c3.273,0.224,1.389,2.237,5.037,2.431c4.453,0.236,14.391-0.582,18.805-1.096c10.777-1.255,20.195-5.904,20.195-5.904
			c0.09-2.138,0.014-13.649-0.115-15.875c-0.338-5.867,1.199-17.859,1.366-23.713c0.284-9.98-0.755-19.92-0.751-29.895
			c0.008-16.283,3-20.018,5.5-36.018c0.365-2.329-1.079-5.619,1.508-10.77c0.986-1.965,5.389-8.416,5.541-9.844
			c0.459-4.293-9.607-4.899-12.117-5.684c-5.35-1.673-12.65-4.659-17.148-8.052c-4.992-3.764-6.969-3.516-13.307-1.355
			c-3.512,1.196-7.266,1.893-10.893,2.828c-2.408,0.621-4.741,0.77-7.242,0.699c-4.281-0.119-9.844-2.803-14.092-3.322
			C425.889,102.179,424.811,102.94,420.311,104.94z"/>
		<path fill="#FFFFFF" d="M443.17,128.34c0.045,0.211,0.094,0.422,0.146,0.632c1.006,3.964,3.008,7.366,4.939,10.699
			c0.212-1.463,1.508-3.231,2.117-4.675c0.602-1.43,1.105-3.188,1.732-4.734c1.951-4.812,5.563-7.53,8.616-11.451
			c0.661-0.85,3.7-8.222,2.999-8.293c-1.786-0.182-2.857,1.288-4.242,2.147c-1.774,1.102-4.094,2.06-6.129,2.538
			c-2.454,0.576-4.207,1.199-6.678,0.668c-1.768-0.381-6.584-3.035-7.42-1.462c-0.689,1.296,1.623,4.337,2.141,5.479
			C442.596,122.543,442.555,125.484,443.17,128.34z"/>
		<path fill="#3C2415" stroke="#594A42" stroke-linecap="round" stroke-linejoin="round" stroke-miterlimit="10" d="M458.44,77.196
			c-7.914,1.705-17.133,2.369-25.213,1.547c-2.87-0.292-5.726-2.502-8.471-2.492c-0.134,3.865,2.602,8.09,0.76,11.893
			c1.976,1.273,3.904,1.37,6.174,2.291c4.906,1.992,9.939,1.346,15.15,1.119c7.043-0.309,11.973,0.428,18.477-1.779
			c0.039-0.86-0.004-1.758,0.053-2.616c0.835,0.716,1.923,0.675,3.17,0.62c0.029-4.309-0.91-9.972-0.402-14.386
			c-1.025,0.444-1.795,1.329-2.805,1.834C463.334,76.225,460.61,76.728,458.44,77.196z"/>
		<path fill="#D7C8AA" stroke="#736759" stroke-miterlimit="10" d="M434.145,83.69c0.666,10.166-0.5,19.833-3,23.833
			c2.666,1.833,11.166,8.333,17.333,8.333s11.833-4.166,16.833-7.166c-3.5-7.167-4.832-14.667-4.832-24.5
			C451.311,82.19,443.145,82.356,434.145,83.69z"/>
		<path opacity="0.1" d="M446.342,98.69c0.305,3.271,2.086,6.312,2.748,9.504c0.195,0.938,0.056,2.822,0.795,3.515
			c2.312,2.165,6.4,0.015,8.457-1.032c1.312-0.668,2.261-0.877,2.748-2.232c0.873-2.43-0.65-7.393-1-9.787
			c-0.413-2.828-0.386-5.891-0.536-8.93c-0.315-0.055-0.636-0.057-0.962-0.037"/>
		<path fill="#D7C8AA" stroke="#736759" stroke-miterlimit="10" d="M446.497,100.94c10.648,0,20.984-17,20.984-33.75
			c4.742-24.75-2.788-38.5-20.92-38.5c-18.128,0-25.658,13.75-20.916,38.5C425.645,83.94,435.479,100.94,446.497,100.94z"/>
		<path fill="#D7C8AA" stroke="#736759" stroke-miterlimit="10" d="M426.311,64.856c-2.171-2.02-4.011-4.446-7.274-4.554
			c-2.972-0.098-1.579,4.553-0.685,6.184c1.311,2.389,1.914,3.8,3.479,6.03c0.953,1.358,0.505,2.802,1.023,4.312
			c0.424,1.233,2.878,4.195,4.711,2.028"/>
		<path fill="#3C2415" stroke="#594A42" stroke-linecap="round" stroke-linejoin="round" stroke-miterlimit="10" d="M438.108,35.04
			c1.561-0.578,2.555-0.587,4.144-0.68c1.665-0.097,3.724-1.333,5.287-1.191c1.759,0.159,4.079,2.332,5.688,3.498
			c4.082,2.958,4.96,7.742,7.701,11.627c1.033,1.465,2.385,3.012,3.707,4.208c0.611,0.554,1.529,0.971,1.915,1.728
			c0.577,1.131,0.266,0.449,0.224,1.647c-0.109,3.204-0.135,6.444-0.128,9.671c0.295-0.475,2.647-0.512,3.608-0.758
			c1.159-0.295,2.279-0.801,3.362-1.13c0.212-2.112,0.925-3.613,1.058-5.782c0.855,0.649,1.176,1.478,2.611,1.287
			c-0.76-4.9-3.105-8.956-3.975-13.809c0.976,0.779,2.271-0.374,2.984-1.291c-4.357-2.288-5.607-6.605-8.01-10.477
			c-2.102-3.385-5.434-4.602-7.916-7.559c-0.334-0.398-0.875-0.29-1.354-0.476c-1.021-0.397-3.276-0.572-4.425-0.522
			c-2.019,0.087-4.066-0.008-6.087-0.008c-2.311,0-4.581,0.594-6.896,0.491c-1.781-0.08-3.537-0.739-5.123,0.35
			c-1.115,0.767-1.666,1.979-2.937,2.625c-0.46,0.233-5.356,1.613-5.518,1.042c0.587,2.09,2.667,4.351,4.098,5.938
			C433.969,37.511,435.823,35.887,438.108,35.04z"/>
		<path opacity="0.1" d="M438.145,53.523c2.384,0.206,4.475-1.508,6.66-2.283c2.534-0.899,6.123-2.754,7.486,0.845
			c0.498,1.318,0.299,3.067,0.537,4.454c0.317,1.853,0.811,3.688,0.264,5.554c-0.562,1.916-2.132,3.411-2.859,5.273
			c-1.182,3.032,2.041,8.834-2.571,9.921c-2.079,0.49-3.576-1.488-5.329-1.328c0.17-0.016,2.486,3.435,3.074,3.784
			c2.432,1.446,6.541,0.889,8.653,2.928c0.755,0.73,1.064,2.647,1.024,3.646c-0.08,1.979-2.011,2.148-3.017,3.494
			c-1.001,1.34-0.089,3.715-0.479,5.309c-0.273,1.121-1.539,2.613,0.342,2.177c0.932-0.216,1.876-1.683,2.534-2.29
			c2.709-2.5,5.865-4.979,7.136-8.586c2.125-6.04,3.107-11.977,3.887-18.227c0.317-2.545-0.422-5.096-0.305-7.646
			c0.07-1.528,0.58-3.854-0.188-5.225c-1.681-3-5.257-4.727-6.891-7.93c-0.508-0.995-0.799-1.95-0.996-3.042
			c-0.152-0.852,0.024-2.407-0.504-3.121c-1.141-1.54-4.138,0.549-5.645,1.493c-3.589,2.247-8.294,5.197-11.314,8.132"/>
		<path fill="#D7C8AA" stroke="#736759" stroke-miterlimit="10" d="M466.682,64.856c2.171-2.02,4.011-4.446,7.274-4.554
			c2.972-0.098,1.579,4.553,0.685,6.184c-1.311,2.389-1.913,4.16-3.477,6.39c-0.953,1.359-0.507,2.442-1.025,3.952
			c-0.424,1.233-2.914,3.862-4.711,2.028"/>
		<path fill="#3C2415" stroke="#594A42" stroke-linecap="round" stroke-linejoin="round" stroke-miterlimit="10" d="M423.943,33.208
			c0.511-0.882,0.887-1.826,1.62-2.562c4.865-4.894,11.519-5.743,17.976-7.699c1.175-0.356,2.483-0.93,3.772-0.925
			c3.093,0.01,5.615,1.653,8.539,2.069c2.861,0.407,3.551-1.478,4.893,1.626c1.699,3.929,0.324,6.952-0.693,10.838
			c-0.889,3.4-2.83,2.973-5.18,5.517c-4.176,4.52-9.785,7.115-14.77,10.616c-2.264,1.591-4.955,3.079-6.482,5.444
			c0.447-1.644,0.814-3.126,0.773-4.941c-1.436,0.133-2.672,1.543-3.711,2.459c-2.207,1.945-4.488,6.129-4.747,9.159
			c-1.417-1.416-2.917-2.774-4.347-4.19c-0.484-0.48-3.535-3.739-2.941-4.47c-0.6,0.737-1.027,1.588-1.698,2.269
			c-0.058-2.514,0.688-5.172,1.214-7.631c0.467-2.185,1.933-5.283,1.769-7.462c-0.589-0.021-1.206-0.014-1.796-0.044
			c0.291-0.974,0.973-1.749,1.358-2.633c0.677-1.554,3.021-5.402,4.028-6.781C423.674,33.653,423.813,33.432,423.943,33.208z"/>
		<path fill="#726658" d="M425.688,72.827c0.277,0.131-0.664-5.488-1.103-6.205c-1.164-1.899-3.013-3.227-5.315-3.227
			c-0.132,2.406,5.094,1.91,5.18,4.925C420.422,66.72,424.563,72.296,425.688,72.827z"/>
		<path fill="#726658" d="M471.602,63.819c2.125-1.322,2.268,0.449,1.236,2.084c0.083-0.29-0.035-0.648-0.014-0.938
			c-1.38-0.27-2.003,1.512-2.714,2.249c-0.291,0.302-1.429,0.984-1.477,1.399c-0.106,0.931,0.74,0.741,1.324,0.457
			c0.301,1.053-0.618,1.746-1.284,2.353c-0.85,0.772-1.307,1.19-1.799,2.23c-0.55-0.437-0.065-1.149,0.352-1.579
			C466.213,69.046,469.241,65.29,471.602,63.819z"/>
		<path fill="#726658" d="M439.596,84.468c2.274,0.101,4.133,0.803,6.421,0.675c1.958-0.107,3.888-0.455,5.806-0.853
			c1.48-0.306,2.963-0.553,3.396-2.219c0.754,0.025,1.145,1.264,1.266,1.86c0.244,1.199,0.197,1.03-0.703,0.798
			c-1.28-0.329-1.723,0.24-3.01,0.586c-1.204,0.321-2.465,0.353-3.691,0.528c-2.296,0.329-5.291,0.739-7.553,0.034
			c-0.723-0.225-1.572-0.613-2.385-0.875c-0.348-0.113-0.873-0.391-1.241-0.318c-0.577,0.111-0.522,0.713-1.216,0.667
			c-0.193-0.688,0.945-2.681,1.564-2.927c0.13,0.357,0.111,0.812,0.124,1.235c1.289,0.392,2.392,0.802,3.699,1.033"/>
		<path fill="#726658" d="M448.32,79.543c0.743-0.374,3.228-1.366,3.596-2.242c0.102-0.239,0.222-0.96-0.055-1.147
			c-0.549-0.375-0.601,0.381-0.811,0.529c-0.688,0.482-1.214,1.058-2.041,1.46c-2.048,0.997-3.487,0.646-5.415-0.531
			c-0.421-0.257-0.586-0.247-0.883-0.664c-0.203-0.286-0.184-0.513-0.672-0.714c-0.828-0.342-0.564,0.865-0.314,1.293
			c0.462,0.791,1.678,1.083,2.479,1.473C445.514,79.635,446.871,80.274,448.32,79.543z"/>
		<path fill="#726658" d="M450.043,90.874c-0.389,0.32-0.852-0.258-1.451-0.428c-0.578-0.164-1.184-0.154-1.741-0.215
			c-1.093-0.117-2.195,0.316-3.213,0.178c-0.046-0.006,0.632-0.847,0.759-0.935c0.467-0.321,0.991-0.434,1.547-0.489
			c0.803-0.08,1.58,0.111,2.379,0.104c0.416-0.004,1.113-0.255,1.498-0.032c0.438,0.254,0.68,1.057,0.441,1.524
			C450.192,90.718,450.119,90.813,450.043,90.874z"/>
		<g>
			<path fill="#FFFFFF" stroke="#726658" stroke-width="0.5" stroke-miterlimit="10" d="M435.783,67.751
				c2.296,0,6.611-3.102,4.801-4.488c-1.255-0.963-4.986-1.391-6.467-1.146c-0.806,0.131-2.416,0.379-2.696,1.211
				C430.673,65.557,432.967,67.751,435.783,67.751z"/>
			<path fill="#594A42" d="M436.493,59.434c2.022,0.609,5.967,2.377,7.046-0.56c-2.558,0.752-5.248-0.816-7.573-1.312
				c-1.31-0.279-2.198,0.146-3.274,0.775c-0.501,0.294-1.058,0.625-1.479,1.01c-0.4,0.364-0.84,0.774-1.08,1.267
				c0.318-0.653,2.145-1.112,2.771-1.247C434.067,59.115,435.344,59.089,436.493,59.434z"/>
			<path fill="#231F20" stroke="#594A42" stroke-miterlimit="10" d="M433.611,62.505c0.004,1.434,0.378,2.695,1.925,2.953
				c1.286,0.215,2.934-0.965,2.658-2.404"/>
			<circle fill="#FFFFFF" cx="434.527" cy="63.266" r="0.55"/>
			<path fill="#231F20" d="M435.53,61.339c2.462-0.285,3.745,0.865,5.96,1.395c-1.474,1.355-4.118-0.005-5.926,0.107
				c-1.084,0.068-2.25-0.121-3.133,0.448c-0.746,0.483-2.147,2.157-2.276,1.489c0.513-0.522,1.359-2.038,1.882-2.409
				C433.019,61.673,434.366,61.473,435.53,61.339z"/>
		</g>
		<path fill="#FFFFFF" stroke="#726658" stroke-width="0.5" stroke-miterlimit="10" d="M457.482,67.39
			c-2.296,0-6.61-3.102-4.8-4.488c1.254-0.962,4.986-1.391,6.467-1.146c0.806,0.131,2.415,0.378,2.695,1.211
			C462.592,65.197,460.297,67.39,457.482,67.39z"/>
		<path fill="#594A42" d="M456.772,59.074c-2.021,0.609-5.966,2.378-7.045-0.56c2.557,0.752,5.248-0.816,7.573-1.312
			c1.309-0.279,2.198,0.146,3.274,0.775c0.5,0.294,1.057,0.625,1.479,1.01c0.399,0.364,0.84,0.774,1.079,1.267
			c-0.318-0.653-2.145-1.112-2.771-1.247C459.198,58.756,457.921,58.729,456.772,59.074z"/>
		<path fill="#231F20" stroke="#594A42" stroke-miterlimit="10" d="M459.654,62.144c-0.004,1.434-0.377,2.696-1.924,2.953
			c-1.286,0.215-2.934-0.964-2.659-2.403"/>
		<circle fill="#FFFFFF" cx="458.738" cy="62.906" r="0.55"/>
		<path fill="#231F20" d="M457.675,60.943c-2.474-0.142-3.688,1.08-5.868,1.738c1.549,1.268,4.109-0.244,5.922-0.236
			c1.084,0.006,2.237-0.252,3.152,0.266c0.772,0.439,2.27,2.031,2.359,1.355c-0.541-0.49-1.475-1.955-2.018-2.297
			C460.201,61.131,458.844,61.011,457.675,60.943z"/>
		<path opacity="0.1" d="M460.762,118.424c-2.139,2.613-4.248,4.609-6.05,7.377c-2.683,4.117-6.575,9.259-6.173,14.361
			c5.065-1.947,11.386-8.254,17.281-6.388c3.342,1.058,4.205,4.327,6.038,6.958c1.964-2.935,2.366-8.438,3.313-11.854
			c1.127-4.065,1.827-7.916,1.973-12.161c0.134-3.903,0.134-7.846-2.076-11.086c-0.879-1.289-5.137-5.418-6.809-5.014
			c-2.061,0.5-2.661,5.775-3.189,7.542C463.977,111.824,463.256,115.375,460.762,118.424z"/>
		<path opacity="0.1" d="M443.428,130.472c0.945-8.621-4.427-11.201-10.451-15.049c-1.627-1.039-3.861-3.722-5.264-2.24
			c-2.049,2.164-0.767,10.405,0.053,12.863c0.578,1.733,7.864,13.911,6.842,14.865c2.236-2.087,0.833-6,3.221-8.406
			C439.445,130.877,441.23,130.637,443.428,130.472z"/>
		<path fill="#6D6E71" d="M438.887,115.57c-3.652-2.749-4.948-4.919-6.699-9.021c-0.555-1.296-0.861-2.989-0.392-4.231
			c3.104,1.441,4.229,6.213,6.946,8.385c2.773,2.219,6.082,3.036,9.818,3.238c6.412,0.346,13.74-3.895,16.951-9.169
			c0.557,8.747-8.199,14.093-16.367,14.085C444.677,118.851,442.424,118.23,438.887,115.57z"/>
		<path fill="#5E1D1D" stroke="#3A1212" stroke-miterlimit="10" d="M425.311,112.905c-0.045,4.411-0.281,8.812-0.037,13.229
			c0.137,2.454,0.691,5.088,1.209,7.555c0.285,1.361,1.234,3.328,2.415,4.279c0.899-1.215,1.17-3.352,1.913-4.789
			c0.923-1.785,1.832-3.643,2.635-5.526c0.796-1.868,6.066-10.46,7.527-5.796c0.689,2.197,1.458,4.379,2.032,6.619
			c0.978,3.812,2.268,8.275,4.728,11.094c0.263-2.986-0.787-5.772-1.42-8.408c-0.458-1.91-1.07-4.199-1.331-6.143
			c-0.339-2.525-0.962-5.482-2.595-7.534c-1.697-2.132-4.251-4.032-6.172-6.102c-3.52-3.787-2.447-8.987-2.771-13.844
			c-2.746,1.393-5.318,3.535-6.861,6.232C424.99,106.557,425.343,109.791,425.311,112.905z"/>
		<path fill="#5E1D1D" stroke="#3A1212" stroke-miterlimit="10" d="M462.307,102.169c0.448,2.766,1.16,4.712,0.495,7.826
			c-0.668,3.127-1.353,4.92-3.124,7.53c-1.062,1.566-2.435,2.67-3.31,4.387c-1.014,1.986-2.282,4.174-3.247,6.184
			c-1.502,3.129-2.457,5.413-3.314,7.652c-0.477,1.245-2.24,3.166-1.965,4.695c3.648-2.174,5.607-7.254,7.178-10.92
			c1.092-2.552,2.402-5.749,4.686-7.473c3.949-2.98,4.717,3.677,5.564,6.314c0.734,2.281,1.355,4.611,2.115,6.779
			c0.498,1.421,1.359,2.984,1.456,4.523c1.596-0.825,2.413-4.277,2.881-5.924c0.83-2.916,1.275-6.051,1.766-9.193
			c0.55-3.524,1.751-7.773,0.974-11.319c-0.732-3.34-2.051-6.75-3.296-9.926c-1.171-2.986-1.73-4.444-5.014-5.558
			c-1.667-0.565-3.218-1.812-4.981-2.032C460.984,95.692,462.208,101.565,462.307,102.169z"/>
		<circle fill="#3A1212" cx="451.811" cy="155.29" r="2"/>
		<path opacity="0.1" d="M517.555,157.675c-0.619-5.487-0.631-11.805-2.266-17.095c-1.377-4.459-3.952-8.475-4.934-13.156
			c-0.597-2.844-2.438-6.516-6.52-2.977c-4.005,3.474-3.436,8.243-1.512,12.787c2.852,6.732,6.934,13.451,9,20.498
			c1.249,4.264-0.994,8.439-0.461,12.904c0.338,2.843,1.572,4.617,2.717,6.803c0.633,1.209,1.684,2.764,1.729,4
			c0.072,1.936-4.221,4.299-2.246,6.693c0.583,0.708,6.605,1.586,7.5,1.305c1.744-0.547,1.459-1.684,1.498-3.354
			c0.059-2.4-0.631-2.199-1.387-4.006C517.629,174.802,518.43,165.416,517.555,157.675z"/>
		<path opacity="0.1" d="M402.385,152.373c-1.027-4.202-3.135-8.033-4.421-12.148c-0.331-1.06-0.866-7.885-3.104-4.952
			c-0.559,0.733-0.512,2.083-0.594,3.03c-0.341,3.879-1.036,7.734-1.9,11.527c-1.025,4.496-3.852,8.753-4.234,13.27
			c-0.653,7.743,5.988,12.308,2.169,20.146c-1.328,2.726-3.915,5.576-2.154,8.518c1.874,3.133,6.973,5.188,8.608,8.416
			c0.049-4.478,3.02-7.343,3.057-11.899c0.031-4.034-1.975-8.136-1.666-12.106c0.271-3.476,2.197-6.832,2.936-10.342
			C401.916,161.861,403.331,156.238,402.385,152.373z"/>
		<path opacity="0.1" d="M488.478,188.849c0,10.711,1.931,21.375,0.44,32.18c-0.973,7.05,0.58,14.408-1.165,21.436
			c-4.04,1.402-8.349,1.693-12.532,2.485c-2.966,0.562-6.078,1.527-9.064,0.528c4.734-5.902,6.649-15.732,8.539-22.959
			c1.82-6.965,1.08-13.896,1.926-20.893c0.635-5.256,3.084-10.237,3.564-15.486c0.531-5.824-4.258-11.455-1.758-16.637
			c2.777-5.755,6.159-10.842,6.383-17.463c0.162-4.781-0.141-9.738,0.334-14.5c0.56-5.611,3.724-6.764,3.587-12.785
			c-0.04-1.736-0.085-3.127-0.741-4.693c-0.595-1.419-2.84-2.422-2.279-4.365c1.016-3.526,11.191,1.438,13.97,1.424
			c-1.003,0.005-2.358,9.018-2.613,9.966c-0.907,3.364-1.181,4.285-1.606,7.782c-1.105,9.105-2.151,17.002-4.391,25.636
			C488.657,169.811,488.478,179.177,488.478,188.849z"/>
		<path opacity="0.1" d="M412.317,177.515c4.803,14.821,1.453,29.832,4.062,45.027c1.409,8.207,7.146,14.186,6.959,22.938
			c-2.359-0.031-8.359-2.229-10.226-3.706c-1.735-1.372-2.103-3.362-2.406-5.975c-0.569-4.892-1.293-9.886-1.333-14.828
			c-0.068-8.341,1.428-16.593,1.65-24.921c0.167-6.238-1.051-12.928-1.578-19.188c-0.258-3.071-1.557-6.892-0.998-9.979
			C410.422,169.902,411.213,174.11,412.317,177.515z"/>
	</g>
</g>
</svg>
