<?xml version="1.0" encoding="utf-8"?>
<!-- Generator: Adobe Illustrator 16.0.0, SVG Export Plug-In . SVG Version: 6.00 Build 0)  -->
<!DOCTYPE svg PUBLIC "-//W3C//DTD SVG 1.1//EN" "http://www.w3.org/Graphics/SVG/1.1/DTD/svg11.dtd">
<svg version="1.1" id="Layer_1" xmlns="http://www.w3.org/2000/svg" xmlns:xlink="http://www.w3.org/1999/xlink" x="0px" y="0px"
	 width="169.785px" height="170.857px" viewBox="2483.12 0 169.785 170.857" enable-background="new 2483.12 0 169.785 170.857"
	 xml:space="preserve">
<g>
	<defs>
		<circle id="XMLID_13_" cx="2568.012" cy="85.428" r="79.63"/>
	</defs>
	<use xlink:href="#XMLID_13_"  overflow="visible" fill="#F4F4F4"/>
	<clipPath id="XMLID_16_">
		<use xlink:href="#XMLID_13_"  overflow="visible"/>
	</clipPath>
	<path clip-path="url(#XMLID_16_)" fill="#A87C4F" stroke="#231F20" stroke-miterlimit="10" d="M2609.207,161.571
		c-0.826-5.99-5.479-15.033,1.842-17.963c5.6-2.242,14.215-4.477,16.475,2.947c2.68,8.795,3.586,14.758,4.232,23.891
		c0.615,8.658,1.096,16.322-1.736,24.695c-4.998,14.772-15.104-8.865-16.512-16.098
		C2611.966,171.145,2610.324,169.678,2609.207,161.571z"/>
	<path clip-path="url(#XMLID_16_)" fill="#A87C4F" stroke="#231F20" stroke-miterlimit="10" d="M2529.91,164.719
		c0.912-5.977,6.056-14.963-1.222-17.998c-5.567-2.322-14.146-4.682-16.516,2.711c-3.322,10.367-0.978,9.745-3.254,20.457
		c-1.331,6.265-2.546,20.316,0.915,28.263c6.232,14.294,13.965-9.173,15.48-16.385
		C2526.966,173.893,2528.675,172.809,2529.91,164.719z"/>
	<path clip-path="url(#XMLID_16_)" fill="#FFFFFF" stroke="#A6A8AB" stroke-miterlimit="10" d="M2515.548,131.188
		c-2.195,4.147-5.854,12.05-3.796,14.465c1.489,1.748-1.42,5.499-0.158,6.676c-0.304-0.283,4.479,0.715,3.854,0.624
		c0.203,0.029,2.315,1.568,2.723,1.761c0.234,0.111,1.766-1.286,2.649-0.929c1.479,0.6,2.242,2.462,3.662,3.302
		c0.993,0.588,2.551-0.253,3.589-0.015c0.78,0.181,0.859,2.914,2.676,2.292c2.81-0.965,3.601-14.289,3.364-17.357
		C2533.197,130.151,2524.717,113.876,2515.548,131.188z"/>
	<path clip-path="url(#XMLID_16_)" fill="#FFFFFF" stroke="#A6A8AB" stroke-miterlimit="10" d="M2606.359,139.298
		c-0.426-8.307,4.967-25.844,15.314-13.844c3.82,4.43,8.066,14.211,5.832,17.021c-0.598,0.753,0.32,2.813,0.629,3.559
		c0.396,0.955,0.801,2.449,0.09,3.381c-0.238-0.287-0.514-0.396-0.812-0.57c-0.255-0.148-0.537-0.521-0.743-0.615
		c-0.034,0.42,0.033,0.873-0.157,1.27c-0.137,0.285-0.638,0.907-0.908,0.996c-0.547,0.183-1.424-0.523-1.86-0.804
		c-0.069,0.698-0.101,1.807-0.897,2.132c-0.886,0.361-1.879-0.213-2.359-0.931c-0.229,0.316-0.201,0.843-0.283,1.225
		c-0.127,0.598-0.391,1.229-0.933,1.569c-0.53,0.334-0.935,0.375-1.519,0.123c-0.738-0.318-1.664-0.883-2.1-1.576
		c-0.18,0.439-0.261,0.923-0.549,1.385c-0.264,0.421-0.432,0.758-0.91,0.949c-1.024,0.408-1.888-0.483-2.263-1.389
		c-0.17,0.387-0.325,0.836-0.68,1.168c-0.414,0.387-1.21,0.72-1.581,0.158c-0.215-0.325-0.301-0.911-0.434-1.287
		c-0.15-0.426-0.301-0.852-0.451-1.277c-0.599-1.695-1.195-3.398-1.623-5.146C2606.628,144.62,2606.517,142.358,2606.359,139.298z"
		/>
	<path clip-path="url(#XMLID_16_)" fill="#FFFFFF" stroke="#A6A8AB" stroke-miterlimit="10" d="M2605.271,113.698
		c-3.629-0.363-4.924-2.011-8.591-2.043c-3.184-0.029-5.106,1.381-7.968,2.25c-5.329,1.619-11.15,0.095-16.572-0.049
		c-5.623-0.147-11.305,0.545-16.902-0.225c-3.102-0.426-6.025-1.918-9.195-1.899c-3.176,0.019-5.934,2.022-8.869,2.973
		c-0.715,0.231-1.552,0.282-2.229,0.618c-0.872,0.434-1.863,1.156-2.714,1.76c-1.736,1.232-3.57,2.412-5.34,3.521
		c-0.245,0.152-1.221,0.932-1.234,1.227c-0.021,0.499,1.818,2.061,2.148,2.481c1.371,1.753,2.947,2.978,3.881,5.099
		c0.933,2.12,0.852,4.9,1.252,7.174c1.067,6.043-0.477,10.133-0.508,16.387c-0.019,3.875-0.25,7.578-0.25,11.523
		c0,5.719,1.12,11.336,2.372,16.892c1.047,4.647,3.835,8.655,4.903,13.31c1.064,4.634-1.249,9.299-1.512,14.016
		c-0.034,0.613-0.723,2.33-0.307,2.996c1.049,1.685,5.373,1.438,7.753,1.894c4.765,0.911,9.573,1.57,14.428,1.392
		c4.654-0.171,13.134,0.617,17.788,0.156c6.45-0.639,13.57-0.235,19.955-1.449c2.783-0.529,3.386-1.765,6.191-2.444
		c1.201-0.291,4.264-0.165,5.147-1.23c2.149-2.59-1.204-8.71-1.386-11.709c-0.33-5.476,1.537-11.349,2.117-16.784
		c1.868-17.49-1.476-42.031,11.084-56.074c1.066-1.192,4.504,5.026,4.299,3.406c-0.295-2.33-4.305-11.271-5.928-11.418
		C2613.936,116.98,2610.642,114.234,2605.271,113.698z"/>
	<path clip-path="url(#XMLID_16_)" fill="#A87C4F" stroke="#231F20" stroke-miterlimit="10" d="M2589.75,111.423
		c-2.531-1.066-5.144-2.096-6.761-4.433c-2.509-3.624-3.09-7.765-2.503-12.138c0.288-2.154,0.169-4.338,0.443-6.49
		c0.203-1.583,1.236-3.424,0.787-4.964c-2.857,2.203-8.111,1.425-11.543,1.425c-5,0-9.77-0.298-14.697-1.079
		c0.006,4.845,0.828,9.712,0.828,14.59c0,3.149-0.141,6.942-1.904,9.663c-3.107,4.793-9.793,6.787-15.008,8.305
		c0.721,4.025,9.792,12.628,10.605,13.375c8.016,7.354,13.016,12.396,19.516,12.396c15.166,0,28.564-23.283,30.014-26.031
		c0.381-0.723,1.088-1.539,0.47-2.084c-0.487-0.43-2.954-0.328-3.681-0.472C2594.059,113.04,2591.867,112.315,2589.75,111.423z"/>
	<path opacity="0.2" clip-path="url(#XMLID_16_)" fill="#231F20" d="M2563.179,186.698c3.816,7.912,6.28,20.786,17.447,18.553
		c5.293-1.059,10.768-5.586,14.652-9.144c5.728-5.243,8.34-15.845,10.852-22.887c2.025-5.681,3.15-16.466,1.518-22.157
		c-7.693,9.384-9.545,21.229-18.117,29.449c-6.197,5.941-17.325,18.036-26.352,10.186"/>
	<path clip-path="url(#XMLID_16_)" fill="#8A5D3B" d="M2556.929,87.698c0.301,1.859,0.477,4.77,1.672,6.302
		c1.063,1.362,2.557,1.484,3.992,2.386c3.893,2.446,6.228,6.605,10.83,8.062c2.276,0.72,4.696,1.617,5.506-1.252
		c0.618-2.191,0.018-4.535,0.266-6.768c0.229-2.046,0.484-3.877,0.484-5.98"/>
	<path clip-path="url(#XMLID_16_)" fill="#A87C4F" stroke="#231F20" stroke-miterlimit="10" d="M2568.429,97.307
		c2.25,0,16,0.391,22.75-29.61c9.549-42.434-30.5-38-22.25-38s-32.636-4.237-22.25,38c7.5,30.5,20.5,29.61,22.75,29.61H2568.429z"/>
	<path clip-path="url(#XMLID_16_)" fill="#8A5D3B" d="M2561.476,57.865c-1.848-0.1-3.719-0.074-5.489,0.342
		c-2.877,0.676-5.421,3.863-3.353,6.791c1.607,2.276,5.52,4.752,8.379,3.25c1.65-0.867,3.105-2.159,3.885-3.878
		C2566.264,61.356,2564.957,58.052,2561.476,57.865z"/>
	<path clip-path="url(#XMLID_16_)" fill="#FFFFFF" stroke="#716558" stroke-width="0.75" stroke-miterlimit="10" d="M2561.71,65.557
		c0.625-0.625,1.918-2.547,1.822-3.338c-1.803-0.746-4.536-0.732-6.443-0.237c-1.032,0.268-3.336,0.404-3.656,1.343
		c-0.254,0.747,2.036,2.8,2.924,3.051C2557.867,66.802,2560.253,67.013,2561.71,65.557z"/>
	<path clip-path="url(#XMLID_16_)" fill="#A87C4F" stroke="#231F20" stroke-miterlimit="10" d="M2547.429,66.073
		c-0.961-1.585-3.842-4.385-4.818-1.193c-0.364,1.189-0.068,3.049-0.057,4.307c0.008,0.744-0.045,1.576,0.142,2.296
		c0.3,1.157,1.271,1.723,1.64,2.715c0.332,0.896,0.058,1.724,0.525,2.595c0.571,1.062,1.34,2.781,2.506,3.442
		c2.172,1.23,2.7-0.993,3.188-2.537"/>
	<path clip-path="url(#XMLID_16_)" fill="#A87C4F" stroke="#231F20" stroke-miterlimit="10" d="M2590.179,66.073
		c0.963-1.585,3.843-4.385,4.819-1.193c0.364,1.189,0.068,3.049,0.056,4.307c-0.007,0.744,0.045,1.576-0.141,2.296
		c-0.299,1.157-1.271,1.723-1.639,2.715c-0.332,0.896-0.059,1.724-0.526,2.595c-0.571,1.062-1.339,2.781-2.506,3.442
		c-2.171,1.23-2.7-0.993-3.188-2.537"/>
	<path clip-path="url(#XMLID_16_)" fill="#231F20" d="M2547.679,63.448c1.486-4.846,2.453-11.345,6.749-14.619
		c-0.095-0.729-0.58-1.257-0.721-1.962c-0.38-1.904,0.269-5.174,1.715-6.556c1.302-1.245,4.092-1.183,5.765-1.832
		c1.82-0.707,4.553-1.625,6.437-0.667c0.257-0.584,0.62-1.037,0.827-1.597c0.75,0.047,0.939,0.983,1.506,1.362
		c1.752,1.173,4.541,0.445,6.476,1.343c1.538,0.714,2.446,0.252,3.455,1.803c0.839,1.29,1.188,2.699,1.296,4.226
		c0.092,1.322,0.197,1.258,1.146,2.234c1.316,1.355,2.833,3.451,3.322,5.302c0.48,1.815,0.54,3.704,1.189,5.526
		c0.427,1.195,1.008,2.137,1.441,3.25c0.723,1.854,0.125,3.883,1.301,5.518c0.585-0.837,1.535-1.292,2.005-2.175
		c0.39-0.734,0.556-1.834,0.72-2.653c0.816-4.093,1.342-8.847,0.844-13.003c-0.421-3.516-2.826-6.744-4.709-9.631
		c-1.42-2.174-2.752-3.471-4.974-4.66c-2.136-1.143-3.927-2.879-6.22-3.74c-1.487-0.558-2.889-1.513-4.459-1.743
		c-1.386-0.204-2.98-0.089-4.377,0.021c-2.225,0.176-4.243,0.079-6.326,0.818c-3.369,1.195-6.494,2.516-9.286,4.798
		c-1.132,0.926-1.878,2.417-2.812,3.255c-0.73,0.654-1.387,0.959-1.969,1.886c-1.098,1.747-1.973,3.957-2.342,5.993
		c-0.465,2.562-1.248,5.512-1.25,8.122c0,3.326-0.254,9.491,3.264,11.469c0.105-0.888-0.016-1.871,0.236-2.712"/>
	<path clip-path="url(#XMLID_16_)" fill="#231F20" stroke="#603813" stroke-miterlimit="10" d="M2556.329,62.619
		c-0.334,1.628,1.411,2.65,2.755,2.396c1.913-0.362,1.757-1.563,1.956-3.052"/>
	<path clip-path="url(#XMLID_16_)" fill="#231F20" d="M2559.052,60.853c2.387,0.002,3.989,0.214,5.77,2.07
		c-2.111-0.475-1.893-0.725-5.541-0.478c-1.23,0.083-2.178,0.5-3.487,0.628c-1.78,0.173-2.093,0.593-3.671,1.109
		C2553.732,61.619,2556.133,60.85,2559.052,60.853z"/>
	<path clip-path="url(#XMLID_16_)" fill="#231F20" d="M2561.884,58.436c-1.241,0.122-2.482-0.044-3.723-0.014
		c-1.474,0.038-2.557,0.175-3.852,0.838c-0.721,0.369-1.688,0.658-2.462,0.716c0.066-0.004,1.652-1.611,2.079-1.796
		c1.121-0.489,2.493-0.857,3.689-1.124c2.035-0.454,4.137-0.022,6.203-0.547c0.17-0.043-0.314,1.146-0.402,1.248
		C2563.07,58.163,2562.413,58.383,2561.884,58.436z"/>
	<path clip-path="url(#XMLID_16_)" fill="#754C28" d="M2565.58,78.433c0.932,0.553,1.814,1.441,2.851,1.594
		c1.362,0.202,2.314-1,3.271-1.743c0.791-0.614,5.454-1.231,2.374-3.153c-0.766,2.112-2.617,2.924-4.729,3.021
		c-1.654,0.077-5.655-0.281-5.404-2.73c-0.031,0.287-1.484,0.293-1.104,1.476C2563.139,77.836,2564.855,78.004,2565.58,78.433z"/>
	<path clip-path="url(#XMLID_16_)" fill="#754C28" d="M2569.929,85.726c-1.839,0.281-3.793,0.364-5.645,0.185
		c-0.902-0.088-5.41-1.247-3.505-2.59c0.618,1.931,2.629,0.741,4.116,0.746c1.371,0.004,2.227,1.053,3.787,0.759
		c0.564-0.106,1.125-0.694,1.529-0.823c0.707-0.224,1.093-0.022,1.968,0.076c1.226,0.137,3.483,0.615,3.357-1.355
		c0.022,0.349,0.823,0.531,0.62,1.405c-0.186,0.8-0.66,0.823-1.375,1.098C2573.294,85.798,2571.484,85.489,2569.929,85.726z"/>
	<path clip-path="url(#XMLID_16_)" fill="#754C28" d="M2574.044,86.964c-1.295,0.438-2.62,0.701-4.115,0.853
		c-1.919,0.194-3.906-0.132-5.801-0.208c1.924,1.184,3.222,1.197,5.404,1.229c0.919,0.014,1.917-0.007,2.78-0.364
		C2572.974,88.2,2573.57,87.124,2574.044,86.964z"/>
	<circle clip-path="url(#XMLID_16_)" fill="#FFFFFF" cx="2557.304" cy="62.948" r="0.5"/>
	<path clip-path="url(#XMLID_16_)" fill="#8A5D3B" d="M2583.301,66.786c1.393-1.039,2.323-2.552,2.416-4.376
		c0.173-3.391-2.231-4.287-4.993-5.127c-2.516-0.765-6.457-0.866-8.832,0.582c-2.875,1.754-2.076,9.414-0.375,11.721
		c0.344-1.096-0.635-4.726,0.838-5.219c1.581-0.53,3.032,2.423,4.176,3.018c1.496,0.779,4.086,0.848,5.602,0.11
		C2582.548,67.292,2582.941,67.055,2583.301,66.786z"/>
	<path clip-path="url(#XMLID_16_)" fill="#FFFFFF" stroke="#716558" stroke-width="0.75" stroke-miterlimit="10" d="
		M2576.009,65.198c-0.625-0.625-1.919-2.547-1.822-3.338c1.803-0.746,4.535-0.732,6.443-0.237c1.031,0.268,3.336,0.404,3.655,1.343
		c0.254,0.747-2.036,2.8-2.923,3.051C2579.853,66.443,2577.465,66.654,2576.009,65.198z"/>
	<path clip-path="url(#XMLID_16_)" fill="#231F20" stroke="#603813" stroke-miterlimit="10" d="M2581.39,62.259
		c0.334,1.628-1.41,2.65-2.754,2.396c-1.914-0.362-1.758-1.563-1.957-3.052"/>
	<path clip-path="url(#XMLID_16_)" fill="#231F20" d="M2578.667,60.493c-2.387,0.002-3.99,0.214-5.771,2.07
		c2.112-0.475,1.893-0.725,5.542-0.478c1.229,0.083,2.177,0.5,3.486,0.628c1.781,0.173,2.094,0.593,3.671,1.109
		C2583.987,61.26,2581.585,60.49,2578.667,60.493z"/>
	<path clip-path="url(#XMLID_16_)" fill="#231F20" d="M2575.835,58.076c1.24,0.122,2.481-0.044,3.723-0.014
		c1.473,0.038,2.557,0.175,3.852,0.838c0.72,0.369,1.688,0.658,2.461,0.716c-0.066-0.004-1.652-1.611-2.079-1.796
		c-1.12-0.489-2.493-0.857-3.689-1.124c-2.034-0.454-4.136-0.022-6.202-0.547c-0.17-0.043,0.314,1.146,0.402,1.248
		C2574.65,57.803,2575.306,58.023,2575.835,58.076z"/>
	<circle clip-path="url(#XMLID_16_)" fill="#FFFFFF" cx="2580.415" cy="62.588" r="0.5"/>
	<path clip-path="url(#XMLID_16_)" fill="#754C28" d="M2548.679,72.445c-0.07-2.146-1.111-5.081-3.312-6.031
		c-1.902-0.82-1.598,2.279-1.438,3.534c0.121,0.951,0.496,1.788,1,0.622c0.224-0.517-0.393-2.146,0.15-2.471
		c1.091-0.652,2.685,3.198,2.581,3.83c-0.799,0.212-1.443-1.183-1.962-0.615c-0.328,0.358,0.196,1.744,0.277,2.112
		c0.713,0.237,2.604,2.439,3.24,1.78C2549.602,74.806,2548.701,73.092,2548.679,72.445z"/>
	<path clip-path="url(#XMLID_16_)" fill="#754C28" d="M2593.554,67.695c0.002-1.13,0.251-2.029-0.898-1.497
		c-0.888,0.411-1.293,1.741-1.904,2.343c-0.658,0.65-1.058,0.765-1.324,1.782c-0.215,0.817-1.229,3.878-0.125,4.262
		c1.391,0.484,3.723-3.463,1.146-2.906c-0.235-1.093,1.125-3.549,2.213-3.71c0.046,0.935-0.143,1.97,0.365,2.801
		C2593.117,70.918,2593.554,67.96,2593.554,67.695z"/>
	<path clip-path="url(#XMLID_16_)" fill="#5A4A42" d="M2586.054,38.323c-0.593,0.83-0.535,2.918-0.993,3.979
		c-0.498,1.157-1.225,2.437-2.462,2.92c1.371,0.961,1.941-0.463,2.806-1.64c0.235,0.904-0.786,2.433-1.341,3.09
		c1.041,0.252,1.805-0.866,2.121-1.653c0.09,1.016-0.372,1.306-0.654,2.188c-0.355,1.106-0.021,1.067,0.865,0.206
		c1.072-1.043,2.898-3.485,2.512-5.078c-0.618,0.117-1.225,1.055-1.703,1.474c-0.051-0.651,0.397-0.848,0.568-1.418
		c0.178-0.593,0.129-1.213,0.266-1.793c-0.129-0.048-0.24-0.099-0.369-0.139c-0.354,0.777-0.533,1.634-1.377,2.069
		c0.179-0.993,1.098-3.642-0.238-4.081"/>
	<path clip-path="url(#XMLID_16_)" fill="#5A4A42" d="M2571.801,33.773c-0.272,1.074-0.218,2.23-0.622,3.263
		c-0.65-1.087-0.938-2.221-0.814-3.502c0.115-1.209,1.186-2.647,1.193-3.682c-0.008,1.056,0.006,2.068,0.146,3.087
		c0.534-0.777,0.842-1.777,1.066-2.713c0.385,1.242,0.588,2.202,0.684,3.46c0.79-0.75,0.896-1.832,0.844-2.949
		c0.922,2.403,1.238,4.911-0.347,7.197c-0.056-0.97,0.276-2.413-0.403-3.19c0.078,0.94-0.787,2.706-1.709,2.958
		C2572.49,36.593,2572.524,34.794,2571.801,33.773z"/>
	<path clip-path="url(#XMLID_16_)" fill="#5A4A42" d="M2545.046,57.488c0.341,0.25,0.793,0.405,1.238,0.545
		c-0.217-1.022-0.771-2.058-0.736-3.293c0.346,0.652,0.792,1.205,1.48,1.444c-0.012-0.881-0.529-1.674-0.725-2.361
		c-0.135-0.475-0.164-1.204-0.362-1.745c0.063,0.743,0.407,1.517,1.218,1.364c-0.151-1.454-1.062-3.036-0.832-4.711
		c0.417,0.753,0.748,2.077,1.84,1.948c-0.646-1.213-0.876-2.805-0.871-4.193c0.858,1.92,4.093,1.328,5.506,2.236
		c-0.854,0.499-1.718,0.702-2.609,1c0.321,0.266,0.814,0.31,1.248,0.147c-0.387,0.729-1.863,1.825-2.744,1.847
		c0.183,0.602,1.049,0.38,1.561,0.123c-0.083,0.893-1.633,1.346-2.195,1.958c0.568,0.099,1.168,0.071,1.629-0.302
		c-0.085,0.841-1.378,1.581-1.904,1.702c0.624,0.061,1.301,0.067,1.748-0.365c-0.305,1.041-1.141,1.368-1.814,2.021
		c0.452-0.006,0.605,0.051,0.998-0.337c0.154,0.786-0.787,1.486-1.129,2.189c-0.457,0.937-0.235,1.97-0.313,2.982
		c-0.599-0.545-0.985-1.445-1.396-2.125C2545.689,59.249,2545.162,57.572,2545.046,57.488z"/>
	<circle clip-path="url(#XMLID_16_)" fill="#AE4553" cx="2568.221" cy="53.948" r="1.208"/>
	<path clip-path="url(#XMLID_16_)" fill="#EE4036" stroke="#BE1E2D" stroke-miterlimit="10" d="M2614.537,276.059
		c-0.01,0.795-0.018,1.588-0.018,2.379c0,8.467-0.502,16.836-0.749,25.279c-0.237,8.1,0.915,19.729,1.484,27.789
		c0.374,5.291,0.724,23.164,4.13,27.502c-1.006,0.822-11.723,4.117-11.71,4.461c0.226,5.889-2.335,2.354-6.78,4.367
		c-3.438,1.559-4.443,4.021-8.473,5.275c-2.968,0.924-5.908,1.742-8.879,2.471c-8.615,2.113-18.511,1.104-27.543-1.373
		c-7.023-1.926-14.846-1.924-21.258-4.91c-5.492-2.557-4.412-3.426-4.725-8.938c-5.608-0.504-6.381-3.145-6.438-8.252
		c-0.148-13.268,2.58-37.225,2.58-50.65c0-21.627,0.233-49.504,2.606-70.918c1.168-10.54,1.603-10.142,2.913-23.008
		c1.049-10.293,0.16-20.98-0.32-31.312c-0.209-4.508-0.233-9.096-0.498-13.635c-0.525-9.03,2.828-20.209,2.24-29.25
		c-0.561-8.652-0.78-1.232,2.824,2.438c1.387,1.412,2.621,2.681,3.87,4.213c4.966,6.093,10.011,11.9,16.304,16.642
		c4.088,3.08,8.143,6.211,12.174,9.392c1.766,1.393,3.533,3.063,5.219,4.419c6.84,5.499,12.507,14.188,17.4,21.4
		c1.91,2.814,3.871,6.25,6.68,8.332c1.605,1.189,1.684,1.608,3.565,2.209c1.788,0.568,4.696,1.556,6.011-0.316
		c0.914-1.301,0.323-4.349,0.408-6.042c2.161,1.9,2.286,5.146,2.951,7.63c0.666,2.485,0.762,5.028,0.762,7.792
		c0,2.577-0.833,4.427-1,6.812c-0.236,3.369,1.52,6.993,2.244,10.226c1.828,8.167-0.331,16.38,0.109,24.694
		c0.264,4.957,1.546,9.518,1.846,14.551C2614.632,270.487,2614.572,273.28,2614.537,276.059z"/>
	<path opacity="0.2" clip-path="url(#XMLID_16_)" fill="#231F20" d="M2553.181,213.007c-6.482-16.89-22.766-35.205-17.699-54.775
		c4.64,5.834,3.486,14.378,7.193,20.694c4.25,7.241,10.5,14.624,15.533,21.495c3.533,4.822,7.798,9.121,11.148,14.067
		c3.955,5.838,5.879,12.38,7.656,19.134c2.461,9.344,6.79,17.707,9.73,26.84c1.576,4.902,2.514,10.082,5.668,14.285
		c2.914,3.885,2.934,12.041,7.848,13.146c7.386,1.66,8.774-12.039,11.266-16.084c1.119,2.736,0.115,6.957-0.337,9.744
		c-1.106,6.822-3.679,12.648-5.945,19.266c-1.258,3.672-2.497,21.406-8.147,16.227c-2.6-2.383-5.091-9.6-6.767-12.754
		c-2.693-5.07-6.573-9.367-9.093-14.551c-2.338-4.811-4.377-9.621-6.31-14.646c-3.864-10.049-8.646-19.006-11.737-29.473
		C2559.968,234.716,2557.264,223.64,2553.181,213.007z"/>
	<path clip-path="url(#XMLID_16_)" fill="#231F20" d="M2571.679,25.864c-3.599-0.294-8.415,0.334-11.074,2.667
		c-5.712,5.009,1.885,3.708,5.408,3.316c2.17-0.242,5.354-0.312,7.455,0.241c1.977,0.52,7.54,3.25,6.441-1.841
		C2579.283,27.336,2574.132,26.066,2571.679,25.864z"/>
	<path clip-path="url(#XMLID_16_)" fill="#F05A28" stroke="#BE1E2D" stroke-miterlimit="10" d="M2531.231,134.147
		c-2.866-4.602-6.917-14.355-12.008-8.076c-2.45-2.068,5.325-5.006,7.021-6.062c1.594-0.992,3.541-1.088,5.545-0.857
		c3.057,0.352-0.426,2.182,2.351,4.059c3.275,2.217,7.253,3.977,9.985,7.225c3.84,4.565,6.334,10.244,9.854,15.043
		c3.402,4.639,7.958,9.795,12.75,12.739c3.011,1.851,5.178,0.923,8.025-0.507c1.538-0.771,2.702-2.023,3.918-3.244
		c3.66-3.671,8.672-6.567,11.648-10.98c6.413-9.509,4.242-18.42,7.59-29.078c-2.312-0.423-0.68-2.132-2.735-1.865
		c1.921-6.042,10.163-2.219,13.944,0.282c2.66,1.758,6.41,0.727,8.898,2.235c2.595,1.574,0.682,4.125-0.34,6.172
		c-1.746,3.488-3.131,5.909-5.449,9.245c-1.648,2.371-2.681,5.362-3.072,8.362c-0.547,4.177-0.203,8.641-1.043,12.678
		c-1.193,5.739-3.659,11.621-5.547,17.229c-0.744,2.213-1.189,4.915-1.916,7.059c-0.867,2.564-2.012,5.943-4.001,8.129
		c-2.429,2.669-4.475,4.797-6.597,7.753c-1.45,2.019-2.936,4.481-4.575,6.276c-1.541,1.689-4.368,4.386-6.803,4.25
		c-1.384-0.076-2.144-0.996-3.454-1.268c-1.508-0.312-3.234,0.217-4.754,0.008c-5.268-0.723-9.219-4.609-12.408-8.796
		c-8.917-11.706-13.77-25.886-19.543-39.329C2535.296,145.331,2535.558,141.093,2531.231,134.147z"/>
	<path opacity="0.2" clip-path="url(#XMLID_16_)" fill="#231F20" d="M2549.009,144.28c1.682,3.309,3.877,6.119,6.202,8.969
		c2.446,2.999,5.932,8.765,9.29,10.957c4.658,3.042,14.184,3.623,18.73,1.145c4.367-2.38,7.604-5.621,10.715-9.384
		c1.375-1.665,2.816-4.005,4.813-4.391c0.827,5.558-5.06,12.836-8.113,16.765c-3.35,4.311-7.753,10.173-12.889,12.115
		c-6.596,2.494-13.938-7.469-17.733-11.932c-5.593-6.58-10.368-13.774-14.082-21.648c-1.147-2.433-2.061-4.604-2.844-7.265
		c-0.432-1.466-1-3.111-0.359-4.43C2545.757,136.202,2547.635,141.579,2549.009,144.28z"/>
	<path opacity="0.2" clip-path="url(#XMLID_16_)" fill="#231F20" d="M2599.882,141.989c-3.529,4.084-6.908,13.127-12.338,14.166
		c-0.244-2.038,1.396-2.887,2.477-4.299c1.51-1.977,2.656-4.408,4.016-6.567c2.303-3.656,2.398-7.743,4.711-11.716
		c2.08-3.576,3.872-7.227,4.826-11.375c0.697-3.029,0.266-6.615,2.533-9.074c4.537,3.305,3.121,9.675,2.362,14.424
		C2607.421,134.106,2604.177,137.02,2599.882,141.989z"/>
	<circle clip-path="url(#XMLID_16_)" fill="#FFFFFF" cx="2548.221" cy="78.385" r="0.982"/>
	<circle clip-path="url(#XMLID_16_)" fill="#FFFFFF" cx="2589.474" cy="78.499" r="0.982"/>
	<circle clip-path="url(#XMLID_16_)" fill="#FFFFFF" cx="2555.442" cy="110.115" r="1.228"/>
	<circle clip-path="url(#XMLID_16_)" fill="#FFFFFF" cx="2554.071" cy="107.201" r="1.228"/>
	<circle clip-path="url(#XMLID_16_)" fill="#FFFFFF" cx="2557.214" cy="112.781" r="1.227"/>
	<circle clip-path="url(#XMLID_16_)" fill="#FFFFFF" cx="2559.953" cy="114.689" r="1.227"/>
	<circle clip-path="url(#XMLID_16_)" fill="#FFFFFF" cx="2562.922" cy="115.857" r="1.228"/>
	<circle clip-path="url(#XMLID_16_)" fill="#FFFFFF" cx="2566.375" cy="116.638" r="1.227"/>
	<circle clip-path="url(#XMLID_16_)" fill="#FFFFFF" cx="2570.063" cy="116.925" r="1.228"/>
	<circle clip-path="url(#XMLID_16_)" fill="#FFFFFF" cx="2573.976" cy="116.127" r="1.227"/>
	<circle clip-path="url(#XMLID_16_)" fill="#FFFFFF" cx="2577.268" cy="114.588" r="1.227"/>
	<circle clip-path="url(#XMLID_16_)" fill="#FFFFFF" cx="2580.037" cy="112.322" r="1.227"/>
	<circle clip-path="url(#XMLID_16_)" fill="#FFFFFF" cx="2582.569" cy="109.571" r="1.228"/>
	<path clip-path="url(#XMLID_16_)" fill="#8A5D3B" d="M2579.396,81.634c1.79-0.236,3.385-1.213,4.58-2.542
		c0.603-0.669,1.106-1.427,1.506-2.234c0.135-0.273,0.639-2.209,0.714-2.259c-1.033,0.698-1.722,1.766-2.856,2.414
		C2581.333,78.157,2579.213,78.887,2579.396,81.634z"/>
	<path clip-path="url(#XMLID_16_)" fill="#8A5D3B" d="M2554.792,76.054c-0.557-0.361-1.17-0.61-1.688-0.969
		c-0.526-0.365-1.079-0.903-1.726-0.96c1.014,0.09,2.721,4.246,3.352,5.039c0.611,0.768,1.338,1.489,2.299,1.789
		c1.25,0.389,1.605-0.13,1.104-1.334C2557.542,78.208,2556.043,76.864,2554.792,76.054z"/>
</g>
</svg>
