<?xml version="1.0" encoding="utf-8"?>
<!-- Generator: Adobe Illustrator 16.0.0, SVG Export Plug-In . SVG Version: 6.00 Build 0)  -->
<!DOCTYPE svg PUBLIC "-//W3C//DTD SVG 1.1//EN" "http://www.w3.org/Graphics/SVG/1.1/DTD/svg11.dtd">
<svg version="1.1" id="Layer_1" xmlns="http://www.w3.org/2000/svg" xmlns:xlink="http://www.w3.org/1999/xlink" x="0px" y="0px"
	 width="169.785px" height="170.857px" viewBox="0 0 169.785 170.857" enable-background="new 0 0 169.785 170.857"
	 xml:space="preserve">
<g>
	<defs>
		<circle id="XMLID_1_" cx="84.892" cy="85.428" r="78.717"/>
	</defs>
	<use xlink:href="#XMLID_1_"  overflow="visible" fill="#F4F4F4"/>
	<clipPath id="XMLID_16_">
		<use xlink:href="#XMLID_1_"  overflow="visible"/>
	</clipPath>
	<g clip-path="url(#XMLID_16_)">
		
			<path fill="#E8D7B8" stroke="#726658" stroke-width="1.1259" stroke-linecap="round" stroke-linejoin="round" stroke-miterlimit="10" d="
			M98.067,138.863c-9.008-16.044-3.941-26.312-2.251-32.785l-12.667,4.223l-12.668-4.223c1.689,6.474,6.756,16.741-2.252,32.785
			c-7.836,13.96,9.676,24.718,14.362,27.281l-0.007,0.585c0,0,0.207-0.099,0.564-0.286c0.356,0.188,0.562,0.286,0.562,0.286
			l-0.006-0.585C88.392,163.581,105.903,152.823,98.067,138.863z"/>
		<path fill="#C1AC90" d="M75.516,110.716c-0.068,1.739,3.802,4.917,4.919,6.379c1.442,1.888,2.62,3.923,3.437,6.045
			c0.862,2.251,1.716,5.429,1.718,7.854c0,1.203,0,2.408,0,3.61c0,1.92-0.612,4.362-0.051,6.123c1.605-1.696,2.844-3.745,4.654-5.25
			c0.714-0.596,2.086-0.865,2.644-1.464c0.938-1.005,0.327-1.119-0.027-2.126c-0.574-1.64-0.603-3.053-0.822-4.718
			c-0.462-3.483-1.042-7.034-0.708-10.625c0.273-2.954,2.639-4.66,3.377-7.328"/>
		<path fill="#BC6E2D" stroke="#8C6239" stroke-width="1.1259" stroke-miterlimit="10" d="M81.465,25.929
			c-0.09-1.893-0.38-2.929-1.698-4.312c-1.56-1.637-5.344-2.432-5.763-5.014c-0.211,0.504-0.137,1.064-0.152,1.619
			c-1.068,0.436-2.176,0.581-3.244,1.02c-2.502,1.028-6.023,1.616-8.277,3.382c-1.392,1.092-2.692,2.979-3.424,4.566
			c-0.726,1.574-1.121,3.741-2.854,4.611c0.334,0.035,0.687,0.148,1.036,0.123c0.13,2.227,0.104,4.555-0.114,6.771
			c-0.242,2.439-1.854,3.754-3.357,5.726c-1.711,2.243-3.313,4.417-5.643,6.03c0.374-0.055,0.707,0.105,1.051,0.223
			c-0.045,2.878-2.725,5.213-3.012,8.074c-0.092,0.908,0.189,1.56,0.398,2.388c0.184-0.518,0.608-0.833,1.137-0.944
			c0.429,1.08,1.349,1.921,1.828,2.943c0.984,2.103,1.766,4.932,2.099,7.227c0.251,1.724,0.177,3.253-0.276,4.895
			c-0.375,1.368-0.118,2.131,0.541,3.615c1.055,2.378,2.252,4.7,3.096,7.167c0.698,2.038,0.648,4.565,0.186,6.683
			c-0.27,1.238-0.891,2.32-1.051,3.545c-0.265,2.005,1.174,2.534,2.131,4.072c0.791,1.274,0.854,2.011-0.309,2.801
			c-1.086,0.738-1.459,2.209-0.629,3.368c0.169-0.72,0.113-1.007,0.762-1.326c0.771-0.378,1.754-0.252,2.557-0.468
			c1.506-0.407,1.953-2.22,2.055-3.616c0.162-2.237-0.281-4.508-0.725-6.609c0.915,0.557,1.85,1.657,2.695,2.363
			c0.65,0.546,1.008,1.188,1.438,1.892c0.402,0.658,0.936,1.114,1.588,1.566c1.402,0.97,3.006,1.611,4.396,2.604
			c-0.184-0.131-0.447-2.339-0.555-2.71c-0.234-0.805-0.598-1.567-0.789-2.373c-0.488-2.06-0.428-4.2-1.141-6.219
			c-0.245-0.695-0.691-1.282-0.973-1.96c-0.422-1.008-0.594-2.115-0.973-3.145c-3.543-9.631-5.613-20.718-2.003-30.611
			c1.163-3.186,2.161-6.575,3.567-9.648c0.619-1.354,1.973-1.525,2.834-2.623c0.539-0.687,0.266-1.681,0.152-2.566
			c-0.213-1.665,3.148-0.201,2.514-1.778c-0.279-0.696-1.336-2.512-0.932-3.416c0.631-1.409-1.197-3.468-0.381-2.873
			c0.682,0.498,1.318,0.751,1.393,1.703c0.782,0.247,1.328-0.385,1.988-0.682c0.923-0.416,2.012-0.591,3.031-0.708
			c1.137-0.13,2.307,0.611,3.429,0.3c0.476-0.132,1.187-0.464,1.489-0.865c0.61-0.805,0.217-0.669-0.074-1.422
			C81.833,29.573,81.557,27.809,81.465,25.929z"/>
		
			<path fill="#E8D7B8" stroke="#726658" stroke-width="1.1259" stroke-linecap="round" stroke-linejoin="round" stroke-miterlimit="10" d="
			M83.641,40.064c19.562,0,23.293,18.296,21.674,35.678c-1.841,19.76-6.682,39.951-21.744,39.951h0.141
			c-15.062,0-20.469-20.147-21.744-39.951C60.629,54.983,64.079,40.064,83.641,40.064z"/>
		<path fill="#BC6E2D" stroke="#8C6239" stroke-width="1.1259" stroke-miterlimit="10" d="M58.663,70.728
			c-0.994-1.316-1.704-3.102-2.152-4.641c-0.256-0.883,0.209-1.666,0.193-2.529c-0.014-0.691-0.322-1.327-0.408-2.003
			c-0.244-1.928,0.746-4.835,1.453-6.459c2.041-4.676,4.37-9.105,8.156-12.617c1.16-1.074,2.426-2.055,3.835-2.693
			c1.572-0.711,4.601-0.987,5.53-2.674c0.165-0.299,0.162-0.793,0.271-1.118c0.518,0.305,0.887,0.219,1.453,0.035
			c0.25-0.081,0.367-0.442,0.664-0.576c0.272-0.122,0.668-0.011,0.957-0.06c0.763-0.129,0.686-0.155,1.475,0.106
			c0.566,0.188,1.061,0.462,1.654,0.594c1.095,0.244,2.43,0.37,3.476,0.751c0.974,0.354,1.761,0.919,2.856,1.113
			c1.594,0.281,2.584,0.569,3.953,1.404c2.421,1.476,4.992,2.58,7.475,3.938c3.277,1.791,6.059,4.776,6.944,8.369
			c0.108,0.44-0.006,0.892,0.063,1.344c0.124,0.821,0.581,1.758,0.747,2.698c0.23,1.304,0.243,2.58,0.237,3.917
			c-0.002,0.611-0.04,1.24,0.024,1.847c0.367,3.535-0.293,6.608-0.975,10.048c-0.445,2.244-1.772,6.349-3.289,8.107
			c0.281-6.192-0.401-6.384-0.307-8.94c0.183-4.869-0.046-6.309,0.02-9.374c0.064-2.979-0.453-6.53-2.082-9.077
			c-0.282-0.44-0.457-0.846-0.787-1.277c-0.525-0.688-1.008-1.355-1.612-2.033c-0.529-0.595-1.099-1.05-1.682-1.573
			c-1.789-1.604-4.304-2.487-6.763-2.787c-2.573-0.313-4.672-0.453-7.052,0.418c-1.066,0.391-3.15,1.123-3.821,2.081
			c-0.823,0.013-1.673-0.399-2.483-0.525c-0.837-0.13-1.709-0.249-2.557-0.288c-1.488-0.069-2.887-0.164-4.068,0.669
			c-3.602,2.538-4.309,5.642-5.756,9.637c-1.086,2.994-0.59,6.009-0.752,9.164c-0.139,2.668,0.142,5.314,0.174,7.973
			c0.012,0.964-0.066,1.953,0.059,2.911c0.104,0.782,0.492,1.61,0.336,2.403c-1.002-0.988-1.381-2.419-2.118-3.587
			C60.974,73.794,59.825,72.265,58.663,70.728z"/>
		
			<path fill="#E8D7B8" stroke="#726658" stroke-width="1.1259" stroke-linecap="round" stroke-linejoin="round" stroke-miterlimit="10" d="
			M63.85,76.286c-1.261-1.411-4.952-5.031-7.193-3.601c-2.033,1.297-0.918,4.004-0.166,5.716c1.184,2.696,1.85,5.215,2.576,7.775
			c0.354,1.249,1.064,2.427,2.07,3.265c0.544,0.453,2.081,0.864,2.78,0.356"/>
		
			<path fill="#E8D7B8" stroke="#726658" stroke-width="1.1259" stroke-linecap="round" stroke-linejoin="round" stroke-miterlimit="10" d="
			M103.292,76.286c1.26-1.411,4.95-5.031,7.192-3.601c2.032,1.297,0.918,4.004,0.166,5.716c-1.185,2.696-1.851,5.215-2.575,7.775
			c-0.356,1.249-1.065,2.427-2.072,3.265c-0.543,0.453-2.485,0.864-3.186,0.356"/>
		<path fill="#726658" d="M59.792,76.001c-1.244-0.217-1.762,0.412-1.523,1.658c0.197,1.032,0.928,1.461,1.559,2.202
			c0.078-0.623-0.759-3.412,0.945-1.92c0.451,0.394,1.32,2.519,1.268,3.097c-0.107,1.191-0.494,0.354-1.238,0.833
			c-0.594,0.384-0.726,1.2-0.569,1.916c0.247,1.141,0.878,1.534,1.827,1.896c0.381,0.146,0.971,0.45,1.317,0.559
			c0.354,0.112,0.177,0.569,0.788,0.373c0.174-1.02-0.904-1.374-1.373-2.073c-0.91-1.355,0.383-1.99,0.361-3.349
			c-0.018-0.975-0.94-2.296-1.313-3.23C61.432,76.94,60.961,76.205,59.792,76.001z"/>
		<path fill="#726658" d="M107.35,76.001c1.243-0.217,1.762,0.412,1.522,1.658c-0.197,1.032-0.928,1.461-1.558,2.202
			c-0.077-0.623,0.758-3.412-0.946-1.92c-0.451,0.394-1.319,2.519-1.268,3.097c0.108,1.191,0.496,0.354,1.238,0.833
			c0.595,0.384,0.727,1.2,0.569,1.916c-0.246,1.141-0.877,1.534-1.827,1.896c-0.38,0.146-0.97,0.45-1.317,0.559
			c-0.354,0.112-0.177,0.569-0.786,0.373c-0.174-1.02,0.902-1.374,1.372-2.073c0.91-1.355-0.383-1.99-0.36-3.349
			c0.017-0.975,0.938-2.296,1.312-3.23C105.708,76.94,106.18,76.205,107.35,76.001z"/>
		<path fill="#D89682" d="M83.285,99.766c-2.329-0.009-5.917-0.546-5.917-0.546c1.191,1.195,2.498,3.279,5.789,3.279
			c3.292,0,4.599-2.084,5.791-3.279C88.948,99.22,85.611,99.758,83.285,99.766z"/>
		<path fill="#D89682" d="M89.997,99.003c-1.021,0-3.747-1.959-4.682-1.959c-0.917,0-0.703,0.809-2.13,0.845
			c-1.427-0.036-1.213-0.845-2.128-0.845c-0.938,0-3.662,1.959-4.684,1.959c-1.004,0,3.888,0.733,6.726,0.763v0.003
			c0.027,0,0.058-0.002,0.086-0.002c0.027,0,0.059,0.002,0.084,0.002v-0.003C86.111,99.736,91,99.003,89.997,99.003z"/>
		<path fill="#C1AC90" d="M82.317,104.032c-0.699-0.099-3.9-0.757-3.059,0.179c0.844,0.938,3.107,1.356,4.004,1.384
			c0.788,0.025,2.471-0.352,3.502-1.103c0.937-0.681-0.326-0.646-1.031-0.563C84.584,104.063,83.54,104.208,82.317,104.032z"/>
		<path fill="#726658" stroke="#726658" stroke-width="1.1259" stroke-miterlimit="10" d="M83.341,99.805
			c-1.478,0-6.968-0.633-7.813-1.406"/>
		<path fill="#726658" stroke="#726658" stroke-width="1.1259" stroke-miterlimit="10" d="M83.06,99.805
			c1.479,0,6.97-0.633,7.813-1.406"/>
		<path fill="#726658" stroke="#726658" stroke-width="1.1259" stroke-miterlimit="10" d="M75.81,97.571
			c-0.581,0.81-0.616,1.689-0.616,1.689"/>
		<path fill="#726658" stroke="#726658" stroke-width="1.1259" stroke-miterlimit="10" d="M90.574,97.571
			c0.581,0.81,0.616,1.689,0.616,1.689"/>
		<path fill="#C1AC90" d="M66.159,77.748c0.213,0.285,0.656,0.789,1.039,1.043c1.406,0.937,8.041,2.565,11.754-2.164
			c2.288-2.91,0.518-8.981-3.254-9.671c-2.48-0.453-5.709-0.892-8.15-0.037c-1.562,0.548-2.621,2.118-3.068,3.671
			c-0.459,1.591,0.37,2.718,0.936,4.127C65.969,76.102,65.325,76.636,66.159,77.748z"/>
		<path fill="#754C24" d="M70.829,66.937c-1.561,0.1-5.832,1.018-5.977,2.75c0.532-6.336,9.43-3.794,13.234-4.617
			C78.346,67.519,72.42,66.837,70.829,66.937z"/>
		<g>
			
				<path fill="#FFFFFF" stroke="#726658" stroke-width="0.8444" stroke-linecap="round" stroke-linejoin="round" stroke-miterlimit="10" d="
				M72.397,78.35c2.633,0,5.162-2.631,5.162-4.645c-2.541-1.3-3.226-2.813-6.078-2.068c-1.996,0.523-2.811,2.074-4.25,3.676
				C68.313,75.932,69.458,78.35,72.397,78.35z"/>
			<circle fill="#231F20" stroke="#507F55" stroke-width="0.8242" stroke-miterlimit="10" cx="72.489" cy="74.383" r="2.381"/>
			<path fill="#FFFFFF" d="M72.35,73.551c0,0.404-0.326,0.734-0.731,0.734c-0.409,0-0.735-0.33-0.735-0.734
				c0-0.406,0.326-0.733,0.735-0.733C72.024,72.818,72.35,73.145,72.35,73.551z"/>
		</g>
		<g>
			<path fill="#C1AC90" d="M102.471,70.604c-0.304-2.3-2.298-3.512-4.954-4.273c-2.27-0.649-3.551-0.351-5.816,0.172
				c-6.297,1.453-6.113,8.808-6.315,13.268c-0.157,3.436,1.071,10.908-3.785,11.491c-0.079,0.012,1.254,1.437,1.468,1.559
				c0.656,0.376,1.422,0.545,2.196,0.524c1.535-0.04,3.362-0.898,3.715-2.318c0.627-2.527-3.59-9.442-1.348-11.778
				c1.929-2.01,6.494-0.624,8.932-0.543c1.174,0.038,2.83,0.145,3.845-0.523c1.451-0.954,0.657-2.571,1.166-3.961
				C101.981,73.112,102.78,72.959,102.471,70.604z"/>
		</g>
		<path fill="#726658" d="M88.807,89.026c-3.22,0.806-7.468,0.806-10.662-0.006c0.309,0.39,2.452,2.788,5.396,2.788
			C87.28,91.808,88.65,89.252,88.807,89.026z"/>
		
			<path fill="none" stroke="#FFFFFF" stroke-width="0.563" stroke-linecap="round" stroke-linejoin="round" stroke-miterlimit="10" d="
			M79,99.883"/>
		<path fill="#231F20" d="M67.668,75.719c0.254-0.201,0.471-0.4,0.938-0.908c0.885-0.966,2.076-1.824,3.327-2.038
			c2.763-0.473,4.753,2.5,7.392,1.344c-1.303-0.579-2.148-1.476-3.349-2.314c-1.095-0.766-3.036-1.108-4.458-0.883
			c-1.031,0.162-2.768,1.302-3.525,2.034c-1.156,1.117-1.159,1.778-2.842,1.78c0.502,0.187,1.225,0.508,1.812,0.427
			c-0.721,0.099-1.676,0.415-2.385,0.042c0.605,0.421,1.364,1.034,2.1,1.025C66.872,76.226,67.137,76.137,67.668,75.719z"/>
		<path fill="#754C24" d="M96.312,66.937c1.561,0.1,5.832,1.018,5.978,2.75c-0.532-6.336-9.43-3.794-13.234-4.617
			C88.796,67.519,94.719,66.837,96.312,66.937z"/>
		<g>
			
				<path fill="#FFFFFF" stroke="#726658" stroke-width="0.8444" stroke-linecap="round" stroke-linejoin="round" stroke-miterlimit="10" d="
				M94.745,78.35c-2.634,0-5.163-2.631-5.163-4.645c2.541-1.3,3.226-2.813,6.079-2.068c1.995,0.523,2.811,2.074,4.25,3.676
				C98.828,75.932,97.684,78.35,94.745,78.35z"/>
			<circle fill="#231F20" stroke="#507F55" stroke-width="0.8242" stroke-miterlimit="10" cx="94.652" cy="74.383" r="2.38"/>
			<circle fill="#FFFFFF" cx="93.498" cy="73.551" r="0.734"/>
		</g>
		<path fill="#231F20" d="M99.473,75.719c-0.254-0.201-0.472-0.4-0.938-0.908c-0.884-0.966-2.075-1.824-3.327-2.038
			c-2.762-0.473-4.752,2.5-7.39,1.344c1.301-0.579,2.147-1.476,3.347-2.314c1.095-0.766,3.036-1.108,4.459-0.883
			c1.032,0.162,2.768,1.302,3.525,2.034c1.155,1.117,1.158,1.778,2.841,1.78c-0.501,0.187-1.225,0.508-1.812,0.427
			c0.722,0.099,1.676,0.415,2.385,0.042c-0.605,0.421-1.363,1.034-2.098,1.025C100.27,76.226,100.003,76.137,99.473,75.719z"/>
		
			<path fill="#ECD1ED" stroke="#B592B7" stroke-width="2.2518" stroke-linecap="round" stroke-linejoin="round" stroke-miterlimit="10" d="
			M51.127,147.372c1.846-0.555,2.631-1.743,4.184-2.837c2.82-1.99,5.879-2.662,8.758-4.475c3.107-1.959,10.559-3.034,13.52-0.085
			c1.091,1.087,1.641,2.805,2.682,4.032c0.889,1.047,1.734,1.684,2.887,2.506c0.302-1.058,2.217-1.721,3.107-2.528
			c0.975-0.882,1.631-1.959,2.796-2.664c2.472-1.492,5.879-1.747,8.731-2.247c5.65-0.987,11.535,0.132,16.259,3.862
			c2.377,1.878,5.416,3.986,8.211,4.934c2.712,0.919,4.607,0.052,5.423,3.381c0.325,1.326,0.304,2.717-0.117,3.877
			c-0.961,2.646-2.304,5.575-2.929,8.755c-0.552,2.81-0.518,5.939-0.394,8.867c0.123,2.889,0.227,5.585,0.062,8.521
			c-0.326,5.845-2.248,11.43-2.314,17.29c-0.093,8.319-0.638,16.343,0.894,24.558c0.99,5.326,3.602,17.113,0.614,21.966
			c-1.674,2.723-5.197,1.647-7.62,3.015c-1.475,0.834-2.687,2.419-4.224,3.037c-4.693,1.881-10.181,2.303-14.985,1.121
			c-2.807-0.692-5.715-1.552-8.496-1.646c-5.643-0.19-11.39,1.711-17.12,1.428c-5.281-0.263-10.883-0.708-16.115-1.413
			c-0.986-0.133-2.807-1.49-3.6-2.266c-1.21-1.186-1.406-3.275-1.406-4.789c0-7.143-2.098-14.144-1.977-21.203
			c0.074-4.278,0.058-9.157,1.176-13.322c1.078-4.016-0.201-8.034,0.66-12.101c0.482-2.291-0.158-3.323-0.383-5.705
			c-0.467-4.952,1.174-9.528,0.207-14.391c-0.579-2.904-0.553-5.801-1.654-8.448c-0.648-1.559-1.336-2.918-1.766-4.722
			c-0.784-3.298,0.352-6.676-0.208-9.977c-0.353-2.081-2.44-4.205,0.345-5.479C47.795,147.558,49.598,147.831,51.127,147.372z"/>
		
			<path fill="#ECD1ED" stroke="#B592B7" stroke-width="1.6889" stroke-linecap="round" stroke-linejoin="round" stroke-miterlimit="10" d="
			M54.591,140.888c-0.908-1.242-3.266-1.73-3.944-3.081c-1.281-2.552,4.002-3.896,5.979-4.987c1.115-0.615,1.961-1.66,3.292-2.053
			c1.349-0.401,3.009-0.055,4.38-0.333c2.951-0.601,4.373-1.254,7.156-2.207c0.084,1.569-0.854,2.476-0.613,4.12
			c4.507-0.191,5.873,2.05,7.875,5.307c1.922,3.129,6.905,5.179,5.821,9.172c-1.305-0.088-4.414-1.574-5.471-2.354
			c-1.243-0.917-2.946-1.533-4.348-2.174c-2.282-1.044-4.252-2.097-6.771-2.308c-2.871-0.24-5.033,0.886-7.334,2.262
			c-1.758,1.05-3.734,2.266-5.807,2.443C55.049,143.462,55.514,142.156,54.591,140.888z"/>
		
			<path fill="#ECD1ED" stroke="#B592B7" stroke-width="1.6889" stroke-linecap="round" stroke-linejoin="round" stroke-miterlimit="10" d="
			M93.493,141.883c-1.319,0.966-5.179,4.973-6.906,4.757c-0.347-1.711-0.06-4.117,2.444-6.399c0.979-0.894,1.909-2.292,2.851-3.12
			c1.874-1.653,2.359-2.103,4.028-3.887c0-1.688-0.077-1.643-1.285-5.538c1.078,0.39,1.602-0.328,2.724,0.183
			c1.771,0.807,3.782,1.185,5.504,1.972c1.874,0.857,3.125,1.772,5.35,2.357c1.345,0.352,3.585-0.114,4.719,0.521
			c0.942,0.527,4.419,6.138,4.574,7.262c0.254,1.838-2.062,5.114-3.355,6.186c-3.482-4.451-9.966-7.956-15.771-6.514
			C96.494,140.129,95.089,140.713,93.493,141.883z"/>
		<path fill="#B592B7" d="M57.452,137.942c-0.991-4.383,8.854-3.624,10.758-4.924c-0.34,0.231-1.009,1.493-1.457,1.907
			c-0.774,0.712-1.861,1.295-2.803,1.752C61.903,137.674,59.723,138.077,57.452,137.942z"/>
		<path fill="#B592B7" d="M106.88,137.212c-2.078-2.311-4.855-1.835-7.789-2.104c2.203-1.339,5.832-1.19,8.267-0.806
			c1.918,0.305,6.043,1.875,6.267,4.234C114.066,143.16,108.038,138.501,106.88,137.212z"/>
		
			<path fill="#ECD1ED" stroke="#B592B7" stroke-width="2.2518" stroke-linecap="round" stroke-linejoin="round" stroke-miterlimit="10" d="
			M38.102,231.079c-5.268,1.497-13.609-1.164-14.384-7.512c-0.835-6.848-1.492-7.048-0.463-13.894
			c2.214-14.724,9.813-28.646,11.196-43.5c0.43-4.598,5.305-16.406,11.211-15.101c0.818,2.966,1.109,6.184,1.95,8.881
			c0.802,2.568,1.128,5.285,1.821,7.871c0.608,2.263,1.67,4.256,1.97,6.619c0.651,5.142-2.306,9.091-1.625,13.879
			c0.769,5.406,1.429,11.203-0.181,16.559c-1.586,5.282-4.066,3.814-4.744,9.038c-0.271,2.089-0.256,3.364-0.988,5.229
			c-0.661,1.688-1.338,3.423-1.531,5.184C41.969,227.631,41.915,229.997,38.102,231.079z"/>
		
			<path fill="none" stroke="#B592B7" stroke-width="1.1259" stroke-linecap="round" stroke-linejoin="round" stroke-miterlimit="10" d="
			M85.681,147.589c0.019,4.453,0.582,8.919,0.797,13.366c0.283,5.918-0.7,11.538-0.835,17.399c-0.153,6.676-1.081,13.15-1.085,19.89
			c-0.005,6.298,0.426,12.588,0.765,18.878c0.19,3.483,0.836,6.863,1.18,10.28c0.481,4.817,0.296,9.47,0.306,14.296
			c0.003,1.753,0,3.503,0,5.254"/>
		
			<path fill="#ECD1ED" stroke="#B592B7" stroke-width="2.2518" stroke-linecap="round" stroke-linejoin="round" stroke-miterlimit="10" d="
			M122.833,183.043c-0.187-4.173-0.621-8.431-0.271-12.603c0.378-4.521,1.119-8.906,1.119-13.468c0-1.965-0.776-5.065,0.323-6.837
			c1.714-2.765,5.332,0.216,7.114,1.725c1.428,1.209,2.496,2.563,3.47,4.199c1.057,1.775,1.17,3.577,1.824,5.527
			c1.438,4.286,1.423,10.463,3.578,14.166c1.329,2.283,3.377,3.223,4.012,5.797c1.001,4.046,0.812,8.414,1.628,12.471
			c1.272,6.336,5.482,11.979,6.672,18.417c1.201,6.498-5.272,8.311-10.589,9.5c-3.063,0.685-5.068,0.105-8.016-0.534
			c-6.058-1.315-5.836-8.983-7.849-13.81c-2.311-5.54,0.403-4.691-1.057-10.169c-0.521-1.962-0.605-4.207-0.844-6.215
			C123.626,188.505,122.958,185.829,122.833,183.043z"/>
		
			<path fill="#ECD1ED" stroke="#B592B7" stroke-width="1.1259" stroke-linecap="round" stroke-linejoin="round" stroke-miterlimit="10" d="
			M126.778,173.767c2.075-2.399,5.181-6.193,8.726-5.63"/>
		
			<path fill="#ECD1ED" stroke="#B592B7" stroke-width="1.1259" stroke-linecap="round" stroke-linejoin="round" stroke-miterlimit="10" d="
			M79.77,148.433c-2.179-0.321-4.896-0.789-7.017-1.457c-1.861-0.587-3.47-2.392-5.175-2.932c-3.264-1.036-6.431,1.381-9.482,2.138"
			/>
		<path opacity="0.1" d="M127.75,167.612c2.426-3.374-3.948-11.539-0.935-15.168c2.927,1.078,5.324,4.158,5.871,7.252
			C133.733,165.61,130.344,164.003,127.75,167.612z"/>
		<path opacity="0.1" d="M46.135,174.767c0.662-4.038,1.01-8.443,0.035-12.464c-0.391-1.612-0.699-4.795-2.54-5.46
			c-4.451-1.605-2.331,2.782-2.411,4.489C40.988,166.199,39.956,173.246,46.135,174.767z"/>
		<path opacity="0.1" d="M104.541,160.256c-0.721-3.237-6.962-2.757-5.977,0.68c0.688,2.401,8.7,4.029,10.355,7.583
			c0.859-3.411,6.275-8.5,5.231-11.794c-1.901-5.995-7.958-0.512-9.61,2.406"/>
		<path fill="#F7931E" d="M77.655,23.082c1.574,1.642,2.615,6.78,1.746,9.013c-0.946,2.431-6.111,2.963-8.132,1.831
			c-0.667-0.373-0.835-0.983-1.731-0.834c-1.504,0.25-2.42,2.909-2.969,4.061c-0.262,0.555-2.224,3.344-2.203,3.691
			c-0.064-1.105,0.501-2.261,0.764-3.367c0.243-1.028,0.473-1.933,0.981-2.934c1.503-2.952,2.88-2.63,5.759-2.866
			c-1.641-1.576-5.125-2.155-6.881-0.484c-1.854,1.762-1.82,4.384-2.336,6.672c-0.648,2.888-1.398,6.661-3.285,9.095
			c-0.904,1.167-2.453,1.783-3.428,2.957c-1.034,1.243-1.76,2.821-1.727,4.489c-2.231-2.041,1.783-6.788,2.801-8.44
			c1.848-3.004,3.542-6.04,4.18-9.559c0.54-2.979,1.102-6.563,4.462-7.736c2.687-0.937,5.573-0.013,7.94,1.481
			c0.338-3.586-4.081-4.401-6.918-3.889c-3.012,0.544-4.67,2.356-6.733,4.321c2.194-4.051,4.108-6.375,8.938-6.375
			c3.562,0,5.922,1.75,6.582,5.266c2.299-1.6,3.193-4.436,0.762-6.255c-1.768-1.325-4.701-0.158-6.711-1.272
			C72.825,22.429,74.877,20.182,77.655,23.082z"/>
		
			<path fill="#ECD1ED" stroke="#B592B7" stroke-width="1.1259" stroke-linecap="round" stroke-linejoin="round" stroke-miterlimit="10" d="
			M75.649,38.062c-0.871,0.208-3.847,0.997-4.549,0.271c-0.34-0.352-0.312-2.089-0.584-2.666c-0.742-1.588,0.08-1.312,0.916-2.534
			c0.412-0.607,0.322-0.965,1.014-1.379c0.408-0.246,1.359-0.324,1.835-0.446c1.333-0.344,2.727-0.39,4.073-0.853
			c0.938-0.321,2-1.078,2.924-1.259c0.979-0.192,1.842,0.506,2.476,1.545c0.125,0.204-0.014,0.589,0.124,0.741
			c0.235,0.263,0.554,0.203,0.784,0.42c0.594,0.562,1.288,0.977,1.299,1.972c0.012,0.836-0.648,1.412-0.786,2.198
			c-0.148,0.835,0.063,1.14-0.896,1.417c-1.356,0.393-2.845-0.119-4.22-0.1C78.561,37.411,77.104,37.714,75.649,38.062z"/>
		<path fill="#F7931E" d="M62.695,63.99c0,2.827,0.013,5.776,0.171,8.579c-0.488-0.66-1.162-1.193-1.682-1.854
			c-0.568-0.724-1.098-1.479-1.584-2.261c-0.775-1.246-1.939-2.743-2.242-4.166c0.848,0.03,1.463,1.23,2.326,1.359
			c-0.566-1.956-2.283-3.875-2.256-5.954c0.893,1.397,1.643,2.724,2.434,4.145c0.391,0.7,1.799,2.058,2.635,2.014
			c-0.543-1.736-2.071-3.367-2.496-5.109c-0.293-1.206-0.516-2.632-0.38-3.918c0.339,0.479,0.42,1.105,0.728,1.617
			c0.416,0.691,0.93,1.48,1.547,2.006c0.688,0.586,0.662,0.629,0.705,1.566C62.631,62.683,62.695,63.308,62.695,63.99z"/>
		<path fill="#F7931E" d="M104.048,66.814c-0.335-1.571-0.415-3.181-0.438-4.783c-0.022-1.579-0.002-3.204,0.102-4.782
			c0.756-0.055,0.877-0.034,1.363-0.516c0.312-0.309,1.021-0.969,0.947-1.464c0.229,1.575-0.761,3.185-1.001,4.581
			c0.688,0.158,1.395-0.406,1.85-0.787c0.005,1.315-0.697,3.13-1.383,4.16c0.41,0.065,1.023-0.044,1.383-0.257
			c0.058,1.049-0.205,1.673-0.67,2.502c-0.226,0.401-0.52,0.995-0.634,1.426c-0.215,0.805-0.207,1.703-0.37,2.54
			c-0.197,1.005-0.281,2.71-0.854,3.511C104.433,70.932,104.466,68.779,104.048,66.814z"/>
		<path fill="#F7931E" d="M73.625,42.639c-0.767-0.43-1.335-0.791-2.186-0.979c-1.428-0.316-3.472,0.898-4.418,2.049
			c1.43-0.432,3.961-1.279,5.342-0.199c-0.777,0.143-4.629,0.845-4.506,2.172c1.127,0.119,2.402-0.213,3.551-0.27
			c2.24-0.111,4.664-0.41,6.805,0.258c0.061,0.019-0.541-0.82-0.641-0.903c-0.285-0.237-0.639-0.508-0.949-0.715
			C75.711,43.447,74.583,43.176,73.625,42.639z"/>
		<path fill="#B592B7" d="M80.04,33.495c0.893-0.096,2.244-0.321,2.062-1.579c-1.511-0.073-3.048,0.611-4.366,1.275
			c-0.555,0.279-1.049,0.661-1.633,0.866c-0.451,0.16-1.331,0.111-1.364,0.724c0.679,0.16,1.583-0.474,2.224-0.674
			C77.954,33.797,79.008,33.606,80.04,33.495z"/>
		<path fill="#F7931E" d="M50.893,63.005c1.119,2.446,3.598,5.834,3.256,8.704c0.895-2.863,0.684-7.181-0.596-9.941
			c-0.65-1.405-1.373-2.791-1.867-4.263c-0.559-1.671-0.34-2.534-0.232-4.195c-0.027,0.423-0.936,1.534-1.089,2.11
			c-0.19,0.708-0.448,1.434-0.618,2.142C49.292,59.461,50.122,61.314,50.893,63.005z"/>
		
			<path fill="#ECD1ED" stroke="#B592B7" stroke-width="1.1259" stroke-linecap="round" stroke-linejoin="round" stroke-miterlimit="10" d="
			M87.177,151.966c-0.173-0.843,0.129-4.043-1.58-3.522c-0.892,0.27-0.922,2.009-0.998,2.735c-0.215,2.073-0.57,4.139-0.862,6.202
			c-0.069,0.494-0.848,2.13-0.315,2.822c0.963,1.256,4.481,0.067,5.593-0.327c0.126-1.829-0.468-3.587-1.048-5.248
			C87.663,153.759,87.37,152.913,87.177,151.966z"/>
		<path opacity="0.1" d="M107.347,170.521c0.425-1.048,0.41-2.151-0.627-3.233c-2.022-2.104-4.81,0.346-5.388,2.438
			c-0.749-0.516-1.425-1.158-2.346-0.487c-0.848,0.619-0.823,2.114-0.313,3.007c0.527,0.922,1.2,1.386,1.27,2.558
			c0.062,1.036-0.154,1.786-0.715,2.61c0.094-0.137,1.652-0.65,1.911-0.807c1.441-0.857,3.097-1.802,4.15-3.097
			C106.006,172.63,106.909,171.605,107.347,170.521z"/>
	</g>
</g>
</svg>
