<?xml version="1.0" encoding="utf-8"?>
<!-- Generator: Adobe Illustrator 16.0.0, SVG Export Plug-In . SVG Version: 6.00 Build 0)  -->
<!DOCTYPE svg PUBLIC "-//W3C//DTD SVG 1.1//EN" "http://www.w3.org/Graphics/SVG/1.1/DTD/svg11.dtd">
<svg version="1.1" id="Layer_1" xmlns="http://www.w3.org/2000/svg" xmlns:xlink="http://www.w3.org/1999/xlink" x="0px" y="0px"
	 width="508.07px" height="545px" viewBox="37.07 151.445 508.07 545" enable-background="new 37.07 151.445 508.07 545"
	 xml:space="preserve">
<g>
	<path fill="#FFFFFF" d="M439.671,569.853c9.35-5.916,24.233-13.168,30.149-23.09c6.297-10.687-4.771-15.266-12.021-20.609
		c-12.021-8.778-27.479-11.067-41.218-17.556c-10.877-5.152-21.944-9.35-33.394-13.548c-12.595-4.58-23.09-8.778-35.685-12.022
		c-4.008-0.954-6.679-2.862-11.258-2.862c-15.075,0-29.769,16.22-43.889,21.372c-17.174,6.298-32.631,15.838-49.614,23.662
		c-28.241,13.167,3.817,19.655,15.838,30.15c11.641,10.305,24.616,20.036,38.355,27.86c16.983,9.54,35.301,19.845,53.239,27.096
		c17.365,6.87,27.097,1.527,42.935-8.587C408.948,591.987,423.642,579.774,439.671,569.853z"/>
	<path fill="#E8EBEC" d="M456.654,535.504c-12.403-6.297-24.425-13.166-37.21-18.892c-12.403-5.725-26.524-7.06-39.31-11.831
		c-9.159-3.435-20.228-11.449-29.387-10.877c-9.923,0.573-19.654,6.106-29.005,8.015c-11.259,2.29-22.898,8.396-32.821,12.976
		c-9.922,4.58-20.608,8.396-30.722,12.785c-4.007,1.718-11.831,4.58-12.022,8.396c-0.572,6.869,14.312,13.739,19.655,16.793
		c22.135,12.976,47.514,20.227,70.031,31.867c6.297,3.243,13.357,6.105,20.036,8.969c5.152,2.29,9.732,7.251,15.075,8.777
		c6.106,1.908,11.831-0.572,16.602-2.671c12.785-5.534,26.524-11.068,39.69-16.029c17.747-6.679,38.737-13.739,50.188-27.86
		C486.041,545.427,466.768,540.656,456.654,535.504z"/>
	<path fill="#FFFFFF" d="M136.073,501.156c-3.053-2.1-9.731-4.389-13.357-4.389c0.572-10.114-3.626-20.991-4.389-31.105
		c-1.336-17.174-0.763-34.538,0-51.713c0.191-4.961,0.763-11.067,0-15.838c-0.955-5.152-6.679-8.396-10.495-11.259
		c-4.771-3.625-5.725-7.061-4.771-13.739c1.527-9.923,16.792-12.403,25.761-14.884c11.831-3.244,22.517-6.679,32.821-12.212
		c10.495-5.725,21.181-11.64,31.486-17.556c8.969-5.152,19.273-11.449,29.005-15.075c0.19-11.259-5.534-24.425-2.48-35.493
		c1.336-4.961,6.679-5.725,11.449-7.824c9.351-4.007,18.319-8.778,27.669-12.403c14.312-5.343,30.341-8.015,44.081-14.312
		c10.304-4.771,20.799-9.541,32.63-8.778c0,10.686,1.908,22.708,2.672,33.585c2.671,0.381,4.579-2.862,7.06-3.817
		c3.817-1.335,5.153,0,8.015,1.909c6.488,4.007,13.549,8.014,19.464,12.212c3.817,2.671,7.633,6.679,11.068,8.968
		c9.923,6.679,22.518-3.053,32.63,2.672c4.39,2.48,8.969,7.824,12.404,11.64c4.771,5.343,4.771,10.114,6.106,16.602
		c1.526,7.442,1.908,12.021,0.572,19.655c-0.954,4.961-1.908,10.877-0.572,16.029c3.053,12.213,12.976,9.732,22.898,15.266
		c6.679,3.625,7.823,11.831,9.351,18.891c0.763,3.626,1.908,8.015,2.289,11.45c0.191,1.145-0.572,3.053,0,4.198
		c1.337,3.245,0.954,0.764,4.008,2.863c3.435,2.48,3.625,1.145,3.243,6.87c-0.19,3.816-1.145,6.488-1.908,9.732
		c-1.145,5.344-0.953,10.878-1.907,16.22c-0.954,5.343-2.099,12.022-4.39,16.983c-2.29,4.771-7.251,4.771-9.541,8.778
		c-1.146,2.099-0.19,4.198-0.953,6.488c-1.909,7.06-8.779,12.976-12.022,19.272c-1.527,2.862-0.572,4.198-3.816,6.869
		c-5.343,4.58-11.831,8.969-17.365,13.167c-5.916,4.389-21.372,2.863-24.425,8.396c-5.534,9.541,20.799,13.548,25.952,15.075
		c6.106,1.718,10.495,4.198,16.219,6.869c4.008,1.718,6.679,3.626,5.726,8.97c1.336,0.572,3.244,1.335,4.579,1.717
		c-4.771,4.007-3.243,6.297-4.389,11.831c-1.718,8.015-9.159,7.823-15.838,5.343c-1.527-3.244-2.29-9.159,0.572-12.021
		c-1.718-1.718-4.008-1.146-6.297-1.718c-4.008-0.954-7.824-3.054-11.641-4.389c-4.007-1.336-10.877-1.908-13.357-5.725
		c0.572,5.725,4.771,10.113,6.87,15.266c1.145,2.672,1.335,5.534,2.099,8.015c0.954,2.671,3.244,5.343,4.008,7.824
		c1.907,6.105-7.634,16.41-13.74,17.937c-6.869,1.718-11.83-3.816-12.403-9.923c-0.19-3.053,1.526-5.725,1.336-8.396
		c-0.382-4.197-5.152-8.586-6.679-12.594c-0.572-1.717-0.763-3.626-1.336-5.152c-0.763-2.1-2.672-4.008-3.625-6.297
		c-4.008,1.526-7.634,4.77-11.068,6.87c-2.862,1.717-8.205,2.862-10.495,4.961c7.251,8.587-6.297,19.082-14.502,11.449
		c-1.909-1.718-2.29-2.1-2.481-4.771c-0.19-3.053,1.526-3.053,1.909-5.344c0.381-3.625-2.863-5.915-2.481-9.922
		c-8.969-0.572-18.892-0.955-26.524-4.771c-8.206-4.198-14.884-12.595-23.471-15.839c-3.435-6.869,8.205-7.251,12.976-7.823
		c6.106-0.764,12.594,0.382,18.7,0c0.954-5.534-3.435-12.403-4.77-17.747c-1.718-7.251-3.245-14.312-5.152-21.562
		c-1.146-4.008-3.054-6.87-4.39-10.687c-2.1-6.488,0.382-12.021,3.626-18.128c5.343-10.113,13.548-0.381,22.707-1.146
		c0.955-5.343-5.343-17.556-10.877-17.746c-5.914-0.19-13.548,6.488-18.127,9.159c-2.481,1.336-6.107,2.1-8.587,2.863
		c-6.106,2.099-12.212,4.579-18.509,6.488c-4.198,1.335-5.534,2.861-8.396,5.724c-3.626,3.626-5.916,4.389-10.686,5.916
		c-7.252,2.289-14.884,5.152-21.563,8.587c-4.389,2.29-10.686,4.007-13.931,8.015c-3.053,3.626-1.908,8.777-1.908,14.12
		c-0.19,12.213-4.389,25.762-2.48,37.975c1.146,6.679,5.534,37.4-4.007,41.217c-3.816,1.527-9.159,0.955-13.167,0.573
		c-0.763-11.068,0-42.362-1.909-52.858c-0.572-3.244-0.763-6.869-1.145-10.305c-0.572-5.724-0.572-14.311-3.244-19.464
		c-2.671-4.77-8.587-6.869-13.167-8.968c-14.884-6.679-26.333-20.609-40.072-28.051c-1.527,3.816,0.19,8.205-0.573,12.213
		c-0.572,3.625-2.48,7.632-2.48,12.212c0,5.915,0.572,12.785-1.145,17.747"/>
	<path fill="#DCCDC0" d="M200.571,329.987c-12.785,4.198-25.57,8.015-38.165,12.785c-10.494,4.007-20.799,8.778-31.294,12.212
		c-4.77,1.527-13.548,3.626-16.602,8.015c11.832,15.456,29.387,22.135,45.797,33.203c3.625,2.48,5.916,5.343,8.969,8.396
		c6.488,6.297,15.647,9.541,22.326,15.457c2.481,2.1,2.862,4.39,6.488,4.198c4.198-0.381,10.114-5.344,14.121-6.87
		c5.915-2.099,23.662-1.527,12.403-8.778c-4.961-3.244-18.891-5.725-17.937-13.167c0.954-7.251,9.159-13.357,10.495-21.372
		c1.145-6.87,0-15.266,0-22.326c0-4.58,0.382-9.35-0.572-14.121C215.073,329.606,208.394,327.507,200.571,329.987z"/>
	<path fill="#DCCDC0" d="M242.742,367.961c0.191,1.908,12.404,6.488,15.075,8.014c3.816,1.908,11.067,3.244,10.113,8.587
		c-0.763,4.008-7.25,4.008-5.915,8.587c5.342,1.145,11.64-3.435,16.219-5.916c7.252-3.816,13.931-7.823,21.181-10.686
		c14.884-6.106,29.195-12.404,44.462-18.892c3.815-1.527,6.679-3.626,10.113-5.343c2.289-1.335,5.152-1.526,6.87-4.007
		c2.099-3.244,0.572-3.244,0.382-6.488c-0.573-8.205,3.625-14.693,6.679-22.135c1.717-4.198,1.908-4.198,0.572-7.824
		c-1.146-3.816-3.054-8.015-1.146-12.022c2.672-5.152,11.449-8.014,2.862-13.739c-2.48-1.526-5.152-2.862-7.633-4.58
		s-4.198-3.816-6.679-6.106c-3.435-3.053-8.206-7.061-12.976-3.435l-1.718,0.19c-0.382,6.87,0.19,13.739,0.573,20.418
		c0.19,5.916,3.053,17.938,0.572,23.471c-2.481,5.916-13.549,7.824-18.511,11.45c-3.053,2.29-4.389,1.145-1.717,4.58
		c3.244,4.198,10.113,5.725,13.167,9.541c3.243,4.007-1.336,5.725-5.152,7.442c-12.785,5.915-25.379,9.35-38.164,15.647
		c-5.725,2.863-14.693,6.679-21.563,4.007c-3.244-1.335-2.29-4.007-5.343-6.297C261.061,359.375,242.17,360.71,242.742,367.961z"/>
	<path fill="#DCCDC0" d="M146.949,419.293c-3.053-2.672-14.694-13.549-19.846-9.542c-1.145,0.955-0.954,6.106-1.145,7.443
		c-0.382,5.152-1.145,12.022,1.336,16.792c1.908,3.626,7.824,4.581,11.641,7.062c5.724,3.625,11.64,7.633,17.365,11.64
		c4.007,2.862,9.159,6.679,12.976,10.687c2.48,2.48,4.198,5.725,6.679,8.205c2.862,2.672,6.297,4.198,9.35,6.488
		c2.671,2.099,3.053,4.389,7.251,3.816c1.717-0.19,1.336,1.335,2.863-0.573c0.954-1.145,0.19-5.915,0.19-7.441
		c0-9.541,0.572-19.273-0.19-28.813c-12.785-3.626-23.09-9.924-34.157-16.03C156.11,426.162,151.338,423.3,146.949,419.293z"/>
	<path fill="#DCCDC0" d="M156.872,406.125c-4.771-3.625-10.114-6.106-14.693-9.731c-3.435-2.671-5.343-6.679-8.778-9.35
		c-1.718-1.336-4.198-2.862-6.297-4.007c-3.435-1.717-7.06-3.053-10.495-5.152c-0.954-0.572-4.198-3.625-5.343-3.625
		c-5.343-0.191-2.672,7.824-3.244,7.824c3.435-0.191,7.06,2.099,9.923,3.816c5.534,3.244,13.357,7.251,17.937,11.64
		c5.725,5.343,11.258,11.45,17.174,16.792c8.587,7.634,17.365,14.122,26.715,20.419c3.053,2.099,6.297,4.007,9.923,4.579
		c1.146-5.344-2.29-8.777-5.916-12.213C175.764,418.72,166.222,413.187,156.872,406.125z"/>
	<path fill="#DCCDC0" d="M136.645,490.66c4.007-8.777,3.626-21.181,1.527-30.34c-2.29-9.352-9.922-8.778-11.64,0.763
		c-1.336,7.061-2.48,13.931-1.908,21.182C125.005,488.562,129.966,490.279,136.645,490.66z"/>
	<path fill="#DCCDC0" d="M203.242,527.489c1.336,8.587-1.335,18.51,2.29,26.524c4.581,10.495,11.259,5.152,12.404-3.817
		c0.955-7.06-3.053-13.548-3.816-20.417c-1.145-11.259,1.717-22.708,0.954-34.157c-0.19-2.48-12.785,1.908-13.93,4.579
		c-3.053,7.824,0,18.129,1.717,25.952C203.051,526.727,203.051,527.107,203.242,527.489z"/>
	<path fill="#DCCDC0" d="M204.959,445.245c1.146,4.771,2.29,7.06,2.29,12.785c0,5.343-0.381,10.877,0,16.028
		c0.381,3.626,1.717,6.298,1.527,9.732c5.534,2.862,9.923-3.816,14.502-6.488c13.167-7.633,27.097-10.876,41.218-15.838
		c7.441-2.672,12.404-5.916,17.746-10.877c7.252-6.488,21.754-2.29,27.479-9.731c4.389-5.916-9.923-9.352-14.121-13.55
		c-2.29-2.289-5.342-7.823-8.587-8.587c-5.152-0.954-10.877,4.008-14.692,6.87c-0.764,0.572-14.312,10.113-14.694,8.588
		c-2.672-15.458,23.662-14.885,31.868-21.182c9.159-7.061,18.509-14.121,28.432-20.037c7.251-4.389,15.074-5.725,22.708-9.541
		c6.679-3.244,13.931-5.152,20.036-9.16c3.626-2.29,11.067-4.961,9.923-10.495c-1.526-7.442-12.595,0.191-17.174,1.717
		c-14.693,4.58-26.524,11.068-39.691,19.082c-4.197,2.671-8.396,6.488-12.403,8.969c-4.007,2.29-8.777,2.672-12.976,4.389
		c-11.258,4.58-21.753,10.877-33.203,14.885c-9.542,3.435-18.51,8.014-27.479,12.213
		C217.363,429.597,201.525,430.742,204.959,445.245z"/>
	<path fill="#DCCDC0" d="M316.018,462.609c-1.718,4.58-4.771,9.923-3.244,15.075c1.718,6.488,4.771,14.502,7.442,20.418
		c3.816,8.396,7.441,15.075,8.014,24.234c0.382,4.771,0,9.732-0.572,14.121c5.916,0.381,26.907,3.053,28.242-5.343
		c0.572-3.816-8.015-12.403-9.731-15.267c-2.481-4.389-7.062-8.969-7.634-14.12c-7.06-2.862-9.54-14.885-3.626-20.419
		c3.054-2.862,4.581-2.862,8.206-0.953c6.106,3.435,10.686,8.777,17.746,11.448c8.015,2.863,16.029,3.626,23.28,5.535
		c5.726,1.335,25.952,4.197,28.051-2.29c-4.77-3.054-10.686-1.336-16.41-1.908c-8.587-0.955-8.015-4.39-8.587-11.641
		c-3.816-0.382-6.106,1.717-9.16,2.29c-5.343,1.145-9.35-0.382-13.738-3.054c-6.488-3.816-13.357-7.251-19.273-11.64
		C336.626,463.182,326.131,460.511,316.018,462.609z"/>
	<path fill="#A2D0E9" d="M396.163,384.562c-3.244-0.572-7.061-1.145-10.495-0.572c-3.436,0.382-6.106,2.481-9.541,1.908
		c3.435,3.053,5.152,6.679,4.197,10.686c-0.954,3.817-2.671,6.679-3.243,11.067c-0.382,2.671-0.382,4.962-0.572,7.633
		c-0.764,8.015-2.1,22.518-6.106,30.15c-1.527,2.672-4.58,4.389-6.298,7.061c-2.099,3.053-3.816,11.258-7.633,12.021
		c-0.382-4.771,0.191-6.297,2.481-9.731c0.953-1.337,4.771-4.39,4.579-6.488c-0.19-5.725-14.312-10.877-18.319-15.075
		c-2.48,1.336-4.961,4.58-6.679,6.869c-3.053,4.008-2.48,4.198-0.763,8.206c2.48,6.679,6.488,12.785,12.595,15.647
		c6.487,3.054,15.456,9.923,22.897,8.969c8.969-1.145,10.305-13.358,12.404-20.037c0.953,2.481,1.718,5.344,2.29,8.016
		c0.572,2.099-0.191,6.679,0.572,8.396c3.053,6.106,12.021,1.145,12.213,9.731c0,1.909-1.718,6.106-1.146,8.206
		c1.908,5.534,20.99,0.763,25.188-2.29c3.816-2.862,7.442-12.403,5.916-17.174c-4.389,0-10.114-2.672-14.503-3.816
		c-6.869-1.717-13.739-2.672-14.693-10.113c-1.526-10.114,0-21.755,0-32.059c0-13.549,5.534-16.22,17.747-20.228
		c2.48-0.763,6.679-1.336,6.869-4.961C426.504,389.143,401.316,385.326,396.163,384.562z"/>
	<path fill="#A2D0E9" d="M452.074,462.991c1.335,2.48,5.151,10.495,0,12.403c-5.153,2.1-3.816-12.976-0.572-14.884"/>
	<path fill="#DCCDC0" d="M385.859,324.263c4.771,1.336,4.198,6.87,4.198,11.068c0,6.297,0.382,12.212,5.151,16.411
		c7.062,6.106,21.373,8.778,21.945-4.007c5.915-0.572,6.87,1.908,10.877-4.58c3.053-4.961,2.48-8.968,2.48-15.075
		c0-9.541,1.909-23.853-4.961-31.104c-2.29-2.291-6.87-6.106-10.305-4.008c-2.862,1.717-1.336,6.488-5.534,6.297
		c-2.099-0.191-4.007-4.198-5.915-4.961c-1.336-0.573-2.862-0.382-4.58-0.382C386.431,293.35,383.95,315.103,385.859,324.263z"/>
	<path fill="#DCCDC0" d="M450.547,396.012c2.672,3.816,3.626,8.969,3.817,13.548c0.19,2.862-0.955,8.396,1.336,10.114
		c1.717-3.626,4.771-6.488,5.915-10.877c1.526-6.488,0.954-13.739-0.382-20.418c-1.718-8.205-2.099-14.693-10.305-16.792
		c-7.061-1.718-25.379-4.771-21.944,8.205C431.465,389.906,445.205,388.379,450.547,396.012z"/>
	<path fill="#F3EBDF" d="M318.308,414.521c1.908,2.29,4.771,3.054,6.869,4.962c2.48,2.29,4.39,5.152,6.106,7.823
		c1.336,1.909,1.336,3.626,3.435,4.39c2.672,1.146,9.732,0.573,11.831-0.572c7.442-3.817,0.954-12.404-1.717-17.366
		c-2.29-4.198-3.053-8.968-7.442-11.64c-2.099,0.954-2.672,3.244-2.672,5.533c-3.243,0-3.815-4.58-7.251-4.77
		c-6.679-0.572-3.816,9.732-8.587,9.159"/>
	<path fill="#F3EBDF" d="M378.417,320.637c-4.389,2.671-2.672,14.693-1.908,19.273c1.145,6.488,4.579,11.64,9.922,15.457
		c5.725,4.198,11.831,6.297,16.793,11.641c4.961,5.343,0.763,9.541,3.435,15.457c1.718,3.625,10.687,3.625,12.977-0.573
		c2.289-4.389-3.436-9.159-6.106-11.64c-3.817-3.625-6.679-7.442-11.259-10.495c-4.389-3.244-8.396-5.152-11.641-9.732
		c-3.435-5.152-4.389-12.404-6.106-18.892c-0.954-3.816-3.053-6.679-4.389-10.495"/>
	<path fill="#CFCECC" d="M339.107,542.945c0,0-10.495-0.572-11.449-0.953c-3.816-1.336-4.77-4.008-8.015-5.916
		c-1.525-0.954-18.891-5.534-19.081-3.435c-0.191,2.671,4.961,6.106,6.869,8.396c2.48,2.862,4.58,4.962,8.205,5.916
		C319.834,547.716,339.87,550.196,339.107,542.945z"/>
	<path fill="#CFCECC" d="M375.936,504.209c-8.587-1.336-16.602-7.251-23.853-11.64c-2.672-1.718-16.792-7.252-14.121,1.145
		c1.336,4.007,8.396,6.679,11.831,8.015c8.205,3.626,22.136,4.771,28.814,11.067c4.389,4.198,1.145,19.846-3.244,24.808
		c-3.244,4.006-9.541,5.724-13.548,9.159c-3.054,2.48-5.152,5.915-8.206,8.015c2.48,3.815,8.587-1.336,11.641-2.481
		c7.061-2.671,14.502-4.771,20.418-8.969c3.435,1.146,2.48,4.389,3.243,7.062c0.764,2.289,2.291,3.815,3.054,5.914
		c3.053,6.871,5.152,15.648,11.067,21.563c8.778,8.587,3.053-7.823,0.955-11.259c-4.008-6.487-10.687-16.219-9.16-23.853
		c1.908,0,39.882,13.739,37.783,3.816c-0.382-2.289-16.411-7.06-18.129-7.823c-4.198-1.909-10.686-4.198-14.311-7.061
		c-4.198-3.054-3.245-7.634-2.863-12.785c8.205-0.955,19.464-2.29,22.518-11.067c2.862-8.396-4.771-7.252-10.495-6.106
		C398.644,503.827,387.386,505.927,375.936,504.209z"/>
	<path fill="#CFCECC" d="M420.207,407.843c-2.29,0.764-4.58,0.191-6.679,1.908c-5.535,4.58-3.436,16.411-2.672,22.899
		c0.954,8.206,1.335,13.93,6.488,19.846c4.579,5.344,10.686,4.198,17.556,4.579c0.19,8.969-0.382,16.411-1.336,25.189
		c-0.382,3.053-1.526,7.06-3.244,9.922c-1.718,2.863-5.534,5.534-4.389,9.351c6.106,1.336,11.449-6.297,14.12-10.877
		c5.344-8.968,5.344-19.845,5.344-30.149c0-4.198-0.382-6.106,2.671-8.969c3.245-3.054,7.251-5.344,10.687-8.777
		c5.725-5.726,5.534-13.549,4.961-21.564c-3.815,1.909-6.679,7.252-10.877,7.252c-1.525-5.343-0.381-10.686-3.243-15.266
		C441.007,400.592,432.801,403.645,420.207,407.843z"/>
	<path fill="#CFCECC" d="M224.423,344.681c0.382,2.671,0,8.015,1.146,10.304c3.434,6.679,9.922,0.573,15.457-1.145
		c8.206-2.671,17.365-3.816,25.761-6.297c3.435-0.954,6.869-3.053,10.114-3.244c2.29,7.824-5.725,10.686-5.916,18.128
		c0,4.771,1.909,4.58,6.106,3.816c8.014-1.527,16.029-5.725,23.852-8.015c5.726-1.717,10.687-4.771,15.839-6.87
		c2.671-1.145,9.731-1.335,10.495-4.77c1.526-8.396-14.693-7.061-18.892-7.824c-3.244-13.548,22.518-13.739,27.669-24.807
		c1.718-3.435,0-8.777-0.19-12.403c-0.382-5.343-0.382-10.686-0.572-16.029c-0.191-6.679,0-13.548,0-20.227
		c0-5.152,0.19-10.305-0.573-15.075c-1.145-6.488-4.389-6.87-11.067-6.106c-8.015,0.954-13.548,5.152-20.608,7.824
		c-14.121,5.343-29.196,8.968-42.744,15.838c-6.106,3.053-11.64,5.534-18.128,7.442c-11.45,3.053-20.99,3.435-20.8,17.938
		C221.752,310.333,222.515,327.507,224.423,344.681z"/>
	<path fill="#FFFFFF" d="M236.636,321.209c0.954,8.206,2.671,23.471,2.099,23.471c2.862,0.382,6.106-1.527,9.159-2.29
		c8.015-2.29,11.641-6.106,18.701-9.732c8.206-4.007,17.174-5.916,25.761-8.587c6.105-1.909,12.021-4.008,18.127-5.725
		c4.008-1.145,8.206-0.191,12.022-1.335c10.877-3.435,5.533-16.793,4.961-24.616c-0.382-6.297-1.146-12.403-1.146-18.892
		c0-5.343,2.673-16.029-3.625-16.411c-2.099-0.19-5.152,1.336-7.252,2.1c-4.579,1.717-8.776,2.862-13.548,4.198
		c-10.495,2.672-20.417,9.351-30.722,13.739c-7.442,3.244-15.266,5.725-22.899,8.396c-9.541,3.053-12.021,3.816-12.021,14.121
		c0,5.725,0,11.45,0,16.983C236.064,316.63,236.255,318.538,236.636,321.209z"/>
	<path fill="#DCCDC0" d="M368.685,419.483c-5.343,0-13.93-0.955-12.404,6.488c0.573,3.053,6.871,11.831,11.068,11.259
		c0.573-2.48,3.054-3.626,3.816-6.106c0.764-2.48,0-6.679,0-9.159"/>
	<path fill="#5DA7D2" d="M279.762,313.577c3.053-3.625,7.442-7.633,9.159-11.831c-3.625-2.862-7.632-7.061-12.212-8.396
		c-3.626,3.816-5.916,8.587-9.542,12.021c3.626,2.29,6.679,4.962,10.495,7.251"/>
	<path fill="#A2D0E9" d="M253.81,321.209c4.198,1.909,7.441,5.343,10.877,7.824c3.243-4.961,8.968-8.396,11.449-13.93
		c-4.007-2.671-9.159-5.915-13.548-7.442c-3.053,4.771-6.297,8.015-9.732,12.213"/>
	<path fill="#E8EBEC" d="M253.238,295.067c0.954-3.435,6.87-7.633,9.731-10.686c4.198,1.908,8.396,4.389,12.213,6.87
		c-2.671,4.198-7.442,7.824-10.877,11.64c-4.198-1.336-7.06-4.961-9.923-8.015"/>
	<g>
		<path fill="#A5D0A6" d="M308.766,295.639c-0.19-0.191-5.342-4.007-5.151-4.007c-1.718,0.954-2.48,3.244-4.008,4.58
			c0.764,1.717,4.008,3.816,5.534,4.007C306.095,298.311,307.431,296.976,308.766,295.639z"/>
		<path fill="#F79B82" d="M299.798,311.287c1.145-0.191,2.862-4.389,3.244-5.343c0.572-1.336,0.954-1.527-0.19-2.862
			c-0.955-1.145-3.054-2.29-4.39-2.671c-1.145,1.908-3.244,4.58-4.771,6.297C293.883,307.47,298.844,311.478,299.798,311.287z"/>
		<path fill="#F8ACAD" d="M311.057,311.287c-0.764-0.954-3.054-2.672-4.39-2.863c-0.763-0.191-2.48,3.626-2.862,4.389
			c1.146,0.381,2.48,2.671,3.626,2.671C308.958,315.485,309.911,312.241,311.057,311.287z"/>
	</g>
	<path fill="#FFFFFF" d="M206.105,359.947c-2.099-1.527-24.235-14.694-23.281-15.838c-4.389,5.343-11.258,8.969-16.22,13.548
		c-5.342,4.771-13.357,9.923-20.799,10.496c4.198,6.106,13.93,9.541,19.845,13.93c7.824,5.725,15.075,15.457,23.471,19.464
		c5.152-5.343,10.305-12.021,15.266-17.365c4.389-4.77,9.35-7.823,14.884-11.449C217.172,368.915,210.112,362.809,206.105,359.947z"
		/>
	<path fill="#CFCECC" d="M177.481,369.488c0,0-2.48-3.053-2.862-3.244c-1.527-1.145-2.671-0.19-4.389-0.381
		c0.191-0.191,0.191-0.382,0.381-0.573c-0.381-0.573-0.954-0.763-1.335-1.145c-0.955,0.764-2.481,1.718-2.672,2.863
		c-0.381,1.335-0.19,2.48-1.145,3.625c1.335-0.764,1.909-1.527,2.862-3.053c1.717-2.671,0.955,2.29,0.955,2.862
		c0.191,0.954,1.526,1.335,1.526,2.099c0.191,1.145-1.717,2.48-1.526,3.435c0.191,0.764,1.335,1.718,1.908,2.099
		c0.954-0.573,1.145-1.717,1.908-2.48c0.382,0.381,0.764,0.763,0.955,1.145c-0.382,0.763-1.527,1.717-1.336,2.48
		c0.191,0.763,1.718,1.718,2.29,2.099c0.764-0.573,1.146-1.336,1.527-1.908c1.908,1.527-2.29,4.198-1.146,5.152
		c1.527,1.145,3.054-2.862,3.245-3.625c0.19,0,0.19,0.19,0.381,0.19c1.527-1.145,3.054-2.672,4.389-4.007
		c-0.763-0.763-1.717-1.145-2.48-1.908c1.146-1.145,2.48-2.29,3.626-3.435c0.763,0.764,1.335,1.527,2.099,2.29
		c1.526-1.145,2.862-2.29,4.198-3.625c-1.336-1.718-4.007-3.435-4.581-5.534c0.955-0.382,1.527,0.381,2.291,0.572
		c1.335,0.382,1.717,0,2.671-0.764c2.099-1.526,4.007-0.19,5.724,0.954c1.336-1.145,2.672-2.29,4.007-3.625
		c-1.335-0.572-3.053-1.335-4.389-1.335c-1.718,0-2.862,1.526-4.58,1.526c-0.954,0-1.335-0.572-2.099-0.954
		c-0.954-0.381-1.335-0.191-2.099-0.954c-1.335-1.145-2.29-2.671-3.435-3.816c-0.382-0.19-2.672,1.145-3.053,1.336
		c-1.145,0.19-1.145,0-1.909-0.954c-0.19-0.191-0.954-0.955-1.335-0.955c-0.573,0.191-0.191,0.573-0.382,0.955
		c-0.572,0.763-1.335,1.335-1.908,2.099c-0.573,0.955-0.19,1.909-0.382,2.863c0.764-0.573,0.764-1.336,1.336-1.908
		c0.572-0.573,1.527-1.145,2.099-1.527c0.191,0.572,0.572,1.145,0.572,1.717c0,0.382-0.572,2.099-0.381,2.099
		c0.763,0.954,1.718,1.718,2.48,2.672C180.534,366.816,179.008,368.152,177.481,369.488z"/>
	<path fill="#CFCECC" d="M207.44,369.297c-5.534,7.824-15.647,11.449-20.418,20.036c-1.145-1.908-3.244-2.862-4.961-4.198
		c3.053-3.626,7.06-6.106,10.304-9.541c3.054-3.053,4.962-6.679,8.969-8.778"/>
	<path fill="#CFCECC" d="M257.054,383.227c-2.099-4.198-14.312-10.686-18.891-10.877c-7.442-0.382-13.74,6.87-17.938,12.212
		c-4.389,5.534-4.771,8.396-4.198,15.839c6.297,1.145,11.641,6.869,17.747,7.25c8.014,0.382,8.014-6.679,13.167-11.831
		C250.758,392.196,259.726,388.57,257.054,383.227z"/>
	<path fill="#CFCECC" d="M360.288,388.57c-18.318,2.48-35.111,11.258-52.476,17.173c-20.991,7.061,1.718,33.967,16.601,21.373
		c-4.197-4.771-7.251-7.442-12.976-10.496c-1.335-4.389,1.718-7.06,4.771-9.35c1.525-1.146,3.815-1.146,5.342-2.29
		c0.955-0.763,2.672-4.198,3.245-4.389c2.48-1.145,9.731-2.29,12.594-1.145c3.435,1.526,3.625,6.106,8.015,5.725
		c2.48,14.694,14.884,4.58,21.753-0.763c3.626-2.863,9.732-8.206,7.824-14.122c-1.526-4.58-9.923-6.679-12.976-9.159"/>
	<path fill="#CFCECC" d="M375.173,517.375c-0.764,4.58-0.191,15.648-7.251,13.74c-4.58-6.297-8.969-9.16-7.443-16.411"/>
	<path fill="#757F92" d="M386.431,287.052c-3.815,0-8.014-3.244-11.067-5.534c-0.572-0.382-0.954-0.764-1.335-1.145
		c0,0-0.192,0-0.192-0.191c-5.533-3.435-5.533-4.389-5.342-4.58c0,0,0.19-0.191,1.145-0.191c2.672,0.763,16.029,9.541,17.938,11.449
		C387.004,287.052,386.814,287.052,386.431,287.052z"/>
	<path fill="#757F92" d="M337.581,313.577c-0.191-2.29-0.764-4.389-1.336-6.679c-0.764-2.481-1.337-5.152-1.337-7.633
		c0.192-4.198,0-8.587-0.19-12.785c-0.19-2.862-0.19-5.725-0.19-8.587c0-4.007-0.382-8.015-0.764-11.831
		c-0.381-3.817-0.763-8.015-0.763-11.831c0-3.626,0.19-7.251,0.382-10.686V242.4c0-0.954,0.19-1.908,0.19-1.908h0.382
		c0.19,0,0.381,0,0.572,0c0.19,0,0.381,0,0.764,0c0,0.191,0,0.573,0,0.763c0,0.572,0.382,0.954,0.572,0.954
		c0.19,5.343,0.572,10.686,0.954,15.838c0.572,7.824,1.145,15.838,0.764,23.662c-0.383,7.633,0,15.075,0.381,22.899v0.191
		c0,0.382,0.191,1.145,0.191,1.908C338.534,308.997,339.107,312.623,337.581,313.577z"/>
	<path fill="#757F92" d="M224.233,360.519c0-0.191-0.191-0.763,0.19-1.717c0.191-1.336-0.572-2.863-1.526-4.389
		c-0.573-0.954-0.955-1.717-1.146-2.481v-0.381c-0.572-2.48-1.908-7.442-0.954-9.732c0.763-2.099,0.382-5.152,0-8.014
		c-0.191-1.145-0.382-2.099-0.382-3.053c-0.19-2.481-0.19-4.962-0.19-7.442c0-2.29,0-4.58-0.191-6.869
		c-0.191-2.863-0.381-5.725-0.572-8.587c-0.381-4.198-0.572-8.587-0.763-12.976v-1.526c0-4.198-0.19-8.396-0.573-12.595
		c2.863-0.381,5.725-1.717,8.396-3.053c1.527-0.763,3.054-1.336,4.58-1.908c13.358-4.771,26.907-10.495,39.882-16.029l4.198-1.717
		c3.817-1.717,7.823-3.053,11.831-4.58c0.955-0.382,2.099-0.954,3.435-1.526c2.862-1.336,6.488-3.054,8.968-3.054
		c0.19,0,0.382,0,0.572,0h0.19c1.718,0,5.344-1.908,6.488-2.48c3.054-1.717,6.869-3.053,12.022-4.198c0,0,1.145-0.191,1.526-0.382
		l0,0c0.572,0,0.763,0.191,0.763,0.191c0,0.191-0.763,1.336-4.579,3.435c-3.626,2.099-7.824,4.198-11.449,5.343
		c-2.48,0.955-5.344,1.718-7.824,2.29c-4.77,1.336-9.731,2.671-13.738,4.961c-3.245,1.908-7.061,3.053-10.877,4.198
		c-1.717,0.573-3.435,1.145-4.962,1.718c-6.869,2.48-13.93,5.725-19.845,8.587c-7.06,3.244-14.693,6.297-23.281,9.159
		c-3.815,1.336-3.243,4.962-2.862,8.587c0.19,0.954,0.19,2.099,0.381,3.053v1.908c0.191,4.961,0.381,10.113,0.572,15.075
		c0.382,6.297,0.573,12.594,0.764,18.7c0.191,4.58,0.191,9.16,0.382,13.739c0.19,4.771,0.381,9.541,1.336,14.121
		C225.378,358.611,224.614,360.137,224.233,360.519z"/>
	<path fill="#757F92" d="M357.045,269.497c-0.765-0.573-1.527-1.145-2.29-1.717c-1.527-1.336-2.863-2.48-4.771-2.48
		c-0.953,0-1.907,0.19-2.862,0.954c-0.381,0.19-0.763,0.381-0.953,0.572c-1.146,0.763-2.1,1.336-3.436,1.526
		c-0.19,0-0.572,0-0.763,0c-0.764,0-1.336-0.382-1.527-0.763c-0.19-0.572,0.191-1.335,0.954-1.717
		c2.099-1.336,8.206-4.58,10.305-4.58c0.19,0,0.382,0,0.382,0c2.099,1.527,4.579,4.008,5.534,6.488
		c-0.382,0.19-0.764,0.572-0.955,1.145C357.045,269.115,357.045,269.306,357.045,269.497z"/>
	<path fill="#757F92" d="M432.229,348.497c-0.954-3.244-0.19-6.679,0.572-10.113c0.191-1.336,0.572-2.671,0.764-3.817
		c0.764-5.725-0.382-10.495-1.718-15.457c-0.382-1.145-0.572-2.29-0.954-3.435c-2.099-8.587-7.251-22.708-17.937-22.708
		c-1.337,0-2.863,0.191-4.198,0.763l-0.382,0.191l0.19,0.382c2.862,4.007,4.771,8.014,6.106,12.021
		c-2.481-1.335-4.198-3.816-6.106-6.488c-2.672-3.816-5.343-7.824-10.305-7.824c-1.145,0-2.48,0.191-3.816,0.764
		c-0.953,0.381-1.718,0.572-2.29,0.572c-0.381,0-0.953,0-0.953-0.382c0-0.763,1.335-2.48,4.007-3.244
		c0.382,0,1.336-0.191,2.48-0.191c3.244,0,7.061,0.573,7.251,2.481v0.572l0.572-0.381c2.673-1.526,5.153-2.29,7.824-2.29
		c9.159,0,15.075,10.114,17.746,16.029c2.672,6.106,4.962,14.502,5.534,21.181c0.382,3.816-0.19,7.824-1.908,12.785
		c-0.19,0.573-0.381,1.527-0.572,2.481C433.755,344.299,433.183,347.352,432.229,348.497z"/>
	<path fill="#757F92" d="M374.409,301.937c0-0.191,0.191-0.572,0.572-1.336c1.718-3.816,5.916-7.442,10.495-7.442
		c0.382,0,0.764,0,0.954,0c0,0.381,0,0.572,0,0.763c-0.19,0.382-0.954,0.572-1.526,0.572h-0.382c-0.382,0-0.763,0.191-1.145,0.382
		c-1.718,0.954-4.389,2.862-6.106,4.389l-0.763,0.763C375.745,300.792,374.791,301.555,374.409,301.937z"/>
	<path fill="#757F92" d="M381.28,323.69c-1.337-0.763-2.481-3.435-2.1-11.449c0.19-3.626,0.572-8.778,2.672-12.022
		c0.571-0.763,1.336-1.526,2.099-1.526l0,0c0.572,0,0.954,0.382,0.954,1.336c0.191,1.526-0.764,3.435-1.526,4.961
		c-0.763,1.335-1.526,2.862-1.526,4.389c-0.191,2.099-0.191,4.198-0.191,6.297C381.66,317.966,381.852,320.828,381.28,323.69z"/>
	<path fill="#757F92" d="M262.397,328.27c-3.245-0.763-4.961-1.908-7.251-3.816c-0.573-0.573-1.527-1.145-2.291-1.526
		c-1.335-0.954-2.862-1.909-2.862-2.863c0-0.572,0.764-1.335,2.099-2.099c1.146-1.718,2.48-3.244,3.626-4.58
		c0.763-0.954,1.527-1.908,2.29-2.862c0.19-0.19,0.572-0.763,0.954-1.145c1.146-1.335,2.099-2.48,2.672-3.244
		c-0.382,1.717-5.152,8.587-7.251,11.067c-0.572,0.764-0.763,1.527-0.763,2.29c0.191,2.099,3.053,4.198,5.343,5.916
		C260.68,326.362,262.206,327.507,262.397,328.27C262.397,328.079,262.397,328.079,262.397,328.27z"/>
	<path fill="#757F92" d="M273.465,310.905c-2.29,0-5.152-3.435-6.107-4.58c0.382-0.19,0.764-0.19,1.146-0.19
		c1.145,0,2.48,0.763,3.817,1.526c0.763,0.572,1.716,1.145,2.862,1.527c-0.191,0.381-0.381,0.763-0.381,0.954s0,0.191,0,0.381
		C274.419,310.905,274.037,310.905,273.465,310.905L273.465,310.905z"/>
	<path fill="#757F92" d="M306.477,313.958c-1.717-0.572-2.48-1.145-2.862-1.908c-0.382-1.145,0.954-2.481,2.099-3.817
		c0.572-0.763,1.336-1.526,1.718-2.29c1.145,0,2.1,0.572,2.672,1.908c0.572,1.145,0.954,1.526,1.335,1.526
		c0.191,0,0.382-0.19,0.382-0.19h0.191l0,0c0,0,0,0,0,0.19c0,0.191,0,0.764,0.381,0.955c0,0.763-0.19,1.335-0.572,1.908
		c-0.19,0.19-0.572,0.381-0.954,0.381l0,0c0-0.191-0.19-0.572-0.19-0.954c-0.382-0.954-0.572-2.099-1.526-2.863
		c-0.573-0.381-0.955-0.572-1.527-0.572c-1.145,0-1.908,1.145-2.48,2.1c-0.19,0.19-0.381,0.572-0.573,0.763l-0.19,0.191l0.19,0.19
		c0.383,0.573,0.765,0.954,1.146,1.145C306.285,312.813,306.477,313.004,306.477,313.958z"/>
	<path fill="#757F92" d="M235.3,349.07c-0.381,0-0.763-0.191-0.954-0.381c-0.191-0.191-0.191-0.764,0-1.527
		c0.381-1.718,3.244-2.671,4.771-3.435c2.099-0.763,4.007-1.335,5.916-1.908c2.48-0.763,5.152-1.335,7.632-2.671
		c3.626-1.717,7.633-3.435,10.496-4.389c3.244-0.954,6.488-2.099,9.732-3.626c0.763-0.381,1.908-0.764,3.243-1.336
		c3.245-1.145,6.679-2.671,8.015-4.198c0.572-0.764,4.198-1.718,7.441-2.671c6.87-1.909,9.922-2.863,9.732-4.198
		c0.763-1.145,20.418-8.969,25.57-9.351c0.19,0.191,0.19,0.382,0.382,0.382c-3.054,3.625-29.196,13.548-40.455,17.937
		c-3.434,1.336-5.916,2.29-6.869,2.671c-2.48,1.146-5.152,2.291-7.633,3.436c-6.679,3.053-13.548,6.297-20.608,8.777
		c-1.336,0.572-2.862,0.955-4.58,1.336c-3.054,0.763-6.297,1.526-8.587,3.244C238.354,348.306,236.446,349.07,235.3,349.07z"/>
	<path fill="#757F92" d="M372.501,325.599C372.311,325.599,372.311,325.599,372.501,325.599c-0.572-0.572,0.572-3.244,0.954-4.389
		c0.19-0.572,0.382-1.145,0.382-1.335c0.191-0.954,0.764-2.29,1.145-3.626c0.572-1.526,1.146-2.862,1.336-4.198
		c0.191,0,0.191,0,0.382-0.191c0.19,0.382,0.382,0.954,0.382,2.099c0,3.817-2.1,10.496-4.008,11.259
		C372.692,325.599,372.501,325.599,372.501,325.599z"/>
	<path fill="#757F92" d="M224.996,366.435c-1.146,0-1.908-0.381-2.099-0.954c-0.191-0.572,0.381-1.336,1.335-2.099
		c0.572-0.381,1.145-0.572,1.908-0.764c0.955-0.19,2.099-0.572,3.244-1.335c0.954-0.763,2.29-0.954,3.625-1.335
		c0.955-0.191,1.717-0.382,2.671-0.572c1.146-0.382,2.099-0.955,3.054-1.718c0.954-0.573,1.718-1.145,2.671-1.527
		c1.336-0.572,2.48-1.145,3.817-1.526c4.007-1.526,7.632-3.053,11.449-5.152c9.351-4.961,19.273-9.35,29.196-13.167
		c5.343-1.908,10.496-4.389,15.456-6.87c3.816-1.718,7.634-3.626,11.449-5.152c1.146-0.382,2.29-0.954,3.436-1.527
		c2.861-1.145,5.724-2.48,8.587-3.435c0.763-0.191,1.525-0.572,2.289-0.954c1.718-0.763,3.817-1.526,5.534-1.717
		c0,0.191,0.19,0.382,0.19,0.382c-0.382,2.862-7.633,5.152-12.594,6.869c-2.099,0.764-3.816,1.146-4.58,1.718
		c-2.672,1.335-5.152,2.48-8.015,3.816c-1.526,0.572-3.053,1.336-4.389,2.099c-0.763,0.381-1.526,0.763-2.29,1.145
		c-1.336,0.572-2.671,1.145-4.006,1.908c-3.245,1.527-2.29,4.771-1.336,7.442l0.191,0.763c0.191,0.764,1.335,2.48,2.481,4.007
		c0.572,0.763,1.145,1.717,1.145,1.909c0,2.862-4.389,5.724-7.25,5.724c-0.381,0-0.573,0-0.764,0c-1.144,0-1.335-0.19-1.335-0.19
		c0.191,0,0.763-0.573,1.335-0.954c0.573-0.382,1.146-0.764,1.527-1.145c0.572-0.573,0.954-0.764,1.336-1.145
		c1.335-1.145,1.526-1.527,0.572-4.007c-1.527-3.435-2.48-6.679-3.053-9.732v-0.381l-0.383,0.19
		c-9.541,2.48-18.509,7.251-27.096,11.641c-6.488,3.435-13.357,7.06-20.228,9.541c-3.244,1.146-6.105,2.481-8.969,3.816
		c-2.48,1.145-5.152,2.29-8.205,3.435C226.332,366.244,225.569,366.435,224.996,366.435z"/>
	<path fill="#757F92" d="M190.839,403.454c-0.191,0-0.382,0-0.382,0c-0.954-1.145,0.191-4.771,10.686-14.693l0.382-0.382
		c3.053-2.862,6.297-6.488,9.159-9.923c1.527-1.908,4.961-5.534,7.251-6.679c0,0.191,0.191,0.191,0.191,0.382
		c-0.191,3.816-8.205,11.64-11.64,15.075c-0.572,0.573-0.955,0.954-1.336,1.336c-0.381,0.381-1.335,1.526-2.671,3.053
		C199.235,395.249,193.129,402.691,190.839,403.454L190.839,403.454z"/>
	<path fill="#757F92" d="M422.306,353.458c-0.954,0-1.908-0.763-2.29-1.527c-0.381-1.335,0.191-3.053,0.764-4.58
		c0.381-0.954,0.764-2.099,0.764-2.862c0.763-6.87,0.381-13.549-0.383-19.846l0,0v-0.572c0,0,0-1.527-0.381-2.672
		c0.19,0.19,0.381,0.381,0.572,0.763c3.244,5.343,3.816,26.715,2.1,30.532C423.451,353.268,422.878,353.458,422.306,353.458z"/>
	<path fill="#757F92" d="M381.852,341.818c0-0.191-0.191-0.572-0.382-0.763c0.382-0.954,1.336-1.908,2.29-2.862
		c1.336-1.527,2.861-2.862,2.861-4.58c0-0.954-0.572-1.718-1.525-2.481c-0.191-0.191-0.573-0.191-0.764-0.191
		c-0.764,0-1.336,0.573-1.717,0.954c-0.383,0.382-0.955,0.954-1.336,0.954c-0.572,0-1.146-0.19-1.146-0.572
		c-0.191-0.954,1.908-2.862,2.862-3.816c0.382-0.191,0.572-0.382,0.764-0.573c0.763,0.573,1.526,0.764,2.099,0.954
		c0.955,0.191,1.718,0.573,2.48,1.718c0.382,0.763,0.382,1.145,0.191,1.717c0,0.382-0.191,0.763-0.191,1.336
		c0.191,1.526-1.145,4.198-2.862,5.915C384.141,341.055,382.806,341.818,381.852,341.818z"/>
	<path fill="#757F92" d="M453.983,421.583c-0.764-0.574-1.908-4.58-2.671-7.062c-0.765-3.053-1.527-5.724-2.291-6.679
		c-4.007-4.389-8.396-7.251-12.784-10.113c-2.291-1.526-4.771-3.244-7.252-4.961c-0.763-0.572-1.718-0.954-2.671-0.954
		c-2.672,0-5.534,1.908-8.206,4.007c-1.335,0.954-3.053,1.526-5.151,1.526c-1.337,0-2.863-0.19-4.771-0.572
		c-1.336-0.382-8.015-2.481-10.114-3.435c0.382,0,0.763,0,1.335,0c3.817,0,10.687,0.573,11.641,0.764c0.382,0,0.572,0.19,0.954,0.19
		c0.955,0,1.908-0.381,2.672-0.763c0.764-0.381,1.526-0.572,2.48-0.572h0.382l0,0c1.527-0.763,2.862-1.527,4.008-2.481
		c2.671-1.908,1.908-3.053,0.572-4.961c-0.191-0.382-0.572-0.764-0.764-1.336l-0.19-0.381l0.19-0.191
		c-0.954-0.572-1.145-3.625-0.572-6.488c0.572-2.48,1.526-4.007,2.672-4.007c0.19,0,0.19,0,0.381,0.191
		c0.572,0.572,0.382,2.862,0.191,4.389c0,0.954-0.191,1.908,0,2.481c0.572,2.671,1.908,5.343,4.198,7.633
		c3.053,3.053,6.679,5.152,10.495,7.06c1.717,0.955,3.435,1.909,5.151,3.053C450.929,402.119,454.937,411.278,453.983,421.583z
		 M376.318,389.524c-4.198-1.336-8.396-4.39-8.777-8.396c0.19,0,0.382,0,0.382,0c1.717,0,3.434,0.381,5.151,0.572
		c1.908,0.382,3.816,0.764,5.916,0.764c0.572,0,1.145,0,1.718-0.191c1.716-0.191,3.243-0.954,4.961-1.718
		c1.718-0.763,3.435-1.717,5.151-1.717c1.146,0,2.1,0.381,3.245,1.145c0.572,0.382,0.953,0.955,1.336,1.336
		c0.572,0.763,1.145,1.335,1.907,1.335c0.573,0,1.336-0.381,2.099-1.526c1.337-1.717,1.718-3.816,1.527-5.725
		c-0.19-1.145-2.862-7.823-4.58-8.014c-0.19-0.381-0.953-0.763-2.099-1.908c-1.146-0.954-2.1-1.908-2.48-2.29
		c-1.908-1.908-4.58-2.099-7.061-2.099c-2.29-0.19-4.39-0.19-5.916-1.526c-0.954-0.763-1.526-1.908-2.099-2.862
		c-0.19-0.381-0.382-0.573-0.382-0.764c-0.191-0.381-0.572-0.954-0.764-1.335c-0.572-1.145-1.335-2.29-1.717-3.435
		c-0.382-1.336-1.146-2.48-1.908-3.626c-0.764-1.336-1.526-2.671-1.908-4.198c-0.382-1.718,0-3.244,0.382-4.961
		c0.19-0.764,0.381-1.527,0.572-2.29c0-0.19,0-0.573,0.19-0.954c0.382-4.198,0.954-6.297,1.718-6.297h0.19
		c1.527,0.954,0.764,3.817,0.19,6.106c-0.19,0.955-0.381,1.526-0.572,2.099c-0.19,2.29,0,5.534,0.954,7.633
		c1.146,2.481,4.198,8.969,7.634,12.022c1.336,1.335,3.625,1.717,5.915,2.099c2.1,0.381,4.008,0.763,5.725,1.717
		c2.672,1.526,4.962,3.435,7.061,6.106c2.1,2.671,4.58,8.587,3.435,12.785c-0.572,1.908-1.718,3.244-3.625,3.816l-0.573,0.191
		l0.383,0.381c1.525,1.718,8.587,2.672,11.64,2.672c0.953,0,1.718,0,2.099-0.191c1.336-0.19,2.1-0.954,2.862-1.717
		c0.764-0.572,1.526-1.145,2.48-1.145c0.573,0,0.955,0.19,1.718,0.381l0,0c-2.672,4.198-5.152,4.961-8.206,4.961
		c-1.525,0-3.053-0.19-5.151-0.382h-0.763c-0.765,0-1.527-0.191-2.481-0.191c-3.244-0.19-6.87-0.572-9.159-2.671
		c-0.954-0.955-4.198-3.436-6.488-3.436c-1.335,0-2.1,0.764-2.48,1.909c-0.382,0.954-1.908,1.527-4.58,1.527
		c-2.671,0-5.725-0.382-7.251-0.764l-0.764-0.191l-0.19,0.191c-0.382,1.145,0.572,2.099,1.718,3.053
		C375.554,388.379,376.127,388.952,376.318,389.524z"/>
	<path fill="#757F92" d="M330.71,344.49c-1.907,0-6.678-4.389-8.204-5.725l-0.573-0.572c-1.526-1.336-2.862-2.099-4.389-2.099
		c-1.145,0-2.29,0.381-4.008,0.954c-0.572,0.191-1.335,0.572-2.099,1.145c-1.335,0.763-2.862,1.717-4.197,1.717
		c-0.382,0-0.955-0.191-1.146-0.382c-0.382-0.381-0.382-0.572-0.382-0.763c0.382-1.526,6.679-3.435,9.731-4.389
		c1.146-0.382,2.1-0.572,2.673-0.955c0.572-0.19,1.145-0.381,1.717-0.381c1.336,0,2.289,0.954,3.626,2.48
		c0.572,0.573,1.145,1.336,2.099,2.099c0.19,0.191,0.763,0.573,1.146,0.954c1.525,1.336,4.197,3.435,4.579,4.962
		C330.903,343.917,330.71,344.108,330.71,344.49L330.71,344.49z"/>
	<path fill="#757F92" d="M411.239,365.48c-0.191,0-0.191,0-0.191,0c-1.336-1.336-2.671-1.336-4.197-1.336
		c-0.955,0-2.1-0.19-3.436-0.572c-3.053-1.145-5.725-2.481-8.014-4.58c-2.101-1.908-4.198-4.007-6.489-6.488
		c-1.145-1.145-2.098-2.48-2.671-3.816c-0.382-0.955-0.764-1.527-0.764-1.909c0.191,0,0.382,0.191,0.572,0.191
		c0.382,0,0.765-0.191,0.955-0.764c1.908,0.573,6.488,5.725,8.396,8.015c0.381,0.572,0.763,0.954,1.145,1.335
		c3.054,3.435,8.015,6.106,12.403,6.87c0.382,0,0.572,0,0.954,0c2.289,0,3.626-1.336,5.152-2.671
		c0.382-0.382,0.763-0.764,1.145-1.145c1.718-1.527,3.816-2.099,6.106-2.862c0.763-0.191,1.526-0.572,2.29-0.764
		c0.763-0.381,2.48-0.572,4.198-0.572c2.861,0,6.297,0.572,6.869,2.29c0,0.191,0.19,0.572,0.19,0.763
		c0.383,1.336,0.955,3.053,0.955,4.198c-0.191,0-0.382,0-0.382,0c-0.19,0-0.19,0-0.382,0c-0.764-0.191-1.145-0.954-1.526-1.908
		c-0.19-0.764-0.573-1.336-0.954-1.908c-0.764-0.764-2.1-1.336-3.816-1.336c-1.718,0-3.244,0.382-4.198,0.763
		c-1.336,0.382-3.816,2.099-6.297,3.816C416.009,363,412.574,365.48,411.239,365.48z"/>
	<path fill="#757F92" d="M265.641,370.251c-0.191-0.191-1.145-1.527-1.526-2.099c-0.191-0.382-0.382-0.573-0.382-0.573
		c-1.717-2.099-3.053-3.244-4.962-4.962l-0.572-0.381c-0.954-0.954-1.336-1.717-1.336-2.29c0.382-1.336,3.245-2.481,5.725-3.244
		c1.145-0.381,2.29-0.764,3.053-1.145c0.573-0.381,1.336-0.763,2.099-1.145c2.099-1.335,4.581-2.862,6.87-2.862l0,0
		c0,0.573,0.381,1.145,0.763,1.336c-1.146,2.671-7.443,5.152-10.877,6.488c-0.955,0.381-1.718,0.572-2.29,0.954l-0.381,0.191
		l0.191,0.382c0,0,0.19,0.381,0.381,0.763C265.641,368.343,265.832,370.06,265.641,370.251
		C265.832,370.442,265.832,370.442,265.641,370.251z M270.412,355.749c-0.19,0-0.382,0.19-0.382,0.381
		c0,0.191,0.192,0.382,0.382,0.382c0.191,0,0.382-0.19,0.382-0.382C270.794,355.939,270.794,355.749,270.412,355.749z"/>
	<path fill="#757F92" d="M357.808,358.611C357.617,358.611,357.617,358.611,357.808,358.611c-0.382-0.573-0.382-1.145,0-1.527
		c0.382-0.572,0.954-0.954,1.526-0.954c0.191,0,0.191,0,0.382,0c0,0.191,0.19,0.573,0.382,0.764
		C359.334,357.848,358.19,358.611,357.808,358.611z"/>
	<path fill="#757F92" d="M204.006,430.17c1.335-1.718,7.442-3.816,10.496-4.962c0.954-0.382,1.716-0.572,2.099-0.763
		c3.244-1.336,6.297-2.862,9.541-4.199c2.862-1.336,5.916-2.671,8.778-4.007c7.442-3.244,14.884-7.061,21.944-10.877
		c5.153-2.671,10.495-5.534,16.03-8.205c5.916-2.863,12.021-5.534,17.937-8.015l4.198-1.909c2.099-0.954,4.007-1.908,6.297-3.053
		c4.58-2.29,9.159-4.58,13.739-5.725c1.718-0.381,6.297-2.671,11.641-5.534c8.204-4.198,18.509-9.541,22.326-9.541
		c0.381,0,0.763,0,0.953,0.191c0,0.191,0,0.572,0,0.763c-0.763,2.099-6.105,3.817-9.541,4.961c-1.526,0.572-2.671,0.954-3.435,1.145
		c-1.908,0.954-3.816,1.908-5.725,2.862c-5.534,2.862-11.067,5.725-16.792,8.205c-8.587,3.626-16.793,7.442-24.997,11.068
		c-5.534,2.481-11.259,5.152-16.983,7.633c-0.382,0.191-1.336,0.572-2.481,0.954c-13.739,5.534-18.891,8.206-18.7,9.732
		c-0.573,0.954-14.503,7.251-16.793,8.014c-3.816,1.146-7.633,2.863-11.258,4.581C217.172,426.544,210.684,429.406,204.006,430.17z"
		/>
	<path fill="#757F92" d="M417.535,372.541c0,0-0.19-0.191-0.382-0.191c1.145-4.007,8.015-9.732,13.167-9.732
		c1.335,0,2.48,0.382,3.435,1.146c-0.572,1.145-2.29,1.335-4.198,1.717c-1.526,0.19-2.862,0.382-3.435,1.145
		C424.596,368.534,420.207,372.541,417.535,372.541z"/>
	<path fill="#757F92" d="M453.409,438.757c-0.19,0-0.381-0.19-0.381-0.19c0-2.863,4.197-11.068,5.915-14.121
		c0.382-0.572,0.572-0.954,0.572-1.146c4.198-8.396,7.252-21.563,4.962-30.15c-1.526-6.297-6.297-13.167-12.021-17.365
		c-3.054-2.29-6.298-4.198-9.541-5.534c-0.191-0.191-0.764-0.191-1.146-0.382c-1.526-0.572-4.771-1.717-4.961-2.671
		c0-0.19,0.19-0.572,0.572-0.763c0.763-0.381,1.526-0.764,2.29-0.764c3.625,0,8.587,3.817,12.403,6.87
		c2.29,1.717,4.007,3.244,5.533,3.816c4.389,1.908,8.396,12.021,9.542,16.983c1.717,7.633,0,13.74-2.29,20.99l-0.19,0.764
		c-1.718,5.724-3.626,10.495-6.298,14.885c-0.381,0.572-0.764,1.525-1.336,2.671C456.081,434.559,454.745,437.421,453.409,438.757z"
		/>
	<path fill="#757F92" d="M437.381,381.891c-0.764-1.145-1.908-3.053-2.672-4.58c-0.764-1.526-1.336-2.671-1.908-3.244
		c-0.381-0.572-1.146-0.954-2.099-1.526c-1.718-1.145-4.008-2.481-3.244-3.817c0.382-0.572,0.764-0.763,1.145-0.763
		c3.053,0,8.778,9.541,9.159,13.93C437.762,381.7,437.572,381.7,437.381,381.891z"/>
	<path fill="#757F92" d="M234.156,400.21c-2.29,0-6.679-1.526-9.159-2.48c-0.764-0.382-1.336-0.572-1.718-0.572
		c-1.527-0.382-3.244-0.764-4.771-1.145c-2.29-0.382-4.58-0.954-6.679-1.718c-0.954-0.381-1.335-0.763-1.526-1.335
		c-0.382-1.718,1.908-4.198,3.244-5.534l0.19-0.191c2.099-2.29,4.58-4.58,6.87-6.679c0.764-0.572,1.336-1.335,2.099-1.908
		c0.573-0.572,1.336-1.335,2.099-2.29c1.908-2.29,4.389-5.152,6.679-5.152c0.191,0,0.191,0,0.382,0
		c5.342,0.763,12.403,3.816,21.563,9.16v0.19c0,0.382,0.381,0.764,0.954,1.145c-3.817-0.381-12.785-4.198-17.174-6.106
		c-1.145-0.573-1.908-0.764-2.29-0.954c-0.572-0.191-1.145-0.382-1.718-0.382c-3.053,0-5.533,2.862-7.823,5.343
		c-0.764,0.954-1.527,1.908-2.29,2.481c-0.955,0.763-1.908,1.526-2.672,2.29c-2.29,1.908-4.771,3.816-6.105,6.679l-0.191,0.381
		l0.382,0.191c2.099,0.763,4.389,1.526,6.488,2.099c5.152,1.717,10.495,3.244,15.266,6.106
		C235.3,400.019,234.919,400.21,234.156,400.21z"/>
	<path fill="#757F92" d="M204.197,446.771c0.381-0.763,3.244-2.48,5.916-3.815c7.823-3.436,15.266-7.633,21.563-11.068
		c4.389-2.48,8.969-4.771,13.548-7.061c2.48-1.335,5.152-2.48,7.632-3.817c1.717-0.954,3.626-1.908,5.534-3.053
		c6.297-3.435,12.594-6.869,19.083-8.587c4.007-1.146,9.35-4.007,12.213-5.534c6.105-3.434,12.785-6.297,19.273-8.969
		c1.335-0.572,2.861-1.145,4.197-1.908c6.487-2.672,12.785-6.297,18.892-9.923c7.251-4.198,14.693-8.396,22.518-11.449
		c0.19,0,0.763-0.191,1.145-0.382c0.763,0,0.763,0.191,0.763,0.191c0,0.191-0.382,0.572-0.954,1.145l-0.19,0.191
		c-2.1,2.099-5.916,4.389-8.396,5.724c-3.436,1.718-7.061,4.008-10.495,5.916c-5.533,3.244-11.259,6.679-16.983,8.968
		c-13.357,5.152-24.043,10.114-34.729,15.648c-3.816,1.908-8.014,3.626-12.021,5.342c-3.626,1.527-7.252,3.054-10.877,4.771
		c-2.863,1.336-5.534,2.864-8.206,4.39c-4.771,2.48-9.542,5.152-14.693,7.061c-3.435,1.335-6.679,3.434-9.923,5.343
		c-2.48,1.526-4.961,3.053-7.441,4.389c-0.763,0.382-1.718,0.573-2.671,0.954c-2.099,0.764-4.389,1.527-5.343,2.672
		c-0.572,0.572-6.488,2.671-8.778,2.671C204.197,446.771,204.197,446.771,204.197,446.771z"/>
	<path fill="#757F92" d="M222.706,390.478c-0.382,0-0.763-0.191-0.954-0.572c-0.381-0.954,0.572-3.053,2.671-4.771
		c0,0,0.191-0.19,0.573-0.381c6.87-6.106,9.35-7.251,10.113-7.251c0.191,0,0.191,0,0.191,0.191
		c1.146,1.908-7.632,10.305-9.541,11.64C224.042,390.287,223.088,390.478,222.706,390.478z"/>
	<path fill="#757F92" d="M192.556,449.443c-1.908-0.764-4.58-3.054-6.679-4.962c-1.145-0.954-2.099-1.908-2.862-2.29
		c-3.244-2.29-6.488-4.771-9.541-7.061c-1.718-1.336-3.436-2.671-5.153-4.007c-3.053-2.29-6.106-4.58-8.969-7.061
		c-3.816-3.054-7.824-6.107-11.64-8.969c-3.245-2.29-6.297-4.962-9.542-7.443c-2.862-2.48-5.916-4.961-8.969-7.06
		c-2.099-1.527-4.007-3.053-5.916-4.58c-1.335-1.145-2.671-2.099-4.007-3.244c-1.526-1.145-3.053-2.29-4.771-3.435
		c-3.434-2.48-7.06-4.961-9.731-7.824c-0.573-0.572-1.146-1.526-0.955-2.29c0-0.381,0.381-0.572,0.955-0.764
		c1.335,0,2.48,1.145,3.625,2.099c0.382,0.382,0.764,0.573,0.955,0.954c1.335,1.145,2.862,2.099,4.389,3.053
		c1.527,0.955,3.244,2.099,4.58,3.244c8.015,6.87,16.602,13.549,25.57,20.418c3.817,2.862,7.633,6.105,11.449,8.969
		c4.389,3.625,9.159,7.442,13.931,10.877l2.862,2.099c4.389,3.243,8.778,6.488,12.785,10.113l0.382,0.382
		c2.099,1.717,6.488,5.725,7.633,8.587C192.747,449.252,192.556,449.443,192.556,449.443z"/>
	<path fill="#757F92" d="M241.216,384.372c-0.572,0-0.954-0.191-1.526-0.382c-0.191-0.954-0.191-1.717,0.19-2.099
		c0.192-0.382,0.764-0.572,1.146-0.572c0.763,0,1.527,0.381,1.908,1.335c0,0.382-0.191,0.954-0.381,1.145
		C242.361,384.181,241.979,384.372,241.216,384.372z"/>
	<path fill="#757F92" d="M338.726,395.249c-0.191,0-0.382,0-0.382-0.191c-0.19-0.191-0.19-0.573-0.19-1.145
		c0.19-3.053,14.312-8.969,18.7-9.541c0,0.19,0,0.381,0,0.572c-1.145,2.29-5.152,3.816-8.015,4.961
		c-0.954,0.381-1.718,0.572-2.29,0.954c-0.381,0.191-1.145,0.764-2.099,1.526C342.352,393.531,340.062,395.249,338.726,395.249z"/>
	<path fill="#757F92" d="M242.17,406.317c0-0.192,0.191-0.382,0.572-0.764c1.145-1.335,2.671-3.435,4.389-6.106
		c4.007-5.916,9.35-13.739,13.548-14.502c0,0.382,0.19,0.763,0.381,1.145c-0.381,3.053-4.771,7.061-8.014,9.923
		c-1.336,1.145-2.481,2.099-3.054,2.862s-1.335,1.527-1.908,2.29c-0.954,1.146-1.908,2.29-3.053,3.435
		C244.46,405.362,242.933,406.317,242.17,406.317z"/>
	<path fill="#757F92" d="M249.04,388.379c-0.191,0-0.573,0-0.955,0c-0.763-0.191-0.954-0.381-0.954-0.954
		c0-0.764,0.954-1.718,2.099-1.718h0.19c0.191,0.191,0.382,0.382,0.763,0.382c0,0.19,0,0.572,0,0.763c0,0.573,0,1.145-0.191,1.335
		C249.803,388.379,249.612,388.379,249.04,388.379z"/>
	<path fill="#757F92" d="M237.208,388.57c-0.572,0-1.145-0.382-1.717-0.954c0-0.382,0-0.764,0.382-1.145
		c0.381-0.382,0.763-0.573,1.335-0.573s1.146,0.191,1.336,0.573c0.19,0.381,0.381,0.763,0.19,1.526
		C238.163,388.379,237.59,388.57,237.208,388.57z"/>
	<path fill="#757F92" d="M371.547,486.653c-1.908,0-3.435-0.19-4.198-0.572c-6.105-2.481-11.449-6.106-16.792-9.732l-2.099-1.336
		c-4.58-3.053-8.588-6.487-11.641-9.923c-0.954-1.145-2.481-3.244-2.672-4.389c-0.382-2.289,0.572-3.244,2.1-4.579
		c0.763-0.573,1.526-1.336,2.099-2.1l0.19-0.381l-0.381-0.192c-0.572-0.381-1.146-0.572-1.718-0.953
		c-1.335-0.764-2.672-1.527-4.389-1.527c-0.191,0-0.382,0-0.572,0c0.19-0.572,0.572-1.525,0.953-2.289
		c1.146-3.053,2.863-7.061,0.573-8.396c-1.718-0.954-3.054-5.152-3.816-7.061l-0.19-0.381c-1.527-4.198-2.863-6.68-6.871-9.351
		c-0.381-0.191-0.763-0.573-1.335-0.954c-2.671-1.718-6.679-4.39-7.061-7.252c1.336,0,2.1,0.763,2.862,1.909
		c0.382,0.381,0.764,0.954,1.145,1.335c2.481,0.764,4.39,2.099,6.298,3.245c1.336,0.764,2.672,1.718,4.007,2.29
		c2.29,1.145,2.48,2.099,2.672,3.816c0.191,0.954,0.382,1.908,0.764,3.053c0.19,0.572,0.572,1.527,0.763,2.29
		c0.764,2.48,1.336,4.771,3.054,4.771c0.763,0,1.526-0.572,2.48-1.526c1.908-2.099,4.961-3.625,8.014-5.152
		c1.718-0.954,3.436-1.718,4.771-2.671c0.954-0.572,1.526-0.764,2.29-0.764c1.718,0,2.48,2.48,3.243,5.152
		c0.764,2.48,1.336,5.151,3.244,5.915c0.764,0.382,1.718,0.954,2.672,1.717c1.718,1.146,3.244,2.291,4.579,2.291
		c2.29,0,2.29-3.436,2.481-4.389c0-3.626,0.572-7.062,1.145-10.495c0.572-3.245,1.145-6.488,1.145-9.924l0.191-3.435
		c0-2.671,0.191-5.534,0.382-8.205c0.19-4.581,0.382-4.771,3.244-7.252l0.954-0.763c1.145-1.145,2.29-2.29,3.243-3.626
		c1.527-1.717,2.862-3.435,4.58-4.77c2.099-1.527,2.671-1.718,4.58-2.099c0,0.381,0.19,0.763,0.19,0.954
		c-0.954,3.244-6.105,7.824-8.587,8.778h-0.191v0.19c-1.717,3.625-3.243,4.39-4.197,4.39h-0.191l-0.19,0.19
		c-0.572,1.718-1.335,5.534-1.335,7.442c-0.192,2.099-0.192,4.007-0.192,6.106c-0.19,5.343-0.381,10.305-1.145,15.648
		c-0.19,1.146-0.19,2.289-0.19,3.626c0,1.145,0,2.289-0.19,3.435c0,0.572-0.382,1.526-0.573,2.48
		c-0.382,1.336-0.763,2.672-0.763,3.435c0.19,1.718-3.817,4.962-6.298,6.87c-0.953,0.763-1.717,1.335-2.099,1.907
		c-2.672,2.863-1.718,5.534-0.954,7.824c0.572,1.527,1.145,3.053,0.382,4.389c0,0.191-0.19,0.382-0.382,0.382
		c-0.954,0-3.244-4.961-3.626-6.297c-1.145-4.961,0.764-6.87,3.436-9.351c1.335-1.145,2.671-2.48,3.625-4.198l0.19-0.19l-0.19-0.19
		c-0.954-0.764-2.29-1.527-3.435-1.908c-2.099-0.954-3.816-1.908-4.771-3.817c-0.382-1.145-1.145-2.099-1.908-3.053
		c-1.146-1.526-2.29-3.054-1.908-5.152l0.19-0.572l-0.572,0.19c-2.48,0.572-4.771,2.1-6.87,3.436
		c-1.717,1.145-3.625,2.48-5.724,3.053h-0.191v0.19c0,0.764-0.572,0.955-1.336,1.527c-0.572,0.381-1.145,0.572-1.336,1.146
		c-0.572,0.953-0.953,1.907-1.145,3.053c-0.19,1.145-0.572,2.099-1.146,3.053l-0.19,0.19v0.191c0.572,1.526,1.718,2.672,3.244,3.816
		c1.336,1.145,2.862,2.48,3.244,4.007c-0.191,1.336-0.954,1.908-1.718,2.48c-0.572,0.383-1.145,0.765-1.335,1.527
		c-0.191,0.763,0.19,1.718,1.145,3.244c2.862,4.58,8.968,8.205,13.93,11.259c0.764,0.381,1.526,0.953,2.29,1.335
		c1.145,0.764,2.48,1.526,3.626,2.481c1.145,0.763,2.48,1.717,3.816,2.48c4.007,2.48,7.061,3.625,10.495,3.625
		c1.526,0,3.054-0.19,5.152-0.572c0.19,0.763,0,1.527-0.382,1.908C377.081,485.891,374.601,486.653,371.547,486.653z"/>
	<path fill="#757F92" d="M231.675,393.15c-0.382,0-0.764,0-1.146-0.382c-0.19-0.382-0.381-0.954,0-1.336
		c0.382-0.572,1.146-0.954,1.909-0.954c0.381,0,1.527,0.191,1.527,1.718C233.583,392.768,232.629,393.15,231.675,393.15z"/>
	<path fill="#757F92" d="M244.651,393.15c-0.573,0-0.955-0.191-1.146-0.382c-0.572-0.572-0.954-1.145-0.763-1.527
		c0.191-0.381,0.763-0.763,1.526-0.763c0.764,0,1.527,0.191,1.908,0.954l0.191,0.573c0,0.191,0,0.381-0.191,0.572
		C245.796,392.959,245.223,393.15,244.651,393.15z"/>
	<path fill="#757F92" d="M240.072,397.348c-1.146,0-1.909-0.19-2.099-0.572c0-0.191,0-0.572,0.381-0.954s0.954-0.572,1.335-0.572
		c0.764,0,1.336,0.572,1.526,1.335c0,0.191-0.19,0.381-0.19,0.573C241.025,397.348,240.644,397.348,240.072,397.348z"/>
	<path fill="#757F92" d="M232.056,406.698c-2.29,0-6.106-1.145-9.351-2.29c-2.862-0.955-5.724-1.909-7.251-1.909
		c-0.572,0-0.954,0.191-1.145,0.382l-0.191,0.19c-1.335-0.763-2.671-4.007-2.481-5.725c0-0.763,0.382-0.763,0.573-0.763
		c0.191,0,0.191,0,0.381,0c0.954,0.381,1.335,1.145,1.526,2.099v0.191h0.191c2.29,0.381,4.771,1.145,7.632,2.29
		c0.955,0.382,1.908,0.763,2.862,1.146c1.908,0.763,4.007,1.526,6.106,2.29c-0.191,0.191-0.191,0.191-0.191,0.382
		c0,0.763,1.527,1.335,2.29,1.335C232.82,406.698,232.438,406.698,232.056,406.698z"/>
	<path fill="#757F92" d="M418.68,461.846c-2.099,0-4.007-0.572-6.679-1.717c-3.243-1.526-6.297-3.054-7.061-6.106
		c-1.336-4.962-2.289-10.305-2.861-15.647c-1.336-11.831-1.527-21.563-0.191-29.959c3.435-1.908,20.8-10.114,25.761-10.114
		c0.573,0,0.954,0.19,0.954,0.381c0.764,2.672-8.015,5.916-12.213,7.441c-1.145,0.383-1.908,0.764-2.48,0.955
		c-0.763,0.381-1.526,0.572-2.29,0.954c-3.243,1.145-6.679,2.481-6.487,6.297c0,1.909,0,4.008,0,5.916c0,3.435,0,6.87,0.19,10.305
		c0.19,1.335,0.19,2.671,0.382,4.198c0.573,8.777,1.146,18.7,9.351,22.897c0.19,0.192,0.954,0.192,3.625,0.383
		c3.436,0.19,12.403,0.763,12.976,1.717c0,0,0,0-0.19,0.191c-1.335,0.954-3.435,1.145-5.343,1.335
		c-1.336,0.191-2.48,0.191-3.626,0.572C420.97,461.655,419.825,461.846,418.68,461.846z"/>
	<path fill="#757F92" d="M335.864,415.667c-2.672,0-4.008-3.817-4.771-6.297c-0.19-0.381-0.19-0.763-0.383-0.954
		c-0.381-0.764-1.144-2.099-2.099-3.435c-1.145-1.527-2.48-3.435-2.48-4.389c0.19,0,0.19,0,0.382,0c0.764,0,1.908,0.572,3.054,1.718
		c1.908,2.099,3.434,4.961,3.434,6.297v0.382h0.383c2.48-0.382,2.48-5.153,2.671-8.206c0-0.573,0-0.954,0-1.336
		c0,0,0.191,0,0.191-0.19c0.19,0,0.381,0.19,0.381,0.19c0.955,0.955,0.572,3.816,0.572,5.152c0,0.191,0,0.572,0,0.572
		c0,1.336,0.191,2.48,0.191,3.626C337.581,411.469,337.962,413.568,335.864,415.667z"/>
	<path fill="#757F92" d="M342.542,415.285c-0.572,0-0.955-0.19-1.146-0.381c-0.763-1.146,0.19-4.007,0.573-5.153v-0.19v-0.191
		c-0.19-1.145-0.764-2.099-1.336-3.053c-0.572-0.955-0.954-1.718-1.336-2.863c0-0.191,0-0.382,0-0.572
		c0.954,0.19,1.717,0.763,2.481,1.717c1.907,2.862,2.289,8.206,1.525,10.496C342.924,415.285,342.733,415.285,342.542,415.285z"/>
	<path fill="#757F92" d="M330.903,419.865c-1.146,0-3.054-1.146-4.008-1.909c-0.19-0.19-0.382-0.19-0.573-0.381
		c-2.671-1.527-9.159-5.725-9.35-6.679c0.19-0.381,0.572-0.381,0.763-0.381c0.191,0,0.383,0,0.573,0s0.382,0,0.572,0.19
		c0.382,2.099,5.916,4.58,7.251,5.152h0.19l0.191-0.19c0.191-0.382-0.764-2.29-1.145-2.862c-0.382-0.764-0.572-1.336-0.954-2.099
		c-0.191-0.573-0.382-1.145-0.764-1.527c-0.382-0.763-0.763-1.336-1.145-1.717c-0.573-0.954-1.146-1.527-1.146-2.862
		c1.336,0.382,3.054,3.244,3.816,4.961c0.191,0.381,0.382,0.763,0.572,0.954c0.382,0.573,0.764,1.146,1.146,1.527
		c0.572,0.573,0.954,1.336,1.335,2.099c0.191,0.381,0.382,0.764,0.955,1.336c0.763,1.145,2.099,3.244,1.908,4.007
		C331.093,419.674,330.903,419.674,330.903,419.865C331.283,419.674,331.093,419.865,330.903,419.865z"/>
	<path fill="#757F92" d="M312.201,436.658c-0.19,0-0.382,0-0.764,0c-0.572,0-1.145-1.146-1.717-1.908
		c-0.572-0.765-1.146-1.527-1.718-2.1c-1.335-0.954-2.29-1.908-3.435-3.054c-0.954-1.145-2.099-2.099-3.435-3.243
		c-0.764-0.572-1.527-1.146-2.48-1.718c-2.099-1.526-4.389-2.862-5.725-4.961c0.381-0.955,0.954-1.336,1.526-1.718
		c0.763-0.572,1.527-1.145,1.527-3.816c-0.191-3.053,0.954-3.244,2.862-3.817c0.954-0.19,1.908-0.572,3.243-1.145
		c0.765-0.381,1.718-1.145,2.863-1.908c2.29-1.717,4.771-3.626,6.869-3.626c0.191,0,0.191,0,0.382,0
		c-0.19,0.191-0.382,0.382-0.763,0.764c-0.955,0.954-2.29,1.908-2.863,2.48c-0.19,0.191-0.382,0.191-0.382,0.381
		c-1.908,1.908-3.816,3.053-6.106,4.198l-0.381,0.191l0.19,0.381c0.573,1.527,2.863,3.435,5.152,5.343
		c3.244,2.671,7.061,5.725,6.297,8.206c-2.099,0-6.105-3.816-9.159-6.87c-2.1-2.099-4.007-3.816-5.343-4.58l-0.572-0.382v0.572
		c0,0.573,0,1.146,0,1.718c-0.191,3.435-0.191,4.961,3.625,7.443c2.863,1.908,5.916,4.198,8.015,6.105
		c0.382,0.383,0.764,0.955,1.146,1.527c0.572,0.954,1.335,1.908,2.671,1.908c0.572,0,1.145-0.19,1.908-0.572
		c0.573-0.382,1.526-0.955,2.481-1.527c1.717-1.145,4.007-2.671,5.533-2.671l0,0C322.506,432.078,316.4,436.658,312.201,436.658z"/>
	<path fill="#757F92" d="M417.154,513.559c0.572-2.671,3.626-5.915,6.488-8.777c1.717-1.717,3.244-3.435,4.007-4.58
		c2.1-3.243,2.672-7.251,3.244-11.067c0.19-0.954,0.19-1.908,0.382-2.862c1.336-8.015,1.336-16.792,1.336-25.188
		c0-1.718,0-3.243,0-4.961v-3.817c0.19-9.159,0.19-18.51-1.146-27.479c-0.382-1.717-0.572-3.625-0.572-5.343
		c-0.382-3.244-0.763-6.679-1.718-10.114l-0.19-0.572c-0.382-1.336-0.763-2.099-0.382-2.672c0.191-0.381,0.764-0.572,1.718-0.763
		c0.19,0,0.763-0.191,1.145-0.191c1.336-0.381,3.244-0.763,4.771-0.763c1.146,0,1.908,0.19,1.908,0.763v0.191
		c0,1.146-0.763,1.336-2.099,1.908c-0.764,0.191-1.336,0.381-1.909,0.954c-1.144,1.146-0.953,2.29-0.571,3.436
		c0,0.381,0.19,0.763,0.19,1.145c0.954,5.724,1.718,11.831,2.099,19.082c0.764,13.74,0.764,27.86-0.381,42.363
		c-0.191,1.526-0.191,3.053-0.191,4.579c-0.381,5.916-0.572,12.213-2.671,17.747c-0.955,2.48-2.48,4.197-4.008,6.105
		c-0.954,0.955-1.717,2.1-2.671,3.245C424.596,508.407,420.016,513.559,417.154,513.559
		C417.345,513.559,417.154,513.559,417.154,513.559z"/>
	<path fill="#757F92" d="M375.745,479.211c-0.572,0-1.145-0.191-1.908-0.382c-3.626-1.335-3.626-1.908-3.626-2.099
		c0,0,0.191-0.382,2.1-0.572c8.969-1.146,12.594-4.58,13.548-13.357c0.19-2.48,0.382-4.771,0.763-7.252
		c0.573-7.633,1.337-15.457,3.436-22.517c0.954-3.626-0.19-7.251-1.336-10.687c-0.382-1.145-0.763-2.099-0.954-3.245
		c-0.763-3.053-1.336-7.632-1.336-12.212c2.1,2.671,6.488,19.083,6.87,21.754c0.572,3.626-0.382,7.632-1.336,11.64
		c-0.763,2.862-1.336,5.915-1.526,8.969c-0.382,9.351-0.954,22.136-9.159,27.669l-0.382,0.382
		C378.99,478.257,377.462,479.211,375.745,479.211z"/>
	<path fill="#757F92" d="M443.678,430.552c-2.29,0-4.198-1.527-5.344-4.39c-0.572-1.336,0-4.197,0.955-5.343
		c0.19-0.382,0.382-0.572,0.572-0.572s0.382,0.19,0.572,0.954c0.954,2.863,2.29,6.298,4.389,6.298c0.955,0,2.099-0.954,2.863-2.862
		c1.526-3.053,1.145-8.206-1.908-10.305h-0.191h-0.19c-0.573,0.191-1.336,0.382-2.1,0.573c-1.336,0.381-2.862,0.954-4.007,0.954
		c-1.336,0-1.908-0.572-2.29-1.717c0.19,0,0.382,0,0.382,0c1.718,0,2.862-0.572,4.389-1.335c0.382-0.19,0.954-0.382,1.336-0.573
		l0.19-0.191v-0.381c-0.381-1.336-1.526-1.909-2.48-2.29s-1.717-0.763-1.908-1.527c0-0.191,0-0.191,0-0.381
		c4.771,0.572,12.021,8.206,12.595,12.594c0.382,2.481-0.573,5.343-2.481,7.442C447.686,429.406,445.586,430.552,443.678,430.552z"
		/>
	<path fill="#757F92" d="M354.182,412.996c-0.572-0.573-0.763-1.146-0.382-1.718c0.765-1.908,5.534-3.626,8.016-3.626
		c0.763,0,1.145,0.191,1.145,0.382l0,0c0,0,0,0.19,0,0.382C362.006,409.561,355.518,412.996,354.182,412.996L354.182,412.996z"/>
	<path fill="#757F92" d="M452.074,456.312c-0.763,0-1.146-0.19-1.336-0.764c-0.191-0.763,0.19-2.1,1.146-2.862
		c1.717-1.335,3.625-2.48,5.342-3.626c2.48-1.525,4.962-3.053,7.062-5.151c4.771-4.58,4.961-8.015,5.343-13.167
		c0-1.146,0.19-2.29,0.19-3.626c0.19-1.335,0.19-2.48,0.382-3.816c0.19-2.099,0.573-4.39,0.573-6.488c0-1.526,0.19-3.244,0-4.771
		c0-0.572-0.192-1.145-0.383-1.718c-0.19-0.763-0.382-1.717-0.19-2.29c0.381,0.19,2.672,3.626,2.862,4.198
		c0.572,2.099,0.764,4.58,0.764,6.678c0,1.909-0.191,3.817-0.191,5.535c-0.19,1.908-0.381,4.007-0.19,5.915
		c0,1.526-0.19,4.771-0.382,6.488c-0.382,3.625-1.526,4.771-3.816,7.251l-0.572,0.763c-2.672,2.863-5.725,4.581-8.97,6.489
		c-1.144,0.572-2.099,1.145-3.243,1.907c-0.572,0.383-1.146,0.955-1.526,1.336c-0.764,0.764-1.527,1.718-2.672,1.718H452.074z"/>
	<path fill="#757F92" d="M350.175,426.162c-0.572-0.19-0.954-0.19-1.526-0.381c0.954-2.481,0-4.772-0.764-6.871
		c0-0.19-0.191-0.381-0.382-0.572c-0.572-1.145-1.908-3.435-0.954-4.389c0.382-0.191,0.572-0.381,0.764-0.381
		c1.336,0,2.862,3.626,3.244,4.961C351.129,421.392,350.939,424.063,350.175,426.162z"/>
	<path fill="#757F92" d="M214.31,473.868c-2.291-2.671-1.527-8.587-0.764-13.739c0.381-2.672,0.764-5.152,0.572-6.87
		c2.672-4.198,9.351-6.679,14.693-8.777c1.336-0.572,2.48-0.954,3.626-1.336c3.053-1.336,6.106-2.862,9.159-4.198
		c4.007-1.908,8.206-3.816,12.213-5.534c2.671-1.144,5.534-2.671,8.396-4.579c5.534-3.244,11.259-6.679,16.41-6.679
		c0.573,0,0.573,0,0.573,0s-0.573,0.763-4.962,3.053l-0.381,0.19c-2.862,1.718-5.915,3.245-8.778,4.771l-2.48,1.335
		c-1.527,0.765-3.053,1.527-4.58,2.48c-6.297,3.245-12.785,6.68-19.464,9.352l-0.764,0.381c-5.724,2.29-11.64,4.58-16.982,7.442
		c-4.771,2.481-4.581,7.442-4.581,12.021C216.791,466.999,216.982,471.006,214.31,473.868z"/>
	<path fill="#757F92" d="M303.233,447.344c-2.29,0-5.916-3.435-8.014-5.534c-0.572-0.572-0.954-0.953-1.335-1.336
		c-1.336-1.145-3.244-2.099-5.152-3.243c-2.671-1.527-5.534-3.245-6.87-4.961c-0.191-0.765-0.191-1.527,0.191-1.718
		c0.19-0.191,0.381-0.382,0.763-0.382c2.481,0,8.015,4.008,9.732,5.343l0.572,0.382c2.48,1.717,5.152,3.816,8.015,6.297
		c0.572,1.146,1.336,1.718,2.48,1.718c0.19,0,0.19,0,0.382,0h0.19c0.19,0,0.19,0,0.19,0.572c0,0.382,0,0.764,0.191,1.146l0,0v0.19
		c0,0.19,0,0.381,0.191,0.381C304.377,446.962,303.805,447.344,303.233,447.344z"/>
	<path fill="#757F92" d="M433.755,503.827c0.19-1.146,2.48-3.054,4.198-4.579c1.718-1.527,3.244-2.863,3.816-4.008
		c2.48-4.771,2.862-11.067,3.436-16.602l0.19-1.908c0.382-5.152,0.19-10.304,0.19-15.457c0-1.908-0.19-4.007-0.19-5.915v-2.862
		c0-2.672,0-5.534,0-8.206c0-0.763,0-1.717,0-2.48c-0.19-2.29-0.19-4.579,0.954-5.725c0.381-0.382,0.954-0.572,1.526-0.763v0.19
		c0,0,0,1.718,0.572,1.908c2.099,15.456,1.908,32.821-0.382,48.087c-0.763,5.152-1.526,9.16-4.579,12.976
		c-1.908,2.29-6.488,5.153-9.351,5.153C433.946,503.827,433.946,503.827,433.755,503.827z"/>
	<path fill="#757F92" d="M197.518,446.771c-0.573-0.953-0.955-5.151-1.718-12.021c0-0.382,0-0.572,0-0.955l0.191-0.19
		c0.954,0.19,1.527,0.954,2.099,2.099C199.617,438.757,199.235,444.481,197.518,446.771z"/>
	<path fill="#757F92" d="M192.556,493.332c-1.717-1.336-3.816-2.672-5.534-3.816c-2.099-1.336-4.198-2.672-6.106-4.198
		c-0.381-0.191-0.763-0.763-1.336-1.145c-2.29-1.908-4.389-3.626-5.724-4.198c0.191-0.572,0.191-0.955,0-1.527l-0.191-0.572
		l-0.381,0.572c-0.191,0.191-0.382,0.572-0.573,0.764c-0.381,0-1.908-2.1-2.48-2.672c-0.381-0.381-0.572-0.763-0.572-0.763
		l-0.572-0.572c-2.291-2.29-4.771-4.771-7.442-6.87c-2.862-2.29-6.106-4.58-9.35-6.679l-2.099-1.335
		c-1.527-0.955-3.244-2.673-4.962-4.39c-3.053-3.054-6.488-6.487-9.731-7.442c-2.099-0.572-13.931-10.305-14.121-11.449
		c-0.191-0.764,0-1.145,0.19-1.336c0.192-0.19,0.382-0.19,0.573-0.19c1.335,0,4.198,1.718,7.632,4.579
		c1.336,0.955,2.672,1.909,4.389,3.054c3.435,2.29,7.442,4.771,8.968,7.442c1.146,2.099,4.39,4.389,7.252,6.487
		c1.145,0.765,2.099,1.527,2.862,2.1c2.863,2.29,5.916,4.389,9.351,6.679c3.434,2.29,6.296,5.344,9.159,8.205
		c0.572,0.572,1.145,1.146,1.718,1.718c0.381,0.382,2.29,2.099,4.198,3.626c1.145,0.954,2.481,2.099,2.862,2.48
		c0.191,0.572,1.145,1.526,4.198,3.815c3.244,2.481,8.015,6.298,8.015,8.016C192.747,493.142,192.747,493.142,192.556,493.332z"/>
	<path fill="#757F92" d="M342.924,458.793c-0.191,0-0.764-0.19-0.764-1.526c0.191-4.008,5.533-12.212,9.351-12.212l0,0
		c-0.191,0.19-0.382,0.572-0.764,1.144c-0.954,1.146-2.099,2.481-3.054,3.626c-0.572,0.572-0.953,1.145-1.145,1.336
		c-0.381,0.572-0.954,1.908-1.336,3.244C344.641,455.931,343.687,458.412,342.924,458.793z"/>
	<path fill="#757F92" d="M145.614,368.724c-0.191,0-0.573-0.19-0.764-0.19c0,0,5.343-3.625,5.916-3.817
		c3.435-1.908,7.251-2.862,10.686-4.58c2.099-0.954,4.58-1.908,6.297-3.625c2.099-2.099,3.626-4.389,5.725-6.297
		c1.907-1.718,3.815-4.389,6.296-5.152c0.382-0.191,4.198-0.954,4.007-0.764c-0.191,1.908-1.526,2.291-3.244,3.053
		c-1.527,0.764-2.862,1.718-4.007,2.863c-2.671,2.48-4.771,5.534-7.824,7.633c-2.099,1.335-4.389,2.671-6.297,4.198
		c-1.907,1.336-3.815,2.481-5.915,3.053c-2.29,0.764-4.58,1.717-6.87,2.29C148.476,367.58,146.949,368.915,145.614,368.724z"/>
	<path fill="#757F92" d="M268.885,449.061c-0.19,0-0.572,0-0.763-0.19c-0.382-0.954-0.573-1.717-0.192-2.29
		c0.192-0.382,0.573-0.572,0.955-0.572c0.382,0,0.954,0.19,1.718,0.572c0,0.764,0,1.336-0.381,1.718
		C269.839,448.87,269.457,449.061,268.885,449.061z"/>
	<path fill="#757F92" d="M207.823,494.858c-0.382,0-0.573-0.764-0.573-1.336c0-0.953,0.381-1.145,1.145-1.526
		c0.382-0.191,0.763-0.382,1.145-0.764c2.099-1.908,4.008-3.435,6.679-4.579c7.443-3.053,18.129-7.824,26.907-13.548
		c4.389-2.863,9.541-5.344,14.693-7.824c1.908-0.954,3.816-1.908,5.724-2.862c1.146-0.573,2.481-1.336,4.007-2.29
		c1.527-0.954,3.054-1.908,4.389-2.672c1.336-0.763,2.672-1.335,4.198-1.908c2.099-0.954,4.198-1.717,6.297-3.053
		c0.381-0.191,0.764-0.572,1.146-0.764c0.954-0.764,2.099-1.526,3.243-1.526c0.191,0,0.191,0,0.382,0
		c0.19,1.526-3.053,3.053-4.58,3.816l-0.382,0.191c-2.29,1.145-4.389,2.48-6.679,4.198c-5.916,4.389-12.785,7.632-19.654,10.876
		c-3.626,1.718-7.443,3.626-10.877,5.534c-1.908,0.954-3.626,1.908-5.343,2.862c-3.053,1.526-5.724,3.053-8.587,4.771
		c-2.48,1.527-5.533,2.671-8.778,4.008c-4.77,1.908-9.922,3.816-13.167,7.251C208.585,494.668,208.204,494.858,207.823,494.858z"/>
	<path fill="#757F92" d="M336.626,553.632c-1.335,0-2.671-0.19-4.198-0.19c-1.145-0.191-2.48-0.191-3.434-0.191
		c-0.573,0-1.146,0-1.527,0.191c-0.572,0.19-1.146,0.19-1.718,0.19c-4.961,0-12.403-2.671-15.456-5.533
		c-2.48-2.291-5.725-4.198-8.969-6.106c-1.718-0.955-3.244-1.908-4.579-2.863c-1.527-1.145-2.099-1.717-3.054-2.861
		c-0.191-0.382-0.572-0.764-0.954-1.146c-2.29-3.053-1.527-4.007-0.381-5.725c0.572-0.764,1.144-1.526,1.526-2.48
		c3.434,0.382,6.869,0.572,10.304,0.954c5.916,0.381,12.022,0.763,17.746,2.289l0.383,0.191l0.19-0.382
		c1.908-6.679-1.527-16.22-4.389-23.662c-0.573-1.718-1.146-3.243-1.718-4.579c-0.955-3.053-2.672-6.298-4.389-9.732
		c-2.48-4.961-5.152-10.113-5.726-14.884c-0.19-1.526,0.191-2.862,0.764-4.007c0.382-1.336-0.381-1.908-0.764-2.29
		c-0.381-0.383-0.763-0.764-0.572-1.527c0.955-3.244,2.672-6.869,4.962-10.495c1.908-2.862,3.053-3.243,4.579-3.243
		c0.955,0,1.908,0.19,3.244,0.381l1.336,0.191c0.764,0.19,1.908,0.19,3.244,0.381c3.053,0.191,7.251,0.572,8.969,1.718
		c0,0.191,0.381,0.572,0.572,0.763c0,0.382,0,0.764-0.382,1.146c-0.572,0.572-1.527,0.954-3.243,0.954
		c-2.29,0-5.153-0.572-7.062-0.954c-0.763-0.19-1.335-0.19-1.908-0.382c-0.572,0-1.145-0.191-1.526-0.191
		c-0.764-0.19-1.336-0.19-2.099-0.19c-1.527,0-2.672,0.764-3.626,2.672c-0.19,0.382-0.382,0.764-0.572,1.145
		c-1.336,2.29-2.48,4.39-1.718,7.251c0.382,1.527,0,2.29-0.572,3.054c-0.572,0.954-1.146,1.908-0.572,3.816
		c0.954,2.672,2.099,5.343,3.244,7.823c0.381,0.765,0.763,1.527,1.145,2.29c2.1,4.58,3.816,9.16,5.534,13.74
		c0.763,2.289,1.717,4.389,2.48,6.679c2.099,5.343,3.626,11.83,4.007,16.983c0.191,3.815-0.381,6.679-1.717,8.205
		c-1.336,1.335-1.717,2.48-1.526,3.625c0.19,1.146,1.335,2.1,3.053,2.863c3.053,1.335,5.916,1.907,8.587,1.907
		c3.816,0,7.634-1.145,11.64-3.815c1.146-0.765,2.291-1.718,3.245-2.673c0.953-0.953,1.908-1.907,3.053-2.48
		c0.572-0.381,1.145-1.335,1.717-2.29c0.382-0.572,0.955-1.526,1.337-1.717c0.19,0,0.19,0,0.381,0c0.191,0,0.191,0,0.191,0
		c0.19,0.572-0.382,2.481-1.527,4.58c-1.526,2.862-4.389,5.725-8.014,8.014c-4.008,2.48-7.442,4.58-11.26,4.58
		c-1.907,0-3.625-0.572-5.724-1.526c-1.336-0.954-2.863-1.336-4.389-1.336c-1.146,0-1.908-0.572-2.672-1.146
		c-0.573-0.381-1.146-0.953-2.099-1.335c-0.955-0.382-1.718-0.572-2.1-0.763c-0.191,0-0.382-0.191-0.382-0.191
		c0.382-0.382,1.146-1.145,1.718-2.862c0.381-0.954,0.19-1.718-0.191-2.48c-1.526-2.1-6.487-2.1-9.731-2.1c-0.573,0-0.954,0-1.336,0
		c-0.954,0-1.908,0-2.862,0c-1.717,0-3.435,0-5.152,0.191c-0.572,0-1.145-0.382-1.717-0.572c-0.573-0.382-1.335-0.765-2.099-0.765
		c-0.573,0-0.955,0.192-1.527,0.383l-0.191,0.19v0.191c-0.381,4.007,9.922,9.731,12.785,11.067c1.525,0.763,3.053,1.526,4.389,2.29
		c3.053,1.717,5.915,3.244,10.113,4.198c0.764,0.19,1.526,0.381,2.099,0.572c1.718,0.381,3.436,0.954,5.153,0.954
		c0.953,0,1.908-0.19,2.861-0.382c0.954-0.382,2.48-0.572,3.817-0.572c1.335,0,4.579,0.19,5.724,2.48
		C341.397,553.06,339.68,553.632,336.626,553.632z"/>
	<path fill="#757F92" d="M213.165,480.547c-0.19-0.382,0-0.572,0-0.954c1.146-3.626,12.785-9.16,17.556-11.449
		c1.146-0.572,1.908-0.954,2.48-1.145c2.099-1.146,4.198-2.672,6.297-4.008c2.48-1.718,4.962-3.436,7.633-4.579
		c0.763-0.382,1.717-0.765,2.671-1.337c3.435-1.717,7.251-3.626,10.305-3.816c0,0.19,0,0.383,0.19,0.383
		c-0.572,1.525-3.816,2.861-6.106,3.815c-1.145,0.382-1.908,0.764-2.48,1.146c-2.862,1.908-5.725,3.816-8.778,5.725l-3.626,2.29
		c-3.816,2.48-8.396,5.533-12.403,7.441c-1.145,0.572-2.481,1.336-3.816,2.1C219.844,478.066,216.218,480.165,213.165,480.547z"/>
	<path fill="#757F92" d="M453.983,477.494c0,0-0.19,0-0.382-0.382c-0.382-1.146,0-4.007,1.336-5.343
		c1.526-1.527,0.572-3.817-0.382-6.298c-0.763-1.718-1.336-3.435-1.336-5.151c0.191-0.191,0.573-0.765,0.764-1.337
		c2.29,0.764,3.243,3.436,4.008,5.916c0.19,0.572,0.381,1.145,0.572,1.718c1.336,3.815-0.191,5.724-2.1,8.205
		c-0.19,0.382-0.572,0.764-0.954,1.145C454.555,477.494,454.173,477.494,453.983,477.494L453.983,477.494z"/>
	<path fill="#757F92" d="M204.769,493.142c-1.909-2.481-1.909-10.687-1.718-13.549c0-0.382,0-0.764,0-1.146
		c0-0.763-0.191-2.48-0.381-4.77c-0.382-4.771-1.527-16.221-0.191-16.793c0.381,0,0.763,0.19,1.146,0.572
		c3.434,3.626,2.671,23.472,2.099,32.439h-0.192c-0.763,0-0.954,1.718-0.954,2.1C204.769,492.569,204.769,492.95,204.769,493.142z"
		/>
	<path fill="#757F92" d="M139.317,490.279c-0.573-0.573-1.717-3.054-1.717-13.167v-0.382c0-1.336,0-2.672,0.19-4.008
		c0.191-2.099,0.191-4.197,0-6.105c-0.19-1.718-0.381-3.436-0.381-5.152c0-1.718,0.381-2.1,0.954-2.481
		c0.191-0.19,0.382-0.381,0.573-0.571h0.191c1.907,3.053,1.717,7.441,1.526,11.448c0,0.764,0,1.527,0,2.1
		c0,2.862-0.191,5.725-0.381,8.396C139.508,483.409,139.317,486.844,139.317,490.279z"/>
	<path fill="#757F92" d="M188.74,402.882c-0.764-0.382-1.718-1.336-2.48-2.099c-0.764-0.764-1.336-1.336-1.909-1.718
		c-2.099-1.145-4.389-3.053-7.061-5.534c-1.526-1.526-3.243-2.29-4.961-3.053c-1.145-0.572-2.29-1.145-3.435-1.908
		c-3.816-2.481-7.251-5.152-11.258-8.587c-1.908-1.527-3.625-2.862-5.152-4.007c-0.955-0.763-2.099-1.526-3.054-2.29
		c-0.572-0.382-2.48-1.336-2.671-2.099c-0.381-1.336,2.099-1.145,2.862-0.764c1.909,0.764,3.626,2.481,5.344,3.626
		c3.435,2.29,7.251,4.771,10.114,7.824c2.671,2.671,5.533,4.198,8.205,5.152c2.672,1.145,4.771,3.053,6.68,5.152
		c0.763,0.763,1.526,1.527,2.29,2.099c2.48,2.099,6.297,5.916,7.25,8.015C189.121,402.691,188.931,402.691,188.74,402.882z"/>
	<path fill="#757F92" d="M401.506,495.812c-1.145,0-2.29,0-3.625-0.19c-2.48-0.191-5.344-0.764-7.252-2.48
		c-0.954-0.764-1.908-0.955-2.671-0.955c-0.191,0-0.382,0-0.572,0c-0.191,0-0.382,0-0.572,0c-0.573,0-1.146,0-1.527-0.572
		c0-2.671,1.335-4.389,2.862-6.297c1.526-1.908,3.244-4.008,3.054-7.061v-0.19h-0.191c-0.191,0-0.191,0-0.382,0
		c-0.954,0-2.099,0.953-3.625,2.29c-1.527,1.145-3.054,2.48-4.198,2.48c-0.764,0-1.336-0.954-1.336-3.053
		c3.053,0,4.389-0.573,6.869-2.863c0.573-0.572,1.146-1.526,1.527-2.671c0.381-0.954,0.953-1.909,1.336-2.29
		c0.19,0,0.19,0,0.381-0.19c0,0,0,0,0.191,0c0.381,0,0.572,0.19,0.572,0.19c0.19,0.381,0.19,1.146-1.336,3.816l-0.191,0.19
		l0.191,0.191c1.717,2.48,2.1,5.534,0.572,7.824c-1.145,1.908-1.145,3.434-0.572,4.579c0.954,1.718,3.435,2.671,6.679,2.862
		c0.572,0,1.145,0,1.717,0c0.955,0,1.909,0,3.054,0c2.48,0,5.533-0.191,8.396-1.908c1.335-0.764,2.672-1.718,4.008-2.862
		c3.053-2.29,5.915-4.58,9.54-4.58c0.764,0,1.337,0,2.1,0.191c-0.572,0.953-2.1,1.718-3.436,2.29
		c-0.953,0.381-1.717,0.763-2.289,1.336c-0.572,0.381-1.145,0.953-1.717,1.717c-1.146,1.145-2.481,2.48-3.626,2.862
		c-1.336,0.382-2.29,1.145-3.245,1.908c-0.953,0.764-1.907,1.336-3.053,1.717C406.658,495.431,404.368,495.812,401.506,495.812z"/>
	<path fill="#757F92" d="M444.632,557.64c-0.572,0-0.954-0.191-1.145-0.572c-0.955-1.146,0-4.39,0.381-5.726
		c0-0.381,0.191-0.572,0.191-0.763v-0.19l-0.191-0.192c-1.145-1.525-5.915-2.861-9.159-3.625c-0.764-0.19-1.526-0.381-2.099-0.572
		c-3.816-1.145-7.634-3.054-11.067-4.962c-3.245-1.717-6.68-3.434-10.114-4.77c-1.336-0.382-3.244-0.955-4.961-1.337l-1.718-0.381
		c-2.48-0.572-4.962-1.145-7.061-2.48c-0.382-1.527-0.382-3.054-0.382-4.39c0-1.145,0-2.099-0.19-3.244
		c-0.382-4.389-1.718-4.771-4.58-5.343c-0.763-0.19-1.718-0.381-2.862-0.572c-1.908-0.573-3.816-0.954-5.725-1.526
		c-3.053-0.764-6.297-1.718-9.541-2.672c-2.099-0.764-4.007-1.336-6.106-2.099c-7.06-2.29-14.312-4.771-20.99-7.634l-0.572-0.19
		v0.572c0.381,3.436,3.816,11.45,6.679,13.74c1.526,1.145,2.861,2.289,4.007,3.625c0.572,0.573,1.145,0.954,1.718,1.336
		c0.954,0.572,1.717,0.954,1.908,2.48c-0.382,0-0.573,0-0.954,0c-5.343,0-8.778-3.625-10.877-6.869
		c-1.908-2.862-7.824-11.641-4.58-15.267l0.191-0.381l-2.1-1.336c-4.389-2.862-8.015-5.343-10.877-9.541
		c-1.336-1.908-0.572-4.771,0.382-6.679c1.146-2.099,2.48-3.244,3.816-3.244c0.572,0,0.954,0.19,1.336,0.572
		c0,0.382,0.191,1.146,0.382,1.526c-0.19,0.382-0.764,0.763-1.336,0.955c-0.763,0.381-1.908,0.953-1.908,2.289
		c-0.572,4.39,4.771,8.015,6.487,9.351c5.534,3.816,11.259,5.725,17.365,7.824c2.099,0.763,4.198,1.525,6.297,2.289
		c6.488,2.481,12.977,4.39,19.846,6.106l1.908,0.572c3.626,0.954,7.062,1.908,10.877,1.908c1.336,0,2.672-0.19,4.198-0.382
		c1.526-0.382,3.054-1.335,4.198-2.48c1.526-1.145,2.862-2.29,4.389-2.29l0,0c0.19,0.382,0.19,0.764,0,1.336
		c-1.145,3.053-9.541,7.061-11.067,7.251h-0.572l0.19,0.382c0.763,1.526,0.954,3.054,1.146,4.771
		c0.19,1.717,0.382,3.434,1.145,4.961v0.19h0.19c2.1,0.763,4.198,1.146,6.298,1.718c3.244,0.763,6.487,1.526,9.35,3.053
		c5.534,3.054,11.068,5.534,16.983,8.015l3.435,1.527c1.145,0.572,2.1,0.763,3.054,1.145c2.862,0.954,4.962,1.717,7.061,4.77
		c-0.383,0.955-2.672,6.488-3.054,7.443C444.823,557.64,444.632,557.64,444.632,557.64z"/>
	<path fill="#757F92" d="M390.439,504.59c-1.908,0-3.817,0-5.725-0.19c-2.481-0.19-11.45-1.908-12.595-3.435
		c-0.954-1.145-3.244-1.908-5.343-2.481c-0.954-0.381-2.1-0.572-2.672-0.953c-1.717-0.763-3.626-2.1-5.343-3.244
		s-3.244-2.1-4.771-2.862c-0.572-0.191-1.336-0.572-2.48-0.954c-3.436-1.336-8.587-3.244-8.969-6.487c0-0.383,0.19-0.573,0.19-0.765
		c0.191,0,0.191,0,0.382,0c3.244,0,9.159,3.626,13.549,6.106c1.717,1.146,3.243,1.908,4.389,2.48l0.572,0.191
		c5.725,2.862,11.259,5.344,17.174,6.87c4.008,0.954,8.016,1.526,12.213,1.526c3.435,0,7.251-0.382,11.641-1.145l0.572-0.191
		c3.626-0.573,7.633-1.336,10.877-3.435c0.572-0.382,1.336-0.954,2.099-1.718c1.908-1.718,4.389-4.008,5.916-4.008l0,0
		c-0.191,8.206-13.739,12.404-20.8,13.358C397.69,504.399,394.065,504.59,390.439,504.59z"/>
	<path fill="#757F92" d="M199.044,509.553c-0.572,0-0.954-0.192-1.335-0.573c-1.336-1.526-1.145-5.534-0.764-8.396
		c0-0.382,0-0.763,0-1.145c0.191,0,0.191,0.19,0.382,0.19s0.381,0,0.572-0.572c0-0.381,0-0.954-0.191-1.336c0.191,0,0.572,0,0.763,0
		s0.381,0,0.572,0c-0.191,4.389-0.191,8.206,0.382,12.022C199.235,509.553,199.235,509.553,199.044,509.553z"/>
	<path fill="#757F92" d="M199.807,545.427c-3.054-25.762-1.717-29.96-0.764-30.723c0.191,0,0.191,0,0.191,0
		c1.526,1.146,2.671,12.213,2.099,21.944C201.143,541.801,200.38,544.473,199.807,545.427L199.807,545.427z"/>
	<path fill="#757F92" d="M346.931,563.937c-1.526-0.19-3.244-1.146-4.961-2.671c-1.336-1.337-1.908-2.481-1.718-3.626
		c0.382-2.1,4.008-3.436,7.251-4.58c1.527-0.572,3.054-1.146,4.008-1.718c1.908-0.953,3.626-2.099,5.534-3.053
		c5.151-2.862,10.495-5.725,15.266-9.541c1.718-1.527,3.435-2.672,5.151-3.817l0.191-0.19v-0.19c0.19-2.672,0.381-5.343,0.764-8.015
		c0.19-0.764,0.19-1.717,0.19-2.481c0.19-3.053,0.19-5.914,2.862-6.297c0.19,0.764,0.763,1.718,0.763,1.718
		c0.383,2.29,0.191,4.962-0.19,7.633c-0.19,2.1-0.572,4.198-0.382,6.106c0.191,3.435-4.771,6.679-8.777,9.351
		c-1.146,0.763-2.1,1.335-2.862,1.908c-6.679,4.961-16.983,10.686-25.38,13.93l-0.381,0.19l0.19,0.383
		c0.954,2.29,2.099,2.48,3.243,2.862c0.573,0.19,1.337,0.381,2.1,0.953c0.382,0.19,0.382,0.382,0.382,0.382
		C350.175,563.555,348.267,563.937,346.931,563.937L346.931,563.937z"/>
	<path fill="#757F92" d="M353.8,543.9c-0.572-1.146,0-2.863,0.382-4.39v-0.19l0,0c0.383,0,0.764-0.382,0.764-0.764h0.191
		c0.763,0,1.717,0.191,1.908,0.954C357.617,540.656,355.709,542.945,353.8,543.9z"/>
	<path fill="#757F92" d="M436.045,556.494c-1.908-0.382-4.39-1.908-6.679-3.053c-1.718-0.954-3.435-1.908-4.771-2.48
		c-1.527-0.572-2.862-0.955-4.198-1.527c-3.053-1.145-5.916-2.29-8.969-3.053c-0.572-0.19-1.526-0.382-2.671-0.382
		c-2.29-0.382-5.534-0.764-6.488-1.717c-1.908-1.718-3.054-3.245-2.863-4.008c0.192-0.382,0.765-0.572,1.718-0.572h0.382
		c1.908,0,4.389,0.954,6.679,1.907c1.526,0.573,2.862,1.146,4.198,1.336c0.382,0.191,1.336,0.191,2.29,0.382
		c2.862,0.382,8.778,1.336,9.159,2.672c0.382,0.954,2.481,1.908,4.962,2.862c0.381,0.191,0.763,0.191,0.954,0.382
		c1.526,0.763,5.915,4.198,7.061,6.487C436.427,555.922,436.236,556.112,436.045,556.494z"/>
	<path fill="#757F92" d="M406.85,591.797c-0.955,0-2.29-0.191-2.672-1.146c0.382-1.145,1.717-1.335,3.053-1.526
		c0.763-0.191,1.336-0.191,1.908-0.382c2.29-0.954,3.244-1.717,3.626-2.672c0.382-1.145-0.19-2.48-1.336-4.389l-0.572-0.954
		c-0.573-1.336-1.718-2.862-2.671-4.389c-2.673-4.389-6.106-9.732-5.916-13.549v-0.19l-0.19-0.19
		c-1.527-1.909-2.29-4.198-3.054-6.488l-0.382-1.336c-0.954-3.053-1.718-3.435-3.243-4.58c-0.383-0.19-0.764-0.572-1.336-0.953
		c-0.572-0.382-0.572-1.146-0.382-1.718c0-0.191,0.19-0.572,0.763-0.572c0.191,0,0.191,0,0.382,0l0.573,0.19v-0.572
		c0-1.336,0-2.099,0.381-2.48c0.191-0.191,0.382-0.191,0.572-0.191c0.382,0,0.572,0,0.954,0.191c0.191,0,0.573,0,0.954,0.19
		c0,0.382,0.382,0.764,0.764,0.764l0,0c0.764,2.289,1.718,4.579,2.48,6.869c2.099,6.297,4.198,12.213,6.679,17.937
		c0.954,2.101,1.718,4.391,2.672,6.489c1.526,3.815,3.244,7.823,4.58,11.64c0.19,0.19,0,0.572-0.191,0.954
		C414.101,590.27,409.903,591.797,406.85,591.797z"/>
	<path fill="#757F92" d="M399.406,585.881c-0.953-1.336-1.908-4.771-2.48-7.061c-0.381-1.336-0.763-2.671-0.953-3.244
		c-0.191-0.381-0.382-0.953-0.572-1.335c-0.573-1.718-1.336-3.436-2.673-4.771c0-2.48-1.145-6.488-2.861-8.014
		c-0.955-0.764-1.718-3.054-2.29-5.344c-0.955-3.625-2.29-7.632-5.152-7.632c-0.764,0-1.526,0.19-2.481,0.763
		c-3.815,2.29-8.587,4.579-11.83,6.106c-0.764,0.381-1.718,0.572-2.862,0.763c-2.1,0.382-4.39,0.955-5.344,2.29
		c-0.572,0.764-6.106,3.626-7.633,3.816c0-0.19,0-0.381,0-0.572c0.954-3.244,13.931-9.923,18.892-12.213
		c0.954-0.381,2.099-1.145,3.244-1.908c2.48-1.526,5.533-3.243,7.442-3.243c1.526,0,2.671,0.572,4.007,1.145
		c0.572,0.381,1.146,0.572,1.908,0.764v0.19c0,0.382,0.382,0.954,0.764,0.954l0,0c0.381,4.198,2.862,9.541,5.152,14.121
		c0.763,1.525,1.335,2.671,1.908,3.815C398.072,572.333,399.598,579.965,399.406,585.881z"/>
	<path fill="#757F92" d="M440.052,573.096c-0.572,0-1.145-0.19-1.717-0.382c-0.573-0.19-1.336-0.381-2.1-0.572
		c-0.954-0.19-1.717-1.526-2.29-2.862c-0.19-0.382-0.381-0.764-0.381-0.954c-0.764-1.526-0.382-4.007-0.191-4.961
		c0.382-1.718,0.572-1.908,0.764-1.908c0,0,0.191,0,0.382,0.19c0.382,0.191,0.763,0.382,1.145,0.382
		c-0.19,0.382-0.19,0.763-0.19,0.953c0,0.383,0.381,0.573,0.572,0.573l0,0c-0.191,2.1,0,4.58,1.145,6.105
		c0.572,0.573,1.146,0.955,2.1,0.955c0.382,0,0.763,0,1.336-0.19c1.526-0.572,3.435-2.481,3.435-4.008
		c0-0.572-0.382-1.526-1.908-1.908c-1.908-0.572-2.29-1.145-2.29-1.145c0-0.191,0.382-0.383,1.146-0.383
		c1.335,0,3.434,0.765,4.771,2.863c0.381,0.763,0.572,1.526,0.381,2.29c-0.381,1.718-2.29,3.435-3.626,4.389
		C441.579,572.905,440.816,573.096,440.052,573.096z"/>
	<path fill="#757F92" d="M347.313,580.729c-0.572,0-0.954,0-1.527-0.19c-2.861-1.146-6.296-4.58-6.679-7.633
		c-0.19-1.527,0.383-3.053,1.718-4.008c0.572-0.382,1.146-0.572,1.527-0.572c0.572,0,0.953,0.19,1.144,0.572
		c0.383,0.572,0.191,1.336-0.381,2.29c-1.335,1.718,0.19,4.389,1.146,5.152c0.763,0.764,1.717,1.145,2.861,1.145
		c2.29,0,4.58-2.099,4.962-4.389c0.191-2.099-1.145-3.816-3.625-4.58c0.19-0.381,0.572-0.381,0.953-0.381
		c0.955,0,1.908,1.145,3.054,2.099c0.572,0.572,0.954,0.954,1.526,1.336c-0.191,0.191-0.191,0.382-0.191,0.572
		c0,0.572,0.382,1.526,0.955,1.909C353.8,576.912,350.557,580.729,347.313,580.729z"/>
	<path fill="#757F92" d="M399.406,600.193c-2.289,0-5.342-2.481-6.869-4.008c-0.382-2.1-1.145-6.488-0.19-9.923
		c0.381,0,0.953-0.572,1.146-0.954c2.289,0.572,2.099,2.671,1.908,4.961c0,1.146-0.192,2.48,0.19,3.626
		c0.572,2.1,2.671,2.672,4.198,2.862c0.763,0.19,1.717,0.382,1.907,0.763c0.191,0.191,0.191,0.383,0,0.764
		C401.124,599.62,400.552,600.193,399.406,600.193z"/>
	<path fill="#757F92" d="M254.764,290.487v-0.191c0-0.191,0.191-0.191,0.191-0.382c1.336-1.717,4.007-4.771,5.534-5.916
		c-0.572,1.145-1.908,2.29-2.862,3.435C256.291,288.579,255.337,289.533,254.764,290.487z"/>
	<path fill="#757F92" d="M262.016,302.891c-0.955-0.381-2.099-1.526-3.054-2.48c-0.572-0.573-0.954-0.954-1.335-1.145
		c-0.955-0.763-1.908-1.717-2.863-2.481c-1.145-1.145-2.29-2.29-3.816-3.244c0.382-0.572,0.954-1.145,1.526-1.335h0.381
		c0,0,0.191,0,0.382,0c0.191,0.381,0.572,0.954,1.145,1.526c1.145,1.717,1.908,2.672,2.099,3.053
		c0.955,0.954,1.908,1.336,2.671,1.908C260.87,299.456,262.016,300.219,262.016,302.891z"/>
	<path fill="#757F92" d="M233.01,344.681c0,0,0-0.19-0.191-0.381c-0.572-3.053-1.145-5.916-1.527-8.778
		c-0.954-8.396-1.908-16.601-1.717-24.807c0-2.481-0.382-5.152-0.573-7.633c-0.381-2.481-0.763-5.152-0.763-7.633
		c0-0.572,0-1.145,0-1.908c-0.191-3.244-0.382-7.442,2.29-8.014c1.909-0.382,3.436-0.954,5.152-1.527
		c1.718-0.572,3.245-1.145,5.153-1.526c5.916-0.954,11.068-3.244,16.602-5.725c1.716-0.764,3.434-1.527,5.342-2.29
		c3.817-1.526,8.015-2.671,12.022-3.816c3.244-0.954,6.488-1.908,9.731-3.053c4.007-1.526,8.015-3.053,11.832-4.58
		c3.434-1.336,7.06-2.672,10.495-4.007c1.526-0.572,3.053-0.954,4.579-1.526c3.816-1.145,7.633-2.29,10.877-4.58h0.191
		c0.19,0,0.572-0.191,0.763-0.381c0.382,0.381,0.954,0.572,1.145,0.572c0.573,0.191,0.764,0.382,0.573,2.099
		c-0.19,3.053-0.19,6.297-0.19,9.35v2.099c0,0.763,0,1.717,0,2.671c0,3.816-0.191,8.587,1.145,11.068
		c0.954,2.099,0.954,4.58,0.764,7.061c0,1.717,0,3.435,0.19,4.961c0.19,0.763,0.19,1.335,0.382,2.099
		c0.763,3.817,1.525,8.015,0.381,11.45c0,0.191-0.19,0.381-0.19,0.381c-0.382-0.381-1.146-3.435-1.146-4.198v0.191l-0.19,0.191
		l-0.382-0.191l0.764-0.191l-0.382-1.717c-1.145-4.198-2.29-8.587-2.671-13.167c-0.954-10.304-1.146-20.8-1.337-30.913v-0.191
		l-0.19-0.191c-0.19-0.191-0.572-0.191-0.954-0.191c-1.908,0-7.06,2.48-11.64,4.58c-2.862,1.336-5.725,2.672-6.679,2.862
		c-1.718,0.191-3.816,1.336-5.915,2.29c-1.146,0.573-2.29,1.145-3.245,1.527c-3.625,1.335-7.441,2.671-11.831,4.007l-2.671,0.764
		c-6.68,2.099-12.976,4.198-19.273,7.061c-3.244,1.526-6.68,3.053-10.305,4.198c-1.908,0.573-4.198,1.146-6.297,1.527
		c-2.862,0.572-5.725,1.145-8.206,2.29h0.19c-0.763,0.191-3.816,1.908-3.816,1.908v0.191v0.191
		c-0.191,3.816,0.191,7.442,0.573,11.067c0.19,1.146,0.19,2.291,0.381,3.436c0.381,4.579,0.572,9.159,0.572,13.739
		c0.191,6.679,0.381,13.739,1.336,20.609C234.728,339.338,233.774,343.727,233.01,344.681z"/>
	<path fill="#757F92" d="M212.402,363.19L212.402,363.19c1.717,1.145,3.625,2.29,4.961,3.625c0.572,0.573,2.671,2.863,1.718,3.626
		c-0.955,0.763-3.245-1.335-3.817-1.908c-1.527-0.954-2.862-1.908-4.198-3.053c-4.198-4.007-9.541-6.679-14.312-9.923
		c-1.335-0.954-2.29-1.526-2.862-1.908c-3.053-1.908-5.343-3.435-6.679-4.771c-0.763-0.763-3.817-2.672-2.099-3.435
		c1.146-0.573,3.244,1.335,4.198,1.908c0.954,0.573,1.717,1.145,2.48,1.908c1.336,1.336,3.245,1.527,4.771,2.672
		c1.527,1.145,2.863,2.671,4.198,3.816c1.145,0.954,2.672,1.527,3.816,2.29C207.249,359.756,209.73,361.473,212.402,363.19z"/>
	<path fill="#757F92" d="M277.472,313.768c0.381-1.336,3.243-4.198,4.77-5.916c1.718-1.717,1.909-1.908,1.909-2.29
		c0.19-1.336,1.336-2.672,2.48-4.008c0.572-0.572,0.955-1.145,1.336-1.717c0.381-0.572,0.572-1.335,0.381-1.908
		c-0.381-1.526-2.29-2.29-4.198-3.244c-0.382-0.191-0.954-0.381-1.336-0.572c-1.717-0.954-2.862-1.527-4.006-1.527
		c-1.146,0-2.291,0.573-3.435,2.099c-0.191,0.191-1.908,1.718-2.099,1.718l0.572,0.19v0.382l-0.572-0.573
		c-0.572,0.573-1.146,1.335-1.718,2.099c-1.145,1.717-2.29,3.435-4.389,3.816c0.381-2.29,2.099-4.007,3.816-5.915
		c1.718-1.718,3.244-3.435,4.007-5.534v-0.382l-0.19-0.191c-0.382-0.191-0.955-0.382-1.527-0.764
		c-3.245-1.526-8.587-4.007-8.778-7.06c0.191,0,0.381,0,0.572,0c2.671,0,7.824,3.244,11.258,5.343
		c1.336,0.764,2.29,1.526,3.054,1.909c3.053,1.526,5.724,3.053,8.396,4.77c1.909,1.336,2.671,2.481,2.862,3.817
		c0,1.717-1.145,3.625-4.007,5.725c-0.572,0.381-1.335,1.335-2.29,2.671C282.624,309.76,279.572,313.768,277.472,313.768
		L277.472,313.768z"/>
	<path fill="#757F92" d="M305.141,301.173c-0.764-1.335-3.816-4.389-4.962-4.389c-0.381-1.145,1.146-2.862,2.481-4.198
		c0.572-0.572,1.145-1.335,1.526-1.908l0,0c0.19,0,0.573-0.191,0.573-0.573c1.908,0.382,4.389,3.053,5.533,4.389
		c0.19,0.382,0.382,0.764,0.19,1.336C310.103,297.929,307.24,300.41,305.141,301.173z M303.233,294.494
		c-0.19,0.191-0.381,0.573-0.381,1.336v0.191l0.19,0.191c0.572,0.381,0.954,0.954,1.145,1.717c0.382,0.763,0.764,1.336,1.336,1.908
		l0.382,0.191l0.19-0.382c0.19-0.381,0.382-0.954,0.764-1.335c0.763-1.145,1.526-2.481,1.145-3.626
		c-0.19-0.572-0.572-0.954-1.145-1.145c-0.573-0.19-0.954-0.381-1.526-0.381C304.569,293.159,303.615,293.54,303.233,294.494z"/>
	<path fill="#757F92" d="M298.08,310.142c-1.144-0.191-1.907-0.954-2.671-1.527c-0.572-0.382-1.145-0.954-1.909-1.336
		c0.764-2.29,1.909-5.915,4.389-5.915c0.191,0,0.191,0,0.382,0c2.862,0.381,4.389,2.671,4.389,4.58c0,1.335-0.764,2.48-2.29,3.053
		l0,0c0-0.382-0.382-0.954-0.954-0.954l0,0c0.19-0.954,0.763-1.908,2.29-2.48l0.572-0.191l-0.382-0.381
		c-0.763-0.954-2.29-1.718-3.816-1.718c-0.764,0-1.526,0.191-1.908,0.764c-1.527,1.717-0.382,2.862,0.572,3.816
		C297.889,308.615,298.462,309.188,298.08,310.142z"/>
	<path fill="#757F92" d="M116.418,363.954c-0.381,0-0.763,0-1.145,0c0-0.382-0.191-0.573-0.573-0.764
		c1.527-1.145,5.152-2.29,7.251-3.053c0.763-0.381,1.526-0.572,1.909-0.763c2.671-1.146,5.152-2.481,7.632-3.817
		c3.435-1.717,6.869-3.626,10.495-4.771c5.916-2.099,11.64-4.961,17.365-7.824c3.626-1.717,7.251-3.625,11.068-5.343
		c4.007-1.717,8.396-3.816,12.785-5.915c4.961-2.29,10.114-4.771,15.075-6.87c1.336-0.572,2.862-1.145,4.389-1.526
		c3.816-1.335,8.396-2.862,10.686-5.152c1.527-1.335,4.58-2.862,6.87-2.862h0.19c0,0.191,0,0.573,0.191,0.954
		c0.191,0.954,0.382,2.29-0.191,2.672h-0.19c-0.191,0-0.382,0-0.382,0c-0.381,0.19-0.572,0.19-0.763,0.381
		c-0.191,0-0.191,0.191-0.382,0.191c-0.764,0.382-1.336,0.763-2.099,1.145c-1.145,0.572-2.29,1.145-3.244,1.526
		c-0.763,0.382-1.718,0.764-2.48,1.145c-5.725,2.671-11.832,5.343-17.747,7.824c-5.343,2.29-11.067,4.771-16.411,7.251l-3.053,1.335
		c-9.542,4.58-19.654,9.16-29.196,13.358c-2.48,1.145-4.961,2.099-7.441,3.244c-1.718,0.763-3.626,1.526-5.344,2.48
		c-0.763,0.381-1.717,0.763-2.671,1.335C125.005,361.664,120.425,363.954,116.418,363.954z"/>
	<path fill="#757F92" d="M266.023,326.743c0.191-0.954,1.335-1.908,2.099-2.671c0.381-0.191,0.572-0.573,0.763-0.764
		c0.572-0.763,1.145-1.718,1.909-2.862c1.335-2.29,2.671-4.58,4.77-4.961c0,0.191,0,0.382,0.191,0.382
		c-0.572,1.717-2.099,4.389-2.671,4.771c-0.955,0.381-1.717,1.336-2.48,2.29C269.457,324.645,268.122,326.362,266.023,326.743z"/>
	<path fill="#757F92" d="M271.747,374.067c-0.572,0-0.954-0.191-1.335-0.572c-0.19-1.336,0.382-1.718,0.954-1.908
		c0.572-0.191,1.145-0.573,1.336-1.336c0.191-0.572,3.434-1.145,4.961-1.336c0.954-0.191,1.718-0.191,2.099-0.381
		c4.198-1.336,8.206-3.244,11.831-4.961c6.106-2.862,12.404-5.725,19.083-8.206l3.244-1.145c2.099-0.764,4.389-1.527,6.487-2.29
		c0.954-0.382,2.1-0.763,3.054-1.336c2.289-0.954,4.961-2.29,6.869-2.29c0.19,0,0.381,0,0.381,0
		c-0.381,0.382-1.335,0.764-1.716,0.954c-0.765,0.382-0.955,0.573-0.955,0.764c-0.382,1.335-2.671,1.717-4.579,2.099
		c-0.954,0.19-1.909,0.381-2.481,0.763c-3.816,1.908-8.968,4.198-13.166,6.106c-3.626,1.718-7.061,3.435-10.876,5.343l-3.053,1.527
		c-4.771,2.29-8.777,3.435-13.358,4.961l-2.29,0.764c-0.572,0.19-1.145,0.573-1.908,0.954
		C274.801,373.113,273.083,374.067,271.747,374.067z"/>
	<path fill="#757F92" d="M191.793,431.314c-2.48,0-8.778-5.533-11.449-8.396c-4.389-4.58-10.305-8.396-16.029-12.212
		c-2.862-1.908-5.343-3.625-7.823-5.343c-5.916-4.389-11.641-8.969-16.983-13.548c-2.099-1.717-4.198-3.435-6.297-5.152
		l-1.908-1.527c-3.244-2.671-6.488-5.343-10.114-7.823c-2.48-1.717-5.343-3.244-7.823-4.58c-2.29-1.145-4.58-2.481-6.679-3.817
		l-0.382-0.191l-0.191,0.382c-0.381,0.763-0.19,2.099-0.19,3.244c0.19,2.48,0.19,4.007-1.527,4.389
		c-1.145-3.053-2.671-10.305-1.145-12.595c0.381-0.381,0.763-0.763,1.336-0.763c0.381,0,0.763,0.191,0.954,0.382
		c0.191,0.191,0.191,0.763,0,1.335l-0.19,0.572h0.572c1.336,0,2.29,0.382,3.244,0.955c2.29,1.335,4.58,2.862,7.251,4.007
		c1.718,0.763,3.245,2.099,4.961,3.435c1.717,1.335,3.435,2.672,4.962,3.435c5.915,2.672,11.258,7.633,16.219,12.404
		c3.054,2.862,6.106,5.725,9.159,8.014c4.198,3.244,8.779,6.489,13.167,9.732c3.053,2.29,6.297,4.58,9.35,6.87
		c0.954,0.573,1.718,1.146,2.671,1.718c0.955,0.572,2.099,1.145,3.054,1.908l0.381,0.191c3.053,2.48,11.068,8.778,11.449,12.594
		C192.174,431.314,191.984,431.314,191.793,431.314z"/>
	<path fill="#757F92" d="M217.363,544.282c-1.527-8.206-1.336-16.603-1.146-24.998c0-2.1,0-4.39-0.19-6.87
		c-0.191-6.487-0.572-12.976,1.717-18.319h0.191c0.191,0,0.191,0,0.381-0.19c0.382,0.764,0.955,1.526,1.527,2.29
		c-0.19,2.862-0.572,6.106-0.763,9.16c-0.382,5.151-0.382,10.304-0.572,14.692l-0.192,3.626
		C218.126,530.542,217.935,537.412,217.363,544.282z"/>
</g>
</svg>
