<?xml version="1.0" encoding="utf-8"?>
<!-- Generator: Adobe Illustrator 16.0.0, SVG Export Plug-In . SVG Version: 6.00 Build 0)  -->
<!DOCTYPE svg PUBLIC "-//W3C//DTD SVG 1.1//EN" "http://www.w3.org/Graphics/SVG/1.1/DTD/svg11.dtd">
<svg version="1.1" id="Layer_1" xmlns="http://www.w3.org/2000/svg" xmlns:xlink="http://www.w3.org/1999/xlink" x="0px" y="0px"
	 width="340px" height="350px" viewBox="132.14 340.445 340 350" enable-background="new 132.14 340.445 340 350"
	 xml:space="preserve">
<g>
	<g>
		<path fill="#CFCECD" d="M336.431,419.232c-16.763-0.91-50.419-18.322-65.233-6.497c-7.147,5.587-12.475,15.983-16.243,24.04
			c-8.187,17.283-12.215,36.515-23.13,52.368c-13.644,19.883-17.803,43.792-26.769,65.754
			c-4.289,10.785-12.345,19.102-10.136,29.887c1.43,6.888,6.107,18.453,12.345,22.351c6.756,4.159,26.119,3.379,35.085,4.549
			c18.712,2.469,40.803,8.706,56.786-4.418c18.452-15.204,20.532-37.295,30.277-57.566c6.887-14.295,17.022-27.809,23-42.492
			c7.928-19.622,23.262-36.776,26.379-58.216c1.56-10.526-0.259-20.013-9.097-26.38
			C358.911,414.684,348.516,419.881,336.431,419.232z"/>
		<path fill="#FFFFFF" d="M322.527,441.062c-17.543-3.638-52.238-15.853-60.036,7.928c-4.808,14.943-16.373,26.639-24.689,40.022
			c-13.515,21.831-26.51,49.12-32.746,73.81c7.796-3.378,28.068,2.859,36.904,4.028c13.254,1.689,26.769,6.367,39.633,7.798
			c19.622,2.079,30.668-41.453,35.345-56.526c4.679-15.204,12.996-28.979,20.402-42.624c3.118-5.587,10.785-19.621,10.785-26.248
			C348.125,437.034,331.752,443.012,322.527,441.062z"/>
		<path fill="#A4D2EB" d="M295.367,460.425c2.08-5.197,8.577-15.853-1.039-14.813c-4.938,0.52-10.785,4.158-14.684,7.017
			c-6.107,4.548-11.436,10.525-13.905,17.933c-0.649,1.949-3.378,7.538-2.598,9.876c2.338,6.237,21.311-0.13,25.08-2.599
			C293.808,474.069,292.899,466.402,295.367,460.425z"/>
		<path fill="#A6D2A8" d="M301.735,532.805c3.379-5.717-26.119-2.857-27.289-2.857c-9.875-0.78-17.543-9.229-28.068-8.058
			c-7.796,0.779-20.661,14.944-18.322,23.391c1.559,5.457,21.44,10.524,26.898,12.214c8.706,2.729,25.86,8.316,33.656,2.34
			C295.367,554.507,297.317,540.342,301.735,532.805z"/>
		<path fill="#EA9B95" d="M314.6,499.278c-8.317,9.227-31.187,6.238-37.034-5.067c-3.379-6.627-1.95-7.017,4.678-8.188
			C286.401,485.244,317.718,495.77,314.6,499.278z"/>
		<path fill="#A6D2A8" d="M326.814,472.771c3.769-5.459-6.496-23.391-12.733-24.171c-10.396-1.169-12.605,19.622-14.164,26.379
			C305.894,474.199,323.306,477.969,326.814,472.771z"/>
		<path fill="#F4F5C4" d="M302.513,479.916c3.25,9.227,18.974,14.295,26.9,8.446c9.616-7.017,2.729-14.554-6.887-13.773
			C315.769,475.109,307.972,475.759,302.513,479.916z"/>
		<path fill="#757F92" d="M372.296,425.989c-3.509-3.639-4.679-8.577-10.266-10.136c-3.119-0.78-6.498-0.52-9.227-0.91
			c-1.17-0.26-6.108-0.779-6.237-1.169c-0.391-0.909-6.367-0.52-6.627-0.909c-0.781-1.95-14.685-1.95-17.284-2.469
			c-10.655-1.949-21.311-2.729-31.706-2.599c-1.43,0-10.136-0.52-6.368-3.119c3.249,0.78,8.316-0.13,11.306-0.649
			c1.299-0.26,3.767,0.52,5.196,0.649c2.6,0.13,4.938,0.26,7.537,0.52c1.689,0.13,13.774,2.339,14.555,1.559
			c0,0,9.097,1.56,8.967,1.43c0.389,0.78,15.333,2.339,17.412,2.599c5.068,0.65,11.306,0.909,15.984,2.859
			c2.728,1.169,4.807,3.378,6.496,5.718c1.04,1.56,1.949,3.508,1.949,5.457C373.855,425.08,372.166,425.599,372.296,425.989
			C370.607,424.17,372.035,425.34,372.296,425.989z"/>
		<path fill="#757F92" d="M316.549,446.78c-2.339,1.689-6.367-1.559-8.577-2.208c-2.858-0.78-5.978-1.301-8.706-1.431
			c-5.198-0.259-10.136,0.391-14.814,2.6c-10.136,4.808-18.322,12.864-20.142,22.87c-0.779,4.418-2.209,8.966-1.039,13.774
			c1.819,7.667,8.836,15.073,15.073,19.362c11.436,7.797,28.587,5.588,38.333-3.509c4.938-4.548,12.215-12.475,12.085-19.752
			c0-3.119,1.689-6.107,0.26-9.227c-0.39-0.909-0.908-1.949,0-2.729c1.82,0.131,2.859,2.988,3.769,4.158
			c-0.909,2.858-0.26,6.366-0.779,8.576c-1.169,4.289-4.028,9.876-6.757,14.035c-3.379,5.197-9.227,10.136-14.944,12.733
			c-3.898,1.82-8.057,2.859-12.345,3.379c-3.248,0.391-7.537-1.299-10.395-0.389c-1.819,0.52-4.548-1.689-6.498-1.951
			c-1.949-0.259-3.638-1.429-5.198-2.728c-5.717-4.809-10.655-9.227-13.903-16.113c-8.057-17.413,2.989-37.035,19.361-45.092
			c5.198-2.598,11.436-3.768,17.152-3.898C301.605,439.374,317.458,441.842,316.549,446.78
			C314.73,448.21,316.938,444.701,316.549,446.78z"/>
		<path fill="#757F92" d="M328.763,456.397c-0.389,1.688,0.26,7.795-2.729,2.988c-2.209-3.379-5.328-6.107-8.446-8.837
			c0.778-2.339,1.429-2.988,4.158-1.039C324.475,451.589,326.164,454.577,328.763,456.397
			C328.503,457.696,327.464,455.487,328.763,456.397z"/>
		<path fill="#757F92" d="M328.893,441.974c3.38-2.341,10.006,0.909,13.774,0.778c3.379-0.13,10.656,0.52,13.256,2.859
			c2.078-2.729,1.948-6.368,4.547-8.707c2.34,4.809-3.247,13.385-5.197,17.543c-2.469,5.328-4.938,10.396-7.017,15.853
			c-2.08,5.459-5.718,10.916-7.407,16.504c-0.26,0.909-2.729,4.679-2.339,4.938c0.259,0.261-3.898,8.577-4.419,9.356
			c-4.287,6.628-8.187,15.854-11.564,23.65c-4.938,11.436-11.047,22.48-15.203,34.176c-1.561,4.289-4.289,8.706-6.108,12.994
			c-0.649,1.43-0.91,3.77-1.689,4.939c-0.649,1.039-0.649,2.338-1.56,3.378c-1.299,1.689-3.378,0.521-3.118-1.431
			c0.39-2.208,2.339-4.677,3.118-6.756c0.91-2.339,1.82-4.938,2.989-7.017c3.509-5.849,5.847-12.865,8.316-19.103
			c4.809-11.954,10.785-23.391,16.244-35.215c4.548-9.877,9.875-18.713,14.033-28.848c4.808-11.697,10.524-23.262,15.854-34.827
			c-3.769-0.648-8.188-2.078-11.565-2.078C340.458,445.222,331.103,444.962,328.893,441.974
			C329.154,441.842,329.154,442.363,328.893,441.974z"/>
		<path fill="#757F92" d="M302.905,524.099c-1.17,2.729-10.006-0.13-12.475-0.39c-4.808-0.39-9.615-1.17-14.424-1.819
			c-5.978-0.78-11.956-1.56-17.933-2.859c-5.067-1.17-10.395-0.649-15.203-2.209c-3.119-0.909-3.249,1.689-4.548,4.678
			c-1.04,2.6-2.729,5.328-3.509,8.058c-0.649,2.209-2.079,3.769-2.988,6.107c-1.17,2.988-2.599,5.977-4.289,8.836
			c-0.39,0.649-2.079,4.679-3.119,4.288c-1.299-0.26-0.389-2.599-0.129-3.249c1.819-4.938,5.328-9.616,7.407-14.554
			c0.649-1.559,7.407-18.192,8.836-17.282c1.949,1.3,3.768,1.039,6.237,1.3c2.209,0.129,6.367,1.43,8.446,0.909
			c0.91-0.261,3.379,0.649,4.418,0.909c6.367,1.56,14.554,2.6,21.441,2.989c4.938,0.259,10.266,1.299,15.333,2.079
			C298.096,521.89,301.865,522.279,302.905,524.099C302.384,525.268,301.994,522.539,302.905,524.099z"/>
		<path fill="#757F92" d="M371.647,431.058c1.169-0.521,1.169,4.678,0.908,5.717c-0.778,4.159-3.378,8.707-5.067,12.735
			c-2.21,5.198-4.938,10.005-7.146,15.202c-1.95,4.42-3.64,11.176-6.628,14.944c-1.56,1.819-2.729,5.328-3.508,7.668
			c-0.911,2.858-2.47,5.718-3.639,8.445c-0.909,2.21-2.339,6.628-4.419,7.928c-3.118,1.948-0.52-6.498-0.39-7.147
			c0-0.131,2.079-3.768,2.47-4.678c1.17-2.989,2.987-5.719,4.288-8.707c2.469-5.588,5.067-11.045,7.537-16.633
			c3.378-7.537,6.887-15.074,10.266-22.61c1.299-2.988,3.508-6.628,3.377-10.006C369.696,433.396,371.256,430.537,371.647,431.058
			C373.205,430.407,371.516,430.927,371.647,431.058z"/>
		<path fill="#757F92" d="M290.56,559.964c2.079-2.989,3.638-6.238,4.807-9.615c-1.429-1.3-1.688,1.299-1.559-2.341
			c0.129-2.469-0.129-4.938-0.91-7.406c-2.208,1.299-5.068,2.209-7.017,3.639c-3.638,2.599-2.729-1.949-3.638-4.288
			c-3.769,0.649-6.498,4.419-10.526,4.679c-1.819,0.129-1.04-8.317-1.689-10.655c-4.158,2.208-6.107,6.107-9.746,8.966
			c-1.689,1.299-3.379,2.598-5.328,3.508c-1.43-1.689-1.04-3.379-1.56-5.328c-2.208,1.689-4.807,2.47-7.017,4.028
			c-1.169,0.78-2.079,1.819-3.379,2.34c-1.559-1.3-1.559-3.898-2.208-5.589c-3.249,0.649-7.146,4.938-9.616,7.148
			c-2.209,1.948-1.949-1.69-0.65-2.859c2.08-1.818,4.548-3.379,6.887-4.938c2.339-1.43,4.418-5.979,5.848-1.3
			c0.52,1.688-0.13,5.067,2.599,3.639c3.508-1.69,6.367-4.289,9.875-6.238c1.43,1.69-0.52,3.379,0.52,5.068
			c4.028-1.819,6.627-5.587,10.005-8.445c0.65-0.65,7.537-7.798,7.407-4.419c0,0.391-0.39,1.818-0.39,2.468
			c-0.521,2.989,0,5.979,0,9.228c4.678,0.779,6.887-5.329,10.785-5.719c2.729,0.65-1.949,7.927,3.899,5.068
			c2.209-1.039,6.107-5.458,7.927-2.729c-0.39,3.119,0.389,7.018,0.13,10.525c2.209-6.106,4.548-12.604,7.537-18.321
			c0.648-1.299,2.339-5.328,4.417-4.678c0.91,1.948-1.17,4.938-1.949,6.496c-2.859,6.628-5.198,13.386-7.927,20.013
			c-0.909,2.209-4.547,12.345-7.406,10.266c-1.04-0.78-4.679-0.26-5.978-0.52c-1.819-0.261-4.158-1.169-5.717-1.56
			c-6.627-1.299-14.814-1.43-21.961-3.638c-9.746-2.99-20.271-1.82-30.148-4.419c-4.678-1.17-1.689-4.159,1.17-2.858
			c3.118,1.429,8.446,1.429,11.825,2.078c4.288,0.78,7.926,1.3,12.345,2.08c5.068,0.909,9.876,1.56,14.814,2.209
			c3.769,0.52,7.537,0.779,11.175,1.299c1.43,0.261,2.989,1.43,4.678,1.689C285.232,559.054,288.87,558.664,290.56,559.964
			C292.769,556.975,290.04,559.574,290.56,559.964z"/>
		<path fill="#757F92" d="M189.462,596.868c0.779,0.91,0.649,2.729,1.039,3.898c0.78,1.949,1.56,4.028,2.859,5.848
			c1.43,1.819,3.249,2.08,4.289,4.028c1.169,2.208-1.17,2.208-2.6,1.82c-3.378-1.04-5.458-5.068-7.147-8.058
			C187.253,603.106,185.563,593.879,189.462,596.868C190.371,597.908,188.812,596.35,189.462,596.868z"/>
		<path fill="#757F92" d="M249.626,595.959c-1.559-1.039-0.519-5.198-0.519-6.888c0.129-3.117-1.43-6.367-4.029-8.056
			c-2.729-1.82-5.847-1.69-8.706-0.13c-1.43,0.778-2.728,1.688-3.119,3.378c-0.13,0.78,0.65,0.78,0,1.56
			c-1.949,1.819,1.299,6.367,2.469,7.667c1.949,2.339,6.367,1.169,7.667,2.859c2.989-2.34,5.199-0.131,1.17,1.559
			c-1.43,0.52-4.028,0.39-5.458,0.13c-7.667-0.909-13.384-13.904-5.328-19.233c4.938-3.247,10.916-2.728,15.204,1.301
			c1.3,1.17,2.729,5.978,3.769,6.497C251.447,589.201,253.005,594.789,249.626,595.959
			C248.067,594.92,251.186,595.439,249.626,595.959z"/>
		<path fill="#757F92" d="M339.549,509.285c2.599,1.949-3.249,11.434-4.158,13.384c-2.469,5.589-5.068,11.046-7.797,16.504
			c-1.43,2.728-10.266,23-10.656,22.87c-0.779-0.26-10.784,20.661-11.824,22.48c-3.639,7.407-7.018,18.842-15.853,21.832
			c-14.424,4.938-31.317,0-46.131-1.95c-5.588-0.78-10.525-1.299-16.763-2.339c-3.379-0.649-13.125-0.909-15.075-4.808
			c7.927-1.17,17.153,1.299,24.95,2.858c5.588,1.17,12.605,1.819,17.803,2.209c2.858,0.26,14.944,4.029,16.763,2.34
			c0,0,4.159,0.519,4.678,0.648c1.949,0.13,3.769,0.261,5.717,0.391c2.729,0.259,2.729-1.039,5.067-1.56
			c3.25-0.78,7.018-4.289,8.837-7.017c1.559-2.209,2.209-8.447,4.809-9.617c0.389-0.259,1.559-3.768,2.078-4.808
			c1.561-2.988,3.249-6.237,4.938-9.226c7.798-14.164,13.774-29.628,20.793-43.922c1.168-2.34,2.988-6.108,4.418-8.968
			C333.052,519.03,336.691,507.336,339.549,509.285C340.848,510.324,338.899,508.895,339.549,509.285z"/>
		<path fill="#757F92" d="M203.755,611.942c2.08-1.43,5.718,1.689,8.058,1.17c2.468-0.391,6.886,1.168,9.745,1.429
			c6.628,0.78,13.254,1.43,19.882,2.729c8.057,1.561,15.854,2.469,23.65,3.379c4.028,0.52,8.187,0.78,12.345,1.04
			c3.638,0.26,10.656,0.26,13.125,3.379c-1.819,2.599-8.447,0.519-10.916,0.259c-3.899-0.39-7.537-0.649-11.436-1.039
			c-7.017-0.649-13.904-1.3-21.051-2.599c-8.057-1.43-16.244-2.47-24.3-3.769C217.66,617.4,205.055,618.049,203.755,611.942
			C204.015,611.812,204.535,615.58,203.755,611.942z"/>
		<path fill="#757F92" d="M278.865,406.107c-1.949,2.339-5.198,1.039-7.147,3.378c-1.819,2.209-4.158,4.419-5.458,7.018
			c-0.91,1.69-4.677,7.277-4.418,8.577c0,0.13-1.17,2.078-1.429,2.729c-1.299,2.858-2.859,5.328-4.158,8.316
			c-1.819,4.028-2.989,10.655-5.978,13.773c-2.599,2.729-2.47,7.798-5.328,10.786c-2.209,2.339-3.898,7.797-5.458,11.046
			c-4.028,8.576-7.797,17.672-12.215,25.729c-1.819,3.379-4.289,8.317-5.068,12.216c-0.52,2.729-2.209,5.457-3.379,7.927
			c-1.169,2.468-2.079,7.276-4.158,8.966c-1.299,1.17-1.04,3.509-1.819,4.938c-1.43,2.729-2.599,5.458-3.898,8.187
			c-1.169,2.47-2.209,5.198-3.898,7.277c-0.13,2.34-2.08,5.978-3.379,7.928c-2.859,4.287-4.158,9.615-6.368,14.294
			c-1.688,3.508-3.378,6.757-4.808,10.655c-0.779,2.209-2.859,9.096-0.13,10.265c2.339,1.041,4.938,0.911,7.018,2.21
			c2.339-0.39,4.418-1.299,5.718,1.559c-1.689,0.91-5.069,1.43-6.498,1.43c-0.649,0-3.119-1.169-3.378-0.909
			c0,0-4.029-1.17-4.418-1.3c-4.029-1.948-3.119-3.378-2.859-7.276c0.13-1.689,0.91-7.019,2.21-8.316
			c0.129-0.131,1.039-2.209,1.039-2.209c-0.52-1.56,3.119-5.848,3.509-7.407c0.52-2.209,1.559-4.548,2.728-6.498
			c0.78-1.299,3.64-6.107,3.12-7.536c3.248-4.678,5.847-10.136,7.666-15.594c1.17-3.379,2.859-5.978,4.159-8.966
			c2.599-5.978,5.457-11.825,7.927-17.804c7.796-19.102,16.893-37.944,25.859-56.656c4.549-9.486,9.226-20.401,13.774-28.978
			c1.819-3.509,4.158-6.758,5.848-10.396c0.52-1.169,3.639-4.548,3.509-5.328C266.78,406.757,276.915,403.119,278.865,406.107
			C277.566,407.796,277.435,403.898,278.865,406.107z"/>
		<path fill="#757F92" d="M296.147,481.867c6.887,3.247,14.164,7.016,20.921,11.305c-0.779,3.378-24.3-8.967-25.859-11.176
			c-3.898,0.39-7.537,2.599-11.435,2.209c-3.119-0.261-11.825,4.678-13.774,0.521c6.887-3.64,15.984-2.34,23.261-5.459
			c3.768,2.601,6.627-10.006,7.536-12.474c1.82-4.938,3.379-10.007,5.717-14.814c0.521-1.039,1.042-3.379,1.821-4.158
			c1.688-1.819,3.508-1.429,2.858,1.299c-1.17,4.809-4.288,9.227-5.848,13.904c-1.04,3.25-2.729,6.888-3.508,10.396
			c-0.39,1.429-1.041,4.938-2.47,5.977c1.429,0.52,3.899,0.131,5.458,0.26c2.21,0.13,5.198,0.39,7.407,0
			c2.6-0.39,5.718,0,8.446,0.13c0.91,0,6.237-0.52,5.849-0.259c-0.52,0-0.78,0.259-0.91,0.649c1.299,0.909,3.119-1.43,4.158,0.52
			c-2.989,3.119-9.485,1.04-12.345,0.909c-2.079,0-4.158,0.649-6.368,0.391C304.594,481.867,298.096,480.565,296.147,481.867
			C297.707,482.646,296.407,481.736,296.147,481.867z"/>
		<path fill="#757F92" d="M358.001,435.864c-1.559,2.859-17.673-0.52-20.791-0.779c-9.877-0.779-19.882-2.599-29.758-3.897
			c-7.927-1.17-16.243-3.119-24.3-3.379c-0.779,0-9.096-0.78-9.356-1.3c0-0.13-2.729-1.039-2.858-1.039
			c-1.3,1.949-1.82,4.288-2.209,6.627c3.508,0.779,7.276,0.909,10.915,1.56c0.52,0.13,4.548,0.649,4.808,0.26
			c0.65,1.169-13.514,0.26-14.813,0.26c-1.949,0-2.079,1.819-2.859,3.897c-1.56,4.029-3.638,7.148-5.718,10.917
			c-2.599,4.548-3.769,11.175-7.407,15.072c-1.039,1.17-1.949,2.989-2.339,4.159c-1.56,3.769-3.509,7.276-5.068,11.045
			c-7.147,17.283-14.554,35.086-23.52,52.108c-5.328,10.137-10.915,20.272-14.424,31.058c-1.429,4.158,2.08,3.119,5.328,3.899
			c7.667,1.948,15.854,2.338,23.65,3.897c8.707,1.56,17.023,2.469,25.73,4.288c5.328,1.17,10.395,1.43,15.723,2.34
			c3.249,0.519,6.757,2.078,10.006,1.947c4.158-0.259,2.08,3.25-1.819,2.601c-23.39-4.418-46.911-8.188-70.041-11.305
			c-2.599-0.391-13.385-0.391-12.994-4.29c0.129-1.429,1.559-3.768,2.208-5.197c0.78-1.818,1.3-4.157,2.079-6.106
			c1.43-3.25,2.339-6.109,4.288-9.747c3.509-6.497,7.537-13.644,10.136-20.401c2.339-6.236,5.847-12.086,8.576-18.062
			c2.859-6.237,5.068-12.604,7.667-18.842c2.08-4.809,4.029-10.136,6.237-14.554c3.379-7.278,7.927-13.905,11.046-21.312
			c1.169-2.859,2.469-4.678,4.029-7.277c1.169-1.819,1.819-5.717,3.249-7.018c3.378-2.858,2.599-8.966,4.548-12.214
			c2.209-3.639,11.695-0.91,15.464-0.131c5.067,0.91,10.005,1.56,14.423,2.079c13.774,1.43,27.289,4.029,41.062,5.198
			C342.018,432.097,356.701,431.707,358.001,435.864C356.831,437.944,357.223,433.525,358.001,435.864z"/>
		<path fill="#757F92" d="M377.494,426.639c2.728-1.819,3.507,1.949,4.548,3.769c1.039,1.689,4.288,7.147,3.768,8.967
			c-0.261,0.909,0.781,3.509-0.39,4.028c-1.688,0.779-2.988,8.966-3.508,10.915c-1.04,4.808-5.329,9.356-5.978,14.294
			c-1.041,7.667-6.498,16.114-9.746,23.001c-4.938,10.525-8.966,21.052-13.255,31.707c-0.909,2.209-1.818,5.198-3.119,6.757
			c-1.689,2.079-1.299,5.588-2.858,7.536c-1.039,1.17-0.65,2.6-1.299,3.899c-0.131,0.26-2.34,3.769-2.471,3.769
			c-0.129,0-1.817,2.598-1.817,2.858c0,1.818-1.561,4.548-2.34,6.758c-2.729,6.757-5.718,13.644-8.837,20.141
			c-2.078,4.158-3.769,8.837-5.587,12.994c-2.599,6.108-5.978,12.216-9.356,18.193c-2.6,4.678-5.458,9.616-9.227,13.774
			c-2.6,2.988-5.848,4.028-9.356,5.458c-4.938,2.078-3.249-2.079-0.26-3.769c11.695-6.628,15.073-17.022,21.311-28.198
			c4.678-8.187,6.888-17.803,11.305-25.99c3.38-6.237,7.018-13.514,9.227-20.402c1.69-5.066,4.938-9.614,6.758-14.812
			c2.599-7.537,6.368-14.034,9.096-21.312c2.99-7.666,5.979-14.943,9.616-22.351c3.639-7.407,8.836-16.764,10.266-24.949
			c0.65-3.639,5.588-8.057,4.808-11.955c-0.519-2.209,3.12-8.577,3.899-11.175C381.781,438.595,376.323,428.328,377.494,426.639
			C377.753,426.509,377.104,427.158,377.494,426.639z"/>
	</g>
	<path fill="#E8EBEE" d="M407.121,537.612c-1.95-2.079-4.808-2.987-7.666-3.768c-15.724-4.418-31.968-6.628-48.211-6.628
		l-0.129,0.13c-1.69,2.08-1.301,5.588-2.859,7.537c-1.041,1.17-0.65,2.6-1.3,3.898c-0.129,0.261-2.34,3.768-2.469,3.768
		c-0.131,0-1.82,2.6-1.82,2.859c0,1.819-1.559,4.548-2.339,6.758c-2.729,6.757-5.717,13.644-8.836,20.142
		c-2.079,4.158-3.768,8.836-5.588,12.995c-2.599,6.107-5.978,12.215-9.355,18.192c-2.6,4.678-5.458,9.616-9.226,13.773
		c-1.17,1.3-2.34,2.209-3.769,2.989c3.638,1.43,7.146,2.729,11.305,2.209c8.836-1.17,14.944-8.576,21.051-14.294
		c20.921-19.492,51.069-28.458,68.481-51.199C408.811,551.257,412.059,542.681,407.121,537.612z"/>
</g>
</svg>
