<?xml version="1.0" encoding="utf-8"?>
<!-- Generator: Adobe Illustrator 16.0.0, SVG Export Plug-In . SVG Version: 6.00 Build 0)  -->
<!DOCTYPE svg PUBLIC "-//W3C//DTD SVG 1.1//EN" "http://www.w3.org/Graphics/SVG/1.1/DTD/svg11.dtd">
<svg version="1.1" id="Layer_1" xmlns="http://www.w3.org/2000/svg" xmlns:xlink="http://www.w3.org/1999/xlink" x="0px" y="0px"
	 width="408px" height="353px" viewBox="0 0 408 353" enable-background="new 0 0 408 353" xml:space="preserve">
<g>
	<path fill="#E8EBEE" d="M269.057,265.675c18.251,2.981,39.41,5.354,53.252-6.944c6.781-6.015,10.601-14.592,14.132-22.767
		c3.095-7.219,6.324-14.435,9.413-21.516c1.617-3.677,3.121-8.321,0.311-11.292c-1.607-1.697-4.213-2.184-6.69-2.39
		c-42.453-4.749-85.312,0.138-127.614,4.898c-15.759,1.772-31.52,3.545-47.279,5.316c-9.263,0.986-18.943,2.234-26.402,7.818
		c-3.094,2.258-5.657,5.222-8.08,8.185c-8.543,9.964-17.089,20.067-25.634,30.032c-0.998,1.211-2.007,2.839-1.214,4.101
		c0.398,0.562,1.079,0.854,1.76,1.152c6.951,2.806,14.041,5.619,21.604,6.242c8.935,0.798,17.688-1.72,26.538-2.854
		c29.188-3.882,58.277,5.736,87.588,7.369c19.539,1.089,39.175-1.265,58.676-3.763"/>
	<path fill="#FFFFFF" d="M79.622,92.879c-6.04,39.25-0.608,77.301-2.677,117.486c-0.301,5.919-0.907,12.929-0.103,18.742
		c0.807,5.811-1.877,13.178,3.72,15.122c8.329,2.849,9.491,0.676,20.539-0.126c14.226-1.122,33.319,1.194,46.57,0.457
		c2.343-0.074,12.223,1.575,14.116,2.867c1.894,1.292-5.795,5.217-8.579,6.242c-31.91,2.707-15.026,0.136-21.689,1.886
		c-7.08,1.871-13.83,6.785-15.268,13.913c-0.161,0.822-0.183,1.649,0.211,2.349c0.532,0.702,1.492,0.867,2.319,0.89
		c7.559,0.758,14.985,1.376,22.544,2.136c34.364,3.287,65.22-1.239,99.738,1.499c4.949,0.413,11.016,0.305,16.249,0.448
		c4.958,0.135,8.262,0.228,13.145-1.846c7.253-3.107-2.182-15.906-9.105-19.683c-6.925-3.773-15.184-4.135-23.009-5.316
		c-1.786-0.187-4.104-1.076-4.054-2.867c-0.084-2.07,2.694-2.822,4.759-2.764c17.513-0.347,35.029-0.829,52.542-1.175
		c8.136-0.19,16.832-0.64,23.173-5.701c6.906-5.602,8.689-15.335,9.074-24.286c1.172-22.567-2.889-45.284-12.108-65.932
		c-2.2-5.161-4.812-10.469-3.833-15.955c-2.109,6.559,2.675,13.028,6.093,19.049c3.944,6.862,6.064,15.051,5.02,22.879
		c-0.121-25.639-0.382-51.28-0.507-76.78c-0.035-3.722-0.066-7.582-1.766-10.936c-4.188-8.108-15.334-8.691-24.442-8.252
		c-46.642,2.164-93.812,3.485-140.463,0.963c-15.137-0.83-30.592-0.151-45.651,1.226c-6.353,0.513-15.962-0.853-21.96,1.74
		C79.199,83.222,80.314,87.799,79.622,92.879z"/>
	<path fill="#CFCECD" d="M306.369,226.87c0.969-0.112,1.938-0.222,2.641-0.755c0.707-0.532,1.145-1.483,1.304-2.307
		c1.526-5.332,0.3-10.879-0.655-16.281c-1.191-6.784-2.104-13.7-2.464-20.602c-0.086-1.933-0.167-4.001,0.708-5.768
		c2.038-3.941,7.556-4.066,11.955-3.668c0.604,18.069-5.81,35.811-4.653,53.895c0.204,2.624,0.403,5.386-1.03,7.414
		c-1.007,1.488-2.827,2.542-4.633,3.043c-3.056,0.882-6.227,0.93-9.394,0.843c-8.682-0.099-17.225-0.197-25.907-0.159
		c-1.378-0.038,1.195-8.374,1.772-9.324c1.595-2.85,2.85-3.366,5.758-3.839C289.941,227.935,298.353,227.752,306.369,226.87z"/>
	<path fill="#CFCECD" d="M318.981,99.045c-1.361-5.689,0.876-11.829-4.962-15.02c-5.972-3.334-21.476-0.867-28.224-1.052
		c-25.201-0.693-50.526-1.941-75.722-2.908c-23.265-0.915-46.479,1.204-69.78,1.665c-13.24,0.325-28.459,2.524-40.846,6.871
		c-16.841,6.015-15.498,12.253-15.956,28.917c-0.753,27.405-4.256,54.596-5.005,81.864c-0.269,9.777-2.628,30.386,4.757,37.48
		c6.578,6.384,31.703,4.867,41.312,6.236c9.471,1.361,18.948,2.587,28.575,3.265c3.165,0.225,12.932,0.905,12.813,5.177
		c-0.323,6.742-28.309,7.076-33.049,9.013l0.049-1.79c-2.717,3.647-5.532,5.774-4.705,10.758c31.194,3.34,63.417-0.735,94.708-0.979
		c5.101,0.004,33.649,4.233,33.065-4.604c-0.569-9.387-12.274-4.746-17.302-7.368c-6.383-3.343-6.104-8.572,0.698-10.313
		c6.383-1.617,14.211-0.577,20.828-0.669c10.75,0.021,25.662-0.948,23.171-15.627c-14.438-1.224-29.543,1.807-44.277,1.401
		c-20.383-0.561-39.9-2.476-59.831-4.399c-27.903-2.697-56.82-3.629-84.615-5.222c-0.481-12.553,3.268-23.615,3.596-35.595
		c0.234-13.5-0.226-26.882,0.145-40.377c0.281-10.192-1.325-32.011,5.811-40.911c3.422-4.178,9.903-4.276,14.593-4.424
		c10.761-0.393,21.376-0.514,32.136-0.907c37.661-1.309,74.51-3.189,112.336-0.496c7.704,0.488,29.312-3.468,35.525,1.115
		c7.028,5.017,4.268,20.239,4.067,27.538c-0.542,19.692-2.034,38.945,2.27,57.81c15.882,3.743,14.137-17.943,14.401-27.582
		C319.828,138.346,323.297,117.494,318.981,99.045z"/>
	<path fill="#757F92" d="M318.001,84.548c2.839,6.969,0.521,16.138,0.731,23.448c0.064,7.721,0.131,15.302,0.473,23.03
		c0.463,8.143,0.235,16.406,0.15,24.535c0.027,3.998-0.083,7.991-0.192,11.985c-0.071,2.616,0.64,6.908-2.028,8.626
		c-1.323-1.966-0.649-6.494-0.583-8.836c-0.089-1.793-0.808-5.811-0.07-7.444c0.729-1.496-0.109-6.067,0.077-7.854
		c0.26-4.403-0.029-8.959-0.185-13.373c-0.321-8.278-0.505-16.69-0.552-24.96c-0.029-3.998-0.198-7.861-0.226-11.86
		c-0.017-4.409,1.213-9.061,0.646-13.487c-0.586-3.737-7.233-2.543-10.272-2.349c-4.002,0.166-7.852-0.078-11.983-0.192
		c-8.263-0.227-16.54,0.096-24.939-0.272c-7.437-0.205-15.006-0.55-22.442-0.754c-3.856-0.106-7.719,0.063-11.576-0.043
		c-4.408,0.016-10.035-0.827-14.064,0.302c-6.805,1.88-15.737,0.945-22.768,1.028c-1.929-0.052-14.222,0.989-14.751,0.146
		c-0.264-0.42-4.551,0.15-5.657,0.259c-3.176,0.188-6.34-0.037-9.368-0.12c-1.929-0.053-5.769-0.71-7.437-0.204
		c-1.392,0.514-8.688,0.175-8.833,0.446c0.003-0.137-7.455,0.484-8.144,0.465c-4.418,0.293-9.352-0.67-13.785,0.171
		c-2.219,0.492-4.393-0.67-6.61-0.181c-2.083,0.495-4.835,0.418-7.036,0.222c-5.508-0.152-10.879-0.299-16.541,0.095
		c-4.004,0.305-7.972-0.769-11.717,0.092c-5.412,1.367-6.282-2.103-0.743-3.051c5.401-0.956,11.171-0.245,16.545-0.235
		c7.165,0.059,14.204-0.3,21.365-0.103c23.14,0.499,47.445-1.313,71.151-1.352c20.122,0.002,39.19-1.817,59.703-0.976
		c9.361,0.395,18.308,0.778,27.398,1.028c5.507,0.151,11.015,0.303,16.523,0.454C306.031,83.806,312.114,83.145,318.001,84.548
		C319.547,88.449,315.266,83.783,318.001,84.548z"/>
	<path fill="#757F92" d="M78.636,239.077c-1.455-2.245-0.958-5.262-1.15-8.299c-0.172-3.728-0.625-7.323-0.11-11.03
		c1.015-6.864,0.111-14.053,0.576-20.932c0.613-7.288,0.133-14.879-0.216-22.194c-0.333-8.004,0.305-16.118,0.525-24.105
		c0.218-12.948,0.149-25.493,1.052-38.284c0.464-6.879-0.864-13.667-0.813-20.557c0.064-2.342,0.293-5.643,2.771-5.574
		c0.039,3.583,0.35,7.314,0.666,10.906c1.14,13.676-0.2,27.281-0.579,41.055c-0.333,12.118-0.953,24.644-0.458,36.785
		c0.492,12.14-0.272,24.938-0.751,37.329c-0.103,3.719-0.345,7.569-0.161,10.884C80.324,227.821,82.401,237.529,78.636,239.077
		C77.189,236.557,81.145,238.045,78.636,239.077z"/>
	<path fill="#757F92" d="M265.496,94.406c-0.461,1.779-2.396,2.001-3.318,0.459C260.726,92.483,264.436,92.861,265.496,94.406
		C265.337,95.229,264.97,93.563,265.496,94.406z"/>
	<path fill="#757F92" d="M309.623,188.784C303.138,189.021,313.751,183.937,309.623,188.784
		C308.793,188.899,310.333,187.976,309.623,188.784z"/>
	<path fill="#757F92" d="M230.209,260.058c-5.572,2.191-10.952-7.604-10.557-12.005c0.543-4.671,3.918,2.866,4.31,3.701
		C225.386,255.102,229.62,256.458,230.209,260.058C228.402,260.697,229.75,256.739,230.209,260.058z"/>
	<path fill="#757F92" d="M171.989,247.295c0.888,2.781-8.516,13.962-9.825,11.442c-0.264-0.419-2.655,1.307-3.729,0.313
		c0.202-2.338,2.555-2.687,4.364-3.324C165.163,254.962,169.582,244.609,171.989,247.295
		C172.495,248.963,171.591,246.73,171.989,247.295z"/>
	<path fill="#757F92" d="M254.251,252.865c0,0,2.287,1.99,2.156,1.712c1.741,1.839,3.772,3.137,5.521,4.7
		c2.426,1.995,5.131,3.86,7.415,5.991c1.211,1.136-0.492,2.881-1.857,2.429c-2.045-0.744-3.391-2.022-5.006-3.445
		c-2.826-2.421-6.44-6.379-9.693-8.26c-4.142,0.163-8.411,0.045-12.681-0.072c-2.064-0.057-4.135,0.023-6.197-0.17
		c-0.548-0.017-6.724-1.011-3.378-2.436c2.928-1.16,6.205-0.106,9.103-0.163C243.486,253.394,250.758,254.559,254.251,252.865
		C254.243,253.141,252.997,253.38,254.251,252.865z"/>
	<path fill="#757F92" d="M309.208,93.541c0.794,6.223,0.201,12.821,0.169,18.886c0.027,9.096,0.738,18.35-0.062,27.424
		c-1.315,12.78,1.335,26.635,0.283,39.837c-0.213,2.75-3.208,1.43-3.007-0.909c0.217-2.89,0.021-5.79-0.034-8.822
		c-0.096-6.48,0.365-13.359-0.279-19.854c-0.747-8.014,0.461-16.802,0.403-24.797c-0.146-9.65-0.02-19.293-0.027-29.08
		c-6.211,0.38-11.863,0.363-18.197,0.188c-3.579-0.098-7.156-0.335-10.733-0.57c-1.239-0.034-9.514,0.151-5.842-3.055
		c1.132-1.072,8.534,0.373,10.457,0.562c2.89,0.217,5.773,0.572,8.67,0.514c3.582,0.099,7.157,0.334,10.755-0.255
		C303.153,93.236,307.578,92.667,309.208,93.541C309.787,97.553,307.985,92.955,309.208,93.541z"/>
	<path fill="#757F92" d="M251.279,95.255c-12.496,3.377-26.911,1.328-39.721,1.112c-14.881-0.132-29.889-0.684-44.658,0.151
		c-7.588,0.342-15.162,0.134-22.608,0.206c-6.479,0.097-13.689,1.691-20.137,0.549c-10.279-2.073-21.405,1.616-31.991,0.637
		c-0.005,10.198,0.539,20.549-0.298,30.863c-0.856,11.14-1.867,22.828-1.076,34.15c0.679,10.354,0.117,20.813,0.105,31.287
		c-0.012,10.475,1.353,20.986,1.34,31.459c3.998-0.028,8.008-0.468,11.863-0.362c3.443,0.096,7.865-0.333,11.285,0.585
		c7.522,2.137-4.669,4.421-6.825,2.57c-0.404-0.285-6.889-0.053-7.856,0.059c-2.215,0.353-3.859,0.032-5.932,0.25
		c-0.968,0.11-4.166,1.126-4.567,0.702c-1.864-2.394-0.667-5.809-0.729-8.566c-0.266-5.382-1.512-10.238-1.226-15.605
		c0.507-8.395-0.088-16.818,0.144-25.219c0.34-12.395-0.976-24.696-0.215-37.354c0.826-15.001,0.964-30.018,1.237-45.033
		c0.13-4.683,11.112-3.14,15.109-3.167c6.205-0.105,12.13-0.081,18.335-0.185c10.616-0.123,22.205-0.631,32.26-0.355
		c14.051,0.25,28.655,0.375,42.592-0.207c11.174-0.381,22.334-0.213,33.346,0.227c2.064,0.057,3.979,0.662,6.06,0.167
		c1.521-0.234,6.521-1.613,7.872-0.611C246.198,94.564,251.373,91.812,251.279,95.255C246.834,96.511,251.352,92.639,251.279,95.255
		z"/>
	<path fill="#757F92" d="M286.369,227.562c-1.354,4.095-16.053,2.316-19.215,2.089c-5.777-0.434-12.787-1.041-18.453-0.506
		c-4.285,0.434-9.078-0.663-13.902-0.658c-8.541-0.096-17.09,0.081-25.778,0.255c-11.585,0.234-23.572,0.18-35.309,0.96
		c-15.873,0.942-31.486-2.657-47.36-1.716c-2.346,0.074-4.347-2.324-1.445-2.656c2.626-0.206,5.38-0.131,7.991,0.081
		c7.571,0.347,15.13,1.105,22.704,1.314c14.46,0.396,28.539-0.319,42.882-0.753c14.763-0.56,29.379-0.844,44.226,0.525
		c7.287,0.616,14.745-0.008,22.172,0.61c6.05,0.581,12.4,0.206,18.479-0.455C284.609,226.41,285.863,225.893,286.369,227.562
		C285.764,229.473,285.863,225.893,286.369,227.562z"/>
	<path fill="#757F92" d="M280.571,242.976c-0.317,1.506-14.652,1.664-16.431,1.064c-1.774-0.602-4.152,0.71-6.08,0.657
		c-3.994-0.11-7.861,0.199-11.854,0.088c-14.875-0.406-29.616-0.538-44.502-0.534c-6.338-0.035-12.114-0.47-18.6-0.233
		c-5.516,0.123-11.333,1.204-16.822,0.363c-6.723-1.149-14.473,0.017-21.354-0.312c-7.988-0.219-15.826-0.847-23.825-0.655
		c-7.999,0.196-16.009,0.801-24.139,0.717c-2.619,0.064-16.727,1.882-17.164-2.265c0.044-1.652,10.348-0.404,11.587-0.37
		c7.569,0.344,15.178-0.686,22.611-0.345c6.469,0.316,12.838-0.751,19.304-0.297c4.54,0.264,9.921-0.004,15.156,0.142
		c14.598,0.399,28.947-0.17,43.284-0.326c10.064-0.136,20.248,0.42,30.312,0.281c7.719-0.062,15.959,0.991,23.416,0.506
		C249.058,241.282,279.869,238.406,280.571,242.976C280.253,244.481,280.225,240.484,280.571,242.976z"/>
	<path fill="#757F92" d="M165.228,252.62c0.07,2.484-17.578,2.688-19.928,3.036c-2.632,0.478-12.282,0.49-13.174,2.947
		c-0.891,2.316-4.653,3.865-5.829,6.453c3.291,0.642,6.76-0.226,10.058,0.138c1.373,0.177,5.533-0.812,6.338,0.037
		c1.076,0.996,7.455-0.484,8.97-0.442c4.827-0.143,9.789-0.145,14.616-0.287c15.852-0.112,31.55,0.318,47.392,0.614
		c8.267,0.089,16.376,0.864,24.646,0.817c4.411-0.02,8.685-0.041,13.094-0.057c1.658-0.091,3.318-0.32,4.965-0.14
		c2.478,0.208,1.595,2.249-0.347,2.61c-4.982,0.829-11.303,0.104-16.688,0.509c-8.704,0.721-17.349-0.618-26.036-0.443
		c-11.446,0.236-22.58-0.758-33.327-0.916c-14.743-0.13-29.516,0.842-44.263,0.85c-2.345,0.075-13.408,1.423-14.835-1.786
		c-0.219-2.07,3.851-4.718,5.127-6.06c1.419-1.478,2.7-2.956,4.119-4.436c2.131-2.284,3.342-1.286,6.109-1.624
		c4.288-0.571,7.761-1.578,12.038-1.734c3.864-0.169,7.206-1.456,10.92-1.218C160.706,251.671,163.765,250.652,165.228,252.62
		C165.339,253.59,163.635,250.374,165.228,252.62z"/>
	<path fill="#757F92" d="M269.529,273.682c-3.019,4.464-16.166,1.483-20.573,1.363c-7.854-0.078-15.731,0.669-23.448,0.731
		c-1.794,0.089-17.938,0.749-18.053-0.082c-0.628-2.222-19.854,0.281-22.607,0.206c-6.61-0.182-13.366-0.092-19.978-0.273
		c-3.855-0.106-7.849-0.216-11.708-0.184c-2.345,0.073-6.042-0.854-8.27,0.048c-1.814,0.777-5.237-0.006-7.312,0.212
		c-3.452,0.319-6.896,0.226-10.343,0.268c-3.86,0.032-7.704-0.488-7.289-5.575c0.371-3.434,4.08,2.043,4.212,2.184
		c0.976-0.387,3.027,0.22,3.581,0.098c2.498-0.618,5.516-0.124,8.412-0.182c4.965-0.137,9.942-0.692,15.042-0.688
		c6.893-0.087,13.777,0.103,20.66,0.43c6.47,0.316,13.251-0.738,19.713-0.147c10.037,0.828,19.964,0.688,29.896,0.408
		c6.34-0.101,12.683-0.202,18.884-0.169c7.855,0.078,16.09,1.269,23.965,0.521C265.827,272.892,267.901,272.67,269.529,273.682
		C268.085,275.986,267.359,272.38,269.529,273.682z"/>
	<path fill="#757F92" d="M307.774,195.899c-0.406,9.773-0.813,19.548-1.631,29.311c-0.013,0.413-0.02,0.689-0.303,0.957
		s-0.561,0.397-0.844,0.525c-6.523,1.751-13.454-1.746-20.112-0.275c-0.69,0.119-1.387,0.376-1.546,1.062
		c-0.152,0.545,0.379,1.25,0.927,1.402c0.548,0.151,1.235,0.17,1.927,0.054c2.629-0.342,5.383-0.266,7.996-0.055
		c3.161,0.361,6.172,1.133,9.338,1.22c2.204,0.06,4.694-0.285,5.848-2.185c0.575-0.81,0.604-1.91,0.769-2.872
		c0.188-1.786,0.375-3.573,0.56-5.358c0.379-3.711,0.757-7.42,0.308-11.155c-0.33-3.042-1.076-5.955-1.822-8.871
		c-0.123-0.556-0.249-0.971-0.651-1.395c1.537-0.786,2.133-2.421,2.456-4.069c0.637-3.151,0.172-6.334-0.569-9.386
		c-0.372-1.526-0.538-5.53-2.507-4.066c-1.691,1.33-0.671,4.392-0.439,5.913C308.078,189.846,307.858,192.869,307.774,195.899z"/>
	<path fill="#757F92" d="M317.007,175.894c0.262,10.481-0.026,20.947-1.002,31.397c-0.19,1.923-0.385,3.985-0.163,5.918
		c0.234,1.524,0.748,2.915,0.987,4.3c0.856,3.883,0.609,7.872,0.364,11.726c-0.195,2.062-0.256,4.264,0.801,5.948
		c2.173-3.8,2.986-8.325,3.106-12.733c0.123-4.406-0.582-8.835-1.154-13.123c-0.781-6.636-1.15-13.262-1.106-19.876
		c0.067-2.48,0.14-5.096,0.346-7.571c0.185-1.785,0.515-3.706,0.425-5.501c-0.078-2.207-0.571-4.289-1.479-6.243"/>
	<path fill="#757F92" d="M304.855,241.986c3.993,0.111,8.54,0.101,11.511-2.713c0.09,1.793-1.191,3.274-2.595,4.202
		c-1.543,0.92-3.201,1.151-5,1.377c-9.959,1.241-19.884,1.381-29.923,0.556c-2.61-0.211-5.357-0.561-7.807-1.731
		c2.869-4.058,9.299-2.363,13.568-2.247C291.362,241.481,298.105,241.802,304.855,241.986z"/>
	<path fill="#5DA7D2" d="M178.26,149.478c-0.817,9.625,10.491,19.447,12.018,29.136c3.116-3.086,6.871-4.361,10.38-6.606
		c4.206-2.641,8.742-7.203,13.872-8.302c-3.74,0.724-7.268-16.461-9.409-18.727C197.773,136.507,187.999,146.162,178.26,149.478z"/>
	<path fill="#A5D0A6" d="M261.778,184.575c-0.258-0.559-5.798-14.631-5.247-14.615c-4.687,0.008-9.19,3.331-13.762,4.307
		c-0.666,4.116,3.097,12.627,5.792,14.905C253.033,186.813,257.334,185.83,261.778,184.575z"/>
	<path fill="#F79B82" d="M224.147,204.902c2.591,1.033,11.034-5.348,13.004-6.81c2.814-2.127,3.768-1.688,3.195-5.978
		c-0.46-3.319-3.214-8.357-5.209-11.029c-4.748,2.35-12.262,4.899-17.407,6.549C217.258,189.828,222.239,204.161,224.147,204.902z"
		/>
	<path fill="#F8ACAD" d="M246.921,218.76c-0.203-2.762-2.915-9.315-5.206-11.168c-1.482-1.285-9.763,4.141-11.165,5.066
		c1.729,2.252,1.834,8.457,4.001,9.894C237.527,224.563,243.453,219.491,246.921,218.76z"/>
	<path fill="#E8EBEC" d="M198.169,127.148c-1.263,0.793-16.609-37.531-32.853-13.169c-5.318,7.983,4.852,19.013,6.951,27.892
		C179.302,141.65,191.576,131.376,198.169,127.148z"/>
	<path fill="#A2D0E9" d="M180.443,185.371c2.67-1.856-12.35-21.977-15.645-22.481c-5.624-0.98-19.479,6.77-25.588,8.393
		c5.368,5.248,9.232,20.102,15.76,23.312C160.822,197.237,174.963,189.218,180.443,185.371z"/>
	<path fill="#757F92" d="M177.267,140.493c-0.688-0.019-1.223-0.586-1.617-1.286c-0.26-0.558-0.383-1.113-0.238-1.385
		c0.141-0.135,0.282-0.267,0.697-0.256c0.412,0.012,1.097,0.167,2.049,0.607l-0.003,0.137c-0.008,0.276,0.256,0.697,0.528,0.841
		C178.38,140.11,177.818,140.509,177.267,140.493z"/>
	<g>
		<path fill="#8A929F" d="M173.347,142.728c-6.118-3.063-16.945-20.311-15-25.911c4.469-2.081,10.76-5.354,16.368-8.782
			c0.982-0.663,2.646-1.03,4.452-1.533c2.64-0.753,5.417-1.504,6.563-3.126c2.195,0.336,4.144,4.663,5.304,7.588
			c0.389,0.975,0.777,1.812,1.039,2.371c0.655,1.258,1.715,2.803,2.771,4.485c2.511,3.931,5.689,8.565,6.546,12.584
			c-0.557,0.124-0.996,1.075-1.01,1.627c-0.008,0.274-0.012,0.412,0.122,0.554c-4.069,2.645-10.202,5.095-14.087,6.09
			c-0.138-0.003-0.276-0.008-0.413-0.012c-1.378-0.038-3.286-0.778-3.413-1.194l0,0c0,0,0.141-0.133,0.695-0.258
			c1.388-0.375,2.364-0.761,3.344-1.287c0.558-0.26,1.117-0.52,1.95-0.771l1.114-0.384c2.646-1.028,5.987-2.177,6.875-4.497
			c0.44-0.953,0.329-1.92-0.191-3.038c-1.83-3.631-3.935-7.274-5.904-10.772c-1.976-3.362-4.081-7.003-5.91-10.636l0.146-0.272
			l-0.28,0.13c-1.82,1.052-3.913,1.959-5.869,2.871c-3.486,1.558-6.98,3.253-9.936,5.515l-0.703,0.53
			c-1.69,1.332-3.099,2.395-5.054,3.307c-0.558,0.26-0.845,0.667-1.134,1.208c-0.75,2.185,1.749,6.523,2.932,8.626l0.135,0.141
			c0.526,0.841,1.457,2.107,2.654,3.657C170.253,134.923,173.977,139.851,173.347,142.728z"/>
		<path fill="#8A929F" d="M189.609,177.906c-3.286-0.779-5.478-6.354-7.028-10.117c-0.39-0.839-0.643-1.672-0.905-2.23
			c-0.259-0.558-0.52-1.116-0.645-1.535c-1.039-2.37-2.075-4.742-3.532-6.849c-0.269-0.282-0.531-0.704-0.795-1.125
			c-0.936-1.128-2.136-2.54-2.244-3.645c0.701-0.394,0.983-0.663,1.264-0.793c0.281-0.267,0.424-0.401,1.666-0.504
			c1.381-0.1,3.627-1.555,5.447-2.607c0.7-0.394,1.263-0.792,1.679-0.917c2.1-1.184,4.333-2.225,6.568-3.267
			c4.05-1.956,8.379-4.041,12.169-6.556l0.143-0.131l0.003-0.139c0.153-0.545,0.294-0.681,0.433-0.676
			c0.413,0.012,1.454,2.245,1.576,2.799c0.731,3.467,2.025,6.534,2.925,8.901c0.387,0.975,0.769,2.088,1.291,3.206
			c0.64,1.809,1.274,3.756,2.193,5.434c0.261,0.559,0.657,1.121,0.919,1.68c1.184,2.1,2.63,4.62,2.572,6.686
			c0.059,2.896-1.195,3.413-3.151,4.323c-0.558,0.261-1.258,0.655-1.959,1.05c-0.418,0.263-1.118,0.657-1.822,1.189
			c-2.808,1.853-7.447,5.171-10.751,5.08c-0.551-0.017-0.961-0.165-1.37-0.315c0.011-0.413-0.112-0.966-0.378-1.251
			c0.85-0.941,2.661-1.58,4.195-2.227c0.837-0.392,1.669-0.643,2.092-0.908c1.12-0.657,2.24-1.316,3.362-1.975
			c1.262-0.792,2.52-1.447,3.781-2.237c2.667-1.72,2.556-2.687,1.786-4.777c-0.124-0.554-0.383-1.113-0.502-1.804
			c-0.748-2.915-2.049-5.707-3.623-8.643c-1.825-3.773-3.785-7.685-4.225-11.695l-0.119-0.693l-0.562,0.399
			c-2.108,1.458-4.48,2.495-6.712,3.536c-2.514,1.172-5.166,2.339-7.417,4.069c-0.718,1.083-2.523,1.585-4.331,2.086
			c-2.084,0.632-4.165,1.125-4.478,2.495c-0.302,0.957,4.306,8.8,5.24,9.928c0.501,1.805,1.554,3.626,2.607,5.446
			C188.542,171.536,190.384,174.755,189.609,177.906z"/>
		<path fill="#8A929F" d="M152.347,199.759c-0.964-0.027-1.641-0.459-1.897-1.155c-0.522-1.117-0.636-1.947-0.747-2.914
			c-0.112-0.969-0.219-2.072-0.873-3.333c-1.041-2.231-2.224-4.331-3.408-6.432l-0.918-1.679c-0.52-1.117-1.042-2.233-1.424-3.349
			c-0.512-1.392-1.158-2.925-1.948-4.324l-0.398-0.562c-1.195-1.688-2.25-3.373-1.917-5.429c0.704-0.53,2.928-1.297,4.595-1.803
			c1.252-0.378,2.366-0.763,2.924-1.022c1.958-1.051,3.778-2.102,5.607-3.43c0.982-0.662,2.107-1.458,3.227-2.116
			c0.562-0.397,1.261-0.791,1.965-1.325c2.249-1.592,5.345-3.849,7.684-3.786c0.277,0.008,0.553,0.016,0.824,0.162
			c0,0,0.403,0.424,0.674,0.568c0.127,0.417,0.12,0.692-0.169,1.098c-0.592,1.5,0.461,3.321,1.382,4.861
			c0.261,0.56,0.659,1.122,0.786,1.539c0.901,2.23,2.756,5.036,5.03,7.579c1.865,2.256,5.812,9.12,5.446,12.418
			c-0.272-0.146-0.547-0.154-0.818-0.299c-1.504-0.458-2.46-0.758-2.956-2.837c-0.627-2.225-3.735-9.474-6.054-10.366
			c-0.953-0.44-1.985-2.949-2.894-5.042c-0.516-1.254-1.036-2.371-1.433-3.071c-0.66-0.981-1.609-1.561-2.848-1.595
			c-2.893-0.08-6.416,2.718-7.976,4.33c-1.135,1.208-2.948,1.987-4.624,2.769c-0.417,0.124-0.837,0.389-1.256,0.515
			c-0.701,0.395-1.396,0.65-1.816,0.915c-1.397,0.651-2.373,1.038-2.669,1.856c-0.294,0.682-0.045,1.651,0.865,3.609
			c0.521,1.116,1.038,2.372,1.42,3.484c0.778,1.813,1.417,3.621,2.473,5.305c0.264,0.422,0.529,0.842,0.931,1.266
			c0.666,0.846,1.328,1.828,1.848,2.946c0.261,0.559,0.513,1.392,0.629,2.224c0.493,2.08,1.121,4.301,2.912,4.351
			c0.274,0.009,0.692-0.117,0.972-0.248c3.621-1.416,8.529-4.45,11.486-6.715c0.562-0.396,1.12-0.656,1.677-0.916
			c0.56-0.262,1.257-0.519,1.961-1.05c0.42-0.263,0.698-0.395,0.975-0.388c0.413,0.012,0.683,0.296,0.81,0.575
			c0.128,0.416,0.108,1.106-0.597,1.636c-1.552,1.335-3.648,2.381-5.468,3.432c-2.38,1.313-4.896,2.624-6.598,4.368
			C157.916,197.707,154.55,199.819,152.347,199.759z"/>
		<path fill="#8A929F" d="M246.74,190.088c-0.55-0.016-0.956-0.302-1.491-0.868c-1.469-1.694-2.468-5.443-2.831-7.244
			c0.007-0.278-0.256-0.834-0.514-1.393c-0.521-1.117-1.164-2.79-0.729-3.604c0.146-0.272,0.286-0.406,0.566-0.535
			c2.644-0.893,4.482-2.633,7.126-3.526c0.416-0.125,0.97-0.249,1.389-0.375c0.558-0.26,0.981-0.662,1.398-0.788
			c2.231-0.904,2.69,2.417,3.618,3.82c0.26,0.56,2.342,5.027,0.437,4.148c-0.682-0.294-1.192-1.825-1.591-2.389
			c-0.525-0.841-1.312-2.378-2.41-2.546c-1.238-0.035-3.073,1.569-4.06,2.231c-0.98,0.663-2.102,1.32-3.356,1.84l-0.28,0.128
			l0.131,0.28c0.128,0.416,0.245,1.107,0.363,1.802c0.487,2.357,1.223,5.685,3.563,5.749c0.415,0.012,0.693-0.119,1.11-0.248
			c1.392-0.51,2.652-1.301,4.048-1.953c1.545-0.92,2.943-1.711,4.333-2.086c0.538,0.429,0.664,0.847,0.515,1.257
			c-0.324,1.782-5.052,3.305-6.861,3.945c-0.416,0.127-0.695,0.255-0.832,0.251c-0.418,0.127-0.98,0.524-1.406,0.926
			C248.273,189.577,247.571,190.111,246.74,190.088z"/>
		<path fill="#8A929F" d="M225.367,205.624c-2.065-0.057-3.199-3.946-3.828-6.169l-0.246-0.971
			c-0.381-1.253-1.307-2.654-2.363-4.339c-0.792-1.261-1.445-2.52-1.821-3.909c-0.253-0.834-1.448-2.518-0.599-3.323
			c0.282-0.267,1.394-0.511,1.814-0.776c1.538-0.785,2.532-1.86,4.07-2.645c1.678-0.919,3.492-1.695,5.301-2.334
			c1.671-0.643,3.343-1.288,5.141-1.515c1.659-0.23,2.186,0.749,2.835,2.147c0.777,1.812,1.693,3.63,2.468,5.442
			c0.392,0.837,0.782,1.673,1.167,2.65c0.393,0.836,1.33,1.827,2.268,2.817c0.669,0.707,1.606,1.7,1.868,2.257
			c-0.695,0.119-1.249,0.241-1.8,0.227c-2.891-0.081-4.195-2.735-5.494-5.664c-0.911-1.954-2.11-3.504-3.02-5.458
			c-0.656-1.259-0.652-1.396-2.181-0.888c-2.645,0.892-4.749,2.351-7.398,3.383c-0.975,0.385-2.222,0.625-2.934,1.434
			c-0.853,0.943-0.454,1.503,0.066,2.619c0.513,1.392,0.889,2.784,1.405,4.036c0.392,0.839,1.197,1.548,1.451,2.383
			c0.256,0.695,0.099,1.381,0.356,2.075c0.646,1.534,1.593,2.25,2.832,2.284c1.515,0.041,3.336-1.01,5.149-1.925
			c1.68-0.92,3.363-1.977,4.741-1.938c0.276,0.009,0.551,0.014,0.822,0.162c-0.183,1.649-3.272,3.769-5.511,4.948
			c-0.979,0.523-2.233,1.04-3.487,1.556c-0.697,0.26-1.396,0.653-2.093,0.91C225.922,205.502,225.643,205.632,225.367,205.624z"/>
		<path fill="#8A929F" d="M235.22,223.26c-2.062-0.193-2.319-0.888-2.688-2.416c-0.127-0.556-0.382-1.252-0.774-1.952
			c-1.042-2.233-2.491-4.615-3.395-6.846c-0.768-2.226,3.83-4.03,5.5-4.672c2.373-1.037,4.741-1.936,7.103-2.561
			c-0.419,0.125,4.047,8.104,4.31,8.661c-0.418,0.129-0.698,0.257-0.977,0.389c-0.422,0.262-0.7,0.394-0.977,0.386
			c-0.136-0.003-0.688-0.019-1.337-1.414c-0.521-1.115-1.148-3.339-2.372-4.062c-1.215-0.861-2.894,0.057-4.019,0.854
			c-1.403,0.925-2.798,1.578-4.066,2.506c0.513,1.393,1.569,3.074,2.225,4.333c0.655,1.26,1.312,2.38,1.413,3.761l-0.013,0.415
			l0.413,0.01c1.661-0.231,3.479-1.282,5.027-2.343c1.265-0.932,2.527-1.722,3.49-1.694c0.822,0.159,1.097,0.303,1.089,0.58
			C244.853,218.703,236.734,223.302,235.22,223.26z"/>
	</g>
</g>
</svg>
