<?xml version="1.0" encoding="utf-8"?>
<!-- Generator: Adobe Illustrator 16.0.0, SVG Export Plug-In . SVG Version: 6.00 Build 0)  -->
<!DOCTYPE svg PUBLIC "-//W3C//DTD SVG 1.1//EN" "http://www.w3.org/Graphics/SVG/1.1/DTD/svg11.dtd">
<svg version="1.1" id="Layer_1" xmlns="http://www.w3.org/2000/svg" xmlns:xlink="http://www.w3.org/1999/xlink" x="0px" y="0px"
	 width="408px" height="353px" viewBox="0 0 408 353" enable-background="new 0 0 408 353" xml:space="preserve">
<g>
	<path fill="#E8EBEE" d="M275.357,275.482c20.268,3.312,43.768,5.946,59.141-7.712c7.531-6.68,11.772-16.206,15.694-25.283
		c3.436-8.018,7.023-16.032,10.454-23.896c1.796-4.083,3.466-9.242,0.345-12.541c-1.785-1.885-4.679-2.425-7.43-2.653
		c-47.148-5.275-94.746,0.152-141.727,5.44c-17.502,1.968-35.005,3.936-52.507,5.904c-10.287,1.095-21.038,2.482-29.321,8.683
		c-3.436,2.508-6.282,5.799-8.974,9.089c-9.488,11.066-18.979,22.287-28.468,33.353c-1.108,1.346-2.229,3.153-1.349,4.555
		c0.442,0.623,1.198,0.949,1.955,1.279c7.72,3.117,15.594,6.242,23.993,6.933c9.923,0.887,19.644-1.91,29.473-3.169
		c32.415-4.312,64.722,6.371,97.274,8.184c21.7,1.209,43.507-1.405,65.165-4.179"/>
	<path fill="#FFFFFF" d="M64.974,83.579c-6.708,43.591-0.676,85.849-2.973,130.478c-0.334,6.573-1.008,14.358-0.114,20.814
		c0.896,6.453-2.085,14.635,4.131,16.795c9.25,3.163,10.541,0.75,22.81-0.14c15.799-1.247,37.003,1.325,51.72,0.507
		c2.603-0.082,13.574,1.749,15.677,3.185c2.103,1.435-6.436,5.793-9.527,6.933c-35.439,3.005-16.688,0.15-24.087,2.093
		c-7.864,2.078-15.36,7.535-16.956,15.452c-0.179,0.913-0.204,1.831,0.234,2.608c0.591,0.78,1.656,0.963,2.575,0.988
		c8.395,0.842,16.642,1.529,25.037,2.372c38.164,3.65,72.432-1.376,110.768,1.665c5.497,0.459,12.233,0.338,18.046,0.497
		c5.506,0.151,9.176,0.253,14.597-2.048c8.056-3.452-2.422-17.667-10.112-21.86c-7.69-4.191-16.862-4.593-25.553-5.905
		c-1.983-0.207-4.557-1.195-4.502-3.184c-0.093-2.299,2.993-3.134,5.286-3.069c19.449-0.385,38.903-0.921,58.351-1.305
		c9.036-0.211,18.694-0.71,25.736-6.332c7.671-6.22,9.651-17.03,10.078-26.97c1.302-25.064-3.208-50.292-13.447-73.224
		c-2.444-5.732-5.344-11.626-4.257-17.719c-2.343,7.284,2.97,14.468,6.766,21.155c4.381,7.621,6.735,16.715,5.575,25.409
		c-0.135-28.474-0.424-56.951-0.563-85.27c-0.039-4.134-0.074-8.42-1.961-12.145c-4.65-9.005-17.029-9.652-27.146-9.165
		c-51.799,2.403-104.185,3.871-155.996,1.069c-16.81-0.921-33.974-0.168-50.699,1.362c-7.056,0.57-17.728-0.947-24.389,1.932
		C64.504,72.853,65.742,77.937,64.974,83.579z"/>
	<path fill="#CFCECD" d="M316.795,232.387c1.077-0.125,2.152-0.246,2.933-0.839c0.785-0.591,1.271-1.648,1.448-2.561
		c1.695-5.923,0.333-12.082-0.728-18.082c-1.323-7.535-2.336-15.216-2.737-22.88c-0.094-2.146-0.185-4.443,0.788-6.405
		c2.262-4.378,8.39-4.516,13.276-4.074c0.672,20.067-6.452,39.77-5.168,59.854c0.227,2.914,0.448,5.982-1.144,8.234
		c-1.118,1.653-3.139,2.823-5.145,3.38c-3.394,0.979-6.915,1.032-10.433,0.936c-9.642-0.11-19.129-0.22-28.771-0.177
		c-1.531-0.042,1.327-9.3,1.968-10.355c1.771-3.165,3.164-3.738,6.394-4.263C298.55,233.569,307.892,233.366,316.795,232.387z"/>
	<path fill="#CFCECD" d="M330.801,90.427c-1.511-6.318,0.973-13.137-5.51-16.681c-6.632-3.703-23.851-0.963-31.345-1.169
		c-27.989-0.77-56.114-2.155-84.095-3.229c-25.838-1.016-51.618,1.337-77.497,1.849c-14.704,0.361-31.607,2.804-45.363,7.631
		c-18.703,6.68-17.211,13.608-17.72,32.115c-0.836,30.435-4.727,60.633-5.559,90.916c-0.299,10.859-2.919,33.747,5.283,41.625
		c7.306,7.09,35.209,5.406,45.88,6.926c10.519,1.513,21.043,2.874,31.736,3.626c3.514,0.25,14.361,1.006,14.23,5.749
		c-0.359,7.488-31.439,7.86-36.704,10.01l0.055-1.988c-3.018,4.05-6.144,6.413-5.226,11.947c34.644,3.71,70.43-0.817,105.182-1.087
		c5.664,0.004,37.37,4.701,36.721-5.114c-0.632-10.425-13.631-5.271-19.214-8.183c-7.089-3.713-6.78-9.521,0.775-11.454
		c7.088-1.796,15.782-0.64,23.131-0.743c11.938,0.022,28.5-1.053,25.733-17.354c-16.034-1.36-32.809,2.005-49.174,1.555
		c-22.636-0.622-44.312-2.749-66.447-4.885c-30.988-2.996-63.103-4.031-93.972-5.799c-0.534-13.942,3.629-26.227,3.995-39.532
		c0.259-14.993-0.251-29.854,0.161-44.841c0.311-11.32-1.472-35.551,6.453-45.435c3.801-4.64,10.998-4.749,16.207-4.913
		c11.95-0.436,23.74-0.571,35.689-1.007c41.826-1.453,82.75-3.542,124.759-0.551c8.557,0.542,32.554-3.851,39.454,1.238
		c7.806,5.572,4.74,22.477,4.517,30.583c-0.601,21.87-2.259,43.252,2.522,64.201c17.637,4.158,15.699-19.926,15.993-30.631
		C331.743,134.073,335.595,110.915,330.801,90.427z"/>
	<path fill="#757F92" d="M329.713,74.326c3.153,7.74,0.579,17.923,0.813,26.041c0.071,8.575,0.145,16.994,0.525,25.577
		c0.514,9.043,0.261,18.22,0.167,27.248c0.03,4.44-0.092,8.875-0.214,13.311c-0.079,2.905,0.71,7.672-2.253,9.58
		c-1.469-2.183-0.72-7.212-0.647-9.813c-0.099-1.991-0.896-6.453-0.078-8.267c0.81-1.661-0.121-6.738,0.086-8.722
		c0.288-4.89-0.032-9.95-0.205-14.852c-0.357-9.193-0.561-18.536-0.614-27.72c-0.032-4.44-0.219-8.73-0.25-13.171
		c-0.018-4.897,1.347-10.063,0.717-14.979c-0.65-4.15-8.033-2.824-11.408-2.609c-4.444,0.184-8.72-0.087-13.309-0.213
		c-9.177-0.252-18.369,0.107-27.697-0.302c-8.259-0.227-16.666-0.611-24.925-0.838c-4.282-0.118-8.572,0.07-12.855-0.048
		c-4.897,0.018-11.146-0.918-15.62,0.336c-7.557,2.087-17.478,1.049-25.286,1.141c-2.142-0.058-15.795,1.098-16.382,0.163
		c-0.293-0.467-5.055,0.167-6.283,0.287c-3.527,0.209-7.041-0.041-10.404-0.133c-2.142-0.059-6.406-0.789-8.259-0.227
		c-1.546,0.571-9.649,0.194-9.809,0.496c0.004-0.152-8.28,0.538-9.045,0.516c-4.906,0.325-10.386-0.744-15.31,0.19
		c-2.464,0.546-4.878-0.745-7.341-0.201c-2.312,0.55-5.37,0.465-7.813,0.246c-6.117-0.168-12.082-0.332-18.37,0.106
		c-4.447,0.338-8.854-0.854-13.013,0.102c-6.011,1.518-6.976-2.335-0.825-3.389c5.999-1.061,12.406-0.272,18.375-0.261
		c7.957,0.065,15.774-0.333,23.727-0.114c25.699,0.554,52.692-1.459,79.02-1.501c22.347,0.003,43.523-2.018,66.305-1.084
		c10.396,0.438,20.332,0.864,30.427,1.142c6.117,0.168,12.234,0.336,18.351,0.504C316.419,73.502,323.174,72.768,329.713,74.326
		C331.43,78.658,326.675,73.477,329.713,74.326z"/>
	<path fill="#757F92" d="M63.879,245.943c-1.615-2.493-1.063-5.844-1.277-9.216c-0.192-4.14-0.694-8.133-0.122-12.251
		c1.127-7.622,0.123-15.606,0.639-23.245c0.681-8.094,0.148-16.525-0.24-24.649c-0.369-8.889,0.339-17.901,0.583-26.771
		c0.242-14.38,0.166-28.312,1.168-42.518c0.516-7.64-0.96-15.179-0.903-22.83c0.071-2.601,0.325-6.267,3.078-6.191
		c0.043,3.98,0.389,8.123,0.739,12.112c1.266,15.188-0.221,30.298-0.642,45.595c-0.37,13.458-1.058,27.369-0.509,40.853
		c0.546,13.483-0.303,27.696-0.834,41.456c-0.114,4.13-0.384,8.407-0.179,12.088C65.753,233.444,68.06,244.224,63.879,245.943
		C62.272,243.144,66.665,244.797,63.879,245.943z"/>
	<path fill="#757F92" d="M271.403,85.274c-0.513,1.976-2.663,2.222-3.686,0.51C266.104,83.139,270.225,83.558,271.403,85.274
		C271.226,86.188,270.818,84.339,271.403,85.274z"/>
	<path fill="#757F92" d="M320.409,190.089C313.207,190.351,324.994,184.705,320.409,190.089
		C319.487,190.217,321.198,189.192,320.409,190.089z"/>
	<path fill="#757F92" d="M232.213,269.244c-6.188,2.434-12.163-8.445-11.724-13.332c0.603-5.187,4.351,3.183,4.786,4.109
		C226.857,263.74,231.559,265.246,232.213,269.244C230.205,269.954,231.703,265.558,232.213,269.244z"/>
	<path fill="#757F92" d="M167.554,255.07c0.986,3.088-9.457,15.506-10.911,12.708c-0.293-0.465-2.948,1.451-4.142,0.348
		c0.224-2.597,2.837-2.984,4.847-3.693C159.974,263.585,164.882,252.088,167.554,255.07
		C168.116,256.922,167.113,254.444,167.554,255.07z"/>
	<path fill="#757F92" d="M258.913,261.256c0,0,2.54,2.211,2.396,1.901c1.933,2.043,4.189,3.483,6.132,5.221
		c2.693,2.215,5.698,4.287,8.234,6.653c1.345,1.261-0.546,3.199-2.062,2.698c-2.272-0.826-3.766-2.247-5.56-3.826
		c-3.139-2.689-7.152-7.085-10.766-9.174c-4.598,0.181-9.34,0.05-14.082-0.08c-2.293-0.063-4.592,0.026-6.882-0.189
		c-0.609-0.018-7.467-1.122-3.752-2.705c3.252-1.288,6.891-0.118,10.109-0.181C246.957,261.843,255.034,263.137,258.913,261.256
		C258.905,261.562,257.521,261.828,258.913,261.256z"/>
	<path fill="#757F92" d="M319.948,84.313c0.882,6.911,0.223,14.239,0.188,20.974c0.031,10.102,0.82,20.379-0.069,30.457
		c-1.462,14.193,1.482,29.58,0.314,44.242c-0.237,3.055-3.563,1.588-3.339-1.01c0.241-3.209,0.022-6.429-0.039-9.797
		c-0.106-7.196,0.407-14.836-0.31-22.049c-0.829-8.9,0.513-18.66,0.448-27.539c-0.162-10.717-0.021-21.427-0.03-32.295
		c-6.898,0.422-13.175,0.403-20.209,0.209c-3.976-0.109-7.949-0.372-11.921-0.633c-1.376-0.037-10.566,0.168-6.488-3.393
		c1.257-1.19,9.478,0.414,11.614,0.625c3.209,0.241,6.412,0.635,9.628,0.571c3.978,0.109,7.949,0.371,11.944-0.284
		C313.223,83.975,318.138,83.344,319.948,84.313C320.591,88.769,318.589,83.663,319.948,84.313z"/>
	<path fill="#757F92" d="M255.613,86.218c-13.878,3.751-29.888,1.474-44.114,1.235c-16.526-0.147-33.194-0.759-49.596,0.168
		c-8.428,0.38-16.839,0.149-25.109,0.228c-7.196,0.108-15.203,1.878-22.363,0.61c-11.416-2.303-23.773,1.795-35.528,0.707
		c-0.006,11.326,0.597,22.822-0.331,34.276c-0.952,12.372-2.074,25.352-1.195,37.926c0.754,11.499,0.13,23.115,0.116,34.747
		c-0.013,11.633,1.503,23.307,1.489,34.938c4.439-0.032,8.893-0.52,13.174-0.402c3.825,0.106,8.735-0.371,12.534,0.649
		c8.354,2.373-5.186,4.91-7.579,2.854c-0.45-0.316-7.651-0.058-8.726,0.066c-2.46,0.391-4.286,0.035-6.588,0.277
		c-1.075,0.123-4.626,1.25-5.072,0.781c-2.07-2.66-0.741-6.452-0.81-9.514c-0.295-5.978-1.678-11.372-1.361-17.333
		c0.562-9.321-0.098-18.677,0.159-28.006c0.378-13.766-1.084-27.427-0.238-41.485c0.917-16.66,1.07-33.337,1.374-50.013
		c0.144-5.201,12.341-3.487,16.78-3.518c6.891-0.117,13.472-0.089,20.362-0.205c11.79-0.136,24.661-0.701,35.828-0.394
		c15.604,0.277,31.824,0.416,47.301-0.23c12.41-0.424,24.804-0.237,37.034,0.252c2.293,0.063,4.418,0.735,6.729,0.186
		c1.689-0.26,7.242-1.791,8.742-0.678C249.971,85.45,255.718,82.394,255.613,86.218C250.676,87.612,255.694,83.312,255.613,86.218z"
		/>
	<path fill="#757F92" d="M294.583,233.154c-1.504,4.548-17.827,2.572-21.339,2.32c-6.417-0.481-14.202-1.156-20.494-0.562
		c-4.759,0.482-10.082-0.736-15.439-0.73c-9.486-0.107-18.981,0.09-28.629,0.283c-12.866,0.259-26.179,0.199-39.214,1.065
		c-17.628,1.047-34.968-2.951-52.598-1.905c-2.605,0.082-4.828-2.581-1.604-2.95c2.916-0.229,5.974-0.145,8.875,0.091
		c8.408,0.384,16.803,1.227,25.214,1.458c16.059,0.441,31.694-0.354,47.624-0.835c16.395-0.621,32.628-0.938,49.116,0.584
		c8.093,0.683,16.376-0.009,24.624,0.678c6.719,0.644,13.771,0.228,20.522-0.506C292.628,231.876,294.021,231.301,294.583,233.154
		C293.911,235.277,294.021,231.301,294.583,233.154z"/>
	<path fill="#757F92" d="M288.144,250.273c-0.353,1.673-16.274,1.848-18.248,1.182c-1.971-0.668-4.612,0.789-6.752,0.73
		c-4.437-0.122-8.732,0.221-13.166,0.098c-16.52-0.452-32.891-0.598-49.423-0.594c-7.039-0.038-13.454-0.521-20.656-0.259
		c-6.126,0.137-12.587,1.338-18.683,0.404c-7.467-1.277-16.073,0.017-23.715-0.347c-8.871-0.244-17.576-0.941-26.459-0.728
		c-8.884,0.218-17.779,0.889-26.808,0.795c-2.909,0.072-18.577,2.091-19.063-2.514c0.05-1.835,11.492-0.449,12.869-0.411
		c8.407,0.382,16.857-0.762,25.112-0.383c7.184,0.352,14.257-0.834,21.438-0.33c5.042,0.293,11.019-0.004,16.832,0.157
		c16.212,0.445,32.148-0.188,48.07-0.362c11.177-0.15,22.488,0.467,33.665,0.313c8.573-0.07,17.724,1.1,26.005,0.561
		C253.146,248.392,287.365,245.198,288.144,250.273C287.791,251.946,287.759,247.507,288.144,250.273z"/>
	<path fill="#757F92" d="M160.046,260.984c0.077,2.759-19.522,2.986-22.132,3.372c-2.923,0.53-13.639,0.544-14.631,3.273
		c-0.989,2.573-5.168,4.293-6.473,7.167c3.654,0.713,7.507-0.251,11.17,0.153c1.525,0.195,6.145-0.903,7.039,0.041
		c1.194,1.105,8.279-0.538,9.962-0.491c5.36-0.158,10.871-0.161,16.232-0.319c17.605-0.126,35.039,0.353,52.633,0.682
		c9.181,0.099,18.187,0.96,27.372,0.907c4.899-0.021,9.646-0.045,14.542-0.062c1.842-0.102,3.686-0.356,5.514-0.155
		c2.751,0.23,1.771,2.498-0.385,2.899c-5.533,0.92-12.553,0.115-18.534,0.564c-9.667,0.802-19.267-0.686-28.915-0.491
		c-12.712,0.262-25.077-0.842-37.013-1.018c-16.373-0.145-32.78,0.936-49.157,0.943c-2.605,0.084-14.891,1.581-16.476-1.983
		c-0.243-2.299,4.277-5.239,5.695-6.729c1.576-1.641,2.999-3.284,4.574-4.926c2.367-2.537,3.712-1.429,6.785-1.804
		c4.762-0.635,8.619-1.753,13.369-1.927c4.291-0.188,8.003-1.616,12.128-1.351C155.024,259.93,158.421,258.799,160.046,260.984
		C160.169,262.06,158.277,258.489,160.046,260.984z"/>
	<path fill="#757F92" d="M275.88,284.374c-3.351,4.958-17.953,1.648-22.848,1.514c-8.722-0.086-17.471,0.744-26.042,0.813
		c-1.992,0.099-19.92,0.832-20.048-0.091c-0.698-2.468-22.049,0.312-25.108,0.229c-7.341-0.202-14.844-0.103-22.186-0.304
		c-4.282-0.118-8.717-0.24-13.003-0.204c-2.605,0.081-6.71-0.949-9.185,0.053c-2.014,0.863-5.816-0.006-8.12,0.236
		c-3.834,0.354-7.659,0.25-11.487,0.297c-4.287,0.035-8.556-0.542-8.095-6.192c0.411-3.813,4.53,2.269,4.678,2.426
		c1.084-0.43,3.361,0.244,3.976,0.108c2.775-0.687,6.126-0.138,9.343-0.202c5.514-0.152,11.041-0.769,16.705-0.765
		c7.655-0.096,15.301,0.114,22.945,0.477c7.185,0.352,14.716-0.82,21.892-0.163c11.148,0.92,22.172,0.764,33.202,0.453
		c7.042-0.112,14.086-0.224,20.973-0.188c8.724,0.087,17.869,1.409,26.615,0.579C271.77,283.497,274.073,283.251,275.88,284.374
		C274.278,286.933,273.471,282.929,275.88,284.374z"/>
	<path fill="#757F92" d="M318.355,197.991c-0.451,10.854-0.903,21.709-1.812,32.552c-0.013,0.459-0.021,0.766-0.335,1.062
		c-0.315,0.297-0.624,0.442-0.937,0.585c-7.245,1.944-14.943-1.94-22.337-0.306c-0.767,0.131-1.54,0.417-1.717,1.178
		c-0.169,0.605,0.421,1.388,1.029,1.558c0.609,0.168,1.372,0.188,2.14,0.06c2.92-0.38,5.979-0.295,8.881-0.062
		c3.51,0.402,6.854,1.259,10.37,1.354c2.448,0.067,5.214-0.316,6.494-2.425c0.639-0.898,0.672-2.121,0.854-3.189
		c0.208-1.984,0.417-3.969,0.622-5.952c0.42-4.121,0.84-8.24,0.341-12.388c-0.366-3.379-1.195-6.614-2.024-9.853
		c-0.136-0.617-0.276-1.078-0.723-1.549c1.707-0.873,2.369-2.688,2.727-4.518c0.707-3.501,0.192-7.035-0.632-10.424
		c-0.413-1.696-0.597-6.142-2.784-4.517c-1.879,1.478-0.745,4.878-0.488,6.567C318.694,191.267,318.448,194.626,318.355,197.991z"/>
	<path fill="#757F92" d="M328.609,175.773c0.291,11.64-0.028,23.263-1.112,34.869c-0.212,2.135-0.427,4.426-0.181,6.573
		c0.26,1.692,0.83,3.237,1.096,4.775c0.951,4.312,0.676,8.743,0.405,13.022c-0.217,2.29-0.284,4.735,0.889,6.606
		c2.413-4.22,3.317-9.246,3.45-14.141c0.136-4.894-0.647-9.812-1.282-14.575c-0.868-7.369-1.278-14.727-1.229-22.073
		c0.075-2.755,0.155-5.659,0.384-8.409c0.205-1.982,0.572-4.116,0.471-6.109c-0.085-2.451-0.633-4.763-1.642-6.933"/>
	<path fill="#757F92" d="M315.113,249.175c4.435,0.123,9.485,0.111,12.784-3.014c0.1,1.992-1.323,3.637-2.882,4.667
		c-1.714,1.021-3.555,1.279-5.553,1.529c-11.06,1.38-22.083,1.534-33.231,0.617c-2.9-0.234-5.95-0.622-8.67-1.922
		c3.186-4.507,10.327-2.625,15.068-2.495C300.128,248.613,307.617,248.97,315.113,249.175z"/>
	<path fill="#5DA7D2" d="M174.52,146.436c-0.907,10.689,11.651,21.597,13.346,32.357c3.46-3.427,7.631-4.843,11.528-7.336
		c4.671-2.933,9.708-8,15.405-9.22c-4.153,0.804-8.07-18.282-10.449-20.798C196.19,132.031,185.335,142.754,174.52,146.436z"/>
	<path fill="#A5D0A6" d="M267.273,185.414c-0.287-0.62-6.44-16.248-5.828-16.231c-5.205,0.009-10.206,3.699-15.284,4.783
		c-0.739,4.571,3.44,14.023,6.433,16.553C257.562,187.901,262.337,186.809,267.273,185.414z"/>
	<path fill="#F79B82" d="M225.48,207.989c2.878,1.148,12.255-5.938,14.442-7.562c3.126-2.362,4.184-1.875,3.549-6.639
		c-0.511-3.686-3.569-9.281-5.785-12.249c-5.274,2.61-13.618,5.441-19.332,7.274C217.829,191.248,223.361,207.166,225.48,207.989z"
		/>
	<path fill="#F8ACAD" d="M250.773,223.379c-0.226-3.067-3.238-10.345-5.782-12.403c-1.646-1.427-10.842,4.599-12.4,5.627
		c1.921,2.501,2.037,9.392,4.443,10.988C240.339,229.825,246.922,224.192,250.773,223.379z"/>
	<path fill="#E8EBEC" d="M196.63,121.637c-1.402,0.881-18.446-41.681-36.486-14.625c-5.906,8.866,5.388,21.116,7.72,30.976
		C175.677,137.743,189.308,126.333,196.63,121.637z"/>
	<path fill="#A2D0E9" d="M176.944,186.299c2.965-2.062-13.716-24.408-17.375-24.968c-6.246-1.089-21.634,7.518-28.418,9.321
		c5.962,5.828,10.253,22.325,17.503,25.889C155.153,199.477,170.858,190.57,176.944,186.299z"/>
	<path fill="#757F92" d="M173.416,136.458c-0.764-0.021-1.358-0.651-1.796-1.428c-0.289-0.62-0.425-1.236-0.264-1.538
		c0.156-0.15,0.313-0.296,0.773-0.284c0.458,0.013,1.219,0.185,2.276,0.674l-0.003,0.152c-0.009,0.307,0.284,0.774,0.586,0.934
		C174.653,136.032,174.029,136.475,173.416,136.458z"/>
	<g>
		<path fill="#8A929F" d="M169.063,138.94c-6.794-3.402-18.819-22.557-16.659-28.776c4.962-2.311,11.95-5.945,18.177-9.753
			c1.091-0.736,2.939-1.144,4.945-1.702c2.931-0.837,6.015-1.671,7.289-3.472c2.438,0.373,4.602,5.178,5.89,8.427
			c0.432,1.083,0.864,2.013,1.154,2.633c0.727,1.397,1.904,3.113,3.078,4.981c2.788,4.365,6.318,9.512,7.269,13.976
			c-0.618,0.137-1.105,1.194-1.122,1.807c-0.009,0.305-0.013,0.458,0.136,0.616c-4.52,2.937-11.33,5.658-15.645,6.763
			c-0.153-0.004-0.306-0.009-0.459-0.013c-1.53-0.042-3.649-0.865-3.79-1.327l0,0c0,0,0.157-0.148,0.772-0.286
			c1.542-0.416,2.626-0.845,3.714-1.429c0.619-0.289,1.24-0.578,2.166-0.857l1.237-0.426c2.939-1.142,6.649-2.418,7.636-4.994
			c0.489-1.058,0.365-2.132-0.212-3.374c-2.032-4.033-4.37-8.079-6.558-11.964c-2.194-3.734-4.532-7.777-6.563-11.812l0.162-0.303
			l-0.311,0.145c-2.021,1.169-4.345,2.176-6.517,3.188c-3.872,1.73-7.752,3.613-11.035,6.125l-0.781,0.589
			c-1.877,1.479-3.441,2.66-5.612,3.673c-0.62,0.289-0.938,0.74-1.26,1.342c-0.833,2.426,1.943,7.245,3.256,9.58l0.15,0.156
			c0.585,0.934,1.618,2.34,2.948,4.061C165.627,130.272,169.763,135.744,169.063,138.94z"/>
		<path fill="#8A929F" d="M187.123,178.008c-3.649-0.866-6.083-7.056-7.804-11.236c-0.434-0.931-0.714-1.857-1.005-2.477
			c-0.288-0.619-0.577-1.239-0.717-1.704c-1.153-2.632-2.304-5.267-3.923-7.606c-0.298-0.313-0.59-0.782-0.883-1.249
			c-1.039-1.253-2.372-2.821-2.492-4.048c0.778-0.438,1.092-0.736,1.403-0.881c0.313-0.296,0.471-0.445,1.851-0.56
			c1.533-0.111,4.028-1.727,6.05-2.896c0.777-0.437,1.402-0.88,1.864-1.019c2.332-1.315,4.812-2.471,7.294-3.628
			c4.498-2.172,9.306-4.487,13.515-7.281l0.158-0.146l0.004-0.154c0.17-0.606,0.327-0.756,0.48-0.751
			c0.458,0.013,1.615,2.493,1.75,3.108c0.813,3.85,2.25,7.257,3.249,9.885c0.429,1.083,0.854,2.319,1.434,3.561
			c0.71,2.009,1.415,4.171,2.435,6.035c0.29,0.621,0.731,1.245,1.021,1.865c1.314,2.332,2.921,5.131,2.857,7.426
			c0.065,3.217-1.328,3.79-3.5,4.801c-0.619,0.29-1.397,0.727-2.175,1.166c-0.465,0.292-1.243,0.729-2.024,1.321
			c-3.118,2.057-8.271,5.742-11.94,5.641c-0.613-0.018-1.068-0.182-1.522-0.349c0.012-0.458-0.124-1.073-0.42-1.389
			c0.945-1.045,2.955-1.755,4.659-2.473c0.93-0.435,1.855-0.714,2.324-1.008c1.244-0.73,2.488-1.462,3.734-2.193
			c1.401-0.88,2.798-1.607,4.199-2.485c2.962-1.91,2.838-2.983,1.984-5.305c-0.138-0.615-0.425-1.236-0.558-2.004
			c-0.83-3.237-2.275-6.338-4.023-9.598c-2.027-4.19-4.203-8.534-4.693-12.989l-0.132-0.769l-0.624,0.443
			c-2.34,1.619-4.975,2.771-7.454,3.927c-2.792,1.302-5.736,2.598-8.237,4.519c-0.798,1.202-2.803,1.76-4.81,2.317
			c-2.314,0.702-4.625,1.25-4.973,2.771c-0.335,1.062,4.782,9.773,5.819,11.026c0.557,2.005,1.726,4.028,2.896,6.049
			C185.938,170.933,187.984,174.509,187.123,178.008z"/>
		<path fill="#8A929F" d="M145.74,202.277c-1.07-0.03-1.822-0.51-2.106-1.283c-0.58-1.24-0.707-2.162-0.83-3.236
			c-0.124-1.076-0.243-2.302-0.969-3.701c-1.156-2.479-2.47-4.811-3.785-7.144l-1.019-1.864c-0.578-1.24-1.158-2.481-1.583-3.719
			c-0.568-1.545-1.286-3.248-2.163-4.802l-0.442-0.624c-1.327-1.875-2.499-3.746-2.129-6.03c0.781-0.589,3.252-1.441,5.104-2.002
			c1.39-0.42,2.627-0.847,3.247-1.135c2.174-1.167,4.196-2.334,6.227-3.809c1.091-0.735,2.34-1.62,3.584-2.351
			c0.624-0.441,1.401-0.878,2.183-1.471c2.497-1.768,5.935-4.275,8.533-4.204c0.308,0.009,0.614,0.017,0.915,0.18
			c0,0,0.447,0.471,0.748,0.631c0.142,0.463,0.133,0.769-0.187,1.219c-0.658,1.666,0.511,3.688,1.535,5.399
			c0.29,0.622,0.731,1.246,0.873,1.709c1.001,2.477,3.06,5.593,5.586,8.417c2.071,2.506,6.455,10.128,6.048,13.791
			c-0.302-0.162-0.608-0.171-0.909-0.331c-1.67-0.509-2.732-0.842-3.283-3.152c-0.696-2.469-4.147-10.521-6.722-11.511
			c-1.059-0.489-2.206-3.275-3.214-5.599c-0.573-1.393-1.151-2.633-1.591-3.411c-0.734-1.09-1.787-1.733-3.163-1.771
			c-3.213-0.088-7.125,3.019-8.858,4.808c-1.26,1.342-3.274,2.207-5.135,3.075c-0.463,0.137-0.93,0.432-1.395,0.572
			c-0.778,0.438-1.55,0.723-2.017,1.016c-1.551,0.723-2.635,1.152-2.964,2.061c-0.327,0.757-0.05,1.834,0.961,4.008
			c0.579,1.239,1.152,2.633,1.577,3.87c0.864,2.013,1.573,4.021,2.746,5.891c0.293,0.468,0.587,0.935,1.033,1.406
			c0.739,0.938,1.475,2.029,2.053,3.271c0.29,0.62,0.569,1.546,0.698,2.47c0.548,2.309,1.245,4.776,3.234,4.831
			c0.305,0.009,0.769-0.13,1.079-0.275c4.022-1.573,9.472-4.943,12.756-7.457c0.624-0.44,1.244-0.729,1.863-1.018
			c0.622-0.29,1.396-0.575,2.177-1.166c0.467-0.291,0.776-0.438,1.083-0.43c0.458,0.013,0.758,0.328,0.9,0.639
			c0.142,0.462,0.12,1.228-0.663,1.816c-1.724,1.483-4.052,2.645-6.073,3.812c-2.643,1.458-5.437,2.914-7.328,4.851
			C151.926,199.998,148.187,202.345,145.74,202.277z"/>
		<path fill="#8A929F" d="M250.573,191.537c-0.611-0.018-1.062-0.335-1.657-0.965c-1.631-1.881-2.74-6.044-3.144-8.044
			c0.008-0.309-0.283-0.927-0.571-1.547c-0.578-1.241-1.293-3.098-0.808-4.003c0.161-0.302,0.317-0.451,0.629-0.594
			c2.935-0.992,4.978-2.925,7.914-3.916c0.462-0.139,1.077-0.277,1.542-0.417c0.619-0.289,1.09-0.735,1.553-0.875
			c2.478-1.004,2.988,2.684,4.018,4.243c0.289,0.621,2.601,5.582,0.485,4.607c-0.757-0.327-1.324-2.028-1.767-2.653
			c-0.583-0.934-1.457-2.641-2.676-2.828c-1.376-0.038-3.414,1.743-4.509,2.478c-1.089,0.737-2.334,1.467-3.727,2.044l-0.312,0.142
			l0.146,0.311c0.141,0.463,0.272,1.23,0.403,2.001c0.541,2.618,1.357,6.313,3.957,6.385c0.461,0.013,0.771-0.133,1.233-0.275
			c1.546-0.567,2.947-1.445,4.497-2.17c1.714-1.022,3.268-1.9,4.811-2.316c0.598,0.476,0.737,0.94,0.571,1.395
			c-0.359,1.979-5.61,3.671-7.62,4.382c-0.462,0.14-0.771,0.283-0.924,0.279c-0.463,0.141-1.088,0.582-1.561,1.028
			C252.274,190.97,251.494,191.562,250.573,191.537z"/>
		<path fill="#8A929F" d="M226.836,208.791c-2.294-0.062-3.554-4.383-4.252-6.851l-0.273-1.079c-0.423-1.39-1.451-2.947-2.624-4.818
			c-0.88-1.401-1.606-2.798-2.023-4.341c-0.281-0.926-1.608-2.797-0.665-3.691c0.314-0.296,1.547-0.568,2.015-0.863
			c1.708-0.87,2.812-2.065,4.52-2.936c1.864-1.021,3.878-1.883,5.887-2.592c1.856-0.714,3.713-1.431,5.709-1.682
			c1.843-0.256,2.428,0.832,3.149,2.384c0.863,2.013,1.88,4.031,2.741,6.045c0.434,0.929,0.868,1.858,1.296,2.943
			c0.435,0.928,1.477,2.029,2.518,3.129c0.742,0.785,1.784,1.888,2.074,2.506c-0.771,0.133-1.386,0.269-1.999,0.252
			c-3.21-0.089-4.659-3.038-6.101-6.29c-1.012-2.171-2.344-3.892-3.354-6.062c-0.728-1.398-0.723-1.55-2.422-0.985
			c-2.936,0.99-5.273,2.61-8.215,3.756c-1.083,0.428-2.468,0.695-3.259,1.592c-0.946,1.048-0.504,1.67,0.074,2.909
			c0.569,1.545,0.987,3.092,1.561,4.482c0.434,0.932,1.33,1.72,1.611,2.647c0.284,0.772,0.11,1.533,0.396,2.305
			c0.718,1.704,1.769,2.498,3.146,2.536c1.682,0.046,3.704-1.121,5.719-2.138c1.865-1.021,3.734-2.194,5.265-2.152
			c0.307,0.009,0.612,0.016,0.913,0.179c-0.203,1.833-3.634,4.186-6.12,5.496c-1.087,0.582-2.48,1.155-3.873,1.728
			c-0.774,0.288-1.551,0.726-2.324,1.011C227.452,208.655,227.142,208.8,226.836,208.791z"/>
		<path fill="#8A929F" d="M237.778,228.377c-2.289-0.215-2.576-0.987-2.986-2.684c-0.14-0.616-0.424-1.389-0.86-2.167
			c-1.157-2.48-2.767-5.126-3.77-7.603c-0.852-2.472,4.254-4.476,6.109-5.188c2.635-1.152,5.264-2.15,7.887-2.844
			c-0.465,0.138,4.495,8.999,4.787,9.619c-0.465,0.143-0.776,0.285-1.085,0.431c-0.468,0.291-0.778,0.438-1.084,0.429
			c-0.152-0.004-0.764-0.021-1.486-1.571c-0.578-1.239-1.275-3.708-2.633-4.51c-1.35-0.957-3.214,0.063-4.463,0.947
			c-1.559,1.027-3.108,1.753-4.517,2.784c0.569,1.546,1.743,3.413,2.471,4.812c0.727,1.399,1.458,2.643,1.569,4.177l-0.014,0.46
			l0.458,0.012c1.845-0.258,3.866-1.424,5.584-2.603c1.405-1.034,2.807-1.912,3.876-1.882c0.913,0.177,1.218,0.337,1.209,0.645
			C248.476,223.316,239.459,228.424,237.778,228.377z"/>
	</g>
</g>
</svg>
