<?xml version="1.0" encoding="utf-8"?>
<!-- Generator: Adobe Illustrator 16.0.0, SVG Export Plug-In . SVG Version: 6.00 Build 0)  -->
<!DOCTYPE svg PUBLIC "-//W3C//DTD SVG 1.1//EN" "http://www.w3.org/Graphics/SVG/1.1/DTD/svg11.dtd">
<svg version="1.1" id="Layer_1" xmlns="http://www.w3.org/2000/svg" xmlns:xlink="http://www.w3.org/1999/xlink" x="0px" y="0px"
	 width="408px" height="353px" viewBox="83.14 248.445 408 353" enable-background="new 83.14 248.445 408 353"
	 xml:space="preserve">
<g>
	<path fill="#E8EBEE" d="M352.028,538.627c19.99,2.706,43.137,4.66,57.865-9.167c7.215-6.764,11.123-16.233,14.73-25.251
		c3.156-7.966,6.464-15.933,9.619-23.748c1.653-4.059,3.156-9.168,0-12.324c-1.803-1.805-4.659-2.255-7.364-2.405
		c-46.443-3.907-93.037,2.705-139.029,9.169c-17.134,2.404-34.268,4.81-51.402,7.215c-10.07,1.352-20.591,3.004-28.557,9.317
		c-3.307,2.556-6.012,5.863-8.567,9.169c-9.018,11.122-18.036,22.395-27.054,33.517c-1.052,1.352-2.104,3.156-1.202,4.509
		c0.451,0.602,1.202,0.901,1.953,1.204c7.666,2.854,15.481,5.71,23.748,6.161c9.769,0.602,19.238-2.404,28.857-3.908
		c31.713-5.11,63.728,4.51,95.742,5.411c21.343,0.602,42.685-2.555,63.877-5.861"/>
	<g>
		<path fill="#FFFFFF" d="M140.254,355.861c-5.411,42.986,1.653,84.319,0.602,128.207c-0.15,6.464-0.602,14.128,0.451,20.441
			c1.052,6.312-1.654,14.428,4.509,16.383c9.168,2.854,10.371,0.45,22.394-0.752c15.481-1.653,36.373,0.301,50.802-0.902
			c2.555-0.15,13.377,1.353,15.481,2.705c2.104,1.354-6.163,5.862-9.168,7.065c-34.72,3.907-16.383,0.601-23.597,2.705
			c-7.666,2.254-14.881,7.814-16.233,15.631c-0.15,0.902-0.15,1.804,0.3,2.555c0.602,0.752,1.653,0.902,2.556,0.902
			c8.267,0.601,16.383,1.053,24.649,1.654c37.576,2.555,71.093-3.308,108.818-1.354c5.41,0.301,12.023,0,17.736,0
			c5.41,0,9.017,0,14.277-2.404c7.815-3.606-2.855-17.284-10.521-21.192c-7.666-3.907-16.684-4.059-25.252-5.109
			c-1.953-0.15-4.509-1.053-4.509-3.006c-0.149-2.255,2.856-3.157,5.111-3.157c19.089-0.901,38.176-1.954,57.265-2.855
			c8.867-0.45,18.337-1.203,25.101-6.913c7.364-6.313,9.018-16.984,9.167-26.754c0.603-24.649-4.509-49.3-15.18-71.544
			c-2.555-5.562-5.562-11.272-4.659-17.285c-2.104,7.214,3.307,14.128,7.214,20.591c4.51,7.364,7.064,16.232,6.163,24.8
			c-0.901-27.956-1.954-55.912-2.855-83.718c-0.151-4.058-0.302-8.266-2.255-11.874c-4.811-8.717-16.984-9.018-26.903-8.267
			c-50.802,3.758-102.205,6.614-153.157,5.261c-16.533-0.451-33.367,0.751-49.75,2.705c-6.914,0.752-17.435-0.452-23.898,2.555
			C139.503,345.34,140.856,350.3,140.254,355.861z"/>
		<path fill="#CFCECD" d="M391.556,495.19c1.054-0.15,2.105-0.301,2.857-0.901c0.751-0.602,1.202-1.653,1.353-2.557
			c1.503-5.86,0-11.873-1.202-17.734c-1.504-7.364-2.705-14.88-3.308-22.395c-0.15-2.104-0.3-4.359,0.603-6.313
			c2.103-4.358,8.115-4.659,12.925-4.358c1.202,19.689-5.261,39.229-3.456,58.918c0.3,2.855,0.6,5.862-0.902,8.116
			c-1.052,1.653-3.007,2.856-4.96,3.458c-3.307,1.051-6.764,1.202-10.221,1.202c-9.47,0.15-18.788,0.301-28.257,0.601
			c-1.503,0,1.053-9.168,1.653-10.221c1.654-3.156,3.006-3.757,6.163-4.359C373.671,496.844,382.84,496.393,391.556,495.19z"/>
		<path fill="#CFCECD" d="M401.477,355.411c-1.653-6.163,0.602-12.926-5.861-16.233c-6.613-3.457-23.447-0.3-30.812-0.3
			c-27.506,0-55.161-0.602-82.666-0.902c-25.401-0.3-50.651,2.705-76.052,3.908c-14.429,0.751-30.962,3.607-44.338,8.718
			c-18.187,7.064-16.534,13.828-16.534,32.014c0,29.91-3.005,59.67-3.005,89.429c0,10.672-1.955,33.216,6.312,40.732
			c7.365,6.764,34.72,4.358,45.241,5.56c10.37,1.204,20.741,2.255,31.262,2.706c3.457,0.15,14.128,0.602,14.128,5.262
			c-0.15,7.364-30.661,8.566-35.771,10.82v-1.953c-2.856,4.058-5.862,6.463-4.81,11.874c34.118,2.706,69.139-2.706,103.256-3.909
			c5.562-0.148,36.824,3.607,35.923-6.012c-0.903-10.22-13.527-4.811-19.089-7.515c-7.063-3.457-6.915-9.168,0.451-11.273
			c6.914-1.953,15.481-1.052,22.695-1.353c11.724-0.301,27.957-1.803,24.801-17.734c-15.783-0.902-32.165,2.855-48.248,2.855
			c-22.245,0-43.586-1.503-65.38-3.006c-30.511-2.104-62.074-2.255-92.436-3.157c-0.901-13.677,2.856-25.852,2.856-38.928
			c-0.151-14.729-1.053-29.309-1.053-44.038c0-11.122-2.404-34.87,5.11-44.79c3.608-4.66,10.672-4.96,15.782-5.26
			c11.724-0.751,23.297-1.203,35.021-1.954c41.032-2.555,81.162-5.712,122.494-3.908c8.417,0.301,31.863-4.66,38.777,0.15
			c7.817,5.26,5.262,21.944,5.262,29.91c0,21.493-1.052,42.536,4.208,62.977c17.435,3.607,14.88-19.99,14.88-30.512
			C403.581,398.247,406.738,375.401,401.477,355.411z"/>
		<path fill="#A4D2EB" d="M207.288,382.014c-16.683-3.005-33.667,10.07-38.327,25.852c-3.607,12.174,0.602,19.539,9.469,27.956
			c3.156,3.005,8.417,9.019,13.077,9.019c7.064,0,15.931-12.625,18.487-18.788c5.711-13.677-0.602-32.616-1.653-46.143"/>
		<path fill="#A6D2A8" d="M216.457,418.687c-0.751-12.023-4.358-30.661,1.954-40.581c5.561-8.717,32.465,9.92,35.471,15.33
			c4.959,8.718,2.405,11.724-5.562,14.73C238.1,412.225,227.429,417.034,216.457,418.687z"/>
		<path fill="#EA9B95" d="M256.287,433.116c-1.052,20.441-59.519,48.547-59.97,25.701c-0.15-5.861,4.96-9.169,7.515-13.827
			c3.307-6.013,3.006-12.476,10.521-14.88c6.914-2.254,16.383,2.255,23.147,2.706C243.661,433.267,249.974,432.815,256.287,433.116z
			"/>
		<path fill="#A6D2A8" d="M290.705,451.152c6.463,0.15,12.775-0.902,19.238-1.052c10.221-0.301,21.192,1.503,31.264,0
			c3.757-0.602,7.514-2.405,11.422-3.007c3.457-0.601,6.764,0,9.77-1.503c-0.15-1.653,0.151-3.456,0.603-4.81
			c-11.424-0.751-23.147-2.104-34.571-0.601c-7.664,1.051-15.48,1.954-22.995,2.404c-4.059,0.301-8.117,0-12.175,0.301
			c-2.705,0.301-6.161,0.15-7.965,2.555C282.138,449.8,287.099,451.002,290.705,451.152z"/>
		<path fill="#A4D2EB" d="M298.972,473.698c11.122-0.15,22.846-0.15,33.818-1.354c6.764-0.752,13.226-2.555,20.141-3.005
			c5.41-0.452,8.866,0.45,8.416-6.013c-13.076-0.751-26.753-1.353-39.829,0.45c-7.665,1.052-15.182,1.954-22.847,2.856
			c-3.005,0.451-8.867-0.451-10.972,2.555C283.641,475.651,296.116,473.698,298.972,473.698z"/>
		<path fill="#A6D2A8" d="M318.51,374.349c-9.167,0.451-18.336,1.653-27.353,1.954c-7.665,0.301-8.719,3.306-9.019,10.672
			c-0.3,7.665-1.203,15.932,1.354,23.447c18.335,4.358,44.338,1.954,63.426-1.653c6.312-1.203,12.927-0.752,19.238-1.954
			c4.659-0.902,5.562-1.353,6.612-5.862c1.954-8.417,0.451-21.343-0.15-30.06c-9.018-0.751-17.434,2.255-26.301,2.855
			C336.998,374.198,327.68,373.897,318.51,374.349z"/>
		<path fill="#F4F5C4" d="M250.274,423.046c9.62,0,10.822-4.509,9.92-13.828c-8.567-0.752-24.951,2.856-28.257,11.874
			C236.898,423.947,244.413,423.046,250.274,423.046z"/>
		<path fill="#757F92" d="M399.974,339.629c3.307,7.515,1.053,17.585,1.503,25.551c0.301,8.417,0.602,16.683,1.202,25.1
			c0.751,8.868,0.751,17.886,0.902,26.754c0.15,4.359,0.15,8.717,0.15,13.076c0,2.855,0.901,7.515-1.953,9.469
			c-1.504-2.104-0.902-7.064-0.902-9.619c-0.151-1.954-1.053-6.314-0.302-8.116c0.753-1.653-0.3-6.614-0.149-8.567
			c0.149-4.81-0.301-9.77-0.602-14.579c-0.601-9.018-1.052-18.187-1.353-27.205c-0.15-4.359-0.451-8.567-0.602-12.926
			c-0.149-4.81,1.052-9.92,0.301-14.729c-0.752-4.058-7.966-2.555-11.271-2.254c-4.36,0.3-8.567,0.15-13.076,0.15
			c-9.019,0-18.036,0.602-27.205,0.451c-8.116,0-16.383-0.149-24.499-0.149c-4.209,0-8.418,0.3-12.625,0.3
			c-4.811,0.15-10.972-0.602-15.331,0.751c-7.364,2.254-17.134,1.503-24.799,1.803c-2.104,0-15.481,1.503-16.083,0.602
			c-0.3-0.451-4.96,0.301-6.162,0.451c-3.457,0.301-6.914,0.15-10.221,0.15c-2.104,0-6.312-0.601-8.116,0
			c-1.503,0.601-9.469,0.451-9.619,0.751c0-0.151-8.117,0.751-8.868,0.751c-4.81,0.451-10.221-0.451-15.031,0.601
			c-2.405,0.602-4.81-0.601-7.214,0c-2.255,0.602-5.26,0.602-7.666,0.451c-6.011,0-11.874,0-18.036,0.601
			c-4.358,0.451-8.718-0.601-12.775,0.451c-5.862,1.654-6.914-2.104-0.903-3.306c5.862-1.202,12.175-0.601,18.037-0.752
			c7.816-0.15,15.481-0.751,23.297-0.751c25.251-0.15,51.703-2.855,77.555-3.607c21.944-0.602,42.685-3.157,65.081-2.855
			c10.22,0.15,19.989,0.3,29.91,0.3c6.011,0,12.023,0,18.036,0C386.899,339.178,393.511,338.276,399.974,339.629
			C401.778,343.837,396.968,338.877,399.974,339.629z"/>
		<path fill="#757F92" d="M143.561,515.331c-1.654-2.404-1.203-5.712-1.504-9.019c-0.3-4.058-0.901-7.966-0.451-12.023
			c0.902-7.517-0.3-15.33,0-22.846c0.451-7.966-0.3-16.232-0.901-24.199c-0.602-8.717-0.15-17.584-0.15-26.303
			c-0.15-14.128-0.601-27.806,0-41.783c0.301-7.515-1.353-14.88-1.502-22.395c0-2.555,0.15-6.162,2.855-6.162
			c0.15,3.908,0.602,7.966,1.052,11.873c1.654,14.88,0.602,29.76,0.602,44.791c0,13.226-0.301,26.903,0.601,40.13
			c0.901,13.227,0.451,27.204,0.3,40.731c0,4.059-0.15,8.267,0.151,11.874C145.064,503.006,147.619,513.526,143.561,515.331
			C141.907,512.626,146.266,514.128,143.561,515.331z"/>
		<path fill="#757F92" d="M343.01,351.954c-0.45,1.954-2.556,2.254-3.606,0.601C337.75,350,341.808,350.3,343.01,351.954
			C342.86,352.855,342.407,351.051,343.01,351.954z"/>
		<path fill="#757F92" d="M280.635,416.884c-1.353,0-3.456-7.666-3.607-9.018c-0.601-6.614,0-13.227-0.3-19.84
			c-0.301-4.96-1.353-10.371-0.752-15.181c0.752-5.41,6.012-1.953,10.222-2.104c10.971-0.601,22.093-2.104,33.065-2.104
			c9.318,0,18.787,0.451,27.955-0.602c8.116-0.902,16.233-0.3,24.5-1.503c5.109-0.751,6.011,3.607,6.462,7.365
			c0.302,2.405-1.053,11.723,0.452,12.775c0.3,0.151,0,9.77,0.149,10.972c0.301,1.954,0.751,4.359-0.149,6.162
			c-1.805,3.607-2.556-2.405-2.706-3.457c-1.202-10.22-1.353-21.192-0.752-31.413c-10.672,1.052-20.741,1.052-31.563,1.503
			c-7.664,0.301-15.631,1.503-23.297,0.451c-3.456-0.451-7.515,0.902-11.122,0.902c-1.352,0-4.057,0.601-5.41,0.451
			c-3.307-0.451-9.619,0-13.677,0.3c-2.856,0.3-10.67-0.451-10.822,2.705c-0.15,4.208,0.602,9.018,0.752,13.227
			c0.15,4.359,0.751,8.718,0.751,12.926c0,4.359-0.601,8.868,0.751,12.927c1.052,0.751,7.966-0.151,9.77,0
			c4.359,0.3,8.716-0.602,13.076-0.752c7.515-0.151,15.03,0.3,22.545-0.451c4.81-0.451,9.619-0.451,14.279-1.203
			c2.854-0.451,6.462-0.15,9.017-1.052c4.059-1.353,8.567-0.301,12.626-1.653c2.705-0.902,6.012-1.052,8.868-0.902
			c3.606,0.15,3.306,2.254,0.3,2.555c-2.253,0.15-6.463,0.751-9.319,1.052c-7.063,0.602-14.128,1.353-21.342,2.104
			c-4.358,0.452-8.717,0.452-12.927,1.053c-1.803,0.3-9.92,1.954-10.971,0.601c-0.451-0.751-14.58-0.15-16.383,0
			C294.162,416.132,287.399,416.433,280.635,416.884C278.831,416.733,282.289,416.733,280.635,416.884z"/>
		<path fill="#757F92" d="M369.765,386.824c-1.505-1.354-5.413-8.718-6.464-7.815c-2.405,1.953-7.967,6.462-8.718,9.468
			c-0.902,3.006-4.659,7.816-7.516,9.168c-1.954-0.602-2.404-2.856-4.357-3.607c-1.503-0.3-0.602,1.803-1.805,1.803
			c-2.705,1.354-4.959,7.966-6.462,1.804c-1.053-4.659-2.406-9.619-5.111-13.677c-2.404,0-5.561,5.861-6.913,7.515
			c-2.105,2.705-4.209,5.411-6.162,8.116c-2.557,3.607-4.059,4.208-6.614,0.451c-2.104-3.307-4.96,3.307-7.515,3.157
			c-1.203-0.151-3.307-3.157-4.058-4.359c-1.203-1.954-6.914,4.359-7.966,5.712c-0.45,0.601-2.255,3.457-3.306,3.457
			c-3.306-0.15,0-2.856,0.601-3.457c2.255-2.405,4.509-4.66,7.214-6.764c3.156-2.555,2.556-4.66,5.41-0.451
			c1.654,2.405,2.405,3.758,4.961,1.353c1.502-1.353,2.705-3.156,4.811-3.607c0.149,2.255,2.104,3.157,2.855,5.11
			c6.012-5.411,9.619-13.226,16.231-18.035c2.856-2.255,2.105-3.608,2.856,0.3c2.104,4.208,3.456,8.867,5.109,13.376
			c2.405-1.052,4.059-5.71,6.613-4.809c1.653,0.601,3.157,4.359,4.811,2.856c0.601-0.602,2.254-2.856,2.555-3.457
			c1.653-3.758,4.81-6.613,7.516-9.77c0.901-1.053,1.052-2.405,2.555-3.006c-0.15,0,2.556-2.856,2.556-2.706
			C366.756,374.649,372.018,385.17,369.765,386.824C368.561,385.922,372.168,385.17,369.765,386.824z"/>
		<path fill="#757F92" d="M243.511,388.327c-2.254,0.751-4.058-1.654-5.861-2.254c-2.406-0.902-4.66-2.255-7.064-3.307
			c-4.811-1.804-10.221-3.757-15.181-3.757c-6.763,0-13.676,0.901-19.839,3.908c-1.803,0.901-7.064,3.757-7.515,5.411
			c-0.451,1.502-3.306,3.156-4.358,4.208c-1.804,1.954-3.006,4.058-4.509,6.312c-4.208,6.163-8.417,13.978-8.718,21.643
			c-0.15,3.457,0.602,6.914,1.053,10.221c0.3,1.804,0.15,3.909,0.751,5.712c0.451,1.653,1.653,3.006,2.105,4.659
			c1.652,6.312,8.416,11.122,12.926,15.33c8.116,7.666,23.446,10.222,34.268,8.868c5.261-0.751,11.724-3.306,15.932-6.913
			c2.254-1.955,5.861-3.758,7.064-6.464c0.301-0.751,3.307-3.606,3.458-3.606c2.855,0.601,6.162-13.227,7.063-15.181
			c2.104-4.81,1.804-13.677,1.653-18.787c-0.15-4.209-1.804-7.666-3.307-11.423c-0.901-2.405-3.307-6.313-3.607-8.718
			c5.711-0.45,7.515,9.168,8.868,13.226c1.954,6.163,1.202,12.927,0.602,19.239c-1.203,13.076-7.516,24.8-18.337,32.615
			c-3.908,2.856-7.966,5.11-12.476,7.666c-2.706,1.502-6.764,1.202-9.769,2.104c-1.052,0.301-6.613,0.301-7.214-0.451
			c-0.451-0.603-2.705-0.302-3.457-0.302c-2.856-0.149-6.312-0.751-9.019-1.804c-4.208-1.653-8.868-2.855-12.324-6.012
			c-4.81-4.358-11.724-8.417-14.129-14.88c-1.202-3.306-3.908-6.913-4.058-10.521c-0.15-4.209-1.203-8.268-1.353-12.626
			c-0.601-12.324,6.914-24.649,15.03-33.216c7.966-8.417,19.389-13.828,31.112-13.527c7.365,0.15,13.376,3.006,19.99,5.11
			C236.146,381.563,243.361,384.418,243.511,388.327C241.407,389.078,243.361,384.568,243.511,388.327z"/>
		<path fill="#757F92" d="M209.543,383.216c1.955-0.3,4.96,36.072,1.654,41.633c-6.012,9.921-10.521,20.142-17.435,29.761
			c-0.601-0.901-1.503-1.202-2.556-1.052c-0.601-0.902,1.202-3.006,1.503-3.607c1.653-3.006,3.457-5.712,5.11-8.719
			c3.607-6.462,7.816-12.474,11.574-18.787c1.203-2.104,0.15-5.26,0.15-7.815c0-3.007-0.45-6.013-0.3-9.019
			c0-4.058-0.15-8.116-0.45-12.174c-0.151-2.405-0.301-4.81-0.301-7.214C208.341,380.812,209.093,385.772,209.543,383.216
			C210.145,383.216,209.543,383.817,209.543,383.216z"/>
		<path fill="#757F92" d="M251.026,412.825c-0.902,0-1.353,1.202-2.254,1.202c-1.503,0.151-3.156,0.602-4.509,0.902
			c-1.953,0.451-4.509,1.954-6.462,1.804c-3.157-0.301-6.614,1.953-9.77,2.104c-3.006,0.15-6.012,1.805-9.168,1.504
			c-5.11-0.602,3.006-3.307,4.208-3.457c4.66-0.752,10.07-0.901,14.429-2.555C239.153,413.577,250.124,409.669,251.026,412.825
			C250.124,412.825,250.425,410.571,251.026,412.825z"/>
		<path fill="#757F92" d="M253.281,428.006c0,4.659-15.03-0.902-17.735-1.052c-5.562-0.301-16.984,0.6-21.193-3.908
			c-2.104-2.255,0.903-3.457,2.556-1.354c1.502,2.105,10.821,1.953,13.375,2.105c4.359,0.3,8.869,1.051,13.227,1.803
			C245.615,425.901,251.927,426.052,253.281,428.006C253.13,430.861,252.228,426.503,253.281,428.006z"/>
		<path fill="#757F92" d="M376.529,433.116c-7.215,1.352-15.633,0.602-23.147,0c0,0.901-18.787,0.602-21.795,0.751
			c-11.873,0.301-24.348,0.301-35.92,1.353c-3.157,0.302-5.562,0.752-9.018,0.752c-7.365-0.15-2.254,2.854-2.856,7.215
			c6.763-1.353,14.879-1.503,21.643-1.803c8.115-0.302,16.383-0.152,24.498-1.054c8.117-0.901,16.533-1.201,24.801-0.75
			c2.104,0.149,4.209,0.149,6.312,0.3c2.855,0.15,5.862-0.902,6.463,2.255c0.301,1.653,0.751,3.758,0.15,5.41
			c-0.903,2.556,1.052,1.504,0.601,3.457c-4.059-0.45-7.214,0.301-10.069,0.752c-8.717,1.051-18.487-1.504-26.904,0.901
			c-3.006,0.902-7.364,0.902-10.671,1.202c-6.012,0.601-12.024,0-18.036,0.901c-3.908,0.452-7.666,0.603-11.574,0.603
			c-2.705,0-5.861-0.451-5.861,2.254c-0.149,2.255,0,4.51-0.3,6.764c4.058,0.15,8.717-0.151,12.625-1.052
			c2.856-0.751,5.861,0.15,8.718-0.301c8.116-1.354,16.232-1.504,24.499-1.202c7.966,0.301,16.532-0.451,24.499-1.053
			c2.855-0.301,9.77-0.601,10.521,2.404c0.902,3.459-0.752,5.863-0.452,8.417c0.15,1.053-20.44,2.256-23.146,2.405
			c-7.215,0-14.729,2.556-21.944,2.404c-4.96-0.149-10.221,0.603-15.181,0.752c-4.357,0.15-8.567,0.601-12.925,0.751
			c-2.104,0-4.058,0.151-6.013,0.752c-3.757,0.901-1.352,3.607-3.156,6.462c5.411,0.753,11.874-0.9,17.436-1.351
			c8.266-0.451,16.081-2.256,24.497-2.256c8.568,0,16.985-0.601,25.552-0.9c3.607-0.151,15.332-1.955,18.036,0.75
			c-0.45,3.156-18.486,1.504-21.343,1.804c-6.613,0.752-13.978,1.053-20.891,1.503c-6.313,0.3-13.077,0.15-19.088,0.3
			c-3.157,0-6.614,1.204-9.62,1.654c-5.11,0.753-10.521-0.149-15.631,0.902c0.451-1.504-0.601-1.353-1.503-1.803
			c0-2.105,0-4.21,0-6.164c0.15-4.658,0.601-9.468,0.902-14.128c0.45-8.417-1.203-16.082-1.955-24.047c-0.15-2.406,0-4.811,0-7.216
			c2.104-0.751,4.509-0.901,6.763-0.751c2.255,0,5.111,0.301,7.366-0.301c5.86-1.504,13.226-1.201,19.088-1.504
			c3.907-0.3,8.417-0.45,12.774-0.45c3.308,0,7.967-0.901,11.123,0c2.705,0.901,5.11-0.601,7.516-0.752
			C348.12,430.261,376.979,431.312,376.529,433.116C373.372,433.566,376.827,431.764,376.529,433.116z M354.583,441.384
			c-10.521,0.149-22.396-0.152-32.615,2.103c-5.261,1.203-11.724,0.302-17.134,0.451c-2.557,0-4.961,0.902-7.516,1.053
			c-1.953,0.149-3.756-0.301-5.711-0.301c-2.404-0.15-4.959,1.352-7.365,0.751c0.602,2.555-0.75,8.117,2.706,7.815
			c4.057-0.3,8.115-0.149,12.023-0.451c3.156-0.149,6.463-0.601,9.619-0.901c3.607-0.45,7.214,0.752,10.822-0.45
			c3.907-1.203,8.566-0.752,12.624-1.353c4.51-0.752,8.718-0.752,13.227-0.452c6.764,0.302,13.228-0.6,19.99-1.051
			c-1.653-1.954-0.45-4.359-1.053-6.463C360.896,442.735,357.89,441.231,354.583,441.384
			C353.081,441.384,357.288,441.231,354.583,441.384z M360.745,463.026c-4.811-0.301-9.619,0.601-14.428,0.451
			c-4.36-0.151-8.567,1.202-12.927,1.052c-3.156-0.15-6.313,0.15-9.47-0.15c-3.005-0.301-6.012,0.301-9.317,0.45
			c-3.607,0.151-7.515,0.451-10.974,0.902c-1.353,0.15-4.058,1.052-5.108,0.451c-0.753-0.451-6.764,0.601-7.816,0.902
			c-2.856,1.052-5.26-1.203-5.411,2.255c-0.15,2.253-0.751,4.358-0.751,6.763c3.458,0.3,7.515-0.902,11.123-1.053
			c4.96-0.149,9.919-0.149,15.03-0.301c8.267-0.3,16.684-1.201,24.8-2.254c4.659-0.602,9.318-0.451,13.979-1.052
			c3.457-0.452,6.764-0.602,10.22-0.602c6.312,0,3.156-3.307,3.607-7.666C362.098,463.176,361.496,463.176,360.745,463.026
			C359.091,462.876,361.496,463.026,360.745,463.026z"/>
		<path fill="#757F92" d="M393.961,453.558C386.899,454.008,398.321,448.146,393.961,453.558
			C393.06,453.708,394.713,452.655,393.961,453.558z"/>
		<path fill="#757F92" d="M235.244,486.021c-5.41,1.654-10.971,0.151-16.532,0.301c-6.463,0-12.625,2.255-18.938,2.556
			c-7.365,0.3-13.527-1.502-20.591,0.902c-2.104,0.752-2.855-1.203-2.405-2.856c0.751-2.405,1.203-1.805,3.607-1.353
			c4.96-2.254,12.024,0,17.285,0C210.445,485.571,222.319,484.519,235.244,486.021C229.383,487.826,229.083,485.421,235.244,486.021
			z"/>
		<path fill="#757F92" d="M309.493,533.668c-6.013,2.556-12.175-7.967-11.874-12.776c0.451-5.109,4.358,3.007,4.809,3.908
			C304.081,528.407,308.741,529.76,309.493,533.668C307.539,534.419,308.892,530.061,309.493,533.668z"/>
		<path fill="#757F92" d="M245.615,521.492c1.052,3.008-8.868,15.481-10.372,12.776c-0.3-0.451-2.855,1.504-4.058,0.451
			c0.15-2.555,2.706-3.006,4.66-3.758C238.401,530.061,242.909,518.638,245.615,521.492
			C246.217,523.297,245.164,520.892,245.615,521.492z"/>
		<path fill="#757F92" d="M335.495,525.1c0,0,2.555,2.105,2.404,1.805c1.954,1.954,4.209,3.306,6.162,4.959
			c2.706,2.104,5.712,4.059,8.266,6.313c1.354,1.202-0.45,3.156-1.953,2.705c-2.254-0.751-3.757-2.104-5.561-3.607
			c-3.156-2.555-7.215-6.764-10.822-8.716c-4.509,0.3-9.169,0.3-13.827,0.3c-2.255,0-4.509,0.15-6.764,0
			c-0.602,0-7.365-0.902-3.758-2.555c3.156-1.354,6.764-0.302,9.92-0.452C323.772,526.002,331.738,527.054,335.495,525.1
			C335.495,525.401,334.143,525.701,335.495,525.1z"/>
		<path fill="#757F92" d="M176.327,477.005c1.352-3.759,10.972-1.354,13.827-1.503c6.914,0,13.828,0.149,20.892,0.149
			c12.926,0,26.001,0.15,38.928,0.15c-4.208,3.157-11.122,1.804-15.781,1.653c-5.862,0-11.874,1.954-17.736,1.504
			c-6.914-0.451-13.978-0.302-20.892-0.151C192.559,478.959,177.228,480.612,176.327,477.005
			C177.078,475.05,176.928,479.259,176.327,477.005z"/>
		<path fill="#757F92" d="M390.655,349.699c1.053,6.764,0.602,13.978,0.752,20.591c0.301,9.92,1.353,19.99,0.752,29.91
			c-1.053,13.979,2.255,29.008,1.503,43.438c-0.15,3.006-3.457,1.652-3.307-0.902c0.151-3.156-0.15-6.312-0.301-9.619
			c-0.301-7.063,0-14.579-0.902-21.644c-1.052-8.717,0-18.337-0.3-27.054c-0.451-10.521-0.601-21.042-0.902-31.714
			c-6.764,0.602-12.926,0.751-19.839,0.751c-3.909,0-7.815-0.15-11.725-0.3c-1.353,0-10.37,0.451-6.462-3.156
			c1.202-1.202,9.318,0.15,11.423,0.3c3.155,0.15,6.312,0.451,9.469,0.301c3.908,0,7.816,0.15,11.723-0.601
			C384.042,349.549,388.852,348.798,390.655,349.699C391.406,354.058,389.302,349.098,390.655,349.699z"/>
		<path fill="#757F92" d="M327.53,353.306c-13.527,4.059-29.31,2.255-43.287,2.405c-16.232,0.301-32.615,0.15-48.697,1.503
			c-8.267,0.601-16.534,0.601-24.65,0.902c-7.064,0.3-14.88,2.254-21.944,1.202c-11.273-1.954-23.297,2.405-34.87,1.653
			c0.301,11.122,1.202,22.396,0.601,33.667c-0.601,12.174-1.353,24.95-0.15,37.276c1.052,11.271,0.751,22.694,1.052,34.116
			c0.301,11.424,2.104,22.847,2.405,34.269c4.358-0.149,8.717-0.751,12.925-0.751c3.758,0,8.567-0.601,12.325,0.301
			c8.267,2.104-4.96,4.96-7.365,3.007c-0.451-0.302-7.515,0.149-8.567,0.299c-2.405,0.452-4.208,0.151-6.462,0.452
			c-1.052,0.15-4.509,1.353-4.96,0.902c-2.104-2.556-0.902-6.313-1.053-9.319c-0.45-5.861-1.954-11.122-1.803-16.983
			c0.3-9.168-0.602-18.337-0.602-27.506c0-13.527-1.804-26.903-1.353-40.731c0.451-16.383,0.15-32.766,0-49.149
			c0-5.11,12.024-3.757,16.382-3.908c6.764-0.3,13.227-0.451,19.99-0.751c11.573-0.451,24.199-1.353,35.171-1.353
			c15.331-0.151,31.263-0.451,46.443-1.503c12.175-0.751,24.349-0.902,36.373-0.751c2.254,0,4.359,0.602,6.614,0
			c1.651-0.3,7.063-1.954,8.566-0.902C321.968,352.705,327.53,349.549,327.53,353.306C322.719,354.81,327.53,350.451,327.53,353.306
			z"/>
		<path fill="#757F92" d="M369.765,496.543c-1.354,4.509-17.438,3.006-20.894,2.856c-6.312-0.301-13.978-0.753-20.14,0
			c-4.66,0.601-9.919-0.451-15.182-0.301c-9.317,0.15-18.636,0.602-28.105,1.052c-12.625,0.601-25.701,0.901-38.477,2.104
			c-17.285,1.504-34.419-1.954-51.704-0.45c-2.555,0.15-4.81-2.404-1.653-2.855c2.856-0.302,5.862-0.302,8.718-0.15
			c8.267,0.15,16.533,0.751,24.8,0.751c15.781,0,31.112-1.202,46.743-2.104c16.082-1.053,32.015-1.804,48.247-0.752
			c7.966,0.45,16.082-0.45,24.199,0c6.613,0.45,13.527-0.15,20.139-1.052C367.81,495.341,369.162,494.74,369.765,496.543
			C369.162,498.646,369.162,494.74,369.765,496.543z"/>
		<path fill="#757F92" d="M363.902,513.526c-0.301,1.654-15.932,2.256-17.886,1.654s-4.509,0.901-6.612,0.901
			c-4.359,0-8.568,0.451-12.927,0.451c-16.232,0-32.314,0.301-48.547,0.751c-6.913,0.15-13.227-0.149-20.291,0.301
			c-6.012,0.301-12.325,1.653-18.337,0.902c-7.365-1.053-15.781,0.45-23.296,0.3c-8.718,0-17.285-0.451-26.002,0
			c-8.718,0.451-17.436,1.354-26.303,1.503c-2.855,0.151-18.186,2.556-18.787-1.954c0-1.803,11.273-0.751,12.625-0.751
			c8.266,0.151,16.533-1.202,24.649-1.052c7.064,0.149,13.978-1.202,21.042-0.901c4.959,0.15,10.821-0.301,16.533-0.301
			c15.932,0,31.563-1.053,47.195-1.653c10.972-0.451,22.094-0.151,33.064-0.602c8.418-0.3,17.437,0.602,25.554-0.149
			C329.483,512.626,363.001,508.567,363.902,513.526C363.601,515.181,363.451,510.822,363.902,513.526z"/>
		<path fill="#757F92" d="M238.401,527.505c0.15,2.705-19.088,3.457-21.643,3.908c-2.856,0.602-13.377,0.9-14.279,3.606
			c-0.902,2.556-4.96,4.359-6.163,7.214c3.608,0.603,7.365-0.45,10.972-0.149c1.504,0.149,6.012-1.052,6.914-0.15
			c1.202,1.054,8.117-0.751,9.77-0.751c5.261-0.301,10.671-0.451,15.932-0.751c17.285-0.601,34.418-0.601,51.703-0.752
			c9.019-0.151,17.886,0.451,26.903,0.151c4.811-0.151,9.47-0.303,14.28-0.452c1.804-0.15,3.606-0.45,5.41-0.302
			c2.705,0.151,1.804,2.406-0.301,2.856c-5.411,1.054-12.323,0.452-18.187,1.054c-9.469,1.051-18.938-0.151-28.406,0.3
			c-12.476,0.601-24.649-0.151-36.373,0c-16.082,0.301-32.164,1.804-48.246,2.254c-2.556,0.151-14.579,1.954-16.233-1.503
			c-0.301-2.255,4.058-5.26,5.411-6.764c1.503-1.652,2.855-3.307,4.359-4.961c2.254-2.554,3.607-1.502,6.613-1.953
			c4.66-0.751,8.417-1.953,13.076-2.254c4.209-0.301,7.816-1.803,11.874-1.652C233.441,526.604,236.747,525.401,238.401,527.505
			C238.551,528.559,236.597,525.1,238.401,527.505z"/>
		<path fill="#757F92" d="M352.779,547.345c-3.156,4.96-17.585,2.104-22.394,2.104c-8.567,0.151-17.136,1.203-25.551,1.504
			c-1.955,0.149-19.54,1.353-19.69,0.45c-0.751-2.405-21.644,0.902-24.649,0.902c-7.214,0-14.579,0.3-21.794,0.3
			c-4.208,0-8.567,0-12.774,0.151c-2.556,0.15-6.614-0.751-9.018,0.3c-1.955,0.902-5.712,0.151-7.966,0.451
			c-3.758,0.451-7.516,0.451-11.272,0.602c-4.208,0.15-8.417-0.3-8.117-5.861c0.301-3.759,4.509,2.104,4.659,2.254
			c1.052-0.45,3.307,0.15,3.908,0c2.706-0.75,6.012-0.3,9.168-0.45c5.411-0.3,10.821-1.054,16.384-1.203
			c7.514-0.301,15.029-0.301,22.545-0.15c7.063,0.15,14.428-1.202,21.493-0.751c10.971,0.601,21.793,0.15,32.615-0.451
			c6.913-0.3,13.827-0.602,20.591-0.752c8.566-0.149,17.585,0.902,26.151-0.149C348.721,546.594,350.976,546.292,352.779,547.345
			C351.277,549.899,350.374,545.992,352.779,547.345z"/>
		<path fill="#757F92" d="M392.158,461.373c-0.15,10.671-0.3,21.343-0.902,32.014c0,0.451,0,0.753-0.3,1.052
			c-0.302,0.302-0.602,0.451-0.902,0.602c-7.064,2.104-14.729-1.504-21.943,0.301c-0.752,0.15-1.502,0.45-1.654,1.202
			c-0.15,0.601,0.452,1.354,1.053,1.503c0.602,0.15,1.353,0.15,2.104,0c2.856-0.451,5.862-0.451,8.719-0.3
			c3.456,0.3,6.764,1.052,10.22,1.052c2.405,0,5.11-0.451,6.312-2.555c0.602-0.902,0.602-2.104,0.752-3.157
			c0.15-1.953,0.3-3.908,0.45-5.861c0.301-4.059,0.602-8.116,0-12.175c-0.45-3.306-1.353-6.462-2.255-9.619
			c-0.149-0.602-0.3-1.052-0.751-1.503c1.653-0.901,2.255-2.706,2.556-4.509c0.601-3.457,0-6.914-0.902-10.222
			c-0.45-1.652-0.752-6.011-2.854-4.357c-1.805,1.503-0.603,4.809-0.303,6.463C392.309,454.759,392.158,458.065,392.158,461.373z"/>
		<path fill="#757F92" d="M401.627,439.278c0.602,11.423,0.602,22.847-0.15,34.27c-0.149,2.104-0.301,4.357,0,6.462
			c0.301,1.653,0.901,3.156,1.202,4.659c1.053,4.209,0.902,8.567,0.751,12.776c-0.149,2.255-0.149,4.659,1.054,6.462
			c2.254-4.207,3.005-9.167,3.005-13.978s-0.901-9.618-1.652-14.278c-1.053-7.215-1.653-14.43-1.804-21.644
			c0-2.705,0-5.561,0.15-8.267c0.149-1.953,0.45-4.058,0.301-6.012c-0.151-2.405-0.752-4.659-1.805-6.764"/>
		<path fill="#757F92" d="M390.355,511.724c4.358,0,9.318-0.15,12.476-3.307c0.149,1.954-1.203,3.606-2.706,4.659
			c-1.653,1.053-3.457,1.353-5.411,1.652c-10.822,1.654-21.644,2.105-32.615,1.504c-2.855-0.15-5.86-0.45-8.566-1.653
			c3.006-4.509,10.069-2.855,14.729-2.855C375.625,511.573,382.99,511.724,390.355,511.724z"/>
	</g>
</g>
</svg>
